<!-- Generated by IcoMoon.io -->
<svg version="1.1" xmlns="http://www.w3.org/2000/svg" width="40" height="32" viewBox="0 0 40 32">
<title>accusoft</title>
<path d="M20.131 15.75v-0.063l-3.2-4.113s-0.75 0.1-1.563 0.944c-0.563 0.581-15.131 14.944-15.213 15.056-0.438 0.625 0.1 0.425 0.981 0.106 0.050 0 7.156-2.288 7.156-2.288 0.031-0.038-0.006-0.006 0.037-0.038-0.025-0.319-0.050-1.637-0.063-1.731-0.037-0.325 0.137-0.431 0.438-0.556l5.787-2.113c0.037-0.050 5.531-5.106 5.638-5.206zM30.137 23.256c0.831 1.006 1.294 0.831 1.925 0.581 0.2-0.075 7.212-2.975 7.362-3.056 0.5-0.269-0.106-1.044-0.45-1.462-0.131-0.156-12.819-15.35-12.95-15.519-0.606-0.763-0.894-0.806-2.4-0.8-0.637 0-6.675 0.031-7.281 0.038-1.2 0.006-2.056-0.019-1.2 1.056 0.481 0.594 14.637 18.731 14.994 19.163zM39.681 23.356c-0.144-0.019-1.538-0.294-2.375-0.45 0 0-7.188 3.15-7.344 3.225-1 0.456-1.681-0.2-2.294-0.913l-3.569-4.625c-0.337-0.056-3.775-0.6-4.081-0.581-0.194 0.012-0.6 0.050-0.9 0.181-0.306 0.131-9.075 3.3-9.387 3.419-0.319 0.125-0.713 0.225-0.694 0.475 0.012 0.156 0.125 0.163 0.287 0.219 0.169 0.050 18.806 4.225 19.25 4.319 0.975 0.206 2.406 0.656 3.35 0.106 0.131-0.075 7.738-4.775 7.863-4.863 0.337-0.25 0.269-0.425-0.106-0.512z"></path>
</svg>
