<!-- Generated by IcoMoon.io -->
<svg version="1.1" xmlns="http://www.w3.org/2000/svg" width="32" height="32" viewBox="0 0 32 32">
<title>adversal</title>
<path d="M30.131 2h-28.337c-1.431 0-1.794 0.369-1.794 1.806v24.387c0 1.456 0.362 1.806 1.794 1.806h28.337c1.525 0 1.869-0.325 1.869-1.856v-24.256c0-1.538-0.337-1.887-1.869-1.887zM11.15 13.769c-1.719-1.262-4.506-0.544-5.263 1.463-0.269 0.694-0.581 0.594-1.094 0.519-0.606-0.094-1.075-0.2-1.406-0.344-1.8-0.713 0.538-3.456 1.556-4.019 2.569-1.338 5.213-1.387 7.831-0.3 2.556 1.050 2.156 3.7 2.156 8.031 0.169 1.613-0.269 3.644 0.581 5.55 0.119 0.275 0.025 0.494-0.169 0.669-0.525 0.419-2.456 0.137-2.912-0.462-0.119-0.137-0.113-0.225-0.244-0.387-0.225-0.244-0.456-0.137-0.744 0.063-3.588 2.275-8.769 1.337-9.188-2.706-0.194-1.831 0.775-3.569 2.475-4.438 2.388-1.219 7.012-0.738 7.125-1.931 0.069-0.637-0.119-1.256-0.706-1.706zM29.069 27.644c0 0.944-0.694 0.619-1.113 0.619h-24.681c-0.462 0-1.138 0.3-1.112-0.669 0.025-0.869 0.656-0.569 1.069-0.569 8.269-0.025 16.531-0.025 24.8 0 0.425 0 1.038-0.275 1.038 0.619zM29.306 6.362v18.188c0 0.356-0.044 0.869-0.506 0.869-0.775-0.025-1.719 0.444-2.256-0.35-0.363-0.544-0.488-0.25-0.775-0.075-3.337 1.856-8.006 0.444-9.025-5.325-0.381-2.087-0.044-4.194 0.981-6.25 0.738-1.494 3.556-4.756 8.506-1.906v-4.438c0-1.638-0.006-1.638 1.625-1.638 0.194 0 0.413 0.025 0.606 0 0.631-0.050 0.85 0.275 0.85 0.894-0.006 0.013-0.006 0.019-0.006 0.031zM26.087 20.881c-1.219 2.975-4.556 2.706-5.625 0.325-0.944-2.081-0.969-4.262 0.025-6.344 1.019-2.131 3.731-2.231 5.094-0.3 1.288 1.8 0.931 5.288 0.506 6.319zM7.662 23.087c-0.469-0.081-2.063-0.206-2.106-1.738-0.025-0.869 0.487-1.438 1.237-1.613 1.525-0.369 3.081-0.619 4.606-0.919 0.556-0.125 0.463 0.275 0.488 0.594 0.088 2.063-1.631 3.7-4.225 3.675z"></path>
</svg>
