<!-- Generated by IcoMoon.io -->
<svg version="1.1" xmlns="http://www.w3.org/2000/svg" width="32" height="32" viewBox="0 0 32 32">
<title>affiliatetheme</title>
<path d="M9.981 14.838c-3.206 4.431-7.287 6.925-9.106 5.575-1.825-1.356-0.7-6.037 2.513-10.469 3.206-4.431 7.288-6.925 9.106-5.575s0.694 6.037-2.512 10.469zM31.931 11.256c-4.613 7.713-11.994 11.731-16.531 8.975-1.563-0.95-2.581-2.575-3.063-4.613-2.1 4.050-5.8 7.113-10.256 8.325 3.112 3.706 7.756 6.056 12.938 6.056 9.375 0 16.975-7.694 16.975-17.181 0.006-0.531-0.019-1.050-0.063-1.563z"></path>
</svg>
