<!-- Generated by IcoMoon.io -->
<svg version="1.1" xmlns="http://www.w3.org/2000/svg" width="28" height="32" viewBox="0 0 28 32">
<title>airbnb</title>
<path d="M14 23.32c-1.578-1.979-2.505-3.714-2.813-5.199-1.409-5.5 7.038-5.5 5.629 0-0.341 1.516-1.268 3.25-2.813 5.199zM22.634 27.897c-2.629 1.144-5.229-0.68-7.456-3.154 6.494-8.129 2.882-12.5-1.178-12.5-3.432 0-5.322 2.907-4.58 6.281 0.433 1.824 1.577 3.899 3.402 6.219-2.033 2.253-3.784 3.293-5.322 3.433-3.125 0.464-5.569-2.566-4.456-5.693 0.944-2.447 6.982-14.449 7.242-15.098 0.984-1.879 1.598-3.587 3.711-3.587 2.021 0 2.712 1.621 3.773 3.742 2.25 4.414 5.584 11.092 7.177 14.943 0.823 2.067-0.086 4.456-2.313 5.415zM25.572 19.389c-8.055-17.144-8.501-17.389-11.572-17.389-2.845 0-4.054 1.979-5.291 4.549-6.635 13.269-7.278 15.15-7.334 15.314-1.576 4.333 1.671 8.137 5.602 8.137 1.357 0 3.788-0.379 7.023-3.9 3.667 3.986 6.329 3.9 7.023 3.9 3.931 0.003 7.178-3.804 5.601-8.137 0.001-0.243-1.051-2.431-1.051-2.474z"></path>
</svg>
