<!-- Generated by IcoMoon.io -->
<svg version="1.1" xmlns="http://www.w3.org/2000/svg" width="28" height="32" viewBox="0 0 28 32">
<title>alipay</title>
<path d="M23.609 2h-19.218c-2.428 0-4.391 1.963-4.391 4.391v19.218c0 2.428 1.963 4.391 4.391 4.391h19.218c2.407 0 4.36-1.942 4.391-4.35-2.872-1.601-6.912-3.771-10.725-5.527-2.004 2.748-5.259 5.063-9.289 5.063-4.412 0-5.858-2.831-6.065-4.773-0.248-2.438 0.93-5.094 6.22-5.094 2.211 0 4.959 0.641 7.946 1.56 1.033-1.881 1.653-3.771 1.653-3.771h-11.137v-1.044h5.755v-1.953h-6.84v-1.188h6.84v-3.151h3.183v3.151h6.84v1.188h-6.841v1.953h5.548s-0.951 2.914-2.397 5.682c3.058 1.044 6.251 2.253 9.289 3.296v-14.651c0.010-2.418-1.953-4.391-4.371-4.391zM2.955 20.184c0.062 1.261 0.641 3.358 4.371 3.358 3.254 0 5.786-2.48 7.367-4.556-2.789-1.168-5.28-1.963-6.84-1.963-4.216 0-4.959 2.066-4.897 3.161z"></path>
</svg>
