<!-- Generated by IcoMoon.io -->
<svg version="1.1" xmlns="http://www.w3.org/2000/svg" width="36" height="32" viewBox="0 0 36 32">
<title>android-sp</title>
<path d="M26.284 18.871c-0.828 0-1.5-0.672-1.5-1.5s0.672-1.5 1.5-1.5c0.828 0 1.5 0.672 1.5 1.5v0c0 0.828-0.672 1.5-1.5 1.5v0zM9.716 18.871c-0.828 0-1.5-0.672-1.5-1.5s0.672-1.5 1.5-1.5c0.828 0 1.5 0.672 1.5 1.5v0c0 0.828-0.672 1.5-1.5 1.5v0zM26.822 9.841l2.996-5.188c0.066-0.098 0.106-0.218 0.106-0.348 0-0.345-0.28-0.625-0.625-0.625-0.244 0-0.456 0.14-0.559 0.345l-0.002 0.004-3.034 5.254c-2.265-1.041-4.914-1.649-7.705-1.649s-5.44 0.607-7.823 1.697l0.118-0.048-3.034-5.254c-0.104-0.208-0.316-0.348-0.56-0.348-0.345 0-0.625 0.28-0.625 0.625 0 0.13 0.040 0.25 0.107 0.35l-0.001-0.002 2.996 5.188c-5.145 2.798-8.663 8.006-9.178 14.159h36c-0.515-6.153-4.034-11.361-9.178-14.159z"></path>
</svg>
