<!-- Generated by IcoMoon.io -->
<svg version="1.1" xmlns="http://www.w3.org/2000/svg" width="32" height="32" viewBox="0 0 32 32">
<title>apple</title>
<path d="M24.736 17.004c-0.041-4.054 3.305-5.998 3.455-6.096-1.88-2.75-4.81-3.127-5.852-3.17-2.491-0.253-4.863 1.467-6.127 1.467-1.261 0-3.213-1.43-5.279-1.394-2.718 0.041-5.222 1.581-6.621 4.014-2.822 4.895-0.722 12.151 2.028 16.125 1.345 1.942 2.948 4.127 5.051 4.047 2.027-0.080 2.792-1.312 5.243-1.312s3.139 1.312 5.283 1.27c2.18-0.039 3.562-1.979 4.896-3.929 1.543-2.256 2.179-4.441 2.216-4.552-0.047-0.022-4.249-1.632-4.293-6.471z"></path>
<path d="M20.706 5.109c1.116-1.354 1.871-3.236 1.666-5.109-1.61 0.065-3.559 1.070-4.714 2.423-1.035 1.2-1.941 3.112-1.698 4.951 1.796 0.139 3.627-0.913 4.747-2.265z"></path>
</svg>
