<!-- Generated by IcoMoon.io -->
<svg version="1.1" xmlns="http://www.w3.org/2000/svg" width="32" height="32" viewBox="0 0 32 32">
<title>appstore-sp</title>
<path d="M13.104 15.4l2.71-4.721c0.202-0.353 0.080-0.807-0.273-1.012l-1.928-1.103c-0.352-0.204-0.807-0.081-1.009 0.272l-8.929 15.55c-0.204 0.353-0.080 0.805 0.273 1.008l1.927 1.108c0.353 0.202 0.808 0.080 1.012-0.272l6.217-10.83z"></path>
<path d="M31.276 13.983h-6.506c0.765 1.434 1.476 2.785 1.975 3.74 0.345 0.66 0.62 1.181 0.717 1.357 0.101 0.185 0.174 0.377 0.222 0.573h3.592c0.369 0 0.67-0.3 0.67-0.669v-4.331c0-0.369-0.301-0.669-0.67-0.669z"></path>
<path d="M15.461 13.983l-3.255 5.669h8.833c-0.641-1.266-1.49-3.076-2.632-5.669h-2.947z"></path>
<path d="M8.104 13.983h-7.489c-0.369 0-0.669 0.3-0.669 0.668v4.331c0 0.369 0.3 0.669 0.669 0.669h4.234l3.255-5.669z"></path>
<path d="M5.245 27.35l-1.927-1.106c-0.353-0.202-0.679-0.037-0.726 0.367l-0.333 2.902c-0.046 0.404 0.191 0.548 0.527 0.32l2.489-1.697c0.337-0.227 0.323-0.582-0.030-0.786z"></path>
<path d="M26.288 19.725c-0.011-0.019-0.025-0.046-0.039-0.072v0c-0.179-0.331-0.628-1.193-1.217-2.312-0.006-0.015-0.014-0.028-0.022-0.043-0.044-0.086-0.090-0.173-0.137-0.262-0.034-0.063-0.068-0.128-0.103-0.193-0.028-0.056-0.058-0.112-0.088-0.169-0.052-0.099-0.105-0.198-0.159-0.3-0.016-0.032-0.033-0.064-0.049-0.095-0.060-0.114-0.121-0.229-0.183-0.345-0.017-0.034-0.034-0.067-0.053-0.1-1.358-2.567-3.063-5.727-4.114-7.389-1.842-2.912-4.301-7.765-4.988-7.42-0.961 0.479 2.015 6.639 3 8.955 0.986 2.314 4.831 11.185 5.601 11.572 0.773 0.386 1.070 0.171 1.585-0.041 0.515-0.215 1.438-0.928 0.967-1.787z"></path>
<path d="M28.486 24.295l-0.918-1.762c-0.208-0.398-0.696-0.561-1.087-0.362l-1.107 0.57c-0.39 0.202-0.512 0.674-0.273 1.055l1.162 1.834c0.24 0.378 0.747 0.502 1.123 0.275l0.79-0.475c0.378-0.226 0.517-0.738 0.31-1.136z"></path>
<path d="M28.203 26.846c-0.289 0.277-0.976 0.878-0.145 2.046 0.828 1.17 2.681 1.222 2.926 1.999 0.001 0 0.582-5.942-2.781-4.045z"></path>
</svg>
