<!-- Generated by IcoMoon.io -->
<svg version="1.1" xmlns="http://www.w3.org/2000/svg" width="36" height="32" viewBox="0 0 36 32">
<title>asymmetrik</title>
<path d="M32.344 19.325c2.425-2.5 3.631-5 3.656-7.256 0.050-4.094-3.712-7.388-10.587-8.438-8.044-1.231-18.031 0.969-25.413 5.15 3.25-1.656 6.912-3.013 10.669-3.638 4.656-1.281 9.563-1.587 13.831-0.925 9.531 1.487 12.3 7.969 6.175 14.481-0.637 0.675-1.375 1.319-2.188 1.913l-9.431-14.15-11.887 17.844c-4.1-1.837-4.781-5.637-1.194-9.45 1.3-1.387 3.019-2.619 4.969-3.631 1.25-0.762 2.481-1.412 3.875-1.919-4.069 1.269-7.669 3.306-10.1 5.806-1.731 1.788-2.587 3.569-2.606 5.181-0.031 2.194 1.462 4.069 4.275 5.188l-2.156 3.231h6.35l1.375-2.15c1.387 0.063 2.831 0 4.287-0.169l-1.425 2.319h8.469l-2.038-3.319c1.163-0.331 2.306-0.719 3.406-1.169l2.869 4.488h6.35l-4.587-6.9c1.156-0.756 2.188-1.594 3.056-2.488zM20.619 24.356l-1.563-2.538-2.044 3.331c-1.463 0.219-2.919 0.319-4.325 0.275l6.369-9.956 4.919 7.688c-1.075 0.462-2.206 0.869-3.356 1.2z"></path>
</svg>
