<!-- Generated by IcoMoon.io -->
<svg version="1.1" xmlns="http://www.w3.org/2000/svg" width="32" height="32" viewBox="0 0 32 32">
<title>atlassian</title>
<path d="M9.512 14.775c-0.481-0.512-1.231-0.481-1.55 0.175l-7.862 15.688c-0.313 0.625 0.15 1.356 0.838 1.356h10.938c0.363 0.006 0.688-0.2 0.838-0.525 2.369-4.863 0.944-12.269-3.2-16.694zM15.275 0.506c-7.644 12.088-0.531 21.788 4.062 30.969 0.156 0.319 0.481 0.525 0.837 0.525h10.887c0.7 0 1.15-0.738 0.837-1.356 0 0-14.656-29.413-15.025-30.144-0.331-0.662-1.175-0.675-1.6 0.006z"></path>
</svg>
