<!-- Generated by IcoMoon.io -->
<svg version="1.1" xmlns="http://www.w3.org/2000/svg" width="32" height="32" viewBox="0 0 32 32">
<title>atlassian-sp</title>
<path d="M31.176 1.354c-4.484 2.455-9.682 3.753-15.033 3.754-5.351-0.001-10.549-1.299-15.033-3.754-0.107-0.059-0.229-0.090-0.352-0.090-0.24 0-0.468 0.115-0.611 0.306-0.212 0.282-0.219 0.756 0.143 1.038 2.246 1.674 4.721 2.982 7.358 3.876 2.733 0.927 5.591 1.398 8.494 1.399h0.002c2.903-0.001 5.761-0.472 8.494-1.399 2.637-0.894 5.113-2.201 7.361-3.877z"></path>
<path d="M26.406 8.48c-1.3 0.497-2.619 0.875-3.824 1.155-0.245 0.057-0.444 0.24-0.527 0.459-0.878 2.404-3.119 4.693-5.47 7.091-0.094 0.090-0.226 0.208-0.442 0.208s-0.346-0.114-0.442-0.208c-2.351-2.398-4.592-4.679-5.47-7.083-0.082-0.219-0.281-0.402-0.527-0.459-1.205-0.281-2.529-0.67-3.826-1.167-0.070-0.027-0.143-0.040-0.215-0.040-0.13 0-0.256 0.041-0.363 0.122-0.167 0.127-0.253 0.333-0.233 0.531 0.199 1.999 0.989 3.954 2.415 6.002 1.34 1.926 3.088 3.708 4.778 5.432 3.114 3.176 6.056 6.176 6.314 9.654 0.023 0.314 0.285 0.557 0.6 0.557h3.658c0.165 0 0.322-0.068 0.436-0.187s0.173-0.28 0.165-0.445c-0.115-2.326-0.99-4.655-2.676-7.119-0.353-0.517-0.732-1.020-1.127-1.512-0.161-0.201-0.094-0.449 0.030-0.575 0.121-0.124 0.244-0.249 0.366-0.374 1.69-1.724 3.438-3.506 4.778-5.432 1.426-2.048 2.215-3.992 2.415-5.99z"></path>
<path d="M12.218 23.229c-0.087-0.091-0.214-0.183-0.427-0.183-0.273 0-0.435 0.189-0.496 0.282-1.539 2.342-2.334 4.552-2.443 6.773-0.008 0.164 0.052 0.326 0.166 0.446 0.114 0.119 0.273 0.188 0.438 0.188h3.652c0.314 0 0.579-0.246 0.602-0.559 0.080-1.071 0.413-2.144 1.020-3.271 0.21-0.39 0.047-0.756-0.074-0.913-0.602-0.783-1.339-1.618-2.436-2.762z"></path>
<path d="M16.147 10.356c1.146 0 1.812-0.069 2.045-0.069 0.283 0 0.554 0.232 0.554 0.557 0 0.095-0.022 0.162-0.045 0.222-0.152 0.407-0.845 1.869-2.136 3.124-0.145 0.141-0.309 0.167-0.422 0.167h-0.001c-0.113 0-0.277-0.026-0.421-0.167-1.29-1.255-1.983-2.717-2.135-3.124-0.022-0.060-0.045-0.127-0.045-0.222 0-0.325 0.271-0.557 0.554-0.557 0.234 0 0.899 0.069 2.044 0.069h0.008z"></path>
</svg>
