<!-- Generated by IcoMoon.io -->
<svg version="1.1" xmlns="http://www.w3.org/2000/svg" width="32" height="32" viewBox="0 0 32 32">
<title>atom</title>
<path d="M9.512 1.486c-1.853 0.405-2.833 2.551-2.625 5.73 0.064 0.921 0.053 0.831 0.245 2.008 0.080 0.474 0.133 0.873 0.123 0.884-0.011 0.016-0.335 0.096-0.714 0.186-2.519 0.581-4.372 1.454-5.485 2.583-0.751 0.756-1.065 1.459-1.054 2.348 0.005 0.501 0.17 1.049 0.474 1.576 0.261 0.453 1.193 1.374 1.805 1.789 1.283 0.863 1.678 0.985 2.029 0.634 0.149-0.149 0.181-0.224 0.181-0.399 0-0.341-0.117-0.506-0.517-0.724-1.757-0.975-2.679-1.986-2.679-2.956 0-0.351 0.123-0.671 0.415-1.054 0.772-1.028 2.636-1.949 5.134-2.54 0.66-0.154 0.788-0.165 0.788-0.053 0 0.144 0.533 1.848 0.873 2.78l0.341 0.937-0.421 0.804c-0.229 0.442-0.559 1.113-0.73 1.496-2.444 5.384-2.849 9.661-1.081 11.418 0.415 0.415 0.756 0.607 1.315 0.751 1.289 0.33 2.993-0.165 4.905-1.427 0.666-0.442 0.815-0.607 0.815-0.9 0-0.352-0.383-0.692-0.724-0.639-0.096 0.016-0.469 0.224-0.825 0.458-0.788 0.527-1.672 0.964-2.311 1.156-0.655 0.192-1.363 0.202-1.768 0.027-1.241-0.549-1.528-2.764-0.756-5.837 0.362-1.459 1.193-3.653 1.944-5.15l0.298-0.602 0.165 0.373c0.309 0.714 1.512 3.041 1.981 3.834 2.594 4.41 5.517 7.642 8.111 8.963 1.837 0.937 3.355 0.852 4.388-0.25 0.762-0.804 1.134-1.976 1.198-3.733 0.101-3.025-0.884-6.961-2.812-11.178-0.256-0.565-0.511-1.076-0.559-1.129-0.117-0.128-0.415-0.213-0.618-0.17s-0.447 0.288-0.485 0.495c-0.043 0.197 0.005 0.33 0.479 1.358 1.321 2.849 2.247 5.842 2.604 8.414 0.117 0.847 0.139 2.684 0.032 3.249-0.107 0.57-0.314 1.161-0.538 1.502-0.357 0.549-0.767 0.772-1.443 0.767-2.008-0.005-5.171-2.764-7.983-6.95-1.294-1.933-2.487-4.117-3.408-6.252l-0.33-0.762 0.463-0.783c0.596-1.012 1.225-1.97 1.928-2.956l0.559-0.783h0.863c5.922 0 11.801 1.342 14.805 3.371 0.687 0.463 1.347 1.14 1.576 1.608 0.16 0.33 0.181 0.421 0.181 0.799-0.005 0.357-0.027 0.469-0.149 0.703-0.367 0.714-1.299 1.422-2.594 1.986-0.607 0.261-0.799 0.442-0.799 0.751 0 0.288 0.117 0.495 0.341 0.602 0.245 0.117 0.33 0.107 0.724-0.053 1.859-0.751 3.201-1.859 3.621-2.988 0.777-2.077-0.852-4.175-4.447-5.741-3.142-1.374-7.759-2.231-12.563-2.333l-0.527-0.011 0.602-0.692c0.692-0.804 2.221-2.333 2.876-2.881 1.555-1.31 2.945-2.141 4.143-2.482 0.591-0.17 1.321-0.165 1.699 0.005 0.511 0.229 0.868 0.746 1.065 1.544 0.123 0.485 0.123 1.965 0 2.679-0.139 0.788-0.122 0.927 0.091 1.14 0.154 0.154 0.218 0.181 0.442 0.181 0.474 0 0.597-0.176 0.74-1.039 0.075-0.442 0.101-0.863 0.101-1.731 0-1.012-0.016-1.204-0.122-1.624-0.335-1.326-1.156-2.242-2.253-2.503-2.546-0.596-6.439 1.853-10.31 6.497-0.32 0.378-0.618 0.751-0.666 0.815-0.080 0.117-0.133 0.128-0.905 0.176-0.447 0.027-1.267 0.101-1.827 0.165-1.481 0.17-1.363 0.186-1.449-0.197-0.224-1.070-0.298-1.821-0.304-2.982-0.005-1.257 0.037-1.63 0.266-2.327 0.245-0.74 0.66-1.241 1.188-1.417 0.256-0.091 0.884-0.080 1.257 0.016 0.623 0.165 1.502 0.634 2.301 1.235 0.474 0.357 0.639 0.421 0.889 0.335 0.288-0.091 0.458-0.33 0.458-0.628 0-0.224-0.021-0.266-0.256-0.49-0.33-0.32-1.289-0.959-1.869-1.246-1.097-0.549-2.056-0.724-2.918-0.538zM11.509 10.923c-0.005 0.027-0.351 0.548-0.761 1.166s-0.815 1.241-0.9 1.385l-0.154 0.261-0.128-0.346c-0.16-0.421-0.655-2.050-0.655-2.152 0-0.096 0.234-0.133 1.97-0.314 0.362-0.037 0.65-0.037 0.628 0z"></path>
<path d="M15.562 14.214c-0.378 0.123-0.746 0.394-0.964 0.719-0.655 0.964-0.335 2.221 0.692 2.727 0.319 0.16 0.399 0.176 0.836 0.176s0.517-0.016 0.836-0.176c1.39-0.682 1.358-2.705-0.053-3.355-0.373-0.17-0.975-0.208-1.347-0.091z"></path>
</svg>
