<!-- Generated by IcoMoon.io -->
<svg version="1.1" xmlns="http://www.w3.org/2000/svg" width="40" height="32" viewBox="0 0 40 32">
<title>audible</title>
<path d="M40 12.494v3.375l-20 12.5-20-12.494v-3.375l20 12.5 20-12.506zM27.844 16.994l2.944-1.838c-2.325-3.487-6.294-5.787-10.794-5.787s-8.469 2.294-10.787 5.775h0.019c0.156-0.144 0.319-0.281 0.481-0.419 5.606-4.65 13.713-3.631 18.137 2.269zM14.088 18.169c1.056-0.744 2.281-1.169 3.588-1.169 2.15 0 4.075 1.15 5.4 2.975l2.837-1.775c-1.306-1.869-3.475-3.094-5.925-3.094-2.431 0-4.588 1.212-5.9 3.063zM6.475 10.069c8.238-6.519 19.887-4.775 26.094 3.881l0.044 0.063 3.050-1.9c-3.344-5.106-9.113-8.481-15.669-8.481-6.469 0-12.287 3.344-15.656 8.475 0.619-0.656 1.419-1.469 2.138-2.037z"></path>
</svg>
