<!-- Generated by IcoMoon.io -->
<svg version="1.1" xmlns="http://www.w3.org/2000/svg" width="40" height="32" viewBox="0 0 40 32">
<title>aws</title>
<path d="M11.276 12.688c-0.045 1.416 0.662 2.043 0.68 2.441-0.018 0.169-0.115 0.311-0.254 0.391l-0.002 0.001-0.8 0.56c-0.098 0.070-0.219 0.114-0.35 0.12l-0.002 0c-0.027-0.001-0.512 0.114-1.28-1.601-0.908 1.127-2.288 1.841-3.834 1.841-0.028 0-0.055-0-0.083-0.001l0.004 0c-1.018 0.056-3.775-0.578-3.633-3.513-0.099-2.393 2.129-3.879 4.433-3.753 0.444 0.001 1.35 0.023 2.937 0.392v-0.976c0.168-1.654-0.919-2.937-2.801-2.744-0.15 0.001-1.213-0.031-2.865 0.632-0.46 0.211-0.519 0.176-0.672 0.176-0.463 0-0.272-1.343-0.184-1.513 0.326-0.4 2.241-1.147 4.121-1.136 0.127-0.012 0.274-0.019 0.423-0.019 1.165 0 2.234 0.415 3.065 1.105l-0.008-0.006c0.694 0.773 1.118 1.801 1.118 2.928 0 0.121-0.005 0.242-0.015 0.36l0.001-0.016-0.001 4.331zM5.874 14.713c2.027-0.029 2.885-1.248 3.081-1.904 0.154-0.628 0.128-1.026 0.128-1.713-0.604-0.145-1.474-0.303-2.473-0.304-0.947-0.071-2.676 0.352-2.609 2.016-0.078 1.049 0.695 1.963 1.873 1.905zM16.557 16.153c-0.491 0.045-0.72-0.304-0.793-0.648l-3.113-10.291c-0.061-0.174-0.101-0.353-0.12-0.536-0.002-0.013-0.003-0.028-0.003-0.043 0-0.144 0.105-0.263 0.243-0.285l0.002-0c0.015-0.003-0.133 0 1.391 0 0.549-0.055 0.728 0.377 0.784 0.648l2.232 8.802 2.073-8.802c0.033-0.201 0.184-0.692 0.8-0.64h1.073c0.136-0.011 0.694-0.031 0.793 0.648l2.089 8.914 2.304-8.914c0.030-0.136 0.17-0.711 0.793-0.648h1.232c0.053-0.008 0.384-0.051 0.328 0.536-0.027 0.116 0.213-0.666-3.297 10.619-0.072 0.344-0.301 0.693-0.793 0.648h-1.168c-0.684 0.072-0.782-0.604-0.793-0.672l-2.073-8.571-2.049 8.562c-0.010 0.068-0.108 0.744-0.793 0.672h-1.144zM33.649 16.505c-0.367 0.001-2.12-0.019-3.585-0.768-0.289-0.125-0.488-0.408-0.488-0.737 0-0.003 0-0.005 0-0.008v0-0.672c0-0.528 0.387-0.431 0.552-0.368 0.628 0.254 1.030 0.446 1.801 0.6 2.291 0.471 3.298-0.144 3.545-0.28 0.822-0.488 0.887-1.605 0.328-2.184-0.655-0.549-0.968-0.57-3.321-1.313-0.29-0.081-2.731-0.851-2.737-3.272-0.038-1.765 1.566-3.511 4.345-3.497 0.792-0.001 2.902 0.258 3.473 0.976 0.084 0.131 0.126 0.284 0.12 0.44v0.632c0 0.277-0.101 0.416-0.304 0.416-0.482-0.054-1.337-0.698-3.072-0.672-0.431-0.022-2.493 0.057-2.401 1.561-0.027 1.185 1.663 1.629 1.856 1.681 2.279 0.686 3.041 0.799 3.945 1.849 1.071 1.391 0.494 3.019 0.272 3.465-1.193 2.343-4.276 2.152-4.329 2.151zM36.162 23.059c-4.377 3.232-10.731 4.953-16.156 4.953-0.057 0-0.125 0.001-0.193 0.001-7.565 0-14.46-2.865-19.661-7.569l0.025 0.023c-0.408-0.368-0.048-0.872 0.448-0.592 5.68 3.306 12.502 5.258 19.78 5.258 0.009 0 0.018 0 0.027 0h-0.001c5.459-0.030 10.645-1.166 15.355-3.195l-0.256 0.098c0.736-0.313 1.361 0.488 0.633 1.024zM37.986 20.978c-0.56-0.72-3.705-0.336-5.113-0.168-0.424 0.048-0.496-0.32-0.112-0.592 2.504-1.761 6.617-1.256 7.090-0.664s-0.128 4.713-2.472 6.682c-0.36 0.304-0.704 0.144-0.544-0.256 0.528-1.328 1.712-4.281 1.152-5.001z"></path>
</svg>
