<!-- Generated by IcoMoon.io -->
<svg version="1.1" xmlns="http://www.w3.org/2000/svg" width="32" height="32" viewBox="0 0 32 32">
<title>babel</title>
<path d="M22.663 12.564v0.038h0.079c0.001-0.040 0.009-0.077 0.024-0.111l-0.001 0.002v-0.069c-0.033 0-0.066 0.053-0.097 0.148zM21.915 10.762v-0.069h-0.112v0.069h0.112zM19.741 14.834c-0.172-0.291-0.37-0.542-0.597-0.763l-0.001-0.001c0-0.081 0.127-0.201 0.405-0.361l0.779-0.677c0.204-0.307 0.326-0.684 0.326-1.089 0-0.005-0-0.011-0-0.016v0.001-0.117c-0.031-0.351-0.285-0.634-0.764-0.85q-0.428-0.288-1.527-0.318c-0.891 0.119-1.699 0.349-2.453 0.679l0.058-0.023c-0.261 0.188-0.562 0.381-0.875 0.557l-0.049 0.025v0.059c0.035-0.007 0.066-0.021 0.092-0.041l-0.001 0c0.004-0.001 0.008-0.002 0.013-0.002 0.030 0 0.053 0.024 0.053 0.053 0 0.001 0 0.001-0 0.002v-0l0.036-0.025h0.028v0.025c-0.188 0.192-0.398 0.36-0.627 0.501l-0.014 0.008 0.033 0.061h-0.028l-0.071-0.025c0 0.020-0.028 0.036-0.087 0.041v0.025l0.069 0.087c-0.036-0.001-0.070-0.009-0.101-0.024l0.002 0.001c-0.119 0.017-0.221 0.075-0.295 0.16l-0 0.001 0.041-0.176c0.115-0.451 0.219-1.013 0.288-1.585l0.007-0.069-0.008-0.048c-0.107-0.072-0.199-0.156-0.276-0.252l-0.002-0.002c0.001-0.019 0.002-0.040 0.002-0.062s-0.001-0.044-0.002-0.065l0 0.003v-0.025h-0.028q-0.471 0.705-1.81 2.405-1.018 1.209-1.054 1.344c-0.277 0.288-0.41 0.461-0.397 0.509-0.074 0.048-0.104 0.094-0.092 0.148-0.003 0.001-0.007 0.002-0.011 0.002-0.015 0-0.027-0.011-0.030-0.025l-0-0c-0.117 0.188-0.304 0.323-0.524 0.368l-0.005 0.001-0.255 0.056c-0.028 0.004-0.050 0.029-0.050 0.058 0 0.005 0.001 0.009 0.002 0.014l-0-0v0.031l0.092-0.020v0.025l-0.209 0.081-0.369 0.087h-0.193c-0.028 0.028 0.155 0 0.084 0.015l-0.255 0.056c-0.148 0.033-0.227 0.020-0.255-0.038h-0.028c0.002 0.009 0.003 0.020 0.003 0.031s-0.001 0.021-0.004 0.031l0-0.001-0.015-0.059-0.193 0.046q0.018-0.104-0.746-0.942c0-0.109 0.171-0.267 0.54-0.473l1.038-0.914q0.349-0.448 0.415-1.438l-0.015-0.155c-0.041-0.466-0.377-0.84-1.018-1.13-0.374-0.255-1.049-0.389-2.021-0.41-1.174 0.157-2.237 0.457-3.232 0.885l0.079-0.030c-0.345 0.25-0.743 0.503-1.155 0.732l-0.062 0.031v0.081c0.046-0.008 0.087-0.025 0.123-0.049l-0.001 0.001c0.005-0.002 0.011-0.002 0.018-0.002 0.038 0 0.069 0.031 0.069 0.069v0l0.081-0.046h0.051v0.048c-0.25 0.246-0.529 0.464-0.83 0.65l-0.020 0.012 0.046 0.071h-0.036l-0.087-0.031c0 0.023-0.038 0.041-0.122 0.048v0.043l0.094 0.104c-0.046-0-0.090-0.010-0.13-0.026l0.002 0.001c-0.234 0.051-0.426 0.197-0.537 0.396l-0.002 0.004 0.046 0.071c0.077-0.084 0.166-0.156 0.264-0.213l0.005-0.003v0.117c-0.046 0.010-0.087 0.027-0.124 0.049l0.002-0.001 0.097 0.148c0.181-0.192 0.384-0.36 0.606-0.501l0.013-0.008c0.112 0.028 0.171 0.064 0.173 0.102h0.087c0.521-0.401 1.123-0.734 1.771-0.968l0.046-0.015v0.081q-0.168 0.255-0.227 0.255c0.003 0.058 0.025 0.11 0.059 0.151l-0-0q0.015 0.153-0.817 2.062-1.863 4.401-3.146 6.523c0.009 0.044 0.026 0.082 0.051 0.115l-0-0.001c0.151-0.025 0.285-0.079 0.404-0.155l-0.004 0.003h0.046v0.081h0.079l0.081-0.046c0 0.023 0.028 0.036 0.084 0.031v0.081c-0.011 0.137-0.059 0.26-0.134 0.363l0.001-0.002c-0.116 0.168-0.207 0.364-0.262 0.575l-0.003 0.013v0.038h0.079c0.3-0.325 0.559-0.694 0.766-1.095l0.013-0.028c0.88-0.238 1.641-0.531 2.362-0.893l-0.072 0.033c0.455-0.013 0.873-0.167 1.212-0.419l-0.006 0.004v-0.043l-0.199 0.059h-0.046v-0.043c0.301-0.021 0.576-0.113 0.815-0.259l-0.008 0.005q1.135-0.876 1.715-1.239 1.191-0.876 1.547-1.705l0.132-0.031c0.028 0.002 0.062 0.003 0.095 0.003s0.067-0.001 0.1-0.003l-0.005 0c0-0.020 0-0.033 0.025-0.038 0.178-0.018 0.092 0 0.206-0.015l0.298-0.069h0.051l-0.023 0.015c0.016 0.003 0.035 0.005 0.055 0.005s0.038-0.002 0.057-0.006l-0.002 0 0.020 0.087-1.359 2.161-0.318 0.349-0.148 0.494h0.028l0.148-0.061-0.048 0.191 0.015 0.056 0.041 0.051c-0.018 0-0.025 0.018-0.020 0.038v0.031l0.061-0.015q0.135-0.117 0.115-0.214c0.042 0.011 0.090 0.018 0.14 0.018 0.019 0 0.037-0.001 0.055-0.003l-0.002 0v0.031c-0.059 0.015-0.089 0.061-0.094 0.143v0.031h0.033c0.494-0.54 1.703-2.38 2.672-3.632q-0.046-0.204 1.527-0.565h0.033q0.056 0.255-0.255 1.189c-0.074 0.177-0.137 0.385-0.178 0.601l-0.003 0.020c-0.093 0.231-0.173 0.506-0.229 0.789l-0.005 0.030-0.349 1.194c-0.22 0.551-0.41 1.205-0.539 1.88l-0.011 0.069c0.015-0.003 0.033-0.005 0.051-0.005s0.036 0.002 0.053 0.005l-0.002-0 0.053-0.046c0.003 0.014 0.015 0.025 0.030 0.025 0.004 0 0.008-0.001 0.011-0.002l-0 0-0.020-0.087h0.16c0.048 0 0.087-0.071 0.122-0.181 0-0.163 0.025-0.255 0.099-0.27 0.042-0.223 0.105-0.421 0.19-0.607l-0.007 0.016c0.043-0.248 0.115-0.471 0.213-0.678l-0.007 0.016c0.14-0.509 0.255-0.764 0.308-0.779l0.015 0.061-0.102 0.255c-0.153 0.729-0.339 1.355-0.569 1.959l0.030-0.089 0.053 0.227h0.033q0.662-1.423 1.904-5.635c0.026-0.234 0.158-0.432 0.345-0.548l0.003-0.002-0.048-0.051v-0.025c0.080-0.013 0.149-0.053 0.198-0.111l0-0c0-0.020-0.087-0.053-0.255-0.094l0.412-1.782c0.045-0.048 0.097-0.089 0.155-0.121l0.003-0.002v0.089c-0.035 0.007-0.066 0.021-0.092 0.041l0.001-0 0.079 0.112c0.136-0.146 0.288-0.274 0.454-0.384l0.009-0.006c0.087 0.023 0.127 0.053 0.132 0.081h0.061c0.396-0.303 0.854-0.554 1.347-0.73l0.035-0.011v0.059q-0.125 0.188-0.171 0.191c0.004 0.043 0.017 0.082 0.039 0.116l-0.001-0.001c-0.188 0.614-0.396 1.133-0.642 1.631l0.028-0.063c-0.804 1.974-1.609 3.61-2.512 5.183l0.11-0.208c0.008 0.033 0.023 0.062 0.044 0.087l-0-0c0.114-0.019 0.215-0.060 0.303-0.119l-0.003 0.002h0.028v0.059h0.066l0.059-0.031q0 0.025 0.064 0.020v0.064c-0.009 0.102-0.046 0.195-0.103 0.271l0.001-0.002c-0.097 0.132-0.171 0.287-0.214 0.454l-0.002 0.009v0.031h0.061c0.228-0.247 0.424-0.527 0.581-0.832l0.010-0.021c0.666-0.181 1.241-0.404 1.786-0.677l-0.055 0.025c0.348-0.009 0.666-0.126 0.926-0.319l-0.004 0.003v-0.031l-0.155 0.046h-0.033v-0.031c0.228-0.017 0.436-0.088 0.617-0.199l-0.006 0.003c0.573-0.44 1.018-0.764 1.303-0.942 0.916-0.667 1.341-1.306 1.29-1.922zM19.584 14.875l0.020 0.239c-0.028 0.059-0.059 0.089-0.087 0.092l-0.036-0.407c0.066 0.023 0.099 0.048 0.102 0.076zM1.625 12.946h-0.041v-0.074l0.163-0.013v0.038c-0.045 0.008-0.086 0.025-0.121 0.049l0.001-0.001zM0.826 20.938c-0.067-0.034-0.145-0.054-0.228-0.054-0.009 0-0.018 0-0.027 0.001l0.001-0v-0.117c0-0.046 0.020-0.076 0.079-0.087s0.084 0.033 0.087 0.109c0.069-0.095 0.144-0.178 0.225-0.253l0.001-0.001 0.087 0.036c-0.028 0.237-0.102 0.359-0.219 0.366zM9.365 12.004c-0.041 0-0.122-0.122-0.237-0.369v-0.074c0.076 0 0.155 0.117 0.237 0.369v0.074zM9.25 11.118l-0.033 0.079-1.161-0.484q1.161 0.038 1.194 0.405zM4.356 15.326l-0.163 0.015v-0.074l0.163-0.015v0.074zM4.224 12.801h0.041v0.117c-0.038 0-0.087 0.059-0.15 0.168v-0.081c0.074-0.087 0.112-0.155 0.107-0.201zM3.88 13.613l0.015 0.155h-0.041l-0.015-0.155zM3.699 13.903h0.079c0 0.127-0.043 0.196-0.107 0.201h-0.041c0.039-0.055 0.065-0.122 0.069-0.195l0-0.001zM3.564 14.305h0.046v0.038l-0.074 0.122h-0.079v-0.038c0.002 0 0.005 0 0.008 0 0.056 0 0.102-0.046 0.102-0.102 0-0.008-0.001-0.016-0.003-0.024l0 0.001zM3.432 14.669l-0.023 0.193h-0.041l-0.018-0.191h0.081zM2.098 18.448c-0.053 0.255-0.109 0.4-0.168 0.405v-0.038c-0-0.008-0.001-0.017-0.001-0.026 0-0.139 0.067-0.263 0.17-0.34l0.001-0.001zM1.844 18.978v0.038c0.002 0.005 0.002 0.012 0.002 0.018 0 0.038-0.031 0.069-0.069 0.069-0.002 0-0.003-0-0.005-0h0v-0.048q0-0.069 0.071-0.087zM1.785 20.072h0.122v0.043c-0.046 0.008-0.087 0.025-0.123 0.049l0.001-0.001h-0.079c0-0.041 0.020-0.071 0.071-0.087zM5.295 18.988c-0.467 0.205-0.869 0.437-1.24 0.708l0.019-0.013q-1.125 0.389-1.115 0.489c-0.53 0.197-0.964 0.392-1.384 0.61l0.068-0.032c-0.079-0.001-0.154-0.022-0.219-0.057l0.002 0.001c-0.001-0.007-0.001-0.016-0.001-0.025 0-0.131 0.073-0.246 0.18-0.305l0.002-0.001c0.018-0.002 0.038-0.003 0.059-0.003 0.099 0 0.193 0.021 0.279 0.058l-0.005-0.002c0.183-0.085 0.399-0.158 0.622-0.207l0.022-0.004v-0.081l-0.255 0.020c0.205-0.127 0.442-0.237 0.691-0.319l0.024-0.007h0.122v0.038c-0.211 0.018-0.328 0.081-0.354 0.191 0 0.051 0.033 0.071 0.087 0.066 0.158-0.099 0.237-0.158 0.234-0.176q0.45-0.087 2.497-1.306v0.074c0 0.036-0.115 0.135-0.349 0.305zM3.203 19.675c0.2-0.017 0.377-0.104 0.509-0.237l0-0c0.056 0 0.087 0.018 0.089 0.066-0.212 0.057-0.398 0.145-0.564 0.259l0.006-0.004h-0.041v-0.079zM6.583 17.087l-1.046 0.83c-0.36 0.259-0.771 0.512-1.2 0.736l-0.057 0.027q-1.858 1.018-2.308 1.061h-0.046q0.056-0.209 1.654-3.388c0.831-0.136 1.576-0.365 2.274-0.68l-0.057 0.023 0.255-0.020c0.075-0.014 0.162-0.022 0.25-0.022 0.339 0 0.651 0.119 0.895 0.317l-0.003-0.002 0.015 0.155c-0.188 0.542-0.397 0.86-0.621 0.954zM4.547 15.936l0.168-0.015v0.038l-0.168 0.015v-0.038zM6.911 15.537h0.122c0.115 0.053 0.173 0.102 0.178 0.145v0.038c-0.001 0-0.003 0-0.005 0-0.126 0-0.237-0.068-0.297-0.169l-0.001-0.002zM7.245 13.633c-0.268 0.248-0.569 0.468-0.892 0.652l-0.024 0.012c-0.16 0.015-0.764 0.255-1.799 0.702-0.034-0.013-0.074-0.021-0.115-0.021-0.016 0-0.032 0.001-0.047 0.003l0.002-0v-0.074c0.006-0.214 0.081-0.41 0.203-0.567l-0.002 0.002c0.081-0.428 0.168-0.672 0.255-0.73l0.865-1.947q-0.015-0.181 0.555-0.277h0.122v0.112c0.372-0.056 0.606-0.089 0.695-0.097 0.687-0.059 1.046 0.081 1.074 0.415h0.079l-0.018-0.196h0.087c0.165 0.062 0.29 0.197 0.335 0.365l0.001 0.004c-0.009 0.158-0.074 0.299-0.176 0.405l0-0c-0.053 0-0.084-0.033-0.087-0.109h-0.087l-0.018 0.237q-0.522 0.781-0.764 0.804c-0.143 0.196-0.229 0.295-0.255 0.295zM7.777 14.997c-0.047-0.037-0.105-0.062-0.17-0.066l-0.001-0v-0.117h0.079l0.173 0.102c0.002 0.005 0.002 0.012 0.002 0.018 0 0.038-0.031 0.069-0.069 0.069-0.002 0-0.003-0-0.005-0h0zM8.326 15.649c0.076 0.031 0.122 0.064 0.13 0.094h-0.061l-0.056 0.046-0.015-0.158zM8.365 15.975v-0.031l0.099-0.023v0.031l-0.099 0.023zM8.604 16.255c0.102-0.018 0.153-0.023 0.341-0.066v0.031l-0.361 0.084c0-0.007 0.001-0.016 0.001-0.024s-0-0.017-0.001-0.025l0 0.001zM8.955 16.405c-0.13 0.003-0.254 0.021-0.372 0.053l0.011-0.003v-0.031l0.303-0.097 0.145-0.033 0.015 0.056c-0.066 0.015-0.018 0.015-0.094 0.053zM9.276 16.328c-0.005 0.001-0.011 0.002-0.017 0.002-0.031 0-0.057-0.021-0.064-0.050l-0-0 0.092-0.020c0.006-0.002 0.013-0.004 0.021-0.004 0.030 0 0.054 0.023 0.056 0.052v0l-0.087 0.020zM10.146 15.382v-0.031l0.15-0.036 0.015 0.056h-0.158zM11.073 21.067c0.003-0.014 0.005-0.030 0.005-0.047s-0.002-0.033-0.005-0.049l0 0.002h0.033c0.006-0.003 0.013-0.004 0.021-0.004 0.027 0 0.050 0.021 0.053 0.047l0 0v0.031l-0.122 0.028zM11.722 15.626h-0.066c-0.074 0.032-0.164 0.063-0.257 0.086l-0.013 0.003-0.061 0.015c-0.006 0.002-0.013 0.003-0.020 0.003-0.029 0-0.053-0.020-0.059-0.046l-0-0 0.428-0.109 0.143-0.066 0.048 0.053c-0.056 0.008-0.106 0.030-0.148 0.062l0.001-0.001zM12.055 15.519v-0.031c0.033-0.011 0.060-0.029 0.081-0.053l0-0 0.3-0.069v0.031c-0.15 0.034-0.28 0.076-0.405 0.128l0.016-0.006zM12.103 14.895c-0.034 0.013-0.062 0.031-0.087 0.054l0-0c0-0.020-0.048-0.020-0.127 0-0.015-0.059 0.214-0.143 0.685-0.255l0.066-0.015 0.015 0.056c-0.331 0.097-0.509 0.153-0.552 0.158zM12.933 14c-0.033 0.377-0.165 0.59-0.4 0.644v-0.031l-0.209 0.081-0.092 0.020c-0.019 0.006-0.041 0.009-0.064 0.009s-0.045-0.003-0.065-0.009l0.002 0-0.018-0.084c0.303-0.475 0.602-0.883 0.923-1.271l-0.017 0.021h0.071c0.001 0.017 0.001 0.037 0.001 0.056 0 0.2-0.046 0.39-0.127 0.56l0.003-0.008zM14.402 12.742h-0.031v-0.059h0.122v0.031c-0.035 0.010-0.065 0.023-0.094 0.039l0.002-0.001zM13.796 18.815c-0.051-0.027-0.112-0.044-0.176-0.044-0.005 0-0.010 0-0.015 0l0.001-0v-0.089q0-0.046 0.056-0.064c0.041 0 0.064 0.023 0.069 0.087 0.050-0.074 0.106-0.138 0.17-0.195l0.001-0.001 0.064 0.036c-0.023 0.181-0.079 0.275-0.163 0.282zM20.278 12.035c-0.031 0-0.089-0.092-0.183-0.285v-0.059c0.059 0 0.122 0.087 0.183 0.277v0.066zM20.192 11.358l-0.028 0.061-0.878-0.367c0.585 0.018 0.888 0.122 0.906 0.305zM16.473 14.549h-0.122v-0.059h0.122v0.059zM16.372 12.63h0.033v0.089q-0.046 0-0.115 0.127v-0.059c0.042-0.041 0.070-0.096 0.079-0.156l0-0.001zM16.117 13.246v0.117h-0.033v-0.117zM15.977 13.468h0.061q0 0.15-0.079 0.155h-0.036c0.029-0.044 0.047-0.097 0.051-0.154l0-0.001zM15.878 13.77h0.028v0.031l-0.053 0.094h-0.061v-0.031c0.064 0 0.092-0.038 0.087-0.097zM15.779 14.045l-0.020 0.153h-0.028v-0.15h0.061zM14.761 16.921q-0.061 0.298-0.127 0.305v-0.025c-0-0.004-0-0.009-0-0.013 0-0.108 0.051-0.204 0.129-0.266l0.001-0.001zM14.575 17.323v0.025c0.001 0.005 0.002 0.010 0.002 0.015 0 0.030-0.024 0.053-0.053 0.053-0.002 0-0.003-0-0.005-0l0 0v-0.031q0-0.046 0.056-0.064zM14.521 18.158h0.094v0.031c-0.035 0.007-0.065 0.019-0.093 0.036l0.001-0.001h-0.061q0-0.051 0.056-0.064zM17.183 17.336c-0.356 0.159-0.661 0.335-0.946 0.536l0.017-0.012c-0.57 0.199-0.85 0.323-0.848 0.372-0.399 0.148-0.726 0.296-1.042 0.461l0.049-0.024c-0.060-0.003-0.116-0.019-0.165-0.047l0.002 0.001c-0.001-0.008-0.002-0.018-0.002-0.028 0-0.098 0.056-0.184 0.138-0.226l0.001-0.001c0.015-0.002 0.033-0.002 0.050-0.002 0.074 0 0.144 0.015 0.208 0.042l-0.004-0.001c0.139-0.061 0.303-0.116 0.473-0.154l0.018-0.004v-0.059l-0.191 0.018c0.156-0.099 0.337-0.185 0.527-0.249l0.018-0.005h0.094v0.025c-0.16 0.015-0.255 0.061-0.27 0.148 0 0-0 0.001-0 0.002 0 0.030 0.024 0.053 0.053 0.053 0.005 0 0.009-0.001 0.013-0.002l-0 0c0.12-0.079 0.176-0.122 0.176-0.137q0.341-0.061 1.894-0.993v0.059c0 0.023-0.087 0.099-0.255 0.229zM15.595 17.845c0.157-0.006 0.298-0.068 0.405-0.166l-0.001 0c0.041 0 0.064 0.015 0.066 0.053-0.16 0.042-0.301 0.104-0.429 0.184l0.006-0.004h-0.033v-0.056zM18.161 15.875l-0.789 0.636c-0.275 0.2-0.589 0.394-0.917 0.565l-0.042 0.020q-1.407 0.764-1.754 0.804h-0.033q0.043-0.16 1.26-2.571c0.632-0.108 1.197-0.285 1.726-0.527l-0.043 0.018 0.191-0.018c0.056-0.010 0.121-0.016 0.187-0.016 0.258 0 0.495 0.092 0.68 0.244l-0.002-0.001v0.117c-0.145 0.407-0.3 0.646-0.471 0.72zM16.611 15.015h0.122v0.031h-0.122v-0.031zM18.405 14.71h0.094c0.087 0.043 0.132 0.081 0.135 0.112v0.025c-0.003 0-0.006 0-0.010 0-0.095 0-0.178-0.052-0.221-0.129l-0.001-0.001zM18.66 13.267c-0.199 0.19-0.421 0.358-0.66 0.5l-0.017 0.009c-0.533 0.16-0.986 0.34-1.42 0.553l0.053-0.024c-0.031-0.012-0.068-0.018-0.106-0.018-0.007 0-0.013 0-0.020 0.001l0.001-0v-0.059c0.004-0.163 0.060-0.312 0.151-0.432l-0.001 0.002c0.061-0.328 0.13-0.509 0.201-0.552l0.662-1.479c0-0.087 0.132-0.158 0.417-0.214h0.094v0.089q0.42-0.069 0.527-0.079c0.509-0.046 0.794 0.059 0.817 0.316h0.061v-0.143h0.061c0.131 0.048 0.228 0.16 0.254 0.298l0 0.002c-0.004 0.12-0.051 0.228-0.125 0.311l0-0c-0.041 0-0.064-0.023-0.069-0.087h-0.061l-0.018 0.178c-0.255 0.4-0.456 0.608-0.575 0.616-0.107 0.145-0.173 0.219-0.204 0.221zM18.937 14.254v-0.089h0.061l0.132 0.081c0 0.002 0 0.005 0 0.008 0 0.031-0.025 0.056-0.056 0.056-0 0-0 0-0.001 0h0c-0.036-0.028-0.080-0.046-0.129-0.051l-0.001-0zM7.894 20.011l-0.061 0.015-0.053 0.046c0.003 0.027 0.026 0.047 0.053 0.047 0.007 0 0.015-0.002 0.021-0.004l-0 0c0.041 0 0.056-0.033 0.048-0.071v-0.031zM7.66 19.543v0.031c0.041 0 0.056-0.033 0.048-0.071v-0.031c-0.029 0.003-0.051 0.027-0.051 0.056 0 0.006 0.001 0.011 0.002 0.016l-0-0zM9.339 16.389l0.046-0.028h-0.023c-0.012 0.003-0.021 0.014-0.021 0.027 0 0.002 0 0.004 0.001 0.006l-0-0zM9.339 15.572l0.071-0.018-0.028-0.064-0.071 0.018 0.015 0.061zM26.099 17.967l-0.16-0.018-0.028 0.061v0.025l0.959-0.081v-0.059l-0.764 0.066zM26.977 17.894v0zM31.006 17.367v0.059l0.104 0.018v-0.059l-0.104-0.018zM30.858 17.367c-0.286 0.083-0.616 0.135-0.956 0.145l-0.006 0v0.059h0.102l0.079-0.031c0.713-0.079 0.797-0.051 0.789-0.13v-0.028zM26.532 16.318l-0.064-0.020c-0.033 0.073-0.060 0.159-0.075 0.248l-0.001 0.006v0.025c0.051 0 0.094-0.087 0.137-0.255zM25.664 15.85v-0.031h-0.033l-0.059 0.038 0.033 0.056c0.046 0 0.066-0.025 0.061-0.066zM27.55 17.799v-0.059h-0.018v0.059zM31.462 16.916h0.046c0.025 0 0.038-0.023 0.036-0.061l-0.025-0.056c-0.001 0-0.003 0-0.004 0-0.135 0-0.261 0.035-0.371 0.096l0.004-0.002v-0.031l-0.196 0.018c0-0.059-0.020-0.089-0.048-0.087h-0.102c-0.12 0-0.176 0-0.234 0.051 0-0.020 0-0.031-0.020-0.031h-0.115l-0.066 0.038c0-0.020 0-0.031-0.020-0.031l-0.041 0.036v-0.031h-0.196v0.059l0.081 0.020h0.076c0.020 0.012 0.044 0.019 0.070 0.019 0.006 0 0.012-0 0.018-0.001l-0.001 0 0.066-0.033v0.025c-0.173 0.048-0.385 0.089-0.602 0.117l-0.024 0.003c-0.017-0.015-0.039-0.024-0.063-0.025l-0-0c-0.027-0.001-0.048-0.024-0.048-0.051 0-0.001 0-0.002 0-0.003v0l0.132-0.018c0.023 0.008 0.053 0.016 0.084 0.022l0.005 0.001c0.107-0.053 0.112-0.074 0.168-0.079v-0.059c-0.203 0.039-0.437 0.062-0.676 0.064h-0.022v-0.059c0.588-0.071 0.392-0.031 0.593-0.087 0 0.020 0 0.031 0.020 0.031 0.021-0.022 0.049-0.037 0.081-0.041l0.001-0h0.041c0.029 0.001 0.063 0.002 0.097 0.002 0.198 0 0.39-0.027 0.573-0.077l-0.015 0.004v0.025l0.066-0.033h0.061c0-0.059 0.087-0.069 0.117-0.071v-0.064c-0.715 0.145-0.904 0.104-1.102 0.16v-0.025c-0.059 0.014-0.126 0.022-0.196 0.022-0.021 0-0.041-0.001-0.062-0.002l0.003 0c-0.023 0.007-0.043 0.021-0.058 0.038l-0 0c0-0.020 0-0.031-0.023-0.031v0l-0.608 0.099c0-0.018 0-0.025-0.023-0.023-0.191 0.058-0.413 0.1-0.641 0.116l-0.010 0.001c-0.030 0.006-0.057 0.017-0.079 0.034l0.001-0c0-0.018 0-0.025-0.033-0.023l-0.255 0.020-0.173 0.043c0-0.018 0-0.025-0.033-0.023-0.073 0.022-0.16 0.039-0.249 0.048l-0.006 0c-0.043 0 0.020 0 0-0.025l-0.053 0.031c-0.076 0-0.036 0-0.295 0-0.458 0.056-0.407 0.064-0.458 0.066h-0.171c0 0.002 0.001 0.003 0.001 0.005 0 0.013-0.010 0.023-0.023 0.023-0.001 0-0.002-0-0.003-0h0c-0.193-0.025-0.295-0.056-0.295-0.092q0.038-0.277 0.135-0.285h0.033l-0.028 0.061h0.033c0.061-0.033 0.089-0.064 0.087-0.092v-0.064h-0.061v-0.059c-0.001-0.009-0.002-0.019-0.002-0.030 0-0.033 0.007-0.064 0.020-0.091l-0.001 0.001 0.14-0.227v0.059h0.066v-0.059l-0.038-0.053c0.032-0.033 0.072-0.057 0.118-0.068l0.002-0v-0.031h-0.089v-0.089c0.107-0.188 0.195-0.406 0.251-0.637l0.004-0.017 0.064 0.025c0.041 0 0.059-0.025 0.056-0.069h-0.061v-0.025c-0.001-0.007-0.001-0.015-0.001-0.023 0-0.037 0.009-0.072 0.025-0.103l-0.001 0.001c0.082-0.073 0.133-0.179 0.133-0.296 0-0.005-0-0.010-0-0.015l0 0.001c0.018 0 0.028 0 0.031 0.028 0.084-0.048 0.148-0.173 0.193-0.382 0.217-0.436 0.43-0.963 0.605-1.506l0.023-0.084c0.522-1.405 0.509-1.553 0.573-1.886h-0.061c0.001 0.007 0.001 0.015 0.001 0.023 0 0.036-0.009 0.070-0.025 0.1l0.001-0.001c-0.029-0.014-0.063-0.022-0.099-0.023h-0v-0.025c0.003-0.165 0.061-0.317 0.156-0.437l-0.001 0.001h0.028l0.053 0.204h0.061c0.012-0.097 0.029-0.184 0.051-0.268l-0.003 0.013c0-0.031-0.025-0.051-0.074-0.053l-0.059 0.038c0-0.043 0-0.155 0-0.331h-0.031c-0.040-0.032-0.069-0.077-0.081-0.128l-0-0.002-0.338 0.033c-0.007-0.039-0.020-0.074-0.039-0.106l0.001 0.001c0-0.031 0.074-0.061 0.229-0.092l0.069 0.025 0.064-0.038c0 0.020 0.015 0.031 0.038 0.028l0.064-0.038c0 0.020 0.015 0.031 0.038 0.028h0.031v-0.069c-0.048 0-0.173 0-0.372 0l-0.064 0.043v-0.038q-2.387 0.196-2.711 0.227c-0.028 0-0.14 0-0.336 0 0 0.025-0.020 0.041-0.069 0.046l-0.069-0.031-0.27 0.046c-0.041 0.004-0.089 0.006-0.137 0.006s-0.096-0.002-0.143-0.007l0.006 0c-0.036 0.028-0.080 0.047-0.129 0.051l-0.001 0 0.674-0.051c-0.046 0.032-0.103 0.052-0.165 0.053h-0c-0.009 0.001-0.020 0.002-0.031 0.002-0.038 0-0.074-0.009-0.105-0.026l0.001 0.001c-0.139 0.045-0.311 0.087-0.486 0.116l-0.023 0.003-0.069-0.025-1.11 0.171c-0.034-0.016-0.073-0.025-0.115-0.025-0.012 0-0.024 0.001-0.036 0.002l0.001-0c-0.112 0.015-0.212 0.037-0.308 0.067l0.013-0.004-0.537 0.224 0.041 0.066c0.041-0.008 0.078-0.023 0.111-0.044l-0.001 0.001 0.191 0.018-0.023 0.178c-0.152 0.055-0.267 0.182-0.305 0.338l-0.001 0.003c-0.255 0.117-0.395 0.199-0.395 0.255v0.031h0.041l0.071-0.038 0.084 0.099v0.137q0 0.064-1.326 2.8c-0.764 1.756-1.171 2.716-1.209 2.889-0.255 0.074-0.415 0.181-0.461 0.323 0 0.046 0.084 0.076 0.234 0.087v0.069l-0.069 0.115v0.137q0 0.107 0.575 0.163c0-0.023 0-0.038 0.036-0.041-0.003 0.182-0.029 0.357-0.075 0.524l0.003-0.015h0.087c0.111-0.118 0.191-0.268 0.223-0.435l0.001-0.006h0.031c0.038 0 0.079 0.041 0.125 0.132q-0.071 0.028-0.509 1.133l0.041 0.066h0.041q0.522-1.323 0.657-1.463 0.687-0.061 2.375-0.255l0.071-0.043c-0 0-0 0.001-0 0.002 0 0.018 0.015 0.033 0.033 0.033 0.004 0 0.007-0.001 0.010-0.002l-0 0h0.074l0.071-0.043c-0 0-0 0.001-0 0.002 0 0.018 0.015 0.033 0.033 0.033 0.004 0 0.007-0.001 0.010-0.002l-0 0 0.853-0.074c0.227-0.018 0.331-0.087 0.323-0.204 0-0.031 0.13-0.066 0.4-0.104 0.001 0 0.002-0 0.004-0 0.041 0 0.080 0.007 0.116 0.021l-0.002-0.001c0-0.020 0.132-0.043 0.402-0.066 0-0.143 0.051-0.219 0.132-0.227v-0.069c-0.095 0.011-0.181 0.032-0.263 0.061l0.008-0.003c-0.121-0.002-0.237-0.016-0.349-0.043l0.011 0.002c-0.031 0.020-0.068 0.035-0.107 0.043l-0.002 0-0.608-0.018-0.071 0.038q0-0.033-0.043-0.028h-0.033l-0.076 0.038c0-0.020-0.064-0.038-0.188-0.053l-0.076 0.046h-0.148v-0.038q1.145-0.125 1.13-0.311c0.005-0.001 0.010-0.002 0.015-0.002 0.037 0 0.066 0.030 0.066 0.066 0 0.002-0 0.003-0 0.005v-0l0.224-0.056v-0.069l-1.827 0.051c0 0.023 0 0.038-0.036 0.041l-0.224-0.018c-0.054 0.003-0.103 0.022-0.143 0.051l0.001-0.001-0.089-0.015c-0.186 0.012-0.36 0.042-0.527 0.088l0.018-0.004c-0.076-0.006-0.165-0.010-0.255-0.010s-0.178 0.004-0.266 0.011l0.012-0.001-0.41 0.036-0.191-0.020c0-0.122 0.227-0.715 0.71-1.782 0.076-0.264 0.212-0.49 0.392-0.672l-0 0c0.043 0.001 0.083 0.011 0.119 0.029l-0.002-0.001 0.262-0.099 0.15 0.023c0.325-0.036 0.622-0.113 0.901-0.225l-0.023 0.008c0.017-0.003 0.038-0.004 0.058-0.004 0.047 0 0.093 0.008 0.136 0.023l-0.003-0.001 0.224-0.053 0.664-0.056c0.341-0.033 0.654-0.1 0.953-0.197l-0.031 0.009v-0.069c-0.122 0-0.188 0-0.191-0.059 0-0.092-0.097-0.13-0.27-0.117v-0.069l0.183-0.053 0.479-0.041v-0.069c-0.018 0-0.117 0-0.295 0v-0.074l0.186-0.018c0.051 0 0.071-0.028 0.066-0.076-0.255 0-0.374 0-0.377-0.038q-2.604 0.127-2.611 0.048c-0.042 0.009-0.078 0.026-0.11 0.049l0.001-0.001-0.074-0.079q0.69-1.466 0.809-1.476c-0.005 0.068-0.025 0.131-0.057 0.185l0.001-0.002v0.020h0.074c0.183-0.435 0.336-0.662 0.466-0.672 0.545-0.048-0.076-0.084 1.092-0.255 0.030 0.017 0.066 0.027 0.104 0.028h0q0.687-0.14 1.914-0.29v-0.069l-0.435 0.041v-0.069c0.050-0.004 0.094-0.022 0.13-0.051l-0 0v0.038c0.038-0.009 0.071-0.026 0.1-0.049l-0 0c0.015-0.003 0.033-0.004 0.051-0.004 0.044 0 0.086 0.009 0.124 0.025l-0.002-0.001c0.103-0.030 0.227-0.056 0.354-0.072l0.013-0.001 0.272-0.025c0.066-0.043 0.097-0.081 0.094-0.117v-0.031c-0.020 0.002-0.042 0.002-0.065 0.002-0.062 0-0.122-0.006-0.18-0.019l0.006 0.001c-0-0.002-0-0.005-0-0.008 0-0.035 0.027-0.065 0.061-0.068l0-0 0.509-0.048 0.232-0.059c0 0.025 0.015 0.036 0.033 0.036 0.038-0.009 0.071-0.026 0.1-0.049l-0 0h0.038c-0.036 0.077-0.071 0.169-0.099 0.264l-0.003 0.013h-0.066c-0.004-0.045-0.017-0.087-0.039-0.124l0.001 0.001h-0.046c-0.616 1.718-0.891 2.517-1.461 3.836-0.104 0.336-0.191 0.524-0.267 0.565 0 0-0 0.001-0 0.002 0 0.030 0.024 0.053 0.053 0.053 0.005 0 0.009-0.001 0.013-0.002l-0 0c0.002 0.019 0.002 0.041 0.002 0.063 0 0.158-0.044 0.306-0.122 0.432l0.002-0.004c-0.255 0.764-0.438 1.173-0.529 1.25l0.059 0.359c0 0.002 0 0.005 0 0.008 0 0.031-0.025 0.056-0.056 0.056-0 0-0 0-0.001 0h-0.061c0-0.099-0.046-0.148-0.109-0.14h-0.033c-0.081 0.126-0.144 0.272-0.181 0.428l-0.002 0.010h0.061c0.068-0.035 0.115-0.104 0.115-0.185 0-0.002-0-0.004-0-0.006v0h0.122l0.071 0.025c-0.046 0.059-0.075 0.134-0.079 0.216l-0 0.001 0.033 0.056-0.081 0.191v0.031c0.005-0 0.010-0 0.016-0 0.081 0 0.156 0.025 0.217 0.067l-0.001-0.001c0.070-0.013 0.132-0.041 0.184-0.082l-0.001 0.001c0.071 0 0.336 0 0.794 0l0.229-0.079c0.035 0.001 0.076 0.001 0.117 0.001 0.159 0 0.316-0.007 0.471-0.021l-0.020 0.001h0.099l0.053-0.036v0.031c0.053-0.006 0.114-0.010 0.176-0.010 0.104 0 0.205 0.010 0.302 0.029l-0.010-0.002v0.031h-0.14v0.059c0.043-0.003 0.081-0.019 0.112-0.044l-0 0c0.036 0 0.056 0.018 0.059 0.059-0.071 0.008-0.135 0.023-0.197 0.045l0.006-0.002-0.061-0.020c-0.097 0.025-0.076 0.033-0.143 0.038l-0.097-0.018c0 0.002 0.001 0.003 0.001 0.005 0 0.013-0.010 0.023-0.023 0.023-0 0-0 0-0.001 0h0c-0 0.001-0 0.002-0 0.003 0 0.028 0.023 0.051 0.051 0.051 0.003 0 0.005-0 0.008-0.001l-0 0h0.099l0.509-0.046 0.196-0.043c0 0.018 0 0.025 0.025 0.023l0.094-0.036 0.178-0.015c0.137 0 0.135-0.020 0.435-0.069 0-0.018 0-0.025 0.018-0.028v0.025c0.228-0.028 0.43-0.068 0.626-0.122l-0.031 0.007v0.015c0.122-0.028 0.053-0.020 0.087-0.046 0 0.020 0 0.031 0.020 0.031h0.087v-0.064h-0.214c-0.051 0.010-0.109 0.016-0.168 0.016-0.009 0-0.018-0-0.026-0l0.001 0-0.435 0.023v-0.031l0.255-0.033h0.087l0.051-0.036v0.028c0.341-0.028 0.463 0.056 2.036-0.28 0.087 0 0.079-0.079 0.132-0.227-0.004 0-0.008 0.001-0.013 0.001-0.026 0-0.051-0.007-0.072-0.019l0.001 0c-0.132 0.034-0.286 0.057-0.444 0.066l-0.006 0c-0.020 0-0.038-0.018-0.046-0.053v-0.025h0.255c0.095-0.010 0.182-0.041 0.257-0.088l-0.003 0.002c0 0.020-0.051 0.033-0.020 0.031zM19.785 17.105h-0.112c0.041-0.192 0.103-0.362 0.184-0.521l-0.006 0.012h0.074c-0.026 0.19-0.075 0.361-0.145 0.521l0.005-0.012zM19.919 16.565v-0.031c0-0.038 0.020-0.064 0.074-0.076v0.051c0 0.046-0.020 0.071-0.074 0.076zM21.401 17.71v0.031l-0.186 0.018v-0.031l0.186-0.018zM21.177 17.692c0 0.038-0.053 0.081-0.178 0.122l-0.227-0.018h-0.074v-0.069l0.486-0.046zM22.676 10.793h-0.112v-0.038c0-0.038 0.018-0.064 0.066-0.076h0.041l0.076 0.031c0 0.003 0.001 0.007 0.001 0.010 0 0.037-0.030 0.066-0.066 0.066-0.001 0-0.002-0-0.003-0h0zM24.371 10.462h0.028v0.069h-0.102c-0-0.002-0-0.005-0-0.008 0-0.035 0.027-0.065 0.061-0.068l0-0zM23.943 10.612l-0.168-0.018v-0.031c0.157-0.011 0.304-0.040 0.443-0.085l-0.013 0.004c0 0.025 0.025 0.036 0.069 0.031v0.069h-0.066c-0.009 0.001-0.020 0.002-0.031 0.002-0.038 0-0.074-0.009-0.105-0.026l0.001 0.001c-0.037 0.025-0.081 0.043-0.128 0.048l-0.001 0zM24.144 11.238v-0.031l0.272-0.025v0.031l-0.272 0.025zM24.437 11.001v-0.041h0.132v0.038h-0.132zM24.468 10.536h-0.036l0.031-0.074 0.303-0.028v0.038c-0.113 0.014-0.215 0.035-0.313 0.064l0.013-0.003zM24.623 11.19v-0.069h0.132q0.069 0 0.071 0.064l-0.199 0.018zM25.427 10.095l-0.171 0.048h-0.031c-0.052 0.005-0.112 0.009-0.173 0.009-0.051 0-0.102-0.002-0.152-0.007l0.006 0c0.221-0.015 0.433-0.031 0.509-0.043zM25.244 10.859v0.031l-0.234 0.020v-0.031l0.234-0.020zM25.628 11.042c0-0.028-0.048-0.048-0.14-0.056l-0.234 0.066h-0.181c-0.041-0.028-0.061-0.048-0.064-0.061h0.209l0.468-0.076h0.239v0.038c-0.111 0.010-0.213 0.031-0.31 0.064l0.009-0.003zM28.044 10.401h0.053c0.079-0.079 0.173-0.143 0.277-0.189l0.006-0.002c-0.056 0.323-0.198 0.607-0.401 0.834l0.001-0.002-0.132-0.081c0.068-0.153 0.135-0.341 0.189-0.535l0.007-0.030zM27.636 11.101h0.033c-0.046 0.087-0.087 0.13-0.12 0.132v-0.089c0.035-0.006 0.066-0.020 0.092-0.041l-0 0zM27.382 11.729c0.022-0.168 0.087-0.317 0.185-0.44l-0.001 0.002v0.031c-0.033 0.237-0.087 0.364-0.155 0.372v0.15c-0.045 0.051-0.075 0.117-0.081 0.19l-0 0.001h-0.033l-0.018-0.206c0.038 0 0.069-0.038 0.089-0.099zM27.28 12.070c-0.011 0.094-0.035 0.18-0.071 0.26l0.002-0.005h-0.033v-0.089c0.046-0.104 0.084-0.158 0.109-0.158zM25.366 17.624v-0.025h0.061v0.089c-0.033 0-0.056-0.018-0.066-0.059zM28.1 17.695c0-0.020 0-0.031-0.033-0.028l-0.155 0.015v-0.031h0.015l0.364-0.031v0.031c-0.007-0.001-0.016-0.001-0.024-0.001-0.062 0-0.119 0.017-0.168 0.048l0.001-0.001zM27.916 17.619c0.015 0 0 0.015 0 0.018s-0.018 0 0-0.018zM27.934 17.191l-0.204 0.018v-0.031l0.186-0.018 0.16-0.041c0 0.018 0 0.025 0.033 0.023 0.191-0.033 0.173-0.043 0.255-0.051 0.031 0 0.051 0.018 0.053 0.053l-0.491 0.043zM28.647 17.13c-0.049-0.010-0.104-0.016-0.162-0.016-0.014 0-0.028 0-0.041 0.001l0.002-0v-0.025l0.183-0.018v0.025c-0.018 0 0.051 0 0.018 0.031zM28.662 17.097v-0.025h0.099v0.025h-0.099zM28.883 17.079v-0.025c0.028-0.007 0.052-0.021 0.071-0.038l-0 0c0.003-0 0.007-0.001 0.010-0.001 0.038 0 0.069 0.029 0.071 0.067v0zM29.166 17.044v-0.025h0.122v0.031h-0.122zM29.334 17.028c0-0.036 0-0.056 0.043-0.061l0.041 0.053c-0-0.002-0.001-0.004-0.001-0.006 0-0.011 0.008-0.020 0.018-0.022l0-0 0.031 0.056-0.132-0.018zM31.66 16.764v0 0zM31.703 16.733c0.018 0 0.028-0.023-0.018-0.031s0.023 0.031-0.023 0.033v0.028l0.025-0.018-0.025 0.020-0.051 0.064 0.099-0.036v-0.059zM31.877 16.868h-0.018v0.059h0.14c0-0.038-0.094-0.051-0.125-0.051z"></path>
</svg>
