<!-- Generated by IcoMoon.io -->
<svg version="1.1" xmlns="http://www.w3.org/2000/svg" width="36" height="32" viewBox="0 0 36 32">
<title>behance</title>
<path d="M14.5 14.825c1.988-0.95 3.025-2.387 3.025-4.625 0-4.412-3.287-5.487-7.081-5.487h-10.444v22.15h10.738c4.025 0 7.806-1.931 7.806-6.431 0-2.781-1.319-4.838-4.044-5.606zM4.869 8.494h4.569c1.756 0 3.338 0.494 3.338 2.531 0 1.881-1.231 2.638-2.969 2.638h-4.938v-5.169zM10.075 23.1h-5.206v-6.1h5.306c2.144 0 3.5 0.894 3.5 3.163 0 2.238-1.619 2.938-3.6 2.938zM32.481 8.056h-8.981v-2.181h8.981v2.181zM36 19.075c0-4.744-2.775-8.7-7.806-8.7-4.887 0-8.206 3.675-8.206 8.488 0 4.994 3.144 8.419 8.206 8.419 3.831 0 6.313-1.725 7.506-5.394h-3.887c-0.419 1.369-2.144 2.094-3.481 2.094-2.581 0-3.938-1.512-3.938-4.081h11.569c0.019-0.262 0.038-0.544 0.038-0.825zM24.4 17.125c0.144-2.106 1.544-3.425 3.656-3.425 2.212 0 3.325 1.3 3.512 3.425h-7.169z"></path>
</svg>
