<!-- Generated by IcoMoon.io -->
<svg version="1.1" xmlns="http://www.w3.org/2000/svg" width="32" height="32" viewBox="0 0 32 32">
<title>bitbucket</title>
<path d="M1.387 2c-0.004-0-0.008-0-0.013-0-0.548 0-0.993 0.441-1 0.987v0.001c0.001 0.063 0.006 0.124 0.013 0.183l-0.001-0.008 4.244 25.756c0.11 0.646 0.663 1.132 1.331 1.137h20.357c0.004 0 0.009 0 0.013 0 0.495 0 0.906-0.36 0.986-0.832l0.001-0.006 4.244-26.050c0.008-0.047 0.012-0.102 0.012-0.157 0-0.495-0.359-0.906-0.831-0.986l-0.006-0.001c-0.052-0.007-0.112-0.012-0.174-0.013l-29.176-0.012zM19.256 20.613h-6.5l-1.756-9.188h9.831l-1.575 9.188z"></path>
</svg>
