<!-- Generated by IcoMoon.io -->
<svg version="1.1" xmlns="http://www.w3.org/2000/svg" width="32" height="32" viewBox="0 0 32 32">
<title>bitcoin</title>
<path d="M31.5 16c0 8.56-6.94 15.5-15.5 15.5s-15.5-6.94-15.5-15.5 6.94-15.5 15.5-15.5 15.5 6.94 15.5 15.5zM22.647 13.792c0.309-2.062-1.262-3.171-3.409-3.911l0.697-2.794-1.701-0.424-0.678 2.72c-0.447-0.111-0.906-0.216-1.363-0.321l0.683-2.738-1.7-0.424-0.697 2.793c-0.37-0.084-0.733-0.168-1.086-0.255l0.002-0.009-2.346-0.586-0.452 1.816s1.262 0.289 1.235 0.307c0.689 0.172 0.813 0.628 0.793 0.989l-0.793 3.183c0.047 0.012 0.109 0.030 0.177 0.057-0.057-0.014-0.117-0.030-0.18-0.045l-1.112 4.459c-0.084 0.209-0.298 0.523-0.779 0.404 0.017 0.025-1.236-0.309-1.236-0.309l-0.844 1.947 2.213 0.552c0.412 0.103 0.815 0.211 1.213 0.313l-0.704 2.826 1.699 0.424 0.697-2.796c-0.004 0.017 0.45 0.139 0.906 0.255l0.449 0.097-0.695 2.783 1.701 0.424 0.704-2.82c2.9 0.549 5.081 0.327 5.999-2.295 0.74-2.112-0.037-3.33-1.563-4.124 1.111-0.256 1.948-0.987 2.172-2.497zM18.761 19.241c-0.526 2.112-4.082 0.97-5.235 0.684l0.934-3.744c1.153 0.288 4.85 0.857 4.301 3.060zM19.287 13.761c-0.48 1.921-3.439 0.945-4.4 0.706l0.847-3.395c0.96 0.239 4.052 0.686 3.553 2.69z"></path>
</svg>
