<!-- Generated by IcoMoon.io -->
<svg version="1.1" xmlns="http://www.w3.org/2000/svg" width="31" height="32" viewBox="0 0 31 32">
<title>bity</title>
<path d="M4.9 4.2c5.963-5.575 15.381-5.7 21.444 0.237 0.894 0.881-0.4 2.319-1.4 1.344-5.3-5.15-13.488-5.019-18.681-0.2-1.019 0.944-2.281-0.519-1.362-1.381zM11.081 30.363c1.206 0.356 1.831-1.475 0.494-1.875-7.013-2.119-10.988-9.356-9.219-16.313 0.313-1.225-1.556-1.756-1.887-0.444-2.006 7.963 2.569 16.237 10.613 18.631zM20.337 30.238c7.619-2.512 12.056-10.431 10.275-18.188-0.281-1.231-2.181-0.863-1.875 0.494 1.512 6.731-2.319 13.619-8.95 15.838-1.325 0.438-0.65 2.25 0.55 1.856zM16.406 25.3l0.012-4.488c0-0.512-0.413-0.925-0.925-0.925s-0.925 0.419-0.925 0.925l-0.012 4.488c0 0.512 0.412 0.925 0.925 0.925s0.925-0.413 0.925-0.925zM20.844 8.488c0.131 5.681 0.294 8.244-5.344 8.281-5.781-0.044-5.431-2.769-5.344-8.281 0-1.362-2.031-1.225-2.031 0v4.475c0 4.331 3.794 5.681 7.375 5.631 3.581 0.050 7.375-1.3 7.375-5.631v-4.475c0-1.225-2.031-1.362-2.031 0z"></path>
</svg>
