<!-- Generated by IcoMoon.io -->
<svg version="1.1" xmlns="http://www.w3.org/2000/svg" width="32" height="32" viewBox="0 0 32 32">
<title>bootstrap</title>
<path d="M4.923 0.029c-0.795 0.117-1.75 0.491-2.428 0.955-0.443 0.294-1.014 0.843-1.345 1.276-0.368 0.486-0.817 1.42-0.993 2.060l-0.149 0.534v22.254l0.149 0.534c0.176 0.64 0.624 1.574 0.993 2.060 0.694 0.907 1.761 1.67 2.834 2.017 0.886 0.283 0.443 0.272 12.008 0.272 11.57 0 11.127 0.011 12.008-0.277 1.078-0.347 2.145-1.105 2.834-2.012 0.368-0.491 0.822-1.425 0.998-2.060l0.144-0.534v-22.254l-0.149-0.534c-0.176-0.64-0.624-1.574-0.993-2.060-0.331-0.432-0.902-0.982-1.345-1.276-0.475-0.326-1.249-0.678-1.847-0.843l-0.523-0.144-10.94-0.005c-6.015-0.005-11.084 0.011-11.255 0.037zM19.833 5.916c1.686 0.278 2.839 0.833 3.592 1.729 0.32 0.379 0.694 1.131 0.849 1.692 0.096 0.368 0.112 0.576 0.117 1.494 0.005 0.966-0.005 1.11-0.117 1.489-0.326 1.131-1.035 2.001-2.183 2.674l-0.395 0.229 0.283 0.091c0.432 0.144 1.153 0.518 1.521 0.795 0.918 0.694 1.558 1.772 1.814 3.058 0.123 0.64 0.123 2.012-0.005 2.599-0.507 2.311-2.295 3.917-4.984 4.456-1.030 0.208-1.297 0.219-6.826 0.219h-5.406v-20.659l5.593 0.021c5.006 0.016 5.646 0.027 6.148 0.112z"></path>
<path d="M12.682 11.743v2.434l2.578-0.021c2.418-0.027 2.599-0.032 2.989-0.139 1.217-0.331 1.745-1.030 1.745-2.311 0-0.982-0.347-1.617-1.099-1.991-0.667-0.331-1.388-0.4-4.221-0.406h-1.991v2.434z"></path>
<path d="M12.682 20.090v2.834l2.818-0.021c3.165-0.021 3.271-0.032 4.051-0.411 0.897-0.438 1.297-1.153 1.297-2.322 0-1.505-0.598-2.337-1.975-2.754-0.39-0.123-0.464-0.123-3.293-0.144l-2.898-0.016v2.834z"></path>
</svg>
