<!-- Generated by IcoMoon.io -->
<svg version="1.1" xmlns="http://www.w3.org/2000/svg" width="32" height="32" viewBox="0 0 32 32">
<title>bower</title>
<path d="M12.369 7.489c-0.922 0-1.669 0.747-1.669 1.669s0.747 1.669 1.669 1.669c0.922 0 1.669-0.747 1.669-1.669s-0.747-1.669-1.669-1.669zM12.369 9.022c-0.537 0-0.973-0.271-0.973-0.605s0.435-0.605 0.973-0.605c0.537 0 0.973 0.271 0.973 0.605s-0.435 0.605-0.973 0.605z"></path>
<path d="M31.388 15.675c-1.646-1.582-9.876-2.569-12.473-2.856 0.126-0.297 0.233-0.604 0.321-0.921 0.354-0.155 0.736-0.299 1.131-0.42 0.048 0.142 0.275 0.686 0.404 0.944 5.222 0.144 5.49-3.881 5.703-4.983 0.208-1.078 0.197-2.12 1.988-4.024-2.669-0.778-6.506 1.205-7.791 4.157-0.483-0.181-0.967-0.315-1.446-0.397-0.343-1.384-2.13-5.24-6.819-5.24-3.037 0-6.099 1.254-8.401 3.44-1.241 1.178-2.215 2.577-2.897 4.158-0.736 1.708-1.109 3.589-1.109 5.59 0 6.969 4.758 13.076 7.446 13.076 1.174 0 2.184-0.879 2.421-1.667 0.199 0.54 0.809 2.22 1.009 2.648 0.296 0.632 1.665 1.179 2.264 0.523 0.77 0.428 2.184 0.686 2.954-0.456 1.484 0.314 2.796-0.571 2.824-1.627 0.728-0.039 1.085-1.061 0.926-1.875-0.117-0.599-1.369-2.75-1.857-3.492 0.967 0.786 3.415 1.009 3.713 0.001 1.558 1.223 3.987 0.581 4.18-0.414 1.894 0.492 4.066-0.589 3.709-1.898 3.042-0.21 2.653-3.447 1.799-4.267zM23.466 10.31c-0.801-0.315-1.818-0.513-2.53-0.513-1.010 0-1.626 0.572-2.576 0.572-0.2 0-0.676 0.001-1.058-0.135 0.251 0.264 0.564 0.406 1.17 0.406 0.362 0 1.079-0.185 1.66-0.359 0.008 0.122 0.021 0.244 0.038 0.364-1.087 0.26-2.229 0.952-2.559 1.131-0.735-1.622-0.103-3.157 0.481-3.865 2.617 0.006 4.73 1.803 5.374 2.398zM24.597 10.188l-0.4-0.374c-0.411-0.385-0.839-0.733-1.279-1.042 0.655-1.3 1.479-2.72 2.519-3.598-1.145 0.461-2.275 1.84-2.943 3.314-0.34-0.216-0.686-0.41-1.035-0.578 0.932-1.99 3.098-3.651 5.485-3.781-1.599 1.45-0.998 4.344-2.346 6.059zM21.313 11.544c-0.176-0.382-0.355-1.017-0.333-1.39 0.297-0.007 0.867 0.104 0.958 0.126-0.035 0.175-0.053 0.559-0.054 0.609 0.056-0.097 0.213-0.433 0.277-0.564 0.57 0.109 1.32 0.291 1.76 0.496-0.516 0.334-1.394 0.698-2.608 0.723zM17.748 7.057c-2.086 2.115-1.262 4.789-0.503 5.998-1.081 1.798-3.205 3.027-5.673 3.587 2.77 0 4.4-0.713 5.348-1.412 0.605-0.446 0.933-0.886 1.101-1.13 4.107 0.266 10.611 1.589 11.246 2.018 0.255 0.172 0.517 0.553 0.556 0.917-3.087-0.432-8.65-0.887-10.107-0.964 1.034 0.147 8.578 1.575 9.885 1.91-0.398 0.649-1.305 1.107-2.671 0.789 0.738 1.006-0.695 2.212-2.692 1.548 0.439 0.987-1.338 1.876-3.359 0.847 0.026 0.988-2.507 1.102-3.508 0.010 0.019 0.13 0.138 0.379 0.189 0.488-0.323 2.884-2.685 4.674-5.105 4.674-5.925 0-11.086-4.812-11.086-11.214 0-6.768 5.002-11.818 11.037-11.818 3.458-0 5.020 2.722 5.341 3.753z"></path>
</svg>
