<!-- Generated by IcoMoon.io -->
<svg version="1.1" xmlns="http://www.w3.org/2000/svg" width="32" height="32" viewBox="0 0 32 32">
<title>brackets</title>
<path d="M28.73 1.408h-25.32c-1.716 0-3.139 1.731-3.41 4v1.567c0.006 0.052 0.012 0.105 0.020 0.157-0.008 0.037-0.013 0.076-0.020 0.114v19.798c0.394 2.043 1.74 3.548 3.34 3.548h25.32c1.6 0 2.946-1.505 3.34-3.548v-22.404c-0.466-1.88-1.753-3.232-3.27-3.232zM28.903 24.906c-0.318 1.648-1.403 2.862-2.694 2.862h-20.42c-1.29 0-2.375-1.213-2.693-2.861v-15.967c0.005-0.031 0.009-0.062 0.016-0.092-0.006-0.042-0.011-0.084-0.016-0.126v-1.264c0.219-1.83 1.366-3.226 2.75-3.226h20.42c1.223 0 2.261 1.090 2.637 2.606v18.068z"></path>
<path d="M5.936 16v8.657h9.009v-3.941h-5.067v-9.431h5.067v-3.941h-9.009v8.657z"></path>
<path d="M17.056 9.314v1.971h5.067v9.431h-5.068v3.941h9.009v-17.314h-9.009v1.971z"></path>
</svg>
