<!-- Generated by IcoMoon.io -->
<svg version="1.1" xmlns="http://www.w3.org/2000/svg" width="28" height="32" viewBox="0 0 28 32">
<title>buffer</title>
<path d="M26.74 23.792l-12.281 6.114c-0.135 0.060-0.293 0.094-0.458 0.094s-0.323-0.035-0.466-0.097l0.007 0.003-12.282-6.114c-0.25-0.125-0.25-0.33 0-0.456l2.941-1.461c0.135-0.060 0.293-0.094 0.459-0.094s0.324 0.035 0.467 0.097l-0.008-0.003 8.422 4.188c0.135 0.060 0.293 0.095 0.458 0.095s0.323-0.035 0.466-0.098l-0.007 0.003 8.422-4.188c0.135-0.060 0.293-0.094 0.459-0.094s0.323 0.035 0.466 0.097l-0.008-0.003 2.941 1.464c0.253 0.122 0.253 0.328 0 0.453zM26.74 15.259l-2.941-1.464c-0.135-0.060-0.293-0.094-0.459-0.094s-0.323 0.035-0.466 0.097l0.008-0.003-8.422 4.193c-0.135 0.059-0.293 0.094-0.458 0.094s-0.323-0.035-0.466-0.097l0.008 0.003-8.422-4.192c-0.135-0.060-0.293-0.094-0.459-0.094s-0.324 0.035-0.467 0.097l0.008-0.003-2.941 1.464c-0.25 0.125-0.25 0.331 0 0.457l12.282 6.113c0.135 0.060 0.293 0.094 0.458 0.094s0.323-0.035 0.466-0.097l-0.007 0.003 12.281-6.113c0.253-0.126 0.253-0.331 0-0.457zM1.26 8.151l12.281 5.643c0.136 0.055 0.293 0.087 0.458 0.087s0.323-0.032 0.467-0.090l-0.008 0.003 12.282-5.643c0.25-0.116 0.25-0.306 0-0.421l-12.282-5.643c-0.136-0.055-0.293-0.088-0.458-0.088s-0.323 0.032-0.467 0.091l0.008-0.003-12.281 5.643c-0.253 0.116-0.253 0.305 0 0.421z"></path>
</svg>
