<!-- Generated by IcoMoon.io -->
<svg version="1.1" xmlns="http://www.w3.org/2000/svg" width="32" height="32" viewBox="0 0 32 32">
<title>bugsense</title>
<path d="M9.792 21.375c-0.194 0-0.391-0.032-0.588-0.094-0.207 1.238-0.256 2.738 0.719 2.764 1.25 0.034 3.857 0.016 5.076 0.007 0.044-0.225 0.044-0.268 0.009-0.245-0.985-0.416-2.657-1.375-1.797-2.84-0.288 0.041-0.569 0.090-0.858 0.141-0.768 0.13-1.564 0.267-2.562 0.267z"></path>
<path d="M23.453 23.806c-0.912-0.385-2.413-1.236-1.947-2.523-0.562 0.322-1.202 0.485-1.913 0.485-0.661 0-1.301-0.163-1.968-0.352-0.187 1.209-0.198 2.603 0.741 2.629 1.249 0.034 3.856 0.016 5.076 0.007 0.044-0.227 0.044-0.271 0.009-0.246z"></path>
<path d="M6.672 19.179c-0.362-0.511-0.658-1.019-0.862-1.397-0.248 1.129-1.46 5.454-5.635 6.555l-0.175 0.394c0 0 5.34-0.485 8.465-3.767-0.587-0.331-1.187-0.928-1.793-1.785z"></path>
<path d="M23.883 12.558c0 0-0.298-1.029-1.268-2.18-1.904 1.165-3.227 3.188-3.43 5.531-0.104-0.488-0.159-0.994-0.159-1.513 0-2.072 0.874-3.941 2.273-5.257-0.49-0.367-1.065-0.711-1.739-1.002-2.299 1.57-3.544 4.383-3.037 7.224-0.227-0.444-0.412-0.918-0.547-1.419-0.631-2.34-0.035-4.722 1.394-6.463-0.623-0.116-1.304-0.19-2.046-0.21-2.185 2.113-2.841 5.435-1.513 8.255-0.335-0.369-0.637-0.779-0.897-1.226-1.236-2.126-1.264-4.621-0.296-6.691-1.003 0.318-1.859 0.837-2.587 1.472-0.951 2.417-0.548 5.242 1.205 7.31-0.42-0.269-0.818-0.587-1.186-0.951-1.105-1.096-1.782-2.461-2.029-3.887-1.541 2.603-1.948 5.427-1.948 5.427s1.794 3.895 3.72 3.895 3.063-0.524 4.945-0.524c1.882 0 3.37 0.919 4.858 0.919 1.487-0.001 4.508-0.745 4.289-8.71z"></path>
<path d="M25.835 13.010c0.4-0.372 0.966-0.957 1.366-1.659 0.784-1.38 0.66-2.93 0.66-2.93s-1.787 0.684-2.572 2.065c-0.503 0.885-0.813 1.701-0.855 2.266 0.218 0.076 0.363-0.176-0.001-0.001 0.046 2.197-0.155 3.999-0.599 5.393 0.024 0.005 0.048 0.009 0.069 0.011 0 0 1.444 0.569 3.020-0.043s3.85 2.671 4.201 3.458l0.875 0.088c0-0.001-0.514-7.115-6.165-8.649zM27.28 15.862c-0.375 0-0.678-0.305-0.678-0.679s0.304-0.678 0.678-0.678c0.373 0 0.678 0.304 0.678 0.678 0.001 0.375-0.304 0.679-0.678 0.679z"></path>
</svg>
