<!-- Generated by IcoMoon.io -->
<svg version="1.1" xmlns="http://www.w3.org/2000/svg" width="32" height="32" viewBox="0 0 32 32">
<title>cakephp</title>
<path d="M0.5 18.422v4.828c0 2.672 6.938 4.837 15.5 4.837v-4.837c-8.563 0-15.5-2.16-15.5-4.828zM16 13.585l12.125 3c2.11-0.825 3.378-1.875 3.378-3v-4.835c0-2.67-6.94-4.838-15.5-4.838s-15.502 2.16-15.502 4.838v4.835c0 2.665 6.938 4.837 15.5 4.837v-4.838zM28.122 21.435l-12.123-3.012v4.828l12.125 3.012c2.108-0.817 3.375-1.865 3.375-3.012v-4.828c0 1.137-1.267 2.185-3.378 3.012z"></path>
</svg>
