<!-- Generated by IcoMoon.io -->
<svg version="1.1" xmlns="http://www.w3.org/2000/svg" width="32" height="32" viewBox="0 0 32 32">
<title>celluloid</title>
<path d="M14.345 0.21c-1.767 0.544-3.154 2.148-3.589 4.241-0.163 0.734-0.353 0.897-1.196 1.033-2.066 0.326-3.752 2.066-4.105 4.241-0.163 0.816-0.299 0.951-1.115 1.115-1.495 0.245-2.664 0.979-3.48 2.202-0.625 0.952-0.734 1.414-0.734 2.936s0.109 1.985 0.734 2.936c0.816 1.223 1.985 1.957 3.48 2.203 0.816 0.163 0.951 0.299 1.115 1.115 0.354 2.175 2.039 3.915 4.105 4.241 0.843 0.136 1.033 0.299 1.196 1.033 0.707 3.262 3.806 5.219 6.77 4.241 1.957-0.653 3.67-2.719 3.67-4.431 0-0.571 0.163-0.68 1.087-0.816 1.985-0.272 3.915-2.202 4.241-4.35 0.163-0.897 0.272-1.006 0.979-1.006 1.414 0 3.154-1.305 4.024-2.991 0.462-0.87 0.462-3.48 0-4.35-0.87-1.686-2.61-2.991-4.024-2.991-0.707 0-0.816-0.109-0.979-1.033-0.326-2.121-2.256-4.051-4.241-4.323-0.924-0.136-1.087-0.245-1.087-0.788-0-2.991-3.697-5.41-6.851-4.459zM18.178 2.548c0.924 0.788 1.549 2.42 1.278 3.453-0.489 1.985-2.719 3.235-4.649 2.583-2.719-0.897-3.127-4.975-0.625-6.362 1.114-0.625 3.072-0.462 3.996 0.326zM12.687 7.741c0.897 0.598 1.441 1.74 1.441 3.099 0 0.951-0.163 1.305-1.060 2.175-0.951 0.951-1.196 1.060-2.392 1.060-1.522 0-2.528-0.598-3.208-1.903-1.658-3.181 2.175-6.416 5.22-4.431zM22.664 7.388c1.332 0.544 2.066 1.658 2.066 3.072 0 2.229-1.305 3.616-3.398 3.616-2.121 0-3.398-1.332-3.398-3.48 0-1.55 0.68-2.61 2.012-3.208 1.087-0.462 1.604-0.462 2.719 0zM7.793 13.641c0.761 0.815 0.897 1.169 0.897 2.338s-0.136 1.522-0.897 2.338c-2.175 2.365-5.981 0.897-5.981-2.338 0-2.202 1.631-3.643 3.888-3.425 0.951 0.082 1.386 0.299 2.093 1.088zM17.961 13.070c0.598 0.408 1.060 1.033 1.332 1.767 0.353 1.006 0.353 1.278 0 2.284-1.305 3.725-6.797 2.827-6.797-1.115 0-1.441 0.489-2.284 1.74-3.045 1.141-0.707 2.583-0.653 3.724 0.109zM28.292 12.852c2.42 1.278 2.42 4.975 0 6.253-1.93 0.979-4.187 0.082-4.921-1.985-0.353-1.006-0.353-1.278 0-2.284 0.734-2.066 2.991-2.963 4.921-1.985zM13.067 18.942c0.897 0.87 1.060 1.223 1.060 2.175 0 2.854-2.42 4.486-4.975 3.344-3.48-1.55-2.338-6.579 1.522-6.579 1.197 0 1.441 0.109 2.392 1.060zM23.099 18.29c1.033 0.544 1.631 1.713 1.631 3.235 0 3.154-4.024 4.513-6.090 2.039-0.843-1.006-0.979-3.099-0.272-4.214 0.925-1.387 3.127-1.903 4.731-1.061zM17.934 23.809c1.876 1.387 2.066 3.752 0.408 5.41-0.761 0.761-1.087 0.897-2.202 0.897-1.577-0.027-2.393-0.435-3.127-1.522-2.066-3.127 1.876-6.987 4.921-4.785z"></path>
</svg>
