<!-- Generated by IcoMoon.io -->
<svg version="1.1" xmlns="http://www.w3.org/2000/svg" width="32" height="32" viewBox="0 0 32 32">
<title>centercode</title>
<path d="M20.575 16.788c-0.238 2.2-2.212 3.788-4.412 3.55s-3.787-2.212-3.55-4.412c0.238-2.2 2.213-3.787 4.412-3.55 2.194 0.238 3.788 2.213 3.55 4.412zM15.213 31.481c-9.169-0.481-15.725-8.637-14.581-17.462 0.7-5.412 4.112-9.806 8.694-12 10.063-4.819 21.856 2.338 22.169 13.537 0.256 9.187-7.4 16.388-16.281 15.925zM26.456 20.231c1.744-7.375-10.031-12.869-14.825-14.637-3.594 3.519-4.319 11.788-2.113 21.525 4.3 0.988 10.569-1.65 16.938-6.887z"></path>
</svg>
