<!-- Generated by IcoMoon.io -->
<svg version="1.1" xmlns="http://www.w3.org/2000/svg" width="28" height="32" viewBox="0 0 28 32">
<title>centos</title>
<path d="M18.1 6.094l1.975 1.981-4.769 4.781v-6.763zM7.95 8.075l4.769 4.781v-6.763h-2.794zM10.544 5.475h2.794v7.994l0.675 0.675 0.675-0.675v-7.994h2.794l-3.469-3.475zM12.181 15.981l-0.675-0.675h-8.037v-2.8l-3.469 3.475 3.469 3.475v-2.8h8.037l0.675-0.675zM17.137 14.688h6.744v-2.8l-1.975-1.981zM27.969 15.981l-3.469-3.475v2.8h-7.981l-0.675 0.675 0.675 0.675h7.981v2.8l3.469-3.475zM4.088 11.012l2.031-1.981 5.644 5.656h0.956v-0.956l-5.644-5.656 1.975-1.981h-4.963zM23.881 6.094h-4.906l1.975 1.981-5.644 5.656v0.956h0.956l5.644-5.656 1.975 1.981zM12.719 25.869v-6.756l-4.769 4.781 1.975 1.981h2.794zM4.088 14.688h6.8l-4.769-4.781-2.031 1.981zM23.881 20.95l-1.975 1.981-5.644-5.656h-0.956v0.956l5.644 5.656-1.975 1.981h4.906zM23.881 17.275h-6.744l4.769 4.781 1.975-1.981zM20.075 23.887l-4.769-4.781v6.756h2.794zM6.119 22.056l4.769-4.781h-6.8v2.8zM17.481 26.488h-2.794v-7.994l-0.675-0.675-0.675 0.675v7.994h-2.794l3.469 3.475zM7.075 23.887l5.644-5.656v-0.956h-0.956l-5.644 5.656-2.031-1.981v4.919h4.963z"></path>
</svg>
