<!-- Generated by IcoMoon.io -->
<svg version="1.1" xmlns="http://www.w3.org/2000/svg" width="31" height="32" viewBox="0 0 31 32">
<title>chrome</title>
<path d="M8.219 13.594l-4.775-7.338c2.975-3.7 7.438-5.737 12-5.756 2.644-0.019 5.344 0.656 7.8 2.075 2.712 1.575 4.775 3.837 6.087 6.437l-12.831-0.675c-3.631-0.213-7.088 1.831-8.281 5.256zM10.275 16c0 2.887 2.338 5.225 5.225 5.225s5.225-2.337 5.225-5.225-2.337-5.225-5.225-5.225-5.225 2.331-5.225 5.225zM29.956 10.425l-8.731 0.45c2.369 2.769 2.406 6.762 0.413 9.825l-7.006 10.775c2.906 0.156 5.9-0.481 8.613-2.056 6.712-3.875 9.431-12 6.712-18.994zM8.356 18.975l-5.831-11.469c-1.594 2.438-2.525 5.363-2.525 8.494 0 7.75 5.675 14.169 13.094 15.306l3.981-7.8c-3.6 0.675-7.075-1.3-8.719-4.531z"></path>
</svg>
