<!-- Generated by IcoMoon.io -->
<svg version="1.1" xmlns="http://www.w3.org/2000/svg" width="32" height="32" viewBox="0 0 32 32">
<title>clojure</title>
<path d="M16 0c-8.822 0-15.999 7.178-15.999 16s7.178 16 15.999 16c8.822 0 16-7.177 16-16s-7.178-16-16-16zM16 1.541c7.986 0 14.458 6.474 14.458 14.46 0 0.625-0.044 1.24-0.121 1.844-0.393 1.565-1.102 2.608-1.948 3.321-1.298 1.091-3.028 1.445-4.63 1.444-0.45 0.002-0.892-0.027-1.306-0.073 1.687-1.666 2.733-3.978 2.733-6.536h0.001c-0.001-5.073-4.113-9.185-9.187-9.186-1.316 0-2.565 0.279-3.697 0.777-0.142-0.098-0.288-0.193-0.441-0.281-0.634-0.356-1.955-0.878-3.636-0.882-1.217-0.011-2.611 0.298-3.977 1.153 2.624-3.655 6.908-6.040 11.75-6.040zM13.474 21.236c0.235-1.025 0.878-2.626 1.459-3.942 0.164-0.373 0.323-0.723 0.466-1.034 0.907 3.229 1.48 5.149 2.508 6.459 0.154 0.195 0.324 0.369 0.503 0.532-0.758 0.252-1.568 0.391-2.41 0.393-0.926-0.002-1.812-0.167-2.633-0.469-0.017-0.213-0.028-0.421-0.028-0.62-0.001-0.502 0.051-0.955 0.136-1.32zM11.518 22.186c-1.913-1.389-3.159-3.64-3.163-6.187 0.005-2.585 1.289-4.866 3.251-6.249 0.43 0.248 0.819 0.539 1.14 0.876 0.629 0.645 1.335 2.068 1.823 3.294 0.134 0.331 0.253 0.646 0.358 0.934-1.764 3.588-2.94 5.377-3.409 7.332zM17.247 17.597c-0.395-1.016-0.624-1.782-0.625-1.784-0.001-0.001-0.001-0.002-0.001-0.003-0.722-2.766-1.469-5.295-3.021-7.064 0.755-0.25 1.561-0.389 2.4-0.39 4.222 0.009 7.638 3.424 7.645 7.645h0.001c-0.005 2.532-1.236 4.772-3.131 6.163-0.282-0.080-0.484-0.152-0.573-0.196-0.299-0.129-0.738-0.57-1.138-1.184-0.608-0.915-1.166-2.172-1.557-3.186zM16 30.459c-7.985 0-14.458-6.474-14.458-14.459 0-0.526 0.030-1.044 0.084-1.555 1.184-4.028 4.030-5.52 6.725-5.545 0.547-0.001 1.082 0.071 1.595 0.195-1.919 1.683-3.132 4.151-3.132 6.905 0.001 5.074 4.113 9.186 9.186 9.186 1.466 0 2.851-0.345 4.080-0.955 0.73 0.258 1.566 0.411 2.579 0.538 0.38 0.046 0.79 0.070 1.226 0.070 1.165-0.004 2.526-0.172 3.941-0.525-2.616 3.716-6.935 6.146-11.826 6.146z"></path>
</svg>
