<!-- Generated by IcoMoon.io -->
<svg version="1.1" xmlns="http://www.w3.org/2000/svg" width="32" height="32" viewBox="0 0 32 32">
<title>clojure-sp</title>
<path d="M15.335 16.288c-0.159 0.345-0.334 0.732-0.516 1.144-0.643 1.455-1.354 3.226-1.614 4.361-0.094 0.404-0.151 0.905-0.15 1.46 0 0.22 0.012 0.451 0.031 0.686 0.908 0.334 1.889 0.517 2.914 0.519 0.933-0.002 1.829-0.156 2.667-0.435-0.197-0.18-0.385-0.372-0.556-0.589-1.137-1.45-1.771-3.575-2.775-7.147z"></path>
<path d="M16 0c-0.3 0-0.598 0.009-0.895 0.026-0.038 0.002-0.076 0.003-0.114 0.006-0.116 0.007-0.232 0.017-0.348 0.027-0.053 0.004-0.107 0.008-0.16 0.013-0.109 0.010-0.217 0.023-0.325 0.035-0.059 0.007-0.119 0.013-0.178 0.020-0.105 0.013-0.209 0.028-0.313 0.044-0.061 0.009-0.123 0.018-0.184 0.027-0.102 0.016-0.204 0.034-0.306 0.052-0.062 0.011-0.124 0.022-0.186 0.034-0.101 0.019-0.201 0.040-0.301 0.061-0.062 0.013-0.123 0.026-0.185 0.040-0.1 0.022-0.199 0.046-0.298 0.070-0.060 0.015-0.121 0.030-0.181 0.045-0.099 0.025-0.198 0.052-0.297 0.079-0.059 0.016-0.117 0.033-0.175 0.050-0.099 0.029-0.199 0.058-0.297 0.089-0.056 0.017-0.111 0.035-0.167 0.053-0.1 0.032-0.2 0.065-0.299 0.099-0.052 0.018-0.104 0.037-0.156 0.055-0.102 0.036-0.204 0.073-0.305 0.111-0.046 0.018-0.092 0.036-0.138 0.054-0.106 0.041-0.211 0.083-0.316 0.126-0.037 0.015-0.073 0.032-0.11 0.047-0.113 0.048-0.226 0.096-0.338 0.147-0.018 0.008-0.035 0.016-0.052 0.024-0.685 0.312-1.344 0.672-1.974 1.074-0.015 0.010-0.031 0.019-0.047 0.029-0.108 0.069-0.214 0.14-0.319 0.212-0.026 0.018-0.053 0.035-0.080 0.054-0.099 0.068-0.198 0.138-0.295 0.209-0.032 0.023-0.064 0.045-0.095 0.068-0.094 0.069-0.187 0.139-0.279 0.21-0.034 0.026-0.068 0.052-0.102 0.078-0.090 0.070-0.179 0.141-0.267 0.213-0.035 0.028-0.070 0.057-0.105 0.086-0.087 0.072-0.172 0.144-0.258 0.218-0.035 0.030-0.070 0.061-0.105 0.091-0.084 0.074-0.167 0.148-0.25 0.224-0.034 0.032-0.069 0.063-0.103 0.095-0.082 0.076-0.163 0.153-0.243 0.231-0.033 0.032-0.066 0.065-0.099 0.098-0.080 0.079-0.159 0.158-0.237 0.239-0.032 0.033-0.063 0.066-0.094 0.099-0.078 0.082-0.156 0.165-0.233 0.248-0.029 0.032-0.057 0.064-0.086 0.096-0.078 0.086-0.155 0.173-0.23 0.261-0.025 0.029-0.050 0.059-0.075 0.089-0.078 0.092-0.156 0.184-0.231 0.278-0.018 0.023-0.036 0.046-0.054 0.068-0.095 0.118-0.188 0.238-0.28 0.359-0.007 0.009-0.014 0.019-0.021 0.028-0.073 0.097-0.145 0.195-0.216 0.294 1.51-0.945 3.052-1.286 4.398-1.274 1.86 0.005 3.322 0.582 4.023 0.976 0.17 0.098 0.33 0.203 0.488 0.311 1.252-0.551 2.635-0.86 4.091-0.86 5.614 0.001 10.165 4.551 10.166 10.165h-0.001c0 2.83-1.158 5.39-3.024 7.233 0.458 0.052 0.947 0.083 1.445 0.081 1.772 0.001 3.687-0.39 5.123-1.598 0.937-0.789 1.721-1.944 2.156-3.675 0.085-0.669 0.134-1.349 0.134-2.040 0-8.836-7.162-16-15.999-16z"></path>
<path d="M23.368 25.703c-1.121-0.14-2.045-0.31-2.854-0.595-1.361 0.675-2.893 1.057-4.515 1.057-5.613 0-10.164-4.55-10.165-10.165 0-3.047 1.342-5.778 3.466-7.641-0.568-0.137-1.16-0.217-1.765-0.216-2.981 0.028-6.128 1.677-7.44 6.131-0.011 0.101-0.021 0.202-0.030 0.303-0.003 0.037-0.007 0.075-0.011 0.112-0.006 0.075-0.011 0.151-0.016 0.226-0.005 0.070-0.011 0.14-0.014 0.211-0.006 0.106-0.010 0.212-0.013 0.318-0.001 0.038-0.004 0.075-0.005 0.113-0.004 0.147-0.006 0.295-0.006 0.443 0 8.836 7.163 16 15.999 16 0.002 0 0.004-0 0.006-0 0.17 0 0.34-0.003 0.509-0.008 0.059-0.002 0.118-0.006 0.177-0.008 0.111-0.005 0.223-0.009 0.333-0.016 0.071-0.004 0.141-0.011 0.212-0.016 0.098-0.007 0.196-0.014 0.294-0.024 0.076-0.007 0.15-0.016 0.226-0.025 0.092-0.010 0.184-0.020 0.276-0.031 0.078-0.010 0.155-0.022 0.232-0.033 0.088-0.012 0.176-0.024 0.264-0.038 0.079-0.013 0.158-0.027 0.238-0.041 0.085-0.015 0.169-0.029 0.254-0.045 0.080-0.015 0.16-0.032 0.24-0.049 0.082-0.017 0.164-0.034 0.246-0.052s0.161-0.038 0.241-0.057c0.080-0.019 0.159-0.038 0.238-0.058 0.081-0.021 0.162-0.043 0.243-0.065 0.077-0.021 0.155-0.042 0.232-0.065 0.081-0.024 0.162-0.048 0.243-0.073 0.075-0.023 0.15-0.046 0.224-0.070 0.082-0.026 0.163-0.054 0.244-0.082 0.073-0.025 0.145-0.050 0.218-0.076 0.082-0.029 0.163-0.059 0.244-0.090 0.070-0.026 0.141-0.053 0.211-0.081 0.082-0.032 0.163-0.065 0.244-0.098 0.068-0.028 0.136-0.056 0.204-0.085 0.082-0.035 0.163-0.071 0.244-0.107 0.066-0.029 0.131-0.059 0.196-0.089 0.082-0.038 0.163-0.077 0.244-0.116 0.063-0.031 0.126-0.062 0.188-0.093 0.082-0.041 0.163-0.083 0.245-0.125 0.060-0.032 0.12-0.064 0.18-0.096 0.082-0.044 0.164-0.089 0.245-0.135 0.057-0.032 0.114-0.065 0.171-0.098 0.082-0.048 0.165-0.096 0.246-0.145 0.054-0.033 0.108-0.066 0.161-0.099 0.083-0.051 0.166-0.103 0.247-0.156 0.051-0.033 0.101-0.066 0.151-0.099 0.084-0.055 0.167-0.111 0.25-0.168 0.047-0.032 0.093-0.065 0.139-0.098 0.085-0.060 0.169-0.119 0.253-0.181 0.042-0.031 0.084-0.063 0.126-0.095 0.086-0.065 0.172-0.129 0.257-0.195 0.037-0.029 0.073-0.058 0.11-0.088 0.088-0.070 0.177-0.141 0.264-0.213 0.030-0.025 0.060-0.051 0.090-0.076 0.092-0.078 0.184-0.156 0.275-0.236 0.021-0.019 0.041-0.038 0.062-0.056 0.098-0.088 0.196-0.176 0.292-0.266 0.007-0.007 0.014-0.014 0.021-0.021 0.107-0.101 0.213-0.204 0.318-0.308 0.039-0.039 0.077-0.078 0.116-0.118 0.065-0.065 0.129-0.131 0.192-0.197 0.046-0.048 0.092-0.097 0.137-0.146 0.054-0.058 0.108-0.116 0.161-0.175 0.049-0.054 0.098-0.109 0.146-0.164 0.047-0.054 0.094-0.108 0.141-0.162 0.051-0.060 0.102-0.12 0.153-0.181 0.040-0.048 0.079-0.097 0.118-0.145 0.055-0.068 0.11-0.135 0.164-0.204 0.019-0.024 0.038-0.049 0.057-0.074 0.149-0.193 0.295-0.389 0.435-0.588 0-0 0-0.001 0.001-0.001-1.566 0.39-3.071 0.577-4.361 0.581-0.484 0-0.937-0.026-1.357-0.077z"></path>
<path d="M20.362 22.602c0.099 0.049 0.323 0.129 0.634 0.217 2.097-1.539 3.459-4.018 3.464-6.82h-0.001c-0.008-4.671-3.788-8.45-8.46-8.46-0.929 0.002-1.821 0.155-2.656 0.432 1.718 1.958 2.544 4.756 3.343 7.817 0 0.001 0.001 0.002 0.001 0.004 0.001 0.002 0.255 0.85 0.692 1.974 0.433 1.123 1.050 2.513 1.723 3.526 0.442 0.679 0.928 1.167 1.259 1.31z"></path>
<path d="M11.138 9.085c-2.171 1.53-3.592 4.054-3.598 6.915 0.005 2.817 1.383 5.309 3.5 6.846 0.519-2.163 1.821-4.143 3.773-8.113-0.116-0.318-0.248-0.667-0.396-1.033-0.541-1.356-1.321-2.931-2.018-3.645-0.355-0.373-0.786-0.694-1.262-0.969z"></path>
</svg>
