<!-- Generated by IcoMoon.io -->
<svg version="1.1" xmlns="http://www.w3.org/2000/svg" width="28" height="32" viewBox="0 0 28 32">
<title>cloudscale</title>
<path d="M19.881 9.625l-0.587 0.475c-1.406-1.206-3.219-2.1-5.206-2.1-4.475 0-8.088 3.8-8.088 8.269 0 0.413 0.025 0.819 0.088 1.212-0.125-3.5 2.613-6.088 5.787-6.088 1.512 0 2.888 0.588 3.912 1.544l-1.575 1.275c-0.519-0.056-1.050 0.113-1.444 0.506-0.694 0.688-0.694 1.806 0 2.5 0.694 0.688 1.806 0.688 2.5 0 0.394-0.394 0.563-0.931 0.506-1.444l4.7-5.55c0.394-0.406-0.206-0.994-0.594-0.6zM14.644 16.594c-0.35 0.344-0.912 0.344-1.262 0-0.35-0.35-0.35-0.912 0-1.262s0.912-0.35 1.262 0 0.35 0.919 0 1.262zM14 2c-7.719 0-14 6.281-14 14s6.281 14 14 14 14-6.281 14-14-6.281-14-14-14zM14 26c-5.512 0-10-4.488-10-10s4.488-10 10-10 10 4.488 10 10-4.488 10-10 10z"></path>
</svg>
