<!-- Generated by IcoMoon.io -->
<svg version="1.1" xmlns="http://www.w3.org/2000/svg" width="39" height="32" viewBox="0 0 39 32">
<title>cloudversify</title>
<path d="M9.287 19c0.512 4.281 4.213 7.219 9.125 6.956 3.2 2.706 8.55 2.863 11.65-0.35 4.325 0.069 7.406-2.788 8.219-6.219 0.925-3.906-1.138-8.281-5.756-9.694-2.063-5.506-8.212-6.344-11.656-5.313-3.581 1.081-5.269 3.325-6.206 6.856-0.488 0.169-1.656 0.556-2.813 1.506 0.731 0 0.95 0.556 0.95 1.219v1.275c0 0.669-0.544 1.219-1.219 1.219h-1.262c-0.669 0-1.219-0.375-1.219-1.044v-0.412h-2.925c-0.237 0-0.675 0.269-0.675 0.744v2.525c0 0.4 0.331 0.738 0.731 0.738h3.056zM23.5 19.5c-0.669 2.894 1.356 4.525 3.456 5.425-6.7 2.113-10.725-3.175-8.456-6.925-2.075 1.35-2.106 4.45-1.825 5.806-1.119-0.775-3.363-2.025-3.588-4.988-0.188-2.494 1.344-4.731 3.562-5.869 1.913-0.988 6.469-0.531 8.35 2.55-0.881-3-3.363-4.381-6.363-4.675 1.931-1.919 4.025-3.144 7.137-2.731 4.363 0.581 8.325 5.175 4.231 9.406 2.187-1.019 3.044-3.4 2.969-4.806l0.656 1.225c0.737 1.375 0.95 2.975 0.587 4.5-0.575 2.438-2.538 4.3-4.981 4.781-2.006 0.394-5.194-0.319-5.738-3.7zM8 13h-2.487c-0.556 0-1.013-0.456-1.013-1.012v-2.475c0-0.556 0.456-1.012 1.013-1.012h2.487c0.556 0 1.012 0.456 1.012 1.012v2.475c0 0.556-0.456 1.012-1.013 1.012zM0.631 10.5c-0.35 0-0.631-0.281-0.631-0.631v-1.738c0-0.35 0.281-0.631 0.631-0.631h1.731c0.344 0 0.631 0.281 0.631 0.631v1.738c0 0.35-0.281 0.631-0.631 0.631h-1.731zM10.5 8.919v-1.338c0-0.319 0.262-0.581 0.581-0.581h1.338c0.319 0 0.581 0.263 0.581 0.581v1.338c0 0.319-0.262 0.581-0.581 0.581h-1.338c-0.319 0-0.581-0.262-0.581-0.581zM3.5 14.719v1.563c0 0.394-0.319 0.719-0.712 0.719h-1.575c-0.394 0-0.713-0.325-0.713-0.719v-1.563c0-0.394 0.319-0.719 0.713-0.719h1.569c0.4 0 0.719 0.325 0.719 0.719z"></path>
</svg>
