<!-- Generated by IcoMoon.io -->
<svg version="1.1" xmlns="http://www.w3.org/2000/svg" width="32" height="32" viewBox="0 0 32 32">
<title>coda</title>
<path d="M27.163 7.44l-0.592-0.512-23.767 22.177 22.197-23.536-0.594-0.514c-2.864-1.537-6.519-1.193-9.501-0.21-0.861 0.284-1.721 0.625-2.539 1.016-1.767 0.841-3.402 1.927-4.829 3.269-3.256 3.060-5.327 7.142-6.34 11.467-0.285 1.215-0.519 2.456-0.691 3.692-0.215 1.553-0.342 3.118-0.451 4.682-0.092 1.316-0.289 3.093 1.546 2.982 0.326-0.020 0.653-0.016 0.98-0.023 4.593-0.097 9.213-0.046 13.63-1.524 2.873-0.961 5.627-2.516 7.78-4.654 3.226-3.203 5.562-7.871 5.197-12.505-0.162-2.055-0.613-4.223-2.026-5.804z"></path>
<path d="M30.669 0.044l1.331 1.331-24.897 23.455z"></path>
</svg>
