<!-- Generated by IcoMoon.io -->
<svg version="1.1" xmlns="http://www.w3.org/2000/svg" width="30" height="32" viewBox="0 0 30 32">
<title>codiepie</title>
<path d="M26.406 12.681c1.919 0 2.094 3.319-0.019 3.319h-0.675v2.769h-1.663v-6.088h2.356zM29.5 22.038c-2.631 5.744-7.6 9.462-14 9.462-8.563 0-15.5-6.938-15.5-15.5s6.938-15.5 15.5-15.5c6.087 0 10.8 3.356 13.637 8.65l-11.625 6.8 11.988 6.088zM27.094 22.819l-3.769-1.919c-1.694 2.769-4.4 4.463-7.65 4.463-5.156 0-9.325-4.169-9.325-9.306 0-5.156 4.169-9.325 9.325-9.325 3.025 0 5.556 1.469 7.306 3.963l3.719-2.162c-2.544-3.912-6.544-6.25-11.2-6.25-7.575 0-13.719 6.144-13.719 13.719s6.144 13.719 13.719 13.719c4.913 0 9.156-2.631 11.594-6.9z"></path>
</svg>
