<!-- Generated by IcoMoon.io -->
<svg version="1.1" xmlns="http://www.w3.org/2000/svg" width="32" height="32" viewBox="0 0 32 32">
<title>codrops</title>
<path d="M12.869 0.224c-5.158 1.099-9.735 4.858-11.655 9.575-1.619 3.958-1.619 8.476 0 12.434 1.699 4.158 5.497 7.636 9.955 9.116 1.599 0.52 1.979 0.56 4.838 0.56s3.239-0.040 4.838-0.56c6.737-2.219 11.155-8.276 11.155-15.333 0-6.997-4.278-12.954-10.955-15.253-1.539-0.52-2.039-0.6-4.538-0.66-1.539-0.040-3.178 0.020-3.638 0.12zM17.807 10.699c2.759 4.838 3.618 7.217 3.239 8.916-0.6 2.559-2.839 4.198-5.398 3.938-1.259-0.14-2.619-0.899-3.378-1.859l-0.48-0.64h0.8c2.179-0.040 3.858-2.099 3.518-4.338-0.12-0.92-0.8-2.739-1.599-4.298l-0.46-0.9 1.019-1.739c0.56-0.959 1.080-1.699 1.159-1.639 0.080 0.040 0.8 1.199 1.579 2.559zM13.609 12.618c1.719 3.418 2.019 4.918 1.279 6.197-1.339 2.259-4.518 1.619-5.178-1.059-0.1-0.32-0.020-0.96 0.2-1.599 0.36-1.14 2.499-5.138 2.739-5.138 0.080 0 0.52 0.72 0.96 1.599z"></path>
</svg>
