<!-- Generated by IcoMoon.io -->
<svg version="1.1" xmlns="http://www.w3.org/2000/svg" width="27" height="32" viewBox="0 0 27 32">
<title>composer</title>
<path d="M14.005 31.38c0.611-0.286 1.054-0.689 1.054-0.985 0-0.118 1.566-1.684 1.772-1.772 0.029-0.010 0.236 0.049 0.433 0.128l0.374 0.157-0.699 0.443c-0.384 0.236-0.738 0.433-0.798 0.433zM17.018 29.696l0.67-0.335c1.349-0.679 4.992-1.93 6.371-2.196 0.61-0.108 0.473-0.207-0.167-0.118-0.335 0.039-0.67 0.108-0.748 0.128-0.276 0.108 0.217-0.345 0.807-0.748 0.325-0.207 0.512-0.384 0.423-0.384-0.473 0-4.736 1.703-5.544 2.225-0.305 0.197-0.325 0.187-0.325-0.236 0-0.355 0.029-0.374 0.67-0.729 0.561-0.305 4.008-1.851 4.126-1.851 0.020 0-0.079 0.207-0.226 0.463l-0.276 0.473 0.748-0.689c0.414-0.384 0.748-0.719 0.758-0.748 0-0.039-0.236-0.010-0.532 0.059s-0.561 0.098-0.581 0.059c-0.098-0.157 0.128-1.28 0.335-1.684 0.118-0.236 0.276-0.788 0.345-1.221 0.286-1.713 0.64-3.102 1.034-4.047 0.837-1.979 0.916-2.275 0.788-2.826-0.069-0.266-0.098-0.61-0.059-0.778 0.029-0.158 0.010-0.404-0.039-0.542-0.069-0.187-0.069-0.305 0.010-0.394 0.089-0.118 0.030-0.246-0.305-0.64-0.226-0.266-0.404-0.502-0.384-0.512 0.020-0.020 0.197-0.098 0.384-0.177l0.345-0.158 0.098-1.349c0.059-0.738 0.089-1.339 0.089-1.339-0.010 0-0.443 0.128-0.975 0.295-0.532 0.158-1.014 0.295-1.083 0.295-0.138 0-0.266-0.256-0.689-1.438-0.276-0.748-0.325-0.985-0.276-1.477 0.059-0.679-0.177-2.245-0.473-3.121-0.394-1.182-1.635-3.328-2.038-3.505-0.345-0.167-0.591-0.128-0.719 0.098-0.128 0.246-0.118 0.276 0.345 1.349l0.354 0.827-0.611-0.483c-1.369-1.063-2.688-1.782-3.436-1.871-0.473-0.059-0.492-0.049-0.601 0.246-0.069 0.167-0.197 0.325-0.295 0.345-0.128 0.039-0.177 0.148-0.177 0.423 0 0.345 0.079 0.443 1.014 1.339 0.551 0.522 0.965 0.955 0.926 0.965-0.039 0-0.423-0.226-0.837-0.512-0.62-0.414-0.837-0.512-1.191-0.522-0.827 0-0.807 0.571 0.039 1.172 0.295 0.217 0.886 0.738 1.3 1.172l0.768 0.788-0.689 0.118c-1.083 0.197-1.516 0.335-1.625 0.551-0.207 0.384-0.079 0.492 1.063 0.866 0.611 0.207 1.201 0.463 1.329 0.571 0.394 0.364 1.29 0.886 1.822 1.063 0.345 0.108 0.561 0.246 0.63 0.394 0.059 0.128 0.207 0.276 0.335 0.335 0.158 0.069 0.276 0.256 0.394 0.65 0.089 0.305 0.138 0.581 0.108 0.611-0.029 0.020-0.433 0.167-0.896 0.305l-0.847 0.266 0.719 1.28c0.66 1.191 0.729 1.28 0.985 1.251 0.325-0.030 0.325-0.030 0.049 0.433l-0.217 0.364 0.227 0.414c0.148 0.286 0.197 0.502 0.157 0.64-0.059 0.187-0.098 0.158-0.295-0.266-0.256-0.551-0.955-1.467-1.378-1.822-0.729-0.591-1.034-0.709-1.979-0.719l-0.886-0.020-0.463-0.443c-0.246-0.246-0.709-0.571-1.024-0.729-0.542-0.266-0.64-0.286-1.802-0.286h-1.231l-0.935 0.492c-1.201 0.62-2.442 1.841-3.22 3.151-0.286 0.482-0.522 0.827-0.522 0.778-0.010-0.049-0.049-0.276-0.089-0.502-0.079-0.404-0.079-0.414 0.217-0.443 0.286-0.030 0.305-0.059 0.512-0.916 0.118-0.492 0.246-0.985 0.286-1.093 0.059-0.197 0-0.226-0.827-0.433-0.67-0.167-0.886-0.256-0.886-0.384 0-0.305 0.286-1.211 0.423-1.379 0.079-0.089 0.167-0.246 0.187-0.354s0.226-0.305 0.482-0.443c0.689-0.374 0.729-0.423 1.447-1.812 0.522-1.014 0.807-1.447 1.369-2.048 0.394-0.423 0.719-0.807 0.719-0.847 0-0.167-0.404-0.611-0.551-0.611-0.295 0-0.079-0.177 1.26-1.034 1.762-1.113 1.812-1.162 1.644-1.29-0.108-0.089-0.709 0.246-2.55 1.398-1.329 0.837-2.442 1.516-2.471 1.516s-0.148-0.295-0.266-0.65l-0.207-0.64 0.679-0.64c0.719-0.679 0.876-0.945 0.689-1.172-0.089-0.108-0.266-0.059-1.014 0.305-0.502 0.246-1.27 0.551-1.723 0.699-0.758 0.236-0.827 0.236-0.995 0.089-0.414-0.374-0.679-0.148-1.703 1.438-0.207 0.315-0.404 0.571-0.443 0.571-0.049 0-0.295-0.384-0.561-0.866-0.266-0.473-0.571-0.955-0.679-1.083-0.266-0.286-0.522-0.276-0.601 0.020-0.098 0.394 0.345 2.196 1.054 4.372 0.227 0.679 0.236 0.719 0.069 0.807-0.158 0.079-0.167 0.138-0.069 0.394 0.079 0.217 0.158 0.276 0.286 0.236 0.148-0.039 0.236 0.069 0.463 0.581 0.286 0.63 0.286 0.64 0.128 1.211-0.089 0.325-0.158 0.591-0.167 0.601 0 0.010-0.246-0.039-0.542-0.118-0.896-0.236-0.837-0.305-0.965 1.152-0.069 0.719-0.118 1.379-0.118 1.467 0 0.118 0.128 0.187 0.453 0.236l0.453 0.059-0.069 0.591c-0.059 0.473-0.039 0.63 0.089 0.768 0.167 0.177 0.217 1.25 0.246 5.101l0.010 1.388 0.374 0.118c0.463 0.157 0.709 0.364 0.709 0.63 0 0.128 0.158 0.315 0.423 0.502 0.226 0.157 1.093 0.788 1.91 1.398 1.428 1.054 1.497 1.122 1.398 1.339-0.089 0.207-0.069 0.276 0.177 0.522 0.236 0.246 0.256 0.286 0.098 0.315-0.089 0.020-0.404-0.020-0.689-0.079-0.66-0.148-2.924-0.256-2.915-0.138 0 0.049 0.473 0.325 1.054 0.611s0.965 0.443 0.857 0.345c-0.118-0.098-0.384-0.325-0.591-0.502l-0.394-0.335 0.581 0.069c1.063 0.128 4.46 1.063 4.687 1.3 0.138 0.138 0.079 0.148-0.542 0.089-1.822-0.167-2.609-0.177-3.86-0.059-0.748 0.069-1.418 0.157-1.487 0.197-0.177 0.089 1.369 0.197 2.934 0.197 1.231 0 2.708 0.226 5.455 0.837l0.719 0.157-0.167 0.364c-0.266 0.542-0.709 2.078-0.64 2.186zM17.648 1.201c1.378 0.748 2.284 1.477 2.284 1.831-0.010 0.197 0.039 0.266 0.177 0.266 0.098 0 0.266 0.049 0.374 0.098 0.148 0.079 0.187 0.069 0.187-0.030 0-0.197-0.236-0.867-0.61-1.713-0.315-0.729-0.315-1.014 0-1.014 0.246 0 0.384 0.177 0.965 1.182 0.601 1.044 0.985 1.881 1.231 2.737 0.246 0.837 0.355 2.343 0.207 2.777-0.089 0.246-0.079 0.384 0.039 0.67 0.345 0.798 0.827 2.038 0.827 2.137s-1.979 0.738-2.255 0.738c-0.049 0-0.128-0.098-0.167-0.226-0.227-0.738-0.463-1.251-0.581-1.251-0.079 0-0.207-0.128-0.295-0.295-0.177-0.354-0.335-0.433-1.034-0.581-0.364-0.079-0.827-0.305-1.428-0.699-0.689-0.453-1.024-0.601-1.526-0.699-0.354-0.059-0.719-0.158-0.807-0.207-0.226-0.108-0.226-0.345 0.010-0.463 0.207-0.118 2.176-0.295 2.511-0.236 0.148 0.029 0.384-0.059 0.65-0.226 0.453-0.305 0.394-0.443-0.089-0.197-0.463 0.246-0.66 0.197-1.044-0.276-0.197-0.246-0.817-0.847-1.388-1.339-0.995-0.876-1.172-1.132-0.886-1.241 0.167-0.069 0.502 0.098 1.566 0.788 0.443 0.286 1.073 0.67 1.398 0.847 0.542 0.305 0.571 0.315 0.394 0.089-0.512-0.62-1.91-2.156-2.334-2.56-0.473-0.453-0.611-0.827-0.335-0.935 0.217-0.079 0.689 0.207 2.225 1.359 0.916 0.679 1.241 0.896 0.916 0.581-0.512-0.482-1.802-1.467-2.412-1.831-0.177-0.108-0.335-0.295-0.354-0.423-0.059-0.374 0.443-0.266 1.585 0.345zM8.658 2.757c0 0.177-0.197 0.404-0.788 0.896-0.433 0.364-0.788 0.67-0.788 0.679s0.098 0.010 0.207 0.010c0.167-0.010 0.256 0.089 0.394 0.482 0.246 0.709 0.236 0.916-0.069 0.995-0.207 0.049-0.325-0.010-0.64-0.315-0.433-0.423-0.482-0.729-0.158-0.965 0.187-0.128 0.158-0.128-0.157 0.010l-0.384 0.177-0.286-0.345c-0.158-0.187-0.276-0.404-0.256-0.482 0.010-0.069 0.394-0.295 0.857-0.492s1.034-0.473 1.28-0.62c0.581-0.335 0.788-0.345 0.788-0.030zM5.419 3.909c0.118 0.177 0.571 0.689 0.995 1.123 0.768 0.807 0.896 1.054 0.61 1.162-0.414 0.158-0.886-0.029-1.526-0.601-0.217-0.197-0.414-0.335-0.433-0.305-0.029 0.020-0.069 0.197-0.108 0.384-0.039 0.266-0.029 0.305 0.059 0.158 0.059-0.089 0.148-0.167 0.207-0.167 0.187 0 1.073 0.65 1.073 0.788 0 0.128-2.934 1.871-3.299 1.95-0.177 0.039-1.162-3.003-1.379-4.244-0.049-0.315-0.030-0.364 0.128-0.364 0.226 0 0.532 0.443 1.142 1.654 0.256 0.502 0.473 0.906 0.482 0.906 0.020 0 0.020-0.118 0-0.276-0.030-0.197 0.128-0.532 0.66-1.378 0.798-1.251 0.995-1.359 1.388-0.788zM10.312 5.307c0.030 0.226-0.059 0.374-0.404 0.738-0.473 0.492-1.29 1.664-1.644 2.373-0.276 0.551-0.827 1.142-1.3 1.388-0.295 0.148-0.364 0.256-0.423 0.571-0.039 0.217-0.128 0.443-0.197 0.502s-0.207 0.394-0.305 0.748-0.236 0.67-0.305 0.699c-0.069 0.030-0.62-0.069-1.221-0.217l-1.093-0.276 0.049-0.374c0.030-0.207 0.118-0.512 0.207-0.689 0.148-0.295 0.148-0.335-0.207-1.054-0.236-0.492-0.325-0.788-0.266-0.867 0.148-0.217 3.574-2.304 3.771-2.304 0.108 0 0.325-0.108 0.492-0.246 0.453-0.384 2.294-1.31 2.57-1.3 0.197 0.020 0.256 0.079 0.276 0.305zM25.437 10.998c-0.039 0.502-0.089 0.945-0.128 0.985-0.079 0.089-4.579 1.654-4.766 1.654-0.148 0-1.083-1.625-1.024-1.802 0.039-0.118 5.366-1.723 5.76-1.733 0.226-0.010 0.226 0 0.158 0.896zM4.897 12.426c1.388 0.354 2.57 0.689 2.619 0.729 0.079 0.069-0.177 1.211-0.325 1.457-0.049 0.079-0.778 0.010-2.678-0.246-1.428-0.197-2.629-0.384-2.659-0.414-0.039-0.039-0.020-0.542 0.039-1.132 0.089-0.926 0.128-1.054 0.286-1.054 0.108 0 1.329 0.295 2.718 0.66zM14.409 12.189c0.886 0.423 1.388 0.926 1.585 1.575 0.187 0.63 0.197 1.595 0.010 1.763-0.089 0.079-0.118 0.256-0.089 0.482 0.108 0.778-0.433 1.664-1.428 2.343-1.231 0.827-1.546 0.916-4.204 1.191-2.058 0.207-2.363 0.305-2.728 0.788-0.118 0.167-0.276 0.295-0.345 0.295-0.177 0-0.157-0.453 0.030-0.778 0.295-0.512 0.758-0.709 2.481-1.103 1.881-0.433 2.57-0.66 3.436-1.132 0.601-0.335 0.916-0.64 0.916-0.906 0-0.079-0.167-0.010-0.463 0.187-0.817 0.571-1.851 0.867-3.939 1.123-1.211 0.157-2.146 0.433-2.708 0.798-0.394 0.256-0.67 0.305-0.67 0.128 0-0.059 0.246-0.502 0.551-0.985 0.955-1.507 2.58-2.806 4.096-3.289 1.034-0.325 2.934-0.354 3.604-0.049 0.226 0.108 0.394 0.148 0.364 0.098-0.108-0.177-1.191-0.512-1.822-0.561-1.585-0.128-3.712 0.65-4.776 1.743-0.325 0.335-0.847 0.689-1.004 0.689-0.128 0 0.177-0.571 0.827-1.556 1.152-1.723 2.304-2.668 3.673-3.013 1.31-0.325 1.615-0.305 2.599 0.167zM24.895 12.869c0.345 0.354 0.404 0.473 0.354 0.709-0.029 0.158 0 0.345 0.059 0.414 0.069 0.079 0.089 0.276 0.039 0.492-0.069 0.384-0.010 0.374-0.896 0.187-0.187-0.039-0.089 0.049 0.305 0.266 0.561 0.305 0.591 0.345 0.62 0.738 0.029 0.404-0.236 1.152-0.906 2.59-0.138 0.295-0.256 0.66-0.256 0.807 0 0.138-0.049 0.276-0.098 0.295-0.148 0.049-0.364 0.935-0.542 2.156-0.098 0.709-0.236 1.26-0.443 1.713s-0.315 0.906-0.364 1.388c-0.049 0.62-0.089 0.738-0.315 0.906-0.404 0.295-3.515 1.615-3.712 1.575-0.118-0.020-0.276-0.246-0.423-0.62-0.335-0.837-0.364-1.31-0.128-1.782 0.108-0.207 0.256-0.581 0.325-0.817 0.069-0.226 0.187-0.443 0.256-0.473s0.217-0.197 0.335-0.384c0.108-0.187 0.256-0.335 0.325-0.335s0.167 0.305 0.236 0.788c0.069 0.423 0.187 0.926 0.266 1.103 0.138 0.325 0.138 0.315 0.148-0.414 0.020-1.014 0.118-1.516 0.305-1.556 0.128-0.020 0.167 0.079 0.207 0.492 0.029 0.285 0.118 0.679 0.197 0.866 0.138 0.325 0.148 0.305 0.098-0.65-0.020-0.551 0.010-1.29 0.079-1.694 0.138-0.857 0.256-0.896 0.926-0.305 0.246 0.217 0.453 0.364 0.453 0.325 0-0.207-0.67-1.073-1.044-1.339-0.63-0.453-0.571-0.571 0.285-0.571 0.384 0 0.866 0.039 1.054 0.098l0.345 0.089-0.394-0.345c-0.217-0.187-0.591-0.414-0.837-0.502l-0.443-0.157-0.226-0.945c-0.266-1.103-0.266-1.211-0.059-1.802 0.138-0.423 0.138-0.463-0.049-0.778-0.256-0.414-0.256-0.65-0.020-1.004 0.098-0.158 0.157-0.364 0.138-0.473-0.039-0.128 0.020-0.217 0.177-0.286 0.473-0.217 2.993-1.172 3.102-1.172 0.069-0.010 0.295 0.177 0.522 0.404zM17.796 13.499c0.443 0.128 0.67 0.276 1.073 0.679 0.276 0.286 0.591 0.689 0.709 0.916l0.197 0.394-0.217-0.049c-0.118-0.030-0.433-0.167-0.709-0.305-0.404-0.207-0.67-0.266-1.477-0.315l-0.985-0.049-0.029-0.63c-0.020-0.443 0.010-0.66 0.098-0.709 0.207-0.128 0.738-0.098 1.339 0.069zM4.72 14.631c0.837 0.118 1.575 0.266 1.635 0.325s0.207 0.64 0.325 1.28c0.177 1.034 0.187 1.201 0.059 1.339-0.305 0.335-1.329 2.836-1.329 3.24 0 0.079 0.187-0.158 0.423-0.532 0.226-0.384 0.502-0.699 0.601-0.719 0.167-0.039 0.177 0.010 0.128 0.404-0.108 0.738 0.148 1.861 0.512 2.324 0.177 0.226 0.335 0.404 0.345 0.404s0.010-0.138-0.020-0.295c-0.049-0.335 0.157-0.404 0.384-0.138 0.069 0.089 0.364 0.295 0.65 0.453 0.61 0.345 0.67 0.532 0.601 1.753l-0.049 0.768 0.295-0.354c0.158-0.197 0.345-0.443 0.414-0.551 0.098-0.138 0.197-0.167 0.394-0.118 0.286 0.069 1.231 0.906 1.231 1.083 0 0.059-0.089 0.276-0.187 0.463-0.158 0.286-0.187 0.483-0.138 0.896 0.049 0.482 0.030 0.561-0.207 0.798-0.138 0.138-0.256 0.305-0.256 0.364 0 0.049-0.079 0.098-0.167 0.098-0.305 0-2.196-0.542-2.196-0.62 0-0.049-0.069-0.236-0.158-0.423s-0.138-0.473-0.118-0.64c0.049-0.295 0-0.345-1.241-1.27-0.709-0.522-1.546-1.123-1.861-1.329-0.62-0.414-0.994-0.926-0.935-1.27 0.039-0.177 0.010-0.217-0.158-0.187-0.118 0.029-0.335-0.010-0.492-0.069l-0.286-0.108 0.069-0.709c0.148-1.654 0.158-2.275 0.059-3.84-0.069-1.103-0.158-1.733-0.246-1.871-0.187-0.295-0.020-1.152 0.226-1.152 0.089 0 0.857 0.098 1.694 0.207zM18.19 15.065c0.62 0.187 1.723 0.857 1.93 1.182 0.305 0.453 0.167 0.66-0.266 0.423-0.138-0.069-0.049 0.069 0.207 0.355 0.433 0.473 0.758 1.083 0.827 1.536 0.020 0.207-0.010 0.256-0.256 0.276-0.167 0.020-0.67-0.089-1.122-0.236-0.719-0.227-1.3-0.561-2.156-1.251-0.069-0.049-0.128-0.069-0.128-0.039 0 0.039 0.335 0.345 0.738 0.699 0.64 0.542 0.837 0.65 1.408 0.788 0.512 0.118 1.999 0.354 2.245 0.354 0.020 0 0.039 0.059 0.039 0.128 0 0.177-2.629 0.315-3.171 0.167-0.985-0.276-1.999-0.896-2.363-1.457-0.118-0.177-0.177-0.453-0.177-0.807 0-0.601 0.108-0.847 0.325-0.758 0.118 0.039 0.128-0.029 0.089-0.374-0.020-0.236-0.010-0.591 0.020-0.778l0.069-0.354h0.62c0.335 0 0.847 0.069 1.122 0.148zM16.26 18.462c0.512 0.729 2.59 2.068 3.23 2.068 0.148 0 0.345 0.089 0.443 0.207 0.157 0.167 0.167 0.246 0.069 0.512-0.108 0.295-0.098 0.305 0.039 0.118 0.079-0.108 0.177-0.315 0.207-0.473 0.039-0.197 0.108-0.266 0.285-0.266 0.286 0 0.305 0.226 0.089 0.768-0.226 0.522-0.532 0.807-0.857 0.807-0.217 0-0.325 0.069-0.453 0.305-0.305 0.561-0.748 1.004-1.251 1.241-0.483 0.217-0.483 0.226-0.118 0.167 0.423-0.069 0.433-0.039 0.177 0.66-0.61 1.595-1.841 2.393-3.85 2.511-0.798 0.049-0.857 0.039-1.339-0.246-0.374-0.217-0.591-0.433-0.807-0.817-0.305-0.542-1.467-1.713-2.166-2.166-0.226-0.148-0.492-0.443-0.611-0.66-0.158-0.315-0.266-0.404-0.542-0.463-0.394-0.069-0.699-0.414-1.024-1.123-0.325-0.719-0.286-0.935 0.266-1.28 0.67-0.423 1.26-0.571 2.718-0.689 1.379-0.108 2.206-0.276 2.787-0.571 0.207-0.108 0.502-0.217 0.66-0.256 0.266-0.069 0.276-0.059 0.158 0.108-0.069 0.098-0.246 0.276-0.384 0.394l-0.246 0.217 0.374-0.089c0.492-0.108 1.113-0.551 1.418-1.004 0.128-0.207 0.295-0.374 0.355-0.374 0.059 0.010 0.226 0.187 0.374 0.394zM11.947 26.102c0.158 0.256 0.512 0.601 0.817 0.807 0.591 0.394 0.571 0.453-0.236 0.561-0.896 0.118-0.61 0.266 0.364 0.187 0.63-0.049 0.886-0.030 0.886 0.049 0 0.059-0.049 0.108-0.108 0.108-0.217 0-1.733 0.788-1.969 1.024-0.374 0.364-0.679 0.256-0.679-0.246 0-0.207-0.049-0.483-0.108-0.62-0.098-0.207-0.079-0.295 0.118-0.571 0.158-0.217 0.236-0.473 0.246-0.768 0.010-0.453 0.177-0.985 0.305-0.985 0.049 0 0.207 0.207 0.364 0.453zM18.111 26.565c0.177 0.453 0.197 0.591 0.098 0.709-0.079 0.098-0.098 0.295-0.059 0.571 0.059 0.384 0.039 0.443-0.187 0.561-0.217 0.118-0.295 0.108-0.67-0.069-0.226-0.108-0.709-0.305-1.073-0.423-0.679-0.217-0.866-0.394-0.433-0.394 0.128 0 0.601 0.108 1.053 0.236 0.453 0.138 0.847 0.226 0.867 0.207 0.197-0.197-0.729-0.64-1.339-0.64-0.335 0-0.276-0.167 0.118-0.295 0.197-0.069 0.542-0.335 0.807-0.64 0.256-0.286 0.502-0.492 0.532-0.453 0.030 0.029 0.158 0.315 0.286 0.63zM15.787 28.16c0.305 0.138 0.551 0.266 0.551 0.286s-0.315 0.295-0.689 0.601l-0.699 0.571-0.857-0.404c-0.473-0.226-0.985-0.433-1.142-0.473-0.236-0.059-0.256-0.079-0.118-0.158 0.374-0.207 1.329-0.512 1.831-0.571 0.295-0.039 0.551-0.079 0.551-0.089 0.010 0 0.266 0.098 0.571 0.236z"></path>
<path d="M13.621 20.303l-0.295 0.364-1.034-0.118c-1.477-0.167-1.792-0.158-2.018 0.089l-0.187 0.217 0.345-0.059c0.581-0.089 2.58 0.207 2.796 0.414 0.256 0.256 0.345 1.418 0.128 1.664-0.148 0.158-0.128 0.197 0.286 0.532 0.246 0.197 0.502 0.345 0.581 0.315 0.158-0.059 0.965-1.123 0.857-1.123-0.039 0-0.256 0.177-0.463 0.394s-0.433 0.394-0.502 0.394c-0.256 0-0.384-0.335-0.384-0.975 0-0.433-0.059-0.768-0.177-1.014-0.187-0.364-0.187-0.364 0.059-0.689 0.217-0.285 0.433-0.768 0.345-0.768-0.020 0-0.167 0.167-0.335 0.364z"></path>
<path d="M14.212 20.362c0.049 0.404 0.276 0.66 0.729 0.847 0.148 0.059 0.325 0.236 0.394 0.394 0.089 0.207 0.226 0.305 0.591 0.394 0.906 0.236 1.073 0.246 1.26 0.020 0.098-0.118 0.236-0.207 0.295-0.207 0.069 0 0.148-0.069 0.177-0.158 0.059-0.138 0.030-0.138-0.207 0.020-0.404 0.266-1.664 0.266-1.861 0-0.227-0.305-0.167-0.374 0.266-0.315 0.374 0.049 1.408-0.158 1.585-0.325 0.039-0.030-0.295-0.039-0.738-0.030-0.443 0.020-1.113-0.010-1.477-0.079-0.66-0.118-0.679-0.128-0.866-0.532l-0.187-0.404 0.039 0.374z"></path>
<path fill="#2e2e2e" d="M10.11 21.502c0.439-0.342 1.012-0.158 1.505-0.086 0.385-0.070 0.771-0.143 1.168-0.099 0.055 0.033 0.166 0.098 0.222 0.131-0.263 0.027-0.525 0.068-0.788 0.096-0.287 0.13-0.555 0.33-0.891 0.278-0.123-0.077-0.243-0.158-0.353-0.25-0.282-0.077-0.574-0.045-0.862-0.070z"></path>
<path fill="#2e2e2e" d="M14.73 23.879c0.331 0.010 0.672 0.002 0.953-0.196 0.029 0.106 0.078 0.203 0.146 0.289-0.092 0.020-0.183 0.040-0.274 0.061-0.515-0.199-0.969 0.259-1.472 0.287-0.168-0.017-0.296-0.126-0.413-0.237-0.2-0.009-0.411-0.032-0.592 0.074-0.273 0.146-0.583 0.125-0.881 0.112 0.098-0.098 0.197-0.196 0.296-0.293 0.168-0.002 0.337-0.005 0.506-0.010 0.061-0.065 0.123-0.13 0.185-0.194 0.302-0.039 0.607 0.060 0.8 0.301 0.275 0.051 0.497-0.119 0.745-0.194z"></path>
<path fill="#2e2e2e" d="M13.901 24.672c0.224-0.006 0.443-0.053 0.661-0.103 0.299 0.032 0.587 0.175 0.811 0.376-0.194-0.040-0.388-0.077-0.585-0.096-0.512-0.227-0.992 0.176-1.451 0.358-0.141 0.261-0.262 0.538-0.265 0.841-0.062-0.068-0.124-0.134-0.186-0.2-0.017-0.34 0.040-0.739 0.353-0.937 0.212-0.101 0.441-0.161 0.663-0.237z"></path>
</svg>
