<!-- Generated by IcoMoon.io -->
<svg version="1.1" xmlns="http://www.w3.org/2000/svg" width="32" height="32" viewBox="0 0 32 32">
<title>compass</title>
<path d="M21.984 1.048c-5.184 0.843-10.643 2.382-13.978 3.939-3.737 1.74-6.284 4.745-7.529 8.885-0.403 1.392-0.476 1.997-0.476 3.847-0.018 4.323 1.484 7.712 4.672 10.625 2.62 2.381 5.826 3.609 9.471 3.609 5.551 0 10.424-2.986 12.732-7.804 2.070-4.323 4.012-12.274 4.745-19.346 0.385-3.833 0.481-4.596 0.273-4.73-0.069-0.045-0.172-0.020-0.31-0.015-0.275 0-8.39 0.714-9.599 0.989zM14.399 9.786c0.055 0.238 0.201 1.649 0.33 3.169 0.11 1.502 0.238 2.785 0.256 2.821 0.037 0.037 0.568-0.403 1.191-0.971 1.484-1.392 3.041-2.546 3.279-2.455 0.275 0.092-0.678 1.447-2.235 3.169l-1.319 1.466 2.29 0.11c5.514 0.275 5.826 0.916 0.623 1.301l-2.803 0.201 1.374 1.576c1.539 1.74 2.363 2.894 2.198 3.059-0.147 0.147-1.466-0.788-3.151-2.272l-1.466-1.282-0.22 2.785c-0.22 2.858-0.495 4.103-0.788 3.591-0.201-0.385-0.55-3.536-0.55-5.13 0-0.696-0.073-1.282-0.146-1.282s-0.44 0.293-0.788 0.66c-1.319 1.374-3.829 3.242-3.829 2.858 0-0.311 1.008-1.667 2.308-3.096l1.319-1.447-2.785-0.22c-3.023-0.257-3.774-0.366-3.774-0.586 0-0.348 2.565-0.715 4.91-0.733 0.824 0 1.502-0.055 1.502-0.147 0-0.073-0.586-0.788-1.282-1.594-3.169-3.609-2.73-4.012 0.879-0.824 0.806 0.696 1.521 1.282 1.576 1.282s0.11-0.604 0.11-1.337c0-1.374 0.275-4.122 0.458-4.726 0.146-0.476 0.385-0.44 0.531 0.055z"></path>
</svg>
