<!-- Generated by IcoMoon.io -->
<svg version="1.1" xmlns="http://www.w3.org/2000/svg" width="27" height="32" viewBox="0 0 27 32">
<title>composer</title>
<path d="M15.544 0.247c-0.069 0.137-0.194 0.294-0.281 0.35-0.181 0.119-0.256 0.425-0.156 0.681 0.037 0.106 0.481 0.606 0.987 1.118s0.868 0.912 0.812 0.893c-0.062-0.025-0.325-0.181-0.587-0.362-0.706-0.475-1.1-0.637-1.437-0.6-0.356 0.038-0.544 0.2-0.494 0.412 0.056 0.225 0.187 0.369 0.812 0.893 0.812 0.687 1.887 1.787 1.774 1.824-0.050 0.019-0.287 0.062-0.531 0.1-0.637 0.1-1.318 0.281-1.5 0.406-0.087 0.056-0.181 0.175-0.219 0.269-0.056 0.144-0.044 0.187 0.094 0.3 0.081 0.075 0.275 0.181 0.425 0.237 1.325 0.481 1.681 0.625 1.924 0.8 0.744 0.525 1.056 0.712 1.625 0.962 0.525 0.225 0.681 0.331 1.025 0.675 0.4 0.406 0.525 0.656 0.625 1.206l0.031 0.2-0.825 0.262c-0.456 0.137-0.843 0.275-0.868 0.3-0.044 0.037 0.975 1.912 1.256 2.306 0.119 0.169 0.181 0.2 0.387 0.2 0.131 0 0.244 0.019 0.244 0.044 0 0.031-0.094 0.212-0.212 0.419l-0.206 0.362 0.181 0.337c0.137 0.25 0.175 0.4 0.162 0.6l-0.019 0.269-0.2-0.375c-0.487-0.931-1.312-1.881-1.962-2.268-0.412-0.237-0.85-0.325-1.681-0.325h-0.6l-0.475-0.425c-0.506-0.45-1.025-0.787-1.412-0.925-0.15-0.050-0.712-0.1-1.425-0.125l-1.181-0.037-0.719 0.387c-1.006 0.544-1.431 0.856-2.187 1.624-0.487 0.487-0.8 0.887-1.212 1.518-0.306 0.469-0.581 0.856-0.606 0.856-0.062 0-0.144-0.725-0.087-0.806 0.019-0.037 0.106-0.069 0.187-0.069 0.181 0 0.331-0.144 0.387-0.362 0.019-0.094 0.131-0.519 0.244-0.95 0.156-0.606 0.187-0.8 0.125-0.856-0.037-0.044-0.387-0.169-0.769-0.275-0.987-0.275-0.956-0.237-0.787-0.893 0.075-0.287 0.25-0.737 0.387-0.993 0.231-0.412 0.3-0.487 0.669-0.7 0.544-0.319 0.731-0.556 1.306-1.643 0.606-1.143 0.937-1.631 1.618-2.387 0.294-0.325 0.537-0.631 0.537-0.669 0-0.119-0.437-0.581-0.544-0.581-0.281 0 0.050-0.25 1.887-1.462 0.581-0.381 1.068-0.731 1.081-0.775 0.037-0.131-0.225-0.081-0.631 0.119-0.212 0.112-1.187 0.694-2.168 1.3-0.981 0.612-1.887 1.175-2.018 1.25-0.137 0.081-0.262 0.125-0.294 0.094s-0.144-0.319-0.25-0.637l-0.206-0.581 0.694-0.669c0.7-0.681 0.85-0.925 0.7-1.106-0.119-0.144-0.237-0.119-0.8 0.156-0.725 0.35-1.849 0.787-2.349 0.912-0.412 0.106-0.425 0.1-0.6-0.031-0.412-0.306-0.656-0.119-1.537 1.181-0.3 0.45-0.575 0.806-0.612 0.793s-0.312-0.425-0.606-0.918c-0.544-0.906-0.781-1.187-0.993-1.187-0.456 0-0.294 0.975 0.669 4.111l0.35 1.137-0.137 0.15c-0.1 0.106-0.125 0.187-0.1 0.306 0.044 0.169 0.181 0.319 0.306 0.331 0.038 0 0.1 0.012 0.144 0.012 0.075 0.012 0.469 0.806 0.544 1.093 0.038 0.162-0.169 1.15-0.262 1.243-0.025 0.019-0.237-0.012-0.481-0.081-0.587-0.156-0.756-0.15-0.85 0.019-0.081 0.15-0.319 2.512-0.262 2.649 0.038 0.1 0.4 0.212 0.694 0.212 0.194 0 0.206 0.012 0.175 0.169-0.112 0.6-0.106 0.931 0.025 1.225 0.112 0.256 0.144 0.487 0.187 1.562 0.031 0.694 0.062 2.081 0.062 3.080v1.818l0.369 0.137c0.481 0.175 0.656 0.319 0.75 0.625 0.062 0.212 0.156 0.319 0.556 0.606 3.318 2.443 3.212 2.349 3.155 2.668-0.031 0.187 0 0.262 0.162 0.462 0.106 0.131 0.194 0.262 0.194 0.294 0 0.056-0.556 0.019-1.187-0.087-0.187-0.031-0.837-0.075-1.437-0.1-1.006-0.044-1.087-0.038-1.012 0.056 0.106 0.125 1.743 0.956 1.793 0.906 0.019-0.019-0.162-0.194-0.406-0.394-0.237-0.194-0.437-0.375-0.437-0.387 0-0.119 1.918 0.281 3.499 0.737 1.156 0.331 1.812 0.587 1.712 0.675-0.031 0.031-0.5 0.012-1.056-0.038-1.418-0.131-3.561-0.062-4.655 0.144l-0.219 0.044 0.187 0.050c0.106 0.031 1.012 0.087 2.018 0.119 2.274 0.075 3.174 0.194 5.898 0.787l1.043 0.231-0.144 0.287c-0.187 0.369-0.594 1.618-0.644 1.987l-0.037 0.281 0.244-0.15c3.549-2.243 4.649-2.862 6.067-3.43 1.162-0.462 3.605-1.268 4.549-1.5 0.45-0.106 0.825-0.212 0.843-0.225 0.050-0.050-0.943 0.038-1.175 0.1-0.112 0.038-0.2 0.038-0.2 0.006s0.206-0.212 0.456-0.406c0.244-0.194 0.544-0.419 0.656-0.506s0.194-0.175 0.175-0.194c-0.119-0.119-4.299 1.537-5.386 2.143-0.212 0.112-0.4 0.194-0.425 0.169-0.019-0.019-0.038-0.162-0.038-0.312 0-0.362 0.137-0.487 1.056-0.931 0.694-0.337 3.605-1.649 3.668-1.649s0.012 0.144-0.162 0.444c-0.106 0.175-0.181 0.331-0.169 0.344s0.331-0.275 0.706-0.637l0.681-0.656-0.312 0.031c-0.169 0.019-0.419 0.050-0.544 0.075l-0.237 0.044v-0.275c0-0.362 0.15-0.975 0.369-1.556 0.1-0.256 0.3-1.068 0.437-1.799 0.325-1.656 0.581-2.549 1.093-3.805 0.219-0.544 0.462-1.193 0.537-1.443 0.125-0.419 0.131-0.506 0.069-0.906-0.038-0.25-0.081-0.806-0.094-1.243l-0.019-0.793-0.319-0.394c-0.181-0.219-0.325-0.412-0.325-0.444 0-0.025 0.15-0.112 0.337-0.194 0.269-0.119 0.344-0.187 0.369-0.331 0.050-0.256 0.194-2.449 0.162-2.48-0.012-0.019-0.444 0.094-0.956 0.25-0.506 0.15-0.975 0.275-1.043 0.275-0.187 0-0.312-0.244-0.762-1.5-0.169-0.475-0.194-0.637-0.237-1.531-0.087-1.987-0.412-3.149-1.375-4.886-0.419-0.756-0.881-1.425-1.087-1.556-0.075-0.050-0.237-0.106-0.356-0.131-0.187-0.025-0.237-0.006-0.35 0.137-0.075 0.094-0.137 0.231-0.137 0.306 0 0.069 0.169 0.519 0.369 0.987 0.2 0.475 0.356 0.862 0.337 0.862-0.012 0-0.256-0.181-0.537-0.4-1.187-0.918-2.605-1.718-3.293-1.849-0.55-0.106-0.606-0.087-0.75 0.187zM17.262 0.71c0.831 0.419 1.906 1.112 2.237 1.462 0.131 0.131 0.275 0.356 0.325 0.487 0.069 0.206 0.119 0.25 0.4 0.344 0.175 0.056 0.337 0.081 0.35 0.056 0.044-0.075-0.2-0.818-0.475-1.462-0.425-0.981-0.456-1.287-0.125-1.287 0.225 0 0.35 0.144 0.825 0.937 0.737 1.243 1.293 2.537 1.493 3.499 0.112 0.525 0.156 1.937 0.069 2.274-0.069 0.287-0.062 0.312 0.412 1.518 0.456 1.175 0.475 1.225 0.362 1.312-0.125 0.087-1.456 0.537-1.893 0.631-0.319 0.075-0.325 0.069-0.581-0.644-0.15-0.412-0.269-0.625-0.456-0.819-0.144-0.137-0.306-0.331-0.362-0.419-0.112-0.162-0.281-0.237-1.093-0.481-0.281-0.087-0.744-0.319-1.206-0.6-0.9-0.556-1.050-0.619-1.774-0.775-0.544-0.119-0.787-0.25-0.787-0.412 0-0.237 0.662-0.375 2.093-0.437 0.85-0.037 1.2-0.137 1.437-0.4 0.175-0.194 0.094-0.2-0.319-0.031-0.2 0.081-0.425 0.137-0.494 0.112-0.069-0.019-0.506-0.406-0.968-0.856s-1.031-0.987-1.262-1.187c-0.394-0.337-0.675-0.687-0.675-0.837 0-0.137 0.219-0.131 0.525 0.006 0.175 0.081 0.769 0.431 1.318 0.775 1.225 0.762 1.718 1.043 1.718 0.975 0-0.062-1.050-1.25-2.031-2.299-0.387-0.412-0.731-0.812-0.775-0.887-0.106-0.206-0.081-0.381 0.056-0.425 0.2-0.062 0.612 0.175 1.743 0.993 0.569 0.419 1.137 0.825 1.256 0.906l0.219 0.15-0.187-0.2c-0.225-0.244-1.268-1.062-1.874-1.475-0.7-0.469-0.9-0.706-0.731-0.868 0.1-0.106 0.562 0.031 1.231 0.362zM8.534 2.378c0.025 0.212-0.131 0.394-0.881 1.043-0.569 0.481-0.619 0.544-0.481 0.562 0.231 0.037 0.294 0.106 0.437 0.544 0.175 0.531 0.15 0.85-0.075 0.931-0.137 0.050-0.212 0.031-0.387-0.094-0.319-0.225-0.6-0.606-0.6-0.812 0-0.1 0.056-0.231 0.137-0.306 0.175-0.162 0.112-0.156-0.212 0.006l-0.262 0.137-0.206-0.244c-0.262-0.319-0.356-0.494-0.312-0.606 0.044-0.119 2.537-1.35 2.699-1.337 0.081 0.006 0.131 0.062 0.144 0.175zM5.222 3.446c0.094 0.106 0.394 0.444 0.669 0.75 1.206 1.337 1.337 1.55 1.018 1.649-0.394 0.125-0.825-0.044-1.45-0.562-0.237-0.194-0.456-0.331-0.481-0.306s-0.069 0.175-0.094 0.331l-0.044 0.281 0.131-0.156c0.119-0.15 0.131-0.15 0.331-0.056 0.306 0.15 0.868 0.606 0.868 0.712 0 0.125-1.787 1.237-2.868 1.781-0.319 0.156-0.412 0.181-0.45 0.112-0.231-0.356-0.862-2.256-1.156-3.455-0.181-0.75-0.194-1.093-0.050-1.093 0.187 0 0.487 0.425 1.068 1.512 0.544 1.006 0.581 1.062 0.581 0.831 0.006-0.312 0.131-0.587 0.644-1.406 0.487-0.781 0.787-1.125 0.981-1.125 0.075 0 0.206 0.087 0.3 0.2zM10.158 4.759c0.094 0.094 0.094 0.331 0 0.506-0.037 0.075-0.206 0.294-0.381 0.481-0.425 0.469-1.131 1.475-1.543 2.206-0.387 0.687-0.756 1.106-1.287 1.462-0.331 0.219-0.381 0.275-0.494 0.612-0.069 0.206-0.187 0.487-0.256 0.625-0.075 0.137-0.181 0.419-0.244 0.625-0.056 0.206-0.15 0.456-0.2 0.55-0.087 0.169-0.106 0.181-0.369 0.137-0.25-0.037-1.231-0.262-1.799-0.412l-0.237-0.062 0.038-0.319c0.025-0.175 0.1-0.462 0.169-0.637 0.062-0.175 0.119-0.375 0.119-0.437 0-0.069-0.119-0.369-0.256-0.675-0.375-0.819-0.369-0.887 0.162-1.25 0.687-0.481 2.368-1.487 3.099-1.862 0.369-0.187 0.943-0.512 1.287-0.719 0.725-0.437 1.737-0.906 1.962-0.906 0.087 0 0.187 0.031 0.231 0.075zM25.335 10.544c-0.019 0.444-0.069 0.875-0.1 0.962-0.050 0.131-0.194 0.206-0.85 0.45-0.706 0.256-3.886 1.35-3.942 1.35-0.119 0-1.056-1.712-0.993-1.812 0.087-0.144 5.342-1.737 5.773-1.743l0.15-0.006-0.038 0.8zM3.979 11.869c0.95 0.237 2.106 0.537 2.568 0.669 0.806 0.231 0.843 0.244 0.862 0.412 0.025 0.225-0.212 1.175-0.325 1.287-0.075 0.069-0.2 0.075-0.8 0.012-1.012-0.106-4.23-0.569-4.405-0.637-0.15-0.056-0.15-0.069-0.112-0.575 0.050-0.65 0.156-1.493 0.194-1.556 0.062-0.094 0.306-0.050 2.018 0.387zM13.67 11.569c0.793 0.237 1.824 0.968 2.087 1.481 0.287 0.556 0.369 1.643 0.156 2.112-0.087 0.2-0.119 0.35-0.087 0.512 0.019 0.125-0.006 0.381-0.062 0.594-0.181 0.7-0.768 1.375-1.693 1.949-0.918 0.575-1.531 0.731-3.68 0.956-1.406 0.15-2.224 0.287-2.462 0.412-0.087 0.044-0.287 0.212-0.444 0.369-0.15 0.156-0.312 0.287-0.35 0.287-0.212 0-0.137-0.475 0.125-0.881 0.237-0.356 0.744-0.562 2.362-0.956 1.824-0.45 2.505-0.669 3.249-1.050 0.606-0.306 1.112-0.744 1.112-0.962 0-0.081-0.062-0.062-0.325 0.094-0.937 0.556-1.749 0.831-3.080 1.037-2.437 0.375-2.843 0.475-3.636 0.912-0.456 0.25-0.706 0.306-0.706 0.162 0-0.125 0.512-0.993 0.868-1.475 0.444-0.594 1.443-1.543 2.081-1.968 0.625-0.412 1.306-0.737 1.837-0.875 1.018-0.262 2.612-0.281 3.343-0.037 0.475 0.162 0.544 0.125 0.125-0.056-0.656-0.281-1.056-0.35-1.943-0.344-1.012 0.006-1.737 0.175-2.655 0.612-0.731 0.344-1.125 0.606-1.693 1.112-0.469 0.425-0.881 0.712-0.943 0.656-0.069-0.075 0.050-0.35 0.425-0.95 1.337-2.137 2.537-3.205 4.067-3.599 0.931-0.244 1.381-0.269 1.924-0.106zM24.747 12.487c0.375 0.362 0.387 0.381 0.437 0.8 0.075 0.606 0.075 1.012-0.006 1.093-0.056 0.056-0.175 0.056-0.462 0.006-0.219-0.037-0.4-0.056-0.412-0.050-0.012 0.012 0.181 0.137 0.425 0.281 0.287 0.169 0.469 0.319 0.506 0.425 0.15 0.375-0.050 1.081-0.719 2.562-0.162 0.356-0.331 0.806-0.375 1.006s-0.125 0.431-0.181 0.512c-0.137 0.206-0.256 0.719-0.475 2.006-0.137 0.794-0.256 1.275-0.419 1.687-0.212 0.544-0.344 1.1-0.437 1.824-0.025 0.231-0.081 0.356-0.219 0.475-0.287 0.275-3.399 1.625-3.73 1.625-0.162 0-0.337-0.281-0.537-0.887-0.244-0.719-0.219-1.037 0.125-1.912 0.181-0.456 0.369-0.812 0.494-0.95 0.106-0.119 0.262-0.312 0.337-0.425 0.075-0.106 0.175-0.2 0.219-0.2 0.087 0 0.187 0.306 0.256 0.75 0.062 0.419 0.287 1.243 0.35 1.287 0.031 0.019 0.056-0.144 0.056-0.362 0-0.675 0.112-1.487 0.225-1.662 0.094-0.144 0.112-0.15 0.181-0.056 0.044 0.062 0.094 0.256 0.112 0.437 0.050 0.381 0.219 0.981 0.281 0.981 0.025 0 0.044-0.512 0.044-1.143 0.006-1.168 0.087-1.774 0.256-1.949 0.081-0.081 0.119-0.081 0.269 0 0.1 0.050 0.331 0.219 0.512 0.375 0.75 0.637 0.212-0.262-0.594-1-0.406-0.369-0.487-0.481-0.425-0.544 0.1-0.1 1.318-0.087 1.699 0.012 0.144 0.038 0.275 0.062 0.287 0.050 0.044-0.050-0.656-0.562-0.975-0.712-0.187-0.087-0.412-0.194-0.494-0.231-0.131-0.062-0.175-0.187-0.325-0.825-0.275-1.15-0.281-1.275-0.119-1.874l0.144-0.525-0.169-0.312c-0.2-0.381-0.206-0.675-0.031-1.025 0.075-0.137 0.137-0.344 0.144-0.444 0.006-0.137 0.062-0.219 0.206-0.3 0.225-0.131 2.949-1.175 3.068-1.175 0.050 0 0.262 0.169 0.469 0.369zM17.294 13.062c0.637 0.1 1.025 0.312 1.525 0.825 0.244 0.256 0.537 0.637 0.656 0.856l0.212 0.394-0.181-0.044c-0.1-0.025-0.381-0.144-0.631-0.256-0.55-0.256-0.893-0.325-1.843-0.381l-0.737-0.037v-0.656c0-0.612 0.006-0.65 0.144-0.706 0.187-0.075 0.375-0.075 0.856 0.006zM4.46 14.274c1.425 0.194 1.768 0.275 1.843 0.419 0.081 0.15 0.337 1.393 0.4 1.912 0.044 0.394 0.044 0.4-0.3 1.062-0.525 1.025-1.181 2.762-1.043 2.762 0.037 0 0.219-0.237 0.412-0.531 0.556-0.85 0.756-0.912 0.687-0.219-0.069 0.781 0.194 1.806 0.6 2.343 0.231 0.312 0.331 0.356 0.275 0.119-0.087-0.331 0.1-0.519 0.281-0.294 0.050 0.056 0.319 0.25 0.6 0.437 0.737 0.475 0.737 0.481 0.725 1.599-0.012 0.525 0.006 0.912 0.037 0.893s0.206-0.231 0.387-0.475c0.287-0.369 0.362-0.437 0.525-0.437 0.219 0 0.937 0.512 1.2 0.85l0.162 0.212-0.181 0.394c-0.156 0.344-0.175 0.444-0.162 0.95l0.012 0.562-0.25 0.306c-0.137 0.162-0.25 0.325-0.25 0.356 0 0.106-0.356 0.056-1.137-0.156-1.206-0.331-1.187-0.319-1.35-0.825-0.075-0.237-0.137-0.519-0.137-0.631 0-0.106-0.019-0.237-0.037-0.294-0.044-0.112-1.318-1.087-2.524-1.937-1.162-0.819-1.381-1.056-1.437-1.537-0.031-0.275-0.038-0.281-0.275-0.294-0.131-0.006-0.337-0.044-0.462-0.087l-0.219-0.069 0.044-0.419c0.156-1.662 0.175-2.455 0.106-3.724-0.044-0.719-0.119-1.537-0.175-1.812-0.244-1.256-0.162-1.681 0.312-1.618 0.106 0.012 0.712 0.094 1.331 0.181zM17.587 14.618c0.381 0.050 0.625 0.137 1.112 0.375 0.993 0.494 1.468 0.912 1.468 1.293 0 0.162-0.044 0.169-0.275 0.081-0.087-0.031-0.162-0.044-0.162-0.025s0.144 0.206 0.312 0.419c0.375 0.456 0.681 1.056 0.731 1.406 0.031 0.237 0.025 0.256-0.144 0.3-0.256 0.062-1.25-0.194-1.849-0.487-0.287-0.137-0.75-0.419-1.037-0.625s-0.531-0.362-0.55-0.344c-0.031 0.031 0.918 0.856 1.25 1.081 0.125 0.087 0.344 0.194 0.481 0.244 0.287 0.106 1.281 0.3 2.074 0.406 0.575 0.081 0.725 0.2 0.344 0.275-0.456 0.094-1.862 0.175-2.381 0.137-0.9-0.062-1.987-0.556-2.643-1.2-0.375-0.381-0.5-0.744-0.444-1.35 0.037-0.4 0.119-0.55 0.3-0.55 0.106 0 0.119-0.056 0.119-0.612 0-0.887 0-0.887 0.437-0.887 0.2 0 0.587 0.031 0.856 0.062zM16.35 18.292c0.843 0.862 2.218 1.718 3.018 1.881 0.55 0.119 0.687 0.35 0.512 0.85l-0.044 0.125 0.1-0.125c0.056-0.069 0.15-0.262 0.206-0.425 0.094-0.281 0.112-0.3 0.294-0.281 0.169 0.012 0.206 0.050 0.219 0.194 0.025 0.225-0.256 0.831-0.5 1.087-0.106 0.112-0.281 0.219-0.387 0.237-0.381 0.075-0.419 0.106-0.669 0.506-0.3 0.469-0.706 0.843-1.181 1.087l-0.344 0.175 0.306-0.031 0.306-0.038-0.031 0.256c-0.025 0.144-0.156 0.506-0.3 0.806-0.206 0.431-0.362 0.644-0.712 0.987-0.75 0.737-1.637 1.075-3.012 1.137-0.712 0.031-0.781 0.025-1.062-0.106-0.406-0.2-0.712-0.487-1.112-1.056-0.362-0.512-1.393-1.55-2.024-2.024-0.212-0.162-0.469-0.412-0.562-0.55-0.269-0.406-0.419-0.544-0.681-0.612-0.319-0.087-0.644-0.431-0.918-0.987-0.312-0.625-0.344-0.881-0.137-1.125 0.2-0.237 0.887-0.6 1.381-0.731 0.206-0.056 0.937-0.156 1.624-0.225 1.45-0.15 2.043-0.262 2.562-0.481 0.656-0.269 1.043-0.4 1.118-0.375 0.037 0.019-0.094 0.187-0.287 0.381-0.319 0.306-0.344 0.35-0.187 0.312 0.725-0.181 1.062-0.419 1.743-1.231 0.081-0.094 0.162-0.169 0.187-0.169 0.019 0 0.281 0.244 0.575 0.55zM11.858 25.733c0.2 0.275 0.494 0.569 0.787 0.787 0.562 0.425 0.55 0.481-0.162 0.594-0.275 0.044-0.519 0.1-0.537 0.131s0.362 0.056 0.85 0.056c0.656 0 0.881 0.019 0.862 0.075-0.019 0.044-0.1 0.094-0.181 0.119-0.269 0.069-1.531 0.737-1.824 0.962-0.369 0.281-0.569 0.287-0.662 0.025-0.037-0.112-0.069-0.281-0.069-0.375 0-0.1-0.031-0.306-0.075-0.456-0.069-0.262-0.062-0.3 0.125-0.675 0.119-0.244 0.206-0.537 0.231-0.768 0.044-0.412 0.2-0.906 0.287-0.906 0.031 0 0.194 0.194 0.369 0.431zM17.981 26.127c0.144 0.362 0.187 0.556 0.15 0.669-0.025 0.087-0.050 0.356-0.056 0.6-0.019 0.587-0.012 0.562-0.187 0.644-0.225 0.106-0.35 0.094-0.694-0.062-0.169-0.075-0.612-0.25-0.987-0.394-0.375-0.137-0.694-0.287-0.712-0.331-0.044-0.131 0.344-0.087 1.218 0.144 0.462 0.125 0.862 0.206 0.9 0.187 0.181-0.112-0.512-0.5-1.006-0.562-0.65-0.087-0.687-0.144-0.212-0.344 0.15-0.069 0.487-0.331 0.756-0.587 0.269-0.262 0.519-0.475 0.562-0.475 0.038 0 0.162 0.231 0.269 0.512zM16.125 28.020c0.1 0.069 0.081 0.106-0.25 0.4-0.2 0.181-0.512 0.437-0.687 0.581l-0.331 0.25-0.912-0.412c-0.506-0.231-1-0.437-1.093-0.456-0.1-0.019-0.181-0.056-0.181-0.081 0-0.125 1.231-0.531 1.981-0.65 0.481-0.075 0.494-0.075 0.925 0.106 0.244 0.1 0.487 0.219 0.55 0.262zM17.187 28.407c0.162 0.056 0.287 0.131 0.275 0.169-0.012 0.031-0.344 0.25-0.737 0.481-0.394 0.237-0.937 0.587-1.206 0.787-0.606 0.444-0.612 0.444-0.531 0.219 0.081-0.237 1.624-1.762 1.781-1.762 0.062 0 0.25 0.050 0.419 0.106zM13.538 19.96c-0.15 0.187-0.319 0.337-0.369 0.337-0.050 0.006-0.444-0.038-0.875-0.087-0.956-0.112-1.868-0.119-1.999-0.012-0.306 0.244-0.275 0.262 0.487 0.269 1.162 0.012 2.256 0.237 2.431 0.506 0.169 0.25 0.2 1.331 0.050 1.562l-0.112 0.169 0.269 0.237c0.15 0.125 0.369 0.281 0.481 0.344 0.2 0.106 0.206 0.106 0.369-0.044 0.219-0.206 0.712-0.868 0.712-0.956 0-0.038-0.131 0.056-0.294 0.212-0.481 0.456-0.644 0.562-0.768 0.494-0.162-0.087-0.237-0.35-0.269-0.968-0.025-0.356-0.081-0.694-0.162-0.906-0.169-0.444-0.169-0.462 0.075-0.837 0.444-0.687 0.425-0.887-0.025-0.319zM14.107 19.885c-0.006 0.381 0.244 0.725 0.694 0.956 0.125 0.069 0.325 0.244 0.444 0.4 0.187 0.25 0.262 0.3 0.675 0.419 0.575 0.169 1.012 0.181 1.131 0.044 0.050-0.056 0.194-0.169 0.319-0.25 0.319-0.2 0.306-0.306-0.012-0.144-0.312 0.162-0.893 0.237-1.362 0.175-0.269-0.038-0.387-0.087-0.5-0.212-0.075-0.094-0.125-0.187-0.106-0.212 0.012-0.031 0.3-0.069 0.637-0.087s0.768-0.081 0.956-0.144l0.344-0.112-0.906-0.044c-0.95-0.044-1.312-0.081-1.706-0.2-0.2-0.056-0.269-0.119-0.419-0.412-0.156-0.306-0.181-0.325-0.187-0.175zM10.371 21.003c-0.35 0.075-0.275 0.175 0.131 0.175 0.25 0 0.387 0.038 0.569 0.162l0.237 0.162 0.387-0.137c0.206-0.075 0.562-0.169 0.787-0.212 0.519-0.1 0.394-0.194-0.212-0.156-0.537 0.025-1.306 0.019-1.493-0.025-0.075-0.012-0.256 0-0.406 0.031zM15.413 23.428c-0.056 0.031-0.294 0.087-0.531 0.119s-0.55 0.094-0.694 0.137c-0.25 0.075-0.275 0.069-0.419-0.062-0.2-0.187-0.662-0.25-0.781-0.106-0.056 0.062-0.181 0.1-0.35 0.1-0.237 0-0.469 0.131-0.469 0.269 0 0.075 0.462 0.044 0.719-0.050 0.325-0.119 0.662-0.119 0.819 0 0.175 0.131 0.456 0.112 0.937-0.069 0.306-0.112 0.494-0.15 0.662-0.125 0.312 0.050 0.444-0.006 0.356-0.156-0.069-0.131-0.106-0.144-0.25-0.056zM14.076 24.284c-0.394 0.050-0.968 0.281-1.087 0.431-0.162 0.206-0.231 0.656-0.131 0.837 0.069 0.131 0.087 0.119 0.212-0.256l0.131-0.4 0.487-0.244 0.494-0.25 0.475 0.069c0.262 0.038 0.494 0.062 0.5 0.050 0.012-0.012-0.087-0.081-0.231-0.15-0.237-0.125-0.425-0.144-0.85-0.087z"></path>
</svg>
