<!-- Generated by IcoMoon.io -->
<svg version="1.1" xmlns="http://www.w3.org/2000/svg" width="32" height="32" viewBox="0 0 32 32">
<title>confluence</title>
<path d="M0.144 25.762c-0.281 0.475-0.131 1.094 0.344 1.387l6.619 4.075c0.481 0.294 1.106 0.15 1.4-0.331 0-0.006 0.006-0.012 0.006-0.012 4.194-7.012 5.031-5.994 17.556-0.044 0.506 0.244 1.113 0.025 1.356-0.481 0.006-0.006 0.006-0.019 0.012-0.025l3.15-7.131c0.225-0.506-0.006-1.1-0.506-1.331-1.387-0.65-4.137-1.95-6.619-3.144-15.494-7.537-20.675 2.856-23.319 7.038zM31.856 6.256c0.281-0.475 0.131-1.094-0.344-1.388l-6.613-4.069c-0.469-0.313-1.1-0.194-1.413 0.275-0.012 0.019-0.025 0.038-0.038 0.063-4.206 7.037-5.069 5.975-17.538 0.056-0.506-0.244-1.112-0.025-1.356 0.481-0.006 0.006-0.006 0.019-0.013 0.025l-3.156 7.131c-0.225 0.506 0.006 1.1 0.506 1.331 1.387 0.65 4.144 1.95 6.625 3.15 15.5 7.5 20.675-2.838 23.337-7.056z"></path>
</svg>
