<!-- Generated by IcoMoon.io -->
<svg version="1.1" xmlns="http://www.w3.org/2000/svg" width="32" height="32" viewBox="0 0 32 32">
<title>contao</title>
<path d="M2.837 19.063c0.9 4.194 1.65 8.063 4.262 10.938h-4.975c-1.169 0-2.125-0.95-2.125-2.125v-23.75c0-1.169 0.95-2.125 2.125-2.125h3.606c-0.862 0.788-1.631 1.7-2.306 2.725-2.837 4.375-1.688 9.175-0.587 14.338zM29.875 2h-5.637c1.337 1.337 2.45 3.094 3.294 5.256l-8.569 1.831c-0.931-1.813-2.363-3.331-5.162-2.744-1.537 0.331-2.563 1.206-3.019 2.162-0.55 1.169-0.825 2.487 0.512 8.769 1.319 6.262 2.106 7.356 3.094 8.2 0.806 0.694 2.087 1.063 3.644 0.731 2.781-0.587 3.481-2.544 3.587-4.575l8.587-1.85c0.2 4.469-1.169 7.825-3.587 10.225h3.256c1.169 0 2.125-0.95 2.125-2.125v-23.756c0-1.175-0.95-2.125-2.125-2.125z"></path>
</svg>
