<!-- Generated by IcoMoon.io -->
<svg version="1.1" xmlns="http://www.w3.org/2000/svg" width="32" height="32" viewBox="0 0 32 32">
<title>csharp</title>
<path d="M29.375 8.375l0.075-0.050c-0.15-0.275-0.375-0.525-0.6-0.65l-12.075-6.95c-0.2-0.125-0.475-0.175-0.775-0.175s-0.575 0.075-0.775 0.175l-12 6.975c-0.425 0.25-0.725 0.875-0.725 1.35v13.925c0 0.275 0.050 0.575 0.225 0.85l-0.050 0.025c0.125 0.2 0.3 0.375 0.475 0.475l12.050 6.975c0.2 0.125 0.475 0.175 0.775 0.175s0.575-0.075 0.775-0.175l12-6.975c0.425-0.25 0.725-0.875 0.725-1.35v-13.95c0.025-0.2 0-0.425-0.1-0.65zM16 25.875c-5.45 0-9.875-4.425-9.875-9.875s4.425-9.875 9.875-9.875c3.675 0 6.875 2.025 8.575 5l-3.25 1.875c-1.050-1.875-3.050-3.125-5.325-3.125-3.375 0-6.125 2.75-6.125 6.125s2.75 6.125 6.125 6.125c2.275 0 4.275-1.25 5.325-3.1l3.225 1.9c-1.7 2.95-4.9 4.95-8.55 4.95zM28.75 15.5h-0.8l-0.225 1h1.025v1.25h-1.25l-0.3 1.5h-1.225l0.3-1.5h-0.95l-0.3 1.5h-1.2l0.3-1.5h-0.625v-1.25h0.875l0.225-1h-1.1v-1.25h1.325l0.3-1.5h1.225l-0.3 1.5h0.95l0.3-1.5h1.2l-0.3 1.5h0.55v1.25zM25.575 16.5h0.95l0.225-1h-0.95z"></path>
</svg>
