<!-- Generated by IcoMoon.io -->
<svg version="1.1" xmlns="http://www.w3.org/2000/svg" width="32" height="32" viewBox="0 0 32 32">
<title>css-tricks</title>
<path d="M15.142 0.1c-1.161 0.379-1.927 1.271-2.12 2.466-0.067 0.404 0.008 1.254 0.421 4.99 0.278 2.474 0.488 4.552 0.48 4.611-0.017 0.059-1.767-1.178-3.938-2.768-2.146-1.574-4.098-2.962-4.334-3.088-0.572-0.295-1.59-0.353-2.272-0.135-1.001 0.311-1.851 1.161-2.163 2.154-0.278 0.917-0.16 1.733 0.387 2.558 0.53 0.791 0.884 0.985 5.638 3.097 2.44 1.077 4.435 1.994 4.426 2.036 0 0.042-1.91 0.9-4.233 1.902s-4.418 1.935-4.653 2.078c-0.564 0.337-1.17 1.001-1.447 1.59-0.194 0.404-0.227 0.589-0.227 1.195 0 0.623 0.034 0.783 0.269 1.279 0.337 0.707 0.816 1.237 1.43 1.565 0.985 0.522 1.902 0.513 2.97-0.025 0.303-0.151 2.255-1.523 4.334-3.055 2.743-2.011 3.795-2.743 3.812-2.642 0.008 0.076-0.202 2.171-0.48 4.645-0.539 4.881-0.547 5.049-0.16 5.874 0.252 0.53 0.816 1.077 1.397 1.346 0.421 0.202 0.589 0.227 1.321 0.227 0.749 0 0.892-0.025 1.321-0.236 0.9-0.446 1.489-1.229 1.675-2.255 0.084-0.488 0.042-0.993-0.421-5.116-0.286-2.516-0.505-4.586-0.488-4.603s1.574 1.111 3.475 2.508c4.62 3.4 4.822 3.526 5.672 3.686 1.708 0.32 3.551-1.153 3.686-2.945 0.051-0.749-0.093-1.313-0.496-1.935-0.555-0.858-0.875-1.035-5.672-3.105-2.407-1.035-4.409-1.91-4.443-1.944-0.042-0.034 1.834-0.909 4.165-1.935 5.099-2.255 4.948-2.188 5.512-2.71 0.597-0.572 0.884-1.17 0.934-1.952 0.093-1.498-0.858-2.895-2.247-3.299-0.682-0.202-1.7-0.126-2.297 0.16-0.244 0.126-2.213 1.515-4.35 3.088-2.146 1.574-3.921 2.853-3.938 2.836s0.202-2.112 0.488-4.653c0.555-5.032 0.564-5.141 0.143-5.991-0.252-0.53-0.825-1.077-1.38-1.338-0.581-0.261-1.649-0.345-2.196-0.16z"></path>
</svg>
