<!-- Generated by IcoMoon.io -->
<svg version="1.1" xmlns="http://www.w3.org/2000/svg" width="32" height="32" viewBox="0 0 32 32">
<title>css3</title>
<path d="M16.021 21.963v0z"></path>
<path d="M1.892 0l2.568 28.801 11.523 3.199 11.555-3.203 2.57-28.797h-28.216zM24.773 6.588l-0.868 9.734h-0l-0.601 6.716-0.053 0.597-7.246 2.009-7.236-2.009-0.495-5.546h3.546l0.252 2.817 3.937 1.061 0.010-0.003 0.002-0.001 3.928-1.060 0.412-4.581-8.245 0.001-0.071-0.794-0.161-1.791-0.084-0.948 8.875-0 0.323-3.617h-13.517l-0.071-0.794-0.161-1.791-0.084-0.948h17.694l-0.085 0.948z"></path>
</svg>
