<!-- Generated by IcoMoon.io -->
<svg version="1.1" xmlns="http://www.w3.org/2000/svg" width="32" height="32" viewBox="0 0 32 32">
<title>cssdeck</title>
<path d="M12.652 0.451c-0.867 0.183-2.578 0.799-3.765 1.392-1.803 0.867-2.487 1.369-4.13 3.012s-2.145 2.327-3.012 4.13c-2.327 4.769-2.327 9.332 0 14.146 0.867 1.825 1.346 2.487 3.012 4.13 1.666 1.666 2.304 2.122 4.13 3.012 2.784 1.323 4.13 1.643 7.073 1.643s4.29-0.319 7.073-1.643c1.803-0.867 2.441-1.346 4.13-3.012 1.666-1.688 2.145-2.327 3.012-4.13 1.095-2.305 1.415-3.377 1.666-5.659l0.16-1.415h-4.518l-0.297 1.757c-1.437 9.149-12.595 12.823-19.212 6.32-5.362-5.248-4.198-14.146 2.373-18.002 1.232-0.73 3.719-1.483 4.86-1.483h0.753v-4.563l-0.844 0.023c-0.479-0-1.574 0.16-2.464 0.342z"></path>
<path d="M13.473 6.611c-4.837 1.301-7.986 6.115-7.164 10.952 0.935 5.362 5.955 9.036 11.157 8.146 5.339-0.913 9.036-5.955 8.146-11.112-1.004-5.818-6.571-9.492-12.138-7.986z"></path>
</svg>
