<!-- Generated by IcoMoon.io -->
<svg version="1.1" xmlns="http://www.w3.org/2000/svg" width="40" height="32" viewBox="0 0 40 32">
<title>d-and-d-beyond</title>
<path d="M19.613 15.094c0.863 0 1.313-0.631 1.55-1.119-0.063-0.069-0.313-0.262-0.462-0.412-0.15 0.269-0.512 0.669-0.869 0.669-0.637 0-0.962-0.919-0.2-1.662-0.031-0.012-0.269-0.113-0.5 0.15 0-0.188 0.063-0.319 0.131-0.412-0.219 0.081-0.613 0.35-0.712 0.494 0.012-0.363 0.1-0.469 0.038-0.563l-0.012-0.012s-0.531 0.35-0.581 0.919c0 0 0.069-0.1 0.131-0.119 0.038-0.019 0.081 0 0.038 0.119-0.012 0.037-0.363 0.981 0.319 1.625-0.038-0.1-0.119-0.475 0.15-0.119-0.019 0.006 0.363 0.444 0.981 0.444zM22.887 13.775c0-0.25-0.306-0.275-0.35-0.281 0.125 0.244 0.056 0.469 0.012 0.563 0.156-0.025 0.337-0.1 0.337-0.281zM23.531 14.1c0-0.4-0.387-0.713-0.844-0.669 0.5 0.081 0.35 0.863-0.313 0.713 0.231-0.162 0.2-0.619-0.081-0.781 0.087 0.262-0.188 0.512-0.462 0.287-0.15-0.119-0.5-0.412-0.663-0.537-0.15-0.131-0.344-0.063-0.413-0.113-0.081-0.069-0.031-0.238-0.137-0.313-0.1-0.050-0.188-0.019-0.3-0.063-0.1-0.037-0.169-0.119-0.163-0.219-0.156 0.275 0.212 0.394 0.281 0.531 0.063 0.119-0.050 0.3 0.25 0.531 0.925 0.725 0.569 0.5 0.65 1.131 0.038 0.269 0.262 0.419 0.4 0.463-0.131-0.119-0.181-0.4 0-0.581 0 0.869 1.2 0.831 1.444 0.4-0.15 0.069-0.438-0.012-0.563-0.119 0.481 0.063 0.887-0.256 0.913-0.662zM21.069 12.95c0.125 0.050 0.1 0.044 0.4 0.281 0.637-1.531 1.356-0.981 1.375-0.969 0.137-0.119 0.613-0.238 0.863-0.169-0.15-0.169-0.469-0.387-0.831-0.387-0.294 0-0.462 0.137-0.5 0.081-0.050-0.088 0.2-0.213 0.2-0.213-0.337 0.012-0.6 0.419-0.7 0.369-0.069-0.031 0.087-0.231 0.087-0.231-0.319 0.181-0.581 0.569-0.637 0.813 0.288-0.363 0.863-0.613 1.231-0.563-0.656 0.031-1.219 0.606-1.488 0.988zM36.225 16.194c-1.294 0-2.5 0.081-3.144 0.131l0.462 0.512v4.825l-0.462 0.512c0.65 0.050 1.931 0.131 3.225 0.131 2.631 0 3.694-1.294 3.694-3.056 0-1.831-1.45-3.056-3.775-3.056zM35.281 20.919v-3.331c1.881-0.206 2.925 0.238 2.925 1.644 0 1.6-1.337 1.887-2.925 1.688zM18.85 11.313c-0.063-0.213-0.012-0.431 0.069-0.588 0.063 0.188 0.163 0.4 0.469 0.563-0.031-0.15-0.012-0.35 0.031-0.5-0.087-0.338 0.131-0.619 0.4-0.619 0.431 0 0.531 0.55 0.294 0.9 0.131 0.2 0.344 0.35 0.481 0.488 0.2-0.231 0.344-0.594 0.344-0.863 0-0.512-0.344-0.994-1.044-1.031-1.25-0.056-1.262 1.037-1.25 1.181 0.031 0.325 0.212 0.488 0.206 0.469zM18.825 11.688c-0.031 0.113-0.438 0.231-0.637 0.431 0.3-0.063 0.438-0.012 0.488 0.113 0.031 0.088-0.012 0.213-0.031 0.35 0.1-0.113 0.438-0.344 0.688-0.387-0.063-0.019-0.212-0.050-0.269-0.050 0.181-0.213 0.581-0.281 0.8-0.231-0.137-0.012-0.419 0.069-0.531 0.162 0.1 0.019 0.188 0.037 0.269 0.069-0.131 0.050-0.3 0.213-0.363 0.381 0.438-0.313 0.819 0.325 0.438 0.512 0.050 0.012 0.169 0 0.219-0.031-0.019 0.069-0.119 0.188-0.188 0.213 0.181 0 0.438-0.119 0.512-0.287 0 0-0.113 0.037-0.163-0.012s0.019-0.269 0.019-0.269c-0.144 0.181-0.212-0.081-0.081-0.262-0.063-0.019-0.219-0.037-0.288-0.031 0.2-0.069 0.65-0.113 0.7-0.019 0.038 0.069-0.063 0.213-0.063 0.213 0.25-0.031 0.519 0.069 0.419 0.319 0.181-0.088 0.344-0.369 0.3-0.65-0.019 0.063-0.1 0.15-0.181 0.169 0.012-0.088-0.063-0.137-0.119-0.162 0.106-0.6-0.913-0.887-0.881-1.494-0.063 0.081-0.113 0.313-0.050 0.444 0.169 0.2 0.544 0.419 0.631 0.762-0.163-0.4-0.944-0.713-0.913-1.262-0.1 0.1-0.163 0.488-0.081 0.688 0.15 0.088 0.281 0.238 0.3 0.381-0.137-0.319-0.712-0.381-0.869-0.762-0.038 0.137-0.019 0.313 0.063 0.419 0 0-0.137-0.050-0.438-0.037 0.106 0.037 0.319 0.219 0.3 0.325zM20.444 12.15c-0.169 0-0.219-0.131-0.262-0.269 0.206 0.081 0.262 0.269 0.262 0.269zM22.875 12.381l-0.063-0.037c-0.069-0.063-0.181-0.088-0.294-0.088-0.181 0-0.363 0.081-0.469 0.213-0.050 0.050-0.087 0.113-0.131 0.162v0.981c0.219 0.162 0.444-0.181 0.188-0.45 0.094 0.019 0.288 0.169 0.319 0.2 0 0 0.163-0.031 0.313-0.031 0.131 0 0.244 0.019 0.35 0.069v-1.15c-0.069 0.031-0.137 0.063-0.169 0.088zM4.994 19.119c1.075-0.288 1.013-1.125 1.013-1.244 0-1.288-1.506-1.563-2.313-1.563h-3.506l0.519 0.538v1.844h-0.706l0.713 0.913v2.019l-0.525 0.538c3.856 0 4.613 0.094 5.4-0.369 0.419-0.25 0.619-0.613 0.619-1.1 0-0.319 0.162-1.175-1.213-1.575zM2.413 17.4c1.25 0 1.85-0.050 1.85 0.569v0.188c0 0.756-1.188 0.55-1.85 0.55zM2.413 21.1v-1.413c0.762 0 2.044-0.144 2.044 0.55v0.281h0.013c0 0.7-0.781 0.581-2.056 0.581zM8.738 19.894l1.444 0.012v-0.012l0.881-1.325h-2.325v-0.931h3.275l-0.881-1.313v-0.012l-4.594 0.012 0.463 0.512v4.819l-0.463 0.512h5.075l0.881-1.325-3.756 0.012zM22.156 16.137c-4.619 0-4.844 6.206-0.019 6.206 4.869 0 4.631-6.206 0.019-6.206zM22.137 20.981c-2.337 0-2.306-3.456 0.012-3.456 2.3 0.006 2.425 3.456-0.012 3.456zM16.431 20.462l2.756-4.137h-2.606l0.381 0.45-1.281 2.325h-0.019l-1.313-2.325 0.4-0.45h-2.806l2.756 4.113 0.012 1.212-0.481 0.512h2.662l-0.45-0.512zM14.656 11.006c0.1 0.081 0.181 0.15 0.181 0.412v2.425c0 0.262-0.050 0.331-0.169 0.4-0.006 0.006-0.469 0.281-0.494 0.287h2.194c0.625 0 1.087-0.094 1.625-0.537-0.038-0.313 0.012-0.594 0.050-0.75 0-0.012-0.113 0.088-0.169 0.219 0-0.356 0.1-0.963 0.6-1.281-0.006 0-0.231-0.050-0.563 0.069 0.125-0.194 0.625-0.494 0.65-0.494-0.512-1.625-2.375-1.431-2.012-1.431-1.931 0-2.037 0.019-2.494-0.25 0.006 0.050 0.031 0.512 0.6 0.931zM16 11.35c0.288 0 1.444-0.206 1.444 1.081 0 1.294-1.15 1.081-1.444 1.081zM30.306 16.325l0.438 0.519v2.656h-0.019c-0.337-0.9-2.644-2.594-2.825-3.181h-1.975l0.462 0.531v4.806l-0.45 0.519h2.438l-0.462-0.512v-2.962h0.019c0.231 0.663 2.781 2.681 3.031 3.475h1.331v-5.325l0.462-0.519zM23.637 10.319c-2.012 0-2.050 0.012-2.494-0.25 0.006 0.044 0.031 0.519 0.6 0.931 0.194 0.125 0.181 0.269 0.181 0.594 0.113-0.069 0.238-0.137 0.381-0.188-0.069 0.069-0.169 0.169-0.219 0.281 0.063-0.069 0.469-0.319 0.913-0.219-0.1 0.019-0.25 0.069-0.381 0.181 0.006 0 0.131-0.069 0.469-0.019v-0.269c0.294 0 1.444-0.213 1.444 1.081 0 1.281-1.156 1.081-1.231 1.081 0.356 0.275 0.363 0.75 0.137 1.019h0.019c2.087 0 2.294-1.706 2.294-2.125 0-0.238-0.069-2-2.113-2.1z"></path>
</svg>
