<!-- Generated by IcoMoon.io -->
<svg version="1.1" xmlns="http://www.w3.org/2000/svg" width="28" height="32" viewBox="0 0 28 32">
<title>dailymotion</title>
<path d="M18.683 16.688c-0.427-0.244-0.938-0.388-1.483-0.388-0.014 0-0.028 0-0.042 0l0.002-0q-1.239 0-2.090 0.829t-0.851 2.089q0 1.323 0.83 2.163t2.089 0.84q1.281 0 2.132-0.861t0.854-2.142c0-0.005 0-0.011 0-0.017 0-0.533-0.141-1.033-0.389-1.464l0.008 0.014c-0.253-0.448-0.613-0.809-1.047-1.055l-0.014-0.007zM0 2v28h28v-28zM23.419 25.329h-3.319v-1.493h-0.042q-0.987 1.637-3.486 1.637-1.723 0-3.056-0.819c-0.882-0.544-1.583-1.302-2.044-2.204l-0.014-0.031q-0.725-1.418-0.724-3.181 0-1.723 0.735-3.139c0.48-0.931 1.18-1.688 2.035-2.223l0.024-0.014q1.324-0.818 2.983-0.819c0.022-0 0.047-0.001 0.073-0.001 0.642 0 1.256 0.12 1.821 0.338l-0.035-0.012q0.83 0.326 1.563 1.063v-4.87l3.487-0.756z"></path>
</svg>
