<!-- Generated by IcoMoon.io -->
<svg version="1.1" xmlns="http://www.w3.org/2000/svg" width="32" height="32" viewBox="0 0 32 32">
<title>dart</title>
<path d="M26.189 26.486c-0.014 0.020-0.036 0.023-0.056 0.029-0.080 0.1-0.203 0.127-0.312 0.175-1.169 0.513-2.334 1.033-3.5 1.552-0.098 0.043-0.185 0.030-0.279-0.002-0.602-0.204-1.201-0.419-1.8-0.632-0.731-0.259-1.462-0.517-2.194-0.775-1.467-0.518-2.935-1.034-4.402-1.553-0.881-0.312-1.764-0.619-2.645-0.931-1.308-0.463-2.619-0.917-3.924-1.386-0.208-0.074-0.428-0.117-0.616-0.241-0.010-0.009-0.021-0.018-0.031-0.027-0.043-0.061-0.058-0.131-0.073-0.202-0.075-0.355-0.116-0.711-0.121-1.075-0.063-4.839-0.008-9.679-0.027-14.519-0-0.078 0.013-0.153 0.026-0.229-0.001-0.016 0.009-0.024 0.021-0.030 0.011-0.010 0.024-0.011 0.037-0.005 0.075 0.039 0.125 0.106 0.182 0.163 6.497 6.496 12.994 12.993 19.49 19.489 0.061 0.061 0.117 0.129 0.196 0.17 0.012 0.008 0.020 0.019 0.027 0.031z"></path>
<path d="M26.195 26.356c-0.032 0.005-0.056-0.007-0.078-0.029-0.030-0.031-0.062-0.061-0.092-0.092-6.522-6.522-13.044-13.044-19.565-19.566-0.048-0.048-0.101-0.090-0.137-0.148 0.047-0.038 0.103-0.049 0.162-0.050 0.053-0.001 0.106-0.001 0.159-0.001 4.735 0 9.47-0.001 14.205 0.002 0.424 0 0.847 0.029 1.263 0.12 0.085 0.019 0.17 0.036 0.238 0.095 0.010 0.008 0.021 0.016 0.031 0.023 0.124 0.199 0.174 0.428 0.25 0.644 0.62 1.764 1.248 3.525 1.865 5.29 0.398 1.137 0.801 2.272 1.203 3.408 0.65 1.84 1.301 3.68 1.948 5.522 0.083 0.236 0.159 0.475 0.253 0.708 0.046 0.115 0.032 0.22-0.019 0.333-0.437 0.971-0.865 1.946-1.297 2.919-0.102 0.229-0.201 0.459-0.306 0.687-0.022 0.048-0.041 0.098-0.083 0.134z"></path>
<path d="M5.957 22.902c0.098 0.003 0.181 0.055 0.271 0.086 0.421 0.148 0.843 0.293 1.265 0.442 0.861 0.303 1.722 0.609 2.583 0.912 0.762 0.268 1.525 0.533 2.287 0.801 0.506 0.178 1.012 0.359 1.518 0.537 0.894 0.315 1.789 0.629 2.683 0.944 0.487 0.172 0.974 0.345 1.461 0.517 0.909 0.32 1.818 0.639 2.726 0.959 0.502 0.177 1.003 0.354 1.503 0.535 0.092 0.033 0.168 0.027 0.258-0.014 0.402-0.183 0.808-0.357 1.211-0.536 0.303-0.134 0.604-0.271 0.907-0.405 0.491-0.217 0.983-0.433 1.474-0.649 0.129-0.057 0.257-0.113 0.386-0.169-0.242 0.75-0.484 1.501-0.726 2.251-0.146 0.454-0.291 0.909-0.436 1.363-0.098 0.306-0.196 0.612-0.292 0.919-0.043 0.137-0.043 0.14-0.187 0.14-0.649 0-1.297-0.001-1.946-0.001-1.831-0.001-3.661 0.013-5.492-0.007-1.408-0.015-2.815-0.004-4.223-0.013-0.087-0.001-0.152-0.024-0.211-0.088-0.096-0.103-0.199-0.199-0.299-0.299-1.484-1.475-2.967-2.95-4.45-4.425-0.168-0.167-0.333-0.335-0.503-0.5-0.408-0.397-0.718-0.866-0.99-1.361-0.33-0.601-0.591-1.231-0.77-1.894-0.004-0.015-0.004-0.030-0.006-0.045z"></path>
<path d="M26.514 26.824c0.020-0.153 0.112-0.278 0.169-0.416 0.142-0.343 0.297-0.68 0.447-1.019 0.13-0.293 0.263-0.586 0.393-0.879 0.18-0.408 0.359-0.817 0.539-1.225 0.061-0.138 0.122-0.275 0.189-0.41 0.041-0.081 0.053-0.155 0.020-0.244-0.211-0.584-0.419-1.17-0.626-1.756-0.107-0.303-0.209-0.607-0.315-0.91-0.253-0.724-0.507-1.448-0.762-2.171-0.172-0.487-0.346-0.973-0.517-1.46-0.25-0.709-0.499-1.418-0.749-2.128-0.17-0.482-0.342-0.963-0.512-1.446-0.263-0.747-0.524-1.495-0.787-2.242-0.171-0.487-0.345-0.973-0.517-1.46-0.25-0.709-0.497-1.419-0.751-2.127-0.072-0.203-0.153-0.402-0.202-0.613 0.307 0.061 0.599 0.168 0.889 0.282 0.729 0.286 1.415 0.651 2.029 1.142 0.28 0.224 0.522 0.487 0.775 0.739 0.367 0.366 0.729 0.736 1.095 1.103 1.175 1.179 2.35 2.358 3.528 3.535 0.073 0.073 0.104 0.145 0.104 0.249-0.003 2.615-0.003 5.231-0.005 7.846-0.001 1.348-0.002 2.696-0.004 4.044 0 0.015 0 0.030 0 0.045-0.002 0.121 0.023 0.122-0.12 0.167-0.23 0.073-0.459 0.146-0.689 0.22-1.163 0.371-2.325 0.743-3.487 1.114-0.033 0.011-0.068 0.018-0.102 0.026-0.011-0.003-0.022-0.005-0.033-0.008z"></path>
<path d="M22.591 6.384c-0.177-0.033-0.354-0.067-0.531-0.099-0.153-0.027-0.307-0.044-0.463-0.053-1.015-0.056-2.031-0.026-3.046-0.027-4.169-0.004-8.339-0.001-12.508-0-0.060 0-0.12 0.003-0.181 0.005-0.010-0.002-0.020-0.003-0.030-0.005 0.262-0.195 0.54-0.367 0.811-0.547 0.703-0.468 1.409-0.932 2.113-1.399 1.467-0.972 2.934-1.944 4.402-2.915 0.751-0.497 1.504-0.99 2.253-1.489 0.134-0.089 0.254-0.196 0.41-0.248 0.323-0.109 0.644-0.080 0.963 0.012 0.443 0.128 0.828 0.361 1.168 0.668 0.127 0.115 0.245 0.239 0.367 0.359 1.114 1.106 2.228 2.212 3.344 3.316 0.084 0.083 0.143 0.173 0.182 0.287 0.24 0.693 0.487 1.384 0.731 2.076 0.007 0.019 0.010 0.039 0.015 0.058z"></path>
<path d="M5.811 6.238c0.041 0.060 0.021 0.127 0.021 0.191 0.001 4.887 0.002 9.775 0.002 14.662 0 0.306 0.027 0.611 0.037 0.917 0.009 0.273 0.066 0.545 0.131 0.813 0.011 0.046 0.038 0.093 0.012 0.144-0.361-0.124-0.722-0.248-1.082-0.373-0.365-0.127-0.729-0.258-1.095-0.384-0.083-0.029-0.15-0.073-0.212-0.136-1.207-1.219-2.417-2.435-3.622-3.656-0.396-0.401-0.678-0.872-0.796-1.43-0.052-0.244-0.058-0.489 0.012-0.732 0.031-0.107 0.074-0.209 0.139-0.299 0.433-0.605 0.831-1.235 1.242-1.855 1.593-2.401 3.182-4.805 4.773-7.208 0.144-0.218 0.291-0.434 0.437-0.651z"></path>
</svg>
