<!-- Generated by IcoMoon.io -->
<svg version="1.1" xmlns="http://www.w3.org/2000/svg" width="32" height="32" viewBox="0 0 32 32">
<title>database</title>
<path d="M16 32c-7.573 0-13.714-2.049-13.714-4.571 0-1.38 0-2.889 0-4.572 0-0.397 0.199-0.775 0.484-1.143 1.529 1.969 6.846 3.429 13.23 3.429s11.701-1.46 13.23-3.429c0.286 0.368 0.484 0.746 0.484 1.143 0 1.324 0 2.728 0 4.572 0 2.522-6.143 4.571-13.714 4.571zM16 22.857c-7.573 0-13.714-2.049-13.714-4.572 0-1.38 0-2.887 0-4.571 0-0.242 0.091-0.478 0.214-0.711v0c0.069-0.146 0.161-0.29 0.27-0.432 1.529 1.968 6.846 3.429 13.23 3.429s11.701-1.461 13.23-3.429c0.109 0.142 0.201 0.286 0.27 0.432v0c0.123 0.233 0.214 0.469 0.214 0.711 0 1.324 0 2.727 0 4.571 0 2.522-6.143 4.572-13.714 4.572zM16 13.714c-7.573 0-13.714-2.048-13.714-4.571 0-0.722 0-1.486 0-2.286 0-0.727 0-1.481 0-2.286 0-2.523 6.142-4.572 13.714-4.572 7.571 0 13.714 2.048 13.714 4.572 0 0.713 0 1.47 0 2.286 0 0.7 0 1.438 0 2.286 0 2.523-6.143 4.571-13.714 4.571zM16 2.286c-5.049 0-9.143 1.021-9.143 2.286s4.094 2.286 9.143 2.286c5.049 0 9.143-1.021 9.143-2.286s-4.094-2.286-9.143-2.286z"></path>
</svg>
