<!-- Generated by IcoMoon.io -->
<svg version="1.1" xmlns="http://www.w3.org/2000/svg" width="32" height="32" viewBox="0 0 32 32">
<title>debian</title>
<path d="M19.302 17.286c0.191-0.149 0.365-0.3 0.519-0.447-0.431 0.105-0.87 0.108-1.312 0.067-0.53 0.007 0.1 0.273 0.792 0.38zM21.356 16.197c0.316-0.436 0.546-0.913 0.627-1.406-0.071 0.352-0.262 0.655-0.441 0.976-0.991 0.624-0.093-0.371-0.001-0.749-1.066 1.342-0.146 0.805-0.185 1.179zM22.406 13.464c0.064-0.955-0.188-0.653-0.273-0.289 0.099 0.052 0.177 0.673 0.273 0.289zM16.499 0.413c0.283 0.051 0.611 0.090 0.565 0.157 0.31-0.068 0.38-0.13-0.565-0.157zM17.051 0.595l0.014-0.025-0.2 0.041zM16.328 20.326c-0.763-0.357-1.462-0.897-2.036-1.557 0.305 0.446 0.634 0.88 1.059 1.221-0.72-0.244-1.681-1.743-1.961-1.804 1.24 2.221 5.031 3.894 7.017 3.064-0.919 0.034-2.086 0.019-3.118-0.363-0.397-0.204-0.924-0.609-0.928-0.742-0.019 0.052-0.053 0.103-0.032 0.181zM16.369 20.12c-0.006 0.007-0.008 0.015-0.008 0.025 0.003-0.008 0.006-0.017 0.008-0.025zM27.759 11.435c0.009-0.487 0.136-0.255 0.184-0.375-0.096-0.055-0.346-0.428-0.499-1.144 0.111-0.168 0.296 0.436 0.446 0.461-0.097-0.569-0.264-1.003-0.27-1.44-0.44-0.919-0.156 0.122-0.512-0.394-0.468-1.46 0.388-0.339 0.446-1.002 0.709 1.027 1.114 2.62 1.3 3.28-0.142-0.804-0.371-1.583-0.65-2.338 0.215 0.091-0.347-1.655 0.28-0.499-0.67-2.465-2.866-4.767-4.888-5.848 0.247 0.226 0.56 0.511 0.447 0.555-1.005-0.598-0.829-0.645-0.972-0.898-0.819-0.333-0.872 0.027-1.415 0.001-1.543-0.819-1.841-0.732-3.261-1.244l0.065 0.302c-1.023-0.341-1.191 0.129-2.296 0.001-0.067-0.053 0.354-0.19 0.701-0.24-0.988 0.13-0.942-0.195-1.909 0.036 0.238-0.167 0.49-0.278 0.745-0.42-0.806 0.049-1.924 0.469-1.579 0.087-1.315 0.587-3.65 1.41-4.961 2.639l-0.041-0.276c-0.6 0.721-2.619 2.153-2.779 3.086l-0.16 0.037c-0.313 0.529-0.515 1.129-0.763 1.673-0.409 0.696-0.599 0.268-0.541 0.377-0.804 1.63-1.203 2.999-1.548 4.122 0.246 0.367 0.006 2.212 0.099 3.688-0.404 7.289 5.116 14.367 11.149 16.001 0.884 0.316 2.199 0.304 3.318 0.337-1.32-0.377-1.491-0.2-2.776-0.648-0.928-0.437-1.131-0.935-1.788-1.505l0.26 0.459c-1.288-0.456-0.749-0.564-1.798-0.896l0.278-0.363c-0.418-0.032-1.106-0.704-1.294-1.076l-0.457 0.018c-0.549-0.677-0.841-1.165-0.82-1.543l-0.148 0.263c-0.167-0.287-2.019-2.54-1.058-2.015-0.179-0.163-0.416-0.266-0.673-0.733l0.196-0.224c-0.462-0.595-0.851-1.357-0.822-1.611 0.247 0.333 0.418 0.395 0.587 0.452-1.168-2.897-1.233-0.16-2.117-2.949l0.187-0.015c-0.144-0.216-0.231-0.451-0.346-0.681l0.081-0.811c-0.841-0.972-0.235-4.133-0.114-5.866 0.084-0.705 0.702-1.455 1.171-2.632l-0.286-0.049c0.547-0.954 3.124-3.832 4.317-3.684 0.578-0.726-0.115-0.003-0.228-0.186 1.27-1.314 1.669-0.928 2.526-1.165 0.924-0.549-0.793 0.214-0.355-0.209 1.598-0.408 1.132-0.928 3.216-1.135 0.22 0.125-0.51 0.193-0.694 0.356 1.331-0.651 4.212-0.503 6.083 0.361 2.172 1.015 4.611 4.015 4.707 6.837l0.109 0.029c-0.055 1.122 0.172 2.419-0.222 3.611l0.268-0.564c0.031 0.858-0.251 1.274-0.505 2.010l-0.458 0.229c-0.375 0.728 0.036 0.462-0.232 1.042-0.585 0.52-1.777 1.629-2.158 1.73-0.278-0.006 0.188-0.328 0.25-0.455-0.783 0.538-0.629 0.808-1.827 1.135l-0.035-0.078c-2.956 1.391-7.062-1.365-7.008-5.126-0.032 0.239-0.090 0.179-0.155 0.276-0.152-1.935 0.894-3.878 2.658-4.671 1.726-0.854 3.749-0.504 4.985 0.648-0.679-0.89-2.030-1.832-3.632-1.744-1.569 0.025-3.037 1.022-3.526 2.104-0.804 0.506-0.897 1.951-1.247 2.215-0.471 3.463 0.886 4.959 3.183 6.719 0.186 0.125 0.207 0.196 0.191 0.26 0.001-0.002 0.001-0.004 0.003-0.005 2.709 1.012 5.508 0.767 7.852-1.113 0.597-0.465 1.248-1.255 1.436-1.266-0.284 0.427 0.048 0.205-0.169 0.581 0.594-0.958-0.258-0.39 0.614-1.655l0.322 0.444c-0.12-0.795 0.988-1.761 0.875-3.020 0.254-0.385 0.284 0.414 0.014 1.299 0.374-0.982 0.099-1.14 0.195-1.95 0.104 0.272 0.24 0.562 0.31 0.849-0.244-0.949 0.25-1.598 0.372-2.15-0.12-0.054-0.376 0.419-0.435-0.702zM12.648 18.006c0.348 0.473 0.625 0.986 1.070 1.356-0.32-0.625-0.558-0.883-0.995-1.728l-0.074 0.372zM13.546 17.602c-0.184-0.204-0.294-0.45-0.416-0.694 0.117 0.43 0.356 0.799 0.579 1.175l-0.163-0.481zM27.122 17.578c0.522-0.982 0.86-2.056 1.002-3.144l-0.078 0.195c-0.143 1.014-0.451 2.018-0.924 2.949zM17.866 0c-0.496 0.042-0.989 0.066-1.476 0.129l0.215 0.029c0.358-0.131 0.881-0.072 1.262-0.158zM4.163 7.408c0.368-0.829-0.102-0.297-0.143-0.519 0.057 0.736-0.566 1.015 0.143 0.519zM3.43 9.28c-0.459 0.587-0.211 0.712-0.26 1.111 0.166-0.51 0.196-0.816 0.26-1.111z"></path>
</svg>
