<!-- Generated by IcoMoon.io -->
<svg version="1.1" xmlns="http://www.w3.org/2000/svg" width="28" height="32" viewBox="0 0 28 32">
<title>delicious</title>
<path d="M27.906 4.25c-0.025-0.094-0.056-0.188-0.087-0.281-0.056-0.156-0.125-0.3-0.206-0.444-0.087-0.15-0.188-0.3-0.294-0.431-0.131-0.156-0.275-0.3-0.431-0.425-0.069-0.056-0.137-0.106-0.206-0.156-0.081-0.056-0.163-0.106-0.25-0.15-0.113-0.063-0.225-0.112-0.344-0.156-0.106-0.044-0.219-0.081-0.337-0.106-0.238-0.063-0.494-0.094-0.75-0.094h-22c-1.656-0.006-3 1.337-3 2.994v22c0 0.256 0.031 0.512 0.094 0.75 0.125 0.481 0.362 0.913 0.688 1.269 0.063 0.069 0.131 0.137 0.206 0.206 0.356 0.325 0.787 0.563 1.269 0.688 0.237 0.063 0.494 0.094 0.75 0.094h22c1.656 0 3-1.344 3-3v-22.006c-0.006-0.256-0.038-0.513-0.1-0.75zM26 27c0 0.55-0.45 1-1 1h-11v-12h-12v-11c0-0.55 0.45-1 1-1h11v12h12z"></path>
</svg>
