<!-- Generated by IcoMoon.io -->
<svg version="1.1" xmlns="http://www.w3.org/2000/svg" width="32" height="32" viewBox="0 0 32 32">
<title>deploydog</title>
<path d="M23.887 8.5h3.231v14.975h-3.231v-1.294c-1.238 1.55-3.3 1.506-4.613 0.919-1.637-0.731-2.769-2.381-2.769-4.488 0-1.863 0.925-3.619 2.706-4.425 1.262-0.569 3.294-0.662 4.675 0.806v-6.494zM19.844 18.613c0 1.137 0.85 2.094 2.075 2.094 1.238 0 2.075-1.025 2.075-2.056 0-1.069-0.856-2.075-2.075-2.075-1.225 0-2.075 1.025-2.075 2.038zM11.781 8.5h3.231v14.975h-3.231v-1.294c-1.238 1.55-3.3 1.506-4.612 0.919-1.638-0.731-2.769-2.381-2.769-4.488 0-1.863 0.925-3.619 2.706-4.425 1.263-0.569 3.294-0.662 4.675 0.806v-6.494zM7.737 18.613c0 1.137 0.85 2.094 2.075 2.094 1.238 0 2.075-1.025 2.075-2.056 0-1.069-0.856-2.075-2.075-2.075-1.231 0-2.075 1.025-2.075 2.038zM28 6c1.094 0 2 0.9 2 2v16c0 1.094-0.9 2-2 2h-24c-1.094 0-2-0.9-2-2v-16c0-1.094 0.9-2 2-2h24zM28 4h-24c-2.2 0-4 1.8-4 4v16c0 2.2 1.8 4 4 4h24c2.2 0 4-1.8 4-4v-16c0-2.2-1.8-4-4-4z"></path>
</svg>
