<!-- Generated by IcoMoon.io -->
<svg version="1.1" xmlns="http://www.w3.org/2000/svg" width="30" height="32" viewBox="0 0 30 32">
<title>deskpro</title>
<path d="M12.869 32l1.944-2.4c0.769-0.012 1.6-0.087 2.281-0.413 2.431-1.163 2.4-3.869 2.394-3.988-0.006-0.313-0.050-0.275-1.806-2.337h4.944c-0.012 3.131-0.456 4.281-0.637 4.731-0.587 1.481-2.744 3.925-5.95 4.337-0.544 0.069-2.050 0.075-3.169 0.069zM25.394 21.519c2.413 0 3.656-0.85 4.606-1.931l-10.969-0.019-1.087 1.956 7.45-0.006zM22.669 7.525v10.519h-4.594l-2.044 3.469h-0.406c-3.269 0-3.631-3.531-3.644-3.681-0.075-0.825-1.331-0.725-1.256 0.113 0.088 0.988 0.55 2.5 1.65 3.569h-5.688c-1.594 0-6.925-1.675-6.688-7.125v-13.331c0-1 0.606-1.038 0.938-1.050h5.125c0.013 0 0.019 0.006 0.031 0.006 0.269-0.025 3.131-0.131 3.131 2.731 0 0.831 1.262 0.837 1.262 0 0-1.137-0.344-2.050-0.988-2.731h5.263c6.794-0.025 7.906 4.963 7.906 7.513zM14.387 11.025l4 1.831c0.831-2.844-2.637-4.481-4-1.831z"></path>
</svg>
