<!-- Generated by IcoMoon.io -->
<svg version="1.1" xmlns="http://www.w3.org/2000/svg" width="32" height="32" viewBox="0 0 32 32">
<title>digg</title>
<path d="M5.106 10.769h-5.106v10.9h8.294v-15.669h-3.188v4.769zM5.106 19.106h-1.925v-5.769h1.925v5.769zM23.681 10.769v10.9h5.113v1.781h-5.113v2.55h8.319v-15.231h-8.319zM28.794 19.106h-1.925v-5.769h1.925v5.769zM14.069 21.669h5.131v1.781h-5.131v2.55h8.331v-15.231h-8.331v10.9zM17.269 13.338h1.925v5.769h-1.925v-5.769zM9.581 6h3.206v3.188h-3.206v-3.188zM9.581 10.769h3.206v10.9h-3.206v-10.9z"></path>
</svg>
