<!-- Generated by IcoMoon.io -->
<svg version="1.1" xmlns="http://www.w3.org/2000/svg" width="32" height="32" viewBox="0 0 32 32">
<title>django-alt</title>
<path d="M14.743 0.030h5.23v23.97c-2.679 0.507-4.651 0.706-6.785 0.706-6.387-0.007-9.712-2.86-9.712-8.341 0-5.28 3.527-8.708 8.992-8.708 0.848 0 1.494 0.067 2.275 0.267v-7.894zM14.926 12.244c-0.613-0.2-1.117-0.267-1.763-0.267-2.645 0-4.173 1.613-4.173 4.441 0 2.753 1.461 4.273 4.139 4.273 0.579 0 1.050-0.033 1.797-0.133v-8.315z"></path>
<path d="M28.524 8.301v12.001c0 4.133-0.31 6.121-1.218 7.834-0.848 1.647-1.965 2.686-4.274 3.834l-4.853-2.287c2.309-1.073 3.426-2.021 4.139-3.468 0.747-1.479 0.983-3.193 0.983-7.7v-10.214h5.223zM22.774 0.030h5.23v5.314h-5.23v-5.314z"></path>
</svg>
