<!-- Generated by IcoMoon.io -->
<svg version="1.1" xmlns="http://www.w3.org/2000/svg" width="32" height="32" viewBox="0 0 32 32">
<title>django</title>
<path d="M3.756 11.749v1.325l-0.099-0.019c-0.608-0.107-1.256-0.064-1.808 0.12-1.221 0.408-1.907 1.491-1.845 2.918 0.029 0.64 0.157 1.080 0.435 1.496 0.395 0.595 1.035 0.949 1.971 1.096 0.688 0.109 2.088 0.032 3.035-0.168l0.072-0.016v-8.075h-1.76v1.323zM3.631 14.453l0.125 0.032v2.814l-0.179 0.016c-0.696 0.067-1.155-0.051-1.448-0.373-0.229-0.251-0.347-0.608-0.347-1.048 0-0.779 0.371-1.307 1.024-1.456 0.189-0.043 0.632-0.035 0.824 0.016z"></path>
<path d="M6.556 11.32v0.893h1.76l-0.005-0.888-0.008-0.886-0.872-0.008-0.875-0.005v0.893z"></path>
<path d="M11.33 13.002c-0.621 0.045-1.272 0.205-1.819 0.445l-0.155 0.069v0.672c0 0.525 0.008 0.667 0.035 0.656 0.941-0.403 1.408-0.515 2.064-0.496 0.277 0.008 0.336 0.019 0.4 0.067 0.128 0.093 0.168 0.208 0.168 0.483 0 0.136-0.005 0.248-0.013 0.248-0.077 0-0.597 0.067-0.845 0.109-1.277 0.213-1.939 0.651-2.115 1.389-0.051 0.221-0.051 0.755 0 0.976 0.085 0.357 0.267 0.624 0.555 0.808 0.597 0.387 1.499 0.427 3.854 0.168l0.165-0.019v-2.003c0-1.101-0.013-2.112-0.027-2.245-0.080-0.749-0.437-1.125-1.219-1.275-0.219-0.040-0.797-0.069-1.048-0.053zM12.104 16.877v0.584l-0.232 0.035c-0.363 0.053-0.848 0.048-1-0.011-0.277-0.107-0.387-0.419-0.245-0.691 0.077-0.149 0.267-0.272 0.549-0.355 0.139-0.040 0.733-0.139 0.869-0.144l0.059-0.003v0.584z"></path>
<path d="M16.824 13.005c-0.632 0.027-1.576 0.179-2.246 0.357l-0.101 0.027v5.278h1.76l0.005-2.075 0.008-2.072 0.186-0.051c0.133-0.035 0.288-0.051 0.547-0.053 0.325-0.003 0.373 0.003 0.501 0.061 0.173 0.077 0.283 0.2 0.344 0.381 0.043 0.128 0.048 0.307 0.056 1.973l0.008 1.835h1.733l-0.011-2.086c-0.008-1.875-0.013-2.107-0.053-2.259-0.080-0.301-0.2-0.504-0.419-0.725-0.341-0.344-0.8-0.523-1.501-0.581-0.325-0.027-0.419-0.029-0.819-0.011z"></path>
<path d="M28.542 13.026c-1.027 0.187-1.763 0.803-2.072 1.741-0.147 0.44-0.187 0.752-0.171 1.309 0.011 0.333 0.029 0.536 0.067 0.699 0.219 0.931 0.797 1.584 1.661 1.877 0.739 0.253 1.758 0.211 2.43-0.101 0.859-0.395 1.384-1.168 1.512-2.219 0.149-1.216-0.253-2.315-1.043-2.859-0.344-0.237-0.619-0.349-1.069-0.437-0.309-0.061-1.013-0.067-1.315-0.011zM29.524 14.453c0.283 0.104 0.496 0.379 0.613 0.787 0.053 0.184 0.061 0.275 0.061 0.653 0 0.376-0.008 0.469-0.061 0.648-0.117 0.411-0.296 0.651-0.587 0.787-0.131 0.061-0.187 0.072-0.405 0.072-0.216 0-0.275-0.011-0.4-0.069-0.288-0.133-0.461-0.349-0.581-0.712-0.091-0.277-0.115-0.92-0.048-1.248 0.080-0.381 0.24-0.659 0.483-0.824 0.259-0.179 0.605-0.213 0.925-0.093z"></path>
<path d="M23.531 13.029c-0.701 0.075-1.227 0.203-1.685 0.413-1.094 0.501-1.662 1.413-1.662 2.664 0 1.227 0.56 2.115 1.547 2.459 0.56 0.195 1.315 0.203 1.848 0.019 0.131-0.045 0.24-0.077 0.245-0.072 0.021 0.021-0.040 0.525-0.083 0.661-0.136 0.456-0.408 0.715-0.891 0.845-0.248 0.069-1.091 0.069-1.413 0-0.283-0.059-0.675-0.187-0.925-0.301l-0.195-0.088v1.616l0.315 0.096c0.533 0.163 0.984 0.232 1.56 0.232 1.315 0.003 2.251-0.403 2.8-1.211 0.245-0.363 0.403-0.824 0.477-1.411 0.037-0.299 0.045-3.382 0.011-4.096l-0.019-0.382 0.205 0.008 0.208 0.011 0.291-0.608c0.16-0.333 0.285-0.613 0.28-0.621-0.024-0.021-0.555-0.117-0.965-0.173-0.299-0.040-0.589-0.056-1.123-0.064-0.395-0.003-0.768-0.003-0.827 0.003zM23.795 14.832c0.008 0.24 0.021 0.869 0.029 1.4l0.016 0.965-0.101 0.027c-0.395 0.107-0.784 0.107-1.056 0.005-0.453-0.173-0.683-0.563-0.707-1.195-0.019-0.528 0.083-0.867 0.347-1.144 0.291-0.307 0.739-0.472 1.317-0.488l0.139-0.003 0.016 0.432z"></path>
<path d="M6.556 15.152c0 3.022-0.037 3.416-0.365 4.056-0.205 0.4-0.584 0.733-1.152 1.019-0.144 0.072-0.189 0.104-0.16 0.12 0.021 0.013 0.387 0.187 0.811 0.387l0.773 0.365 0.163-0.083c1.035-0.536 1.504-1.285 1.638-2.63 0.019-0.176 0.037-1.277 0.045-2.781l0.016-2.486h-1.768v2.032z"></path>
</svg>
