<!-- Generated by IcoMoon.io -->
<svg version="1.1" xmlns="http://www.w3.org/2000/svg" width="32" height="32" viewBox="0 0 32 32">
<title>djs</title>
<path d="M31.584 22.648c0.011-0.102 0.023-0.244 0.031-0.387l0.001-0.025c0.009-0.164-9.842-9.511-9.842-9.511h-0.235s9.985 10.533 10.046 9.922z"></path>
<path d="M10.565 19.405c-0.043 0.099-0.071 0.157-0.099 0.214l0.017-0.038c-0.314 0.655 4.396 5.259 4.775 4.7 0.018-0.024 0.035-0.050 0.052-0.075 0.019-0.029 0.038-0.058 0.057-0.087 0.303-0.46-4.668-5.012-4.802-4.713z"></path>
<path d="M17.221 25.88c-0.013 0.029-0.108 0.19-0.195 0.274-0.015 0.029 4.599 4.604 4.599 4.604h0.415c0 0-4.33-4.685-4.819-4.878z"></path>
<path d="M31.622 22.152c-0.216 4.782-4.172 8.606-9.006 8.606h-0.654l-4.828-4.755c0.358-0.495 0.721-1.065 1.050-1.657l0.045-0.088h4.386c1.387 0 2.516-1.128 2.516-2.516s-1.129-2.516-2.516-2.516h-2.596c0.194-0.969 0.305-2.084 0.306-3.225v-0.001c0-1.12-0.11-2.213-0.315-3.275h1.613l9.97 9.824c0.009-0.090 0.019-0.227 0.027-0.365l0.001-0.032zM2.99 1.193h-2.623v6.501h2.623c4.58 0 8.307 3.726 8.307 8.306 0 1.246-0.278 2.429-0.772 3.491l4.784 4.714c1.56-2.3 2.49-5.137 2.49-8.192 0-0.005 0-0.009 0-0.014v0.001c0-8.165-6.643-14.807-14.809-14.807z"></path>
<path d="M22.616 1.193h-10.62c2.606 1.61 4.707 3.805 6.16 6.412l0.045 0.089h4.415c1.387 0 2.516 1.128 2.516 2.516s-1.129 2.515-2.516 2.515h-0.992l9.97 9.824c0.023-0.241 0.037-0.522 0.038-0.806v-0.001c0-2.192-0.787-4.202-2.092-5.767 1.306-1.564 2.092-3.575 2.092-5.766 0-4.972-4.044-9.017-9.016-9.017z"></path>
<path d="M21.962 30.759h-9.89c2.013-1.259 3.697-2.845 5.027-4.703l0.036-0.053 4.828 4.756zM15.31 24.205l-4.784-4.714c-1.322 2.84-4.202 4.816-7.536 4.816h-2.623v6.5h2.623c5.133 0 9.662-2.625 12.32-6.602z"></path>
</svg>
