<!-- Generated by IcoMoon.io -->
<svg version="1.1" xmlns="http://www.w3.org/2000/svg" width="40" height="32" viewBox="0 0 40 32">
<title>docker</title>
<path d="M21.869 14.769h-4.131v-3.713h4.131v3.713zM21.869 2h-4.131v3.794h4.131v-3.794zM26.756 11.050h-4.131v3.713h4.131v-3.713zM16.988 6.544h-4.131v3.756h4.131v-3.756zM21.869 6.544h-4.131v3.756h4.131v-3.756zM39.169 12.794c-0.9-0.606-2.975-0.825-4.569-0.525-0.206-1.5-1.044-2.806-2.569-3.981l-0.875-0.581-0.581 0.875c-1.15 1.738-1.462 4.6-0.231 6.488-0.544 0.294-1.613 0.694-3.025 0.669h-27.169c-0.544 3.175 0.363 7.3 2.75 10.131 2.319 2.744 5.794 4.137 10.338 4.137 9.838 0 17.119-4.531 20.525-12.762 1.337 0.025 4.225 0.006 5.706-2.825 0.094-0.156 0.413-0.825 0.531-1.069l-0.831-0.556zM7.225 11.050h-4.125v3.713h4.131v-3.713zM12.106 11.050h-4.131v3.713h4.131v-3.713zM16.988 11.050h-4.131v3.713h4.131v-3.713zM12.106 6.544h-4.131v3.756h4.131v-3.756z"></path>
</svg>
