<!-- Generated by IcoMoon.io -->
<svg version="1.1" xmlns="http://www.w3.org/2000/svg" width="32" height="32" viewBox="0 0 32 32">
<title>doctrine</title>
<path d="M23.954 10.784c-0.006-0.005-0.011-0.011-0.011-0.011-0.064-0.081-0.134-0.156-0.205-0.226l-9.68-9.68c-1.156-1.156-3.028-1.156-4.184 0s-1.156 3.028 0 4.185l3.125 3.124c-5.232 1.328-9.099 6.072-9.099 11.724 0 6.685 5.415 12.1 12.1 12.1s12.1-5.416 12.1-12.1c-0-3.635-1.603-6.9-4.146-9.116zM23.707 21.691l-6.991 6.991c-0.42 0.419-0.973 0.629-1.522 0.629s-1.102-0.21-1.522-0.629c-0.839-0.839-0.839-2.205 0-3.044l3.318-3.318h-7.174c-1.189 0-2.151-0.963-2.151-2.151s0.963-2.151 2.151-2.151h7.174l-3.318-3.318c-0.839-0.839-0.839-2.205 0-3.044s2.205-0.839 3.044 0l6.991 6.991c0.839 0.839 0.839 2.205 0 3.044z"></path>
</svg>
