<!-- Generated by IcoMoon.io -->
<svg version="1.1" xmlns="http://www.w3.org/2000/svg" width="32" height="32" viewBox="0 0 32 32">
<title>dotnet</title>
<path d="M7.965 10.229c0.045-0.020 0.090-0.040 0.135-0.058-0.045 0.018-0.090 0.038-0.135 0.058zM1.379 22.375h0.137c0.403 0 0.517 0 0.98 0h0.364c0.028 0 0.056 0 0.085 0 0.032 0 0.065 0 0.098 0 0 0 0.005 0 0.006 0 0.014 0 0.028 0 0.041 0 0.005 0 0.006 0 0.010 0 0.006 0 0.012 0.006 0.018 0.005 2.574-0.132 3.768-1.464 4.367-3.382 0.466-1.489 0.849-2.741 1.185-3.794-0 0-0 0.001-0 0.002 0.004-0.013 0.008-0.025 0.012-0.038 0.809-1.135 1.644-2.114 2.398-2.909v0c0 0 0.017 0 0.017-0 1.153 3.527 1.599 9.818 4.971 9.818 0.137 0 0.278 0.003 0.416-0.011-0.138 0.014-0.271 0.032-0.407 0.032h2.679c-0.189 0-0.369-0.029-0.542-0.064-0.11-0.022-0.216-0.057-0.32-0.092 0.104 0.035 0.21 0.062 0.32 0.084 0.173 0.035 0.353 0.052 0.542 0.052 0.497 0 0.911-0.037 1.273-0.156-0.362 0.118-0.777 0.175-1.273 0.175h2.62c0 0 0 0 0 0 0.022 0 0.045 0 0.067 0 0 0 0 0 0 0s0.001 0 0.002 0l0.001-0.006 0.989-0.009c-0.127 0-0.244-0.022-0.358-0.060 0.002-0.002 0.003-0.003 0.005-0.006 0.112 0.033 0.228 0.040 0.352 0.040 2.602 0 5.226-4.672 9.566-12.433h-1.704l0.001 0.069h-0.318c-1.6 2.841-2.718 5.269-3.668 7.209 0.949-1.942 2.067-4.368 3.666-7.209h-2.339c-0.045 0-0.089 0-0.133 0-0.043 0-0.084 0-0.125 0h-0.005c-0.086 0-0.17-0.012-0.253-0.006-0.001 0.001-0.001-0.007-0.002-0.006-2.513 0.152-3.688 1.427-4.28 3.321-1.035 3.309-1.662 5.451-2.265 6.818-0 0 0-0.001-0-0 0 0.003-0.002 0.003-0.002 0.004v-0.003c-0.277 0.27-0.565 0.518-0.847 0.742-0.147 0.117-0.294 0.227-0.442 0.332 0.124 0.148 0.25 0.287 0.383 0.414 0.202 0.195 0.417 0.36 0.652 0.487-0 0-0.001 0-0.001 0-0.235-0.127-0.451-0.292-0.652-0.487-0.133-0.127-0.259-0.266-0.383-0.414 0 0 0 0 0 0 0.148-0.104 0.295-0.215 0.441-0.332-0.811-1.796-1.282-4.849-2.156-7.225 0.874 2.376 1.346 5.429 2.156 7.225 0.281-0.224 0.564-0.471 0.846-0.742-1.172-3.51-1.591-9.892-4.987-9.892-0.239 0-0.481 0.022-0.722 0.066 0.241-0.045 0.482-0.067 0.722-0.067l-1.335-0.019c0.212 0 0.412 0.060 0.603 0.060-0 0-0 0-0 0-0.19 0-0.391-0.060-0.602-0.060-0.019 0-0.037-0.004-0.056-0.004 0.018-0 0.037-0.006 0.055-0.006h-5.371c-0.031 0-0.061-0.004-0.092-0.004-2.93 0-6.967 5.478-8.786 12.477 0 0 0.133 0 0.35 0 0 0 0 0 0 0 0.252 0 1.028 0 1.028 0zM27.002 9.926c-0 0-0 0-0 0-0.874 0.275-1.517 0.752-1.994 1.383 0.477-0.631 1.12-1.108 1.994-1.383zM22.896 21.69c-0.008 0.004-0.017 0.008-0.025 0.013-0.012 0.006-0.024 0.012-0.037 0.018-0.001 0-0.002 0.001-0.003 0.001 0.021-0.010 0.043-0.021 0.064-0.032zM22.54 21.848c0.005-0.004 0.011-0.004 0.017-0.006-0.006 0.003-0.011 0.004-0.016 0.006-0.012 0.005-0.024 0.009-0.035 0.014 0.011-0.004 0.023-0.008 0.034-0.013zM22.497 21.865c0 0 0-0 0-0s-0.001 0-0.001 0c0-0 0.001-0 0.001-0zM22.227 21.957c0.021-0.006 0.039-0.012 0.059-0.018 0.009-0.004 0.019-0.007 0.029-0.010 0.011-0.004 0.023-0.007 0.033-0.012 0.012-0.004 0.024-0.006 0.034-0.011 0.009-0.004 0.019-0.007 0.028-0.010 0.023-0.008 0.046-0.015 0.069-0.024 0.003 0 0.006-0.002 0.009-0.003-0.003 0.001-0.005 0.002-0.008 0.003-0.023 0.008-0.046 0.015-0.068 0.024-0.010 0.004-0.019 0.007-0.028 0.010-0.010 0.004-0.022 0.008-0.034 0.011-0.010 0.004-0.021 0.007-0.033 0.012-0.010 0.004-0.020 0.006-0.029 0.010-0.020 0.006-0.039 0.011-0.059 0.018-0.002 0-0.003 0.001-0.004 0.001 0.001-0 0.002-0.001 0.003-0.001zM8.1 10.179v-0.008c0 0 0.006 0.008 0.007 0.008h0c-0.057 0-0.114 0.040-0.17 0.064 0.009-0.004 0.018-0.009 0.027-0.014-0.045 0.020-0.091 0.040-0.136 0.061-0.024 0.012-0.049 0.023-0.073 0.035zM8.239 10.11v0zM8.628 9.993c-0.007 0.004-0.013 0.020-0.019 0.021-0.048 0.011-0.095 0.024-0.143 0.038-0.005 0-0.010 0.004-0.016 0.005-0.013 0.004-0.026 0.008-0.040 0.012 0.014-0.005 0.027-0.011 0.040-0.015 0.006 0 0.012-0.005 0.017-0.006 0.048-0.013 0.095-0.026 0.143-0.038 0.007 0 0.012-0.019 0.020-0.019 0.013-0.004 0.026-0.022 0.040-0.023-0.014 0.001-0.027 0.023-0.040 0.025zM8.69 9.986c-0.007 0.004-0.014 0.009-0.020 0.011 0.006-0.004 0.013-0.012 0.020-0.014 0.014-0.004 0.027-0.015 0.042-0.015-0.015 0-0.028 0.016-0.042 0.018zM9.214 9.97c-0.026-0.004-0.051-0.002-0.076-0.002-0.001 0-0.002 0-0.003 0 0.025 0 0.050-0.004 0.076-0 0.003 0 0.006-0.001 0.009-0.002-0.002 0.002-0.004 0.003-0.006 0.003zM9.28 9.936c-0.062 0-0.125 0.013-0.188 0.018 0.009 0 0.017 0.011 0.026 0.013-0.017-0.002-0.033-0.012-0.048-0.013 0.007-0.001 0.015-0.005 0.022-0.005-0.004-0-0.005-0.002-0.009-0.002-0.006-0.004-0.013-0.006-0.013-0.006v0.006c-0.069 0.004-0.065 0.006-0.095 0.008l-0.004-0.006c-0.008 0-0.015 0.004-0.023 0.004-0.012 0.004-0.026 0.004-0.039 0.005-0.008 0-0.015 0-0.023 0.004-0.014 0.004-0.027 0.006-0.040 0.009-0.001 0-0.002 0.001-0.003 0.001 0.001 0 0.002 0 0.003 0 0.014 0 0.026-0.007 0.040-0.009 0.008 0 0.015-0.005 0.023-0.005 0.013 0 0.026-0.005 0.039-0.006 0.007 0 0.013-0 0.021-0.004 0.025-0.004 0.052-0.005 0.078-0.007 0.005 0 0.010 0.001 0.015 0.001 0.073-0.006 0.145-0.009 0.217-0.009zM9.455 10.011c-0.048-0.013-0.098-0.022-0.149-0.032-0.005 0-0.009-0.003-0.013-0.003 0.004 0.001 0.008 0.002 0.011 0.002 0.049 0.010 0.1 0.020 0.148 0.032 0.002 0 0.003 0.001 0.005 0.001-0.001-0-0.002-0-0.002-0zM10.515 10.858v0c-0 0-0 0.001-0.001 0.001-0.153-0.258-0.32-0.474-0.506-0.633 0.003 0.001 0.005 0.003 0.008 0.004 0.183 0.159 0.348 0.373 0.499 0.628 0-0 0 0-0 0zM10.753 11.317v0zM13.472 10c0.195-0.037 0.39-0.060 0.584-0.069-0.193 0.009-0.388 0.033-0.584 0.070zM11.565 11.842c-0.002-0.003-0.003-0.006-0.005-0.009 0.002 0.003 0.003 0.006 0.005 0.009v0zM14.061 10.22c-0.308 0.114-0.616 0.262-0.925 0.442 0.309-0.179 0.617-0.327 0.925-0.442 0.21-0.078 0.419-0.139 0.628-0.186-0.21 0.047-0.419 0.109-0.628 0.187zM14.852 9.999v0 0 0zM17.196 21.924c0.127-0.034 0.254-0.073 0.382-0.118 0 0 0 0 0 0-0.127 0.045-0.255 0.084-0.382 0.118zM20.478 21.711c-0 0-0 0-0.001 0-0.008 0.004-0.015 0.008-0.023 0.012 0.008-0.004 0.016-0.008 0.023-0.013zM21.156 22.061c-0.309-0.036-0.585-0.128-0.837-0.264 0.253 0.136 0.528 0.227 0.837 0.264 0.045 0.004 0.090 0.009 0.137 0.012-0.047-0.003-0.092-0.008-0.137-0.012zM21.134 21.142l0.001-0.006c0-0 0-0.001 0.001-0.001 0.17 0.289 0.359 0.527 0.57 0.692-0.212-0.161-0.401-0.394-0.572-0.685zM21.617 22.073c-0.008 0.004-0.016 0.004-0.025 0.004-0.001 0-0.001 0-0.002 0 0.008 0 0.017 0 0.025-0.004 0.016 0 0.033 0 0.049-0.004 0.002 0 0.002 0 0.003 0-0.017 0.004-0.034 0.004-0.050 0.004zM21.822 22.050c-0.018 0.003-0.038 0.005-0.057 0.009-0.005 0-0.011 0.004-0.016 0.004-0 0-0.005 0-0.005 0-0.018 0.002-0.036 0.006-0.053 0.006-0.001 0-0.002 0-0.003 0 0.017 0 0.035-0.004 0.054-0.006h0.004c0.005 0 0.011-0.004 0.016-0.004 0.019-0.004 0.039-0.006 0.057-0.009 0.002 0 0.003 0 0.004 0-0.001 0-0.002 0-0.002 0z"></path>
</svg>
