<!-- Generated by IcoMoon.io -->
<svg version="1.1" xmlns="http://www.w3.org/2000/svg" width="32" height="32" viewBox="0 0 32 32">
<title>dreamweaver</title>
<path d="M0 0c0 10.667 0 21.333 0 32 10.667 0 21.333 0 32 0 0-10.667 0-21.333 0-32-10.667 0-21.333 0-32 0zM29.496 29.441c-8.972 0-17.921 0-26.897 0 0-8.942 0-17.866 0-26.811 8.972 0 17.92 0 26.897 0 0 8.93 0 17.854 0 26.811z"></path>
<path d="M4.795 15.712c-0-2.096 0.001-4.192-0.002-6.288-0-0.19-0.007-0.34 0.256-0.374 1.789-0.233 3.581-0.396 5.365-0.019 2.413 0.51 3.88 2.013 4.402 4.413 0.336 1.543 0.271 3.090-0.165 4.608-0.677 2.357-2.241 3.781-4.636 4.279-1.665 0.346-3.343 0.245-5.020 0.086-0.204-0.019-0.201-0.144-0.201-0.288 0.001-0.638-0-1.277-0-1.915-0-1.5 0-3.001-0-4.501zM6.955 15.713c-0.001 0-0.002 0-0.003 0 0 0.756-0 1.511 0 2.266s0.009 1.511-0.005 2.266c-0.005 0.245 0.072 0.349 0.319 0.348 0.436-0.002 0.874 0.042 1.307 0.011 2.107-0.149 3.383-1.18 3.908-3.19 0.325-1.243 0.348-2.507 0.027-3.757-0.299-1.163-0.955-2.062-2.085-2.547-1.052-0.452-2.15-0.449-3.261-0.281-0.238 0.036-0.208 0.192-0.208 0.351 0.001 1.511 0 3.022 0 4.533z"></path>
<path d="M21.432 15.447c-0.076 0.4-0.131 0.805-0.23 1.2-0.465 1.855-0.942 3.706-1.411 5.56-0.044 0.172-0.146 0.205-0.303 0.203-0.479-0.006-0.958-0.013-1.436 0.004-0.225 0.008-0.313-0.073-0.366-0.288-0.28-1.135-0.577-2.265-0.866-3.398-0.475-1.864-0.948-3.729-1.421-5.593-0.031-0.121-0.050-0.245-0.087-0.427 0.491 0 0.944 0 1.397 0 0.725-0 0.736-0.002 0.869 0.706 0.406 2.151 0.802 4.303 1.203 6.455 0.019 0.103 0.048 0.204 0.122 0.309 0.11-0.513 0.21-1.029 0.333-1.54 0.454-1.891 0.918-3.78 1.369-5.672 0.051-0.213 0.155-0.267 0.355-0.261 0.383 0.012 0.767 0.016 1.149-0.002 0.229-0.011 0.314 0.082 0.362 0.295 0.528 2.342 1.064 4.683 1.598 7.024 0.011 0.049 0.025 0.098 0.098 0.154 0.032-0.167 0.064-0.334 0.097-0.502 0.441-2.231 0.883-4.461 1.319-6.693 0.039-0.201 0.122-0.282 0.337-0.277 0.572 0.014 1.145 0.005 1.774 0.005-0.134 0.517-0.254 0.996-0.382 1.471-0.713 2.636-1.432 5.271-2.139 7.909-0.063 0.233-0.148 0.335-0.402 0.322-0.435-0.022-0.873-0.018-1.308-0.001-0.242 0.009-0.355-0.063-0.412-0.314-0.489-2.133-0.993-4.263-1.492-6.394-0.020-0.086-0.042-0.172-0.063-0.258-0.021 0-0.042 0.001-0.064 0.001z"></path>
</svg>
