<!-- Generated by IcoMoon.io -->
<svg version="1.1" xmlns="http://www.w3.org/2000/svg" width="28" height="32" viewBox="0 0 28 32">
<title>dribbble-sp</title>
<path d="M5.638 14.262c0.556-2.65 2.337-4.856 4.731-5.981 0.225 0.306 1.75 2.425 3.169 4.938-4 1.063-7.519 1.050-7.9 1.044zM19.663 9.625c-2.1-1.862-4.956-2.569-7.662-1.912 0.238 0.319 1.787 2.431 3.188 5 3.037-1.144 4.319-2.869 4.475-3.088zM8.756 22.75c2.531 1.975 5.831 2.294 8.581 1.125-0.125-0.75-0.625-3.363-1.825-6.475-3.444 1.175-5.863 3.525-6.756 5.35zM14.931 15.988c-0.213-0.488-0.45-0.969-0.694-1.45-4.262 1.275-8.4 1.225-8.775 1.213 0 0.088-0.006 0.175-0.006 0.263 0 2.194 0.831 4.194 2.194 5.712 1.387-2.369 4.194-4.869 7.281-5.738zM17.113 17.006c1.119 3.069 1.569 5.569 1.656 6.087 1.919-1.294 3.281-3.35 3.663-5.725-0.288-0.094-2.644-0.794-5.319-0.363zM15.844 13.981c0.3 0.613 0.519 1.113 0.75 1.675 2.844-0.356 5.669 0.213 5.95 0.275-0.019-2.019-0.738-3.869-1.931-5.319-0.181 0.244-1.613 2.075-4.769 3.369zM28 5v22c0 1.656-1.344 3-3 3h-22c-1.656 0-3-1.344-3-3v-22c0-1.656 1.344-3 3-3h22c1.656 0 3 1.344 3 3zM24 16c0-5.512-4.488-10-10-10s-10 4.488-10 10 4.488 10 10 10 10-4.488 10-10z"></path>
</svg>
