<!-- Generated by IcoMoon.io -->
<svg version="1.1" xmlns="http://www.w3.org/2000/svg" width="30" height="32" viewBox="0 0 30 32">
<title>earlybirds</title>
<path d="M19.575 2.969c0.075-0.813 1.331-0.875 2.288-0.544 0.056 0.019 1.637 0.606 1.188 0.95-1.744-0.462-3.525 1.138-3.475-0.406zM7.013 3.4c1.919-0.506 3.875 1.25 3.819-0.444-0.081-0.888-1.463-0.956-2.512-0.6-0.063 0.019-1.794 0.656-1.306 1.044zM19.962 10c-0.55 0-1 0.45-1 1s0.45 1 1 1 1-0.45 1-1-0.45-1-1-1zM9.981 10c-0.55 0-1 0.45-1 1s0.45 1 1 1 1-0.45 1-1-0.45-1-1-1zM29.887 20.2c-0.619 1.5-2.544 0.688-3.994-0.075-0.844 4.319-3.631 6.962-7.894 7.762 0.019 0.056-0.125-0.006 1.5 0.063 2.1 0.087 3.988-0.194 6.087-0.5-1.238-0.863-0.712-2.319-0.613-2.381 0.087-0.056 0.919 0.106 1.35 0.719 0.538-0.781 1.775-0.925 1.887-0.85 0.1 0.069 0.413 1.306-0.431 2.163 0.294-0.056 0.512-0.1 0.613-0.131 0.163-0.050 1.106 0.706 0.194 0.831-0.894 0.144-1.413 0.319-2.944 0.675-2.869 0.669-5.369 0.738-7.356 0.8l0.063 0.725c0.238 1.131-1.462 1.519-1.725 0.387 0.050 1.119-1.694 1.363-1.775-0.063l-0.031 0.331c-0.044 1.15-1.775 1.119-1.769-0.038-0.469 0.844-1.756 0.425-1.65-0.531l0.075-0.775c-2.294 0.056-3.731 0.194-3.862 0.194-1.306 0-1.306-1.975 0-1.975 0.15 0 1.731 0.081 3.95 0.175-3.819-0.969-6.481-3.438-7.181-7.387-1.563 0.8-3.594 1.675-4.263 0.050-0.656-1.587 1.344-2.663 4.175-4.588 0.044-0.412 0.1-0.831 0.169-1.238-0.9-1.225-0.725-2.269-1.006-3.775-1.050 0.15-1.45-0.569-1.475-1.444 0.019-0.456 0.131-0.931 0.15-0.963 0.069-0.113 0.631-0.125 0.794-0.162 0.375-1.981 3.162-2.075 5.681-2.156 1.231-1.362 2.825-2.594 5.056-3.019-0.956-1.212-0.213-2.494-0.15-2.525 0.106-0.050 1.325 0.269 1.644 1.45 0.325-0.55 1.144-0.713 1.225-0.669 0.069 0.038 0.4 0.938-0.306 1.619 2.519 0.219 4.512 1.544 6 3.169 2.256 0.094 4.488 0.369 4.819 2.125 0.169 0.037 0.725 0.050 0.794 0.162 0.019 0.031 0.131 0.506 0.15 0.963-0.031 0.869-0.425 1.588-1.475 1.444-0.2 1.081-0.169 2.056-0.544 2.981 0.15 0.731 0.25 1.488 0.3 2.275 2.313 1.587 4.394 2.656 3.769 4.181zM12.963 9.994c0.056-2.75-2.369-2.638-4.912-2.519-1.356 0.063-2.431 0.119-2.844 0.869-0.713 1.306 0.369 5.806 1.45 6.325 0.612 0.294 4.588 0.494 5.394-0.444 0.512-0.588 0.938-3.088 0.912-4.231zM16.212 13.637c-0.269-0.775-0.375-1.881-0.956-2.044-0.125-0.031-0.563-0.031-0.688 0-0.625 0.175-0.675 1.381-1.063 2.325 0.963 0 1.206 0.606 1.481 0.606 0.269 0 0.394-0.706 1.225-0.887zM24.694 8.344c-0.413-0.756-1.55-0.806-2.906-0.869-2.512-0.119-4.887-0.237-4.831 2.519-0.031 1.144 0.313 3.644 0.825 4.238 0.813 0.931 4.788 0.738 5.394 0.444 0.988-0.475 2.281-4.931 1.519-6.331z"></path>
</svg>
