<!-- Generated by IcoMoon.io -->
<svg version="1.1" xmlns="http://www.w3.org/2000/svg" width="40" height="32" viewBox="0 0 40 32">
<title>ebay</title>
<path d="M37.875 11.844l-3.425 6.869-3.431-6.869h-2.344l0.681 1.287c-0.719-1.188-2.244-1.625-3.956-1.625-1.988 0-4.244 0.544-4.469 2.694h2.106c0.087-0.863 0.981-1.363 2.188-1.363 1.625 0 2.563 0.6 2.563 2.063v0.213c-0.794 0-1.75 0.006-2.606 0.025-2.65 0.056-4.35 0.625-4.794 2.15 0.063-0.325 0.094-0.663 0.094-1.012 0-3.256-2.481-4.762-4.713-4.762-1.331 0-2.688 0.344-3.669 1.512v-5.037h-2.006v10.594c0 0.644-0.037 1.431-0.069 2.069h1.969c0.044-0.394 0.069-0.806 0.069-1.219 0.85 1.038 2.213 1.556 3.669 1.556 2.306 0 4.056-1.369 4.581-3.387-0.031 0.175-0.044 0.363-0.044 0.563 0 1.506 1.319 2.813 3.788 2.813 1.663 0 2.863-0.356 3.869-1.594 0 0.413 0.019 0.831 0.069 1.262h1.863c-0.044-0.512-0.063-1.094-0.063-1.675v-4.1c0-0.581-0.106-1.075-0.3-1.488l3.844 7.256-1.781 3.381h2.244l6.2-12.175zM15.231 19.613c-1.85 0-3.137-1.344-3.137-3.363 0-2.025 1.287-3.363 3.137-3.363 1.863 0 3.137 1.338 3.137 3.363 0 2.019-1.275 3.363-3.137 3.363zM27.788 16.656c0 1.875-1.119 3.025-3.225 3.025-1.569 0-2.188-0.837-2.188-1.613 0-1.194 1.131-1.525 2.95-1.581 0.819-0.031 1.725-0.038 2.462-0.038zM2.044 16.756h8.050v-0.531c0-3.231-2.069-4.713-4.9-4.713-3.55 0-5.188 1.925-5.188 4.85 0 2.656 1.581 4.625 5.156 4.625 1.963 0 4.25-0.731 4.65-2.881h-2.069c-0.75 2.238-5.481 2.294-5.7-1.35zM7.981 15.419h-5.9c0.431-3.537 5.756-3.419 5.9 0z"></path>
</svg>
