<!-- Generated by IcoMoon.io -->
<svg version="1.1" xmlns="http://www.w3.org/2000/svg" width="32" height="32" viewBox="0 0 32 32">
<title>eclipse</title>
<path d="M2.609 16.418c-0.203-7.5 5.411-14.119 12.707-15.315-5.735 0.094-10.301 2.44-13.178 7.457-3.037 5.295-2.828 10.698 0.558 15.776 2.977 4.464 7.346 6.525 12.68 6.56-7.509-1.285-12.585-7.743-12.767-14.478z"></path>
<path d="M4.112 11.466c-0.157 0.414-0.137 0.422 0.316 0.422 8.838 0 17.676 0 26.514 0 0.16 0 0.32 0 0.479 0 0.004-0.043 0.014-0.067 0.008-0.088-0.027-0.101-0.056-0.202-0.089-0.301-1.073-3.197-3.088-5.675-5.869-7.525-3.156-2.1-6.668-2.702-10.343-2.013-5.475 1.026-9.065 4.343-11.015 9.505z"></path>
<path d="M3.844 13.498c-0.184-0.028-0.235 0.063-0.257 0.229-0.055 0.416-0.104 0.832-0.131 1.252-0.011 0.172 0.021 0.219 0.196 0.218 1.459-0.010 2.918-0.012 4.377-0.016 0.081 0.004 0.163 0.011 0.244 0.011 6.308 0.001 12.616 0.001 18.924 0 0.081 0 0.163-0.007 0.244-0.011 1.447 0.004 2.895 0.003 4.342 0.017 0.209 0.002 0.23-0.088 0.213-0.247-0.043-0.382-0.108-0.764-0.122-1.147-0.010-0.269-0.115-0.311-0.361-0.311-9.141 0.007-18.282 0.006-27.422 0.006-0.082 0-0.165 0.010-0.245-0.002z"></path>
<path d="M31.783 16.802c-1.447 0.009-2.895 0.011-4.342 0.015-0.081-0.004-0.163-0.011-0.244-0.011-6.308-0.001-12.617-0.001-18.925 0-0.081 0-0.163 0.008-0.244 0.011-1.457-0.004-2.913-0.006-4.37-0.015-0.162-0.001-0.217 0.027-0.204 0.21 0.031 0.43 0.073 0.858 0.139 1.284 0.020 0.128 0.042 0.206 0.205 0.205 1.503-0.012 3.006-0.014 4.509-0.020 0.093 0.006 0.186 0.015 0.278 0.015 6.098 0.001 12.197 0.001 18.296 0 0.093 0 0.186-0.010 0.279-0.015 1.494 0.005 2.988 0.010 4.482 0.017 0.118 0 0.199-0.019 0.212-0.164 0.041-0.441 0.090-0.881 0.142-1.321 0.021-0.174-0.050-0.212-0.213-0.211zM8.169 17.857c-0.001-0.003-0.002-0.006-0.003-0.008 0.001 0.001 0.003 0.002 0.004 0.003-0 0.002-0.001 0.003-0.001 0.005z"></path>
<path d="M31.112 20.113c-8.919-0.007-17.837-0.007-26.756-0.004-0.106 0-0.233-0.062-0.32 0.059v0c-0.027 0.148 0.052 0.273 0.095 0.403 1.893 5.664 8.115 11.201 16.785 9.37 3.505-0.74 6.213-2.733 8.365-5.533 0.945-1.229 1.668-2.581 2.093-4.081 0.162-0.37-0.158-0.215-0.262-0.215z"></path>
</svg>
