<!-- Generated by IcoMoon.io -->
<svg version="1.1" xmlns="http://www.w3.org/2000/svg" width="32" height="32" viewBox="0 0 32 32">
<title>edge1</title>
<path d="M30.12 8.405c-2.566-5.019-8.104-7.905-14.126-7.905-7.429 0-13.65 5.23-15.152 12.229 1.625-2.906 5.389-4.946 9.341-4.946 4.954 0 7.568 3.058 7.641 3.136 1.375 1.488 2.063 3.149 2.063 5.194 0 0.65-0.332 1.614-0.944 2.411-0.098 0.125-0.399 0.302-0.399 0.688 0 0.316 0.206 0.62 0.571 0.875 1.741 1.211 5.023 1.051 5.032 1.051 1.352-0.004 2.616-0.379 3.696-1.029l-0.032 0.018c2.215-1.311 3.678-3.685 3.684-6.402v-0.001c0.031-2.714-0.969-4.519-1.373-5.317zM13.298 29.729c-1.17-0.736-2.143-1.676-2.893-2.779l-0.022-0.034c-2.059-2.964-2.14-5.975-1.256-8.5 0.657-2.032 1.902-3.72 3.533-4.913l0.027-0.019c3.687-2.825 5.928-0.353 6.191-0.063-0.1-0.249-0.202-0.458-0.318-0.658l0.013 0.024c-0.578-0.996-1.5-2.276-3.535-3.344-2.107-1.106-4.412-1.162-4.852-1.162-2.419 0-4.869 0.813-6.721 2.231-1.235 0.944-2.667 2.533-2.928 4.675-0.068 0.769-0.172 3.925 1.438 7.392 2.534 5.315 7.863 8.922 14.035 8.922 0.523 0 1.039-0.026 1.548-0.076l-0.064 0.005c-2.383-0.414-4.116-1.665-4.196-1.701zM28.968 23.584c-0.074-0.047-0.163-0.075-0.26-0.075-0.086 0-0.168 0.023-0.238 0.062l0.002-0.001c-0.344 0.186-0.765 0.378-1.198 0.544l-0.078 0.026c-1.285 0.495-2.772 0.783-4.325 0.783-0.008 0-0.015 0-0.023-0h0.001c-5.729 0-10.72-3.941-10.72-9 0.008-0.611 0.157-1.185 0.418-1.693l-0.010 0.022c-0.982 0.869-1.793 1.905-2.395 3.066l-0.028 0.059c-0.932 1.836-2.063 5.508 0.833 9.479 0.407 0.557 1.438 1.875 3.5 2.979 1.473 0.791 3.062 1.226 4.481 1.226 2.196 0 7.214-2.090 10.188-6.804 0.048-0.074 0.076-0.164 0.076-0.261 0-0.172-0.089-0.322-0.224-0.408l-0.002-0.001z"></path>
</svg>
