<!-- Generated by IcoMoon.io -->
<svg version="1.1" xmlns="http://www.w3.org/2000/svg" width="40" height="32" viewBox="0 0 40 32">
<title>ember</title>
<path d="M39.994 15.912c-0.069-0.669-0.669-0.425-0.669-0.425s-0.975 0.756-1.831 0.669c-0.856-0.081-0.587-2-0.587-2s0.188-1.756-0.319-1.9c-0.506-0.15-1.125 0.456-1.125 0.456s-0.775 0.856-1.144 1.95l-0.1 0.031s0.119-1.912-0.019-2.35c-0.1-0.219-1.025-0.2-1.175 0.188s-0.888 3.075-0.938 4.2c0 0-1.444 1.225-2.706 1.425s-1.563-0.587-1.563-0.587 3.425-0.956 3.306-3.694-2.762-1.725-3.063-1.5c-0.288 0.219-1.837 1.15-2.288 3.731-0.012 0.087-0.044 0.469-0.044 0.469s-1.325 0.887-2.063 1.125c0 0 2.063-3.475-0.456-5.056-0.712-0.425-1.331-0.031-1.7 0.331 0.85-1.081 2.9-4.013 2.306-6.575-0.363-1.525-1.125-1.694-1.825-1.444-1.063 0.419-1.469 1.044-1.469 1.044s-1.375 2-1.694 4.969-0.788 6.569-0.788 6.569-0.656 0.637-1.262 0.669-0.337-1.794-0.337-1.794 0.469-2.787 0.438-3.256-0.069-0.725-0.619-0.887c-0.556-0.169-1.156 0.537-1.156 0.537s-1.594 2.419-1.731 2.787l-0.081 0.15-0.081-0.1s1.125-3.294 0.050-3.344-1.781 1.175-1.781 1.175-1.225 2.050-1.275 2.281l-0.081-0.1s0.506-2.387 0.4-2.975c-0.1-0.588-0.656-0.469-0.656-0.469s-0.706-0.081-0.887 0.369-0.856 3.456-0.938 4.419c0 0-1.763 1.262-2.925 1.275-1.156 0.019-1.044-0.738-1.044-0.738s4.25-1.456 3.088-4.325c-0.519-0.738-1.125-0.969-1.981-0.956-0.856 0.019-1.894 0.537-2.581 2.081-0.331 0.738-0.425 1.438-0.487 1.969 0 0-0.769 0.15-1.175-0.181s-0.625 0-0.625 0-0.7 0.875-0.006 1.144 1.756 0.381 1.756 0.381c0.1 0.469 0.388 1.219 1.225 1.856 1.262 0.956 3.675-0.081 3.675-0.081l0.994-0.55s0.031 0.913 0.756 1.044 1.025 0.063 2.281-2.994c0.738-1.563 0.787-1.475 0.787-1.475l0.081-0.019s-0.569 2.925-0.35 3.731c0.219 0.8 1.175 0.712 1.175 0.712s0.519 0.15 0.938-1.325 1.225-3.119 1.225-3.119h0.1s-0.35 3.006 0.188 3.981 1.931 0.331 1.931 0.331 0.975-0.488 1.125-0.637c0 0 1.156 0.988 2.788 0.806 3.644-0.719 4.944-1.619 4.944-1.619s0.625 1.525 2.569 1.669c2.219 0.169 3.425-1.163 3.425-1.163s-0.019 0.844 0.756 1.163 1.294-1.425 1.294-1.425l1.294-3.575h0.119s0.069 2.331 1.344 2.7 2.938-0.856 2.938-0.856 0.4-0.219 0.331-0.894zM3.869 16.244c0.050-2 1.363-2.869 1.813-2.438 0.456 0.438 0.287 1.375-0.569 1.963-0.856 0.594-1.244 0.475-1.244 0.475zM20.919 8.506s1.194-3.106 1.475-1.594-2.5 6.013-2.5 6.013c0.031-1.012 1.025-4.419 1.025-4.419zM22.344 17.156c-0.788 2.063-2.706 1.225-2.706 1.225s-0.219-0.738 0.4-2.806 2.081-1.262 2.081-1.262 1.012 0.775 0.225 2.844zM27.631 16.244s-0.188-0.656 0.506-1.912c0.688-1.262 1.225-0.569 1.225-0.569s0.587 0.637-0.081 1.594-1.65 0.887-1.65 0.887z"></path>
</svg>
