<!-- Generated by IcoMoon.io -->
<svg version="1.1" xmlns="http://www.w3.org/2000/svg" width="28" height="32" viewBox="0 0 28 32">
<title>envira</title>
<path d="M0 2c29.85 0 22.913 19.831 22.944 22.894l5.056 5.106h-1.625l-4.4-4.45c-2.438 0.262-7.775 2.156-13.4-2.313-5.638-4.469-5.325-9.819-8.575-21.238zM4.981 4.875c-3.106-1.469-0.325 0.575-0.325 0.575 2.825 1.95 4.125 4.606 5.637 7.494 1.969 3.762 4.938 8.731 9.012 10.481 4.063 1.75 2.137 0.781 0.375-0.531-1.762-1.325-4.262-5.438-5.688-8.137-1.981-3.75-3.813-7.412-9.012-9.881z"></path>
</svg>
