<!-- Generated by IcoMoon.io -->
<svg version="1.1" xmlns="http://www.w3.org/2000/svg" width="40" height="32" viewBox="0 0 40 32">
<title>erlang</title>
<path d="M5.45 3.344h-5.45v25.313h6.275c-3.106-3.288-4.925-7.831-4.919-13.256-0.006-4.794 1.5-8.919 4.094-12.056zM20.337 3.95c-2.869 0.006-5.319 2.094-5.575 5.2h10.619c-0.069-3.106-2.156-5.194-5.044-5.2zM34.756 3.35h0.019l-0.006-0.006zM34.775 3.35c1.962 2.669 3.044 6.094 2.888 10.169 0.031 0.375 0.031 0.731 0 1.506h-23.275c-0.012 6.856 2.431 12.181 8.663 12.206 4.281-0.019 7.375-3.188 9.494-6.631l6.025 3.012c-1.087 1.931-2.281 3.613-3.619 5.050h5.050v-25.313z"></path>
</svg>
