<!-- Generated by IcoMoon.io -->
<svg version="1.1" xmlns="http://www.w3.org/2000/svg" width="32" height="32" viewBox="0 0 32 32">
<title>eslint</title>
<path d="M9.746 12.016l6.071-3.505c0.070-0.041 0.155-0.066 0.246-0.066s0.175 0.024 0.248 0.067l-0.002-0.001 6.071 3.505c0.148 0.087 0.246 0.245 0.246 0.425v0 7.011c0 0.175-0.094 0.337-0.246 0.425l-6.071 3.505c-0.070 0.041-0.155 0.066-0.246 0.066s-0.175-0.024-0.248-0.067l0.002 0.001-6.071-3.505c-0.148-0.087-0.246-0.244-0.246-0.425v0-7.011c0-0.175 0.094-0.338 0.246-0.425z"></path>
<path d="M31.802 15.372l-7.262-12.633c-0.264-0.457-0.751-0.794-1.278-0.794h-14.524c-0.527 0-1.015 0.337-1.279 0.794l-7.262 12.606c-0.264 0.457-0.264 1.034 0 1.49l7.262 12.53c0.264 0.457 0.751 0.69 1.279 0.69h14.524c0.527 0 1.015-0.227 1.278-0.683l7.262-12.55c0.264-0.457 0.264-0.992 0-1.449zM25.789 21.447c0 0.186-0.112 0.358-0.273 0.45l-9.25 5.337c-0.075 0.044-0.165 0.070-0.262 0.070s-0.186-0.026-0.264-0.071l0.002 0.001-9.257-5.337c-0.161-0.093-0.273-0.265-0.273-0.451v-10.674c0-0.186 0.111-0.357 0.272-0.45l9.249-5.337c0.075-0.044 0.165-0.070 0.262-0.070s0.186 0.026 0.264 0.071l-0.002-0.001 9.258 5.337c0.161 0.093 0.274 0.265 0.274 0.45v10.674z"></path>
</svg>
