<!-- Generated by IcoMoon.io -->
<svg version="1.1" xmlns="http://www.w3.org/2000/svg" width="24" height="32" viewBox="0 0 24 32">
<title>etsy</title>
<path d="M24 21.75c-0.109 0.672-0.859 6.875-0.969 8.25-7.367-0.269-13.743-0.296-23.031 0v-1.594c2.841-0.559 3.789-0.501 3.813-2.203 0.112-4.52 0.22-15.259 0-20.125-0.064-1.779-0.758-1.673-3.813-2.25v-1.594c4.618 0.147 15.996 0.534 22.687-0.234-0.219 2.391-0.484 7.906-0.484 7.906h-1.453c-0.691-2.677-1.172-5.656-3.422-5.656h-8.563c-0.641 0-0.672 0.219-0.672 0.609v10.234c3.625 0.031 5.531-0.156 5.531-0.156 1.861-0.059 1.723-0.531 2.547-4.078h1.609c-0.275 6.334-0.244 3.864-0.109 10.016h-1.609c-0.572-2.505-0.567-3.815-2.469-3.844 0 0-1.344-0.125-5.5-0.125v8.688c0 1.625 0.891 2.391 2.766 2.391h5.578c3.977 0 4.16-1.562 6.172-6.234h1.391z"></path>
</svg>
