<!-- Generated by IcoMoon.io -->
<svg version="1.1" xmlns="http://www.w3.org/2000/svg" width="32" height="32" viewBox="0 0 32 32">
<title>express-sp</title>
<path d="M31.513 24.533c-1.128 0.287-1.827 0.012-2.453-0.928l-4.454-6.162-0.644-0.853-5.202 7.036c-0.594 0.847-1.218 1.215-2.327 0.915l6.661-8.941-6.201-8.077c1.066-0.207 1.803-0.102 2.458 0.853l4.62 6.239 4.654-6.205c0.596-0.847 1.237-1.168 2.308-0.856l-2.404 3.188-3.258 4.242c-0.388 0.485-0.335 0.817 0.022 1.284l6.221 8.265zM0.495 15.45l0.545-2.68c1.483-5.304 7.563-7.507 11.755-4.23 2.45 1.927 3.059 4.654 2.938 7.708h-13.81c-0.207 5.497 3.749 8.815 8.794 7.123 1.769-0.594 2.812-1.98 3.333-3.713 0.265-0.869 0.703-1.004 1.519-0.756-0.417 2.168-1.357 3.979-3.345 5.113-2.97 1.697-7.209 1.148-9.439-1.21-1.328-1.368-1.877-3.102-2.123-4.956-0.039-0.306-0.116-0.598-0.174-0.892 0.005-0.502 0.008-1.003 0.008-1.505v-0.001zM1.947 15.082h12.48c-0.081-3.975-2.557-6.799-5.94-6.823-3.713-0.029-6.38 2.727-6.541 6.823h0z"></path>
</svg>
