<!-- Generated by IcoMoon.io -->
<svg version="1.1" xmlns="http://www.w3.org/2000/svg" width="32" height="32" viewBox="0 0 32 32">
<title>extjs</title>
<path d="M16.5 0.612c0.093 0.012 0.205 0.062 0.294 0.108 0.921 0.471 1.529 0.754 1.737 1.703 0.333 1.521 1.338 2.395 2.765 2.87 1.012 0.336 1.953 0.192 2.873-0.322 1.372-0.766 1.872-0.673 3.058 0.504 1.13 1.122 1.316 1.888 0.55 3.153-1.289 2.131 0.098 5.306 2.271 5.88 1.791 0.473 2.52 2.78 1.459 4.362-0.247 0.369-0.764 0.648-1.211 0.776-1.793 0.512-2.769 1.739-2.979 3.502-0.089 0.748 0.167 1.572 0.406 2.316 0.228 0.711 0.718 1.352 0.267 2.221-1.624-1.534-3.218-3.040-4.838-4.57 1.712-2.307 2.376-4.847 1.926-7.619-0.368-2.27-1.417-4.218-3.191-5.717-3.432-2.901-8.182-2.948-11.585-0.208-3.225 2.596-5.3 8.336-1.524 13.568-1.524 1.572-3.041 3.135-4.583 4.726-0.53-0.457-0.515-0.979-0.365-1.516 0.069-0.248 0.188-0.488 0.319-0.712 0.959-1.639 0.648-3.185-0.34-4.676-0.471-0.71-1.193-1.050-1.978-1.306-1.745-0.57-2.445-3.157-1.199-4.537 0.281-0.311 0.738-0.557 1.153-0.637 2.388-0.458 3.695-3.729 2.55-5.682-0.892-1.521-0.748-2.208 0.762-3.639 0.918-0.87 1.531-0.973 2.62-0.308 1.351 0.825 2.637 0.728 3.97 0.015 0.816-0.437 1.443-1.054 1.648-1.95 0.3-1.31 0.938-2.197 2.36-2.332 0.285-0 0.229-0.049 0.806 0.027z"></path>
<path d="M27.625 31.416c-7.751 0-15.517 0-23.213 0 3.866-3.885 7.758-7.796 11.594-11.651 3.841 3.851 7.72 7.741 11.618 11.651z"></path>
</svg>
