<!-- Generated by IcoMoon.io -->
<svg version="1.1" xmlns="http://www.w3.org/2000/svg" width="32" height="32" viewBox="0 0 32 32">
<title>fantasy-flight-games</title>
<path d="M16 2.054l-13.946 13.946 13.946 13.946 13.946-13.946-13.946-13.946zM5.521 15.989c0.122-0.125 0.745-0.769 6.031-6.092 2.591-2.609 5.387-2.736 7.486-1.168 1.539 1.15 3.879 3.681 3.884 3.688 0.043 0.046 0.067 0.179 0.036 0.211-0.704 0.74-1.418 1.471-2.094 2.168-2.138-2.019-2.532-2.39-3.032-2.747-1.111-0.793-2.588-0.633-3.561 0.319-0.136 0.133-0.112 0.214 0.008 0.334 0.184 0.184 1.756 1.771 2.193 2.236-0.747 0.725-1.479 1.436-2.231 2.166-0.751-0.784-1.53-1.596-2.284-2.382-1.337 1.318-2.606 2.569-3.866 3.812-1.078-1.066-1.916-1.895-2.753-2.725l0.182 0.18zM20.198 22.339c-2.218 2.214-4.881 2.384-6.687 1.279-1.38-0.844-2.461-2.005-4.558-4.178 0.753-0.773 1.487-1.526 2.211-2.269 2.064 1.994 2.316 2.251 2.793 2.631 1.155 0.921 2.657 0.854 3.707-0.113 0.23-0.212 0.231-0.227 0.009-0.453-0.662-0.671-1.324-1.34-1.986-2.011-0.082-0.084-0.189-0.155-0.050-0.293 0.674-0.669 1.342-1.345 2.013-2.018 0.016-0.016 0.041-0.024 0.119-0.067 0.773 0.804 1.558 1.62 2.328 2.422 1.313-1.296 2.578-2.543 3.828-3.776 0.855 0.838 1.696 1.661 2.554 2.502-1.261 1.304-5.105 5.169-6.281 6.344zM16 0l-16 16 16 16 16-16-16-16zM1 16l15-15 15 15-15 15-15-15z"></path>
</svg>
