<!-- Generated by IcoMoon.io -->
<svg version="1.1" xmlns="http://www.w3.org/2000/svg" width="40" height="32" viewBox="0 0 40 32">
<title>fedex</title>
<path d="M36.625 17.781l3.331-3.744h-3.9l-1.356 1.55-1.406-1.55h-7.419v-1h3.506v-3.006h-9.45v4.719h-0.031c-0.6-0.688-1.344-0.925-2.212-0.925-1.775 0-3.113 1.213-3.581 2.806-1.125-3.713-6.088-3.6-7.619-0.875v-1.512h-3.425v-1.637h3.75v-2.569h-6.813v11.525h3.063v-4.844h3.056c-0.094 0.356-0.144 0.738-0.144 1.137 0 4.569 6.413 5.713 8.137 1.481h-2.625c-0.919 1.306-2.863 0.556-2.863-0.913h5.344c0.231 1.906 1.713 3.556 3.756 3.556 0.881 0 1.688-0.431 2.181-1.163h0.031v0.744h13.262l1.381-1.563 1.394 1.563h4.025l-3.375-3.781zM8.706 16.744c0.381-1.644 2.606-1.6 2.906 0h-2.906zM18.294 19.8c-2.163 0-2.125-3.925 0-3.925 2.038 0 2.156 3.925 0 3.925zM28.781 20.994h-5.9v-10.406h5.938v1.887h-3.506v2.119h3.469v1.756h-3.506v2.794h3.506v1.85zM25.913 18.506v-1.525h3.506v-2.75l3.169 3.563-3.169 3.563v-2.85h-3.506zM34.575 19.15l-1.631 1.844h-2.381l2.85-3.2-2.85-3.2h2.481l1.663 1.831 1.6-1.831h2.406l-2.837 3.188 2.875 3.212h-2.531l-1.644-1.844z"></path>
</svg>
