<!-- Generated by IcoMoon.io -->
<svg version="1.1" xmlns="http://www.w3.org/2000/svg" width="28" height="32" viewBox="0 0 28 32">
<title>fedora</title>
<path d="M14.063 2c-7.731-0.019-14.012 6.231-14.037 13.963l-0.025 10.644c-0 0.006-0 0.012-0 0.019 0 1.85 1.5 3.35 3.35 3.35 0 0 0 0 0 0v0l10.637 0.025c7.731 0.019 14.019-6.231 14.037-13.963s-6.231-14.019-13.963-14.037zM24.675 11.825l-3.863-3.912c0.144-0.294 0.238-0.575 0.238-0.894v-0.1l3.45 3.506c0.105 0.418 0.169 0.9 0.175 1.396l0 0.004zM20.688 5.894c1.727 0.76 3.043 2.185 3.642 3.941l0.014 0.047-3.394-3.412c-0.054-0.219-0.144-0.411-0.266-0.58l0.003 0.005zM7.381 15.45c-0.186 0.206-0.346 0.44-0.473 0.695l-0.008 0.018-0.531-0.531c0.294-0.086 0.638-0.15 0.993-0.18l0.020-0.001zM6.063 15.713l0.737 0.744-0.056 0.5c0.002 0.282 0.056 0.55 0.155 0.796l-0.005-0.015-1.688-1.7c0.241-0.121 0.525-0.232 0.821-0.316l0.036-0.009zM4.925 16.175l2.388 2.4c-0.331 0.062-0.627 0.164-0.9 0.302l0.019-0.009-2.206-2.244c0.2-0.149 0.429-0.298 0.667-0.433l0.033-0.017zM3.975 16.788l2.206 2.219c-0.246 0.163-0.461 0.337-0.657 0.532l0-0-2.181-2.163c0.189-0.217 0.396-0.41 0.621-0.58l0.010-0.007zM3.144 17.556l2.181 2.188c-0.181 0.207-0.341 0.441-0.472 0.693l-0.009 0.020-2.237-2.244c0.175-0.238 0.356-0.45 0.538-0.656zM2.456 18.45l2.275 2.288c-0.12 0.279-0.2 0.602-0.224 0.94l-0.001 0.010-2.469-2.488c0.139-0.293 0.278-0.539 0.433-0.773l-0.014 0.023zM1.906 19.469l2.581 2.613c0.022 0.601 0.174 1.161 0.429 1.66l-0.010-0.022-3.294-3.344c0.087-0.306 0.181-0.6 0.294-0.906zM1.413 22.156l3.869 3.887c-0.139 0.259-0.222 0.566-0.225 0.893v0.070l-3.462-3.481c-0.112-0.41-0.178-0.881-0.181-1.367v-0.002zM1.744 24.075l3.394 3.413c0.057 0.219 0.147 0.411 0.266 0.581l-0.004-0.006c-1.725-0.762-3.041-2.186-3.642-3.941l-0.014-0.047zM1.413 21.762c0.006-0.38 0.054-0.746 0.138-1.097l-0.007 0.034 4.513 4.531c-0.241 0.148-0.446 0.329-0.615 0.539l-0.004 0.005zM17.244 18.525l-2.662-0.006-0.006 3.5c-0.012 4.331-4.025 7.238-7.856 6.431-0.356 0-1.244-0.544-1.244-1.512 0.010-0.843 0.689-1.524 1.53-1.537l0.001-0c0.394 0 0.394 0.1 0.981 0.1 0.004 0 0.008 0 0.012 0 1.93 0 3.494-1.564 3.494-3.494v-0l0.006-2.938c0-0.281-0.281-0.563-0.556-0.563l-2.1-0.006c-2.037-0.006-2.031-3.088 0.006-3.081l2.662 0.006 0.006-3.5c0.006-3.626 2.947-6.563 6.574-6.563 0.009 0 0.018 0 0.028 0h-0.001c0.007-0 0.016-0 0.025-0 0.439 0 0.866 0.052 1.274 0.151l-0.037-0.008c0.7 0.112 1.244 0.744 1.244 1.5 0 0.969-0.931 1.738-1.894 1.494-1.712-0.369-4.119 0.9-4.125 3.431l-0.006 2.938c0 0.001 0 0.002 0 0.004 0 0.308 0.249 0.557 0.556 0.559l2.1 0.006c2.031 0.012 2.025 3.094-0.012 3.088zM18.712 18.506c0.198-0.199 0.358-0.436 0.47-0.698l0.006-0.015 0.531 0.531c-0.287 0.080-0.629 0.144-0.979 0.179l-0.027 0.002zM20.025 18.244l-0.738-0.744 0.056-0.506c-0.002-0.282-0.056-0.55-0.155-0.796l0.005 0.015 1.688 1.7c-0.243 0.126-0.527 0.239-0.823 0.323l-0.033 0.008zM21.15 17.781l-2.375-2.4c0.306-0.069 0.6-0.15 0.856-0.294l2.262 2.244c-0.238 0.156-0.494 0.313-0.744 0.45zM22.119 17.169l-2.206-2.219c0.247-0.16 0.462-0.335 0.656-0.531l0-0 2.181 2.188c-0.195 0.194-0.401 0.378-0.616 0.551l-0.015 0.012zM22.944 16.4l-2.181-2.188c0.177-0.208 0.337-0.442 0.471-0.691l0.010-0.021 2.238 2.244c-0.181 0.244-0.357 0.458-0.543 0.663l0.006-0.006zM23.631 15.506l-2.275-2.287c0.12-0.279 0.2-0.602 0.224-0.94l0.001-0.010 2.469 2.488c-0.134 0.29-0.274 0.536-0.431 0.77l0.012-0.020zM24.475 13.575c-0.099 0.366-0.199 0.663-0.315 0.953l0.021-0.059-2.581-2.594c-0.018-0.603-0.18-1.165-0.453-1.656l0.009 0.019zM24.538 13.225l-4.494-4.506c0.248-0.149 0.454-0.341 0.615-0.569l0.004-0.006 4.019 4.044c-0.018 0.377-0.069 0.733-0.152 1.076l0.008-0.039z"></path>
</svg>
