<!-- Generated by IcoMoon.io -->
<svg version="1.1" xmlns="http://www.w3.org/2000/svg" width="24" height="32" viewBox="0 0 24 32">
<title>figma</title>
<path d="M17.313 10.669c2.946 0 5.334-2.388 5.334-5.334s-2.388-5.334-5.334-5.334v0h-10.669c-2.944 0-5.331 2.387-5.331 5.331s2.387 5.331 5.331 5.331v0c-2.946 0-5.334 2.388-5.334 5.334s2.388 5.334 5.334 5.334v0c-0.001 0-0.002 0-0.003 0-2.946 0-5.334 2.388-5.334 5.334s2.388 5.334 5.334 5.334c2.945 0 5.333-2.386 5.334-5.331v-16zM17.313 10.669c-2.944 0-5.331 2.387-5.331 5.331s2.387 5.331 5.331 5.331c2.944 0 5.331-2.387 5.331-5.331v0c-0-2.944-2.387-5.331-5.331-5.331h-0z"></path>
</svg>
