<!-- Generated by IcoMoon.io -->
<svg version="1.1" xmlns="http://www.w3.org/2000/svg" width="32" height="32" viewBox="0 0 32 32">
<title>firebase-sp</title>
<path d="M4.358 25.818l0.194-0.271 9.154-17.369 0.019-0.184-4.035-7.579c-0.338-0.635-1.29-0.474-1.401 0.236l-3.931 25.167z"></path>
<path d="M4.472 25.612l0.146-0.285 9.058-17.187-4.025-7.61c-0.335-0.628-1.184-0.468-1.294 0.235l-3.885 24.847z"></path>
<path d="M4.472 25.612l0.146-0.285 9.058-17.187-4.025-7.61c-0.335-0.628-1.184-0.468-1.294 0.235l-3.885 24.847z"></path>
<path d="M16.666 13.728l3.004-3.077-3.005-5.737c-0.285-0.543-1.082-0.545-1.364 0l-1.606 3.062v0.261l2.971 5.491z"></path>
<path d="M16.613 13.6l2.921-2.991-2.921-5.562c-0.277-0.528-0.951-0.583-1.226-0.054l-1.614 3.11-0.048 0.159 2.888 5.338z"></path>
<path d="M16.613 13.6l2.921-2.991-2.921-5.562c-0.277-0.528-0.951-0.583-1.226-0.054l-1.614 3.11-0.048 0.159 2.888 5.338z"></path>
<path d="M4.358 25.818l0.088-0.088 0.319-0.129 11.713-11.67 0.148-0.404-2.922-5.568z"></path>
<path d="M17.041 31.703l10.601-5.912-3.027-18.643c-0.095-0.583-0.81-0.814-1.228-0.396l-19.029 19.066 10.54 5.885c0.309 0.176 0.678 0.279 1.072 0.279s0.763-0.103 1.082-0.284l-0.011 0.006z"></path>
<path d="M27.547 25.742l-3.004-18.502c-0.094-0.579-0.689-0.818-1.103-0.403l-18.964 18.945 10.424 5.826c0.306 0.174 0.673 0.277 1.064 0.277s0.757-0.102 1.074-0.282l-0.011 0.006 10.52-5.867z"></path>
<path d="M17.041 31.529c-0.309 0.175-0.678 0.279-1.071 0.279s-0.763-0.103-1.083-0.285l0.011 0.006-10.455-5.8-0.085 0.090 10.54 5.885c0.309 0.176 0.678 0.279 1.072 0.279s0.763-0.103 1.082-0.284l-0.011 0.006 10.601-5.912-0.026-0.16-10.575 5.898z"></path>
</svg>
