<!-- Generated by IcoMoon.io -->
<svg version="1.1" xmlns="http://www.w3.org/2000/svg" width="32" height="32" viewBox="0 0 32 32">
<title>firefox</title>
<path d="M26.688 4.177c-0.088-0.087-0.177-0.172-0.267-0.257 0.089 0.086 0.178 0.171 0.267 0.257z"></path>
<path d="M0.722 12.777c0 0-0.045 0.055-0.113 0.147-0.010 0.050-0.020 0.101-0.029 0.151 0.043-0.119 0.090-0.22 0.142-0.299z"></path>
<path d="M5.223 5.509c0.029-0.030 0.058-0.060 0.087-0.089 1.356-1.356 2.936-2.421 4.694-3.165 1.82-0.77 3.754-1.16 5.748-1.16 1.882 0 3.711 0.348 5.441 1.035 1.010 0.175 2.357 0.511 3.48 1.149-2.518-1.788-5.597-2.84-8.921-2.84-4.309 0-8.205 1.768-11.004 4.617 0.13 0.158 0.287 0.311 0.475 0.454z"></path>
<path d="M10.698 17.109c-0.107-0.089-0.199-0.185-0.277-0.285-0.026 0.22-0.044 0.457-0.044 0.706-0 0.464 0.058 0.964 0.216 1.46s0.416 0.989 0.822 1.446c0.271 0.305 0.609 0.594 1.031 0.857l-0.024 0.038c0.793 0.014 2.084-0.001 2.738-0.219 0.984-0.328 2.56-1.575 2.56-1.575 0.394-0.394 0.853-0.197 1.247-0.197s0.525-0.591 0-1.181c-0.525-0.591-2.363-1.181-3.741-0.262s-3.347 0.197-4.529-0.787zM11.65 8.447c-0.088 0.327-0.164 0.742-0.164 1.194 0 0.456 0.076 0.946 0.291 1.428 0.172 0.387 0.334 0.67 0.482 0.898 0.104 0.16 0.2 0.292 0.291 0.415 0.185-0.17 0.401-0.341 0.577-0.458 0.394-0.262 1.903-0.985 2.1-1.181s0.591-1.247 0.262-1.575c-0.328-0.328-2.428-0.131-3.085-0.263-0.276-0.055-0.541-0.25-0.755-0.458zM12.073 14.869c0.002 0.005 0.003 0.008 0.003 0.008 0.003-0.005 0.005-0.010 0.007-0.016l-0.010 0.007zM31.504 11.924c0 0.534-0.482 1.281-0.575 1.421 0.019-0.050 0.050-0.206 0.050-0.699 0-0.722 0.197-2.56-0.722-4.594s-2.297-3.019-2.297-3.019v0.459c-0.197-0.656-2.035-1.903-2.035-1.903v0.656c3.282 3.019 3.61 5.119 3.61 5.119-0.591-1.903-2.297-3.347-3.741-4.726s-4.463-2.1-4.463-2.1c3.216 1.838 4.791 4.726 4.791 4.726-1.641-1.575-2.954-1.444-2.954-1.444 0.985 0.722 1.444 1.509 2.363 2.954s0.853 4.857 0.853 4.857c-0.459-1.116-1.378-1.575-1.378-1.575s0.197 1.969 0.328 3.085c0.131 1.116-0.459 3.216-0.459 3.216 0-0.788-0.459-0.985-0.459-0.985s0.131 0.459-0.525 2.56c-0.656 2.1-1.903 2.822-2.1 2.757s0-0.394 0-0.394-0.328-0.262-0.788 0.459c-0.388 0.609-1.055 0.938-1.255 1.026 0.214-0.121 0.27-0.566 0.27-0.566s-0.459 0.262-2.56 0.591c-2.1 0.328-3.085-0.591-3.085-0.591 0.197-0.197 1.116 0 1.116 0 0-0.197-1.050-0.525-2.1-0.656-0.854-0.107-1.268-0.503-1.466-0.82-0.394-0.265-0.724-0.556-0.998-0.864-0.314-0.353-0.554-0.728-0.732-1.109-0.358-0.762-0.472-1.543-0.472-2.233 0-0.652 0.101-1.224 0.203-1.638s0.203-0.667 0.208-0.678v0l0.014 0.006c0.123-0.379 0.365-0.684 0.652-0.809-0.090-0.061-0.182-0.118-0.277-0.169-0.429-0.229-0.914-0.324-1.392-0.245-0.479 0.076-0.937 0.313-1.344 0.624-0.391 0.298-0.702 0.723-0.906 1.191-0.205 0.47-0.308 0.989-0.308 1.51s0.102 1.046 0.291 1.54c0.189 0.494 0.463 0.958 0.794 1.378s0.719 0.798 1.14 1.135c-0.439-0.313-0.849-0.669-1.209-1.077-0.359-0.407-0.667-0.865-0.891-1.367s-0.364-1.045-0.395-1.601c-0.031-0.555 0.047-1.122 0.244-1.652s0.512-1.024 0.959-1.408c0.216-0.181 0.451-0.345 0.706-0.481s0.532-0.242 0.824-0.302c0.291-0.060 0.596-0.071 0.894-0.030s0.587 0.132 0.854 0.259c0.268 0.127 0.515 0.288 0.741 0.471 0.113 0.092 0.221 0.189 0.325 0.292 0.052 0.051 0.102 0.104 0.151 0.159 0.041 0.046 0.079 0.090 0.12 0.142 0.234-0.606 0.070-1.62 0.031-1.832-0.124-0.175-0.299-0.396-0.497-0.712-0.149-0.238-0.31-0.53-0.476-0.902-0.258-0.581-0.347-1.166-0.347-1.695 0-0.617 0.12-1.159 0.239-1.551 0.037-0.121 0.074-0.227 0.107-0.317 0.371-1.613 2.147-3.2 2.147-3.2-2.494-0.328-4.201 1.969-4.201 1.969-0.007-0.004-0.014-0.008-0.021-0.012-0.177 0.196-0.776 0.897-0.832 1.456 0 0 0.021-1.005 0.272-1.707-0.952-0.303-2.072-0.145-2.646-0.026l0.004 0.021c-0.589 0.106-1.126 0.332-1.604 0.617s-0.894 0.628-1.236 0.961c-0.684 0.664-1.070 1.283-1.074 1.29v0l0 0-0.018-0.011c-1.208 1.751-1.967 5.484-1.967 5.484 0.131-0.591 0.722-1.313 0.722-1.313-0.656 0.985-0.525 5.513-0.525 5.513 0-0.722 0.394-1.575 0.394-1.575 0.131 1.509 0.788 6.366 5.054 10.042s7.876 4.004 7.876 4.004c-0.853-0.263-1.050-0.656-1.050-0.656 2.757 1.116 4.463 0.919 4.463 0.919-0.459-0.262-0.525-0.459-0.525-0.459 2.954 0.131 6.892-0.919 7.811-1.575s1.706-1.969 1.706-1.969c2.363-1.116 4.004-3.413 4.463-4.594s0-2.428 0-2.428 0-0.066 1.116-2.56c1.116-2.494-0-6.038-0-6.038zM3.947 6.335c0.277-0.166 0.576-0.316 0.894-0.44-1.264-1.052-1.165-2.438-1.165-2.438-1.264 1.221-1.573 3.281-1.638 4.527 0.018-0.021 0.036-0.042 0.054-0.063 0.428-0.492 1.052-1.104 1.854-1.586z"></path>
</svg>
