<!-- Generated by IcoMoon.io -->
<svg version="1.1" xmlns="http://www.w3.org/2000/svg" width="32" height="32" viewBox="0 0 32 32">
<title>firebase</title>
<path d="M11.347 0.214c-4.791 0.593-7.756 2.003-8.108 3.878-0.064 0.304-0.064 2.003-0.032 3.782 0.064 2.66 0.112 3.333 0.352 3.766 0.256 0.497 0.256 0.577 0 1.25-0.24 0.625-0.256 1.106-0.176 3.702 0.064 1.634 0.192 3.221 0.305 3.509 0.144 0.401 0.144 0.625 0 0.945-0.24 0.513-0.256 5.032-0.032 6.394 0.096 0.641 0.304 1.138 0.609 1.522 1.426 1.779 5.208 2.836 10.769 3.013 6.907 0.224 12.179-1.074 13.429-3.301 0.337-0.577 0.352-0.833 0.352-3.766 0-2.484-0.048-3.269-0.256-3.766-0.209-0.529-0.209-0.705-0.048-1.010 0.144-0.272 0.192-1.202 0.16-3.413-0.032-3.173-0.080-3.638-0.432-4.15-0.177-0.256-0.16-0.385 0.032-0.785 0.209-0.385 0.256-1.090 0.241-3.894-0.016-1.987-0.096-3.638-0.209-3.942-0.433-1.33-2.355-2.548-4.968-3.173-3.205-0.753-8.397-0.994-11.986-0.561zM12.085 1.721c-0.048 0.080 0.849 0.096 2.051 0.048 1.779-0.064 6.474 0.208 6.314 0.369-0.032 0.032-0.753 0.128-1.618 0.224-0.881 0.096-1.73 0.256-1.923 0.353-0.32 0.176-0.32 0.192-0.048 0.401 0.272 0.192 0.256 0.208-0.16 0.304-1.314 0.272-2.164 0.609-2.468 0.994-0.769 0.977-0.096 1.955 1.554 2.308 1.25 0.256 6.186 0.096 7.548-0.24 1.506-0.385 2.276-0.817 2.276-1.298 0-0.657-0.962-1.138-3.285-1.619-1.234-0.24-0.449-0.288 1.090-0.048 1.522 0.24 2.756 0.705 3.157 1.218 0.288 0.385 0.32 0.641 0.32 3.429 0 3.445 0.032 3.365-1.538 4.086-2.275 1.074-5.977 1.474-12.403 1.362-1.218-0.032-1.314-0.048-0.978-0.24s0.224-0.224-1.122-0.305c-1.875-0.112-3.509-0.577-4.279-1.186-0.929-0.737-1.522-2.067-1.602-3.637-0.080-1.49 0.208-3.205 0.513-3.093 0.112 0.048 0.353-0.224 0.577-0.625 0.641-1.218 2.035-2.051 4.327-2.628 1.362-0.337 1.827-0.385 1.699-0.176zM6.059 13.739c0 0.657 0.32 0.929 1.57 1.298 4.519 1.362 14.711 1.186 17.627-0.304 0.593-0.304 0.673-0.401 0.673-0.897 0-0.609 0.16-0.705 0.545-0.305 0.304 0.305 0.288 0.032 0.256 3.349l-0.016 2.724-0.465 0.433c-0.994 0.913-4.439 1.634-8.653 1.827-5.224 0.24-11.201-0.785-12.115-2.083-0.176-0.256-0.224-0.945-0.224-3.125 0-2.372 0.032-2.836 0.272-3.093 0.369-0.417 0.529-0.353 0.529 0.176zM6.54 22.905c1.378 1.010 8.221 1.683 12.852 1.282 2.548-0.224 4.743-0.641 5.801-1.106 0.705-0.321 0.737-0.369 0.737-0.978 0-0.449 0.064-0.657 0.224-0.657 0.545 0 0.625 0.433 0.593 3.381-0.016 1.602-0.080 2.997-0.112 3.109-0.128 0.321-1.49 0.994-2.628 1.282-1.939 0.513-3.75 0.737-6.65 0.833-5.352 0.176-10.384-0.641-11.746-1.907-0.337-0.336-0.353-0.449-0.353-3.237 0-2.772 0.016-2.901 0.369-3.269l0.353-0.385 0.080 0.689c0.064 0.481 0.192 0.753 0.481 0.962z"></path>
</svg>
