<!-- Generated by IcoMoon.io -->
<svg version="1.1" xmlns="http://www.w3.org/2000/svg" width="31" height="32" viewBox="0 0 31 32">
<title>first-order-alt</title>
<path d="M15.5 0.5c-8.561 0-15.5 6.939-15.5 15.5s6.939 15.5 15.5 15.5 15.5-6.939 15.5-15.5-6.939-15.5-15.5-15.5zM15.5 31.013c-8.291 0-15.013-6.722-15.013-15.013s6.722-15.013 15.013-15.013 15.013 6.722 15.013 15.013-6.722 15.013-15.013 15.013zM15.5 2.268c-7.584 0-13.732 6.148-13.732 13.732s6.148 13.732 13.732 13.732 13.732-6.148 13.732-13.732-6.148-13.732-13.732-13.732zM15.5 29.219c-7.301 0-13.219-5.918-13.219-13.219s5.919-13.219 13.219-13.219 13.219 5.919 13.219 13.219-5.919 13.219-13.219 13.219zM27.139 19.033c-0.305 1.155-0.735 2.167-1.288 3.098l0.030-0.055-4.633-2.242 3.843 3.426c-0.675 0.887-1.441 1.654-2.296 2.309l-0.029 0.021-3.425-3.848 2.242 4.642c-0.875 0.525-1.886 0.958-2.956 1.245l-0.083 0.019-1.706-4.904 0.299 5.183c-0.538 0.074-1.087 0.113-1.646 0.113s-1.107-0.039-1.646-0.113l0.297-5.154-1.697 4.877c-1.154-0.306-2.166-0.738-3.095-1.293l0.055 0.030 2.246-4.646-3.429 3.852c-0.885-0.677-1.651-1.444-2.305-2.301l-0.022-0.029 3.849-3.431-4.641 2.246c-0.523-0.876-0.954-1.888-1.24-2.959l-0.019-0.084 4.865-1.694-5.139 0.297c-0.072-0.536-0.111-1.082-0.111-1.638 0-0.563 0.039-1.115 0.114-1.657l5.149 0.298-4.871-1.697c0.307-1.155 0.74-2.167 1.295-3.097l-0.030 0.055 4.639 2.245-3.845-3.429c0.677-0.885 1.444-1.651 2.301-2.305l0.029-0.022 3.422 3.846-2.239-4.636c0.875-0.523 1.886-0.953 2.957-1.239l0.084-0.019 1.679 4.828-0.294-5.101c0.538-0.074 1.087-0.112 1.645-0.112s1.107 0.039 1.645 0.112l-0.296 5.135 1.691-4.86c1.079 0.281 2.1 0.709 3.039 1.261l-2.239 4.633 3.42-3.842c0.886 0.675 1.652 1.442 2.306 2.298l0.021 0.029-3.841 3.423 4.633-2.241c0.524 0.875 0.956 1.886 1.243 2.957l0.019 0.084-4.863 1.694 5.14-0.297c0.074 0.541 0.114 1.094 0.114 1.656 0 0.555-0.038 1.102-0.111 1.637l-5.133-0.297 4.858 1.693z"></path>
</svg>
