<!-- Generated by IcoMoon.io -->
<svg version="1.1" xmlns="http://www.w3.org/2000/svg" width="24" height="32" viewBox="0 0 24 32">
<title>fly</title>
<path d="M12.363 26.738c0.806 0.731 2.106 2.081 2.075 3.169 0 0.050-0.006 0.1-0.006 0.156-0.113 1.238-1.175 1.944-2.444 1.938-1.563-0.006-2.494-1.050-2.419-2.238 0.063-1.012 1.281-2.294 2.025-2.975 0.144-0.131 0.169-0.169 0.35-0.225 0.213 0 0.244 0.019 0.419 0.175zM20.744 4.206c-1.019-1.606-2.413-2.538-3.956-3.256-1.594-0.669-3.412-0.963-4.787-0.95-2.756 0-4.45 0.825-5.069 1.081-3.35 1.744-5.275 4.369-5.181 8.831 0.444 5.137 6.063 11 9.738 14.613 0.106 0.1 0.281 0.281 0.387 0.319l0.206 0.006c0.131-0.044 0.113-0.031 0.219-0.131 3.269-3.075 8.794-9.113 9.744-13.481 0.438-2.45 0.194-4.531-1.3-7.031zM11.675 21.994c-1.75-3.194-4.075-8.169-4.331-11.813-0.213-2.969 0.712-8.2 4.331-8.544v20.356zM20.544 11.25c-1.025 3.55-4.831 8-7.431 10.644 1.738-3.244 4.075-8.331 4.2-11.994 0.1-2.869-0.613-6.612-3-8.213 5.55 1.144 7.219 6.131 6.231 9.563z"></path>
</svg>
