<!-- Generated by IcoMoon.io -->
<svg version="1.1" xmlns="http://www.w3.org/2000/svg" width="28" height="32" viewBox="0 0 28 32">
<title>font-awesome-sp</title>
<path d="M21.206 10.7c-0.375 0-1.869 0.969-3.288 0.969-0.262 0-0.525-0.037-0.781-0.15-1.231-0.488-2.313-0.856-3.694-0.856-1.269 0-2.612 0.412-3.731 0.856-0.113 0.037-0.225 0.075-0.3 0.113v-1.119c0.488-0.375 0.781-0.931 0.781-1.606 0-1.119-0.894-2.019-2.019-2.019s-2.019 0.894-2.019 2.019c0 0.637 0.3 1.231 0.781 1.606v13.256c0 0.675 0.563 1.231 1.231 1.231 0.563 0 1.006-0.375 1.156-0.856v-0.081c0.037-0.113 0.037-0.188 0.037-0.3v-2.762c0.075 0 0.15-0.038 0.188-0.075 1.231-0.525 2.688-1.044 4.106-1.044 1.944 0 2.688 1.006 4.331 1.006 1.156 0 2.275-0.413 3.25-0.856 0.262-0.113 0.45-0.225 0.45-0.488v-8.4c0.113-0.256-0.144-0.444-0.481-0.444zM24.863 2h-21.725c-1.719 0-3.138 1.419-3.138 3.138v21.725c0 1.719 1.419 3.137 3.138 3.137h21.725c1.719 0 3.137-1.419 3.137-3.137v-21.725c0-1.719-1.419-3.138-3.137-3.138zM25.756 26.856c0 0.488-0.413 0.894-0.894 0.894h-21.725c-0.487 0-0.894-0.413-0.894-0.894v-21.719c0-0.487 0.413-0.894 0.894-0.894l21.725-0.006c0.488 0 0.894 0.412 0.894 0.894z"></path>
</svg>
