<!-- Generated by IcoMoon.io -->
<svg version="1.1" xmlns="http://www.w3.org/2000/svg" width="28" height="32" viewBox="0 0 28 32">
<title>fonticons</title>
<path d="M0 2v28h28v-28zM11.688 10.806c-1.15 0-1.188 0.619-1.188 1.713v1.456c0 0.15-0.219 0.275-0.037 0.275h4.213l-0.694 2.331h-3.481v7.056c0 0.363-0.125 0.419 0.2 0.456l2.719 0.256v1.569h-8.169v-1.606l1.331-0.125c0.325-0.038 0.419-0.144 0.419-0.494v-6.962c0-0.144-0.181-0.144-0.362-0.144h-1.388v-2.338h1.75v-1.313c0-3.1 1.656-4.375 4.831-4.375 2.131 0 4.044 0.512 4.044 3.3l-3.169 0.381c0.019-1.169-0.275-1.438-1.019-1.438zM16.331 25.919v-1.569l1.275-0.163c0.325-0.038 0.475-0.106 0.475-0.456v-6.744c0-0.256-0.181-0.419-0.419-0.494l-1.512-0.4 0.419-1.844h5.012v9.481c0 0.363-0.163 0.4 0.181 0.456l0.981 0.163v1.569zM21.381 9.95l0.563 2.075-0.456 0.456-1.95-1.037-1.95 1.037-0.456-0.456 0.563-2.075-1.363-1.512 0.219-0.6h1.731l0.969-1.75h0.581l0.969 1.75h1.731l0.219 0.6z"></path>
</svg>
