<!-- Generated by IcoMoon.io -->
<svg version="1.1" xmlns="http://www.w3.org/2000/svg" width="32" height="32" viewBox="0 0 32 32">
<title>fort-awesome-circle</title>
<path d="M13 14.838h-1.387c-0.131 0-0.231 0.1-0.231 0.231v3.231c0 0.131 0.1 0.231 0.231 0.231h1.387c0.131 0 0.231-0.1 0.231-0.231v-3.231c0-0.131-0.1-0.231-0.231-0.231zM20.387 14.838h-1.387c-0.131 0-0.231 0.1-0.231 0.231v3.231c0 0.131 0.1 0.231 0.231 0.231h1.387c0.131 0 0.231-0.1 0.231-0.231v-3.231c-0.006-0.131-0.106-0.231-0.231-0.231zM28.637 7.019c-0.144-0.2-0.288-0.4-0.444-0.594-0.613-0.781-1.3-1.5-2.050-2.15-0.281-0.244-0.569-0.475-0.869-0.7-0.1-0.075-0.2-0.144-0.3-0.219-1.725-1.225-3.706-2.106-5.85-2.544-1.012-0.206-2.056-0.313-3.125-0.313s-2.119 0.106-3.125 0.313c-2.144 0.444-4.125 1.325-5.831 2.55-0.1 0.069-0.2 0.144-0.3 0.219-0.3 0.225-0.588 0.456-0.869 0.7-0.188 0.162-0.369 0.331-0.55 0.5s-0.356 0.344-0.525 0.525-0.669 0.737-0.975 1.125c-0.15 0.194-0.3 0.394-0.444 0.594-1.806 2.537-2.862 5.631-2.862 8.975 0 0.125 0.006 0.25 0.006 0.375 0.006 0.044 0.006 0.081 0.006 0.125 0.006 0.081 0.006 0.169 0.012 0.25 0 0.050 0.006 0.094 0.006 0.144 0 0.081 0.006 0.156 0.012 0.231 0.006 0.050 0.006 0.1 0.012 0.15 0.006 0.069 0.012 0.144 0.019 0.219 0 0.050 0.006 0.1 0.012 0.15 0.006 0.075 0.019 0.15 0.025 0.225 0.006 0.050 0.012 0.094 0.019 0.144 0.006 0.081 0.019 0.163 0.031 0.244 0.006 0.038 0.012 0.081 0.019 0.119l0.056 0.356c0.006 0.038 0.012 0.069 0.019 0.106 0.019 0.081 0.031 0.169 0.050 0.25 0.012 0.050 0.019 0.1 0.031 0.15 0.012 0.063 0.031 0.131 0.044 0.2 0.012 0.056 0.025 0.106 0.037 0.163 0.012 0.063 0.025 0.125 0.044 0.188 0.012 0.056 0.031 0.113 0.044 0.169 0.019 0.063 0.031 0.119 0.050 0.181 0.019 0.056 0.031 0.113 0.050 0.169 0.012 0.056 0.031 0.119 0.050 0.175s0.031 0.113 0.050 0.169c0.019 0.063 0.038 0.119 0.056 0.175 0.038 0.1 0.069 0.206 0.106 0.306 0.025 0.063 0.044 0.119 0.063 0.175 0.019 0.063 0.044 0.125 0.069 0.188 0.019 0.050 0.038 0.094 0.056 0.144l0.075 0.188c0.019 0.044 0.038 0.094 0.056 0.137 0.025 0.063 0.056 0.125 0.081 0.188l0.056 0.131c0.031 0.063 0.056 0.125 0.087 0.188 0.019 0.044 0.038 0.081 0.056 0.125 0.031 0.063 0.063 0.131 0.094 0.194 0.013 0.038 0.031 0.069 0.050 0.106 0.038 0.069 0.069 0.137 0.106 0.206 0.006 0.012 0.013 0.019 0.019 0.031 0.138 0.256 0.275 0.512 0.425 0.762 0.013 0.025 0.031 0.050 0.044 0.075 0.044 0.069 0.081 0.137 0.125 0.206 0.019 0.031 0.038 0.056 0.056 0.087 0.038 0.069 0.081 0.131 0.125 0.2 0.019 0.031 0.038 0.056 0.056 0.087 0.044 0.069 0.087 0.131 0.131 0.2 0.013 0.025 0.031 0.050 0.050 0.075 0.044 0.069 0.094 0.137 0.144 0.206 0.013 0.012 0.019 0.031 0.031 0.044 2.344 3.231 5.9 5.531 10 6.212 0.056 0.006 0.106 0.019 0.162 0.025 0.063 0.012 0.131 0.025 0.194 0.031s0.119 0.019 0.175 0.025c0.063 0.012 0.125 0.019 0.188 0.025 0.056 0.006 0.119 0.012 0.181 0.019s0.119 0.012 0.181 0.019 0.131 0.012 0.194 0.019c0.056 0.006 0.113 0.006 0.169 0.012 0.069 0.006 0.144 0.006 0.213 0.012 0.050 0 0.106 0.006 0.156 0.006 0.081 0 0.162 0.006 0.244 0.006 0.044 0.006 0.088 0.006 0.131 0.006 0.125 0.006 0.25 0.006 0.375 0.006s0.25-0.006 0.375-0.006c0.044 0 0.087-0.006 0.131-0.006 0.081 0 0.163 0 0.244-0.006 0.050 0 0.106-0.006 0.156-0.006 0.069-0.006 0.144-0.006 0.212-0.012 0.056 0 0.113-0.006 0.169-0.012 0.063-0.006 0.131-0.012 0.194-0.019s0.119-0.012 0.181-0.019c0.056-0.006 0.119-0.012 0.181-0.019s0.125-0.019 0.188-0.025 0.119-0.019 0.175-0.025c0.063-0.012 0.131-0.019 0.194-0.031 0.056-0.006 0.106-0.019 0.163-0.025 4.1-0.688 7.656-2.981 10.006-6.4 0.012-0.012 0.019-0.031 0.031-0.044 0.050-0.069 0.094-0.137 0.144-0.206 0.012-0.025 0.031-0.050 0.050-0.075 0.044-0.069 0.087-0.131 0.131-0.2 0.019-0.031 0.038-0.056 0.056-0.087 0.038-0.069 0.081-0.131 0.125-0.2 0.019-0.031 0.038-0.056 0.056-0.087 0.044-0.069 0.081-0.137 0.125-0.206 0.012-0.025 0.031-0.050 0.044-0.075 0.15-0.25 0.288-0.506 0.425-0.762 0.006-0.012 0.012-0.019 0.019-0.031 0.038-0.069 0.069-0.137 0.106-0.206 0.012-0.038 0.031-0.069 0.050-0.106 0.031-0.063 0.063-0.131 0.094-0.194 0.019-0.044 0.038-0.081 0.056-0.125 0.031-0.063 0.063-0.125 0.087-0.188l0.056-0.131c0.031-0.063 0.056-0.125 0.081-0.188 0.019-0.044 0.038-0.094 0.056-0.137l0.075-0.188c0.019-0.050 0.038-0.094 0.056-0.144 0.025-0.063 0.044-0.125 0.069-0.188s0.044-0.119 0.063-0.175c0.038-0.1 0.075-0.206 0.106-0.306 0.019-0.063 0.038-0.119 0.056-0.175s0.031-0.113 0.050-0.169c0.012-0.056 0.031-0.119 0.050-0.175s0.038-0.113 0.050-0.169c0.019-0.063 0.031-0.119 0.050-0.181 0.012-0.056 0.031-0.113 0.044-0.169 0.012-0.063 0.031-0.125 0.044-0.188 0.012-0.056 0.025-0.106 0.038-0.163 0.012-0.063 0.031-0.131 0.044-0.2 0.012-0.050 0.019-0.1 0.031-0.15 0.019-0.081 0.038-0.169 0.050-0.25 0.006-0.038 0.012-0.069 0.019-0.106l0.056-0.356c0.006-0.038 0.012-0.081 0.019-0.119 0.006-0.081 0.019-0.163 0.031-0.244 0.006-0.050 0.012-0.094 0.019-0.144 0.006-0.075 0.019-0.15 0.025-0.225 0-0.050 0.006-0.1 0.012-0.15 0.006-0.069 0.012-0.144 0.019-0.219 0.006-0.050 0.006-0.1 0.012-0.15 0.006 0.106 0.006 0.031 0.012-0.044 0-0.050 0.006-0.094 0.006-0.144 0.006-0.081 0.012-0.169 0.012-0.25 0.006-0.044 0.006-0.081 0.006-0.125 0.006-0.125 0.006-0.25 0.006-0.375 0-3.344-1.056-6.438-2.863-8.981zM28 23.219c-0.587 0.969-1.288 1.869-2.1 2.681-1.288 1.288-2.781 2.294-4.45 3-0.869 0.363-1.762 0.644-2.681 0.825v-4.738c0-3.663-5.537-3.663-5.537 0v4.738c-0.919-0.181-1.813-0.456-2.681-0.825-1.669-0.706-3.162-1.712-4.45-3-0.813-0.813-1.513-1.712-2.1-2.681v-4.456c0-0.131 0.1-0.231 0.231-0.231h1.381c0.131 0 0.231 0.1 0.231 0.231v1.613h1.85v-9c0-0.131 0.1-0.231 0.231-0.231h1.381c0.131 0 0.231 0.1 0.231 0.231v1.619h1.844v-1.619c0-0.131 0.1-0.231 0.231-0.231h1.387c0.131 0 0.231 0.1 0.231 0.231v1.619h1.844v-1.619c0-0.3 0.406-0.231 0.594-0.231v-5.638c-0.275-0.125-0.463-0.419-0.463-0.719 0-1.050 1.588-1.050 1.588 0 0 0.3-0.188 0.588-0.462 0.719v0.244c0.394-0.088 0.794-0.144 1.2-0.144 0.587 0 1.15 0.219 1.644 0.219 0.45 0 0.95-0.219 1.212-0.219 0.131 0 0.231 0.1 0.231 0.231v3.025c0 0.35-1.169 0.406-1.4 0.406-0.538 0-1.038-0.219-1.587-0.219-0.438 0-0.881 0.075-1.3 0.175v1.919c0.188 0 0.594-0.069 0.594 0.231v1.619h1.844v-1.619c0-0.131 0.1-0.231 0.231-0.231h1.387c0.131 0 0.231 0.1 0.231 0.231v1.619h1.844v-1.619c0-0.131 0.1-0.231 0.231-0.231h1.381c0.131 0 0.231 0.1 0.231 0.231v9h1.844v-1.613c0-0.131 0.1-0.231 0.231-0.231h1.387c0.131 0 0.231 0.1 0.231 0.231z"></path>
</svg>
