<!-- Generated by IcoMoon.io -->
<svg version="1.1" xmlns="http://www.w3.org/2000/svg" width="32" height="32" viewBox="0 0 32 32">
<title>fort-awesome-p</title>
<path d="M30.575 17.994h-1.712c-0.163 0-0.288 0.125-0.288 0.288v2h-2.288v-11.144c0-0.162-0.125-0.287-0.288-0.287h-1.712c-0.163 0-0.288 0.125-0.288 0.287v2h-2.288v-2c0-0.162-0.125-0.287-0.288-0.287h-1.712c-0.163 0-0.288 0.125-0.288 0.287v2h-2.288v-2c0-0.375-0.5-0.287-0.731-0.287v-2.375c0.519-0.125 1.069-0.213 1.606-0.213 0.681 0 1.306 0.269 1.962 0.269 0.288 0 1.731-0.069 1.731-0.5v-3.75c0-0.163-0.125-0.288-0.288-0.288-0.319 0-0.944 0.269-1.5 0.269-0.606 0-1.306-0.269-2.038-0.269-0.5 0-1 0.069-1.481 0.181v-0.306c0.337-0.163 0.569-0.519 0.569-0.894 0-1.294-1.963-1.3-1.963 0 0 0.375 0.231 0.731 0.569 0.894v6.981c-0.231 0-0.731-0.088-0.731 0.287v2h-2.287v-2c0-0.162-0.125-0.287-0.287-0.287h-1.713c-0.162 0-0.287 0.125-0.287 0.287v2h-2.269v-2c0-0.162-0.125-0.287-0.287-0.287h-1.712c-0.162 0-0.287 0.125-0.287 0.287v11.144h-2.288v-2c0-0.163-0.125-0.288-0.288-0.288h-1.712c-0.163 0-0.288 0.125-0.288 0.288v13.719h11.431v-6c0-4.538 6.856-4.538 6.856 0v6h11.431v-13.719c0.006-0.163-0.119-0.288-0.281-0.288zM12.569 17.712c0 0.163-0.125 0.288-0.287 0.288h-1.713c-0.162 0-0.287-0.125-0.287-0.288v-4c0-0.162 0.125-0.287 0.287-0.287h1.713c0.162 0 0.287 0.125 0.287 0.287v4zM21.719 17.712c0 0.163-0.125 0.288-0.288 0.288h-1.712c-0.163 0-0.288-0.125-0.288-0.288v-4c0-0.162 0.125-0.287 0.288-0.287h1.712c0.163 0 0.288 0.125 0.288 0.287v4z"></path>
</svg>
