<!-- Generated by IcoMoon.io -->
<svg version="1.1" xmlns="http://www.w3.org/2000/svg" width="28" height="32" viewBox="0 0 28 32">
<title>forumbee</title>
<path d="M0.362 19.356c-0.237-1.063-0.362-2.137-0.362-3.212 0-7.706 6.237-13.956 13.944-13.956 1.037 0 2.081 0.125 3.081 0.344-7.713 2.938-13.781 9.094-16.663 16.825zM24.919 7.531c-0.856-1.094-1.856-2.044-2.988-2.831-9.35 2.769-16.644 10.131-19.356 19.5 0.781 1.131 1.75 2.225 2.825 3.063 2.694-9.456 10.075-16.981 19.519-19.731zM25.906 23.325c0.95-1.569 1.587-3.356 1.844-5.175-4.962 2.681-9.063 6.913-11.725 11.894 1.875-0.275 3.681-0.956 5.288-1.956 2.188 0.819 4.431 1.519 6.688 2.1-0.581-2.281-1.275-4.656-2.094-6.863zM27.762 14.231c-0.163-1.219-0.494-2.419-0.988-3.55-8.619 2.863-15.4 9.788-18.206 18.444 1.131 0.475 2.313 0.781 3.537 0.95 2.894-7.131 8.55-12.925 15.656-15.844z"></path>
</svg>
