<!-- Generated by IcoMoon.io -->
<svg version="1.1" xmlns="http://www.w3.org/2000/svg" width="28" height="32" viewBox="0 0 28 32">
<title>freebsd</title>
<path d="M18.981 6.013c0.694-0.694 7.219-4.813 8.7-3.325 1.481 1.481-2.631 8.006-3.325 8.7s-2.462 0.056-3.944-1.431c-1.488-1.481-2.131-3.25-1.431-3.944zM6.869 4.256c-2.269-1.288-5.494-2.719-6.519-1.688-1.038 1.038 0.444 4.338 1.744 6.606 1.156-2.013 2.8-3.706 4.775-4.919zM25.419 10.875c0.206 0.706 0.169 1.294-0.169 1.631-1.269 1.269-5.469-1.688-6.831-4.381-1.125-2.019-0.694-3.338 0.931-3.044 0.356-0.225 0.769-0.475 1.225-0.725-1.863-0.969-3.975-1.519-6.219-1.519-7.444 0-13.475 6.031-13.475 13.475 0 7.438 6.031 13.475 13.475 13.475s13.475-6.031 13.475-13.475c0-2.4-0.631-4.656-1.731-6.613-0.244 0.438-0.475 0.831-0.681 1.175z"></path>
</svg>
