<!-- Generated by IcoMoon.io -->
<svg version="1.1" xmlns="http://www.w3.org/2000/svg" width="32" height="32" viewBox="0 0 32 32">
<title>galactic-senate</title>
<path d="M15.616 2.092v1.629c-0.849 1.289-1.491 6.787-1.529 13.459 0.734-0.976 1.196-2.083 1.196-3.015v-1.055c-0.002-0.332 0.047-0.658 0.137-0.978 0.041-0.134 0.087-0.255 0.164-0.364s0.214-0.237 0.417-0.237c0.203 0 0.341 0.128 0.418 0.237s0.123 0.23 0.164 0.364c0.090 0.32 0.139 0.646 0.137 0.978v1.055c0 0.932 0.462 2.039 1.196 3.015-0.039-6.672-0.682-12.171-1.531-13.459v-1.629h-0.768zM13.97 11.328c-0.595 0.134-1.169 0.324-1.716 0.568 0.556 1.008 0.61 2.040 0.107 2.331-0.5 0.289-1.366-0.264-1.96-1.239-0.724 0.549-1.367 1.207-1.91 1.943 0.921 0.601 1.431 1.432 1.145 1.916-0.284 0.481-1.252 0.446-2.217-0.060-0.361 0.828-0.609 1.719-0.728 2.651 0.605 0.011 1.167 0.149 1.636 0.378 1.111-0.019 2.048-0.122 2.531-0.264 0.347-1.647 1.439-3.014 2.895-3.719 0.046-1.597 0.117-3.104 0.217-4.504zM18.030 11.328c0.099 1.4 0.172 2.908 0.217 4.504 1.456 0.705 2.548 2.073 2.895 3.719 0.483 0.141 1.419 0.245 2.531 0.264 0.469-0.229 1.031-0.366 1.636-0.378-0.119-0.932-0.366-1.823-0.728-2.651-0.965 0.506-1.933 0.541-2.217 0.060-0.286-0.484 0.225-1.316 1.145-1.916-0.543-0.736-1.186-1.394-1.91-1.943-0.594 0.974-1.46 1.527-1.96 1.239-0.503-0.291-0.449-1.322 0.107-2.331-0.486-0.223-1.059-0.418-1.654-0.555l-0.062-0.012zM16 11.866c-0.202 0-0.366 0.551-0.381 1.246h-0.003v1.055c0 2.589-3.063 5.94-5.843 5.94-3.25 0-7.672-0.091-9.773 1.823v0.157c0.589 1.070 1.286 2.073 2.074 2.998 0.783-1.318 3.224-2.559 6.751-2.584 2.855 0.064 4.939 1.271 5.672 2.554 0.001 0.001-0.001 0.003 0 0.003 0.479 0.134 0.991 0.202 1.502 0.201 0.512 0.001 1.023-0.067 1.502-0.201 0.001-0.001-0.001-0.003 0-0.003 0.734-1.284 2.817-2.491 5.672-2.554 3.527 0.024 5.968 1.266 6.751 2.584 0.788-0.925 1.485-1.929 2.074-2.998v-0.157c-2.101-1.914-6.523-1.823-9.773-1.823-2.78 0-5.843-3.351-5.843-5.94v-1.055h-0.003c-0.014-0.695-0.179-1.246-0.381-1.246zM16 17.902c1.401 0 2.538 1.136 2.538 2.538s-1.136 2.541-2.538 2.541-2.537-1.139-2.537-2.541c0-1.401 1.136-2.538 2.537-2.538zM16 18.38c-1.137 0-2.060 0.923-2.060 2.060s0.923 2.060 2.060 2.060 2.060-0.923 2.060-2.060-0.923-2.060-2.060-2.060zM16 18.764c0.926 0 1.676 0.751 1.676 1.676s-0.751 1.676-1.676 1.676-1.676-0.751-1.676-1.676 0.751-1.676 1.676-1.676zM8.825 22.931c-0.637 0.004-1.35 0.023-1.906 0.104 0.027 0.276 0.094 1.164 0.444 1.86 0.569-0.16 1.147-0.244 1.726-0.244 2.58 0.059 4.467 2.147 4.891 4.654l0.007 0.294c0.65 0.119 1.324 0.184 2.013 0.184s1.363-0.064 2.013-0.184l0.007-0.294c0.424-2.508 2.311-4.596 4.891-4.654 0.579 0 1.157 0.084 1.726 0.244 0.35-0.696 0.418-1.584 0.444-1.86-0.556-0.081-1.27-0.099-1.906-0.104-1.172 0.026-2.199 0.261-3.038 0.604-0.784 1.002-1.823 1.877-3.099 2.067-0.006 0.001-0.011 0.003-0.017 0.003-0.003 0.001-0.007 0.003-0.010 0.003-0.328 0.067-0.664 0.1-1.012 0.1s-0.684-0.033-1.012-0.1c-0.003-0.001-0.007-0.003-0.010-0.003-0.006-0.001-0.011-0.003-0.017-0.003-1.276-0.189-2.314-1.065-3.099-2.067-0.839-0.343-1.866-0.578-3.038-0.604z"></path>
</svg>
