<!-- Generated by IcoMoon.io -->
<svg version="1.1" xmlns="http://www.w3.org/2000/svg" width="31" height="32" viewBox="0 0 31 32">
<title>galactic-republic</title>
<path d="M15.5 31.5c-8.547 0-15.5-6.953-15.5-15.5s6.953-15.5 15.5-15.5 15.5 6.953 15.5 15.5-6.953 15.5-15.5 15.5zM15.5 1.533c-7.977 0-14.467 6.49-14.467 14.467s6.49 14.467 14.467 14.467 14.467-6.49 14.467-14.467-6.49-14.467-14.467-14.467zM17.226 2.896v1.539c1.99 0.3 3.76 1.065 5.254 2.181l-0.031-0.022 1.087-1.085c-1.797-1.379-3.956-2.306-6.31-2.612zM13.766 2.901c-2.352 0.309-4.51 1.237-6.305 2.616l1.080 1.085h0.005c1.504-1.115 3.284-1.879 5.22-2.167v-1.534zM14.531 6.036v5.179c-0.627 0.127-1.214 0.371-1.729 0.714l-3.664-3.662-1.371 1.371 3.667 3.667c-0.342 0.514-0.591 1.099-0.717 1.726h-5.181v1.938h5.181c0.126 0.626 0.376 1.207 0.717 1.721l-3.667 3.668 1.371 1.371 3.664-3.664c0.494 0.333 1.074 0.582 1.698 0.711l0.032 0.006v5.181h1.938v-5.181c0.628-0.127 1.211-0.379 1.726-0.722l3.667 3.668 1.371-1.371-3.667-3.668c0.341-0.514 0.592-1.095 0.719-1.721h5.179v-1.938h-5.179c-0.126-0.626-0.377-1.211-0.719-1.726l3.667-3.667-1.371-1.371-3.667 3.667c-0.516-0.343-1.098-0.592-1.726-0.719v-5.179h-1.938zM25.984 7.956l-1.085 1.085c1.096 1.464 1.864 3.237 2.159 5.165l0.008 0.065h1.539c-0.309-2.356-1.239-4.518-2.621-6.314zM5.012 7.964c-1.379 1.795-2.307 3.954-2.616 6.307h1.541c0.287-1.935 1.048-3.716 2.162-5.22l-1.087-1.087zM2.396 17.729c0.308 2.352 1.234 4.511 2.612 6.306l1.085-1.087c-1.113-1.504-1.87-3.286-2.157-5.22h-1.541zM27.065 17.729c-0.288 1.937-1.050 3.719-2.167 5.225l1.085 1.085c1.38-1.796 2.311-3.956 2.621-6.31h-1.539zM8.541 25.399l-1.085 1.085c1.796 1.381 3.956 2.311 6.31 2.621v-1.54c-1.937-0.289-3.721-1.049-5.225-2.166zM22.449 25.402c-1.506 1.115-3.286 1.88-5.223 2.167v1.536c2.354-0.308 4.513-1.237 6.31-2.616l-1.082-1.087h-0.005z"></path>
</svg>
