<!-- Generated by IcoMoon.io -->
<svg version="1.1" xmlns="http://www.w3.org/2000/svg" width="28" height="32" viewBox="0 0 28 32">
<title>get-pocket</title>
<path d="M25.475 4h-22.938c-1.381 0-2.538 1.156-2.538 2.537v8.45c0 7.794 6.231 14.013 14.012 14.013 7.75 0 13.987-6.219 13.987-14.012v-8.45c0-1.4-1.106-2.537-2.525-2.537zM15.35 20.781c-0.775 0.738-1.963 0.694-2.65 0-7.106-6.806-7.181-6.569-7.181-7.7 0-1.056 0.862-1.919 1.919-1.919 1.063 0 1.006 0.238 6.575 5.581 5.662-5.431 5.537-5.581 6.594-5.581s1.919 0.863 1.919 1.919c0 1.113-0.181 0.981-7.175 7.7z"></path>
</svg>
