<!-- Generated by IcoMoon.io -->
<svg version="1.1" xmlns="http://www.w3.org/2000/svg" width="32" height="32" viewBox="0 0 32 32">
<title>git-sp</title>
<path d="M13.518 9.899h-4.956c-2.5-0.656-8.156-0.485-8.156 4.674 0 1.881 0.938 3.202 2.188 3.813-1.569 1.438-2.313 2.116-2.313 3.076 0 0.688 0.279 1.321 1.118 1.676-0.892 0.838-1.4 1.447-1.4 2.591 0 2.007 1.753 3.176 6.352 3.176 4.422 0 6.987-1.651 6.987-4.574 0-3.666-2.822-3.531-9.477-3.938l0.839-1.347c1.704 0.474 7.419 0.625 7.419-4.243 0-1.169-0.483-1.982-0.938-2.567l2.338-0.178zM9.554 25.018c0 2.004-6.556 2.006-6.556 0.152 0-0.509 0.329-0.938 0.661-1.346 4.857 0.331 5.895 0.211 5.895 1.194zM6.379 16.607c-3.3 0-3.154-4.447 0.075-4.447 3.096 0 3.176 4.447-0.075 4.447zM14.71 22.889v-2.006c1.672-0.229 1.703-0.125 1.703-0.688v-7.469c0-0.531-0.128-0.461-1.703-1.016l0.279-2.058h5.261v10.544c0 0.407 0.025 0.457 0.407 0.509l1.296 0.177v2.006zM17.988 7.619c-1.448 0-2.287-0.839-2.287-2.288s0.839-2.236 2.287-2.236c1.474 0 2.313 0.789 2.313 2.236s-0.839 2.288-2.313 2.288zM32 21.904c-1.093 0.533-2.694 1.016-4.142 1.016-3.024 0-4.167-1.219-4.167-4.091v-6.657c0-0.339 0.066-0.254-1.982-0.254v-2.262c2.236-0.254 3.125-1.375 3.404-4.142h2.414c0 4.114-0.084 3.863 0.204 3.863h3.581v2.541h-3.785v6.072c0 0.433-0.308 3.213 3.786 1.677z"></path>
</svg>
