<!-- Generated by IcoMoon.io -->
<svg version="1.1" xmlns="http://www.w3.org/2000/svg" width="32" height="32" viewBox="0 0 32 32">
<title>git-pull-request</title>
<path d="M7.467 2.133c-2.355 0-4.267 1.911-4.267 4.267 0 1.574 0.864 2.935 2.133 3.676v13.982c-1.27 0.74-2.133 2.1-2.133 3.675 0 2.354 1.911 4.267 4.267 4.267s4.267-1.913 4.267-4.267c0-1.575-0.861-2.935-2.133-3.675v-13.982c1.272-0.741 2.133-2.102 2.133-3.676-0-2.355-1.911-4.267-4.267-4.267zM7.467 29.867c-1.177 0-2.133-0.954-2.133-2.133 0-1.177 0.956-2.133 2.133-2.133 1.18 0 2.133 0.956 2.133 2.133 0 1.179-0.953 2.133-2.133 2.133zM7.467 8.533c-1.177 0-2.133-0.953-2.133-2.133s0.956-2.133 2.133-2.133c1.18 0 2.133 0.953 2.133 2.133s-0.953 2.133-2.133 2.133zM26.667 24.058v-13.392c0-6.417-6.4-6.4-6.4-6.4h-2.133v-4.267l-6.4 6.4 6.4 6.4v-4.267c0 0 0.89 0 2.133 0 1.881 0 2.133 2.133 2.133 2.133v13.392c-1.271 0.74-2.133 2.098-2.133 3.675 0 2.354 1.912 4.267 4.267 4.267s4.267-1.913 4.267-4.267c0-1.575-0.863-2.935-2.133-3.675zM24.533 29.867c-1.177 0-2.133-0.954-2.133-2.133 0-1.177 0.956-2.133 2.133-2.133 1.179 0 2.133 0.956 2.133 2.133 0 1.179-0.954 2.133-2.133 2.133z"></path>
</svg>
