<!-- Generated by IcoMoon.io -->
<svg version="1.1" xmlns="http://www.w3.org/2000/svg" width="32" height="32" viewBox="0 0 32 32">
<title>git-merge</title>
<path d="M25.143 13.714c-1.701 0-3.165 0.94-3.951 2.318-0.205-0.014-0.406-0.032-0.621-0.032-4.681 0-9.123-3.566-10.743-7.98 0.974-0.838 1.601-2.066 1.601-3.449 0-2.523-2.048-4.571-4.571-4.571s-4.571 2.048-4.571 4.571c0 1.686 0.923 3.145 2.286 3.939v14.981c-1.363 0.792-2.286 2.25-2.286 3.937 0 2.522 2.048 4.571 4.571 4.571s4.571-2.049 4.571-4.571c0-1.688-0.923-3.145-2.286-3.937v-8.224c3.006 3.18 7.156 5.305 11.429 5.305 0.228 0 0.415-0.016 0.621-0.022 0.79 1.373 2.254 2.308 3.951 2.308 2.522 0 4.571-2.049 4.571-4.571-0-2.524-2.049-4.571-4.571-4.571zM6.857 29.714c-1.261 0-2.286-1.022-2.286-2.286 0-1.261 1.025-2.286 2.286-2.286 1.265 0 2.286 1.025 2.286 2.286 0 1.263-1.021 2.286-2.286 2.286zM6.857 6.857c-1.261 0-2.286-1.021-2.286-2.286s1.025-2.286 2.286-2.286c1.265 0 2.286 1.021 2.286 2.286s-1.021 2.286-2.286 2.286zM25.143 20.571c-1.261 0-2.286-1.022-2.286-2.286 0-1.265 1.025-2.286 2.286-2.286 1.263 0 2.286 1.021 2.286 2.286 0 1.263-1.022 2.286-2.286 2.286z"></path>
</svg>
