<!-- Generated by IcoMoon.io -->
<svg version="1.1" xmlns="http://www.w3.org/2000/svg" width="28" height="32" viewBox="0 0 28 32">
<title>git-p</title>
<path d="M6.287 20.89c3.036 0.207 3.684 0.132 3.684 0.746 0 1.25-4.097 1.254-4.097 0.095 0.001-0.318 0.206-0.587 0.412-0.841zM8.034 13.6c-2.018 0-2.109 2.779-0.047 2.779 2.032 0 1.982-2.779 0.047-2.779zM28 5v22c0 1.657-1.343 3-3 3v0h-22c-1.657 0-3-1.343-3-3v0-22c0-1.657 1.343-3 3-3v0h22c1.657 0 3 1.343 3 3v0zM13.813 9.332c0 0.906 0.524 1.43 1.429 1.43 0.921 0 1.446-0.524 1.446-1.43s-0.523-1.394-1.444-1.394c-0.905 0-1.43 0.49-1.43 1.394zM12.449 12.188h-3.097c-1.563-0.409-5.098-0.303-5.098 2.922 0 1.175 0.588 2 1.366 2.382-0.981 0.898-1.445 1.321-1.445 1.921 0 0.429 0.174 0.826 0.699 1.047-0.556 0.525-0.875 0.905-0.875 1.62 0.001 1.254 1.097 1.982 3.971 1.982 2.764 0 4.367-1.032 4.367-2.858 0-2.292-1.764-2.207-5.923-2.461l0.524-0.839c1.063 0.296 4.637 0.389 4.637-2.652 0-0.731-0.302-1.239-0.588-1.604l1.461-0.111zM17.72 19.052l-0.813-0.111c-0.239-0.032-0.254-0.063-0.254-0.318v-6.591h-3.287l-0.174 1.286c0.984 0.347 1.063 0.304 1.063 0.636v4.671c0 0.351-0.019 0.286-1.063 0.429v1.254h4.526zM24 19.688l-0.429-1.398c-2.558 0.961-2.366-0.776-2.366-1.046v-3.795h2.366v-1.588h-2.239c-0.179 0-0.125 0.158-0.125-2.414h-1.511c-0.174 1.731-0.73 2.43-2.125 2.589v1.414c1.279 0 1.239-0.053 1.239 0.159v4.161c0 1.795 0.714 2.557 2.604 2.557 0.903 0 1.903-0.302 2.586-0.637z"></path>
</svg>
