<!-- Generated by IcoMoon.io -->
<svg version="1.1" xmlns="http://www.w3.org/2000/svg" width="32" height="32" viewBox="0 0 32 32">
<title>git</title>
<path d="M31.396 14.575l-13.972-13.971c-0.804-0.805-2.109-0.805-2.915 0l-2.901 2.901 3.68 3.68c0.855-0.289 1.836-0.095 2.518 0.587 0.686 0.686 0.878 1.675 0.582 2.533l3.547 3.547c0.858-0.296 1.848-0.105 2.534 0.582 0.958 0.958 0.958 2.51 0 3.468s-2.51 0.958-3.469 0c-0.72-0.721-0.899-1.779-0.533-2.667l-3.308-3.308v8.705c0.233 0.116 0.454 0.27 0.648 0.464 0.958 0.957 0.958 2.509 0 3.468-0.958 0.957-2.511 0.957-3.468 0-0.958-0.959-0.958-2.511 0-3.468 0.237-0.237 0.511-0.416 0.803-0.535v-8.785c-0.293-0.12-0.566-0.297-0.803-0.535-0.725-0.725-0.9-1.79-0.528-2.681l-3.628-3.629-9.58 9.579c-0.805 0.805-0.805 2.11 0 2.915l13.972 13.971c0.804 0.804 2.109 0.804 2.914 0l13.906-13.906c0.805-0.805 0.805-2.111 0-2.915z"></path>
</svg>
