<!-- Generated by IcoMoon.io -->
<svg version="1.1" xmlns="http://www.w3.org/2000/svg" width="32" height="32" viewBox="0 0 32 32">
<title>github-sp</title>
<path d="M16 32c-8.823 0-16-7.179-16-16s7.177-16 16-16c8.823 0 16 7.179 16 16s-7.177 16-16 16zM16 3.556c-6.86 0-12.444 5.582-12.444 12.444s5.584 12.444 12.444 12.444c6.861 0 12.444-5.583 12.444-12.444s-5.583-12.444-12.444-12.444z"></path>
<path d="M18.781 17.113c0.305 0 0.562 0.149 0.785 0.453 0.221 0.3 0.333 0.672 0.333 1.111 0 0.441-0.111 0.812-0.333 1.113s-0.483 0.451-0.785 0.451c-0.321 0-0.597-0.149-0.82-0.451-0.219-0.301-0.331-0.672-0.331-1.113s0.109-0.811 0.331-1.111c0.222-0.304 0.5-0.453 0.82-0.453zM22.712 13.043c0.856 0.928 1.288 2.054 1.288 3.374 0 0.857-0.101 1.628-0.295 2.313-0.198 0.682-0.448 1.241-0.747 1.668-0.304 0.431-0.672 0.809-1.115 1.128-0.443 0.328-0.851 0.562-1.219 0.713s-0.792 0.267-1.271 0.349c-0.474 0.083-0.832 0.129-1.080 0.141-0.239 0.010-0.5 0.016-0.781 0.016-0.062 0-0.274 0.007-0.626 0.017-0.343 0.014-0.638 0.021-0.867 0.021s-0.524-0.007-0.867-0.021c-0.349-0.010-0.562-0.017-0.626-0.017-0.281 0-0.544-0.003-0.782-0.016-0.249-0.012-0.607-0.057-1.078-0.141-0.482-0.080-0.903-0.195-1.272-0.349-0.368-0.149-0.775-0.385-1.216-0.713-0.444-0.323-0.812-0.7-1.116-1.128-0.299-0.427-0.549-0.986-0.746-1.668-0.194-0.686-0.295-1.457-0.295-2.313 0-1.32 0.431-2.446 1.289-3.374-0.095-0.046-0.1-0.509-0.015-1.39 0.076-0.882 0.264-1.694 0.568-2.436 1.070 0.114 2.387 0.718 3.965 1.808 0.533-0.139 1.262-0.21 2.192-0.21 0.976 0 1.705 0.071 2.193 0.21 0.719-0.485 1.406-0.882 2.063-1.184 0.667-0.299 1.146-0.475 1.448-0.521l0.451-0.103c0.305 0.741 0.493 1.556 0.57 2.436 0.088 0.881 0.083 1.344-0.011 1.39zM16.037 21.981c1.924 0 3.376-0.231 4.362-0.693 0.983-0.464 1.483-1.417 1.483-2.854 0-0.833-0.314-1.531-0.941-2.088-0.323-0.302-0.701-0.485-1.136-0.556-0.424-0.069-1.078-0.069-1.962 0-0.88 0.071-1.483 0.103-1.806 0.103-0.441 0-0.919-0.023-1.513-0.069-0.594-0.044-1.059-0.073-1.392-0.087-0.34-0.011-0.702 0.032-1.096 0.122-0.397 0.095-0.718 0.254-0.977 0.485-0.598 0.534-0.902 1.228-0.902 2.088 0 1.438 0.487 2.391 1.46 2.852 0.972 0.465 2.419 0.695 4.345 0.695zM13.253 17.113c0.302 0 0.562 0.149 0.782 0.453 0.22 0.3 0.333 0.672 0.333 1.111 0 0.441-0.11 0.812-0.333 1.113-0.22 0.3-0.482 0.451-0.782 0.451-0.324 0-0.599-0.149-0.821-0.451-0.22-0.301-0.332-0.672-0.332-1.113s0.11-0.811 0.332-1.111c0.222-0.304 0.498-0.453 0.821-0.453z"></path>
</svg>
