<!-- Generated by IcoMoon.io -->
<svg version="1.1" xmlns="http://www.w3.org/2000/svg" width="32" height="32" viewBox="0 0 32 32">
<title>github-sp-p</title>
<path d="M21.563 18.223c0.611 0 1.125 0.299 1.569 0.906 0.441 0.6 0.666 1.344 0.666 2.222 0 0.882-0.222 1.625-0.666 2.226s-0.966 0.902-1.569 0.902c-0.642 0-1.195-0.299-1.639-0.902-0.438-0.601-0.663-1.344-0.663-2.226s0.218-1.622 0.663-2.222c0.444-0.608 1-0.906 1.639-0.906zM29.423 10.084c1.712 1.856 2.577 4.108 2.577 6.748 0 1.713-0.202 3.255-0.59 4.627-0.395 1.365-0.896 2.483-1.493 3.337-0.608 0.861-1.343 1.618-2.229 2.257-0.886 0.656-1.702 1.125-2.438 1.427s-1.584 0.535-2.542 0.698c-0.948 0.167-1.663 0.257-2.16 0.281-0.479 0.021-1 0.031-1.563 0.031-0.125 0-0.549 0.014-1.252 0.035-0.686 0.028-1.276 0.042-1.734 0.042s-1.049-0.014-1.735-0.042c-0.698-0.021-1.125-0.035-1.252-0.035-0.562 0-1.088-0.007-1.564-0.031-0.498-0.024-1.213-0.114-2.156-0.281-0.963-0.159-1.805-0.389-2.545-0.698-0.736-0.299-1.55-0.771-2.432-1.427-0.889-0.646-1.625-1.399-2.233-2.257-0.597-0.854-1.099-1.972-1.493-3.337-0.387-1.371-0.59-2.913-0.59-4.627 0-2.641 0.861-4.892 2.578-6.748-0.189-0.092-0.199-1.017-0.029-2.78 0.153-1.764 0.528-3.389 1.135-4.872 2.141 0.228 4.774 1.436 7.929 3.616 1.066-0.278 2.524-0.42 4.384-0.42 1.952 0 3.41 0.142 4.386 0.42 1.437-0.97 2.812-1.764 4.125-2.368 1.333-0.597 2.291-0.95 2.896-1.041l0.903-0.207c0.611 1.482 0.986 3.111 1.139 4.872 0.177 1.762 0.166 2.687-0.021 2.78zM16.075 27.959c3.849 0 6.752-0.462 8.724-1.385 1.966-0.927 2.966-2.834 2.966-5.709 0-1.666-0.629-3.062-1.882-4.175-0.646-0.604-1.403-0.97-2.271-1.113-0.847-0.139-2.156-0.139-3.923 0-1.761 0.142-2.965 0.207-3.613 0.207-0.882 0-1.838-0.047-3.026-0.139-1.188-0.088-2.118-0.146-2.783-0.174-0.681-0.021-1.404 0.064-2.191 0.245-0.793 0.189-1.436 0.509-1.955 0.97-1.196 1.068-1.804 2.457-1.804 4.175 0 2.875 0.974 4.782 2.92 5.705 1.944 0.93 4.838 1.389 8.689 1.389zM10.507 18.223c0.604 0 1.123 0.299 1.564 0.906 0.441 0.6 0.665 1.344 0.665 2.222 0 0.882-0.221 1.625-0.665 2.226-0.441 0.6-0.963 0.902-1.564 0.902-0.647 0-1.198-0.299-1.643-0.902-0.441-0.601-0.665-1.344-0.665-2.226s0.221-1.622 0.665-2.222c0.445-0.608 0.995-0.906 1.643-0.906z"></path>
</svg>
