<!-- Generated by IcoMoon.io -->
<svg version="1.1" xmlns="http://www.w3.org/2000/svg" width="32" height="32" viewBox="0 0 32 32">
<title>gitlab</title>
<path d="M6.575 1.556c-0.194-0.556-0.981-0.556-1.181 0l-3.531 10.925h8.25c-0.006 0-3.537-10.925-3.537-10.925zM0.056 17.981c-0.163 0.5 0.019 1.056 0.444 1.375l15.494 11.5-14.137-18.375zM10.106 12.481l5.894 18.375 5.894-18.375zM31.944 17.981l-1.8-5.5-14.144 18.375 15.494-11.5c0.431-0.319 0.606-0.875 0.45-1.375zM26.606 1.556c-0.194-0.556-0.981-0.556-1.181 0l-3.538 10.925h8.25z"></path>
</svg>
