<!-- Generated by IcoMoon.io -->
<svg version="1.1" xmlns="http://www.w3.org/2000/svg" width="28" height="32" viewBox="0 0 28 32">
<title>glide-g</title>
<path d="M25.444 13.2c-0.219-0.088-0.725-0.238-0.962-0.238-2.319 0-3.887 1.050-5.844 2.156l-0.056-0.056c0.438-2.956 1.469-5.744 1.469-8.775 0-4.469-2.387-6.287-6.775-6.287-7.194 0-10.838 7.106-10.838 12.4 0 5.494 3.206 8.538 8.662 8.538 0.75 0 0.688-0.063 0.688 0.238-1.056 8.056-5.675 8.319-5.675 5.912 0-2.45 2.813-3.663 2.844-3.813-0.019-0.762-2.938-1.725-3.681-1.725-2.119 0.006-3.275 3.2-3.275 4.956 0 3.244 2.050 5.494 5.344 5.494 4.838 0 8.375-4.863 9.463-9.087 0.944-3.781 0.7-3.956 1.231-4.225 2.012-1.012 3.594-1.688 5.863-1.688 1.113 0 1.906 0.231 3.681 0.525 0.181 0 0.419-0.181 0.419-0.363 0-0.5-2.087-3.781-2.556-3.963zM14.488 7.925c-0.581 2.794-1.162 5.6-1.738 8.394-0.144 0.637-0.831 0.488-1.375 0.488-2.394 0-3.063-2.613-3.063-4.569 0-2.938 1.125-6.831 3.863-8.338 0.438-0.256 0.925-0.419 1.412-0.419 1.162 0 1.25 0.831 1.25 1.794-0.006 0.894-0.169 1.781-0.35 2.65z"></path>
</svg>
