<!-- Generated by IcoMoon.io -->
<svg version="1.1" xmlns="http://www.w3.org/2000/svg" width="28" height="32" viewBox="0 0 28 32">
<title>glide</title>
<path d="M15.8 9.287c0 0.55-0.1 1.106-0.213 1.65-0.363 1.738-0.725 3.488-1.081 5.225-0.088 0.394-0.519 0.306-0.856 0.306-1.488 0-1.906-1.625-1.906-2.844 0-1.831 0.7-4.256 2.406-5.194 0.269-0.156 0.575-0.262 0.881-0.262 0.713 0 0.769 0.519 0.769 1.119zM28 5v22c0 1.656-1.344 3-3 3h-22c-1.656 0-3-1.344-3-3v-22c0-1.656 1.344-3 3-3h22c1.656 0 3 1.344 3 3zM24 16.688c0-0.319-1.3-2.356-1.594-2.469-0.137-0.056-0.45-0.144-0.6-0.144-1.444 0-2.419 0.656-3.637 1.344l-0.031-0.031c0.269-1.838 0.913-3.575 0.913-5.463 0-2.787-1.488-3.919-4.219-3.919-4.481 0-6.75 4.425-6.75 7.719 0 3.419 2 5.313 5.394 5.313 0.469 0 0.431-0.038 0.431 0.144-0.656 5.019-3.531 5.181-3.531 3.681 0-1.525 1.75-2.281 1.769-2.375-0.012-0.475-1.831-1.075-2.294-1.075-1.319 0-2.044 2.063-2.044 3.163 0 2.019 1.275 3.419 3.331 3.419 3.013 0 5.213-3.106 5.894-5.731 0.587-2.356 0.438-2.462 0.769-2.631 1.25-0.631 2.238-1.050 3.65-1.050 0.694 0 1.188 0.144 2.294 0.325 0.113 0.006 0.256-0.106 0.256-0.219z"></path>
</svg>
