<!-- Generated by IcoMoon.io -->
<svg version="1.1" xmlns="http://www.w3.org/2000/svg" width="32" height="32" viewBox="0 0 32 32">
<title>gnu</title>
<path d="M6.857 18.822c-0.218 0.015-0.501 0.112-0.691 0.453-0.155 0.278-0.518 0.323-0.688 0.267-0.282-0.093-0.644-0.158-0.994 0.091s-0.728 0.061-0.661-0.394c0.066-0.454 0.23-0.859 0.666-1.109 0.951-0.547 0.29-0.928 0.812-1.478 0.523-0.55 0.408-0.719 0.39-1.466-1.768-0.266-2.77-0.775-3.889-2.173s-1.553-2.549-1.669-4.302-0.015-2.889 0.742-4.344c0.757-1.455 1.555-2.155 2.936-2.882s2.736-0.9 3.987-0.879c1.251 0.021 2.085 0.113 2.792 0.516s1.354 0.911 1.766 0.915c0.412 0.004 0.693-0.104 0.894-0.258 0.053 1.359-1.169 1.477-2.263 1.505s-1.767-0.424-2.774-0.256c-1.008 0.168-2.658 0.627-3.461 2.026s-0.831 1.894-0.764 3.067c0.067 1.173 1.077 2.048 1.647 2.058s0.697-0.156 1.196-0.481c0.499-0.325 3.046-3.479 3.915-4.187s1.727-0.927 2.653-0.938c0.926-0.011 1.163 0.020 1.91 0.326s1.206 0.87 1.808 1.214c0.308-0.181 0.499-0.452 0.781-0.658 1.010-0.738 1.535-0.937 2.735-0.82 0.69 0.067 1.56 0.461 2.079 0.913 0.924 0.804 1.688 1.923 2.305 2.773 0.481 0.662 1.046 1.454 1.853 1.702 0.881 0.27 1.545-0.871 1.642-1.505 0.055-0.359 0.127-0.673 0.128-1.068s-0.040-0.874-0.154-1.286c-0.114-0.412-0.309-0.821-0.52-1.161-0.344-0.553-0.906-1.131-1.491-1.429-0.328-0.167-1.101-0.471-1.588-0.481-0.597-0.013-1.051 0.188-1.603 0.225-0.668 0.046-1.86 0.196-2.384-0.32-0.333-0.328-0.375-0.547-0.432-0.975 0.147 0.121 0.353 0.201 0.536 0.216 0.418 0.035 0.81-0.306 1.147-0.504 0.278-0.163 0.672-0.454 1.037-0.601 0.938-0.378 2.090-0.367 3.081-0.266 0.794 0.081 1.823 0.434 2.519 0.828 0.7 0.396 1.374 1.063 1.867 1.692 0.621 0.791 0.961 1.47 1.186 2.458 0.288 1.26 0.367 3.154 0.020 4.397-0.274 0.979-1.184 2.484-1.958 3.221-0.764 0.727-1.646 1.079-2.649 1.271 0.039 0.202 0.046 0.391 0.098 0.557 0.074 0.236 0.215 0.498 0.504 0.415 0.116-0.033 0.177-0.062 0.33 0.071s0.073 0.648-0.355 0.879c-0.217 0.117-0.446 0.143-0.794 0.15s-0.891 0.008-1.268-0.058c-0.378-0.066-0.603-0.366-1.021-0.413-0.646-0.072-1.141-0.539-1.659-0.873-0.216-0.139-0.289-0.141-0.414-0.211 0.067 0.206 0.157 0.42 0.202 0.618s0.026 0.382 0.050 0.54c0.024 0.158 0.068 0.282 0.093 0.41 0.104 0.093 0.137 0.233 0.311 0.278s0.447-0.025 0.625-0.049 0.297-0.121 0.437-0.094c0.14 0.026 0.272 0.127 0.389 0.22s0.218 0.107 0.313 0.341c0.095 0.234 0.182 0.713 0.195 1.034s-0.023 0.609-0.118 0.864c-0.095 0.254-0.178 0.367-0.435 0.618s-0.676 0.621-1.093 0.879c0.077 0.114 0.111 0.218 0.231 0.342s0.37 0.262 0.481 0.393c0.111 0.13 0.168 0.224 0.169 0.37s-0.005 0.336-0.124 0.496c-0.296 0.397-0.646 0.468-1.071 0.655 0.072 0.447 0.13 0.766 0.027 1.212-0.042 0.182-0.136 0.594-0.36 0.699s-0.656 0.054-0.93 0.098c-0.274 0.044-0.427 0.085-0.64 0.127-0.13 0.187-0.323 0.394-0.389 0.562s-0.046 0.228 0.009 0.4c0.056 0.172 0.245 0.422 0.298 0.622s0.064 0.417 0.014 0.619c-0.050 0.201-0.136 0.347-0.308 0.526s-0.509 0.319-0.677 0.464c-0.168 0.145-0.336 0.162-0.29 0.403 0.063 0.329 0.545 0.864 0.893 0.991 0.209 0.076 0.489 0.052 0.742-0.055-0.017 0.282-0.261 0.471-0.42 0.658 0.431-0.123 0.849-0.359 1.138-0.672-0.090 0.271-0.398 0.708-0.86 1.090s-0.459 0.305-0.688 0.457c0.418 0.084 0.808 0.061 1.132 0.003-0.178 0.098-0.469 0.236-0.855 0.276s-0.624 0.012-0.971-0.073c-0.348-0.085-0.665-0.401-1.087-0.619 0.041 0.156 0.070 0.344 0.248 0.505s0.445 0.243 0.73 0.381c-0.363-0.041-0.744-0.054-1.101-0.132-0.264-0.058-0.441-0.12-0.634-0.215s-0.342-0.235-0.513-0.353c0.082 0.156 0.106 0.341 0.246 0.47s0.366 0.177 0.549 0.265c-0.191-0.004-0.375 0.037-0.573-0.012s-0.384-0.128-0.59-0.28c-0.206-0.152-0.419-0.339-0.595-0.53s-0.393-0.439-0.459-0.615c-0.066-0.177 0.040-0.3 0.059-0.45-0.121 0.080-0.271 0.124-0.364 0.24s-0.176 0.221-0.135 0.423c0.041 0.202 0.228 0.449 0.359 0.673-0.393-0.322-0.613-0.445-0.706-0.833-0.088-0.363 0.139-0.693 0.311-0.967 0.086-0.136 0.213-0.263 0.293-0.395-0.178-0.174-0.38-0.323-0.533-0.521s-0.216-0.466-0.371-0.656c-0.155-0.19-0.364-0.31-0.546-0.464 0.16 0.344 0.423 0.765 0.48 1.031s-0.064 0.429-0.158 0.572c-0.094 0.144-0.247 0.176-0.391 0.264s-0.369 0.019-0.455 0.15c-0.086 0.131-0.109 0.328-0.027 0.457l0.338 0.533c-0.124-0.063-0.339-0.245-0.435-0.375s-0.245-0.249-0.265-0.424c-0.020-0.175-0.030-0.327 0.083-0.483s0.424-0.208 0.563-0.328c0.139-0.12 0.217-0.198 0.209-0.353s-0.159-0.266-0.289-0.363c-0.397-0.298-0.907-0.573-1.244-0.932-0.191-0.203-0.282-0.366-0.32-0.507s0.002-0.249 0.097-0.421c0.095-0.172 0.419-0.402 0.459-0.589s-0.125-0.227-0.273-0.293c-0.148-0.066-0.429 0.034-0.566-0.081s0.040-0.356-0.114-0.488-0.509-0.058-0.691-0.201c-0.183-0.142-0.258-0.319-0.321-0.525s-0.070-0.433-0.027-0.582 0.171-0.176 0.248-0.253c0.077-0.078 0.144-0.142 0.041-0.257s-0.441 0.007-0.635-0.142c-0.194-0.148-0.075-0.503-0.213-0.653s-0.384-0.091-0.514-0.139c-0.13-0.048-0.181 0.121-0.261-0.146s-0.082-1.062-0.189-1.359c-0.107-0.297-0.318-0.020-0.416-0.315s-0.005-0.767-0.049-1.212l-0.2-1.212c-0.696 0.468-1.156 0.614-1.904 0.747-0.062 1.83-0.234 2.908 0.387 4.939s1.879 3.227 3.575 4.946c-2.238-1.677-3.306-3.040-3.975-4.786s-0.54-3.207-0.473-4.888zM18.75 18.086c0.172 0.008 0.381 0.051 0.502 0.13s0.249 0.143 0.359 0.254c0.274 0.279 0.479 0.615 0.57 1.002 0.058 0.246 0.066 0.562 0.087 0.852-0.083-0.267-0.139-0.546-0.257-0.786-0.186-0.378-0.503-0.746-0.895-0.916-0.13-0.056-0.216-0.046-0.287-0.036 0.032 0.053 0.085 0.098 0.088 0.177s-0.015 0.232-0.148 0.296c-0.214 0.104-0.453 0.031-0.619-0.116-0.167-0.148-0.224-0.397-0.137-0.612 0.104-0.255 0.501-0.256 0.736-0.246zM16.591 17.723c0.022-0.44 0.18-0.81 0.574-1.026 0.204-0.111 0.518-0.256 0.806-0.289 0.277-0.032 0.951-0.009 1.356 0.176 0.311 0.142 0.523 0.363 0.797 0.525s0.468 0.27 0.728 0.451c0.399 0.278 0.633 0.585 0.91 0.768 0.133 0.088 0.321 0.075 0.497 0.129-0.137 0.041-0.317 0.086-0.465 0.039-0.185-0.059-0.443-0.228-0.587-0.35-0.253-0.214-0.385-0.319-0.662-0.48-0.165-0.096-0.437-0.21-0.619-0.328s-0.497-0.378-0.671-0.466c-0.222-0.112-0.621-0.174-0.868-0.166-0.34 0.010-0.833 0.066-1.096 0.305-0.262 0.237-0.361 0.446-0.302 0.755 0.098-0.113 0.164-0.256 0.263-0.34 0.204-0.175 0.439-0.183 0.694-0.15 0.286 0.037 0.43 0.203 0.524 0.474-0.063-0.047-0.18-0.149-0.273-0.181-0.216-0.075-0.38-0.052-0.583 0.057-0.239 0.128-0.174 0.319-0.209 0.53-0.016 0.098-0.053 0.176-0.079 0.264-0.090-0.024-0.173-0.061-0.241-0.129 0.003 0.099-0.012 0.185 0.009 0.296s0.074 0.243 0.111 0.364c-0.167-0.167-0.337-0.322-0.445-0.537s-0.181-0.454-0.17-0.691zM16.88 14.523c0.123-0.182 0.159-0.462 0.235-0.69-0.030 0.288 0.028 0.605-0.113 0.813s-0.388 0.172-0.592 0.233c0.159-0.121 0.348-0.174 0.47-0.357zM13.938 18.794c0.158-0.128 0.584-0.026 0.902-0.003-0.229 0.059-0.458 0.117-0.687 0.176-0.021 0.078-0.012 0.167-0.064 0.233s-0.152 0.091-0.227 0.136c0.008-0.205-0.082-0.415 0.076-0.543zM16.182 9.924c0.19 0.102 0.431 0.238 0.599 0.242s0.212-0.11 0.311-0.176c0.155 0.507 0.334 1.063 0.598 1.523 0.111 0.193 0.181 0.103 0.266 0.297s0.122 0.587 0.201 0.835 0.184 0.429 0.276 0.644c-0.234-0.331-0.536-0.754-0.666-1.030s-0.047-0.3-0.152-0.562c-0.105-0.263-0.319-0.672-0.478-1.008-0.114 0.015-0.255 0.036-0.342 0.009s-0.070-0.119-0.148-0.179c-0.078-0.060-0.21-0.036-0.32-0.132s-0.135-0.29-0.145-0.463zM15.158 12.423c0.179-0.016 0.401 0.032 0.569 0.023s0.287-0.053 0.431-0.079c-0.027-0.252-0.001-0.716-0.234-0.884-0.15-0.109-0.768-0.027-0.934 0.009-0.371 0.080-0.804 0.302-1.163 0.44 0.344-0.24 0.642-0.463 1.054-0.587 0.248-0.075 0.827-0.172 1.084-0.102 0.117 0.031 0.141 0.080 0.211 0.179 0.244 0.34 0.243 0.635 0.306 1.031 0.062 0.097 0.128 0.161 0.179 0.261s0.079 0.257 0.093 0.386c-0.064-0.092-0.025-0.208-0.202-0.277s-0.448-0.004-0.686 0.020c0.174 0.125 0.26 0.246 0.267 0.511 0.008 0.311-0.256 0.535-0.53 0.556-0.382 0.030-0.579-0.054-0.733-0.38-0.068-0.143-0.019-0.315-0.024-0.454-0.459 0.032-0.451 0.017-0.786 0.296 0.182 0.267 0.297 0.421 0.598 0.58 0.169 0.090 0.36 0.177 0.569 0.212s0.553 0.070 0.773 0.036c0.22-0.034 0.345-0.097 0.508-0.247s0.178-0.367 0.242-0.537c-0.015 0.164-0.033 0.373-0.094 0.493-0.186 0.362-0.506 0.47-0.889 0.471-0.368 0.001-0.823-0.084-1.165-0.225-0.274-0.113-0.727-0.434-0.835-0.713-0.073-0.191-0.015-0.424-0.023-0.637 0.379-0.252 0.473-0.19 0.921-0.264 0.188-0.031 0.316-0.1 0.495-0.116zM12.952 10.718c0.011-0.151 0.027-0.148 0.041-0.222-0.345-0.092-0.483 0.132-0.686 0.547-0.076 0.156-0.001 0.248-0.082 0.351s-0.212 0.088-0.344 0.186c-0.132 0.098-0.262 0.287-0.385 0.388-0.253 0.209-0.594 0.336-0.888 0.477 0.2-0.148 0.589-0.372 0.714-0.586 0.067-0.114 0.057-0.328 0.161-0.431s0.14-0.173 0.274-0.199c0.134-0.026 0.080-0.181 0.123-0.305s0.129-0.211 0.221-0.334c0.092-0.123 0.207-0.308 0.388-0.376s0.463 0.005 0.6-0.033c0.137-0.039 0.058-0.138 0.158-0.198s0.293-0.033 0.426-0.097c0.236-0.113 0.348-0.302 0.49-0.505 0.021 0.436 0.015 0.75-0.141 1.16-0.176 0.461-0.355 0.733-0.856 1.017-0.173 0.098-0.344 0.132-0.487 0.183 0.084-0.114 0.203-0.163 0.25-0.341s0.012-0.531 0.023-0.682zM21.034 12.843c-0.238 0.015-0.294-0.016-0.485 0.119 0.103 0.161 0.206 0.321 0.31 0.482-0.009-0.317 0.022-0.381 0.175-0.6zM20.41 12.612c0.33-0.14 0.617-0.254 0.976-0.277 0.144-0.009 0.367 0.013 0.512 0.020 0.124-0.182 0.281-0.326 0.339-0.533 0.038-0.138 0.019-0.778-0.048-0.944-0.197-0.483-0.389-0.504-0.66-0.781-0.197-0.201-0.205-0.507-0.264-0.849-0.022-0.126-0.083-0.285-0.112-0.415-0.355-0.060-0.736-0.079-1.145-0.059 0.198-0.19 0.389-0.363 0.446-0.648s0.010-0.635-0.152-0.891c-0.162-0.256-0.421-0.478-0.658-0.686s-0.578-0.38-0.803-0.55c0.293-0.105 0.592-0.259 0.879-0.314 0.747-0.145 1.391 0.077 2.112 0.512 0.419 0.253 0.765 0.494 1.204 0.953s0.981 1.3 1.405 1.799c0.424 0.499 0.766 0.893 1.136 1.191s0.705 0.382 1.057 0.573l0.549 0.583 0.445-0.55 0.715 0.081 0.148-0.803 0.656-0.18-0.107-1.082 0.472-0.335-0.355-0.673 0.36-0.736-0.47-0.841 0.181-0.81-0.544-0.463-0.071-0.86-0.759-0.289-0.304-0.749-0.853-0.010-0.419-0.556-0.574 0.040-0.64-0.070-0.362-0.267-0.525 0.349-0.636-0.332-1.264 0.48 0.824-0.716 0.854-0.136 0.654-0.167 0.883 0.29 0.777-0.197 0.749 0.443 0.793-0.044 0.39 0.699 0.79 0.091 0.427 0.777 0.497 0.271 0.132 0.996 0.442 0.42-0.195 0.871 0.521 0.66-0.489 0.707 0.523 0.442-0.668 0.592 0.676 0.705-0.817 0.263 0.532 0.756-0.667 0.115 0.438 0.831-0.752-0.010 0.379 0.622-0.825-0.099 0.197 0.895-0.623-0.548-0.214 1.085-0.43-0.779-0.233 0.972-0.531-0.717 0.014 1.019-0.587-0.916c0.124 0.52 0.099 1.089 0.44 1.579 1.058-0.143 1.749-0.41 2.56-1.189 0.738-0.71 1.62-2.191 1.859-3.131 0.273-1.072 0.281-3.043 0.013-4.134-0.258-1.051-0.594-1.553-1.194-2.41-0.573-0.609-1.138-1.253-1.866-1.687-1.069-0.638-2.439-0.81-3.657-0.793-0.674 0.009-1.126 0.139-1.529 0.285-0.705 0.256-1.269 0.816-1.986 1.092-0.234 0.090-0.421 0.093-0.605-0.006 0.18 0.361 0.376 0.522 0.826 0.654 0.325 0.095 1.101 0.035 1.635-0.014 0.574-0.053 0.873-0.224 1.653-0.213 0.762 0.010 1.366 0.3 1.696 0.489 0.681 0.39 1.17 0.822 1.594 1.507 0.233 0.376 0.397 0.8 0.512 1.233s0.165 0.918 0.173 1.342c0.007 0.424-0.025 0.802-0.129 1.184-0.242 0.893-0.777 1.801-1.876 1.661-0.672-0.086-1.686-1.348-2.026-1.811-0.685-0.934-1.39-1.968-2.25-2.746-0.525-0.474-1.243-0.801-1.949-0.865-1.324-0.121-1.716 0.13-2.712 0.952 0.203 0.065 0.4 0.1 0.608 0.194 0.461 0.208 0.883 0.476 1.25 0.821 0.385 0.361 0.558 0.589 0.572 1.106 0.009 0.343-0.273 0.618-0.532 0.866-0.158 0.152-0.368 0.29-0.496 0.408-0.17 0.156-0.38 0.327-0.167 0.576 0.080 0.094 0.22 0.164 0.337 0.251 0.187 0.139 0.101 0.654-0.145 0.79-0.315 0.175-0.691 0.155-0.95-0.079 0.328-0.049 0.536-0.092 0.527-0.36-0.005-0.155-0.202-0.284-0.396-0.373-0.467-0.213-0.82-0.182-1.285-0.516-0.47-0.338-0.48-0.523-0.607-1.054-0.226 0.024-0.435 0.029-0.738 0.129s-0.638 0.339-0.913 0.398c-0.693 0.149-0.831 0.105-1.21 0.007-0.667-0.173-1.536 0.123-2.399 0.399-0.144 0.046-0.724 0.001-1.115 0.139-0.604 0.212-1.45 0.725-1.939 1.136-0.741 0.624-1.715 2.492-2.265 4.636-0.058 0.652 0.128 1.091-0.283 1.409s-0.399 1.134-0.538 1.363c-0.139 0.229-0.3 0.128-0.6 0.449s-0.452 0.268-0.445 0.875c0.258-0.17 0.635-0.367 0.965-0.379 0.293-0.011 0.296 0.375 1.047-0.368 0.402-0.397 1.174-0.41 1.71-0.585s1.501-0.537 2.468-1.618c0.967-1.081 1.43-2.219 1.617-3.864 0.030 0.292 0.082 0.621-0.043 1.425s-0.394 1.708 0.173 2.791l0.353 0.674c-0.21-0.287-0.621-0.755-0.745-1.089l-0.285-0.77c-0.639 1.002-0.785 1.182-1.672 1.9-0.035 0.446-0.044 0.91 0.102 1.336s-0.087 0.918 0.024 1.198c0.111 0.281 0.367 0.121 0.451 0.405s-0.044 0.846 0.086 1.123c0.13 0.277 0.448 0.109 0.602 0.198s0.205 0.212 0.287 0.33c0.082 0.117-0.032 0.396 0.136 0.486s0.43 0.014 0.604 0.1c0.175 0.087 0.201 0.295 0.159 0.482s-0.228 0.273-0.31 0.462c-0.082 0.19-0.073 0.322 0.026 0.496s0.316 0.271 0.533 0.359c0.217 0.088 0.522 0.039 0.746 0.16s0.425 0.364 0.544 0.541c0.118 0.176 0.151 0.3 0.145 0.486s-0.081 0.399-0.18 0.578c-0.099 0.179-0.317 0.397 0.024 0.739s0.328 0.195 0.523 0.416c-0.021-0.384-0.18-0.696-0.064-0.985s0.464-0.339 0.647-0.469c0.183-0.13 0.289-0.308 0.434-0.462-0.002 0.199 0.019 0.412-0.003 0.561-0.046 0.304-0.136 0.573 0.317 0.622 0.204 0.022 0.397-0.11 0.612-0.19-0.112 0.201-0.308 0.363-0.337 0.604s0.006 0.505 0.173 0.744c0.167 0.239 0.455 0.416 0.666 0.557s0.324 0.152 0.486 0.228c0.008 0.237-0.039 0.487-0.012 0.71s0.097 0.42 0.226 0.605c0.129 0.184 0.336 0.29 0.531 0.427-0.107-0.249-0.323-0.485-0.321-0.746s0.081-0.447 0.336-0.679c0.255-0.232 0.852-0.433 1.134-0.659s0.372-0.364 0.473-0.583c0.101-0.219 0.073-0.572 0.092-0.769 0.093 0.276 0.106 0.362 0.136 0.65s-0.168 0.694-0.252 0.907c0.348-0.168 0.569-0.437 0.681-0.7 0.075 0.044 0.037 0.166 0.064 0.4 0.124-0.124 0.265-0.219 0.39-0.335s0.262-0.219 0.324-0.381c0.062-0.163 0.037-0.336-0.010-0.525s-0.257-0.408-0.371-0.615c-0.114-0.207 0.020-0.409 0.012-0.658-0.227-0.039-0.421-0.155-0.682-0.117s-0.561 0.331-0.828 0.334c-0.267 0.003-0.418-0.247-0.637-0.316s-0.441-0.061-0.661-0.092c0.279-0.267 1.363-0.395 2.104-0.515 0.652-0.106 1.299-0.168 1.96-0.177 0.295-0.004 0.674 0.093 0.879 0.034s0.161-0.198 0.222-0.351c0.17-0.425 0.086-0.804-0.006-1.233-0.593-0.070-1.211-0.155-1.809-0.109-0.584 0.045-1.276 0.323-1.879 0.342-0.524 0.016-1.3-0.101-1.749-0.375-0.55-0.335-0.975-1.055-1.126-1.286-0.246-0.376-0.556-1.115-0.745-1.452s-0.23-0.432-0.387-0.573c-0.157-0.141-0.372-0.152-0.558-0.228 0.214 0.022 0.448-0.046 0.643 0.066 0.293 0.168 0.62 0.864 0.802 1.166 0.193-0.647 0.148-0.901 0.706-1.265-0.45 0.504-0.461 0.886-0.571 1.48 0.374 0.614 0.894 1.592 1.575 1.863 0.246 0.098 0.668 0.16 0.934 0.193 0.827 0.102 1.625-0.16 2.437-0.36 0.594-0.147 1.196-0.088 1.918-0.045 0.245 0.014 0.823-0.133 0.943-0.381 0.065-0.134 0.060-0.295-0.033-0.437s-0.34-0.211-0.473-0.34c-0.133-0.128-0.209-0.28-0.313-0.421-0.552 0.106-1.005 0.146-1.415 0.157 0.294-0.121 0.575-0.19 0.881-0.309s0.652-0.316 0.899-0.479c0.247-0.163 0.404-0.257 0.582-0.447s0.407-0.385 0.539-0.617c0.131-0.232 0.152-0.491 0.159-0.778s-0.005-0.689-0.116-0.92c-0.11-0.231-0.323-0.301-0.495-0.356s-0.288 0.084-0.466 0.102c-0.178 0.019-0.345 0.131-0.602 0.010s-0.563-0.368-0.823-0.734c-0.26-0.366-0.446-0.964-0.712-1.425-0.458-0.793-1.028-1.534-1.573-2.27-0.045-0.181-0.112-0.432-0.135-0.678-0.039-0.428-0.046-0.874 0.086-1.291 0.102-0.32 0.25-0.658 0.585-0.789 0.134-0.053 0.304-0.073 0.423-0.029s0.238 0.18 0.19 0.336c-0.052 0.172-0.171 0.177-0.252 0.263-0.137 0.147-0.192 0.255-0.244 0.439 0.148-0.002 0.349-0.014 0.471 0.018 0.159 0.042 0.307 0.147 0.388 0.373-0.19-0.168-0.284-0.246-0.521-0.252-0.109-0.003-0.241 0.036-0.361 0.054-0.045 0.146-0.071 0.325-0.135 0.438s-0.187 0.086-0.233 0.218c-0.046 0.132-0.049 0.346-0.025 0.52zM22.069 12.414c0.073 0.029 0.101 0.035 0.193 0.105s0.219 0.14 0.292 0.307c0.073 0.168 0.070 0.427 0.054 0.532-0.064-0.019-0.151-0.006-0.218-0.063s-0.106-0.185-0.191-0.241c-0.085-0.055-0.156-0.043-0.25-0.055 0.048 0.137 0.072 0.275 0.049 0.399-0.049 0.272-0.209 0.41-0.468 0.442-0.113 0.014-0.293-0.023-0.391-0.041 0.046 0.102 0.123 0.191 0.169 0.293 0.219-0.032 0.381-0.027 0.499-0.082s0.244-0.178 0.395-0.231c0.151-0.052 0.286-0.051 0.451-0.077-0.13 0.112-0.216 0.225-0.346 0.337 0.095 0.277 0.191 0.555 0.286 0.832 0.202 0.127 0.392 0.193 0.647 0.349s0.561 0.436 0.893 0.588c0.332 0.153 0.53 0.236 0.877 0.301s0.623 0.346 0.964 0.392c0.341 0.046 0.979 0.055 1.242 0.029 0.299-0.029 0.687-0.183 0.721-0.511-0.25 0.062-0.633 0.006-0.826-0.465-0.086-0.209-0.044-0.594-0.175-0.841s-0.314-0.327-0.532-0.632c-0.218-0.305-0.576-0.786-0.776-1.194s-0.248-0.871-0.417-1.237-0.425-0.661-0.624-0.944c-0.433-0.617-0.782-1.038-1.495-1.349-0.343-0.15-0.734-0.19-1.1-0.284-0.149 0.067-0.354 0.141-0.39 0.315s0.033 0.432 0.16 0.563c0.212 0.219 0.526 0.456 0.65 0.804 0.079 0.223 0.102 0.973 0.034 1.176-0.072 0.211-0.237 0.339-0.375 0.479zM22.138 14.188c-0.066 0.057-0.117 0.116-0.223 0.163s-0.252 0.060-0.393 0.095c0.198 0.308 0.406 0.62 0.596 0.944s0.355 0.679 0.536 1.019c-0.009-0.195 0.003-0.402-0.025-0.584s-0.111-0.341-0.192-0.614c-0.082-0.273-0.182-0.644-0.298-1.024zM16.806 7.405c-0.028 0.303 0.023 0.778 0.086 1.075 0.075 0.356 0.148 0.54 0.436 0.754 0.529 0.392 0.866 0.326 1.272 0.554 0.193 0.108 0.439 0.29 0.51 0.482s-0.047 0.4-0.194 0.482c0.257 0.038 0.544-0.251 0.424-0.548-0.059-0.146-0.341-0.211-0.427-0.359s-0.086-0.299-0.045-0.449c0.073-0.27 0.607-0.515 0.796-0.729 0.29-0.328 0.402-0.603 0.237-1.026-0.231-0.594-1.123-1.071-1.657-1.304-0.245-0.107-0.382-0.114-0.572-0.171 0.391 0.229 0.802 0.411 1 0.923 0.165 0.427 0.022 0.588 0.028 0.96 0.003 0.172 0.23 0.259 0.331 0.368 0.088 0.095 0.081 0.165 0.011 0.296-0.008-0.118-0.058-0.206-0.149-0.27-0.149-0.106-0.311-0.083-0.39-0.301-0.121-0.33 0.119-0.643-0.151-1.014-0.202-0.277-0.47-0.588-0.832-0.596-0.171-0.004-0.3 0.022-0.483 0.076l-0.244-0.293-0.006-0.004c-0.496-0.453-0.835-0.826-1.531-1.137s-1.039-0.358-1.836-0.34c-0.798 0.018-1.589 0.084-2.513 0.881s-3.305 3.848-3.883 4.234c-0.577 0.386-0.705 0.517-1.427 0.517s-1.848-1.020-1.892-2.296c-0.044-1.276-0.062-1.729 0.825-3.265s2.493-2.008 3.685-2.168c1.192-0.159 1.908 0.26 2.79 0.262s1.753-0.15 2.010-0.851c-0.126 0.075-0.294 0.159-0.768 0.135s-1.131-0.573-1.87-0.941c-0.739-0.367-1.561-0.41-2.616-0.43s-2.371 0.061-3.675 0.765c-1.304 0.704-2.194 1.451-2.95 2.828s-0.869 2.502-0.747 4.171 0.636 2.909 1.627 4.129c0.991 1.221 1.98 1.818 3.766 2.040l0.376-1.657-0.671 0.963 0.017-1.071-0.607 0.753-0.266-1.021-0.492 0.819-0.244-1.14-0.712 0.576 0.225-0.941-0.943 0.104 0.433-0.654-0.859 0.010 0.5-0.873-0.763-0.121 0.608-0.794-0.934-0.277 0.773-0.74-0.763-0.622 0.597-0.464-0.558-0.743 0.596-0.693-0.222-0.915 0.506-0.441 0.151-1.046 0.567-0.285 0.488-0.817 0.902-0.096 0.445-0.735 0.906 0.046 0.857-0.466 0.889 0.207 1.009-0.305 0.747 0.175 0.975 0.143 0.942 0.753-1.444-0.504-0.726 0.348-0.601-0.367-0.413 0.281-0.732 0.073-0.656-0.042-0.478 0.584-0.975 0.010-0.348 0.787-0.867 0.304-0.081 0.904-0.622 0.487 0.207 0.851-0.537 0.884 0.412 0.773-0.405 0.707 0.539 0.352-0.122 1.137 0.75 0.189 0.169 0.843 0.817-0.085 0.508 0.578 0.628-0.613c1.144-0.57 1.615-0.89 2.507-1.854 1.015-1.098 1.597-2.113 2.949-2.864 0.97-0.539 1.761-0.733 2.85-0.545 1.023 0.177 1.365 0.79 2.118 1.436 0.080-0.145 0.096-0.183 0.228-0.289-0.041 0.188-0.107 0.382-0.123 0.563z"></path>
</svg>
