<!-- Generated by IcoMoon.io -->
<svg version="1.1" xmlns="http://www.w3.org/2000/svg" width="32" height="32" viewBox="0 0 32 32">
<title>go</title>
<path d="M15.292 0.037c-0.151 0.019-0.876 0.104-1.601 0.188-1.949 0.226-3.626 0.782-4.841 1.611-0.395 0.273-0.414 0.283-0.706 0.132-0.424-0.217-1.544-0.254-2.1-0.066-0.772 0.254-1.281 0.829-1.431 1.62-0.113 0.593 0.009 1.29 0.32 1.752 0.188 0.283 0.876 0.782 1.29 0.942 0.028 0.019-0.028 0.603-0.132 1.3-0.16 1.064-0.179 1.582-0.141 3.155 0.028 1.036 0.113 2.288 0.188 2.778 0.085 0.49 0.179 1.215 0.207 1.61l0.066 0.716-0.405 0.066c-0.641 0.094-1.62 0.622-1.724 0.913-0.122 0.349-0.009 0.678 0.358 1.074 0.377 0.396 0.603 0.386 1.234-0.038l0.377-0.254v4.332c0 4.304 0 4.351 0.217 4.869 0.283 0.706 0.866 1.592 1.431 2.204l0.471 0.49-0.471 0.301c-0.518 0.339-0.942 0.951-0.942 1.375 0 0.179 0.104 0.358 0.339 0.574 0.283 0.273 0.405 0.32 0.791 0.32 0.414 0 0.518-0.047 0.961-0.424 0.273-0.235 0.678-0.518 0.895-0.631l0.405-0.207 0.866 0.292c1.469 0.499 2.364 0.631 4.266 0.622 2.411-0.009 4.407-0.358 5.877-1.027 0.273-0.122 0.574-0.226 0.65-0.226 0.085 0 0.48 0.349 0.885 0.763 0.725 0.763 0.735 0.772 1.121 0.716 0.556-0.075 0.932-0.462 0.932-0.942 0-0.518-0.226-0.942-0.772-1.432l-0.461-0.414 0.442-0.593c0.838-1.14 1.319-2.392 1.648-4.294 0.188-1.14 0.226-3.315 0.104-5.745-0.038-0.631-0.057-1.149-0.057-1.149 0.009 0 0.207 0.104 0.424 0.235 0.546 0.311 0.876 0.301 1.177-0.019 0.273-0.292 0.349-0.537 0.301-0.979-0.038-0.405-0.405-0.659-1.271-0.895-0.348-0.085-0.659-0.179-0.687-0.207-0.028-0.019-0.075-1.714-0.113-3.767-0.066-3.842-0.066-3.899-0.518-5.839-0.028-0.122-0.009-0.207 0.066-0.207 0.235 0 0.951-0.593 1.168-0.97 0.461-0.772 0.405-1.761-0.141-2.514-0.565-0.782-1.789-1.055-2.948-0.669l-0.593 0.198-0.48-0.311c-0.669-0.452-1.799-0.904-2.797-1.121-0.819-0.179-3.447-0.311-4.144-0.207zM18.927 0.498c3.099 0.537 4.765 1.987 5.745 4.973 0.584 1.78 0.659 2.562 0.744 7.647 0.047 2.533 0.132 5.481 0.188 6.545s0.075 2.354 0.047 2.872c-0.122 1.874-0.537 3.607-1.139 4.756-0.405 0.772-1.187 1.752-1.469 1.836-0.122 0.038-0.386 0.226-0.593 0.424-1.083 1.027-3.428 1.658-6.498 1.761-1.874 0.056-2.976-0.075-4.436-0.537-0.819-0.264-0.979-0.358-1.356-0.744-0.471-0.499-0.904-0.763-1.262-0.763-0.471 0-1.733-1.639-2.128-2.75-0.283-0.8-0.33-2.806-0.188-7.374l0.122-3.993-0.226-1.771c-0.593-4.652-0.009-8.269 1.695-10.388 0.753-0.932 1.921-1.61 3.616-2.091 1.667-0.471 5.509-0.697 7.139-0.405zM25.425 1.873c1.187 0.603 1.243 2.477 0.104 3.202-0.235 0.151-0.452 0.273-0.48 0.273-0.038 0-0.151-0.264-0.264-0.574l-0.217-0.584 0.245-0.283c0.179-0.207 0.226-0.348 0.179-0.527-0.113-0.452-0.367-0.584-0.895-0.461-0.198 0.047-0.292-0.019-0.64-0.461-0.226-0.283-0.396-0.527-0.377-0.556 0.019-0.019 0.273-0.094 0.556-0.179 0.612-0.17 1.281-0.113 1.789 0.151zM7.607 2.155c0.264 0.057 0.499 0.141 0.527 0.179 0.028 0.047-0.132 0.32-0.348 0.603-0.386 0.499-0.424 0.518-0.744 0.471-0.292-0.047-0.367-0.019-0.537 0.198-0.264 0.339-0.264 0.537 0.019 0.857l0.217 0.264-0.179 0.546c-0.104 0.301-0.235 0.546-0.292 0.546-0.188 0-0.791-0.405-0.989-0.659-0.8-1.055-0.283-2.628 0.989-2.976 0.574-0.151 0.753-0.16 1.337-0.028zM26.772 15.924c0.65 0.245 0.961 0.584 0.866 0.951l-0.056 0.235-0.32-0.188c-0.188-0.113-0.348-0.151-0.377-0.094-0.038 0.047 0.019 0.113 0.123 0.151 0.301 0.094 0.433 0.301 0.292 0.471-0.188 0.226-0.593 0.169-1.064-0.151l-0.443-0.292v-0.65c0-0.612 0.009-0.65 0.217-0.64 0.113 0 0.461 0.094 0.763 0.207zM6.392 16.291c0 0.763-0.104 1.017-0.518 1.3-0.574 0.396-0.829 0.443-1.092 0.179-0.198-0.198-0.207-0.217-0.047-0.311 0.386-0.235 0.461-0.311 0.367-0.367-0.056-0.038-0.207 0.028-0.348 0.132-0.207 0.16-0.254 0.17-0.301 0.047-0.17-0.443 0.16-0.81 1.008-1.102 0.772-0.264 0.932-0.245 0.932 0.122zM23.975 29.542c0.499 0.367 0.932 1.205 0.81 1.573-0.132 0.396-0.245 0.358-0.499-0.179-0.132-0.264-0.283-0.499-0.339-0.509-0.057-0.019 0.019 0.217 0.179 0.527 0.151 0.311 0.245 0.603 0.207 0.659-0.028 0.056-0.198 0.104-0.377 0.104-0.264 0-0.396-0.094-0.895-0.659-0.311-0.358-0.659-0.678-0.763-0.706-0.283-0.094-0.217-0.273 0.245-0.697 0.527-0.48 0.885-0.509 1.431-0.113zM9.397 29.598c0.151 0.075 0.424 0.32 0.612 0.537l0.348 0.396-0.367 0.169c-0.198 0.094-0.612 0.386-0.923 0.65-0.631 0.537-0.866 0.622-1.262 0.461-0.245-0.104-0.264-0.132-0.179-0.358 0.057-0.141 0.207-0.395 0.339-0.565s0.217-0.339 0.188-0.367c-0.075-0.066-0.509 0.433-0.64 0.744-0.132 0.33-0.254 0.339-0.33 0.028-0.132-0.537 0.245-1.102 1.036-1.554 0.537-0.311 0.791-0.349 1.177-0.141z"></path>
<path d="M18.701 1.675c-0.951 0.245-1.78 0.923-2.166 1.78-0.292 0.631-0.273 1.686 0.028 2.317 0.32 0.659 1.008 1.309 1.667 1.554 0.735 0.273 1.94 0.235 2.571-0.085 1.045-0.537 1.526-1.271 1.582-2.477 0.038-0.716 0.010-0.866-0.188-1.318-0.33-0.716-0.753-1.158-1.422-1.488-0.65-0.311-1.479-0.424-2.072-0.283zM20.547 2.033c1.592 0.706 2.194 2.665 1.281 4.116-0.867 1.366-3.098 1.62-4.37 0.499-1.092-0.961-1.281-2.42-0.471-3.607 0.772-1.13 2.307-1.563 3.56-1.008z"></path>
<path d="M17.11 4.114c-0.763 0.678-0.019 1.883 0.998 1.601 0.377-0.104 0.716-0.537 0.716-0.914 0-0.857-1.055-1.281-1.714-0.687z"></path>
<path d="M11.007 2.043c-0.753 0.235-1.497 0.857-1.865 1.554-0.217 0.405-0.254 0.603-0.254 1.281 0 0.659 0.038 0.885 0.226 1.262 0.895 1.818 3.315 2.279 4.812 0.932 0.725-0.65 0.989-1.215 0.989-2.147 0-0.64-0.038-0.838-0.264-1.29-0.518-1.055-1.563-1.686-2.778-1.667-0.348 0-0.735 0.038-0.866 0.075zM13.286 2.457c2.062 1.205 1.949 3.937-0.207 4.991-0.659 0.32-1.752 0.292-2.467-0.056-2.138-1.055-2.109-3.993 0.057-5.029 0.424-0.198 0.584-0.226 1.328-0.198 0.725 0.028 0.923 0.075 1.29 0.292z"></path>
<path d="M10.018 4.096c-0.283 0.066-0.678 0.48-0.735 0.763-0.066 0.33 0.132 0.8 0.414 0.998 0.123 0.085 0.396 0.151 0.612 0.151 1.092 0 1.366-1.422 0.358-1.846-0.33-0.141-0.339-0.141-0.65-0.066z"></path>
<path d="M15.32 6.657c-0.49 0.104-0.829 0.348-0.895 0.678-0.028 0.179-0.151 0.33-0.311 0.414-0.593 0.311-0.904 0.97-0.697 1.507 0.085 0.198 0.527 0.424 0.866 0.424h0.273l-0.085 0.49c-0.104 0.622-0.028 1.064 0.217 1.309s0.584 0.226 0.895-0.047l0.264-0.217 0.16 0.188c0.198 0.254 0.772 0.254 1.045 0 0.17-0.151 0.188-0.254 0.151-0.951l-0.038-0.772h0.292c1.074 0 1.055-1.403-0.028-1.931-0.264-0.122-0.395-0.245-0.395-0.377-0.009-0.273-0.207-0.499-0.593-0.659-0.367-0.151-0.565-0.16-1.121-0.056zM17.307 7.891c0.509 0.254 0.763 0.603 0.763 1.055 0 0.33-0.038 0.386-0.311 0.499-0.33 0.141-0.735 0.085-1.507-0.188-0.424-0.151-0.471-0.151-1.092 0.038-1.121 0.339-1.61 0.207-1.629-0.433-0.009-0.377 0.151-0.631 0.546-0.885 0.33-0.198 0.348-0.198 0.678-0.038 0.188 0.085 0.556 0.179 0.819 0.207 0.386 0.038 0.546 0 0.895-0.188 0.235-0.132 0.433-0.245 0.452-0.245 0.009-0.009 0.188 0.075 0.386 0.179zM15.753 10.17c-0.075 0.998-0.141 1.177-0.461 1.262-0.565 0.141-0.772-0.245-0.65-1.158l0.085-0.64 0.471-0.16c0.264-0.085 0.499-0.16 0.537-0.169 0.038 0 0.047 0.396 0.019 0.866zM16.479 9.501c0.471 0.16 0.556 0.32 0.556 1.045 0 0.565-0.028 0.65-0.226 0.782-0.32 0.207-0.706 0.094-0.772-0.226-0.028-0.132-0.075-0.311-0.094-0.386-0.066-0.188 0.066-1.319 0.151-1.319 0.038 0 0.207 0.047 0.386 0.104z"></path>
</svg>
