<!-- Generated by IcoMoon.io -->
<svg version="1.1" xmlns="http://www.w3.org/2000/svg" width="25" height="32" viewBox="0 0 25 32">
<title>gofore</title>
<path d="M20.25 19.988h-0.825v2.169c-1.531 1.444-3.519 2.238-5.619 2.238-4.575 0-8.275-3.762-8.275-8.4 0-4.631 3.7-8.4 8.275-8.4 2.206 0 4.287 0.875 5.85 2.463l3.894-3.956c-2.613-2.644-6.069-4.1-9.756-4.1-7.669 0-13.794 6.288-13.794 14 0 7.656 6.063 14 13.794 14 3.95 0 7.781-1.637 10.688-5.156-0.125-1.725-0.837-4.856-4.231-4.856zM19.494 12.956h-6.644v5.563h7.4c2.094 0 3.781 0.944 4.75 2.613v-1.913c0-4.075-2.525-6.262-5.506-6.262z"></path>
</svg>
