<!-- Generated by IcoMoon.io -->
<svg version="1.1" xmlns="http://www.w3.org/2000/svg" width="28" height="32" viewBox="0 0 28 32">
<title>goodreads</title>
<path d="M18.744 11.95c0.319 2.331-0.294 4.938-2.244 6.294-1.394 0.969-3.3 0.881-4.425 0.356-2.319-1.081-3.094-3.662-2.925-6.075 0.269-3.806 2.556-5.494 4.706-5.469 2.931-0.013 4.488 1.988 4.887 4.894zM28 5.5v21c0 1.931-1.569 3.5-3.5 3.5h-21c-1.931 0-3.5-1.569-3.5-3.5v-21c0-1.931 1.569-3.5 3.5-3.5h21c1.931 0 3.5 1.569 3.5 3.5zM20.625 19.575s-0.006-2.125-0.006-13.581h-1.813v2.519c-0.050 0.019-0.075-0.031-0.1-0.075-0.6-1.294-2.244-2.894-4.75-2.875-3.244 0.025-5.45 1.95-6.287 4.863-0.269 0.931-0.362 1.881-0.344 2.85 0.106 4.869 2.819 7.362 7.025 7.2 1.806-0.069 3.406-1.063 4.313-2.825 0.031-0.063 0.069-0.119 0.106-0.181 0.012 0.006 0.025 0.006 0.038 0.012 0.019 0.238 0.012 1.919 0.006 2.156-0.012 0.925-0.125 1.844-0.45 2.719-0.488 1.313-1.394 2.169-2.781 2.469-1.113 0.244-2.225 0.238-3.325-0.075-1.344-0.381-2.281-1.188-2.569-2.613-0.019-0.1-0.081-0.081-0.144-0.081h-1.675c0.050 0.663 0.2 1.269 0.531 1.825 1.512 2.531 5.169 3.031 8.012 2.337 3.119-0.769 4.206-3.431 4.212-6.644z"></path>
</svg>
