<!-- Generated by IcoMoon.io -->
<svg version="1.1" xmlns="http://www.w3.org/2000/svg" width="32" height="32" viewBox="0 0 32 32">
<title>google-analytics</title>
<path d="M32 29.175c0 1.554-1.271 2.825-2.825 2.825h-26.35c-1.554 0-2.825-1.271-2.825-2.825v-26.35c0-1.554 1.271-2.825 2.825-2.825h26.35c1.554 0 2.825 1.271 2.825 2.825v26.35zM32 10.054l-2.89-1.947c0.059-0.25 0.093-0.509 0.093-0.777 0-1.878-1.522-3.4-3.4-3.4s-3.4 1.522-3.4 3.4c0 0.739 0.238 1.421 0.638 1.978l-6.249 9.555c-0.255-0.061-0.519-0.096-0.792-0.096-0.837 0-1.602 0.304-2.195 0.805l-4.182-2.407c0.021-0.154 0.036-0.31 0.036-0.469 0-1.878-1.522-3.4-3.4-3.4s-3.4 1.522-3.4 3.4c0 0.466 0.094 0.91 0.264 1.315l-3.123 2.898v3.083l4.64-4.305c0.481 0.261 1.033 0.41 1.619 0.41 0.899 0 1.715-0.352 2.323-0.922l4.081 2.348c-0.040 0.209-0.063 0.424-0.063 0.644 0 1.878 1.522 3.4 3.4 3.4s3.4-1.522 3.4-3.4c0-0.782-0.267-1.501-0.711-2.075l6.205-9.488c0.29 0.080 0.593 0.127 0.908 0.127 0.787 0 1.51-0.27 2.087-0.72l4.11 2.769v-2.725z"></path>
</svg>
