<!-- Generated by IcoMoon.io -->
<svg version="1.1" xmlns="http://www.w3.org/2000/svg" width="28" height="32" viewBox="0 0 28 32">
<title>google-wallet</title>
<path d="M9.8 7.925c2.35 3.788 4.012 7.069 5.269 10.156-0.519 2.113-1.175 4.156-1.956 6.144-0.825-3.269-1.656-6.331-3.5-9.281 0.406-2.275 0.144-4.6 0.188-7.019zM6.831 12.5h-5.825c-0.406 0-0.656 0.469-0.406 0.794 2.638 3.394 4.481 7.363 5.731 11.706h6.469c-1.012-4.356-2.419-8.356-5.156-12.094-0.188-0.25-0.5-0.406-0.813-0.406zM9.819 7c4.281 6.75 8.125 14.656 8.637 23h7.106c-0.75-8.625-4.275-16.563-8.95-23h-6.794zM25.556 2.719c-0.113-0.425-0.512-0.719-0.95-0.719h-5.519c-0.331 0-0.563 0.313-0.488 0.644 0.825 2.906 1.394 5.969 1.656 9.125 3.012 5.387 4.981 11.144 5.662 16.925 0.988-3.781 1.581-8.344 1.581-12.688 0-4.6-0.756-9.069-1.944-13.287z"></path>
</svg>
