<!-- Generated by IcoMoon.io -->
<svg version="1.1" xmlns="http://www.w3.org/2000/svg" width="32" height="32" viewBox="0 0 32 32">
<title>gradle</title>
<path d="M24.875 28.125c-0.075 0-0.125 0-0.175 0-1.125 0-2.25 0-3.375 0-0.125 0-0.2-0.050-0.275-0.125-0.8-1-1.675-1.925-2.725-2.65-0.525-0.375-1.075-0.7-1.7-0.875-0.5-0.15-1.025-0.225-1.55-0.1s-0.975 0.425-1.35 0.8c-0.475 0.475-0.8 1.050-1.050 1.675-0.15 0.375-0.275 0.75-0.4 1.125-0.025 0.050-0.025 0.1-0.050 0.15-0.95 0-1.875 0-2.85 0-0.025-0.15-0.050-0.3-0.075-0.475-0.1-0.5-0.25-1-0.5-1.45-0.175-0.35-0.4-0.65-0.7-0.9-0.325-0.275-0.7-0.425-1.125-0.425-0.325 0-0.6 0.125-0.875 0.3-0.375 0.25-0.675 0.575-0.9 0.95-0.35 0.55-0.55 1.175-0.725 1.8-0.025 0.050-0.025 0.125-0.050 0.2-1.25 0-2.475 0-3.725 0-0.025-0.175-0.050-0.375-0.075-0.55-0.125-1.175-0.2-2.35-0.175-3.525 0.025-1.375 0.175-2.725 0.5-4.075 0.3-1.225 0.725-2.375 1.375-3.425 0.9-1.425 2.1-2.45 3.675-3.075 0.050-0.025 0.075-0.025 0.125-0.050 0 0 0.025 0 0.050 0 0.025 0.050 0.050 0.1 0.075 0.15 0.45 1 0.925 1.975 1.5 2.875 0.35 0.575 0.85 1 1.475 1.2 0.675 0.225 1.325 0.15 1.975-0.125 0.575-0.25 1.050-0.625 1.5-1.050 0.525-0.5 0.95-1.050 1.375-1.65 0.025-0.025 0.025-0.050 0.025-0.075-0.050 0.050-0.1 0.1-0.175 0.15-0.625 0.625-1.3 1.175-2.075 1.6-0.375 0.225-0.8 0.4-1.225 0.475-0.625 0.125-1.2 0.050-1.7-0.4-0.2-0.175-0.35-0.375-0.5-0.575-0.75-1.175-1.4-2.4-2-3.65-0.125-0.25-0.225-0.5-0.25-0.8-0.050-0.425 0.075-0.8 0.375-1.125 0.225-0.225 0.475-0.4 0.775-0.55 0.55-0.275 1.125-0.475 1.7-0.675 0.85-0.275 1.725-0.475 2.625-0.6 1.025-0.15 2.075-0.175 3.125-0.050 2.25 0.225 4.25 1.050 6.075 2.375 0.625 0.45 1.275 0.825 2.025 1.050 2.975 0.95 5.35-1.1 5.9-3.2 0.15-0.575 0.2-1.15-0.025-1.7-0.325-0.85-0.9-1.5-1.825-1.75-0.7-0.175-1.375-0.1-2.025 0.25-0.125 0.075-0.25 0.125-0.375 0.175-0.3 0.1-0.5 0.025-0.65-0.25-0.2-0.35-0.35-0.7-0.525-1.075-0.075-0.15-0.050-0.275 0.025-0.4 0.075-0.175 0.2-0.3 0.35-0.425 0.375-0.3 0.825-0.5 1.325-0.6 1.225-0.275 2.375-0.1 3.475 0.45 0.875 0.425 1.55 1.075 2.050 1.925 0.475 0.8 0.8 1.65 0.95 2.575 0.1 0.725 0.1 1.425 0.025 2.15-0.15 1.25-0.5 2.425-1 3.575-0.65 1.5-1.4 2.95-2.325 4.3-0.45 0.65-0.925 1.275-1.375 1.9-0.475 0.675-0.95 1.35-1.3 2.1-0.475 0.975-0.75 1.975-0.85 3.050-0.075 0.925-0.025 1.825 0.125 2.75 0.025 0.15 0.050 0.25 0.050 0.35zM22.825 15.275c0.075 0.6-0.125 1-0.675 1.225-0.4 0.15-0.9 0.025-1.15-0.325-0.4-0.525-0.275-1 0.175-1.45-0.45-0.15-0.9-0.3-1.325-0.425-0.1 0.25-0.15 0.625-0.125 0.925 0.050 0.6 0.275 1.1 0.775 1.425 0.525 0.35 1.125 0.5 1.75 0.375 0.65-0.125 1.15-0.5 1.5-1.050 0.075-0.1 0.125-0.2 0.125-0.35-0.35-0.1-0.7-0.225-1.050-0.35z"></path>
</svg>
