<!-- Generated by IcoMoon.io -->
<svg version="1.1" xmlns="http://www.w3.org/2000/svg" width="32" height="32" viewBox="0 0 32 32">
<title>graphql</title>
<path d="M18.731 3.682c0.077-0.258 0.118-0.531 0.118-0.814 0-1.575-1.273-2.848-2.848-2.848s-2.848 1.273-2.848 2.848v-0c0 0.001 0 0.002 0 0.003 0 0.288 0.043 0.566 0.116 0.807l-6.575 3.794c-0.185-0.194-0.396-0.363-0.642-0.507-1.363-0.784-3.109-0.318-3.893 1.045s-0.318 3.11 1.045 3.893l-0.014-0.007c0.232 0.136 0.485 0.239 0.773 0.31v7.592l-0.020 0.004c-0.265 0.066-0.515 0.169-0.731 0.296-1.363 0.792-1.828 2.53-1.045 3.893s2.522 1.828 3.893 1.045l0.013-0.007c0.23-0.135 0.44-0.302 0.624-0.495l6.57 3.793c-0.075 0.255-0.115 0.526-0.115 0.806 0 1.575 1.273 2.848 2.848 2.848s2.848-1.281 2.848-2.848v0c0-0.001 0-0.002 0-0.003 0-0.32-0.053-0.628-0.144-0.895l6.534-3.768c0.198 0.221 0.43 0.412 0.702 0.569 1.363 0.783 3.11 0.318 3.893-1.045 0.792-1.363 0.326-3.101-1.045-3.893l0.014 0.007c-0.23-0.134-0.48-0.237-0.764-0.308v-7.592l0.020-0.004c0.268-0.066 0.521-0.17 0.739-0.298 1.363-0.792 1.828-2.53 1.045-3.893-0.792-1.363-2.53-1.828-3.893-1.045l-0.013 0.007c-0.234 0.137-0.446 0.307-0.633 0.504l-6.572-3.794zM18.046 4.851l6.587 3.803c-0.070 0.234-0.11 0.504-0.11 0.782 0 0.523 0.141 1.013 0.388 1.435l-0.007-0.013c0.401 0.698 1.054 1.16 1.779 1.34v7.601c-0.037 0.009-0.074 0.019-0.11 0.029l-8.604-14.901c0.026-0.025 0.052-0.050 0.077-0.076zM14.032 4.929l-8.604 14.901c-0.017-0.006-0.055-0.016-0.092-0.026l-0.020-0.004v-7.602c0.725-0.18 1.378-0.643 1.779-1.34 0.239-0.408 0.381-0.898 0.381-1.421 0-0.28-0.040-0.551-0.116-0.806l0.005 0.020 6.586-3.802c0.027 0.027 0.054 0.054 0.081 0.081zM16.796 5.604l8.602 14.898c-0.193 0.185-0.36 0.395-0.494 0.626l-0.007 0.014c-0.127 0.216-0.23 0.466-0.296 0.731l-0.004 0.020h-17.191c-0.070-0.285-0.173-0.535-0.308-0.764l0.007 0.014c-0.142-0.243-0.308-0.452-0.5-0.635l-0.001-0.001 8.603-14.901c0.237 0.071 0.509 0.112 0.791 0.112 0.001 0 0.002 0 0.003 0h-0c0.276 0 0.543-0.039 0.796-0.112zM18.106 27.213l-0.002-0.002c-0.519-0.57-1.268-0.927-2.099-0.927-0.002 0-0.003 0-0.005 0h0c-0.002 0-0.004 0-0.006 0-0.804 0-1.529 0.334-2.047 0.871l-6.577-3.797c0.011-0.037 0.020-0.073 0.030-0.11h17.198l0.004 0.020c0.016 0.063 0.034 0.126 0.048 0.167l-6.545 3.779z"></path>
</svg>
