<!-- Generated by IcoMoon.io -->
<svg version="1.1" xmlns="http://www.w3.org/2000/svg" width="24" height="32" viewBox="0 0 24 32">
<title>gripfire</title>
<path d="M7.031 18.837c0-4.613 6.569-7.656 6.569-12.688 0-2.944-2.125-5.5-2.444-5.65 0.025 0.206 0.037 0.419 0.037 0.625 0 5.756-9.194 9.619-9.194 16.788 0 3.113 2.013 4.95 4.156 6.769 4.069 2.919 4.881 4.463 4.881 5.412 0 0.631-0.3 1.063-0.3 1.394 0.819-1.044 1.088-1.994 1.094-2.9 0-1.85-1.356-3.519-2.763-5.406-1-1.394-2.037-2.663-2.037-4.344zM19.863 16.4c-0.756-4.175-4.875-7.775-5.919-8.181l0.25 0.45c0.15 0.319 0.213 0.681 0.213 1.069 0 2.794-3.388 6.95-3.537 7.294-0.137 0.319-0.2 0.656-0.2 0.988 0 1.256 0.95 2.631 1.119 2.631 0.15 0 3.537-3.462 3.631-5.481 0.4 0.731 0.569 1.413 0.569 2.087 0 2.575-2.612 6.056-2.612 6.056 0 0.725 1.994 3.325 2.219 3.325 0.063 0 0.137-0.087 0.2-0.15 2.369-2.456 4.206-5.313 4.206-8.55 0-0.5-0.044-1.012-0.137-1.538z"></path>
</svg>
