<!-- Generated by IcoMoon.io -->
<svg version="1.1" xmlns="http://www.w3.org/2000/svg" width="32" height="32" viewBox="0 0 32 32">
<title>grunt</title>
<path d="M15.996 11.73v0.001c0.001 0 0.003-0 0.004-0s0.003 0 0.005 0v-0.001c0.796-0.008 1.702-1.113 1.702-1.113-0.622 0.376-1.177 0.507-1.707 0.518-0.53-0.011-1.085-0.142-1.707-0.518-0 0 0.905 1.105 1.702 1.113z"></path>
<path d="M13.994 26.156h-0.4c-0.417 0-0.906 0-1.196 0l-0.244 0c-0.342 0-0.511 0.098-0.592 0.18-0.118 0.119-0.136 0.286-0.055 0.493 0.217 0.555 0.711 1.008 0.856 1.134 0.191 0.165 0.466 0.263 0.735 0.263 0.276 0 0.521-0.099 0.689-0.279 0.47-0.502 0.747-1.043 0.814-1.208 0.039-0.095 0.083-0.275-0.055-0.417-0.107-0.11-0.294-0.166-0.554-0.166z"></path>
<path d="M7.829 11.832c-0.072 0.627 0.326 1.196 0.326 1.196 0.041-0.466 0.138-0.798 0.252-1.034 0.027 0.643 0.198 1.471 0.797 2.134 0.43 0.476 2.225 1.46 3.429 0.382 0.063 0.153 0.129 0.333 0.185 0.529 0.182 0.641-0.166 1.578-0.166 1.578s0.941-1.066 0.868-2.033c0.675-0.029 1.339-0.526 1.32-1.219 0 0-1.178 0.65-2.219-0.547-0.608-0.699-2.555-2.626-5.196-1.986 0.271 0.060 0.556 0.148 0.846 0.258-0.003 0.001-0.005 0.002-0.008 0.003-0.256 0.113-0.399 0.43-0.435 0.74zM9.602 11.719c1.22 0.686 2.34 1.604 2.807 2.314h-0c0 0 0.001 0.002 0.001 0.002-0.359 0.208-1.356 0.652-2.373-0.104-0.65-0.483-0.621-1.645-0.435-2.212z"></path>
<path d="M19.847 26.157l-0.244-0c-0.29-0-0.778-0-1.196-0h-0.401c-0.26 0-0.446 0.056-0.554 0.166-0.138 0.142-0.094 0.322-0.056 0.417 0.067 0.166 0.345 0.706 0.815 1.208 0.168 0.18 0.413 0.279 0.689 0.279 0.269 0 0.544-0.098 0.735-0.263 0.146-0.126 0.639-0.579 0.857-1.134 0.081-0.208 0.063-0.374-0.055-0.493-0.081-0.082-0.249-0.18-0.591-0.18z"></path>
<path d="M18.48 14.584c-0.073 0.966 0.868 2.033 0.868 2.033s-0.348-0.937-0.166-1.578c0.056-0.196 0.122-0.376 0.185-0.529 1.204 1.079 2.998 0.095 3.429-0.382 0.6-0.663 0.771-1.491 0.798-2.134 0.114 0.237 0.211 0.569 0.252 1.035 0 0 0.398-0.57 0.326-1.196-0.035-0.309-0.178-0.627-0.434-0.74-0.003-0.001-0.005-0.002-0.008-0.003 0.29-0.11 0.575-0.198 0.846-0.258-2.641-0.641-4.588 1.287-5.196 1.986-1.041 1.197-2.219 0.547-2.219 0.547-0.019 0.694 0.645 1.19 1.32 1.22zM19.591 14.034c0-0 0-0 0-0 0.467-0.71 1.587-1.628 2.807-2.314 0.186 0.567 0.215 1.729-0.435 2.212-1.018 0.756-2.015 0.312-2.373 0.104 0-0 0.001-0.001 0.001-0.001z"></path>
<path d="M25.828 19.83c-0.149 1.117-0.814 2.115-1.536 2.734-0.192-1.42-0.232-3.469-0.232-3.9 0-0.919 0.593-1.533 0.762-1.63 0.159-0.092 0.335-0.186 0.52-0.285 1.125-0.603 2.526-1.352 2.526-2.734 0-1.010-0.581-1.448-0.965-1.738-0.049-0.037-0.094-0.071-0.135-0.104-0.13-0.105-0.233-0.188-0.27-0.272-0.272-0.612-0.222-2.141-0.104-2.351 0.035-0.040 1.046-1.308 0.735-2.447-0.127-0.465-0.431-0.832-0.882-1.062-0.332-0.17-0.742-0.264-1.22-0.281-0.006-0.123-0.032-0.246-0.058-0.367-0.035-0.163-0.072-0.331-0.057-0.504 0.025-0.291 0.048-0.565 0.135-0.703 0.528-0.833 1.803-1.1 1.816-1.103l0.766-0.15-0.508-0.594c-0.009-0.011-1.080-1.092-2.893-1.092-0.495 0-1.001 0.082-1.505 0.245-1.515 0.488-2.679 1.906-3.085 2.454-0.196-0.061-0.396-0.117-0.599-0.167-0.262-0.988 0.559-2.405 0.559-2.405s-0.847-0.189-2.104 0.952c-0.163-0.406-0.504-1.282-0.11-2.328-1.841 0.65-2.307 1.643-2.445 2.543-0.474-0.339-0.421-1.441-0.447-1.724-0.471 0.056-1.823 1.368-1.762 3.020-0.123 0.034-0.246 0.069-0.367 0.107-0.406-0.548-1.57-1.966-3.085-2.454-0.504-0.163-1.010-0.245-1.505-0.245-1.813 0-2.884 1.081-2.893 1.092l-0.508 0.594 0.766 0.15c0.013 0.003 1.287 0.269 1.815 1.102 0.088 0.138 0.111 0.413 0.135 0.703 0.015 0.173-0.022 0.341-0.057 0.504-0.026 0.121-0.052 0.244-0.058 0.367-0.478 0.018-0.889 0.112-1.221 0.281-0.45 0.23-0.755 0.598-0.882 1.062-0.31 1.139 0.701 2.407 0.735 2.447 0.118 0.21 0.168 1.739-0.105 2.351-0.037 0.084-0.14 0.167-0.27 0.272-0.041 0.033-0.086 0.067-0.134 0.104-0.384 0.29-0.965 0.728-0.965 1.738 0 1.382 1.401 2.131 2.526 2.734 0.185 0.099 0.361 0.193 0.52 0.285 0.168 0.097 0.761 0.711 0.761 1.63 0 0.43-0.040 2.48-0.232 3.9-0.722-0.619-1.387-1.617-1.537-2.735 0 0-1.827 1.41-1.29 4.427 0.487 2.741 2.722 3.695 5.315 3.896 0.869 2.025 2.248 3.844 5.799 3.847v0c0.001 0 0.003-0 0.004-0s0.003 0 0.005 0v-0c3.551-0.003 4.93-1.821 5.799-3.847 2.593-0.201 4.827-1.155 5.315-3.896 0.537-3.017-1.29-4.427-1.29-4.427zM23.108 2.356c0.353-0.114 0.724-0.171 1.104-0.171 0.688 0 1.246 0.188 1.543 0.313-0.192 0.087-0.401 0.197-0.606 0.333-0.151-0.026-0.347-0.049-0.575-0.049-0.657 0-1.278 0.193-1.797 0.557-0.77 0.541-1.127 1.057-1.291 1.398-0.137-0.079-0.284-0.157-0.441-0.234-0.098-0.048-0.197-0.093-0.297-0.138 0.383-0.562 1.244-1.65 2.359-2.009zM24.419 3.496c-0.050 0.064-0.098 0.131-0.143 0.202-0.207 0.327-0.241 0.727-0.273 1.113-0.034 0.401-0.067 0.783-0.273 1.060-0.261 0.049-0.505 0.108-0.717 0.167-0.141-0.196-0.351-0.438-0.657-0.697 0.090-0.3 0.346-1.009 0.847-1.408 0.343-0.273 0.753-0.419 1.217-0.437zM6.853 2.831c-0.205-0.137-0.414-0.247-0.606-0.334 0.297-0.126 0.855-0.313 1.543-0.313 0.38 0 0.751 0.058 1.104 0.171 1.114 0.359 1.975 1.448 2.359 2.009-0.1 0.045-0.199 0.091-0.297 0.138-0.158 0.077-0.304 0.155-0.441 0.234-0.164-0.34-0.521-0.856-1.291-1.397-0.519-0.364-1.14-0.557-1.797-0.557-0.227 0-0.423 0.023-0.574 0.049zM9.646 5.34c-0.306 0.26-0.516 0.502-0.657 0.698-0.213-0.059-0.456-0.118-0.716-0.167l-0.689-2.375c0.464 0.018 0.873 0.164 1.216 0.437l0.847 1.407zM7.634 16.245c-0.17-0.098-0.347-0.193-0.526-0.29-0.929-0.502-1.889-1.021-1.889-1.907 0-0.693 0.269-0.91 0.555-1.14l0.175-0.198c-0.060 0.477-0.125 0.89-0.176 0.993 0 0 0.759-0.941 0.983-2.771 0.088-0.721-0.069-2.143-0.319-2.69 0.010 0.305 0.001 0.609-0.020 0.898-0.025-0.052-0.051-0.098-0.081-0.134-0.201-0.251-0.739-1.095-0.584-1.662 0.059-0.216 0.195-0.377 0.417-0.49 0.235-0.12 0.552-0.181 0.943-0.181 0.767 0 1.618 0.233 2.057 0.372 1.569 0.497 3.461 1.93 4.003 2.358 0.015 0.012 0.025 0.019 0.026 0.020l0.347 0.241-0.217-0.363c-0.012-0.021-1.194-1.962-3.322-2.907 0.125-0.181 0.459-0.508 1.349-0.942 1.34-0.654 2.903-0.985 4.646-0.986 1.742 0.001 3.305 0.332 4.645 0.986 0.889 0.434 1.224 0.761 1.349 0.942-2.128 0.945-3.309 2.885-3.322 2.906l-0.217 0.363 0.347-0.241c0.002-0.001 0.011-0.008 0.026-0.020 0.543-0.427 2.435-1.861 4.004-2.358 0.439-0.139 1.29-0.372 2.057-0.372 0.391 0 0.708 0.061 0.943 0.181 0.222 0.114 0.358 0.274 0.417 0.49 0.155 0.567-0.384 1.411-0.585 1.662-0.030 0.037-0.057 0.083-0.081 0.135-0.021-0.289-0.031-0.594-0.020-0.899-0.251 0.547-0.407 1.969-0.319 2.69 0.225 1.83 0.983 2.771 0.983 2.771-0.049-0.098-0.11-0.481-0.168-0.933 0.046 0.040 0.092 0.077 0.137 0.113l0.031 0.025c0.285 0.23 0.555 0.447 0.555 1.14 0 0.886-0.96 1.405-1.888 1.907-0.179 0.097-0.356 0.193-0.526 0.29-0.542 0.313-1.126 1.045-1.192 2.137-0.055 0.914 0.055 3.119 0.214 4.741-0.778 0.301-1.67 0.4-2.481 0.423-0.127-0.258-0.245-0.534-0.343-0.821-0.042-0.122-1.224-3.191-1.649-3.89 0.341 2.437 1.095 4.605 1.469 5.6-0.216-0.029-0.458-0.046-0.732-0.046 0 0-2.596-0.002-3.648-0.002-0.001 0-0.003 0-0.004 0 0 0-0.003 0-0.005 0-1.051 0.001-3.648 0.002-3.648 0.002-0.274 0-0.516 0.017-0.732 0.046 0.374-0.996 1.128-3.163 1.469-5.6-0.425 0.699-1.607 3.768-1.649 3.89-0.098 0.287-0.217 0.563-0.343 0.821-0.811-0.023-1.702-0.122-2.48-0.423 0.159-1.622 0.268-3.827 0.214-4.741-0.065-1.092-0.65-1.824-1.192-2.137zM10.151 25.064c-0.032 0.031-0.062 0.061-0.090 0.091-0.452 0.488-0.537 1.159-0.256 1.992-1.41-0.022-2.884-0.625-3.633-1.858-0.759-1.248-0.546-3.38-0.234-3.692 0.682 2.151 2.951 2.766 4.65 2.841-0.168 0.261-0.322 0.475-0.437 0.626zM21.306 27.089c-0.412 1.181-1.521 4.041-5.305 4.045-3.785-0.005-4.893-2.864-5.305-4.045-0.228-0.655-0.211-1.14 0.053-1.442 0.181-0.206 0.595-0.452 1.54-0.452l0.987-0c0.728-0.001 1.643-0.001 2.725-0.002s1.997 0.001 2.725 0.002l0.987 0c0.945 0 1.36 0.246 1.54 0.452 0.264 0.302 0.281 0.786 0.053 1.442zM25.828 25.29c-0.749 1.232-2.223 1.835-3.633 1.858 0.281-0.834 0.196-1.505-0.256-1.992-0.028-0.031-0.059-0.062-0.091-0.093-0.114-0.15-0.269-0.364-0.436-0.624 1.699-0.074 3.968-0.689 4.65-2.841 0.312 0.312 0.525 2.443-0.234 3.692z"></path>
</svg>
