<!-- Generated by IcoMoon.io -->
<svg version="1.1" xmlns="http://www.w3.org/2000/svg" width="16" height="32" viewBox="0 0 16 32">
<title>gulp</title>
<path d="M13.113 24.444l-0.881 1.538-0.287 5.012c0 0.556-1.769 1.006-3.944 1.006s-3.944-0.45-3.944-1.006l-0.362-4.962-0.931-1.587c2.575 1.081 7.875 1.044 10.35 0zM0.863 8.613l0.85 7.844c0.369-1.25 1.3-2.938 2.5-3.45 0.394-0.169 0.794-0.169 1.169 0.056 0.325 0.188 0.6 0.581 0.631 0.738 0.075 0.406-0.125 0.569-0.281 0.569-0.188 0-0.331-0.287-0.425-0.456-0.256-0.456-0.644-0.475-1.056-0.175-0.431 0.313-0.806 0.838-1.069 1.294-0.319 0.55-0.587 1.156-0.75 1.762-0.094 0.35-0.181 0.913-0.038 1.244 0.063 0.137 0.156 0.225 0.306 0.225 0.313 0 0.769-0.413 0.988-0.631 0.281-0.281 0.644-0.719 0.781-1l0.325-0.969c0.162-0.425 0.619-0.35 0.619 0 0 0.637-0.231 0.85-0.625 2.169-0.362 1.219-0.475 1.613-0.475 1.613-0.044 0.175-0.213 0.469-0.394 0.469-0.075 0-0.131-0.025-0.163-0.075-0.063-0.087-0.056-0.331-0.050-0.394 0.013-0.2 0.394-1.387 0.456-1.575-0.125 0.137-0.256 0.275-0.4 0.413-0.337 0.319-0.881 0.738-1.344 0.738-0.212 0-0.35-0.056-0.481-0.15l0.475 4.975c0.125 0.313 2.45 1.069 5.513 1.069 3.069 0 5.394-0.762 5.513-1.069l0.681-5.913c-0.356 0.325-0.769 0.725-1.225 0.925-0.338 0.144-1.088 0.238-1.088-0.356 0-0.325 0.569-0.925 0.9-1.344 0.088-0.106 0.294-0.369 0.294-0.506 0-0.181-0.375-0.137-0.731 0.156-0.2 0.169-0.387 0.394-0.544 0.606-0.269 0.375-0.412 0.7-0.531 0.969-0.387 0.887-0.256 0.538-0.569 1.375-0.313 0.831-0.262 0.738-0.325 0.875-0.056 0.119-0.137 0.219-0.25 0.281-0.119 0.063-0.281 0.056-0.381-0.019-0.056-0.038-0.081-0.119-0.081-0.231 0-0.056 0.006-0.113 0.019-0.169 0.094-0.381 0.488-1.131 0.938-2.144 0.1-0.231 0.063-0.163 0.050-0.144-0.387 0.375-0.681 0.556-0.9 0.656-0.363 0.163-0.813 0.163-0.906-0.256-0.006-0.025-0.006-0.050-0.012-0.075-0.738 0.575-1.519 0.731-1.25-0.506-0.287 0.512-0.787 0.931-1.4 0.931-0.256 0-0.444-0.087-0.537-0.319-0.144-0.344 0.081-0.931 0.287-1.488 0.106-0.281 0.25-0.619 0.444-1.012 0.1-0.213 0.263-0.338 0.475-0.281 0.037 0.012 0.069 0.025 0.1 0.044 0.162 0.113 0.1 0.281 0.019 0.45-0.237 0.469-0.444 0.813-0.581 1.3-0.056 0.206-0.125 0.563 0.094 0.563 0.15 0 0.294-0.050 0.431-0.15 0.287-0.212 0.519-0.531 0.694-0.844 0.125-0.225 0.275-0.519 0.35-0.769 0.031-0.106 0.069-0.206 0.113-0.3 0.069-0.156 0.162-0.319 0.325-0.319 0.081 0 0.15 0.031 0.2 0.094 0.106 0.138 0.081 0.281 0.025 0.431-0.125 0.35-0.294 0.663-0.431 1.044-0.081 0.219-0.169 0.5-0.169 0.731 0 0.212 0.231 0.163 0.425 0.075 0.15-0.069 0.3-0.175 0.425-0.281 0.075-0.306 0.056-0.238 1.65-4.262 0.081-0.206 0.231-0.294 0.381-0.294 0.075 0 0.137 0.025 0.2 0.069 0.106 0.081 0.106 0.256 0.063 0.387-0.044 0.119-0.037 0.081-0.281 0.656-0.325 0.756-0.537 1.3-0.825 1.994-0.119 0.288-0.481 1.181-0.544 1.394-0.037 0.137-0.081 0.363 0.063 0.363 0.338 0 1.206-0.819 1.444-1.063 0.012-0.019 0.031-0.025 0.056-0.038 0.037-0.119 0.075-0.231 0.106-0.344 0.088-0.238 0.169-0.512 0.331-0.706 0.050-0.063 0.106-0.1 0.169-0.1 0.175 0 0.262 0.075 0.262 0.25 0 0.069-0.044 0.319-0.069 0.387 0.088-0.094 0.181-0.188 0.281-0.281 0.938-0.869 1.606-0.425 1.606 0.012 0 0.462-0.556 1.106-0.863 1.462-0.1 0.119-0.306 0.337-0.313 0.4 0 0.081 0.056 0.113 0.137 0.113 0.125 0 0.4-0.219 0.5-0.294 0.313-0.244 0.738-0.619 1.037-0.881l0.925-8.55c-1.906 1.069-12.35 1.075-14.269 0.012zM15.219 8.081c0 1.313-14.45 1.313-14.45 0 0-0.55 3.237-0.994 7.225-0.994 0.563 0 1.113 0.006 1.644 0.025l0.787-3.044 3.831-4.031c0.088-0.087 0.363-0.013 0.619 0.219s0.412 0.494 0.331 0.581l-0.006 0.006-3.581 3.781-0.625 2.544c2.494 0.162 4.225 0.506 4.225 0.912zM10.881 8.369c0-0.050-0.056-0.094-0.156-0.131l-0.012 0.050c0 0.081-0.313 0.15-0.694 0.15s-0.694-0.069-0.694-0.15c0-0.006 0-0.012 0.006-0.019l0.012-0.044c-0.113 0.037-0.188 0.088-0.188 0.144 0 0.131 0.387 0.231 0.856 0.231 0.481 0.006 0.869-0.1 0.869-0.231z"></path>
</svg>
