<!-- Generated by IcoMoon.io -->
<svg version="1.1" xmlns="http://www.w3.org/2000/svg" width="28" height="32" viewBox="0 0 28 32">
<title>hacker-news-sp</title>
<path d="M25 2h-22c-1.656 0-3 1.344-3 3v22c0 1.656 1.344 3 3 3h22c1.656 0 3-1.344 3-3v-22c0-1.656-1.344-3-3-3zM1.325 14.325h-0.012c0.006-0.006 0.012-0.019 0.019-0.025 0 0.006 0 0.019-0.006 0.025zM14.95 17.694v6.306h-1.963v-6.419l-4.987-9.581h2.331c3.281 6.144 3.075 6.325 3.706 7.85 0.769-1.688 0.363-1.525 3.788-7.85h2.175l-5.050 9.694z"></path>
</svg>
