<!-- Generated by IcoMoon.io -->
<svg version="1.1" xmlns="http://www.w3.org/2000/svg" width="32" height="32" viewBox="0 0 32 32">
<title>heroku</title>
<path d="M5.758 8.002c0 4.4 0.12 7.999 0.28 7.999 0.12 0 2.2-0.64 4.639-1.4 3.32-1.12 4.92-1.4 6.64-1.32l2.24 0.12 0.12 9.28 0.080 9.319h4.8v-9.759c0-9.479-0.040-9.759-0.92-11.079-1.6-2.4-5.72-2.92-10.839-1.4l-1.84 0.56v-10.319h-5.2v7.999z"></path>
<path d="M19.557 2.922c-0.88 1.56-1.64 3-1.72 3.16-0.080 0.2 1 0.32 2.4 0.32h2.52l1.44-2.32c2.76-4.32 2.8-4.080-0.32-4.080h-2.72l-1.6 2.92z"></path>
<path d="M5.758 27c0 2.52 0.16 4.599 0.32 4.599s1.32-1.040 2.6-2.32l2.28-2.32-2.32-2.28c-1.28-1.24-2.44-2.28-2.6-2.28s-0.28 2.080-0.28 4.6z"></path>
</svg>
