<!-- Generated by IcoMoon.io -->
<svg version="1.1" xmlns="http://www.w3.org/2000/svg" width="32" height="32" viewBox="0 0 32 32">
<title>hire-a-helper</title>
<path d="M27.694 0h-23.2c-0.25 2.331-2.156 4.237-4.494 4.481v23.219c2.337 0.306 4.125 2.025 4.494 4.3h23.262c0.188-2.275 2.031-4.113 4.244-4.363v-23.156c-2.275-0.369-4.063-2.206-4.306-4.481zM25.381 25.306c-2.269 0-1.175-0.125-3.444-0.125-2.238 0-1.313 0.125-3.506 0.125-0.369 0-0.306-0.512 0-0.613 1.425-0.475 1.431-0.637 1.538-0.8 0.65-0.975 0.369-5.188 0.369-7.063 0-0.331-0.4-0.8-0.863-0.8h-6.95c-0.463 0-0.863 0.469-0.863 0.8 0 1.875-0.281 6.087 0.369 7.063 0.106 0.156 0.113 0.325 1.537 0.8 0.306 0.1 0.375 0.613 0 0.613-2.194 0-1.269-0.125-3.506-0.125-2.269 0-1.175 0.125-3.444 0.125-0.494 0-0.362-0.675 0-0.675 0.638-0.212 0.844-0.219 1.356-0.863 0.481-0.806 0.494-2.775 0.494-7.988v-6.325c0-1.387-0.763-1.769-1.787-2.025-0.55-0.138-0.25-0.737 0.063-0.737 2.281 0 1.287 0.125 3.569 0.125 2.044 0 1.031-0.125 3.075-0.125 0.206 0 0.531 0.519 0.063 0.675-0.306 0.1-1.725 0.231-1.725 2.456 0 2.85-0.012 3.488 0.063 4.3 0 0.081 0.144 0.8 0.8 0.8h6.825c0.656 0 0.8-0.719 0.8-0.8 0.075-0.813 0.063-1.45 0.063-4.3 0-2.225-1.419-2.356-1.725-2.456-0.469-0.156-0.144-0.675 0.063-0.675 2.044 0 1.031 0.125 3.075 0.125 2.281 0 1.288-0.125 3.569-0.125 0.306 0 0.619 0.6 0.063 0.737-1.025 0.256-1.788 0.644-1.788 2.025v6.325c0 5.213 0.006 7.181 0.494 7.988 0.512 0.637 0.712 0.65 1.356 0.863 0.363 0 0.488 0.675 0 0.675z"></path>
</svg>
