<!-- Generated by IcoMoon.io -->
<svg version="1.1" xmlns="http://www.w3.org/2000/svg" width="32" height="32" viewBox="0 0 32 32">
<title>hornbill</title>
<path d="M4.774 23.144c0.013 0.094 0.021 0.202 0.021 0.312 0 1.305-1.058 2.363-2.362 2.363s-2.362-1.058-2.362-2.363c0-1.305 1.058-2.363 2.362-2.363 0.119 0 0.236 0.009 0.35 0.026l-0.013-0.002c-4.893-6.959 3.25-11.908 3.25-11.908-0.366 2.688-0.515 5.697-0.515 5.697-4.207 2.593 0.058 4.004 2.488 4.554 1.269 3.381 4.472 5.744 8.228 5.746h0c0.12 0 0.236-0.013 0.354-0.017l0.007 1.179c-6.201 0.087-9.919-1.821-11.809-3.225zM11.524 2.663c0.013-0.092 0.020-0.198 0.020-0.306 0-0.369-0.085-0.719-0.237-1.030l0.006 0.014c-0.391-0.803-1.202-1.347-2.139-1.347-1.31 0-2.372 1.062-2.372 2.372s1.062 2.372 2.372 2.372c0.067 0 0.134-0.003 0.2-0.008l-0.009 0.001c-1.409 1.869-3.364 5.598-3.276 11.875l1.365-0.009c0-0.056-0.009-0.111-0.009-0.168 0.003-3.662 2.247-6.798 5.435-8.112l0.058-0.021c0.5-2.357 1.919-7.144 4.612-2.768 0 0 3.009 0.149 5.699 0.515 0 0-4.865-8-11.724-3.379zM30.536 11.048c0.806-0.39 1.352-1.202 1.352-2.141 0-1.31-1.062-2.371-2.371-2.371s-2.371 1.062-2.371 2.371c0 0.123 0.009 0.243 0.027 0.36l-0.002-0.013c-1.983-1.371-5.615-3.067-11.466-2.984l0.009 1.406c0.169-0.009 0.337-0.026 0.509-0.026 3.683 0.001 6.835 2.271 8.135 5.489l0.021 0.059c2.444 0.563 6.566 1.974 2.404 4.534 0 0-0.146 3.008-0.513 5.697 0 0 8.341-5.072 3.063-12.163 0.060 0.005 0.13 0.009 0.201 0.009 0.366 0 0.712-0.084 1.020-0.233l-0.014 0.006zM23.379 27.265c1.339-2.029 2.901-5.606 2.821-11.229l-1.22 0.009c0.005 0.129 0.019 0.254 0.019 0.384-0.002 3.744-2.349 6.938-5.652 8.195l-0.060 0.020c-0.553 2.434-1.965 6.666-4.548 2.468 0 0-3.008-0.146-5.699-0.514 0 0 4.995 8.209 11.994 3.188 0.020 0.322 0.102 0.62 0.234 0.889l-0.006-0.014c0.391 0.804 1.201 1.348 2.139 1.348 1.309 0 2.371-1.061 2.371-2.371s-1.061-2.371-2.371-2.371c-0.007 0-0.014 0-0.022 0h0.001z"></path>
</svg>
