<!-- Generated by IcoMoon.io -->
<svg version="1.1" xmlns="http://www.w3.org/2000/svg" width="32" height="32" viewBox="0 0 32 32">
<title>hubspot</title>
<path d="M16.712 13.225c-1.569 1.481-2.55 3.581-2.55 5.912 0 1.831 0.606 3.519 1.625 4.875l-3.094 3.113c-0.275-0.1-0.569-0.156-0.875-0.156-0.675 0-1.306 0.262-1.781 0.738s-0.738 1.113-0.738 1.788 0.262 1.306 0.738 1.781c0.475 0.475 1.113 0.725 1.781 0.725 0.675 0 1.306-0.244 1.787-0.725 0.475-0.475 0.738-1.113 0.738-1.781 0-0.262-0.037-0.512-0.119-0.756l3.125-3.137c1.375 1.056 3.087 1.681 4.956 1.681 4.494 0 8.125-3.644 8.125-8.137 0-4.075-2.981-7.45-6.887-8.044v-3.85c1.094-0.463 1.762-1.487 1.762-2.681 0-1.631-1.306-2.994-2.938-2.994s-2.919 1.363-2.919 2.994c0 1.194 0.669 2.219 1.762 2.681v3.825c-0.95 0.131-1.85 0.419-2.669 0.85-1.725-1.306-7.344-5.356-10.556-7.8 0.075-0.275 0.125-0.563 0.125-0.862 0-1.8-1.469-3.263-3.275-3.263-1.8 0-3.263 1.462-3.263 3.263 0 1.806 1.462 3.269 3.263 3.269 0.612 0 1.181-0.181 1.675-0.475l10.2 7.169zM22.306 23.45c-2.381 0-4.313-1.931-4.313-4.313s1.931-4.313 4.313-4.313 4.313 1.931 4.313 4.313-1.931 4.313-4.313 4.313z"></path>
</svg>
