<!-- Generated by IcoMoon.io -->
<svg version="1.1" xmlns="http://www.w3.org/2000/svg" width="36" height="32" viewBox="0 0 36 32">
<title>ideal</title>
<path d="M7.851 10.342c-0 0-0 0-0.001 0-1.694 0-3.067 1.373-3.067 3.067s1.373 3.067 3.067 3.067c1.694 0 3.067-1.373 3.067-3.067 0-0 0-0 0-0.001v0c-0.001-1.693-1.373-3.066-3.066-3.066h-0zM5.384 26.615h4.934v-8.783h-4.934zM14.851 13.39c0-1.25-0.625-1.408-1.171-1.408h-0.878v2.862h0.878c0.609 0 1.171-0.176 1.171-1.454zM27.456 16.265v-5.707h1.422v4.286h2.106c-0.578-7.776-6.696-9.457-12.254-9.457h-5.927v5.176h0.875c1.6 0 2.594 1.084 2.594 2.829 0 1.801-0.97 2.875-2.594 2.875h-0.875v10.351h5.927c9.038 0 12.184-4.197 12.295-10.352zM20.597 16.265h-3.516v-5.703h3.402v1.421h-1.983v0.661h1.875v1.418h-1.875v0.781h2.094zM25.263 16.265l-0.323-1.104h-1.859l-0.324 1.104h-1.479l1.721-5.707h2.022l1.721 5.709zM18.728 2h-16.728v28h16.728c10.116 0 15.688-4.983 15.688-14.033-0.002-5.217-2.041-13.967-15.688-13.967zM18.728 28.683h-15.411v-25.366h15.411c8.881 0 14.369 4.038 14.369 12.651 0 8.381-5.063 12.715-14.369 12.715zM23.969 12.129l-0.469 1.613h1.025l-0.47-1.613z"></path>
</svg>
