<!-- Generated by IcoMoon.io -->
<svg version="1.1" xmlns="http://www.w3.org/2000/svg" width="32" height="32" viewBox="0 0 32 32">
<title>ie</title>
<path d="M31.571 16.724c0-2.434-0.569-4.729-1.574-6.749 0.283-0.757 0.618-1.79 0.981-3.184 1.173-4.501-1.526-7.182-5.667-6.745-2.515 0.265-4.883 0.984-7.172 2.058-0.185-0.008-0.37-0.013-0.557-0.013-6.888 0-12.612 5.206-13.774 12.062 2.878-4.348 7.076-6.652 7.076-6.652-2.866 3.141-5.338 6.231-7.174 9.488-0.035 0.058-0.070 0.117-0.103 0.178-1.532 2.759-2.605 5.642-3.066 8.779-0.633 4.303 1.434 6.601 5.85 5.942 1.518-0.227 4.266-1.613 5.045-2.018 1.855 0.951 3.941 1.485 6.146 1.485 6.091 0 11.272-4.072 13.192-9.755h-7.572c-1.074 1.96-3.094 3.281-5.409 3.281-3.342 0-6.069-2.752-6.224-6.208h19.877c0.081-0.638 0.124-1.289 0.124-1.951zM6.475 30.824c-2.362 0.26-5.411-2.431-1.935-8.799 1.122 3.017 3.172 5.548 5.784 7.209-0.723 0.425-2.576 1.45-3.849 1.59zM11.616 14.33c0.395-3.202 3.010-5.676 6.178-5.676s5.783 2.474 6.178 5.676h-12.356zM22.821 3.153c5.899-2.892 8.042 0.197 7.394 3.346-0.089 0.434-0.414 1.588-0.701 2.584-1.557-2.655-3.901-4.75-6.693-5.93z"></path>
</svg>
