<!-- Generated by IcoMoon.io -->
<svg version="1.1" xmlns="http://www.w3.org/2000/svg" width="28" height="32" viewBox="0 0 28 32">
<title>imdb</title>
<path d="M25 2h-22c-1.656 0-3 1.344-3 3v22c0 1.656 1.344 3 3 3h22c1.656 0 3-1.344 3-3v-22c0-1.656-1.344-3-3-3zM1.331 14.325h-0.019c0.006-0.006 0.012-0.019 0.019-0.025zM6.063 19.988h-2.063v-7.988h2.063zM13.137 19.988h-1.794v-5.4l-0.725 5.4h-1.287l-0.762-5.281v5.281h-1.813v-7.988h2.675c0.206 1.238 0.375 2.494 0.544 3.744l0.475-3.744h2.688zM13.85 19.988v-7.988h1.537c1.1 0 2.794-0.1 3.063 1.306 0.106 0.475 0.087 1.019 0.087 1.525 0 5.531 0.694 5.162-4.688 5.156zM23.906 18.163c0 0.981-0.15 1.931-1.387 1.931-0.563 0-0.95-0.188-1.306-0.613l-0.119 0.506h-1.863v-7.988h1.981v2.606c0.375-0.406 0.75-0.575 1.306-0.575 1.337 0 1.387 0.8 1.387 1.881zM16.563 14.369c0-0.606 0.1-1-0.644-1v5.231c0.762 0.019 0.644-0.544 0.644-1.15zM21.906 16c0-0.338 0.069-0.794-0.387-0.794-0.375 0-0.306 0.556-0.306 0.794 0 0.038-0.069 2.475 0.069 2.794 0.050 0.1 0.137 0.15 0.238 0.15 0.488 0 0.387-0.563 0.387-0.9z"></path>
</svg>
