<!-- Generated by IcoMoon.io -->
<svg version="1.1" xmlns="http://www.w3.org/2000/svg" width="32" height="32" viewBox="0 0 32 32">
<title>inkscape</title>
<path d="M25.6 25.375c-1.275 1.15 0.15 2.325 1.4 1.575 0.275-0.3 0-1.3-1.4-1.575zM7.15 27.225c1 0.85 2.55-0.225 3-1.425-0.975-1.275-4.575 0.050-3 1.425zM26.125 24.2c0 0.575 4.2 0.95 4.2-0.125-0.6-1.75-3.7-1.65-4.2 0.125zM30.025 13.925l-11.675-11.95c-1.425-1.375-3.8-1.375-5.15 0l-11.275 11.525c-3.8 4.725 2.6 4.175 5.325 5.525 0.975 1-3.775 1.75-2.775 2.75 0.975 1 5.95 1.925 6.925 2.95l-1.025 3.075c0.975 1 3.25 0.050 3.675 2.375 0.3 1.65 4.1 0.7 5.95-0.65 0.975-1-1.875-0.9-0.9-1.925 2.45-2.5 4.725-0.9 5.55-3.425 0.425-1.25-3.6-1.9-2.625-2.925 2.85-1.625 12.625-2.7 8-7.325zM16.025 21.7c-1.2 0.325-7-2.050-5.55-2.050 0.3 0.175 4.85 1.1 5.975 1.3 0.4 0.075 0.125 0.475-0.425 0.75zM22.3 8.825l-2.2-1.775-0.425 2.625-1.85-0.975-2.95 1.875-0.975-3.875-1.625 2.8h-2.425c-1 0-1.1-1.325-0.2-2.225 1.575-1.7 3.375-3.45 4.35-4.45s2.7-1 3.675-0.025l4.45 4.525c0.425 0.425 0.425 1.25 0.175 1.5z"></path>
</svg>
