<!-- Generated by IcoMoon.io -->
<svg version="1.1" xmlns="http://www.w3.org/2000/svg" width="28" height="32" viewBox="0 0 28 32">
<title>intercom</title>
<path d="M24.5 2h-21c-1.931 0-3.5 1.569-3.5 3.5v21c0 1.931 1.569 3.5 3.5 3.5h21c1.931 0 3.5-1.569 3.5-3.5v-21c0-1.931-1.569-3.5-3.5-3.5zM17.731 7.131c0-1.237 1.869-1.237 1.869 0v12.469c0 1.238-1.869 1.238-1.869 0v-12.469zM13.069 6.662c0-1.237 1.869-1.237 1.869 0v13.531c0 1.238-1.869 1.238-1.869 0v-13.531zM8.4 7.131c0-1.237 1.869-1.237 1.869 0v12.469c0 1.238-1.869 1.238-1.869 0v-12.469zM3.731 9c0-1.237 1.869-1.237 1.869 0v8.394c0 1.238-1.869 1.238-1.869 0v-8.394zM23.944 23.238c-4.55 3.938-15.106 4.088-19.881 0-0.938-0.8 0.275-2.219 1.213-1.419 4.119 3.456 13.506 3.369 17.456 0 0.931-0.806 2.144 0.613 1.212 1.419zM24.269 17.394c0 1.238-1.869 1.238-1.869 0v-8.394c0-1.237 1.869-1.237 1.869 0v8.394z"></path>
</svg>
