<!-- Generated by IcoMoon.io -->
<svg version="1.1" xmlns="http://www.w3.org/2000/svg" width="32" height="32" viewBox="0 0 32 32">
<title>intellij</title>
<path d="M1.387 16.183c0.001 2.357 1.913 4.268 4.27 4.268s4.27-1.912 4.27-4.27-1.912-4.27-4.27-4.27v0c-2.357 0.004-4.267 1.915-4.27 4.272v0z"></path>
<path d="M26.87 1.183c-2.348 0-3.75 1.89-3.75 5.058v19.45c0 3.165 1.398 5.058 3.75 5.058s3.75-1.89 3.75-5.058v-19.44c-0.008-3.175-1.407-5.067-3.75-5.067zM20.313 1.595h-15.342c-1.987 0.092-3.563 1.725-3.563 3.726s1.576 3.634 3.555 3.726l0.008 0v0.027h7.853v6.8c0 0.055 0 0.107 0 0.165v0c0 0.045 0 0.090 0 0.135 0 0 0 0 0 0 0 3.957-3.202 7.165-7.157 7.175h-0.001c-0.065 0-0.128 0-0.192 0l-0.020 0.025c-0.105 0-0.213-0.017-0.322-0.017-0.029-0.001-0.063-0.001-0.097-0.001-2.063 0-3.735 1.672-3.735 3.735s1.672 3.735 3.735 3.735c0.034 0 0.068-0 0.102-0.001l-0.005 0c0.112 0 0.225 0 0.335-0.017v0.012h0.195c8.085-0.006 14.638-6.554 14.652-14.636v-0.001c0-0.043 0-0.087 0-0.135v0c0-0.318 0-1.2 0-2.398 0 0 0-0.018 0-0.027s0-11.695 0-12.027z"></path>
</svg>
