<!-- Generated by IcoMoon.io -->
<svg version="1.1" xmlns="http://www.w3.org/2000/svg" width="32" height="32" viewBox="0 0 32 32">
<title>internet-explorer</title>
<path d="M30.191 9.982c0.678-1.536 1.339-3.777 1.339-5.492 0-4.545-4.978-6.148-13.105-2.411-6.727-0.449-13.201 4.604-14.819 11.654 1.928-2.179 4.892-5.144 7.624-6.322-3.392 3.018-6.284 6.84-8.48 10.823-1.297 2.37-2.749 6.201-2.749 9.064 0 6.161 5.803 5.406 11.266 2.625 1.964 0.964 4.16 0.973 6.356 0.973 6.070 0 11.516-3.393 13.551-9.126h-7.552c-3.282 5.537-12.301 3.312-12.301-2.965h20.549c0.4-2.724-0.103-5.982-1.678-8.823zM4.035 21.68c1.107 3.197 3.356 5.992 6.267 7.707-5.546 3.059-10.829 1.819-6.267-7.706zM11.284 14.875c0.125-3.447 3.142-5.929 6.499-5.929 3.339 0 6.374 2.482 6.499 5.929h-12.998zM22.817 3.15c1.339-0.643 3.035-1.375 4.535-1.375 1.964 0 3.392 1.357 3.392 3.358 0 1.25-0.464 3.063-0.911 4.242-1.643-2.643-4.124-5.099-7.016-6.224z"></path>
</svg>
