<!-- Generated by IcoMoon.io -->
<svg version="1.1" xmlns="http://www.w3.org/2000/svg" width="40" height="32" viewBox="0 0 40 32">
<title>ioxhost</title>
<path d="M38.5 10h-4.206c-2.344-5.581-7.863-9.5-14.294-9.5-8.563 0-15.5 6.938-15.5 15.5 0 1.025 0.1 2.031 0.294 3h-3.294c-0.831 0-1.5 0.675-1.5 1.5 0 0.831 0.669 1.5 1.5 1.5h4.206c2.344 5.581 7.862 9.5 14.294 9.5 8.563 0 15.5-6.938 15.5-15.5 0-1.025-0.1-2.031-0.294-3h3.294c0.831 0 1.5-0.675 1.5-1.5 0-0.831-0.669-1.5-1.5-1.5zM32.5 16c0 6.906-5.594 12.5-12.5 12.5-4.731 0-8.85-2.625-10.969-6.5h17.469c0.831 0 1.5-0.675 1.5-1.5 0-0.831-0.669-1.5-1.5-1.5h-18.637c-0.237-0.962-0.362-1.962-0.362-3 0-6.906 5.594-12.5 12.5-12.5 4.731 0 8.85 2.625 10.969 6.5h-17.469c-0.831 0-1.5 0.675-1.5 1.5 0 0.831 0.669 1.5 1.5 1.5h18.638c0.237 0.963 0.362 1.963 0.362 3zM13.5 14.5h13c0.831 0 1.5 0.669 1.5 1.5 0 0.825-0.669 1.5-1.5 1.5h-13c-0.831 0-1.5-0.669-1.5-1.5 0-0.825 0.669-1.5 1.5-1.5z"></path>
</svg>
