<!-- Generated by IcoMoon.io -->
<svg version="1.1" xmlns="http://www.w3.org/2000/svg" width="32" height="32" viewBox="0 0 32 32">
<title>javascript</title>
<path d="M6.967 4.201h5.322v14.915c0 6.722-3.221 9.068-8.368 9.068-1.26 0-2.871-0.21-3.921-0.56l0.595-4.306c0.735 0.245 1.681 0.42 2.731 0.42 2.241 0 3.641-1.015 3.641-4.657v-14.88z"></path>
<path d="M16.91 22.337c1.4 0.735 3.641 1.471 5.917 1.471 2.451 0 3.746-1.015 3.746-2.591 0-1.435-1.12-2.311-3.956-3.291-3.922-1.401-6.512-3.571-6.512-7.037 0-4.026 3.396-7.073 8.928-7.073 2.696 0 4.622 0.525 6.022 1.191l-1.191 4.271c-0.91-0.455-2.626-1.12-4.901-1.12-2.311 0-3.431 1.085-3.431 2.276 0 1.505 1.295 2.171 4.377 3.361 4.166 1.54 6.092 3.711 6.092 7.072 0 3.956-3.011 7.318-9.488 7.318-2.696 0-5.357-0.735-6.687-1.471l1.085-4.377z"></path>
</svg>
