<!-- Generated by IcoMoon.io -->
<svg version="1.1" xmlns="http://www.w3.org/2000/svg" width="32" height="32" viewBox="0 0 32 32">
<title>java</title>
<path d="M11.715 24.631c0 0-1.223 0.711 0.87 0.952 2.536 0.289 3.832 0.248 6.626-0.281 0 0 0.735 0.461 1.761 0.86-6.264 2.685-14.178-0.155-9.257-1.53z"></path>
<path d="M10.949 21.127c0 0-1.372 1.015 0.723 1.232 2.709 0.279 4.848 0.302 8.55-0.41 0 0 0.512 0.519 1.317 0.803-7.574 2.215-16.010 0.175-10.59-1.624z"></path>
<path d="M17.402 15.184c1.544 1.777-0.406 3.376-0.406 3.376s3.919-2.023 2.119-4.557c-1.681-2.363-2.97-3.537 4.009-7.584 0 0-10.955 2.736-5.723 8.765z"></path>
<path d="M25.687 27.222c0 0 0.905 0.746-0.997 1.322-3.616 1.095-15.050 1.426-18.226 0.044-1.142-0.497 0.999-1.186 1.673-1.331 0.702-0.152 1.104-0.124 1.104-0.124-1.27-0.894-8.207 1.756-3.524 2.516 12.772 2.071 23.283-0.933 19.97-2.427z"></path>
<path d="M12.303 17.497c0 0-5.816 1.381-2.060 1.883 1.586 0.212 4.748 0.164 7.693-0.082 2.407-0.203 4.824-0.635 4.824-0.635s-0.849 0.363-1.463 0.783c-5.906 1.553-17.315 0.831-14.031-0.758 2.778-1.343 5.036-1.19 5.036-1.19z"></path>
<path d="M22.736 23.329c6.004-3.12 3.228-6.118 1.29-5.714-0.475 0.099-0.687 0.185-0.687 0.185s0.176-0.276 0.513-0.396c3.833-1.348 6.781 3.975-1.237 6.082-0 0 0.093-0.083 0.121-0.157z"></path>
<path d="M19.116-0.117c0 0 3.325 3.326-3.154 8.441-5.195 4.103-1.185 6.442-0.002 9.115-3.033-2.736-5.258-5.145-3.765-7.386 2.191-3.29 8.262-4.886 6.921-10.169z"></path>
<path d="M12.892 31.783c5.763 0.369 14.612-0.205 14.822-2.932 0 0-0.403 1.034-4.763 1.855-4.919 0.926-10.985 0.818-14.583 0.224 0 0 0.737 0.61 4.524 0.853z"></path>
</svg>
