<!-- Generated by IcoMoon.io -->
<svg version="1.1" xmlns="http://www.w3.org/2000/svg" width="32" height="32" viewBox="0 0 32 32">
<title>jekyll</title>
<path d="M9.382 32.102c-0.153 1.818 0.764 3.176 2.48 3.635 1.41 0.374 3.040-0.289 3.737-1.546 0.204-0.357 2.514-6.285 5.13-13.181 4.399-11.584 4.807-12.586 5.418-13.215 0.374-0.391 0.68-0.781 0.68-0.883s-0.323-0.476-0.713-0.815c-1.563-1.41-5.232-2.582-6.794-2.174-0.255 0.068-0.306 0.272-0.306 1.053 0 0.985-0.17 1.597-1.189 4.178-0.289 0.747-0.764 2.038-1.053 2.888-0.272 0.832-0.73 2.021-1.002 2.633-0.255 0.611-0.815 2.021-1.24 3.143s-1.223 3.244-1.784 4.739c-0.56 1.477-1.189 2.887-1.41 3.108zM23.174 4.943c1.715 0.713 2.599 1.58 1.885 1.851-0.679 0.255-3.72-0.832-4.518-1.631-0.306-0.306-0.323-0.408-0.153-0.629 0.289-0.323 1.41-0.17 2.786 0.408zM20.355 7.1c0.612 0.646 1.851 1.104 3.21 1.155 0.68 0.034 1.223 0.068 1.223 0.102 0 0.017-0.119 0.221-0.254 0.425s-0.697 1.58-1.257 3.040c-0.883 2.31-1.104 2.752-1.715 3.312-0.934 0.849-2.412 1.682-3.482 1.936-0.459 0.119-1.172 0.34-1.58 0.527-0.408 0.17-0.815 0.306-0.883 0.306-0.153 0 0.323-1.393 1.953-5.605 0.527-1.359 1.223-3.176 1.546-4.042 0.34-0.849 0.662-1.563 0.731-1.563s0.305 0.187 0.509 0.407zM21.849 15.66c-0.051 0.068-1.63 4.178-3.499 9.121-3.024 7.983-3.482 9.071-4.009 9.546-0.323 0.306-0.73 0.561-0.883 0.544-0.204 0-0.136-0.068 0.17-0.187 0.272-0.102 0.459-0.289 0.459-0.476 0-0.17 0.068-0.357 0.153-0.425 0.085-0.051 0.221-0.34 0.289-0.629 0.051-0.306 0.17-0.662 0.238-0.815 0.255-0.476 1.019-2.463 1.019-2.599 0-0.085 0.102-0.391 0.238-0.68 0.136-0.306 0.561-1.393 0.951-2.412 0.39-1.036 0.866-2.293 1.053-2.803 0.204-0.509 0.424-1.002 0.509-1.087 0.068-0.102 0.136-0.323 0.136-0.492s0.119-0.578 0.255-0.9c0.51-1.155 0.73-1.699 1.019-2.531 0.153-0.476 0.357-0.985 0.441-1.138 0.17-0.323 0.204-0.815 0.068-0.815-0.051 0-0.306 0.119-0.561 0.272-0.408 0.238-0.408 0.238 0.051-0.119 0.288-0.221 0.781-0.645 1.104-0.951 0.544-0.51 0.985-0.747 0.798-0.425zM17.145 18.073c0 0.085-0.119 0.17-0.272 0.17-0.323 0-0.798 1.104-0.798 1.818 0.017 0.306-0.051 0.56-0.136 0.56-0.272 0-0.866 1.393-0.951 2.293-0.085 0.781-0.051 0.917 0.238 1.087 0.459 0.237 0.577 0.764 0.272 1.189-0.255 0.374-0.968 0.475-1.155 0.187-0.255-0.408-0.441-0.136-0.34 0.475 0.085 0.578 0.051 0.679-0.305 0.832-0.272 0.136-0.527 0.493-0.714 1.019-0.595 1.614-1.138 3.040-1.461 3.873-0.187 0.459-0.391 1.223-0.442 1.665-0.085 0.697-0.034 0.867 0.306 1.257l0.408 0.459-0.543-0.373c-0.56-0.391-1.24-1.597-1.24-2.208 0-0.204 0.493-1.699 1.104-3.346 0.611-1.63 1.104-3.074 1.104-3.176 0-0.119 0.56-0.764 1.223-1.444 0.679-0.679 1.121-1.239 0.985-1.239s-0.493 0.238-0.798 0.543-0.561 0.459-0.561 0.34c0-0.51 1.597-4.247 2.005-4.688 0.373-0.408 1.834-1.461 2.021-1.461 0.034 0 0.051 0.068 0.051 0.17z"></path>
</svg>
