<!-- Generated by IcoMoon.io -->
<svg version="1.1" xmlns="http://www.w3.org/2000/svg" width="32" height="32" viewBox="0 0 32 32">
<title>joomla</title>
<path d="M3.374 8.477c-0.723 2.418-0.132 5.145 1.777 7.054l7.12 7.113 3.156-3.158-7.119-7.113c-1.021-1.021-1.023-2.688 0.006-3.717 1.026-1.026 2.688-1.026 3.712-0.001l0.245 0.246 3.159-3.158-0.245-0.245c-1.801-1.801-4.329-2.431-6.638-1.89-0.331-2.034-2.096-3.587-4.225-3.588-2.364 0-4.279 1.917-4.28 4.281-0 2.039 1.425 3.745 3.334 4.176z"></path>
<path d="M9.299 12.615l3.16 3.158 7.117-7.112c1.029-1.029 2.687-1.027 3.709-0.006 1.025 1.024 1.025 2.688-0.001 3.713l-0.244 0.244 3.157 3.16 0.246-0.247c1.888-1.891 2.489-4.581 1.8-6.98 2.098-0.276 3.717-2.072 3.717-4.244 0.001-2.365-1.916-4.281-4.28-4.281-2.164 0-3.953 1.606-4.241 3.69-2.408-0.707-5.118-0.109-7.019 1.792l-0.616 0.615-6.504 6.498z"></path>
<path d="M28.321 23.461c0.565-2.323-0.062-4.878-1.878-6.694l-7.11-7.117-3.159 3.156 7.11 7.117c1.029 1.029 1.027 2.687 0.006 3.71-1.024 1.024-2.688 1.024-3.714-0.001l-0.242-0.243-3.156 3.16 0.242 0.242c1.923 1.922 4.675 2.51 7.104 1.763 0.396 1.956 2.124 3.427 4.196 3.427 2.363 0 4.28-1.915 4.28-4.28 0-2.16-1.599-3.947-3.679-4.24z"></path>
<path d="M22.293 19.679l-3.156-3.159-7.112 7.116c-1.021 1.022-2.688 1.024-3.717-0.004-1.026-1.027-1.026-2.687-0.001-3.713l0.244-0.242-3.159-3.157-0.241 0.241c-1.836 1.836-2.455 4.427-1.858 6.772-1.887 0.445-3.292 2.142-3.292 4.167-0.001 2.364 1.916 4.28 4.281 4.28 2.034-0.002 3.736-1.418 4.173-3.32 2.335 0.579 4.906-0.041 6.73-1.865l7.109-7.115z"></path>
</svg>
