<!-- Generated by IcoMoon.io -->
<svg version="1.1" xmlns="http://www.w3.org/2000/svg" width="32" height="32" viewBox="0 0 32 32">
<title>jquery</title>
<path d="M16.329 27.028c-0.213-0.049-0.419-0.115-0.627-0.176-0.053-0.015-0.105-0.032-0.157-0.047-0.203-0.062-0.404-0.128-0.604-0.197-0.027-0.010-0.055-0.020-0.083-0.030-0.179-0.063-0.356-0.13-0.533-0.198-0.050-0.020-0.1-0.038-0.149-0.059-0.193-0.076-0.386-0.156-0.575-0.239-0.039-0.016-0.077-0.035-0.115-0.051-0.163-0.074-0.325-0.149-0.485-0.226-0.047-0.022-0.093-0.044-0.14-0.067-0.126-0.061-0.251-0.127-0.375-0.191-0.083-0.044-0.168-0.086-0.251-0.131-0.152-0.082-0.301-0.166-0.45-0.253-0.050-0.028-0.101-0.055-0.152-0.084-0.197-0.116-0.393-0.236-0.586-0.358-0.053-0.034-0.105-0.071-0.158-0.105-0.14-0.090-0.28-0.182-0.417-0.277-0.045-0.030-0.089-0.063-0.134-0.094-0.133-0.093-0.264-0.188-0.394-0.285-0.059-0.044-0.117-0.088-0.175-0.132-0.119-0.091-0.238-0.183-0.355-0.278-0.053-0.042-0.106-0.085-0.159-0.127-0.149-0.123-0.297-0.246-0.443-0.373-0.015-0.013-0.032-0.026-0.049-0.040-0.158-0.138-0.313-0.28-0.465-0.423-0.045-0.042-0.088-0.083-0.131-0.126-0.113-0.109-0.225-0.217-0.334-0.328-0.044-0.044-0.088-0.087-0.131-0.131-0.139-0.143-0.276-0.288-0.41-0.434-0.007-0.007-0.014-0.014-0.020-0.022-0.142-0.155-0.28-0.314-0.416-0.474-0.037-0.044-0.073-0.086-0.109-0.129-0.101-0.122-0.202-0.246-0.3-0.37-0.037-0.045-0.073-0.090-0.11-0.137-0.118-0.153-0.233-0.306-0.346-0.461-3.121-4.257-4.243-10.129-1.748-14.952l-2.211 2.805c-2.833 4.073-2.481 9.37-0.316 13.697 0.052 0.104 0.105 0.206 0.159 0.308 0.034 0.064 0.066 0.131 0.101 0.195 0.020 0.038 0.042 0.075 0.063 0.112 0.037 0.069 0.075 0.134 0.113 0.202 0.067 0.118 0.136 0.236 0.207 0.354 0.039 0.064 0.078 0.129 0.118 0.194 0.078 0.126 0.158 0.251 0.24 0.375 0.034 0.053 0.067 0.106 0.102 0.157 0.113 0.168 0.228 0.336 0.347 0.501 0.003 0.004 0.006 0.009 0.010 0.013 0.019 0.026 0.040 0.052 0.059 0.079 0.103 0.142 0.209 0.282 0.317 0.42 0.039 0.051 0.079 0.102 0.119 0.152 0.096 0.121 0.193 0.24 0.293 0.36 0.037 0.044 0.074 0.089 0.112 0.133 0.133 0.156 0.269 0.312 0.407 0.466 0.002 0.002 0.006 0.005 0.008 0.008 0.006 0.007 0.011 0.012 0.016 0.018 0.135 0.147 0.274 0.292 0.414 0.436 0.043 0.045 0.088 0.089 0.133 0.134 0.109 0.11 0.219 0.217 0.331 0.324 0.045 0.043 0.090 0.087 0.135 0.129 0.149 0.14 0.299 0.278 0.453 0.413 0.003 0.002 0.005 0.004 0.007 0.006 0.026 0.023 0.053 0.045 0.079 0.067 0.135 0.117 0.273 0.233 0.411 0.348 0.057 0.046 0.114 0.091 0.171 0.136 0.113 0.090 0.228 0.181 0.343 0.268 0.061 0.047 0.122 0.093 0.184 0.14 0.127 0.094 0.255 0.186 0.385 0.276 0.047 0.035 0.093 0.067 0.14 0.1 0.013 0.009 0.025 0.018 0.039 0.027 0.123 0.085 0.248 0.166 0.374 0.247 0.054 0.036 0.107 0.073 0.162 0.108 0.193 0.122 0.388 0.243 0.585 0.359 0.054 0.031 0.108 0.061 0.162 0.091 0.145 0.084 0.291 0.166 0.439 0.247 0.080 0.043 0.162 0.084 0.243 0.125 0.104 0.055 0.208 0.11 0.314 0.163 0.024 0.013 0.049 0.024 0.073 0.036 0.043 0.020 0.086 0.040 0.129 0.062 0.165 0.079 0.331 0.156 0.498 0.231 0.036 0.016 0.070 0.031 0.106 0.047 0.192 0.084 0.386 0.165 0.581 0.242 0.047 0.019 0.094 0.037 0.142 0.055 0.181 0.070 0.364 0.139 0.548 0.203 0.023 0.009 0.046 0.016 0.069 0.024 0.202 0.071 0.406 0.136 0.611 0.2 0.049 0.014 0.098 0.030 0.148 0.044 0.209 0.063 0.416 0.138 0.632 0.178 13.702 2.499 17.682-8.234 17.682-8.234-3.342 4.355-9.275 5.503-14.897 4.225z"></path>
<path d="M11.394 15.922c0.307 0.44 0.647 0.964 1.055 1.317 0.148 0.163 0.302 0.321 0.46 0.477 0.040 0.041 0.080 0.080 0.121 0.12 0.153 0.148 0.309 0.294 0.469 0.436 0.007 0.005 0.013 0.011 0.019 0.016 0.002 0.002 0.003 0.003 0.005 0.005 0.178 0.156 0.362 0.306 0.548 0.454 0.042 0.032 0.083 0.065 0.125 0.098 0.187 0.143 0.378 0.284 0.574 0.419 0.006 0.004 0.011 0.009 0.017 0.013 0.086 0.060 0.174 0.116 0.262 0.173 0.042 0.027 0.082 0.057 0.124 0.082 0.14 0.090 0.281 0.177 0.425 0.261 0.020 0.013 0.040 0.023 0.060 0.035 0.124 0.072 0.25 0.142 0.376 0.21 0.044 0.025 0.089 0.047 0.134 0.070 0.087 0.045 0.174 0.092 0.263 0.136 0.013 0.006 0.027 0.012 0.040 0.017 0.181 0.089 0.363 0.175 0.549 0.256 0.040 0.018 0.081 0.033 0.121 0.049 0.149 0.064 0.299 0.125 0.45 0.183 0.064 0.024 0.129 0.047 0.192 0.070 0.137 0.051 0.274 0.097 0.413 0.144 0.063 0.020 0.124 0.040 0.187 0.059 0.197 0.062 0.392 0.139 0.597 0.173 10.579 1.753 13.021-6.393 13.021-6.393-2.201 3.171-6.465 4.684-11.015 3.503-0.202-0.053-0.401-0.111-0.599-0.174-0.060-0.018-0.12-0.038-0.18-0.058-0.141-0.046-0.28-0.094-0.419-0.145-0.064-0.023-0.127-0.046-0.189-0.071-0.152-0.059-0.302-0.119-0.451-0.182-0.041-0.018-0.082-0.033-0.122-0.052-0.187-0.081-0.371-0.167-0.552-0.256-0.093-0.046-0.185-0.094-0.277-0.141-0.053-0.027-0.106-0.055-0.16-0.082-0.118-0.064-0.235-0.13-0.35-0.198-0.027-0.016-0.056-0.031-0.084-0.047-0.143-0.084-0.284-0.17-0.424-0.259-0.043-0.027-0.085-0.057-0.128-0.085-0.092-0.060-0.184-0.12-0.274-0.182-0.195-0.135-0.385-0.276-0.572-0.418-0.043-0.034-0.086-0.067-0.129-0.101-1.991-1.573-3.57-3.721-4.32-6.158-0.787-2.527-0.617-5.364 0.746-7.666l-1.674 2.363c-2.049 2.949-1.938 6.896-0.339 10.014 0.268 0.523 0.569 1.030 0.906 1.513z"></path>
<path d="M22.544 12.274c0.087 0.033 0.174 0.061 0.263 0.091 0.039 0.012 0.077 0.025 0.116 0.037 0.125 0.039 0.248 0.085 0.377 0.109 5.841 1.129 7.426-2.997 7.848-3.605-1.388 1.998-3.72 2.478-6.582 1.784-0.226-0.055-0.474-0.137-0.693-0.214-0.279-0.1-0.554-0.213-0.822-0.342-0.508-0.244-0.993-0.541-1.442-0.88-2.561-1.943-4.152-5.65-2.481-8.668l-0.904 1.246c-1.208 1.778-1.326 3.985-0.488 5.948 0.884 2.084 2.695 3.719 4.809 4.494z"></path>
</svg>
