<!-- Generated by IcoMoon.io -->
<svg version="1.1" xmlns="http://www.w3.org/2000/svg" width="32" height="32" viewBox="0 0 32 32">
<title>jquery-ui</title>
<path d="M28.444 1.944h-24.889c-1.964 0-3.556 1.573-3.556 3.515v10.543c0 7.762 6.367 14.056 14.222 14.056h3.556c7.855 0 14.222-6.294 14.222-14.056v-10.543c0-1.941-1.592-3.515-3.556-3.515zM16 24.786c-5.891 0-10.667-4.72-10.667-10.542v-5.272h5.334v5.272c0 2.911 2.388 5.271 5.334 5.271s5.333-2.361 5.333-5.271h5.334c0 5.822-4.776 10.542-10.667 10.542zM26.577 12.486l-5.155-1.317 1.244-5.096 5.244 1.318-1.334 5.095z"></path>
</svg>
