<!-- Generated by IcoMoon.io -->
<svg version="1.1" xmlns="http://www.w3.org/2000/svg" width="114" height="32" viewBox="0 0 114 32">
<title>jquery-sp</title>
<path d="M32.468 12.498l0-0.001-0.908 3.217 0.908-3.216zM37.137 19.483v0zM36.88 24.288h0.001l-5.994 0.022 5.993-0.022zM38.136 19.489v0zM37.405 23.88v0zM59.473 5.543v0zM54.473 5.543v0z"></path>
<path d="M59.139 5.132h-4.159c-0.231 0-0.46 0.185-0.509 0.411l-2.953 13.662c-0.049 0.226-0.278 0.41-0.508 0.41h-2.944c-2.912 0-2.575-2.015-1.979-4.774l0.018-0.083 0.065-0.348c0.004-0.023 0.008-0.045 0.012-0.065l0.133-0.708 0.142-0.759c0.043-0.229 0.109-0.563 0.152-0.774l0.671-3.28 0.672-3.28c0.046-0.226-0.105-0.412-0.336-0.412h-4.269c-0.231 0-0.459 0.186-0.507 0.411l-1.836 8.709c-0.001 0.002-0.001 0.005-0.001 0.007l-0.085 0.405c-1.057 4.827-0.777 9.43 4.969 9.574 0.094 0.003 0.167 0.004 0.167 0.004h9.019c0.231 0 0.459-0.185 0.507-0.411l3.89-18.286c0.048-0.226-0.102-0.411-0.333-0.412zM75.731 19.662c0.231 0 0.382 0.186 0.336 0.411l-0.404 1.974zM75.259 24.022l0.404-1.975-0.404 1.976 0-0zM74.753 24.437l0.002-0c-1.224 0.010-4.902 0.038-7.666 0.038 3.364 0 7.664-0.037 7.664-0.037zM64.608 17.12c-0.004-0.216 0.243-0.588 0.474-0.588l-0.52-0.009c-0.233 2.354 0.047 0.597 0.047 0.597z"></path>
<path d="M67.468 24.474c-0.026 0-0.054 0-0.081 0 0.027-0 0.055-0 0.081-0zM75.731 19.662c0.231 0 0.382 0.186 0.336 0.411l-0.404 1.974-0.066 0.322zM69.437 24.469v0zM68.416 24.472v0zM68.104 24.473c-0.034 0-0.066 0-0.098 0.001 0.032-0.001 0.065-0.001 0.098-0.001zM67.787 24.474v0zM68.356 24.472v0zM74.756 24.437c-0.897 0.007-3.112 0.024-5.321 0.033 2.207-0.009 4.423-0.026 5.321-0.033zM75.259 24.023v0zM68.007 24.474v0zM67.386 24.474v0zM67.7 24.474v0zM6.864 17.169l0.646-2.864-0.739 3.274-0.088 0.412c0.048-0.227 0.129-0.596 0.18-0.822zM14.596 5.084h-4.567c-0.231 0-0.461 0.184-0.513 0.409l-0.866 3.824c-0.051 0.225 0.096 0.409 0.327 0.409h4.603c0.231 0 0.46-0.184 0.51-0.41l0.419-1.912 0.419-1.91v-0c0.049-0.226-0.099-0.41-0.331-0.41zM13.602 11.442v-0l-1.34 6.197 1.34-6.197zM0.334 31.977s2.302 0.030 3.766 0.030c-1.112 0-2.948-0.021-3.768-0.030l0.002 0h-0zM8.156 11.442v0z"></path>
<path d="M13.272 11.032h-4.604c-0.231 0-0.461 0.184-0.512 0.41l-0.647 2.864-0.646 2.864c-0.051 0.225-0.132 0.595-0.18 0.821l-0.621 2.923-0.621 2.924c-0.048 0.225-0.147 0.589-0.221 0.809 0 0-0.86 2.559-2.306 2.529-0.079-0.001-0.142-0.002-0.205-0.004l0.025 0c-0.7-0.014-1.251-0.024-1.251-0.024h-0.001c-0.23-0.004-0.462 0.177-0.516 0.4l-0.954 4.012c-0.054 0.225 0.091 0.409 0.321 0.413 0.82 0.010 2.656 0.031 3.768 0.031 3.611 0 5.515-2.002 6.735-7.759l2.768-12.806c0.049-0.225-0.101-0.41-0.331-0.41zM78.664 24.24c-0.231 0-0.38-0.185-0.331-0.411l3.463-16.22zM83.477 23.828v0z"></path>
<path d="M78.382 24.035c-0.028-0.113-0.012-0.39 0.037-0.617l1.644-7.699-1.731 8.11c-0.049 0.226 0.101 0.412 0.331 0.412h0.421c-0.23 0-0.673-0.093-0.701-0.206zM83.203 24.148c-0.126 0.051-0.418 0.092-0.649 0.092h0.421c0.231 0 0.458-0.185 0.503-0.412l0.083-0.412c-0.045 0.226-0.231 0.68-0.357 0.731zM84.178 20.367l0.617-3.056c-0 0.002-0 0.005-0.001 0.006l-0.616 3.050zM97.842 8.695l0.191 0.788c0.053 0.226-0.093 0.409-0.324 0.409zM83.561 23.417v0zM97.652 7.888v0zM84.796 17.311c0.046-0.226 0.122-0.592 0.17-0.817l0.66-3.093-0.748 3.504-0.082 0.406zM81.851 7.343c-0.046 0.218-0.105 0.494-0.145 0.676l-1.642 7.7 1.731-8.11 0.056-0.266z"></path>
<path d="M98.031 9.483l-0.191-0.788-0.284-1.216c-0.374-1.453-1.471-2.291-3.854-2.291l-10.973-0.008c-0.231 0-0.459 0.184-0.507 0.411l-0.17 0.803-0.2 0.949-0.056 0.266-3.375 15.81c-0.049 0.226-0.065 0.503-0.037 0.616s0.471 0.206 0.703 0.206h3.469c0.231 0 0.523-0.042 0.649-0.093s0.311-0.504 0.358-0.731l1.235-6.099c0-0.001 0-0.004 0.001-0.005l0.082-0.407 1.409-6.598c0.049-0.225 0.276-0.409 0.507-0.409l10.915-0.005c0.227-0.001 0.372-0.185 0.32-0.41z"></path>
<path d="M112.082 2.356c-0.231 0.002-0.609 0.003-0.84 0.003h-3.494c-0.231 0-0.527 0.156-0.656 0.347l-7.725 11.317c-0.131 0.191-0.28 0.163-0.331-0.062l-0.569-2.493c-0.052-0.225-0.283-0.409-0.513-0.409h-4.966c-0.231 0-0.368 0.181-0.305 0.403l2.225 7.796c0.062 0.222 0.068 0.588 0.011 0.81l-0.971 3.773c-0.058 0.224 0.085 0.407 0.315 0.407h4.908c0.231 0 0.467-0.183 0.524-0.407l0.97-3.773c0.057-0.224 0.218-0.558 0.358-0.742l12.542-16.644c0.139-0.184 0.064-0.335-0.167-0.333l-1.318 0.008zM72.627 12.12l-0-0.005c-0.029 0.251-0.261 0.435-0.492 0.435h-6.295c-0.218 0-0.33-0.148-0.297-0.331 0.002-0.005 0.003-0.010 0.005-0.014 0 0-0.002 0-0.005 0.002 0.002-0.007 0.002-0.014 0.004-0.021 0 0 0.013-0.044 0.028-0.107 0.601-1.599 1.826-2.648 4.129-2.648 2.592-0 3.098 1.266 2.922 2.689zM70.78 4.852c-8.082 0-9.997 4.906-11.071 9.857-1.075 5.047-0.982 9.765 7.381 9.765h0.297c0.026-0 0.054-0 0.080-0h0.54c0.033-0.001 0.064-0.001 0.098-0.001l0.312-0c0.33-0 0.667-0.002 1.003-0.003h0.017c2.208-0.009 4.424-0.025 5.321-0.033 0.229-0.004 0.455-0.188 0.502-0.413l0.339-1.655 0.066-0.322 0.404-1.974c0.047-0.226-0.105-0.411-0.336-0.411h-7.518c-2.991 0-3.879-0.795-3.552-3.131l12.018 0.001c0.003 0 0.005-0.001 0.008-0.001 0.191-0.004 0.368-0.135 0.438-0.311 0.013-0.034 0.024-0.069 0.029-0.105l-0.001 0.001c1.783-6.73 1.271-11.264-6.374-11.264zM32.581 12.094l-0.114 0.403-0 0.001-1.815 6.432c-0.063 0.222-0.303 0.404-0.534 0.404h-4.804c-3.644 0-4.531-2.85-3.644-7.053 0.887-4.299 2.626-6.972 6.212-7.242 4.901-0.37 5.881 3.077 4.698 7.056zM35.876 19.087s2.265-5.499 2.779-8.675c0.704-4.252-1.425-10.418-9.647-10.418-8.176 0-11.726 5.887-13.081 12.287-1.355 6.446 0.42 12.099 8.549 12.053l12.407-0.046c0.231-0.002 0.467-0.185 0.526-0.408l1.044-3.983c0.058-0.224-0.083-0.407-0.314-0.408l-2.001-0.011c-0.196-0.002-0.309-0.129-0.285-0.297 0.005-0.035 0.013-0.067 0.025-0.096l-0.001 0.003h-0.002v-0.001z"></path>
<path d="M76.348 15.406c0 0.152-0.123 0.276-0.276 0.276s-0.275-0.124-0.275-0.276 0.123-0.275 0.275-0.275c0.152-0 0.276 0.123 0.276 0.275z"></path>
</svg>
