<!-- Generated by IcoMoon.io -->
<svg version="1.1" xmlns="http://www.w3.org/2000/svg" width="32" height="32" viewBox="0 0 32 32">
<title>jsdelivr</title>
<path d="M8.488 2.746c-4.021 1.442-7.349 2.661-7.385 2.708-0.106 0.106 1.958 19.481 2.086 19.599 0.117 0.105 11.944 6.611 12.366 6.81 0.305 0.129 0.656-0.047 6.716-3.352 3.516-1.911 6.388-3.493 6.388-3.493 0.094-0.328 2.297-19.505 2.239-19.563-0.059-0.070-5.31-1.934-12.976-4.607l-2.11-0.738-7.326 2.637zM17.865 6.485c0.469 0.106 1.008 0.246 1.196 0.328l0.34 0.141-0.961 0.656c-0.539 0.363-1.301 0.961-1.7 1.313-0.692 0.633-0.738 0.656-1.207 0.586-0.445-0.070-0.516-0.129-0.727-0.621-0.328-0.75-0.738-2.344-0.633-2.438 0.281-0.281 2.239-0.258 3.692 0.035zM13.223 7.177c0.047 0.293 0.27 1.020 0.492 1.641 0.41 1.078 0.41 1.114 0.223 1.489-0.141 0.27-0.176 0.551-0.129 1.067 0.059 0.645 0.035 0.738-0.352 1.348-0.75 1.16-1.547 2.977-1.805 4.091-0.176 0.774-0.305 1.102-0.457 1.149-0.105 0.035-0.316 0.188-0.469 0.352-0.258 0.27-0.27 0.281-0.75 0.094-0.774-0.305-1.723-0.949-2.438-1.653l-0.68-0.656v-0.985c0-2.942 1.618-5.849 4.161-7.478 0.586-0.363 1.829-0.961 2.063-0.985 0.047 0 0.105 0.234 0.141 0.527zM21.393 8.138c0.844 0.633 1.84 1.782 2.297 2.673l0.328 0.621-0.223 0.504c-0.316 0.703-1.219 2.040-1.829 2.719-0.481 0.539-0.539 0.563-0.844 0.445-0.457-0.176-0.856-0.164-1.242 0.047-0.34 0.164-0.34 0.164-1.266-0.738-0.504-0.492-1.172-1.231-1.477-1.629-0.527-0.692-0.539-0.727-0.375-1.055 0.199-0.387 0.223-0.727 0.059-1.137-0.094-0.258-0.047-0.352 0.551-0.891 0.926-0.844 2.813-2.11 3.165-2.11 0.070 0 0.457 0.246 0.856 0.551zM15.685 10.295c0.281 0.129 0.551 0.551 0.551 0.856 0 0.082-0.105 0.293-0.246 0.469-0.305 0.387-0.926 0.422-1.278 0.070s-0.316-0.973 0.070-1.278c0.352-0.281 0.504-0.305 0.903-0.117zM16.306 13.354c0.316 0.41 1.043 1.207 1.618 1.77 0.985 0.973 1.043 1.067 1.043 1.524 0 0.481-0.012 0.492-0.809 0.926-0.961 0.527-2.649 1.102-3.786 1.278l-0.82 0.117-0.539-0.551c-0.293-0.305-0.527-0.633-0.527-0.727 0-0.75 0.949-3.071 1.793-4.396 0.422-0.645 0.445-0.668 0.938-0.668s0.539 0.035 1.090 0.727zM24.804 14.128c0.117 0.867 0.117 1.336 0.012 2.227-0.082 0.621-0.199 1.184-0.258 1.242-0.129 0.129-0.727 0-1.793-0.399-0.656-0.246-0.668-0.258-0.668-0.715 0-0.399 0.105-0.586 0.774-1.371 0.422-0.492 0.961-1.207 1.196-1.582 0.223-0.375 0.457-0.633 0.504-0.586s0.164 0.586 0.234 1.184zM21.089 15.921c0.621 0.481 0.27 1.512-0.516 1.512-0.445 0-0.938-0.457-0.938-0.879 0-0.387 0.481-0.879 0.856-0.879 0.152 0 0.422 0.105 0.598 0.246zM23.034 18.324c1.301 0.457 1.278 0.41 0.516 1.653-1.571 2.532-4.067 4.056-7.080 4.325-0.903 0.070-0.961 0.059-1.395-0.246-0.785-0.539-1.758-1.653-2.122-2.415l-0.34-0.727 0.434-0.504c0.363-0.422 0.504-0.504 0.867-0.516 1.137-0.012 3.329-0.692 4.864-1.524 0.68-0.363 0.914-0.445 1.090-0.352 0.316 0.164 1.067 0.141 1.407-0.059 0.164-0.094 0.375-0.129 0.469-0.094 0.094 0.047 0.68 0.246 1.289 0.457zM9.461 19.25c0.656 0.281 0.821 0.41 0.914 0.715 0.152 0.445 0.539 0.82 0.973 0.926 0.176 0.047 0.316 0.141 0.316 0.223 0 0.281 0.809 1.805 1.172 2.227 0.211 0.234 0.352 0.457 0.316 0.504-0.129 0.117-1.371-0.445-2.239-1.020-1.453-0.961-2.801-2.567-3.423-4.114-0.152-0.375-0.281-0.715-0.281-0.75s0.328 0.164 0.738 0.445c0.399 0.27 1.078 0.656 1.512 0.844zM12.52 18.863c0.469 0.539 0.082 1.418-0.621 1.418-0.399 0-0.938-0.457-0.938-0.797 0-0.832 1.020-1.242 1.559-0.621z"></path>
</svg>
