<!-- Generated by IcoMoon.io -->
<svg version="1.1" xmlns="http://www.w3.org/2000/svg" width="28" height="32" viewBox="0 0 28 32">
<title>keybase</title>
<path d="M17.886 26.188c-0.621 0-1.125 0.504-1.125 1.125s0.504 1.125 1.125 1.125c0.621 0 1.125-0.504 1.125-1.125v0c0-0.621-0.504-1.125-1.125-1.125v0zM24.881 16.962c-0.594-0.914-2.461-3.278-5.454-4.607q-0.569-0.254-1.149-0.454c0.231-0.549 0.365-1.187 0.365-1.856 0-2.155-1.39-3.985-3.323-4.642l-0.035-0.010c-0.776-0.256-1.458-0.375-2.026-0.361-0.037-0.125-0.118-0.688 0.588-2.188l-1.431-0.845-0.342 0.473c-0.543 0.754-1.058 1.472-1.521 2.181-0.15-0.037-0.327-0.065-0.508-0.078l-0.010-0.001c-2.596-0.153-2.438-0.146-2.566-0.146-3.163 0-3.172 3.258-3.172 2.867l-0.147 2.293c-0.101 1.688 1.234 3.138 2.977 3.241l0.558 0.034c-1.103 0.635-2.054 1.372-2.892 2.22l-0.001 0.001c-3.916 3.956-3.916 8.29-3.916 11.776v2.102l1.458-1.863c0.215 0.889 0.528 1.672 0.934 2.394l-0.024-0.047c0.361 0.633 0.929 0.591 1.228 0.458 0.263-0.117 0.625-0.433 0.234-1.257-0.471-0.965-0.817-2.084-0.978-3.263l-0.006-0.058 2.926-3.739-1.541 4.632c3.639-2.65 9.836-3.86 14.766-2.412 2.137 0.628 4.216 0.043 5.296-1.49 0.045-0.063 0.075-0.135 0.116-0.201 0.107 0.532 0.171 1.146 0.175 1.773l0 0.003c0 1.456-0.231 3.308-0.93 5.102-0.157 0.404 0.11 0.906 0.538 0.984 0.464 0.098 0.958-0.194 1.148-0.697 0.6-1.597 0.913-3.409 0.913-5.389 0-2.411-0.813-4.841-2.244-6.933zM8.898 8.036l-0.981-0.058-0.087 1.362 0.821 0.049c-0.015 0.155-0.023 0.335-0.023 0.517 0 0.249 0.016 0.494 0.046 0.735l-0.003-0.029-1.399-0.084c-0.41-0.018-0.736-0.354-0.736-0.767 0-0.011 0-0.023 0.001-0.034l-0 0.002 0.151-2.291c0.063-0.761 0.867-0.704 0.829-0.707l1.819 0.108c-0.152 0.327-0.301 0.725-0.421 1.134l-0.016 0.064zM18.174 18.797c-0.11 0.086-0.25 0.138-0.402 0.138-0.197 0-0.373-0.087-0.494-0.224l-0.001-0.001-0.605-0.718-2.151 1.688c-0.085 0.067-0.194 0.108-0.313 0.108-0.153 0-0.29-0.068-0.383-0.175l-0.987-1.166c-0.060-0.077-0.096-0.175-0.096-0.281 0-0.148 0.070-0.28 0.178-0.364l0.001-0.001 2.161-1.699-0.884-1.046-1.068 0.841c-0.081 0.064-0.185 0.102-0.298 0.102-0.145 0-0.275-0.064-0.364-0.164l-0-0.001s-0.232-0.276-0.238-0.283c-0.059-0.077-0.095-0.174-0.095-0.28 0-0.149 0.070-0.281 0.179-0.365l0.001-0.001 1.057-0.831s-1.157-1.375-1.162-1.384c-0.078-0.1-0.125-0.227-0.125-0.365 0-0.192 0.091-0.363 0.232-0.473l0.001-0.001c0.109-0.087 0.25-0.14 0.402-0.14 0.196 0 0.372 0.087 0.491 0.225l0.001 0.001 5.068 6.020c0.078 0.1 0.125 0.227 0.125 0.366 0 0.192-0.091 0.364-0.232 0.473l-0.001 0.001zM11.715 26.188c-0.621 0-1.125 0.504-1.125 1.125s0.504 1.125 1.125 1.125c0.621 0 1.125-0.504 1.125-1.125v0c0-0.621-0.504-1.125-1.125-1.125v0z"></path>
</svg>
