<!-- Generated by IcoMoon.io -->
<svg version="1.1" xmlns="http://www.w3.org/2000/svg" width="32" height="32" viewBox="0 0 32 32">
<title>keycdn</title>
<path d="M3.987 25.581l3.781-3.688c2.006 2.675 4.444 4.125 7.912 4.213 1.906 0.044 3.769-0.438 5.4-1.4 0.319 0.331 1.156 1.219 1.306 1.375-2.012 1.294-4.35 1.944-6.756 1.887-2.706-0.069-5.287-1.044-7.356-2.775 0.019-0.038-2.388 2.344-2.412 2.369 0.594 1.863-0.819 3.9-2.894 3.9-1.675-0.006-2.969-1.356-2.969-3.031 0-2.144 2.069-3.538 3.987-2.85zM26.169 9.806c1.194 1.956 1.85 4.213 1.794 6.5-0.069 2.8-1.188 5.469-3.038 7.563 0.019 0.019 1.488 1.575 1.506 1.594 0.6-0.081 1.2 0.125 1.619 0.569 0.706 0.75 0.681 1.931-0.069 2.65-0.75 0.706-1.931 0.681-2.65-0.069-0.419-0.438-0.587-1.050-0.475-1.644-1.556-1.663-2.775-2.95-2.775-2.95 2.669-2.131 3.956-4.975 4.025-7.762 0.044-1.806-0.45-3.575-1.319-5.137l1.381-1.313zM6.5 3.319c0.419 0.438 0.588 1.050 0.475 1.644l2.869 3.006c-0.294 0.238-0.831 0.65-1.425 1.331-1.588 1.781-2.475 4.050-2.544 6.431-0.044 1.806 0.381 3.575 1.25 5.15l-1.375 1.344c-1.206-1.975-1.806-4.231-1.737-6.544 0.063-2.787 1.144-5.475 2.969-7.569l-1.581-1.65c-0.6 0.081-1.2-0.125-1.619-0.569-0.706-0.75-0.681-1.931 0.069-2.65 0.744-0.7 1.912-0.681 2.65 0.075zM29.056 0.5c1.625 0 2.944 1.4 2.944 3.019s-1.319 2.981-2.944 2.981c-0.394 0.006-0.875-0.069-0.994-0.112l-3.931 3.731c-2.044-2.725-4.794-4.119-7.931-4.2-1.906-0.044-3.769 0.425-5.387 1.4l-1.319-1.375c2.013-1.3 4.35-1.944 6.756-1.888 2.706 0.069 5.287 1.044 7.356 2.788l2.569-2.412c-0.094-0.294-0.137-0.6-0.137-0.906-0.006-1.669 1.394-3.025 3.019-3.025zM16.044 7.088c0.344 0 0.681 0.025 1.025 0.069 4.881 0.612 8.338 5.069 7.738 9.944-0.613 4.881-5.069 8.337-9.944 7.738-4.881-0.613-8.338-5.069-7.737-9.95 0.581-4.525 4.381-7.787 8.919-7.8zM12.356 14.55c0.037 1.419 0.762 2.613 2.025 3.262l-0.688 3.231h4.606l-0.688-3.231c1.256-0.681 2.006-1.813 2.025-3.262-0.025-2.050-1.613-3.594-3.644-3.644-2.006 0.050-3.581 1.55-3.637 3.644z"></path>
</svg>
