<!-- Generated by IcoMoon.io -->
<svg version="1.1" xmlns="http://www.w3.org/2000/svg" width="32" height="32" viewBox="0 0 32 32">
<title>komodo</title>
<path d="M29.802 13.304c-2.422-2.193-5.12-3.853-8.254-4.82-4.288-1.323-8.678-1.882-13.158-1.967-1.994 0.143-3.988 0.291-5.982 0.423-0.308 0.020-0.482 0.144-0.625 0.412-0.907 1.708-1.399 3.539-1.626 5.445-0.501 4.226 0.247 8.293 1.591 12.282 0.116 0.344 0.322 0.452 0.681 0.387 1.396-0.256 2.799-0.474 4.193-0.74 2.353-0.448 4.693-0.958 6.884-1.967 1.229-0.566 2.374-1.244 2.977-2.561 0.061-0.134 0.352-0.24 0.527-0.227 0.36 0.025 0.723 0.112 1.070 0.22 2.102 0.66 4.191 1.362 6.301 1.991 1.435 0.428 2.897 0.766 4.351 1.129 0.578 0.144 1.099-0.030 1.45-0.499 0.417-0.558 0.869-1.125 1.125-1.761 1.067-2.654 1.14-5.351-1.505-7.746zM13.931 20.925c-1.153 0.648-2.406 1.034-3.686 1.323-2.41 0.544-4.827 1.056-7.239 1.593-0.315 0.070-0.456 0.006-0.526-0.328-0.447-2.14-0.906-4.278-1.377-6.413-0.077-0.348 0.063-0.45 0.364-0.519 0.995-0.23 1.962-0.102 2.833 0.376 1.11 0.609 2.152 1.339 3.243 1.984 0.776 0.458 1.557 0.929 2.386 1.271 1.252 0.516 2.495 0.35 3.652-0.348 0.345-0.208 0.711-0.424 0.973-0.72 0.43-0.488 0.892-0.446 1.466-0.222-0.491 0.919-1.234 1.522-2.091 2.004zM30.187 20.681c-0.616 1.096-1.348 1.482-2.556 1.158-1.589-0.426-3.165-0.916-4.712-1.476-2.724-0.986-5.467-1.879-8.334-2.355-0.551-0.092-1.105-0.282-1.607-0.531-0.873-0.433-1.258-1.268-1.103-2.233 0.204-1.268 0.902-2.268 1.769-3.17 0.074-0.077 0.147-0.154 0.219-0.233 0.006-0.007 0.001-0.025 0.001-0.097-4.66-0.057-8.941 1.103-12.849 3.75 0-0.239-0.012-0.433 0.002-0.626 0.143-2.047 0.495-4.043 1.298-5.953 0.327-0.777 0.801-1.113 1.656-1.175 4.726-0.345 9.432-0.237 14.102 0.589 4.078 0.721 7.739 2.366 10.816 5.187 0.525 0.481 1.064 0.994 1.423 1.596 0.333 0.559 0.531 1.243 0.616 1.895 0.167 1.289-0.1 2.531-0.742 3.673z"></path>
<path d="M28.865 15.025c-2.2-2.255-4.711-4.005-7.671-5.081-2.619-0.952-5.354-1.289-8.123-1.368-2.086-0.060-4.162 0.029-6.199 0.558-1.379 0.358-2.518 1.036-3.232 2.315-0.042 0.075-0.073 0.157-0.131 0.285 0.132-0.017 0.209-0.023 0.284-0.036 2.132-0.359 4.259-0.759 6.398-1.067 1.783-0.257 3.592-0.368 5.372-0.004 3.633 0.744 6.722 2.535 9.406 5.060 0.029 0.027 0.038 0.073 0.101 0.202-0.167-0.111-0.244-0.165-0.324-0.214-0.841-0.513-1.68-1.029-2.525-1.534-0.293-0.175-0.593-0.28-0.956-0.143-0.339 0.128-0.702 0.226-1.061 0.255-0.243 0.020-0.616-0.024-0.718-0.179-0.136-0.208-0.086-0.551-0.074-0.835 0.005-0.114 0.123-0.223 0.202-0.355-1.406-0.73-2.894-1.020-4.426-1.14-0.086-0.007-0.192 0.032-0.262 0.085-0.467 0.356-0.838 0.794-0.865 1.404-0.050 1.116 0.226 2.169 1.118 2.879 0.828 0.659 1.728 1.271 2.682 1.722 3.605 1.704 7.471 2.185 11.408 2.243 0.125 0.002 0.322-0.151 0.37-0.277 0.668-1.737 0.641-3.322-0.777-4.775z"></path>
</svg>
