<!-- Generated by IcoMoon.io -->
<svg version="1.1" xmlns="http://www.w3.org/2000/svg" width="32" height="32" viewBox="0 0 32 32">
<title>krakenjs</title>
<path d="M31.236 24.1c-0.064-0.43-0.239-0.837-0.47-1.166-0.231-0.331-0.507-0.599-0.796-0.817-0.581-0.436-1.211-0.704-1.849-0.87-0.052-0.014-0.104-0.027-0.157-0.039 0.16-0.209 0.306-0.422 0.441-0.644 0.272-0.452 0.5-0.935 0.654-1.453 0.151-0.517 0.221-1.074 0.153-1.623-0.065-0.549-0.273-1.075-0.585-1.497-0.154-0.213-0.328-0.404-0.514-0.575l-0.142-0.125c-0.049-0.040-0.097-0.079-0.147-0.117l-0.153-0.112-0.149-0.1c-0.067-0.045-0.158-0.040-0.219 0.018-0.071 0.067-0.073 0.178-0.007 0.248l0.123 0.13 0.111 0.127 0.107 0.132 0.101 0.135c0.131 0.182 0.241 0.373 0.329 0.569 0.175 0.392 0.248 0.803 0.218 1.204s-0.156 0.792-0.345 1.16c-0.186 0.369-0.432 0.716-0.713 1.036-0.139 0.159-0.288 0.313-0.441 0.453-0.038 0.035-0.076 0.069-0.114 0.101-0.019 0.016-0.037 0.032-0.054 0.044l-0.006 0.004-0.002 0.001c-0.003 0.002 0.024-0.023 0.010-0.010 0-0.001 0-0.001 0-0.001 0.001-0.002-0.002 0.001-0.003 0.001l-0.023 0.015c-0.071 0.047-0.157 0.1-0.243 0.147-0.347 0.193-0.723 0.346-1.099 0.439-0.378 0.095-0.755 0.13-1.119 0.113-0.366-0.017-0.719-0.094-1.058-0.217-0.015-0.006-0.031-0.012-0.046-0.018 0.071-0.011 0.141-0.022 0.213-0.036 0.223-0.045 0.451-0.111 0.678-0.205 0.225-0.094 0.45-0.218 0.654-0.374 0.205-0.154 0.389-0.337 0.542-0.534s0.277-0.406 0.371-0.615c0.095-0.209 0.164-0.418 0.216-0.622 0.050-0.203 0.082-0.403 0.102-0.596 0.039-0.389 0.031-0.755 0.003-1.109l-0.012-0.133-0.015-0.137c-0.005-0.045-0.010-0.093-0.016-0.134l-0.018-0.116-0.009-0.058-0.004-0.029-0.002-0.014-0.001-0.007-0.001-0.004c0 0.001-0.001-0.013-0.001-0.017l-0.018-0.111-0.035-0.222c-0.047-0.296-0.087-0.592-0.119-0.888-0.019-0.148-0.028-0.296-0.042-0.444-0.012-0.148-0.019-0.295-0.030-0.444-0.012-0.294-0.021-0.591-0.011-0.883 0.002-0.147 0.015-0.292 0.021-0.438 0.013-0.144 0.023-0.291 0.044-0.433 0.037-0.287 0.091-0.571 0.17-0.844s0.184-0.534 0.32-0.775c0.134-0.241 0.304-0.459 0.513-0.628 0.104-0.086 0.219-0.156 0.342-0.209 0.061-0.026 0.125-0.049 0.19-0.066 0.032-0.009 0.060-0.013 0.091-0.021 0.034-0.006 0.077-0.008 0.114-0.013l0.005-0c0.080-0.009 0.146-0.072 0.155-0.156 0.010-0.096-0.060-0.182-0.156-0.193-0.040-0.004-0.075-0.010-0.119-0.013-0.046-0.001-0.096-0.003-0.141-0.001-0.089 0.003-0.179 0.013-0.266 0.030-0.176 0.035-0.346 0.096-0.505 0.178-0.318 0.162-0.592 0.397-0.82 0.661s-0.413 0.559-0.568 0.863c-0.154 0.304-0.278 0.619-0.382 0.938-0.055 0.159-0.097 0.32-0.143 0.481-0.040 0.161-0.080 0.323-0.112 0.486-0.069 0.325-0.117 0.651-0.161 0.977-0.039 0.326-0.067 0.653-0.086 0.979s-0.029 0.652-0.032 0.977v0.366c0.001 0.013-0.001-0.013-0.001-0.009v0.011l-0 0.014v0.029l-0 0.059-0.001 0.117c0 0.037-0.003 0.066-0.004 0.099l-0.005 0.097-0.008 0.1c-0.021 0.268-0.059 0.526-0.123 0.752-0.031 0.113-0.068 0.217-0.108 0.312-0.042 0.093-0.086 0.175-0.134 0.242-0.096 0.137-0.193 0.206-0.295 0.25-0.102 0.043-0.228 0.072-0.399 0.077-0.17 0.006-0.375-0.014-0.595-0.061-0.031-0.006-0.062-0.013-0.094-0.020 0 0-0.799-0.282-0.536-1.196 0.178-0.331 0.504-0.672 1.106-0.761 0 0 1.282-9.933-6.755-16.318-0.005-0.004-0.011 0-0.011 0-8.037 6.384-6.754 16.317-6.754 16.317 0.641 0.095 0.97 0.477 1.139 0.827 0.192 0.803-0.454 1.091-0.543 1.126-0.037 0.009-0.074 0.018-0.11 0.024-0.219 0.047-0.425 0.068-0.595 0.062-0.171-0.006-0.297-0.034-0.399-0.078s-0.199-0.112-0.295-0.249c-0.047-0.068-0.092-0.15-0.134-0.242-0.040-0.096-0.077-0.2-0.108-0.313-0.063-0.226-0.101-0.484-0.122-0.752l-0.008-0.101-0.005-0.096c-0.001-0.034-0.004-0.062-0.005-0.1l-0.001-0.117-0-0.059-0-0.029v-0.026c0-0.004-0.002 0.022-0.001 0.009v-0.122l-0-0.244c-0.002-0.325-0.013-0.651-0.032-0.977-0.018-0.326-0.047-0.653-0.086-0.979-0.044-0.327-0.091-0.653-0.16-0.978-0.031-0.162-0.072-0.325-0.112-0.486-0.046-0.161-0.088-0.322-0.143-0.481-0.105-0.319-0.228-0.634-0.383-0.938s-0.339-0.598-0.568-0.863c-0.227-0.264-0.502-0.499-0.82-0.661-0.159-0.082-0.329-0.143-0.505-0.178-0.088-0.017-0.177-0.027-0.266-0.030-0.045-0.003-0.095 0-0.141 0.001-0.044 0.003-0.079 0.009-0.119 0.013-0.096 0.010-0.166 0.097-0.156 0.193 0.009 0.083 0.075 0.146 0.155 0.155l0.005 0c0.038 0.004 0.080 0.007 0.114 0.012 0.031 0.008 0.060 0.012 0.091 0.021 0.065 0.017 0.128 0.039 0.19 0.066 0.123 0.052 0.238 0.123 0.342 0.208 0.21 0.169 0.38 0.387 0.513 0.629 0.136 0.24 0.241 0.502 0.32 0.775s0.133 0.556 0.17 0.843c0.021 0.143 0.031 0.289 0.044 0.434 0.007 0.147 0.020 0.291 0.021 0.438 0.011 0.292 0.002 0.589-0.010 0.883-0.011 0.148-0.017 0.296-0.030 0.444-0.014 0.148-0.023 0.296-0.042 0.444-0.032 0.296-0.072 0.592-0.119 0.888l-0.035 0.222-0.018 0.111c0.001-0.010-0.002 0.018-0.002 0.016l-0 0.004-0.001 0.008-0.003 0.014-0.004 0.029-0.009 0.058-0.017 0.116c-0.006 0.040-0.011 0.090-0.016 0.134l-0.015 0.137-0.011 0.133c-0.028 0.354-0.037 0.721 0.002 1.109 0.020 0.194 0.052 0.393 0.102 0.596 0.052 0.205 0.121 0.413 0.216 0.622s0.218 0.419 0.372 0.615c0.153 0.197 0.337 0.38 0.542 0.534 0.204 0.155 0.429 0.28 0.655 0.374s0.454 0.16 0.677 0.205c0.072 0.015 0.143 0.026 0.213 0.036-0.015 0.006-0.030 0.012-0.046 0.017-0.339 0.124-0.692 0.201-1.057 0.218s-0.743-0.019-1.119-0.114c-0.376-0.093-0.752-0.246-1.1-0.438-0.085-0.047-0.171-0.1-0.242-0.147l-0.023-0.016c-0.001-0-0.004-0.003-0.003-0.001 0 0 0.001 0.001 0.001 0.001-0.013-0.012 0.013 0.013 0.010 0.011l-0.002-0.001-0.006-0.004c-0.016-0.013-0.035-0.029-0.053-0.044-0.037-0.032-0.076-0.065-0.114-0.1-0.153-0.141-0.301-0.294-0.441-0.454-0.28-0.319-0.527-0.667-0.713-1.036-0.188-0.368-0.316-0.759-0.345-1.16-0.030-0.4 0.043-0.811 0.218-1.203 0.087-0.196 0.199-0.387 0.329-0.569l0.101-0.135 0.107-0.132 0.111-0.127 0.123-0.13c0.067-0.071 0.064-0.182-0.006-0.248-0.061-0.058-0.152-0.063-0.219-0.018l-0.148 0.1-0.153 0.112c-0.050 0.038-0.098 0.077-0.147 0.117l-0.142 0.124c-0.186 0.171-0.36 0.363-0.514 0.575-0.312 0.422-0.52 0.949-0.585 1.497-0.067 0.549 0.003 1.106 0.154 1.623 0.153 0.518 0.382 1.001 0.654 1.453 0.135 0.222 0.281 0.435 0.441 0.645-0.053 0.012-0.105 0.024-0.157 0.038-0.638 0.167-1.268 0.435-1.849 0.87-0.289 0.219-0.565 0.487-0.796 0.817-0.23 0.33-0.406 0.736-0.469 1.167-0.067 0.43-0.007 0.865 0.117 1.234 0.065 0.184 0.143 0.356 0.231 0.514 0.090 0.156 0.186 0.305 0.291 0.436 0.103 0.136 0.213 0.258 0.324 0.375l0.091 0.090 0.045 0.045c0.016 0.015 0.031 0.030 0.042 0.040l0.165 0.146c0.224 0.193 0.458 0.373 0.697 0.542 0.481 0.334 0.986 0.614 1.496 0.852 0.467 0.219 0.938 0.402 1.403 0.576 0.003 0.006 0.005 0.013 0.008 0.019l0.037 0.087c0.013 0.028 0.029 0.056 0.044 0.084 0.030 0.055 0.061 0.11 0.093 0.164l0.024 0.040 0.027 0.037 0.054 0.075c0.037 0.049 0.074 0.1 0.112 0.146 0.319 0.372 0.723 0.628 1.134 0.779 0.413 0.152 0.836 0.201 1.238 0.182 0.050-0.003 0.101-0.004 0.151-0.008l0.147-0.019 0.146-0.020c0.049-0.007 0.096-0.020 0.143-0.030l0.142-0.033c0.024-0.006 0.046-0.010 0.071-0.018l0.075-0.023 0.149-0.047 0.074-0.025c0.025-0.008 0.051-0.017 0.066-0.024l0.238-0.103c0.015-0.006-0.024 0.008 0.035-0.014l0.006-0.003 0.012-0.005 0.047-0.021 0.093-0.044c0.062-0.031 0.125-0.057 0.188-0.084s0.126-0.055 0.192-0.077c0.257-0.1 0.522-0.179 0.791-0.237 0.537-0.116 1.097-0.161 1.634-0.081 0.267 0.040 0.529 0.11 0.77 0.217s0.463 0.249 0.639 0.434c0.022 0.024 0.045 0.046 0.066 0.071l0.059 0.076 0.030 0.038 0.026 0.040 0.052 0.082c0.060 0.114 0.117 0.233 0.148 0.363 0.008 0.032 0.019 0.064 0.026 0.098l0.016 0.1 0.008 0.050c0.002 0.017 0.003 0.034 0.004 0.052l0.008 0.103c0.004 0.069-0.001 0.134 0 0.204-0.006 0.074-0.017 0.152-0.025 0.229v0.002c-0.011 0.097 0.060 0.183 0.156 0.193 0.085 0.009 0.163-0.045 0.187-0.124 0.022-0.074 0.045-0.146 0.067-0.223 0.016-0.083 0.038-0.17 0.048-0.254l0.014-0.127c0.002-0.021 0.005-0.042 0.006-0.063l0.001-0.064 0.001-0.129c0-0.044-0.007-0.087-0.010-0.13-0.012-0.175-0.057-0.348-0.113-0.518l-0.051-0.125-0.027-0.062-0.031-0.060-0.064-0.12c-0.023-0.038-0.049-0.075-0.073-0.112-0.047-0.078-0.106-0.145-0.162-0.216-0.027-0.036-0.060-0.066-0.091-0.099s-0.061-0.066-0.094-0.096c-0.132-0.12-0.271-0.233-0.419-0.327-0.295-0.193-0.616-0.336-0.945-0.44-0.659-0.206-1.349-0.267-2.028-0.221-0.339 0.023-0.677 0.071-1.010 0.145-0.084 0.016-0.166 0.039-0.248 0.060-0.083 0.020-0.166 0.042-0.247 0.067l-0.123 0.037-0.061 0.019-0.015 0.005-0.008 0.002c0.055-0.020 0.011-0.004 0.022-0.009l-0.028 0.008-0.223 0.062c-0.021 0.007-0.032 0.007-0.044 0.008l-0.038 0.005-0.074 0.010-0.037 0.006c-0.013 0.002-0.028 0.002-0.042 0.003l-0.085 0.006c-0.028 0.002-0.056 0.006-0.084 0.005l-0.083-0.002-0.082-0.001c-0.027-0.002-0.054-0.007-0.080-0.009-0.211-0.022-0.404-0.083-0.557-0.17s-0.265-0.199-0.327-0.309c-0.059-0.114-0.073-0.22-0.062-0.334 0.013-0.115 0.055-0.248 0.142-0.397s0.212-0.305 0.369-0.457c0.322-0.302 0.745-0.583 1.214-0.817l0.086-0.045 0.092-0.042 0.183-0.083c0.119-0.059 0.25-0.104 0.374-0.156l0.67-0.275 0.092-0.042v-0l0.123-0.057c0.149-0.070 0.301-0.14 0.441-0.214 0.949-0.43 2.934-1.221 4.713-1.221s3.764 0.791 4.713 1.221c0.14 0.074 0.291 0.144 0.441 0.214l0.184 0.085 0.030 0.014 0.027 0.011 0.643 0.264c0.125 0.052 0.256 0.098 0.375 0.156l0.274 0.124 0.086 0.045c0.469 0.234 0.892 0.515 1.215 0.817 0.156 0.152 0.281 0.309 0.368 0.457s0.129 0.282 0.141 0.397c0.011 0.114-0.003 0.22-0.062 0.334-0.063 0.11-0.174 0.223-0.327 0.309s-0.346 0.148-0.557 0.17c-0.027 0.003-0.053 0.007-0.080 0.009l-0.082 0.001-0.083 0.002c-0.027 0-0.056-0.004-0.084-0.005l-0.085-0.006c-0.014-0.001-0.030-0.002-0.041-0.003l-0.037-0.006-0.074-0.010-0.037-0.005c-0.013-0.001-0.023-0.002-0.044-0.008l-0.251-0.069c0.011 0.004-0.033-0.012 0.022 0.009l-0.007-0.002-0.015-0.005-0.184-0.056c-0.081-0.025-0.164-0.047-0.246-0.067s-0.165-0.044-0.249-0.060c-0.332-0.075-0.67-0.123-1.010-0.145-0.679-0.046-1.369 0.015-2.028 0.221-0.329 0.104-0.65 0.247-0.945 0.44-0.149 0.094-0.288 0.207-0.419 0.327-0.033 0.030-0.063 0.064-0.094 0.096s-0.063 0.063-0.090 0.099c-0.056 0.071-0.114 0.138-0.162 0.216-0.025 0.038-0.050 0.074-0.073 0.112l-0.064 0.12-0.031 0.060-0.026 0.062-0.052 0.125c-0.056 0.17-0.1 0.343-0.112 0.518-0.003 0.043-0.010 0.086-0.010 0.13l0.001 0.129 0.001 0.064c0.001 0.021 0.004 0.042 0.006 0.063l0.014 0.127c0.010 0.084 0.032 0.171 0.049 0.254 0.021 0.077 0.045 0.149 0.066 0.223 0.024 0.079 0.101 0.133 0.187 0.124 0.096-0.010 0.166-0.097 0.155-0.193v-0.002c-0.008-0.076-0.019-0.154-0.025-0.229 0.001-0.069-0.004-0.134 0-0.204l0.008-0.103c0.001-0.017 0.002-0.034 0.003-0.052l0.008-0.050 0.017-0.1c0.007-0.033 0.018-0.065 0.025-0.098 0.032-0.13 0.088-0.249 0.149-0.363l0.053-0.082 0.025-0.040 0.030-0.038 0.059-0.076c0.021-0.024 0.044-0.046 0.066-0.071 0.177-0.185 0.398-0.327 0.639-0.434 0.241-0.106 0.502-0.177 0.77-0.217 0.537-0.080 1.097-0.035 1.634 0.081 0.269 0.059 0.534 0.138 0.791 0.237 0.065 0.022 0.128 0.051 0.192 0.077s0.126 0.053 0.188 0.084l0.093 0.044 0.064 0.030c0.060 0.022 0.021 0.008 0.035 0.014l0.027 0.012 0.212 0.092c0.015 0.008 0.041 0.016 0.066 0.024l0.074 0.024 0.149 0.048 0.075 0.023c0.025 0.007 0.048 0.011 0.072 0.018l0.142 0.033c0.047 0.010 0.095 0.022 0.143 0.030l0.147 0.020 0.147 0.019c0.050 0.004 0.101 0.006 0.151 0.008 0.401 0.019 0.825-0.031 1.238-0.182 0.411-0.151 0.815-0.407 1.134-0.779 0.039-0.047 0.075-0.097 0.113-0.146l0.054-0.075 0.027-0.037 0.024-0.040c0.031-0.054 0.062-0.108 0.092-0.164 0.015-0.028 0.031-0.055 0.044-0.084l0.037-0.087c0.003-0.007 0.005-0.013 0.008-0.019 0.464-0.174 0.936-0.356 1.403-0.576 0.509-0.238 1.015-0.518 1.496-0.852 0.238-0.168 0.473-0.348 0.697-0.542l0.164-0.146c0.012-0.010 0.028-0.025 0.043-0.040l0.136-0.136c0.111-0.117 0.221-0.239 0.324-0.375 0.105-0.131 0.201-0.281 0.29-0.436 0.088-0.159 0.167-0.33 0.231-0.514 0.123-0.369 0.183-0.803 0.117-1.234zM7.759 24.456c-0.037 0.025-0.073 0.048-0.11 0.075l-0.108 0.082-0.215 0.164c-0.036 0.026-0.071 0.055-0.106 0.086l-0.106 0.090c-0.070 0.061-0.14 0.119-0.209 0.183l-0.202 0.199c-0.034 0.034-0.067 0.066-0.1 0.101l-0.097 0.11c-0.064 0.074-0.128 0.145-0.19 0.223-0.245 0.312-0.469 0.668-0.632 1.082-0.082 0.206-0.144 0.43-0.182 0.664l-0.022 0.178c-0.001 0.008-0.002 0.017-0.003 0.024-0.209-0.13-0.413-0.261-0.611-0.398-0.423-0.288-0.815-0.601-1.168-0.941-0.176-0.17-0.344-0.346-0.499-0.53l-0.116-0.141c-0.012-0.013-0.019-0.024-0.026-0.033l-0.021-0.030-0.043-0.060c-0.060-0.088-0.117-0.177-0.163-0.265-0.050-0.087-0.084-0.173-0.117-0.256-0.029-0.082-0.049-0.161-0.060-0.233-0.018-0.145-0.005-0.26 0.035-0.356s0.101-0.186 0.197-0.281c0.095-0.094 0.223-0.189 0.377-0.272 0.308-0.166 0.701-0.28 1.11-0.332 0.41-0.054 0.838-0.044 1.253 0.019 0.415 0.061 0.818 0.18 1.187 0.349 0.093 0.042 0.183 0.087 0.271 0.136l0.13 0.075 0.111 0.058 0.080 0.038 0.077 0.035c0.105 0.046 0.213 0.089 0.326 0.127l-0.047 0.032zM12.929 16.902c0-0.357 0.29-0.647 0.647-0.647 0.283 0 0.521 0.182 0.609 0.435 0.023 0.067 0.038 0.137 0.038 0.212 0 0.358-0.289 0.647-0.647 0.647-0.173 0-0.33-0.069-0.446-0.18-0.123-0.118-0.201-0.283-0.201-0.468zM18.871 17.368c-0.116 0.112-0.273 0.181-0.447 0.181-0.358 0-0.647-0.289-0.647-0.647 0-0.074 0.015-0.144 0.038-0.211 0.088-0.253 0.325-0.436 0.609-0.436 0.357 0 0.647 0.29 0.647 0.647 0 0.184-0.077 0.349-0.2 0.466zM29.347 24.829c-0.012 0.072-0.031 0.151-0.060 0.233-0.032 0.082-0.067 0.168-0.116 0.255-0.046 0.088-0.103 0.176-0.163 0.265l-0.042 0.059-0.021 0.031c-0.007 0.009-0.013 0.020-0.026 0.033l-0.116 0.141c-0.156 0.184-0.324 0.36-0.499 0.53-0.353 0.339-0.745 0.652-1.168 0.941-0.198 0.137-0.402 0.268-0.611 0.398-0-0.008-0.002-0.017-0.002-0.025l-0.023-0.179c-0.037-0.234-0.101-0.458-0.182-0.664-0.163-0.413-0.386-0.769-0.632-1.081-0.062-0.077-0.126-0.149-0.19-0.223l-0.097-0.11c-0.033-0.034-0.067-0.067-0.1-0.101l-0.203-0.199c-0.069-0.064-0.139-0.122-0.209-0.183l-0.106-0.090c-0.035-0.030-0.070-0.060-0.106-0.087l-0.324-0.245c-0.036-0.027-0.073-0.050-0.11-0.075l-0.047-0.031c0.113-0.039 0.221-0.081 0.325-0.127l0.077-0.035 0.080-0.038 0.112-0.058 0.13-0.075c0.088-0.048 0.178-0.094 0.271-0.136 0.369-0.168 0.772-0.287 1.187-0.349s0.843-0.073 1.252-0.019c0.408 0.052 0.802 0.166 1.11 0.332 0.154 0.082 0.282 0.177 0.377 0.271 0.097 0.095 0.158 0.185 0.197 0.281 0.040 0.096 0.053 0.211 0.035 0.356z"></path>
</svg>
