<!-- Generated by IcoMoon.io -->
<svg version="1.1" xmlns="http://www.w3.org/2000/svg" width="32" height="32" viewBox="0 0 32 32">
<title>krakenjs-sp</title>
<path d="M14.194 15.701c-0.266 0-0.482 0.216-0.482 0.482s0.216 0.482 0.482 0.482c0.267 0 0.482-0.216 0.482-0.482s-0.216-0.482-0.482-0.482z"></path>
<path d="M17.806 15.701c-0.267 0-0.483 0.216-0.483 0.482s0.216 0.482 0.483 0.482 0.482-0.216 0.482-0.482c0-0.266-0.216-0.482-0.482-0.482z"></path>
<path d="M9.593 21.667l-0.059-0.028-0.083-0.043-0.097-0.056c-0.065-0.036-0.132-0.070-0.202-0.101-0.275-0.126-0.575-0.215-0.884-0.26-0.309-0.047-0.628-0.054-0.933-0.014s-0.598 0.124-0.827 0.248c-0.115 0.061-0.21 0.132-0.281 0.202s-0.117 0.138-0.147 0.21c-0.030 0.072-0.039 0.157-0.026 0.265 0.009 0.054 0.023 0.112 0.045 0.174 0.024 0.062 0.050 0.126 0.087 0.19 0.034 0.066 0.077 0.132 0.121 0.197l0.032 0.044 0.016 0.022c0.005 0.007 0.010 0.015 0.019 0.025l0.087 0.105c0.116 0.137 0.241 0.268 0.372 0.395 0.263 0.253 0.555 0.486 0.871 0.701 0.147 0.102 0.3 0.2 0.455 0.297 0-0.006 0.001-0.012 0.002-0.018l0.017-0.133c0.028-0.175 0.075-0.341 0.136-0.495 0.121-0.308 0.288-0.573 0.471-0.806 0.046-0.058 0.094-0.111 0.141-0.166l0.072-0.082c0.024-0.026 0.049-0.050 0.074-0.075l0.151-0.148c0.051-0.047 0.103-0.091 0.156-0.136l0.079-0.067c0.026-0.023 0.052-0.045 0.079-0.064l0.161-0.122 0.081-0.061c0.027-0.020 0.054-0.037 0.082-0.056l0.035-0.023c-0.084-0.029-0.165-0.060-0.243-0.095l-0.058-0.026z"></path>
<path d="M25.773 21.615c-0.070-0.070-0.166-0.141-0.281-0.202-0.229-0.124-0.523-0.208-0.827-0.248-0.305-0.040-0.624-0.032-0.933 0.014s-0.61 0.135-0.884 0.26c-0.069 0.031-0.136 0.065-0.202 0.101l-0.097 0.056-0.083 0.043-0.059 0.028-0.058 0.026c-0.078 0.035-0.159 0.066-0.243 0.095l0.035 0.023c0.027 0.019 0.055 0.036 0.082 0.056l0.080 0.061 0.161 0.122c0.027 0.020 0.053 0.042 0.079 0.065l0.079 0.066c0.052 0.045 0.104 0.089 0.156 0.136l0.151 0.148c0.025 0.025 0.050 0.050 0.074 0.075l0.072 0.082c0.048 0.055 0.096 0.108 0.142 0.166 0.183 0.233 0.349 0.497 0.471 0.806 0.061 0.154 0.108 0.32 0.136 0.495l0.017 0.133c0.001 0.006 0.001 0.012 0.002 0.018 0.156-0.097 0.308-0.195 0.455-0.297 0.316-0.215 0.607-0.449 0.871-0.701 0.131-0.127 0.256-0.258 0.372-0.395l0.087-0.105c0.009-0.010 0.014-0.018 0.019-0.025l0.016-0.023 0.031-0.044c0.045-0.066 0.087-0.132 0.122-0.197 0.037-0.065 0.063-0.129 0.087-0.19 0.021-0.061 0.036-0.119 0.045-0.173 0.014-0.109 0.004-0.194-0.026-0.266s-0.075-0.139-0.147-0.21z"></path>
<path d="M16-0l-14.951 7.344v17.311l14.951 7.344 14.951-7.344v-17.311l-14.951-7.344zM27.266 22.466c-0.048 0.137-0.107 0.265-0.172 0.383-0.067 0.116-0.138 0.227-0.216 0.325-0.077 0.101-0.159 0.192-0.242 0.279l-0.068 0.068-0.034 0.034c-0.012 0.011-0.023 0.023-0.032 0.030l-0.123 0.109c-0.167 0.144-0.342 0.278-0.519 0.404-0.358 0.249-0.735 0.458-1.114 0.635-0.348 0.164-0.699 0.299-1.046 0.429-0.002 0.005-0.003 0.010-0.005 0.015l-0.027 0.065c-0.010 0.021-0.022 0.041-0.033 0.062-0.022 0.041-0.045 0.082-0.069 0.122l-0.017 0.030-0.020 0.028-0.041 0.056c-0.028 0.037-0.055 0.074-0.084 0.109-0.238 0.277-0.539 0.468-0.845 0.581-0.308 0.113-0.623 0.15-0.922 0.136-0.038-0.002-0.075-0.003-0.113-0.006l-0.11-0.014-0.109-0.015c-0.036-0.006-0.071-0.015-0.107-0.023l-0.106-0.024c-0.018-0.005-0.035-0.008-0.053-0.013l-0.056-0.017-0.111-0.035-0.055-0.018c-0.018-0.006-0.038-0.013-0.049-0.018l-0.158-0.068-0.020-0.009c-0.011-0.004 0.018 0.007-0.026-0.010l-0.005-0.002-0.008-0.004-0.034-0.016-0.070-0.033c-0.046-0.023-0.093-0.043-0.141-0.062s-0.095-0.041-0.143-0.058c-0.191-0.075-0.389-0.133-0.589-0.177-0.4-0.087-0.817-0.119-1.217-0.061-0.2 0.030-0.394 0.083-0.574 0.162s-0.344 0.186-0.476 0.324c-0.016 0.018-0.034 0.035-0.049 0.053l-0.044 0.056-0.023 0.028-0.018 0.030-0.039 0.061c-0.045 0.085-0.087 0.174-0.111 0.27-0.006 0.024-0.014 0.048-0.019 0.073l-0.012 0.075-0.006 0.037c-0.001 0.013-0.002 0.026-0.003 0.038l-0.005 0.077c-0.003 0.052 0 0.1-0.001 0.152 0.004 0.056 0.013 0.114 0.019 0.171v0.002c0.008 0.071-0.044 0.136-0.116 0.143-0.064 0.007-0.121-0.033-0.139-0.093-0.016-0.055-0.034-0.108-0.050-0.166-0.012-0.062-0.028-0.127-0.036-0.189l-0.010-0.095c-0.002-0.015-0.004-0.031-0.005-0.047l-0-0.048-0-0.096c0-0.032 0.004-0.065 0.007-0.097 0.009-0.13 0.042-0.259 0.084-0.386l0.038-0.093 0.019-0.047 0.023-0.045 0.048-0.089c0.017-0.029 0.036-0.056 0.054-0.084 0.036-0.058 0.079-0.108 0.121-0.161 0.020-0.027 0.045-0.050 0.067-0.074s0.046-0.050 0.070-0.072c0.098-0.090 0.201-0.174 0.312-0.244 0.22-0.144 0.459-0.251 0.704-0.328 0.491-0.153 1.005-0.199 1.511-0.164 0.253 0.017 0.505 0.052 0.752 0.108 0.063 0.012 0.124 0.029 0.185 0.045s0.123 0.031 0.183 0.050l0.091 0.028 0.046 0.014 0.011 0.004 0.006 0.002c-0.041-0.016-0.008-0.004-0.016-0.007l0.187 0.052c0.016 0.005 0.024 0.005 0.033 0.006l0.028 0.003 0.055 0.008 0.027 0.004c0.009 0.002 0.020 0.002 0.031 0.003l0.063 0.005c0.021 0.001 0.042 0.005 0.063 0.004l0.062-0.002 0.061-0c0.020-0.002 0.039-0.005 0.059-0.007 0.157-0.016 0.301-0.062 0.415-0.127s0.197-0.148 0.244-0.23c0.044-0.085 0.054-0.164 0.046-0.249-0.010-0.086-0.041-0.185-0.105-0.296s-0.159-0.227-0.274-0.341c-0.24-0.225-0.556-0.434-0.905-0.609l-0.064-0.034-0.204-0.093c-0.088-0.043-0.186-0.078-0.279-0.117l-0.32-0.131-0.159-0.066-0.020-0.008-0.023-0.011-0.046-0.021-0.092-0.043c-0.111-0.052-0.224-0.104-0.329-0.16-0.707-0.321-2.186-0.91-3.512-0.91s-2.805 0.589-3.512 0.91c-0.105 0.055-0.218 0.107-0.329 0.16l-0.091 0.042v0l-0.046 0.021-0.023 0.011-0.020 0.008-0.159 0.066-0.32 0.131c-0.093 0.039-0.191 0.073-0.279 0.117l-0.204 0.093-0.065 0.034c-0.35 0.174-0.665 0.384-0.905 0.609-0.116 0.114-0.21 0.23-0.274 0.341s-0.096 0.21-0.106 0.296c-0.008 0.085 0.002 0.164 0.046 0.249 0.047 0.082 0.129 0.166 0.244 0.23s0.257 0.11 0.415 0.127c0.020 0.002 0.039 0.005 0.059 0.007l0.061 0 0.062 0.002c0.021 0 0.042-0.003 0.063-0.004l0.063-0.005c0.011-0.001 0.022-0.001 0.032-0.003l0.027-0.004 0.055-0.008 0.028-0.003c0.009-0.001 0.018-0.001 0.033-0.006l0.187-0.052c-0.008 0.003 0.025-0.009-0.016 0.007l0.006-0.002 0.011-0.004 0.045-0.014 0.091-0.028c0.060-0.019 0.122-0.035 0.184-0.050s0.123-0.033 0.185-0.045c0.248-0.056 0.5-0.091 0.752-0.108 0.506-0.034 1.020 0.010 1.511 0.164 0.245 0.078 0.484 0.185 0.704 0.328 0.111 0.070 0.214 0.154 0.312 0.244 0.024 0.022 0.046 0.047 0.070 0.072s0.047 0.047 0.067 0.074c0.042 0.053 0.085 0.103 0.121 0.161 0.018 0.028 0.037 0.055 0.055 0.084l0.048 0.089 0.023 0.045 0.020 0.047 0.038 0.093c0.042 0.126 0.075 0.256 0.084 0.386 0.002 0.032 0.007 0.064 0.007 0.097l-0.001 0.096-0 0.048c-0.001 0.016-0.003 0.032-0.005 0.047l-0.011 0.095c-0.008 0.063-0.024 0.127-0.036 0.189-0.016 0.058-0.033 0.111-0.050 0.166-0.018 0.059-0.076 0.1-0.139 0.093-0.072-0.008-0.124-0.072-0.116-0.143v-0.002c0.006-0.057 0.014-0.115 0.018-0.171-0-0.051 0.003-0.1 0-0.152l-0.006-0.077c-0.001-0.013-0.002-0.026-0.003-0.038l-0.006-0.037-0.012-0.075c-0.005-0.024-0.013-0.048-0.019-0.073-0.023-0.097-0.066-0.186-0.11-0.27l-0.038-0.061-0.019-0.030-0.022-0.028-0.044-0.056c-0.016-0.018-0.033-0.035-0.049-0.053-0.131-0.138-0.297-0.244-0.476-0.324s-0.374-0.132-0.574-0.162c-0.4-0.059-0.817-0.026-1.217 0.061-0.201 0.044-0.398 0.102-0.589 0.177-0.049 0.017-0.096 0.038-0.143 0.058s-0.094 0.039-0.141 0.062l-0.069 0.033-0.035 0.016-0.009 0.004-0.004 0.002c-0.044 0.017-0.015 0.006-0.026 0.010l-0.020 0.009-0.158 0.068c-0.011 0.006-0.031 0.012-0.049 0.018l-0.055 0.018-0.111 0.035-0.056 0.017c-0.019 0.006-0.036 0.008-0.053 0.013l-0.106 0.024c-0.035 0.008-0.070 0.017-0.107 0.023l-0.109 0.015-0.11 0.014c-0.037 0.003-0.075 0.004-0.112 0.006-0.3 0.014-0.615-0.023-0.922-0.136s-0.607-0.303-0.845-0.581c-0.029-0.035-0.056-0.073-0.084-0.109l-0.040-0.056-0.020-0.028-0.018-0.030c-0.024-0.040-0.047-0.081-0.069-0.122-0.011-0.021-0.023-0.041-0.033-0.062l-0.028-0.065c-0.002-0.005-0.004-0.010-0.006-0.015-0.346-0.129-0.697-0.265-1.045-0.429-0.38-0.177-0.756-0.386-1.115-0.635-0.178-0.125-0.353-0.259-0.52-0.404l-0.123-0.109c-0.008-0.007-0.020-0.019-0.031-0.030l-0.034-0.034-0.068-0.067c-0.083-0.088-0.165-0.178-0.241-0.28-0.078-0.098-0.15-0.209-0.217-0.325-0.066-0.118-0.124-0.246-0.172-0.383-0.093-0.275-0.137-0.599-0.087-0.92 0.047-0.321 0.178-0.623 0.35-0.869s0.378-0.446 0.593-0.609c0.433-0.324 0.902-0.524 1.378-0.649 0.039-0.010 0.078-0.019 0.117-0.028-0.119-0.156-0.228-0.315-0.329-0.48-0.203-0.337-0.373-0.697-0.487-1.083-0.112-0.385-0.165-0.8-0.115-1.209 0.048-0.409 0.203-0.801 0.436-1.115 0.115-0.159 0.244-0.301 0.383-0.429l0.106-0.093c0.037-0.030 0.073-0.059 0.11-0.087l0.114-0.084 0.111-0.075c0.050-0.034 0.118-0.029 0.164 0.014 0.052 0.050 0.054 0.133 0.005 0.185l-0.092 0.097-0.083 0.095-0.080 0.098-0.075 0.1c-0.097 0.136-0.18 0.278-0.245 0.424-0.13 0.292-0.185 0.599-0.163 0.897s0.117 0.59 0.257 0.864c0.139 0.275 0.323 0.534 0.532 0.772 0.104 0.119 0.215 0.233 0.328 0.338 0.028 0.026 0.057 0.051 0.085 0.075 0.014 0.012 0.028 0.023 0.040 0.033l0.004 0.003 0.001 0c0.002 0.002-0.018-0.017-0.008-0.008 0-0-0.001-0.001-0.001-0.001s0.001 0.001 0.002 0.001l0.017 0.011c0.053 0.035 0.117 0.074 0.181 0.11 0.259 0.143 0.539 0.257 0.82 0.327s0.562 0.097 0.834 0.084c0.272-0.012 0.535-0.070 0.788-0.162 0.011-0.004 0.023-0.008 0.034-0.013-0.052-0.007-0.105-0.016-0.159-0.027-0.166-0.033-0.336-0.082-0.505-0.153s-0.336-0.163-0.488-0.278c-0.153-0.115-0.29-0.252-0.404-0.398s-0.207-0.303-0.277-0.459c-0.071-0.156-0.122-0.311-0.161-0.463-0.037-0.151-0.061-0.3-0.076-0.444-0.029-0.289-0.023-0.563-0.002-0.826l0.009-0.099 0.011-0.102c0.004-0.033 0.008-0.070 0.012-0.1l0.013-0.086 0.007-0.043 0.003-0.021 0.002-0.011 0.001-0.008c0 0.001 0.002-0.020 0.001-0.012l0.013-0.083 0.026-0.165c0.035-0.221 0.065-0.441 0.089-0.662 0.014-0.111 0.021-0.22 0.031-0.331 0.009-0.11 0.014-0.22 0.022-0.331 0.009-0.219 0.016-0.441 0.008-0.658-0.001-0.11-0.010-0.217-0.016-0.327-0.010-0.107-0.017-0.217-0.033-0.323-0.028-0.214-0.068-0.425-0.127-0.628s-0.137-0.399-0.238-0.577c-0.1-0.18-0.226-0.342-0.383-0.468-0.078-0.064-0.164-0.116-0.255-0.155-0.046-0.020-0.093-0.036-0.141-0.049-0.024-0.007-0.045-0.010-0.068-0.016-0.025-0.004-0.057-0.006-0.085-0.009l-0.004-0c-0.060-0.007-0.109-0.054-0.115-0.116-0.007-0.072 0.045-0.136 0.116-0.144 0.030-0.003 0.056-0.008 0.089-0.010 0.034-0.001 0.072-0.003 0.105-0.001 0.067 0.002 0.133 0.010 0.199 0.023 0.131 0.026 0.258 0.071 0.376 0.132 0.237 0.121 0.442 0.296 0.611 0.492 0.17 0.198 0.308 0.417 0.423 0.643s0.207 0.462 0.285 0.699c0.041 0.119 0.072 0.238 0.106 0.358 0.030 0.12 0.060 0.241 0.083 0.362 0.052 0.242 0.087 0.485 0.119 0.728 0.029 0.243 0.051 0.486 0.064 0.729s0.022 0.486 0.024 0.728l0 0.182v0.091c-0.001 0.010 0.001-0.010 0.001-0.007v0.019l0 0.022 0 0.044 0.001 0.087c0.001 0.028 0.003 0.049 0.004 0.074l0.004 0.072 0.006 0.075c0.016 0.2 0.044 0.392 0.091 0.561 0.024 0.084 0.051 0.162 0.081 0.233 0.031 0.068 0.065 0.13 0.1 0.18 0.071 0.102 0.144 0.153 0.22 0.186s0.17 0.054 0.297 0.058c0.126 0.005 0.28-0.011 0.443-0.046 0.027-0.005 0.055-0.012 0.082-0.018 0.067-0.026 0.548-0.24 0.405-0.839-0.126-0.261-0.371-0.545-0.849-0.616 0 0-0.956-7.402 5.033-12.159 0 0 0.004-0.003 0.008 0 5.989 4.758 5.033 12.159 5.033 12.159-0.448 0.066-0.691 0.32-0.823 0.567-0.196 0.682 0.399 0.891 0.399 0.891 0.024 0.006 0.047 0.011 0.070 0.015 0.163 0.035 0.317 0.050 0.443 0.046s0.222-0.026 0.297-0.058c0.076-0.033 0.148-0.084 0.22-0.186 0.035-0.050 0.069-0.111 0.1-0.18 0.030-0.071 0.057-0.149 0.081-0.233 0.047-0.168 0.076-0.361 0.091-0.561l0.006-0.075 0.004-0.072c0.001-0.025 0.003-0.046 0.003-0.074l0.001-0.087v-0.066l0-0.011v-0.008c-0-0.003 0.001 0.016 0.001 0.007v-0.091l0-0.182c0.002-0.242 0.010-0.485 0.024-0.728s0.035-0.487 0.064-0.729c0.033-0.243 0.068-0.486 0.119-0.728 0.023-0.121 0.054-0.242 0.083-0.362 0.034-0.12 0.066-0.24 0.107-0.358 0.078-0.238 0.17-0.473 0.285-0.699s0.253-0.446 0.423-0.643c0.17-0.197 0.374-0.371 0.611-0.493 0.118-0.061 0.245-0.107 0.376-0.133 0.065-0.012 0.132-0.020 0.199-0.022 0.033-0.002 0.070 0 0.105 0.001 0.033 0.002 0.059 0.007 0.089 0.010 0.071 0.008 0.123 0.072 0.116 0.144-0.006 0.062-0.056 0.109-0.115 0.116l-0.004 0c-0.028 0.003-0.060 0.005-0.085 0.009-0.023 0.006-0.044 0.009-0.068 0.016-0.048 0.013-0.096 0.029-0.142 0.049-0.091 0.039-0.177 0.091-0.255 0.155-0.156 0.126-0.283 0.288-0.382 0.468-0.102 0.179-0.18 0.374-0.238 0.577s-0.099 0.415-0.127 0.628c-0.016 0.106-0.023 0.216-0.033 0.323-0.005 0.109-0.014 0.217-0.016 0.326-0.008 0.218-0 0.439 0.008 0.658 0.008 0.111 0.013 0.22 0.022 0.331 0.011 0.111 0.017 0.22 0.031 0.331 0.024 0.221 0.054 0.441 0.089 0.662l0.026 0.165 0.014 0.083c-0.001-0.008 0.001 0.013 0.001 0.012l0 0.003 0.001 0.005 0.002 0.011 0.003 0.022 0.006 0.043 0.014 0.086c0.004 0.030 0.008 0.067 0.012 0.1l0.011 0.102 0.009 0.099c0.021 0.264 0.027 0.537-0.002 0.826-0.014 0.145-0.039 0.293-0.076 0.445-0.039 0.152-0.090 0.308-0.161 0.463s-0.162 0.312-0.277 0.459c-0.114 0.147-0.251 0.283-0.404 0.398s-0.32 0.208-0.488 0.278c-0.169 0.071-0.339 0.12-0.505 0.153-0.053 0.011-0.106 0.019-0.159 0.027 0.012 0.004 0.023 0.009 0.034 0.013 0.253 0.092 0.516 0.15 0.788 0.162s0.553-0.014 0.834-0.084c0.28-0.070 0.561-0.183 0.819-0.327 0.064-0.035 0.128-0.075 0.181-0.109l0.017-0.011c0.001-0 0.003-0.002 0.002-0.001 0 0-0 0-0 0.001 0.010-0.009-0.010 0.009-0.008 0.008l0.001-0.001 0.005-0.003c0.012-0.010 0.026-0.021 0.040-0.033 0.028-0.023 0.056-0.049 0.084-0.075 0.114-0.105 0.225-0.219 0.328-0.338 0.209-0.238 0.393-0.497 0.532-0.772 0.14-0.274 0.235-0.565 0.257-0.864s-0.032-0.605-0.163-0.897c-0.065-0.146-0.148-0.288-0.245-0.424l-0.075-0.1-0.080-0.099-0.083-0.095-0.092-0.097c-0.049-0.053-0.047-0.135 0.005-0.185 0.046-0.043 0.113-0.047 0.163-0.014l0.111 0.075 0.114 0.084c0.037 0.029 0.073 0.058 0.109 0.087l0.106 0.093c0.139 0.128 0.269 0.27 0.383 0.429 0.233 0.314 0.388 0.706 0.436 1.115 0.050 0.409-0.002 0.824-0.114 1.209-0.115 0.386-0.285 0.746-0.488 1.083-0.1 0.165-0.209 0.324-0.328 0.48 0.039 0.009 0.078 0.019 0.117 0.029 0.476 0.124 0.945 0.323 1.378 0.648 0.216 0.163 0.421 0.363 0.593 0.609s0.303 0.548 0.35 0.869c0.049 0.322 0.005 0.645-0.087 0.92z"></path>
</svg>
