<!-- Generated by IcoMoon.io -->
<svg version="1.1" xmlns="http://www.w3.org/2000/svg" width="32" height="32" viewBox="0 0 32 32">
<title>laravel</title>
<path d="M31.877 15.281c-0.212-0.238-3.141-3.905-3.657-4.527s-0.768-0.51-1.085-0.463c-0.318 0.046-4.024 0.668-4.454 0.741s-0.702 0.245-0.437 0.616c0.235 0.33 2.672 3.784 3.209 4.545l-9.687 2.321-7.704-12.88c-0.307-0.455-0.37-0.614-1.068-0.582s-6.043 0.476-6.424 0.508c-0.381 0.032-0.799 0.201-0.418 1.1s6.452 13.981 6.621 14.362 0.609 0.998 1.639 0.751c1.055-0.253 4.715-1.209 6.715-1.732 1.057 1.913 3.212 5.795 3.61 6.351 0.532 0.743 0.898 0.62 1.715 0.372 0.638-0.193 9.98-3.553 10.4-3.726s0.681-0.297 0.396-0.718c-0.209-0.309-2.674-3.611-3.965-5.338 0.884-0.235 4.028-1.072 4.363-1.163 0.391-0.106 0.444-0.298 0.232-0.536zM14.266 18.882c-0.116 0.025-5.541 1.323-5.831 1.389s-0.29 0.033-0.323-0.066c-0.033-0.099-6.451-13.333-6.54-13.498s-0.085-0.296 0-0.296c0.084 0 5.124-0.45 5.302-0.46s0.16 0.028 0.225 0.141c0 0 7.108 12.269 7.232 12.485s0.050 0.281-0.066 0.306zM29.564 21.749c0.087 0.136 0.173 0.223-0.099 0.322s-9.183 3.106-9.356 3.18c-0.173 0.074-0.309 0.099-0.532-0.223s-3.122-5.339-3.122-5.339l9.445-2.458c0.235-0.074 0.309-0.124 0.458 0.111s3.119 4.27 3.205 4.406zM30.17 15.043c-0.212 0.046-3.68 0.907-3.68 0.907l-2.837-3.892c-0.079-0.112-0.145-0.225 0.053-0.252s3.422-0.609 3.567-0.642c0.145-0.033 0.271-0.073 0.45 0.172s2.631 3.349 2.724 3.468c0.093 0.119-0.066 0.192-0.278 0.238z"></path>
</svg>
