<!-- Generated by IcoMoon.io -->
<svg version="1.1" xmlns="http://www.w3.org/2000/svg" width="28" height="32" viewBox="0 0 28 32">
<title>lastfm-sp</title>
<path d="M25 2h-22c-1.656 0-3 1.344-3 3v22c0 1.656 1.344 3 3 3h22c1.656 0 3-1.344 3-3v-22c0-1.656-1.344-3-3-3zM19.238 21.556c-3.963 0-5.338-1.788-6.069-4.006-1.019-3.188-1.344-5.269-3.938-5.269-1.4 0-2.819 1.006-2.819 3.825 0 2.2 1.125 3.575 2.706 3.575 1.787 0 2.975-1.331 2.975-1.331l0.731 1.994s-1.238 1.212-3.825 1.212c-3.206 0-4.994-1.881-4.994-5.363 0-3.619 1.787-5.75 5.156-5.75 4.594 0 5.050 2.588 6.3 6.369 0.55 1.675 1.512 2.887 3.825 2.887 1.556 0 2.381-0.344 2.381-1.194 0-1.244-1.363-1.375-3.119-1.788-1.9-0.456-2.656-1.444-2.656-3 0-2.5 2.019-3.275 4.075-3.275 2.337 0 3.756 0.85 3.938 2.912l-2.294 0.275c-0.094-0.988-0.688-1.4-1.788-1.4-1.006 0-1.625 0.456-1.625 1.238 0 0.688 0.3 1.1 1.306 1.331 2.044 0.444 4.488 0.75 4.488 3.594 0.006 2.294-1.919 3.163-4.756 3.163z"></path>
</svg>
