<!-- Generated by IcoMoon.io -->
<svg version="1.1" xmlns="http://www.w3.org/2000/svg" width="32" height="32" viewBox="0 0 32 32">
<title>latex</title>
<path fill="#000" d="M0 0h32v32h-32v-32z"></path>
<path fill="#fff" d="M8.403 16.902l0.204 0.044-0.716 2.271h-6.48v-0.228h0.316c0.354 0 0.607-0.116 0.758-0.345 0.087-0.133 0.128-0.438 0.128-0.914v-5.401c0-0.522-0.057-0.849-0.173-0.979-0.16-0.181-0.398-0.272-0.714-0.272h-0.316v-0.23h3.79v0.23c-0.444-0.004-0.756 0.036-0.935 0.122s-0.301 0.196-0.367 0.329c-0.065 0.13-0.099 0.446-0.099 0.944v5.258c0 0.341 0.034 0.575 0.099 0.704 0.048 0.087 0.124 0.149 0.228 0.192 0.103 0.040 0.423 0.061 0.963 0.061h0.611c0.642 0 1.093-0.046 1.352-0.141s0.495-0.263 0.71-0.503c0.213-0.24 0.428-0.621 0.64-1.139z"></path>
<path fill="#fff" d="M9.401 15.331h-2.522l-0.441 1.028c-0.11 0.253-0.164 0.441-0.164 0.567 0 0.099 0.047 0.185 0.141 0.261 0.095 0.076 0.298 0.125 0.613 0.148v0.177h-2.052v-0.177c0.272-0.049 0.448-0.111 0.528-0.188 0.164-0.153 0.344-0.466 0.543-0.936l2.292-5.361h0.167l2.268 5.418c0.182 0.436 0.348 0.718 0.497 0.848s0.357 0.203 0.623 0.219v0.177h-2.571v-0.177c0.259-0.013 0.435-0.057 0.526-0.131 0.092-0.072 0.138-0.163 0.138-0.269 0-0.141-0.066-0.362-0.194-0.667l-0.394-0.936zM9.267 14.975l-1.105-2.632-1.133 2.632h2.239z"></path>
<path fill="#fff" d="M17.345 10.792l0.093 1.979h-0.238c-0.045-0.348-0.106-0.597-0.187-0.747-0.128-0.24-0.299-0.416-0.512-0.531-0.214-0.115-0.495-0.172-0.843-0.172h-1.189v6.447c0 0.518 0.057 0.841 0.168 0.971 0.157 0.174 0.401 0.261 0.728 0.261h0.293v0.229h-3.578v-0.229h0.3c0.357 0 0.609-0.108 0.758-0.325 0.091-0.132 0.138-0.435 0.138-0.907v-6.447h-1.015c-0.393 0-0.673 0.030-0.839 0.087-0.216 0.079-0.401 0.232-0.554 0.454-0.153 0.225-0.244 0.527-0.274 0.909h-0.236l0.1-1.979h6.886z"></path>
<path fill="#fff" d="M18.369 13.559v3.197h1.778c0.462 0 0.77-0.069 0.924-0.208 0.208-0.183 0.322-0.505 0.346-0.967h0.22v2.816h-0.22c-0.055-0.393-0.112-0.646-0.167-0.758-0.071-0.138-0.189-0.248-0.352-0.328s-0.413-0.12-0.752-0.12h-1.778v2.668c0 0.358 0.017 0.577 0.047 0.654 0.032 0.078 0.087 0.138 0.167 0.185 0.080 0.045 0.232 0.067 0.454 0.067h1.373c0.456 0 0.79-0.031 0.996-0.096 0.208-0.063 0.405-0.187 0.597-0.375 0.246-0.246 0.499-0.619 0.757-1.116h0.238l-0.696 2.029h-6.235v-0.22h0.287c0.199-0 0.385-0.052 0.547-0.141l-0.006 0.003c0.128-0.063 0.214-0.159 0.261-0.285 0.045-0.128 0.067-0.389 0.067-0.782v-5.256c0-0.513-0.051-0.829-0.155-0.949-0.143-0.159-0.381-0.238-0.715-0.238h-0.287v-0.222h6.235l0.089 1.772h-0.234c-0.084-0.425-0.175-0.717-0.277-0.876s-0.251-0.281-0.45-0.365c-0.159-0.059-0.44-0.089-0.841-0.089h-2.22z"></path>
<path fill="#fff" d="M26.764 14.561l1.798 2.679c0.497 0.742 0.866 1.21 1.109 1.406 0.24 0.196 0.546 0.303 0.917 0.325v0.228h-3.594v-0.228c0.238-0.004 0.415-0.030 0.531-0.076 0.087-0.037 0.159-0.095 0.212-0.167l0.001-0.001c0.055-0.076 0.082-0.154 0.082-0.232-0.001-0.103-0.021-0.2-0.057-0.29l0.002 0.005c-0.030-0.070-0.143-0.251-0.339-0.544l-1.421-2.148-1.754 2.247c-0.185 0.24-0.297 0.398-0.333 0.479-0.038 0.080-0.057 0.164-0.057 0.251 0 0.133 0.057 0.241 0.167 0.327 0.112 0.087 0.325 0.137 0.637 0.15v0.228h-2.97v-0.228c0.211-0.021 0.39-0.066 0.544-0.131 0.278-0.119 0.517-0.264 0.734-0.437l-0.006 0.005c0.232-0.181 0.495-0.46 0.791-0.835l1.978-2.494-1.649-2.416c-0.449-0.654-0.83-1.084-1.143-1.286-0.314-0.205-0.674-0.312-1.081-0.325v-0.23h3.873v0.23c-0.329 0.013-0.554 0.065-0.677 0.16-0.12 0.095-0.181 0.2-0.181 0.314 0 0.154 0.099 0.375 0.295 0.668l1.286 1.921 1.488-1.885c0.173-0.221 0.278-0.373 0.318-0.455 0.038-0.084 0.059-0.169 0.059-0.255s-0.025-0.162-0.076-0.228c-0.057-0.083-0.137-0.146-0.231-0.18l-0.003-0.001c-0.095-0.036-0.291-0.055-0.586-0.059v-0.23h2.97v0.23c-0.234 0.013-0.426 0.048-0.575 0.11-0.221 0.095-0.426 0.223-0.612 0.384s-0.447 0.458-0.784 0.89l-1.661 2.125z"></path>
</svg>
