<!-- Generated by IcoMoon.io -->
<svg version="1.1" xmlns="http://www.w3.org/2000/svg" width="32" height="32" viewBox="0 0 32 32">
<title>latex-sp</title>
<path d="M9.908 10.875c-0.089 1.336-0.082 1.555 0.034 1.583 0.089 0.014 0.123-0.055 0.158-0.322 0.055-0.439 0.397-0.946 0.754-1.131 0.219-0.11 0.445-0.144 1.22-0.164l0.946-0.034v3.796c0 2.302-0.027 3.892-0.069 4.043-0.11 0.391-0.343 0.562-0.822 0.596-0.349 0.027-0.411 0.048-0.411 0.158 0 0.123 0.089 0.13 1.953 0.13 1.905 0 1.953 0 1.953-0.137 0-0.123-0.048-0.137-0.411-0.137-0.356 0-0.439-0.027-0.63-0.199l-0.226-0.199-0.021-4.022-0.021-4.029 0.911 0.034c0.726 0.027 0.973 0.062 1.233 0.171 0.37 0.171 0.706 0.582 0.767 0.959 0.075 0.418 0.11 0.5 0.226 0.5 0.096 0 0.103-0.096 0.069-0.836-0.027-0.452-0.048-0.946-0.048-1.096v-0.26h-7.524l-0.041 0.596zM0 10.443c0 0.069 0.13 0.11 0.418 0.144 0.322 0.041 0.473 0.096 0.637 0.24l0.212 0.192 0.021 3.728c0.014 2.576 0 3.803-0.055 3.981-0.103 0.349-0.397 0.528-0.87 0.528-0.315 0-0.363 0.021-0.363 0.137 0 0.137 0.048 0.137 3.522 0.137 1.96 0 3.543-0.027 3.563-0.062s0.192-0.534 0.37-1.11c0.185-0.582 0.356-1.124 0.384-1.213 0.034-0.11 0.021-0.151-0.055-0.151-0.062 0-0.199 0.192-0.329 0.459-0.13 0.274-0.384 0.624-0.61 0.857-0.541 0.548-0.761 0.603-2.467 0.603-1.336 0-1.357 0-1.549-0.164l-0.192-0.164-0.021-3.385c-0.014-1.857 0-3.543 0.021-3.748 0.034-0.295 0.089-0.418 0.254-0.569 0.199-0.185 0.281-0.212 0.959-0.295 0.219-0.027 0.329-0.075 0.329-0.144 0-0.082-0.315-0.096-2.090-0.096-1.747 0-2.090 0.014-2.090 0.096zM7.517 10.566c-1.172 2.796-2.713 6.284-2.864 6.496-0.137 0.185-0.281 0.295-0.473 0.349-0.151 0.048-0.274 0.11-0.274 0.144 0 0.027 0.507 0.055 1.131 0.055 0.672 0 1.131-0.027 1.131-0.069 0-0.034-0.117-0.082-0.254-0.11-0.411-0.069-0.569-0.199-0.569-0.473 0-0.206 0.473-1.453 0.637-1.665 0.048-0.062 0.418-0.082 1.418-0.082 1.021 0 1.364 0.021 1.391 0.082 0.658 1.562 0.713 1.83 0.445 2.001-0.089 0.048-0.24 0.11-0.343 0.137-0.11 0.027-0.192 0.075-0.192 0.11 0 0.041 0.534 0.069 1.405 0.069 1.309 0 1.734-0.062 1.165-0.164-0.576-0.11-0.617-0.192-2.302-4.235-0.658-1.576-1.233-2.864-1.274-2.864-0.048 0-0.13 0.103-0.178 0.219zM8.038 13.465l0.576 1.37-1.199 0.021c-0.658 0.007-1.213 0.007-1.227-0.007s0.247-0.665 0.576-1.439c0.336-0.774 0.624-1.384 0.651-1.364 0.027 0.027 0.308 0.665 0.624 1.418zM22.407 10.443c0 0.062 0.116 0.11 0.329 0.144 0.486 0.069 1.069 0.411 1.446 0.85 0.295 0.336 2.474 3.46 2.474 3.543 0 0.014-0.596 0.781-1.329 1.699-1.323 1.665-1.692 2.035-2.337 2.357-0.151 0.075-0.377 0.158-0.493 0.185-0.13 0.021-0.226 0.089-0.226 0.144 0 0.075 0.123 0.096 0.548 0.096 0.302 0 0.548 0.021 0.548 0.048 0 0.116-0.411 0.761-0.678 1.062-0.493 0.555-0.719 0.624-2.2 0.658s-1.727-0.007-1.843-0.343c-0.048-0.13-0.075-0.877-0.075-1.919v-1.713l1.288 0.027c1.665 0.027 1.864 0.123 2.015 0.939 0.048 0.26 0.11 0.418 0.171 0.418 0.069 0 0.089-0.308 0.089-1.542 0-1.322-0.014-1.542-0.103-1.542-0.069 0-0.103 0.069-0.103 0.185 0 0.247-0.212 0.706-0.397 0.863-0.185 0.171-0.822 0.254-1.98 0.254h-0.98v-3.577l1.631 0.027c1.699 0.021 1.775 0.034 2.124 0.349 0.082 0.082 0.219 0.356 0.295 0.61 0.206 0.658 0.336 0.63 0.336-0.075 0-0.295-0.021-0.726-0.041-0.959l-0.048-0.418h-3.378c-3.337 0-3.385 0-3.385 0.137 0 0.117 0.048 0.137 0.349 0.137 0.452 0 0.726 0.164 0.815 0.48 0.075 0.267 0.082 7.126 0.007 7.394-0.069 0.26-0.37 0.439-0.795 0.473-0.308 0.027-0.377 0.055-0.377 0.158 0 0.123 0.123 0.13 3.385 0.13h3.385l0.206-0.562c0.11-0.315 0.281-0.822 0.384-1.131l0.192-0.569h0.918c0.733 0 0.918-0.021 0.918-0.096 0-0.055-0.11-0.11-0.288-0.137-0.356-0.055-0.603-0.274-0.603-0.528 0-0.11 0.123-0.349 0.322-0.617 0.445-0.61 2.008-2.597 2.042-2.597 0.062 0 1.912 2.864 1.96 3.036 0.027 0.11 0.027 0.267-0.007 0.363-0.075 0.185-0.432 0.37-0.719 0.37-0.11 0-0.171 0.041-0.171 0.103 0 0.089 0.267 0.103 1.987 0.103 1.617 0 1.987-0.021 1.987-0.089 0-0.062-0.151-0.13-0.391-0.185-0.603-0.13-1.048-0.63-2.549-2.871-1.117-1.658-1.254-1.891-1.179-2.008 0.164-0.26 2.021-2.611 2.343-2.96 0.37-0.404 0.863-0.699 1.281-0.767 0.178-0.027 0.288-0.082 0.288-0.137 0-0.082-0.295-0.096-1.645-0.096-1.418 0-1.645 0.014-1.645 0.103 0 0.069 0.069 0.103 0.233 0.103 0.548 0 0.863 0.302 0.733 0.699-0.062 0.192-1.562 2.179-1.919 2.542-0.116 0.117-0.151 0.075-0.884-1.028-0.809-1.22-1.007-1.597-0.939-1.802 0.055-0.178 0.315-0.329 0.644-0.384 0.171-0.027 0.281-0.082 0.281-0.137 0-0.082-0.37-0.096-2.124-0.096-1.768 0-2.124 0.014-2.124 0.096z"></path>
</svg>
