<!-- Generated by IcoMoon.io -->
<svg version="1.1" xmlns="http://www.w3.org/2000/svg" width="36" height="32" viewBox="0 0 36 32">
<title>leanpub</title>
<path d="M24.159 6.968l0.944 15.56-0.686-0.017c-2.265-0.052-4.477 0.549-6.416 1.75-1.939-1.201-4.152-1.75-6.416-1.75-2.848 0-5.129 0.669-7.72 1.733l1.956-16.143c1.784-0.738 3.843-1.132 5.764-1.132 2.573 0 4.615 0.823 6.416 2.659 1.733-1.767 3.688-2.608 6.159-2.659zM35.567 28c-1.595 0-2.968-0.326-4.409-0.978-2.144-0.978-4.375-1.561-6.742-1.561-2.436 0-4.683 0.806-6.416 2.539-1.733-1.733-3.98-2.539-6.416-2.539-2.367 0-4.598 0.583-6.742 1.561-1.39 0.618-2.796 0.978-4.323 0.978h-0.086l2.659-21.821c2.453-1.39 5.438-2.179 8.269-2.179 2.316 0 4.701 0.48 6.639 1.818 1.939-1.338 4.323-1.818 6.639-1.818 2.831 0 5.816 0.789 8.269 2.179l2.659 21.821zM32.856 25.204l-2.127-17.515c-1.921-0.875-4.203-1.338-6.313-1.338-2.402 0-4.649 0.755-6.416 2.419-1.767-1.664-4.014-2.419-6.416-2.419-2.11 0-4.392 0.463-6.313 1.338l-2.127 17.515c2.951-1.218 5.181-2.093 8.44-2.093 2.35 0 4.426 0.6 6.416 1.853 1.99-1.252 4.066-1.853 6.416-1.853 3.259 0 5.49 0.875 8.44 2.093z"></path>
</svg>
