<!-- Generated by IcoMoon.io -->
<svg version="1.1" xmlns="http://www.w3.org/2000/svg" width="40" height="32" viewBox="0 0 40 32">
<title>less</title>
<path d="M38.294 13.688c0-1.281 0.2-2.037 0.2-3.412 0-2.138-0.788-2.825-2.531-2.825h-1.281v1.513h0.394c0.888 0 1.081 0.294 1.081 1.381 0 1.019-0.1 2.037-0.1 3.219 0 1.512 0.494 2.1 1.475 2.331v0.1c-0.987 0.231-1.475 0.819-1.475 2.331 0 1.181 0.1 2.137 0.1 3.219 0 1.119-0.231 1.413-1.081 1.413v0.031h-0.394v1.575h1.281c1.737 0 2.531-0.688 2.531-2.825 0-1.413-0.2-2.137-0.2-3.413 0-0.688 0.425-1.413 1.706-1.475v-1.706c-1.281-0.044-1.706-0.769-1.706-1.456zM31.694 15.688c-0.988-0.394-1.906-0.625-1.906-1.281 0-0.494 0.394-0.787 1.119-0.787s1.381 0.294 2.1 0.819l1.313-1.738c-0.819-0.625-1.938-1.281-3.45-1.281-2.231 0-3.744 1.281-3.744 3.088 0 1.606 1.413 2.431 2.594 2.888 1.019 0.394 2.006 0.725 2.006 1.381 0 0.494-0.394 0.819-1.281 0.819-0.819 0-1.644-0.331-2.531-1.019l-1.313 1.906c0.988 0.819 2.494 1.381 3.744 1.381 2.625 0 4.037-1.381 4.037-3.188s-1.406-2.563-2.688-2.988zM9.262 19.4c-0.231 0-0.525-0.2-0.525-0.819v-11.137h-4.662c-1.775 0-2.563 0.688-2.563 2.825 0 1.412 0.2 2.2 0.2 3.412 0 0.688-0.425 1.412-1.706 1.475v1.706c1.281 0.031 1.706 0.756 1.706 1.444 0 1.212-0.2 1.938-0.2 3.35 0 2.137 0.788 2.825 2.531 2.825h1.281v-1.512h-0.394c-0.819 0-1.081-0.331-1.081-1.413s0.1-2.006 0.1-3.219c0-1.512-0.494-2.1-1.475-2.331v-0.1c0.987-0.231 1.475-0.819 1.475-2.331 0-1.181-0.1-2.137-0.1-3.219s0.231-1.381 1.081-1.381h0.881v9.425c0 2.006 0.688 3.319 2.694 3.319 0.625 0 1.119-0.1 1.475-0.231l-0.331-2.137c-0.194 0.050-0.287 0.050-0.387 0.050zM23.744 15.688c-1.019-0.394-1.938-0.625-1.938-1.281 0-0.494 0.394-0.787 1.119-0.787s1.381 0.294 2.1 0.819l1.313-1.738c-0.819-0.625-1.938-1.281-3.45-1.281-2.231 0-3.744 1.281-3.744 3.088 0 1.606 1.413 2.431 2.594 2.888 1.019 0.394 2.006 0.725 2.006 1.381 0 0.494-0.394 0.819-1.281 0.819-0.819 0-1.644-0.331-2.531-1.019l-1.281 1.906c0.988 0.819 2.494 1.381 3.744 1.381 2.625 0 4.037-1.381 4.037-3.188 0.006-1.806-1.406-2.563-2.688-2.988zM14.056 11.387c-2.4 0-4.694 2.006-4.631 5.156 0 3.25 2.137 5.156 4.956 5.156 1.181 0 2.494-0.425 3.512-1.119l-0.988-1.738c-0.725 0.425-1.412 0.625-2.137 0.625-1.313 0-2.331-0.625-2.594-2.137h5.95c0.031-0.231 0.1-0.688 0.1-1.212 0.038-2.662-1.413-4.731-4.169-4.731zM12.181 15.525c0.2-1.313 0.988-1.938 1.906-1.938 1.181 0 1.644 0.819 1.644 1.938h-3.55z"></path>
</svg>
