<!-- Generated by IcoMoon.io -->
<svg version="1.1" xmlns="http://www.w3.org/2000/svg" width="28" height="32" viewBox="0 0 28 32">
<title>line</title>
<path d="M17.006 12.762v4.444c0 0.113-0.087 0.2-0.2 0.2h-0.712c-0.069 0-0.131-0.038-0.162-0.081l-2.037-2.75v2.637c0 0.113-0.088 0.2-0.2 0.2h-0.713c-0.113 0-0.2-0.087-0.2-0.2v-4.444c0-0.113 0.088-0.2 0.2-0.2h0.706c0.063 0 0.131 0.031 0.162 0.088l2.037 2.75v-2.637c0-0.113 0.088-0.2 0.2-0.2h0.712c0.113-0.006 0.206 0.088 0.206 0.194zM11.881 12.563h-0.713c-0.113 0-0.2 0.088-0.2 0.2v4.444c0 0.113 0.088 0.2 0.2 0.2h0.713c0.113 0 0.2-0.087 0.2-0.2v-4.444c0-0.106-0.088-0.2-0.2-0.2zM10.162 16.288h-1.944v-3.525c0-0.113-0.088-0.2-0.2-0.2h-0.713c-0.112 0-0.2 0.088-0.2 0.2v4.444c0 0.056 0.019 0.1 0.056 0.137 0.037 0.031 0.081 0.056 0.138 0.056h2.856c0.113 0 0.2-0.087 0.2-0.2v-0.712c0-0.106-0.088-0.2-0.194-0.2zM20.756 12.563h-2.856c-0.106 0-0.2 0.088-0.2 0.2v4.444c0 0.106 0.087 0.2 0.2 0.2h2.856c0.113 0 0.2-0.087 0.2-0.2v-0.712c0-0.113-0.087-0.2-0.2-0.2h-1.944v-0.75h1.944c0.113 0 0.2-0.088 0.2-0.2v-0.719c0-0.113-0.087-0.2-0.2-0.2h-1.944v-0.75h1.944c0.113 0 0.2-0.088 0.2-0.2v-0.713c-0.006-0.106-0.094-0.2-0.2-0.2zM28 7.106v17.831c-0.006 2.8-2.3 5.069-5.106 5.063h-17.831c-2.8-0.006-5.069-2.306-5.063-5.106v-17.831c0.006-2.8 2.306-5.069 5.106-5.063h17.831c2.8 0.006 5.069 2.3 5.063 5.106zM24.15 14.769c0-4.563-4.575-8.275-10.194-8.275s-10.194 3.713-10.194 8.275c0 4.088 3.625 7.512 8.525 8.162 1.194 0.256 1.056 0.694 0.787 2.3-0.044 0.256-0.206 1.006 0.881 0.55s5.869-3.456 8.013-5.919c1.475-1.625 2.181-3.269 2.181-5.094z"></path>
</svg>
