<!-- Generated by IcoMoon.io -->
<svg version="1.1" xmlns="http://www.w3.org/2000/svg" width="28" height="32" viewBox="0 0 28 32">
<title>linode</title>
<path d="M27.337 14.144c-0.019-0.056-0.056-0.088-0.087-0.125l-4.375-2.412c-0.056-0.037-0.125-0.037-0.194 0l-3.681 2.25c-0.056 0.037-0.087 0.106-0.087 0.162l-0.056 1.963-1.5-1c-0.056-0.037-0.144-0.037-0.194 0l-2.162 1.325-0.088-2.194c0-0.056-0.037-0.125-0.088-0.144l-2.25-1.519 2.106-1.088c0.069-0.037 0.106-0.106 0.106-0.181l-0.356-8.269c0-0.056-0.056-0.125-0.106-0.163l-5.662-2.731c-0.056-0.019-0.106-0.019-0.144-0.019l-7.731 2.413c-0.088 0.038-0.144 0.125-0.125 0.231l1.712 8.319c0.056 0.213 2.125 1.713 2.413 1.931l-1.681 0.806c-0.087 0.056-0.125 0.144-0.106 0.213l1.288 6.269c0.037 0.181 1.481 1.444 1.694 1.644l-1.088 0.663c-0.056 0.038-0.106 0.125-0.088 0.194 0.088 0.444 0.963 4.856 1.056 4.944l4.069 4.319c0.037 0.038 0.088 0.038 0.144 0.056 0.037 0 0.069-0.019 0.106-0.038l5.231-4.181c0.056-0.038 0.069-0.087 0.069-0.144l-0.125-2.875 1.75 1.481c0.069 0.056 0.181 0.056 0.25 0l4.181-3.337c0.056-0.038 0.069-0.087 0.069-0.144l0.144-2.087 1.269 0.875c0.069 0.056 0.163 0.056 0.231 0l3.413-2.731c0.038-0.019 0.069-0.069 0.069-0.125 0.056-0.406 0.644-4.425 0.606-4.55zM14.537 14.444l0.25 5.787-5.662 3.825-0.875-6.038 6.287-3.575zM14.056 3.194l0.338 7.875-6.662 3.463-1.231-8.425 7.556-2.913zM2.75 10.819l-1.625-7.819 4.981 3.088 1.212 8.306-4.569-3.575zM4.662 20.056l-1.181-5.681 4.375 3.644 0.856 5.837-4.050-3.8zM6.181 27.413l-0.856-4.194 3.856 3.806 0.606 4.212-3.606-3.825zM10.213 31.444l-0.662-4.431 5.356-3.837 0.194 4.375-4.888 3.894zM15.338 24.25c0-0.212 0.056-1.431-0.125-1.569l-1.519-1.25 1.394-0.931c0.144-0.106 0.069-0.356 0.069-0.5l1.837 1.413 0.038 4.269-1.694-1.431zM21.231 22.663l-3.806 3.038-0.038-4.288 4.106-2.931-0.262 4.181zM22.962 21.056l-1.194-0.837 0.125-2.125c0.019-0.056-0.019-0.125-0.069-0.163l-2.575-1.7 0.038-1.875 4.037 2.538-0.363 4.162zM26.375 18.569l-3.019 2.394 0.356-4.069 3.194-2.287-0.531 3.963z"></path>
</svg>
