<!-- Generated by IcoMoon.io -->
<svg version="1.1" xmlns="http://www.w3.org/2000/svg" width="32" height="32" viewBox="0 0 32 32">
<title>lyft</title>
<path d="M0 5.069h4.862v13.044c0 2.069 0.938 3.3 1.7 3.813-0.794 0.694-3.2 1.306-5.013-0.175-1.063-0.875-1.55-2.331-1.55-3.688v-12.994zM30.369 15.912v-1.375h1.488v-4.8h-1.631c-0.631-2.894-3.2-5.044-6.269-5.044-3.538 0-6.419 2.875-6.419 6.419v11.2c1 0.144 2.212-0.019 3.231-0.875 1.069-0.875 1.55-2.325 1.55-3.688v-0.419h2.425v-4.8h-2.425v-1.456c0-2.162 3.262-2.162 3.262 0v4.819c0 3.537 2.875 6.419 6.419 6.419v-4.781c-0.906 0-1.631-0.731-1.631-1.619zM11.975 9.725v7.063c0 0.962-1.488 0.962-1.488 0v-7.063h-4.8v8.294c0 1.488 0.5 3.375 2.813 3.994 2.313 0.613 3.637-0.663 3.637-0.663-0.131 0.837-0.906 1.456-2.181 1.581-0.969 0.1-2.2-0.225-2.813-0.488v4.394c1.569 0.469 3.219 0.613 4.85 0.294 2.944-0.569 4.8-3.025 4.8-6.3v-11.137h-4.819v0.031z"></path>
</svg>
