<!-- Generated by IcoMoon.io -->
<svg version="1.1" xmlns="http://www.w3.org/2000/svg" width="28" height="32" viewBox="0 0 28 32">
<title>mailchimp</title>
<path d="M20.663 15.22c0.087-0.012 0.188-0.019 0.291-0.019s0.203 0.007 0.302 0.020l-0.012-0.001c0.104-0.239 0.122-0.652 0.028-1.101-0.139-0.667-0.328-1.071-0.718-1.008s-0.404 0.546-0.265 1.214c0.079 0.375 0.218 0.696 0.375 0.895zM17.316 15.75c0.279 0.125 0.45 0.204 0.517 0.133 0.118-0.121-0.218-0.587-0.758-0.818-0.222-0.095-0.481-0.15-0.752-0.15-0.437 0-0.84 0.142-1.166 0.383l0.005-0.004c-0.188 0.136-0.363 0.326-0.338 0.441 0.053 0.234 0.625-0.169 1.412-0.217 0.438-0.027 0.8 0.109 1.079 0.232zM16.753 16.071c-0.567 0.089-0.938 0.408-0.842 0.631 0.056 0.021 0.073 0.051 0.326-0.051 0.242-0.094 0.523-0.149 0.817-0.149 0.125 0 0.247 0.010 0.366 0.029l-0.013-0.002c0.183 0.021 0.269 0.032 0.309-0.031 0.091-0.139-0.357-0.5-0.962-0.428zM20.139 17.139c0.211-0.429-0.681-0.871-0.894-0.438s0.683 0.867 0.895 0.436zM21.117 15.86c-0.479-0.008-0.497 0.988-0.016 0.996s0.499-0.988 0.017-0.998zM7.443 20.791c-0.082 0.019-0.375 0.091-0.529-0.147-0.325-0.5 0.694-1.274 0.188-2.236-0.569-1.092-1.739-0.846-2.191-0.346-0.544 0.6-0.545 1.471-0.313 1.505 0.267 0.036 0.255-0.404 0.461-0.727 0.145-0.221 0.392-0.366 0.673-0.366 0.165 0 0.318 0.050 0.446 0.135l-0.003-0.002c0.724 0.474 0.086 1.11 0.143 1.789 0.087 1.043 1.151 1.023 1.349 0.563 0.010-0.018 0.017-0.040 0.017-0.064 0-0.031-0.011-0.060-0.029-0.082l0 0c0.002 0.056 0.043-0.081-0.209-0.024zM26.176 19.724c-0.209-0.733-0.161-0.576-0.424-1.282 0.153-0.229 0.956-1.5-0.192-2.703-0.65-0.682-2.119-1.034-2.569-1.159-0.094-0.712 0.291-3.669-1.345-5.188 1.299-1.347 2.11-2.831 2.108-4.103-0.004-2.447-3.009-3.188-6.714-1.654l-0.784 0.333c-0.004-0.003-1.419-1.392-1.441-1.411-4.222-3.683-17.426 10.993-13.204 14.558l0.922 0.782c-0.181 0.47-0.285 1.014-0.285 1.582 0 0.18 0.011 0.358 0.031 0.533l-0.002-0.021c0.21 2.087 2.25 3.776 4.221 3.774 3.608 8.316 16.744 8.33 20.143 0.188 0.109-0.279 0.569-1.538 0.569-2.649s-0.631-1.579-1.033-1.579zM6.426 22.734c-1.426-0.038-2.966-1.322-3.119-2.844-0.386-3.832 4.641-4.704 5.25-0.771 0.284 1.852-0.292 3.656-2.133 3.613zM5.269 15.597c-0.947 0.184-1.782 0.721-2.294 1.466-0.305-0.254-0.875-0.75-0.974-0.938-0.813-1.553 0.89-4.563 2.081-6.263 2.944-4.202 7.555-7.382 9.691-6.805 0.347 0.098 1.496 1.431 1.496 1.431s-2.134 1.184-4.113 2.834c-2.666 2.053-4.681 5.037-5.888 8.275zM20.199 21.919s-2.234 0.331-4.344-0.442c0.388-1.26 1.688 0.381 6.025-0.863 0.956-0.274 2.211-0.813 3.188-1.584 0.195 0.438 0.35 0.948 0.44 1.48l0.005 0.038c0.229-0.041 0.891-0.032 0.715 1.131-0.206 1.242-0.733 2.25-1.621 3.177-0.545 0.589-1.19 1.077-1.909 1.439l-0.038 0.017c-0.356 0.192-0.776 0.373-1.213 0.519l-0.058 0.017c-3.344 1.093-6.769-0.109-7.875-2.688-0.079-0.168-0.155-0.371-0.215-0.579l-0.007-0.029c-0.471-1.7-0.071-3.739 1.178-5.023 0.077-0.082 0.155-0.178 0.155-0.299-0.012-0.109-0.055-0.206-0.121-0.285l0.001 0.001c-0.438-0.633-1.949-1.712-1.646-3.802 0.219-1.5 1.531-2.557 2.754-2.494l0.313 0.018c0.53 0.031 0.993 0.099 1.43 0.117 0.731 0.031 1.387-0.074 2.165-0.723 0.262-0.219 0.473-0.409 0.829-0.469 0.079-0.020 0.169-0.032 0.262-0.032 0.218 0 0.422 0.064 0.592 0.175l-0.004-0.003c0.625 0.415 0.712 1.421 0.745 2.156 0.018 0.42 0.069 1.438 0.086 1.727 0.039 0.667 0.214 0.761 0.569 0.875 0.199 0.066 0.384 0.114 0.657 0.191 0.826 0.232 1.313 0.467 1.625 0.769 0.155 0.151 0.261 0.351 0.296 0.575l0.001 0.006c0.098 0.711-0.551 1.587-2.269 2.385-2.919 1.355-5.855 0.903-6.28 0.855-1.259-0.169-1.977 1.457-1.222 2.572 1.415 2.088 7.65 1.25 9.461-1.334 0.043-0.063 0.008-0.099-0.046-0.063-2.611 1.786-6.066 2.388-8.029 1.625-0.298-0.116-0.921-0.402-0.996-1.042 2.725 0.843 4.438 0.046 4.438 0.046s0.127-0.174-0.035-0.158zM10.707 9.844c1.046-1.209 2.335-2.261 3.489-2.852 0.007-0.004 0.015-0.006 0.023-0.006 0.025 0 0.046 0.020 0.046 0.046 0 0.009-0.002 0.017-0.006 0.023l0-0c-0.091 0.166-0.268 0.521-0.324 0.791-0.001 0.003-0.001 0.007-0.001 0.011 0 0.026 0.021 0.047 0.047 0.047 0.010 0 0.019-0.003 0.027-0.009l-0 0c0.718-0.489 1.967-1.014 3.063-1.081 0.001-0 0.002-0 0.003-0 0.027 0 0.048 0.022 0.048 0.048 0 0.016-0.007 0.029-0.019 0.038l-0 0c-0.182 0.141-0.341 0.301-0.477 0.478l-0.005 0.006c-0.006 0.008-0.009 0.017-0.009 0.027 0 0.026 0.020 0.046 0.046 0.047h0c0.769 0.006 1.854 0.275 2.563 0.671 0.047 0.027 0.014 0.119-0.040 0.107-4.347-0.996-7.692 1.158-8.406 1.677-0.007 0.005-0.016 0.008-0.026 0.008-0.026 0-0.047-0.021-0.047-0.047 0-0.011 0.004-0.022 0.011-0.030l-0 0z"></path>
</svg>
