<!-- Generated by IcoMoon.io -->
<svg version="1.1" xmlns="http://www.w3.org/2000/svg" width="28" height="32" viewBox="0 0 28 32">
<title>mandalorian</title>
<path d="M14.517 31.993c-0.063-0.204-0.106-0.989-0.087-1.536 0.034-0.993 0.063-1.545 0.088-1.797 0.040-0.387 0.179-1.295 0.205-1.336 0.037-0.063 0.025-1.742-0.015-2.071-0.019-0.161-0.039-0.744-0.043-1.296-0.008-1.029-0.033-1.258-0.171-1.547-0.069-0.145-0.077-0.24-0.063-0.714 0.003-0.073 0.005-0.158 0.005-0.243 0-0.194-0.010-0.386-0.028-0.575l0.002 0.024c-0.125-0.813-0.216-1.731-0.203-2.119s0.027-0.447 0.129-0.604c0.191-0.294 0.407-0.875 0.539-1.454 0.141-0.616 0.242-1.074 0.287-1.296 0.081-0.369 0.176-0.683 0.292-0.988l-0.016 0.047c0.142-0.391 0.156-0.962 0.023-0.962-0.019 0-0.086 0.076-0.151 0.169s-0.297 0.3-0.518 0.46c-0.523 0.38-0.731 0.587-0.791 0.786s-0.063 0.452-0.010 0.485c0.021 0.013 0.081 0.15 0.132 0.305 0.057 0.168 0.090 0.361 0.090 0.561 0 0.141-0.016 0.279-0.047 0.411l0.002-0.012c-0.024 0.111-0.063 0.342-0.091 0.514s-0.063 0.404-0.078 0.514c-0.012 0.1-0.047 0.191-0.098 0.269l0.001-0.002c-0.063 0.063-0.071 0.057-0.128-0.033-0.044-0.086-0.076-0.186-0.089-0.292l-0.001-0.005c-0.016-0.109-0.102-0.444-0.193-0.746-0.205-0.681-0.22-1.009-0.063-1.313 0.049-0.083 0.085-0.18 0.104-0.283l0.001-0.005c0-0.149-0.137-0.332-0.463-0.618-0.438-0.386-0.539-0.495-0.639-0.706-0.107-0.225-0.191-0.254-0.284-0.096-0.111 0.188-0.162 0.569-0.188 1.375l-0.021 0.762 0.125 0.141c0.201 0.231 0.754 1.028 0.861 1.239 0.213 0.421 0.271 0.731 0.276 1.473s0.059 1.422 0.125 1.544c0.023 0.041 0.032 0.084 0.021 0.095s0.026 0.131 0.081 0.267c0.061 0.164 0.107 0.354 0.128 0.552l0.001 0.011c0.027 0.25 0.064 0.471 0.114 0.686l-0.007-0.038c0.139 0.598 0.173 0.88 0.149 1.259-0.012 0.204-0.033 0.692-0.046 1.082-0.082 2.61-0.116 3.625-0.125 3.826-0.008 0.125-0.024 0.719-0.037 1.317-0.023 1.019-0.081 1.711-0.151 1.791-0.040 0.046-0.504-0.307-0.783-0.593-0.234-0.242-0.25-0.299-0.177-0.622 0.044-0.188 0.141-1.143 0.208-2.039 0.023-0.299 0.051-0.656 0.063-0.794 0.052-0.586 0.104-1.272 0.163-2.174 0.035-0.529 0.083-1.027 0.107-1.108s0.056-0.618 0.071-1.194l0.027-1.048-0.141-0.269c-0.107-0.205-0.304-0.434-0.826-0.959-0.375-0.379-0.74-0.769-0.807-0.866l-0.122-0.176 0.047-0.681c0.068-0.982 0.069-3.036 0-3.691l-0.056-0.544-0.205-0.283c-0.366-0.505-0.363-0.484-0.389-2.079-0.006-0.379-0.024-0.719-0.039-0.754-0.052-0.117-0.191-0.166-0.534-0.191-0.554-0.039-0.688-0.119-1.491-0.909-0.384-0.375-0.771-0.75-0.859-0.824-0.176-0.151-0.174-0.125-0.035-0.602l0.084-0.291-0.106-0.188c-0.053-0.098-0.106-0.181-0.166-0.259l0.004 0.005c-0.083-0.094-0.344-0.681-0.375-0.843-0.006-0.021-0.010-0.046-0.010-0.071 0-0.066 0.024-0.127 0.064-0.173l-0 0c0.139-0.179 0.213-0.355 0.278-0.671 0.146-0.699 0.484-1.631 0.663-1.826 0.199-0.217 0.481-0.063 0.588 0.313 0.084 0.299 0.086 0.612 0.006 1.159-0.031 0.201-0.053 0.44-0.062 0.683l-0 0.011c0 0.25 0.012 0.293 0.141 0.462 0.208 0.273 0.483 0.463 0.95 0.657 0.113 0.048 0.21 0.107 0.297 0.18l-0.002-0.002c0.698 0.67 1.164 1.011 1.434 1.053 0.324 0.050 0.5 0.284 0.625 0.837 0.082 0.353 0.25 0.696 0.341 0.696 0.079-0.016 0.149-0.047 0.21-0.088l-0.002 0.001c0.125-0.076 0.141-0.108 0.141-0.261-0.018-0.408-0.063-0.792-0.133-1.166l0.008 0.051c-0.023-0.104-0.049-0.254-0.058-0.334s-0.038-0.241-0.063-0.356c-0.159-0.697-0.228-0.966-0.256-1-0.097-0.125-0.255-0.638-0.308-0.995-0.102-0.694-0.25-0.889-0.807-1.087-0.321-0.12-0.598-0.287-0.837-0.495l0.003 0.003c-0.072-0.063-0.25-0.201-0.397-0.316s-0.276-0.221-0.287-0.235c-0.050-0.043-0.105-0.085-0.162-0.122l-0.006-0.003c-0.39-0.264-0.553-0.438-0.704-0.75l-0.152-0.313-0.027-1.625 0.432-0.409c0.247-0.234 0.53-0.459 0.662-0.527 0.207-0.106 0.278-0.118 0.711-0.125 0.533-0.012 0.633 0 0.729 0.098s0.085 0.4-0.018 0.531c-0.036 0.041-0.065 0.089-0.083 0.142l-0.001 0.003c0 0.036-0.163 0.307-0.339 0.563-0.061 0.122-0.112 0.265-0.146 0.414l-0.002 0.013c1.277 0.837 1.347 0.236 0.879 1.813l0.71 0.157c0.194-0.541 0.404-1.079 0.538-1.639 0.018-0.477-0.75-0.262-0.963-0.542-0.146-0.371 0.196-0.886 0.379-1.2 0.1-0.146 0.414-0.294 0.551-0.259 0.055 0.014 0.26-0.022 0.461-0.080 0.134-0.044 0.293-0.081 0.457-0.103l0.015-0.002c0.14-0.015 0.267-0.044 0.388-0.084l-0.013 0.004c0.228-0.069 0.281-0.073 0.397-0.025 0.104 0.037 0.227 0.067 0.354 0.084l0.009 0.001c0.14 0.019 0.266 0.061 0.381 0.122l-0.006-0.003c0.090 0.054 0.193 0.1 0.302 0.133l0.010 0.003c0.157 0.042 0.188 0.036 0.441-0.104l0.272-0.15 0.671-0.024c0.652-0.025 0.676-0.029 0.954-0.168l0.286-0.145 0.154 0.089c0.11 0.062 0.196 0.171 0.303 0.375 0.148 0.282 0.149 0.286 0.086 0.461-0.055 0.152-0.056 0.206-0.006 0.399 0.037 0.143 0.082 0.266 0.137 0.383l-0.006-0.014c0.038 0.072 0.066 0.156 0.081 0.245l0.001 0.005c0.019 0.271 0 0.331-0.151 0.433-0.136 0.092-0.438 0.494-0.438 0.584-0.017 0.072-0.040 0.134-0.069 0.193l0.002-0.005c-0.313 0.719-0.422 0.848-0.891 1.063-0.575 0.263-0.769 0.324-1.013 0.324-0.194 0-0.25 0.016-0.284 0.079-0.073 0.090-0.157 0.166-0.252 0.229l-0.004 0.003c-0.114 0.077-0.206 0.177-0.272 0.294l-0.002 0.004c-0.031 0.077-0.085 0.14-0.154 0.181l-0.002 0.001c-0.060 0.025-0.111 0.061-0.153 0.107l-0 0c-0.13 0.115-0.273 0.226-0.423 0.327l-0.015 0.010c-0.208 0.146-0.429 0.313-0.492 0.375-0.041 0.044-0.091 0.080-0.146 0.105l-0.003 0.001c-0.053 0.024-0.098 0.059-0.133 0.102l-0.001 0.001c-0.082 0.087-0.093 0.132-0.071 0.287 0.022 0.14 0.053 0.264 0.093 0.384l-0.005-0.016c0.082 0.237 0.082 0.491 0 0.661s-0.056 0.416 0.084 0.599c0.125 0.164 0.135 0.285 0.044 0.553-0.042 0.157-0.067 0.337-0.067 0.523 0 0.012 0 0.024 0 0.035l-0-0.002c0 0.305 0.014 0.393 0.091 0.524s0.114 0.155 0.203 0.145c0.125-0.014 0.144-0.066 0.294-0.758 0.136-0.625 0.232-0.745 0.86-1.068 0.184-0.094 0.466-0.25 0.625-0.34s0.424-0.231 0.586-0.307c0.381-0.169 0.7-0.417 0.948-0.725l0.004-0.005c0.444-0.549 0.625-1.014 0.803-2.081 0.024-0.182 0.087-0.346 0.181-0.487l-0.003 0.004c0.085-0.131 0.148-0.284 0.179-0.449l0.001-0.008c0.063-0.331 0.178-0.567 0.349-0.719 0.294-0.261 0.375-0.068 0.287 0.679-0.029 0.241-0.069 0.646-0.090 0.899l-0.038 0.46 0.556 0.511 0.007 0.526c0.004 0.289 0.029 0.596 0.058 0.681l0.051 0.154-0.402 0.393c-0.534 0.521-0.805 0.871-1.047 1.351-0.111 0.218-0.234 0.444-0.274 0.5-0.136 0.194-0.404 0.813-0.547 1.266l-0.143 0.451-0.438 0.406c-0.239 0.223-0.5 0.453-0.573 0.511-0.191 0.145-0.266 0.322-0.266 0.625-0 0.011-0.001 0.024-0.001 0.038 0 0.152 0.037 0.295 0.103 0.421l-0.002-0.005c0.043 0.082 0.087 0.181 0.125 0.284l0.006 0.018c0.023 0.069 0.057 0.129 0.099 0.182l-0.001-0.001c0.087 0.099 0.12 1.008 0.052 1.451-0.043 0.28-0.227 0.75-0.294 0.75-0.112 0-0.254 0.579-0.317 1.296-0.011 0.125-0.039 0.371-0.063 0.544s-0.063 0.625-0.084 1.003c-0.048 0.764-0.012 1.173 0.125 1.447 0.213 0.418 0.033 0.793-0.688 1.427l-0.25 0.218 0.004 0.324c0.004 0.198 0.029 0.389 0.075 0.572l-0.004-0.018c0.288 1 0.296 1.058 0.274 2.321-0.029 1.65-0.016 2.517 0.039 2.759 0.027 0.121 0.051 0.27 0.066 0.422l0.001 0.016c0.011 0.125 0.041 0.333 0.068 0.46 0.029 0.141 0.049 0.688 0.049 1.421v1.191l-0.113 0.164c-0.169 0.244-0.944 0.846-0.968 0.768zM16.363 29.174c-0.011-0.019-0.021-0.429-0.021-0.912 0-0.879-0.056-1.721-0.141-2.153-0.025-0.125-0.051-0.606-0.056-1.066-0.009-0.746-0.087-1.523-0.165-1.649-0.041-0.067-0.188-1.104-0.188-1.331 0-0.264 0.063-0.375 0.33-0.571s0.304-0.196 0.343-0.045c0.017 0.069 0.091 0.351 0.163 0.625 0.246 0.945 0.259 1.017 0.253 1.359-0.006 0.361-0.008 0.383-0.109 1.108-0.063 0.442-0.073 0.774-0.063 1.777 0.011 1.212-0.040 2.233-0.125 2.579-0.044 0.174-0.175 0.343-0.214 0.277zM11.925 26.825c-0.042-0.183-0.080-0.413-0.106-0.646l-0.002-0.028c-0.028-0.261-0.066-0.491-0.116-0.716l0.008 0.042c-0.030-0.118-0.053-0.256-0.062-0.398l-0-0.007c-0.019-0.199-0.057-0.466-0.083-0.593-0.063-0.299-0.209-1.209-0.214-1.317 0-0.046-0.021-0.253-0.044-0.46-0.042-0.388-0.053-1.729-0.014-1.768 0.063-0.063 0.414 0.172 0.708 0.464l0.33 0.328-0.028 0.404c-0.016 0.223-0.037 0.639-0.049 0.927s-0.031 0.617-0.042 0.732-0.038 0.585-0.059 1.045c-0.049 1.088-0.121 1.956-0.166 2-0.007 0.007-0.017 0.012-0.028 0.012-0.015 0-0.028-0.008-0.034-0.021l-0-0zM6.476 10.163c1.317 0.799 1.115 0.884 1.781 1.104 0.813 0.268 1.179 0.446 1.447 1.054-2.729 2.259-4.313 3.616-4.794 4.429-1.938 3.25-0.375 6.349 3.922 5.451-0.886 1.827-4.875 1.789-6.168-0.306-1.542-2.497-1.381-7.394 3.813-11.729zM19.651 21.351c3.541 0.43 5.145-2.359 2.909-5.577 0 0-1.679-1.834-4.017-4.25 0.188-0.966 0.593-2.008 1.911-3.364 5.575 3.969 5.75 8.851 5.779 9.335 0.269 4.415-4.919 5.699-6.581 3.857z"></path>
</svg>
