<!-- Generated by IcoMoon.io -->
<svg version="1.1" xmlns="http://www.w3.org/2000/svg" width="28" height="32" viewBox="0 0 28 32">
<title>mastodon</title>
<path d="M27.063 11.194c0-6.075-3.982-7.856-3.982-7.856-3.907-1.794-14.285-1.775-18.155 0 0 0-3.982 1.781-3.982 7.856 0 7.231-0.412 16.212 6.602 18.069 2.532 0.669 4.707 0.813 6.458 0.712 3.176-0.175 4.957-1.131 4.957-1.131l-0.106-2.306s-2.269 0.712-4.82 0.631c-2.526-0.087-5.188-0.275-5.602-3.375-0.036-0.255-0.056-0.549-0.056-0.848 0-0.007 0-0.015 0-0.022v0.001c5.352 1.306 9.916 0.569 11.172 0.419 3.508-0.419 6.563-2.581 6.952-4.556 0.613-3.113 0.563-7.594 0.563-7.594zM22.367 19.019h-2.914v-7.137c0-3.106-4-3.225-4 0.431v3.906h-2.896v-3.907c0-3.656-4-3.537-4-0.431v7.138h-2.921c0-7.631-0.325-9.244 1.151-10.938 1.619-1.806 4.989-1.925 6.489 0.381l0.725 1.219 0.725-1.219c1.507-2.319 4.883-2.175 6.489-0.381 1.482 1.706 1.15 3.313 1.15 10.938z"></path>
</svg>
