<!-- Generated by IcoMoon.io -->
<svg version="1.1" xmlns="http://www.w3.org/2000/svg" width="36" height="32" viewBox="0 0 36 32">
<title>mdb</title>
<path d="M1.086 10.026l-0.648 11.974h2.744l0.349-4.989 1.746 4.989h2.794l1.596-4.839 0.299 4.839h2.846l-0.799-11.974h-2.844l-2.544 7.333-2.646-7.333zM18.648 10.026h-2.994v11.974h2.994s5.938 0.050 5.887-5.987c-0.049-5.888-5.886-5.986-5.886-5.986zM18.573 19.179v-6.381s2.875 0.267 2.925 3.161-2.924 3.221-2.924 3.221zM33.466 14.539c0.338-0.53 0.539-1.176 0.539-1.87 0-0.185-0.014-0.367-0.042-0.544l0.003 0.020c-0.334-2.235-3.442-2.145-3.442-2.145h-3.244v11.974h2.845s5.438 0.299 5.438-3.991c0-2.696-2.095-3.442-2.095-3.442zM30.223 12.543s0.848-0.099 1 0.599c0.089 0.416-0.25 0.75-0.25 0.75h-0.75v-1.348zM30.216 19.384l0.006-1.558v-1.139h0.005s2.599-0.296 2.574 1.402c-0.021 1.603-2.584 1.296-2.584 1.296z"></path>
</svg>
