<!-- Generated by IcoMoon.io -->
<svg version="1.1" xmlns="http://www.w3.org/2000/svg" width="20" height="32" viewBox="0 0 20 32">
<title>medapps</title>
<path d="M7.394 14.9c0.219-0.781 0.431-2.1 0.825-2.1 0.519 0.113 0.6 1.463 1.162 2.287 0.287-1.469 0.331-5.319 0.881-5.419 0.563-0.044 1.231 4.156 1.375 4.844 0.619 0.256 3.056 0.412 3.056 0.412 0.119 0.456-1.5 0.475-2.5 0.488-0.287 0.925-0.338 1.731-0.713 1.75-0.294 0.012-0.512-1.8-1.094-3.1l-0.588 4.094c-0.275 0.813-0.969-1.406-1.369-2.456-0.206-0.006-3.9-0.1-2.975-0.488l1.938-0.313zM14.25 28c1.325 0 1.325-2 0-2h-8.5c-1.325 0-1.325 2 0 2h8.5zM12.75 32c1.325 0 1.325-2 0-2h-5.5c-1.325 0-1.325 2 0 2h5.5zM14.887 23.156c0.2-1.181 0.325-2.275 0.744-3.050 0.494-0.919 1.006-1.756 1.5-2.563 1.538-2.525 2.869-4.7 2.869-7.844 0-5.35-4.488-9.7-10-9.7s-10 4.35-10 9.7c0 3.137 1.331 5.319 2.869 7.844 0.494 0.806 1 1.644 1.5 2.563 0.419 0.781 0.544 1.863 0.744 3.056 0.219 1.313 2.256 0.981 2.037-0.319-0.225-1.356-0.35-2.544-0.956-3.663-2.038-3.775-4.131-5.975-4.131-9.481 0-4.244 3.563-7.7 7.937-7.7s7.938 3.456 7.938 7.7c0 3.506-2.094 5.706-4.131 9.475-0.606 1.125-0.731 2.337-0.956 3.663-0.213 1.288 1.813 1.65 2.037 0.319z"></path>
</svg>
