<!-- Generated by IcoMoon.io -->
<svg version="1.1" xmlns="http://www.w3.org/2000/svg" width="34" height="32" viewBox="0 0 34 32">
<title>medrt</title>
<path d="M7.106 16c0 7.613 5.244 13.925 12.094 15.069-1.169 0.281-2.387 0.431-3.637 0.431-8.6 0-15.563-6.938-15.563-15.5s6.963-15.5 15.556-15.5c1.256 0 2.475 0.15 3.638 0.431-6.85 1.144-12.088 7.456-12.088 15.069zM25.694 22.269c-4.856 3.462-11.225 2.969-15.025-0.913 0.344 0.881 0.794 1.731 1.356 2.531 3.85 5.512 11.4 6.831 16.856 2.938s6.756-11.519 2.906-17.038c-0.563-0.806-1.206-1.519-1.906-2.138 2.337 4.925 0.669 11.156-4.188 14.619zM12.019 7.019c-0.088 0.063-0.169 0.131-0.25 0.194 4.019-1.112 8.494 0.25 11.181 3.781 2.231 2.938 2.681 6.663 1.525 9.875 3.544-3.512 4.225-8.881 1.394-12.613-3.125-4.094-9.319-4.65-13.85-1.237zM18.5 14c-0.275 0-0.5-0.225-0.5-0.5v-2.5c0-0.275-0.225-0.5-0.5-0.5h-3c-0.275 0-0.5 0.225-0.5 0.5v2.5c0 0.275-0.225 0.5-0.5 0.5h-2.5c-0.275 0-0.5 0.225-0.5 0.5v3c0 0.275 0.225 0.5 0.5 0.5h2.5c0.275 0 0.5 0.225 0.5 0.5v2.5c0 0.275 0.225 0.5 0.5 0.5h3c0.275 0 0.5-0.225 0.5-0.5v-2.5c0-0.275 0.225-0.5 0.5-0.5h2.5c0.275 0 0.5-0.225 0.5-0.5v-3c0-0.275-0.225-0.5-0.5-0.5h-2.5z"></path>
</svg>
