<!-- Generated by IcoMoon.io -->
<svg version="1.1" xmlns="http://www.w3.org/2000/svg" width="32" height="32" viewBox="0 0 32 32">
<title>meetup</title>
<path d="M6.188 25.894c0.069 0.356-0.144 0.694-0.5 0.769-0.338 0.069-0.681-0.144-0.75-0.5-0.069-0.337 0.144-0.694 0.481-0.769s0.694 0.144 0.769 0.5zM15.131 30.356c-0.394 0.288-0.5 0.837-0.231 1.25 0.287 0.412 0.838 0.519 1.25 0.231 0.394-0.288 0.5-0.837 0.212-1.25-0.262-0.406-0.819-0.519-1.231-0.231zM9.756 1.462c0.394-0.087 0.644-0.481 0.556-0.875-0.069-0.412-0.463-0.662-0.856-0.569-0.394 0.087-0.644 0.481-0.569 0.875 0.088 0.412 0.475 0.662 0.869 0.569zM2.15 14.144c-0.625-0.431-1.481-0.269-1.913 0.375-0.431 0.625-0.269 1.5 0.356 1.931 0.625 0.444 1.481 0.288 1.912-0.356 0.431-0.65 0.269-1.506-0.356-1.95zM19.15 3.462c0.663-0.394 0.856-1.25 0.481-1.894-0.394-0.662-1.231-0.875-1.875-0.481s-0.856 1.25-0.462 1.913c0.375 0.644 1.212 0.856 1.856 0.462zM7.206 7.088c0.481-0.338 0.588-1 0.269-1.481s-0.981-0.588-1.444-0.269c-0.481 0.338-0.588 1-0.269 1.481 0.319 0.487 0.975 0.594 1.444 0.269zM30.475 16.837c-0.462 0.106-0.769 0.569-0.663 1.056 0.087 0.462 0.556 0.769 1.019 0.663 0.462-0.087 0.769-0.556 0.663-1.038-0.094-0.462-0.556-0.769-1.019-0.681zM32.956 13.287c-0.069-0.356-0.413-0.569-0.75-0.5-0.356 0.069-0.569 0.431-0.5 0.787 0.069 0.338 0.413 0.569 0.769 0.5 0.337-0.094 0.569-0.431 0.481-0.787zM27.938 8.681c-0.538 0.375-0.663 1.106-0.306 1.644s1.087 0.662 1.625 0.306c0.519-0.375 0.644-1.106 0.288-1.644-0.356-0.544-1.087-0.681-1.606-0.306zM27.544 17.394c1.644 2.694 0.944 6.25-1.644 8.069-1.087 0.769-2.319 1.106-3.556 1.069-0.75 2.944-4.337 4.038-6.569 2.038-0.069 0.056-0.162 0.106-0.231 0.181-2.444 1.694-5.769 1.087-7.463-1.394-0.606-0.894-0.912-1.913-0.944-2.931-4.088-0.681-5.625-5.875-2.569-8.731-1.769-2.931 0.037-6.713 3.338-7.181 1.569-4.138 6.725-6.1 10.225-3.388 4.212-1.394 8.519 1.837 8.181 6.319 2.569 0.787 3.3 4.181 1.231 5.95zM23.169 22.038c-0.194-1.288-2.556-0.288-2.694-1.694-0.194-2 2.731-6.319 2.5-8-0.212-1.5-1.212-1.819-2.087-1.838-0.837-0.019-1.056 0.125-1.337 0.287-0.181 0.106-0.413 0.306-0.731-0.019-0.394-0.375-0.694-0.731-1.212-0.806-0.769-0.125-1.106 0.125-1.662 0.606-0.213 0.181-0.75 0.806-1.25 0.569-0.213-0.106-0.963-0.481-1.5-0.713-1.019-0.444-2.5 0.287-3.037 1.25-0.806 1.431-2.375 7.069-2.606 7.819-0.537 1.663 0.681 3.038 2.306 2.944 0.694-0.038 1.144-0.288 1.588-1.087 0.25-0.462 2.606-6.731 2.787-7.037 0.125-0.213 0.556-0.5 0.912-0.319 0.356 0.194 0.431 0.588 0.375 0.944-0.069 0.606-1.75 4.431-1.806 4.856-0.213 1.431 1.681 1.663 2.413 0.25 0.231-0.444 2.856-5.787 3.087-6.144 0.269-0.394 0.462-0.519 0.731-0.5 0.194 0 0.519 0.056 0.444 0.681-0.087 0.588-2.194 4.519-2.431 5.481-0.288 1.288 0.413 2.587 1.556 3.163 0.712 0.356 3.906 0.981 3.656-0.694zM23.525 27.806c-0.644 0.462-0.806 1.375-0.356 2.038 0.444 0.663 1.337 0.819 2 0.375 0.663-0.462 0.819-1.375 0.375-2.038-0.462-0.663-1.356-0.844-2.019-0.375z"></path>
</svg>
