<!-- Generated by IcoMoon.io -->
<svg version="1.1" xmlns="http://www.w3.org/2000/svg" width="27" height="32" viewBox="0 0 27 32">
<title>meteor</title>
<path d="M0.178 3.028c2.109 2.34 22.895 24.372 23.125 24.506 0.613 0.364 1.745-0.613 1.477-1.285-0.115-0.288-4.966-4.89-24.046-22.818-0.69-0.652-0.939-0.825-0.556-0.403z"></path>
<path d="M16.093 14.61c7.421 8.035 8.955 9.607 9.377 9.607 0.671 0 1.227-0.614 1.093-1.189-0.077-0.269-3.969-4.007-9.549-9.166-5.196-4.794-9.53-8.763-9.626-8.801s3.816 4.257 8.705 9.549z"></path>
<path d="M15.23 8.78c8.437 9.223 10.642 11.505 11.16 11.505 0.403 0 0.537-0.096 0.576-0.479 0.038-0.403-0.786-1.247-5.561-5.676-8.226-7.613-8.245-7.632-6.175-5.35z"></path>
<path d="M10.801 19.672c8.667 9.396 8.801 9.53 9.53 9.53 0.594 0 0.767-0.096 0.901-0.422 0.077-0.23 0.115-0.576 0.077-0.748-0.077-0.287-17.967-16.97-18.906-17.622-0.23-0.153 3.547 4.008 8.398 9.261z"></path>
<path d="M4.588 16.853c0.269 0.345 2.934 3.26 5.925 6.481 4.717 5.101 5.504 5.887 5.926 5.829 0.383-0.038 0.498-0.172 0.498-0.556s-0.805-1.227-4.122-4.295c-2.263-2.090-5.158-4.755-6.424-5.925s-2.071-1.86-1.803-1.534z"></path>
</svg>
