<!-- Generated by IcoMoon.io -->
<svg version="1.1" xmlns="http://www.w3.org/2000/svg" width="28" height="32" viewBox="0 0 28 32">
<title>microblog</title>
<path d="M24.96 22.639c1.843-2.168 2.944-4.896 2.944-7.862 0-7.059-6.225-12.777-13.904-12.777s-13.904 5.718-13.904 12.777 6.225 12.777 13.904 12.777c0.007 0 0.015 0 0.023 0 1.771 0 3.47-0.308 5.046-0.873l-0.104 0.033c0.043-0.015 0.093-0.024 0.145-0.024 0.148 0 0.28 0.072 0.362 0.183l0.001 0.001c1.161 1.568 2.976 2.671 4.993 3.12 0.017 0.004 0.036 0.006 0.056 0.006 0.133 0 0.244-0.094 0.27-0.218l0-0.002c0.004-0.017 0.006-0.037 0.006-0.057 0-0.064-0.022-0.123-0.059-0.17l0 0.001c-0.705-0.908-1.131-2.064-1.131-3.319 0-1.383 0.516-2.645 1.366-3.605l-0.005 0.006zM20.595 13.275l-3.581 2.718 1.299 4.304c0.011 0.035 0.018 0.076 0.018 0.118 0 0.224-0.182 0.406-0.406 0.406-0.087 0-0.168-0.027-0.234-0.074l0.001 0.001-3.691-2.566-3.691 2.567c-0.065 0.046-0.145 0.073-0.232 0.073-0.225 0-0.407-0.182-0.407-0.407 0-0.042 0.006-0.082 0.018-0.12l-0.001 0.003 1.299-4.304-3.581-2.718c-0.098-0.075-0.161-0.192-0.161-0.324 0-0.222 0.177-0.402 0.398-0.406h0l4.492-0.094 1.479-4.245c0.057-0.16 0.207-0.273 0.384-0.273s0.327 0.113 0.383 0.27l0.001 0.003 1.479 4.245 4.493 0.094c0.223 0.002 0.403 0.183 0.403 0.406 0 0.132-0.063 0.249-0.16 0.323l-0.001 0.001z"></path>
</svg>
