<!-- Generated by IcoMoon.io -->
<svg version="1.1" xmlns="http://www.w3.org/2000/svg" width="32" height="32" viewBox="0 0 32 32">
<title>mitlicence</title>
<path fill="#211915" d="M16 0.049c-8.836-0-16 7.141-16 15.951s7.163 15.951 16 15.951 16-7.141 16-15.951v-0c0-8.809-7.163-15.951-16-15.951zM30.683 16c0 8.085-6.574 14.638-14.683 14.638s-14.683-6.554-14.683-14.638c0-8.084 6.574-14.638 14.683-14.638s14.683 6.554 14.683 14.638v0z"></path>
<path d="M5.046 22.362v-12.507h2.999l1.801 8.531 1.78-8.531h3.006v12.507h-1.862v-9.845l-1.97 9.845h-1.929l-1.963-9.845v9.845h-1.862z"></path>
<path d="M16.562 22.362v-12.507h2.004v12.507h-2.004z"></path>
<path d="M22.709 22.362v-10.391h-2.945v-2.116h7.887v2.116h-2.938v10.391h-2.004z"></path>
</svg>
