<!-- Generated by IcoMoon.io -->
<svg version="1.1" xmlns="http://www.w3.org/2000/svg" width="32" height="32" viewBox="0 0 32 32">
<title>mixer</title>
<path d="M7.161 4.754c-0.527-0.701-1.356-1.15-2.291-1.15-0.744 0-1.422 0.285-1.931 0.751l0.002-0.002c-1.099 1.011-1.188 2.72-0.297 3.923l5.736 7.688-5.771 7.759c-0.889 1.203-0.819 2.912 0.296 3.923 0.506 0.464 1.184 0.749 1.928 0.749 0.934 0 1.764-0.449 2.285-1.142l0.005-0.007 8.056-10.828c0.090-0.123 0.144-0.278 0.144-0.445s-0.054-0.322-0.145-0.447l0.002 0.002zM29.39 23.724l-5.771-7.758 5.736-7.688c0.889-1.203 0.802-2.912-0.297-3.923-0.506-0.465-1.184-0.749-1.929-0.749-0.935 0-1.764 0.449-2.285 1.142l-0.005 0.007-8 10.758c-0.090 0.123-0.144 0.278-0.144 0.445s0.054 0.322 0.145 0.447l-0.002-0.002 8.036 10.844c0.526 0.701 1.356 1.15 2.291 1.15 0.744 0 1.422-0.285 1.931-0.751l-0.002 0.002c1.115-1.011 1.185-2.72 0.296-3.923z"></path>
</svg>
