<!-- Generated by IcoMoon.io -->
<svg version="1.1" xmlns="http://www.w3.org/2000/svg" width="28" height="32" viewBox="0 0 28 32">
<title>mocha</title>
<path d="M23.239 14.881l-0.582 1.372h1.167l-0.585-1.372z"></path>
<path d="M13.397 12.962h1.013c0.053-0.006 0.1-0.028 0.137-0.061l-0 0c0.587-0.699 0.671-2.066 0.671-2.547 0-0 0-0 0-0 0-0.096-0.076-0.174-0.172-0.177h-2.279c-0.095 0-0.172 0.077-0.172 0.172v0c0.018 0.481 0.086 1.864 0.671 2.552 0.030 0.037 0.076 0.061 0.128 0.061 0.001 0 0.003-0 0.004-0h-0zM14.514 11.655c0.425-0.154 0.425-0.309 0.425-0.309-0.051 0.503-0.234 0.956-0.512 1.334l0.005-0.008c-0.023 0.024-0.056 0.039-0.092 0.039-0.004 0-0.008-0-0.012-0.001l0.001 0h-0.846c-0.035 0-0.086 0-0.104-0.038-0.203-0.269-0.352-0.59-0.428-0.939l-0.003-0.016s0.998 0.142 1.565-0.063z"></path>
<path d="M27.452 7.376l-12.392-7.145c-0.248-0.146-0.546-0.232-0.865-0.232s-0.617 0.086-0.873 0.236l0.008-0.004-12.42 7.145c-0.531 0.293-0.89 0.842-0.911 1.476l-0 0.003v14.291c0.026 0.633 0.381 1.179 0.898 1.472l0.009 0.005 12.392 7.145c0.248 0.146 0.546 0.232 0.865 0.232s0.617-0.086 0.873-0.236l-0.008 0.004 12.42-7.143c0.523-0.301 0.877-0.844 0.911-1.472l0-0.005v-14.293c-0.025-0.634-0.38-1.181-0.898-1.474l-0.009-0.005zM26.333 22.15c-0.003 0.541-0.299 1.012-0.737 1.262l-0.007 0.004-10.685 6.171c-0.211 0.129-0.466 0.206-0.739 0.206s-0.528-0.077-0.746-0.209l0.006 0.004-10.673-6.166c-0.437-0.249-0.727-0.712-0.727-1.243 0-0.008 0-0.016 0-0.025l-0 0.001v-12.339c-0-0.003-0-0.008-0-0.012 0-0.534 0.289-1 0.72-1.251l0.007-0.004 10.668-6.173c0.21-0.13 0.464-0.206 0.737-0.206s0.527 0.077 0.743 0.21l-0.006-0.003 10.688 6.166c0.446 0.251 0.742 0.721 0.742 1.26 0 0.002 0 0.004 0 0.006v-0z"></path>
<path d="M11.354 15.833c0 0.677-0.549 1.225-1.226 1.225s-1.226-0.549-1.226-1.226c0-0.677 0.549-1.226 1.226-1.226s1.226 0.549 1.226 1.226z"></path>
<path d="M25.336 8.991l-10.688-6.158c-0.138-0.083-0.305-0.134-0.483-0.137h-0.001c-0.181 0.004-0.35 0.054-0.496 0.139l0.005-0.003-10.668 6.158c-0.286 0.175-0.474 0.486-0.474 0.84 0 0.001 0 0.002 0 0.003v-0 12.331c0 0 0 0.001 0 0.002 0 0.354 0.188 0.664 0.469 0.836l0.004 0.002 10.668 6.16c0.136 0.085 0.301 0.136 0.478 0.137h0c0.178-0.003 0.344-0.053 0.485-0.139l-0.004 0.002 10.693-6.166c0.293-0.17 0.49-0.479 0.501-0.834l0-0.002v-12.331c-0.006-0.358-0.2-0.669-0.487-0.841l-0.005-0.003zM14.939 17.061c0.369-0 0.7-0.166 0.923-0.426l0.001-0.002 0.385 0.38c-0.083 0.093-0.172 0.176-0.269 0.25l-0.005 0.003c-0.090 0.072-0.191 0.135-0.3 0.186l-0.009 0.004c-0.104 0.054-0.225 0.095-0.352 0.118l-0.008 0.001c-0.118 0.023-0.253 0.037-0.392 0.037-0.025 0-0.050-0-0.075-0.001l0.004 0c-0.007 0-0.016 0-0.024 0-0.474 0-0.903-0.194-1.211-0.506l-0-0c-0.144-0.158-0.257-0.347-0.326-0.556l-0.003-0.011c-0.071-0.189-0.112-0.408-0.112-0.636 0-0.019 0-0.039 0.001-0.058l-0 0.003v-0.018c-0.001-0.022-0.001-0.047-0.001-0.072 0-0.22 0.040-0.431 0.112-0.627l-0.004 0.012c0.087-0.218 0.203-0.406 0.346-0.569l-0.002 0.002c0.155-0.16 0.342-0.288 0.551-0.373l0.011-0.004c0.21-0.086 0.454-0.137 0.709-0.137 0.003 0 0.005 0 0.008 0h-0c0.154 0.003 0.301 0.016 0.446 0.038l-0.018-0.002c0.137 0.035 0.241 0.068 0.36 0.104 0.111 0.052 0.207 0.109 0.295 0.175l-0.004-0.003c0.093 0.073 0.175 0.146 0.254 0.223l-0-0-0.395 0.413c-0.224-0.242-0.543-0.392-0.898-0.392-0.675 0-1.223 0.548-1.223 1.223s0.548 1.223 1.223 1.223c0.001 0 0.003 0 0.004 0h-0zM14.223 7.533c-0.086 0.119 0.018 0.413 0.241 0.76 0.073 0.111 0.117 0.247 0.117 0.393 0 0.264-0.142 0.494-0.354 0.618l-0.003 0.002c0-0.002 0-0.005 0-0.008 0-0.217-0.071-0.417-0.192-0.579l0.002 0.003c-0.41-0.623-0.033-0.914 0.19-1.188zM13.536 8.168c-0.068 0.068 0 0.276 0.154 0.506 0.052 0.076 0.082 0.169 0.082 0.27 0 0.176-0.094 0.33-0.235 0.415l-0.002 0.001c0-0.001 0-0.002 0-0.003 0-0.143-0.043-0.277-0.118-0.387l0.002 0.002c-0.279-0.428-0.038-0.618 0.116-0.805zM12.28 9.67h3.231c0.003-0 0.007-0 0.010-0 0.089 0 0.161 0.071 0.162 0.16v0c0 0.6-0.086 2.626-0.947 3.58-0.029 0.034-0.071 0.057-0.119 0.058h-1.451c-0.049-0.005-0.091-0.029-0.119-0.065l-0-0c-0.853-0.977-0.937-2.973-0.937-3.565 0 0 0 0 0-0 0-0.092 0.075-0.167 0.167-0.167 0.001 0 0.002 0 0.003 0h-0zM3.292 12.202h8.698s0.018 0 0.018 0.253h-8.715zM11.901 15.828v0.018c0 0.009 0 0.019 0 0.030 0 0.236-0.044 0.461-0.124 0.669l0.004-0.013c-0.089 0.221-0.214 0.409-0.37 0.567l0-0c-0.155 0.16-0.342 0.288-0.551 0.373l-0.011 0.004c-0.196 0.087-0.425 0.138-0.666 0.138-0.019 0-0.038-0-0.056-0.001l0.003 0c-0.259-0.001-0.506-0.051-0.733-0.141l0.013 0.005c-0.222-0.089-0.411-0.217-0.567-0.377l-0-0c-0.153-0.157-0.275-0.346-0.353-0.556l-0.004-0.011c-0.083-0.201-0.132-0.434-0.132-0.678 0-0.003 0-0.006 0-0.008v0-0.018c0.002-0.248 0.051-0.483 0.139-0.699l-0.005 0.013c0.090-0.221 0.216-0.409 0.372-0.567l-0 0c0.156-0.16 0.344-0.288 0.554-0.373l0.011-0.004c0.197-0.087 0.426-0.138 0.667-0.138 0.019 0 0.038 0 0.057 0.001l-0.003-0c0.26 0.001 0.508 0.051 0.735 0.141l-0.013-0.005c0.222 0.089 0.41 0.217 0.567 0.377l0 0c0.149 0.157 0.265 0.347 0.338 0.556l0.003 0.011c0.077 0.194 0.122 0.418 0.122 0.652 0 0.012-0 0.024-0 0.035l0-0.002zM5.343 16.76h-0.025l-1.013-1.636v2.395h-0.76v-3.292h0.76l1.048 1.615 1.036-1.615h0.701v3.292h-0.76v-2.413zM25.067 18.785h-21.776v-0.253h21.776zM19.75 15.494v-1.266h0.506v3.292h-0.506v-1.519h-1.772v1.519h-0.506v-3.292h0.506v1.266zM21.454 17.519l1.519-3.292h0.549l1.519 3.292h-0.636l-0.352-0.76h-1.62l-0.36 0.76zM25.067 12.455h-9.265c0-0.253 0.018-0.253 0.018-0.253h9.247z"></path>
</svg>
