<!-- Generated by IcoMoon.io -->
<svg version="1.1" xmlns="http://www.w3.org/2000/svg" width="32" height="32" viewBox="0 0 32 32">
<title>mongodb</title>
<path d="M23.133 14.192c-0.071-0.812-0.219-1.622-0.427-2.41-0.656-2.486-1.748-4.866-3.289-6.929-0.42-0.562-0.873-1.1-1.358-1.608-0.499-0.524-1.054-1.004-1.402-1.656-0.22-0.412-0.43-0.83-0.644-1.246-0.003 0.13-0.012 0.26-0.012 0.39-0-0.13 0.009-0.26 0.012-0.39-0.040-0.1-0.079-0.2-0.136-0.343-0.023 0.079-0.037 0.106-0.038 0.135-0.018 0.677-0.402 1.137-0.879 1.566-0.537 0.483-1.038 1.006-1.555 1.512 0.018 0.023 0.038 0.046 0.058 0.069-0.020-0.023-0.040-0.045-0.058-0.069-1.535 2.019-2.888 4.178-3.685 6.601-0.232 0.706-0.415 1.426-0.543 2.158-0.271 1.554-0.398 3.064-0.31 4.639 0.049 0.87 0.2 1.727 0.427 2.569 0.824 3.061 2.497 5.6 4.784 7.757 0.425 0.401 0.884 0.765 1.327 1.146 0.001-0.004 0.002-0.008 0.003-0.011-0.001 0.004-0.002 0.008-0.003 0.011 0.065 0.224 0.131 0.449 0.196 0.673 0.061 0.348 0.122 0.697 0.182 1.045 0.029 0.364 0.058 0.727 0.087 1.091-0.001 0.222-0.010 0.444 0.003 0.665 0.003 0.057 0.078 0.109 0.119 0.163 0.001-0.002 0.002-0.004 0.004-0.006-0.001 0.002-0.003 0.004-0.004 0.006 0.123 0.043 0.247 0.087 0.37 0.13 0.111 0.043 0.223 0.087 0.386 0.15-0.025-0.363-0.045-0.667-0.066-0.97-0.001-0.318-0.002-0.637-0.003-0.955-0.007 0.008-0.014 0.015-0.022 0.022 0.007-0.007 0.015-0.015 0.022-0.023 0.044-0.485 0.089-0.97 0.133-1.455 0.032-0.105 0.064-0.211 0.097-0.317 0.092-0.163 0.184-0.327 0.276-0.49 0.341-0.275 0.708-0.524 1.018-0.829 0.562-0.553 1.124-1.112 1.627-1.718 0.653-0.785 1.215-1.642 1.666-2.561 1.283-2.614 1.877-5.529 1.642-8.436-0.002-0.026-0.004-0.052-0.006-0.077z"></path>
</svg>
