<!-- Generated by IcoMoon.io -->
<svg version="1.1" xmlns="http://www.w3.org/2000/svg" width="32" height="32" viewBox="0 0 32 32">
<title>mootools</title>
<path d="M17.041 0.052c-0.279-0.074-0.573-0.093-0.789 0.107-0.262 0.242-0.046 0.51 0.048 0.757 0.397 1.039 0.79 2.080 1.205 3.112 0.413 1.028 0.041 1.777-0.92 2.112-0.954 0.333-1.861 0.166-2.237-0.974-0.32-0.969-0.588-1.955-0.911-2.922-0.105-0.315-0.015-0.842-0.544-0.83-0.476 0.011-0.704 0.394-0.83 0.819-0.329 1.111-0.621 2.235-0.987 3.333-0.593 1.776-0.582 3.472 0.040 5.289 0.893 2.612 1.035 5.34 0.708 8.108-0.359 3.044-0.998 6.038-1.443 9.064-0.314 2.138 1.313 4.006 3.419 3.974 1.849-0.028 3.352-1.479 3.394-3.351 0.039-1.763 0.050-3.528 0.002-5.291-0.144-5.216 0.364-10.173 3.558-14.677 2.229-3.143 0.088-7.619-3.713-8.629zM13.861 30.302c-1.096-0.021-1.753-0.617-1.778-1.594s0.612-1.668 1.646-1.674c0.95-0.006 1.58 0.574 1.644 1.529 0.068 1.036-0.531 1.608-1.512 1.739z"></path>
</svg>
