<!-- Generated by IcoMoon.io -->
<svg version="1.1" xmlns="http://www.w3.org/2000/svg" width="32" height="32" viewBox="0 0 32 32">
<title>mozilla</title>
<path d="M11.055 7.522c-0.448 0.525-0.899 1.047-1.003 1.75l0.1 0.119c0.301-0.362 0.748-0.664 1.163-0.872-0 0.743 0.48 1.47 1.118 1.828l0.108 0.008c-0.137-0.784-0.044-1.742 0.262-2.448 0.488-0.411 1.13-0.574 1.543-1.005-1.033-0.242-2.017-0.038-2.9 0.3l-0.39 0.318z"></path>
<path d="M15.3 9.794c-0.666 0.050-1.288 0.169-1.915 0.332 0.277 0.256 0.626 0.342 0.889 0.581-0.821 0.311-1.682 0.505-2.398 1.14l0.149 0.088c1.327-0.276 2.898-0.254 4.281 0.043l0.081-0.058-0.801-1.459 1.233-0.268c-0.655-0.612-1.404-1.214-2.264-1.475 0.128 0.356 0.491 0.712 0.745 1.075v0 0z"></path>
<path d="M20.122 11.259c0.655 0.121 1.379 0.136 2.003 0.019-1.031-0.526-2.346-0.423-3.167-1.345 0.152 0.484 0.488 1.264 1.164 1.326z"></path>
<path d="M10.325 14.969c0.256 0.824-0.608 1.826 0.085 2.58 0.588 0.686 1.309 1.256 2.002 1.759l-0.060-0.257c-0.617-0.722-1.184-1.516-1.469-2.372 0.721 0.254 1.486 0.603 2.313 0.719-0.931-1.388-2.635-2.717-1.992-4.619 0.034-0.314 0.45-0.556 0.346-0.846-0.975 0.745-1.382 1.842-1.226 3.036v0z"></path>
<path d="M31.495 12.575c-1.317-1.826-6.080-2.112-8.234-4.516 0.367-1.194-0.403-2.175-1.188-2.921-1.18-0.868-2.808-0.469-4.063-0.109-1.431-0.299-2.752-0.813-4.145-1.219-3.098-0.324-6.149 1.941-6.149 1.941-2.197 1.454-5.643 4.463-7.29 6.218 0.406 0.055 0.836-0.261 1.294-0.322l3.167-0.868c-1.315 1.131-4.082 3.121-4.884 4.69 0.987-0.356 3.063-1.552 4.095-1.65-0.901 0.827-2.78 2.396-3.369 3.394 0.071 0.035 0.022 0.12 0.033 0.183 0.775-0.445 2.657-1.608 3.511-1.686-0.879 0.95-2.494 2.773-2.85 3.997 0.764-0.521 2.683-1.575 3.522-1.898-0.191 0.482-0.616 0.842-0.891 1.324-0.38 0.668-1.282 1.427-1.315 2.22 0.669-0.648 1.498-1.217 2.332-1.674-0.372 0.803-1.054 1.466-1.242 2.421 0.546-0.551 1.582-0.837 2.287-1.089l-0.085 0.083c-0.061 0.051-0.853 0.635-1.394 1.287 0.479-0.031 0.126-0.092 0.73 0.047l-0.997 0.405c0.731 0.958 1.521 1.782 2.369 2.477-0.037-0.209-0.033-0.444-0.157-0.485l2.461-1.39c-0.838 0.142-3.125 0.847-3.263 0.731 0.501-0.563 3.101-1.307 3.593-2.29 0 0 0.080-0.035-0.175 0.061l-1.962 0.11c-0.383-1.387 1.247-2.118 0.412-3.221-1.246-1.648-2.264-3.347-2.046-5.434 0.116 0.247 0.231 0.525 0.438 0.72 0.087-0.461 0.106-0.983 0.233-1.396 0.18 0.628 0.368 1.345 1.019 1.735l0.032-0.042c-0.535-1.973-0.197-4.336 1.738-5.547-0.516 0.174-1.279 0.126-2.035 0.453 0.13-0.179 0.358-1.117 0.879-1.586 0.429-0.288 0.641-0.631 1.079-0.871 0.871-0.691 1.753-1.268 3.268-1.508 1.415-0.224 2.671 0.428 3.998 0.641-0.058 0.201-0.31 0.297-0.4 0.463-0.123 0.229-0.43 0.461-0.306 0.708l1.027-0.393c1.442-0.363 2.812-1.094 4.386-0.93l0.787 1c-1.688-1.343-3.444 0.375-5.116 0.741-0.639 0.116-1.27 0.344-1.88 0.477 0.693 0.519 1.517 0.635 2.416 0.538 0.098 0.655 0.897 1.697 1.488 1.845-0.085-0.605-0.762-1.436-0.327-2.182 0.559-0.312 1.356-1.002 1.989-0.486-0.403 0.038-0.743 0.315-1.093 0.498-0.259 0.188-0.325 0.77-0.271 0.902 0.26 0.788 1.691 1.532 4.118 1.507-0.209-0.361-1.412-1.414-1.34-1.819 2.447 2.427 6.954 2.998 7.997 4.058 0.090 0.354-0.972 1.136-0.766 1.447-0.12 0.374 0.457 1.037 1.046 1.752-0.463-2.888 1.067-0.981 0.277 1.087l-1.113-0.246c-3.609-0.253-5.017-1.488-7.862-3.349-1.057-0.701-2.247-1.707-2.972-2.29l-1.587-0.605c2.105 2.556 2.652 2.322 1.606 4.217l-0.551-0.967-0.215-1.772c-0.619 2.121-0.958 4.355 1.853 5.654l1.599 0.225c-0.743-0.612-1.407-1.204-1.242-1.923 0.873 1.685 4.919 2.518 6.631 2.991 0.285 0.108 0.581 0.277 0.773 0.487-0.45 0.406-0.712 0.345-1.311 0.559-1.305-0.445-3.089-0.802-3.679-1.652 0.327 0.471-5.229 1.125-4.156 1.217-1.576-0.074-3.152-1.093-4.259-2.351l-0.288-0.098c0.030 1.236 1.195 2.101 1.807 3.154l1.214 0.539c-0.579 0.373-1.309 0.719-1.673 1.375-0.128 0.325-0.383 0.733-0.219 1.075 0.545-0.579 1.256-0.865 1.959-1.042l-0.528 0.803c0.113 0.894-0.624 2.47-1.123 3.398-0.592 1.449-4.356 0.088-7.734-0.919 2.721 2.025 6.008 2.797 9.787 2.471l-0.407-0.884c0.887-1.749 0.415-4.552 2.733-5.761 1.57-0.835 1.747-1.291 3.557-0.951 0.977 0.184 3.118 0.923 4.144 0.691 0.929-0.538 1.393-0.782 2.195-1.404 1.008 0.178 1.332 0.071 1.698-0.479 0.188-0.513 0.639-1.871 1.050-2.758l0.030-0.48c-0.403-1.205-0.305-3.26-0.507-3.555zM20.006 9.133c-0.019 0.084-0.021 0.17-0.008 0.248-0.216-0.172-0.356-0.4-0.359-0.672 0.221-0.019 0.429 0.007 0.622 0.067-0.122 0.074-0.217 0.201-0.256 0.357zM20.734 9.702c0.1-0.075 0.176-0.187 0.211-0.325 0.016-0.066 0.022-0.131 0.015-0.196 0.176 0.152 0.331 0.331 0.47 0.522-0.224 0.042-0.466 0.040-0.697-0.001zM22.986 16.634c0.028-0.198-0.006-0.433 0.086-0.591 0.141 0.059 0.401 0.060 0.458 0.18-0.199 0.085-0.341 0.308-0.544 0.411zM24.251 17.271l0.033-0.544c0.166-0.038 0.287 0.067 0.379 0.142l-0.412 0.402zM25.225 17.709c0.037-0.081-0.023-0.641 0.088-0.635l0.328 0.194c-0.098-0.008-0.321 0.446-0.416 0.441zM26.125 18.171l0.104-0.258c-0.017-0.503-0.002-0.399 0.375-0.324-0.135 0.125-0.251 0.564-0.479 0.583zM27.309 18.509l0.028-0.785 0.379 0.088-0.407 0.698zM28.35 18.389c-0.029-0.61-0.003-0.541 0.468-0.358l-0.468 0.358zM29.466 18.77c0.014-0.214 0.077-0.459 0.009-0.662 0.128 0.009 0.277-0.032 0.386 0.059-0.030 0.244-0.283 0.394-0.394 0.603z"></path>
<path fill="#fff" d="M25.225 17.709c0.098 0.008 0.321-0.446 0.416-0.441l-0.328-0.194c-0.113-0.009-0.051 0.554-0.088 0.635z"></path>
<path d="M15.451 25.909c0.15 0.28 0.155 0.622 0.305 0.902 0.352-0.76 0.313-1.674-0.144-2.356-0.795-0.351-1.563-0.715-2.249-1.27 0.283 0.97 1.215 2.040 2.089 2.724v0z"></path>
<path d="M15.165 27.851l0.772-0.629c-0.75-0.488-2.020-1.361-2.709-2.009 0.541 1.124 0.558 2.365 1.937 2.638z"></path>
</svg>
