<!-- Generated by IcoMoon.io -->
<svg version="1.1" xmlns="http://www.w3.org/2000/svg" width="32" height="32" viewBox="0 0 32 32">
<title>msql-server</title>
<path d="M19.84 14.94l-6.41 2.091-5.573 2.462-1.561 0.413c-0.396 0.376-0.816 0.758-1.263 1.148-0.492 0.428-0.954 0.816-1.306 1.096-0.392 0.312-0.974 0.89-1.271 1.26-0.443 0.551-0.789 1.139-0.938 1.591-0.268 0.813-0.137 1.637 0.379 2.397 0.66 0.971 1.973 1.957 3.501 2.629 0.779 0.343 2.094 0.784 3.080 1.033 1.643 0.415 4.819 0.866 6.568 0.933 0.355 0.014 0.827 0.012 0.849-0.002 0.038-0.025 0.311-0.541 0.627-1.186 1.075-2.196 1.852-4.254 2.271-6.012 0.253-1.065 0.451-2.484 0.579-4.167 0.036-0.471 0.049-2.044 0.021-2.578-0.045-0.87-0.121-1.578-0.244-2.274-0.018-0.102-0.025-0.192-0.015-0.2 0.018-0.015 0.078-0.035 0.866-0.264l-0.157-0.368zM18.375 15.8c0.058 0 0.213 1.486 0.253 2.428 0.008 0.2 0.007 0.328-0.005 0.328-0.038 0-0.821-0.46-1.376-0.808-0.485-0.304-1.404-0.915-1.55-1.030-0.046-0.036-0.041-0.038 0.355-0.174 0.674-0.232 2.272-0.744 2.323-0.744zM15.109 16.871c0.041-0 0.154 0.062 0.421 0.229 1 0.626 2.354 1.38 2.934 1.633 0.18 0.079 0.2 0.048-0.214 0.33-0.883 0.6-1.981 1.189-3.329 1.788-0.235 0.104-0.434 0.19-0.442 0.19s0.018-0.119 0.058-0.266c0.327-1.208 0.511-2.428 0.516-3.405 0.003-0.484 0.003-0.486 0.049-0.498 0.002-0.001 0.005-0.001 0.008-0.001v0zM14.437 17.128c0.029 0.029 0.008 1.113-0.027 1.408-0.085 0.709-0.223 1.364-0.445 2.109-0.053 0.178-0.103 0.331-0.11 0.341-0.019 0.022-0.682-0.623-0.902-0.879-0.376-0.437-0.674-0.87-0.891-1.298-0.11-0.217-0.286-0.646-0.27-0.658 0.074-0.054 2.628-1.041 2.646-1.023zM11.271 18.376c0.006 0.001 0.011 0.002 0.013 0.005 0.010 0.011 0.043 0.089 0.075 0.175 0.154 0.419 0.501 1.042 0.803 1.441 0.329 0.435 0.758 0.899 1.117 1.206 0.115 0.099 0.223 0.191 0.238 0.205 0.031 0.027 0.041 0.023-0.749 0.322-0.916 0.347-1.913 0.695-3.059 1.066-0.436 0.141-0.806 0.26-0.82 0.266-0.044 0.016-0.030-0.011 0.097-0.21 0.569-0.888 1.431-2.626 1.913-3.856 0.084-0.213 0.163-0.427 0.177-0.475 0.021-0.070 0.042-0.094 0.107-0.124 0.036-0.016 0.068-0.024 0.086-0.022zM10.3 18.776c0.013 0.011-0.233 0.53-0.474 1.002-0.469 0.914-0.986 1.814-1.672 2.913-0.118 0.19-0.228 0.363-0.242 0.384-0.024 0.035-0.034 0.024-0.109-0.126-0.164-0.327-0.302-0.739-0.373-1.122-0.071-0.379-0.059-1.036 0.026-1.444 0.063-0.303 0.060-0.296 0.203-0.369 0.616-0.316 2.622-1.256 2.642-1.238zM18.657 19.116v0.206c-0.001 1.081-0.116 2.561-0.284 3.641-0.029 0.19-0.055 0.346-0.057 0.348s-0.139-0.038-0.303-0.089c-0.727-0.226-1.516-0.563-2.227-0.953-0.471-0.258-1.153-0.676-1.133-0.695 0.005-0.005 0.206-0.111 0.446-0.236 0.951-0.494 1.86-1.026 2.65-1.554 0.296-0.198 0.74-0.519 0.838-0.605l0.070-0.061zM6.641 20.548c0.020-0.001 0.015 0.036-0.016 0.215-0.022 0.124-0.046 0.358-0.055 0.52-0.039 0.709 0.076 1.231 0.428 1.947 0.098 0.199 0.174 0.365 0.17 0.368-0.035 0.030-3.24 0.967-4.247 1.243-0.299 0.082-0.56 0.154-0.581 0.16-0.035 0.010-0.038 0.003-0.025-0.079 0.11-0.711 0.653-1.644 1.41-2.427 0.504-0.521 0.907-0.829 1.593-1.221 0.492-0.281 1.256-0.703 1.313-0.724 0.004-0.001 0.007-0.002 0.010-0.002v0zM14.2 21.902c0.003-0.004 0.122 0.060 0.264 0.142 1.035 0.599 2.479 1.16 3.711 1.442l0.111 0.025-0.153 0.085c-0.643 0.357-2.762 1.238-4.925 2.050-0.316 0.118-0.624 0.235-0.684 0.259s-0.109 0.040-0.109 0.035c0-0.005 0.089-0.176 0.199-0.381 0.607-1.136 1.214-2.516 1.525-3.473 0.032-0.098 0.060-0.18 0.063-0.183v0zM13.429 22.154c0.003 0.003-0.035 0.105-0.084 0.225-0.422 1.021-0.975 2.135-1.681 3.386-0.18 0.318-0.331 0.578-0.337 0.578s-0.152-0.087-0.324-0.193c-1.028-0.629-1.937-1.403-2.534-2.156l-0.085-0.106 0.443-0.122c1.58-0.433 2.921-0.896 4.253-1.47 0.189-0.081 0.346-0.145 0.349-0.142v0zM18.215 23.825c0.002 0 0.003 0.002 0.003 0.004 0 0.108-0.244 1.104-0.448 1.826-0.171 0.605-0.314 1.078-0.58 1.917-0.117 0.37-0.218 0.673-0.224 0.671s-0.034-0.007-0.063-0.012c-1.44-0.26-2.729-0.624-3.937-1.109-0.338-0.136-0.826-0.352-0.852-0.377-0.009-0.008 0.283-0.146 0.648-0.305 2.206-0.962 4.492-2.058 5.273-2.529 0.094-0.057 0.164-0.089 0.179-0.086zM7.167 24.203c0.012 0.011-0.605 0.894-1.467 2.101-0.299 0.419-0.651 0.913-0.782 1.098s-0.327 0.477-0.439 0.65l-0.204 0.314-0.217-0.183c-0.255-0.214-0.7-0.668-0.902-0.92-0.416-0.518-0.698-1.064-0.809-1.565-0.051-0.231-0.053-0.349-0.004-0.364 0.071-0.021 1.365-0.326 2.578-0.607 0.674-0.156 1.453-0.339 1.733-0.407s0.51-0.12 0.513-0.118zM7.787 24.44l0.156 0.174c0.698 0.778 1.408 1.358 2.274 1.858 0.153 0.088 0.269 0.165 0.259 0.171-0.036 0.022-2.995 1.074-4.364 1.551-0.772 0.269-1.406 0.488-1.409 0.488s-0.047-0.029-0.096-0.064l-0.089-0.064 0.14-0.202c0.454-0.658 1.025-1.381 2.273-2.883l0.856-1.030zM11.654 27.204c0.004-0.004 0.22 0.072 0.482 0.17 0.631 0.236 1.126 0.39 1.797 0.558 0.823 0.206 2.013 0.412 2.717 0.471 0.108 0.009 0.163 0.021 0.146 0.032-0.033 0.021-0.746 0.259-1.27 0.424-0.832 0.262-3.376 1.013-5.45 1.61-0.385 0.111-0.714 0.204-0.731 0.208-0.047 0.010-0.209-0.033-0.209-0.055 0-0.010 0.116-0.158 0.258-0.326 0.697-0.834 1.39-1.765 1.968-2.646 0.158-0.241 0.291-0.442 0.294-0.446zM10.797 27.228c0.006 0.006-0.337 0.557-0.942 1.509-0.255 0.402-0.545 0.86-0.644 1.017s-0.245 0.396-0.322 0.532l-0.142 0.247-0.072-0.019c-0.174-0.047-1.399-0.48-1.723-0.608-0.401-0.159-0.819-0.351-1.127-0.518-0.385-0.208-0.874-0.517-0.835-0.529 0.011-0.004 0.674-0.185 1.472-0.403 2.123-0.579 3.298-0.911 4.069-1.152 0.144-0.045 0.264-0.079 0.267-0.076zM16.828 28.643c0.005-0.001 0.007-0.001 0.007 0 0.020 0.050-0.766 2.228-1.053 2.918-0.064 0.155-0.088 0.192-0.122 0.191-0.081-0.004-1.221-0.163-1.911-0.268-1.208-0.183-3.231-0.537-3.741-0.653l-0.119-0.026 0.724-0.163c1.552-0.35 2.297-0.537 3.053-0.768 0.953-0.292 1.897-0.656 2.851-1.099 0.151-0.070 0.279-0.124 0.311-0.131v0z"></path>
<path d="M13.233 0c-0.107-0.013-1.828 0.607-2.933 1.056-1.498 0.608-2.661 1.192-3.378 1.695-0.267 0.187-0.603 0.525-0.652 0.654-0.018 0.048-0.027 0.105-0.027 0.163l0.651 0.614 1.544 0.493 3.678 0.657 4.204 0.723 0.043-0.361c-0.013-0.002-0.025-0.004-0.038-0.006l-0.554-0.087-0.113-0.198c-0.571-1.008-1.203-2.256-1.569-3.1-0.284-0.654-0.556-1.407-0.708-1.953-0.090-0.324-0.099-0.345-0.149-0.351v0zM13.152 0.25c0.004-0.001 0.006-0.001 0.007 0 0.003 0.004 0.023 0.139 0.043 0.3 0.083 0.677 0.234 1.334 0.471 2.041 0.179 0.533 0.181 0.501-0.031 0.442-0.494-0.138-2.709-0.518-4.312-0.74-0.258-0.036-0.473-0.068-0.477-0.071-0.020-0.020 1.156-0.636 1.677-0.879 0.669-0.311 2.489-1.069 2.622-1.093zM8.483 2.418l0.188 0.064c1.029 0.35 3.607 0.843 5.033 0.961 0.161 0.013 0.296 0.028 0.3 0.031s-0.132 0.077-0.303 0.162c-0.688 0.344-1.444 0.764-1.968 1.092-0.154 0.096-0.295 0.174-0.313 0.172s-0.12-0.018-0.226-0.036l-0.194-0.031-0.487-0.473c-0.854-0.827-1.521-1.466-1.779-1.708l-0.25-0.235zM8.293 2.57l0.681 0.851c0.375 0.468 0.751 0.932 0.834 1.032s0.148 0.185 0.144 0.188c-0.019 0.014-0.987-0.174-1.501-0.292-0.527-0.121-0.744-0.179-1.071-0.283l-0.266-0.085 0.001-0.066c0.003-0.327 0.415-0.809 1.114-1.302l0.062-0.043zM14.095 3.729c0.020 0.002 0.042 0.043 0.102 0.175 0.165 0.362 0.68 1.343 0.804 1.533 0.041 0.063 0.106 0.067-0.577-0.044-1.641-0.265-2.172-0.354-2.172-0.364 0-0.006 0.049-0.038 0.11-0.072 0.508-0.283 1.021-0.638 1.477-1.023 0.109-0.092 0.214-0.18 0.233-0.196 0.008-0.007 0.015-0.011 0.022-0.010z"></path>
<path d="M6.299 3.34c0 0-0.106 0.169-0.006 0.42 0.062 0.155 0.249 0.342 0.454 0.539 0 0 2.153 2.1 2.417 2.405 1.193 1.377 1.711 2.732 1.759 4.604 0.031 1.201-0.201 2.257-0.763 3.484-1.008 2.199-3.133 4.624-6.414 7.321l0.482-0.159c0.31-0.232 0.73-0.48 1.722-1.022 2.284-1.249 4.848-2.398 7.998-3.582 4.532-1.703 11.987-3.702 16.23-4.351l0.442-0.068-0.068-0.106c-0.388-0.603-0.653-0.975-0.971-1.369-0.93-1.151-2.057-2.089-3.437-2.862-1.896-1.062-4.356-1.887-7.466-2.505-0.588-0.117-1.875-0.338-2.923-0.501-2.219-0.346-3.65-0.579-5.231-0.855-0.567-0.098-1.413-0.24-1.975-0.362-0.293-0.063-0.849-0.195-1.281-0.344-0.357-0.141-0.86-0.276-0.967-0.686zM7.547 4.552c0.003-0.003 0.084 0.022 0.182 0.056 0.182 0.062 0.421 0.134 0.7 0.212 0.195 0.055 0.41 0.112 0.639 0.17 0.291 0.074 0.532 0.138 0.535 0.142 0.032 0.036 0.522 1.598 0.688 2.197 0.064 0.229 0.112 0.419 0.107 0.424s-0.059-0.080-0.12-0.187c-0.566-0.996-1.463-2.008-2.499-2.822-0.129-0.102-0.234-0.188-0.234-0.192zM9.933 5.211c0.025-0.002 0.132 0.016 0.261 0.045 0.825 0.183 2.299 0.467 3.247 0.627 0.158 0.027 0.288 0.055 0.288 0.064s-0.059 0.046-0.131 0.082c-0.159 0.080-0.803 0.465-1.018 0.609-0.537 0.36-1.021 0.745-1.373 1.095-0.141 0.141-0.26 0.255-0.264 0.255s-0.029-0.082-0.055-0.183c-0.176-0.674-0.54-1.67-0.866-2.371-0.052-0.113-0.095-0.212-0.095-0.221 0-0.001 0.002-0.002 0.005-0.002v0zM14.129 6.009c0.028 0.009 0.080 0.172 0.172 0.538 0.177 0.701 0.26 1.489 0.232 2.217-0.008 0.203-0.020 0.391-0.028 0.419l-0.015 0.051-0.25-0.081c-0.516-0.165-1.36-0.413-2.082-0.613-0.411-0.114-0.747-0.215-0.747-0.225 0-0.030 0.599-0.629 0.857-0.857 0.492-0.435 1.815-1.464 1.862-1.449zM14.462 6.056c0.015-0.014 2.005 0.331 2.91 0.504 0.674 0.129 1.65 0.333 1.708 0.358 0.028 0.012-0.073 0.067-0.396 0.213-1.281 0.578-2.23 1.093-3.173 1.725-0.249 0.166-0.455 0.302-0.459 0.302s-0.008-0.139-0.008-0.308c-0.001-0.92-0.184-1.848-0.521-2.633-0.036-0.084-0.063-0.157-0.060-0.16v0zM19.609 7.074c0.015 0.015-0.050 0.408-0.106 0.64-0.176 0.722-0.643 1.793-1.219 2.799-0.102 0.177-0.192 0.325-0.203 0.329s-0.142-0.066-0.291-0.153c-0.563-0.329-1.201-0.641-1.901-0.93-0.195-0.081-0.362-0.152-0.37-0.16-0.032-0.030 1.524-1.060 2.349-1.555 0.66-0.396 1.722-0.988 1.741-0.969zM19.977 7.132c0.045 0 0.927 0.241 1.384 0.377 1.137 0.34 2.448 0.819 3.299 1.205l0.354 0.16-0.249 0.058c-2.082 0.478-3.866 1.030-5.584 1.728-0.143 0.058-0.267 0.105-0.276 0.105s0.037-0.11 0.1-0.245c0.517-1.098 0.85-2.249 0.937-3.227 0.008-0.089 0.024-0.161 0.036-0.161v0zM11.203 9.149c0.014-0.014 0.686 0.144 1.052 0.246 0.551 0.155 1.723 0.547 1.724 0.577 0 0.006-0.129 0.118-0.287 0.25-0.634 0.53-1.245 1.084-1.977 1.791-0.217 0.21-0.402 0.38-0.411 0.38s-0.013-0.031-0.008-0.068c0.11-0.814 0.087-1.859-0.067-2.923-0.019-0.135-0.031-0.25-0.026-0.254zM25.35 9.162c0.010 0.010-0.312 0.513-0.512 0.8-0.292 0.419-0.716 0.968-1.681 2.182-0.507 0.637-1.079 1.359-1.271 1.603s-0.354 0.444-0.359 0.444-0.067-0.087-0.138-0.194c-0.544-0.813-1.19-1.527-1.96-2.168-0.144-0.12-0.306-0.251-0.36-0.291s-0.098-0.077-0.098-0.083c-0-0.013 0.822-0.366 1.45-0.621 1.093-0.445 2.587-0.977 3.705-1.32 0.59-0.181 1.216-0.361 1.225-0.352zM25.721 9.259c0.018-0.004 0.135 0.053 0.276 0.134 1.177 0.674 2.331 1.54 3.238 2.431 0.258 0.253 0.889 0.91 0.88 0.915-0.002 0.001-0.22 0.019-0.485 0.039-2.040 0.153-4.648 0.587-7.16 1.191-0.171 0.041-0.318 0.075-0.327 0.075s0.177-0.187 0.415-0.416c1.475-1.418 2.148-2.313 2.939-3.912 0.118-0.238 0.218-0.444 0.222-0.456 0-0.001 0.001-0.001 0.002-0.001v0zM14.938 10.364c0.067 0.015 0.696 0.308 1.171 0.545 0.434 0.217 1.092 0.567 1.124 0.598 0.004 0.004-0.227 0.125-0.515 0.269-0.91 0.455-1.69 0.886-2.504 1.383-0.232 0.142-0.427 0.259-0.433 0.259-0.020 0-0.012-0.018 0.118-0.255 0.434-0.794 0.783-1.742 0.984-2.668 0.018-0.083 0.040-0.133 0.055-0.13v0zM14.304 10.478c0.013 0.013-0.15 0.613-0.253 0.933-0.198 0.614-0.534 1.386-0.856 1.967-0.076 0.136-0.192 0.336-0.258 0.444l-0.12 0.196-0.272-0.263c-0.316-0.306-0.573-0.496-0.901-0.665-0.129-0.066-0.234-0.128-0.234-0.137-0.001-0.040 0.826-0.792 1.464-1.331 0.457-0.386 1.418-1.155 1.429-1.144zM18.155 12.061l0.236 0.153c0.542 0.352 1.184 0.825 1.673 1.233 0.274 0.228 0.807 0.706 0.916 0.821l0.059 0.062-0.392 0.11c-2.219 0.616-3.934 1.164-5.934 1.899-0.222 0.082-0.414 0.149-0.427 0.149-0.028 0-0.055 0.025 0.444-0.434 1.279-1.177 2.41-2.475 3.254-3.737l0.17-0.255zM17.143 12.315c0.012 0.012-0.656 0.946-1.052 1.474-0.475 0.631-1.32 1.687-1.901 2.374-0.243 0.287-0.451 0.525-0.462 0.529-0.012 0.004-0.020-0.066-0.020-0.177-0.001-0.586-0.149-1.213-0.412-1.744-0.111-0.224-0.129-0.278-0.107-0.299 0.091-0.083 1.503-0.888 2.393-1.365 0.611-0.328 1.55-0.804 1.561-0.793zM11.024 13.814c0.012 0 0.125 0.057 0.251 0.127 0.309 0.171 0.586 0.359 0.831 0.564 0.009 0.008-0.117 0.111-0.282 0.23-0.459 0.331-1.158 0.859-1.563 1.181-0.427 0.34-0.441 0.35-0.393 0.277 0.32-0.489 0.481-0.766 0.649-1.12 0.149-0.315 0.298-0.688 0.404-1.013 0.044-0.135 0.090-0.245 0.103-0.245zM12.654 15.094c0.022-0.003 0.053 0.038 0.185 0.234 0.276 0.413 0.488 0.963 0.542 1.411l0.011 0.096-0.662 0.256c-1.188 0.461-2.282 0.916-3.021 1.254-0.207 0.095-0.572 0.269-0.81 0.388s-0.433 0.213-0.433 0.208 0.15-0.118 0.333-0.25c1.45-1.053 2.701-2.206 3.643-3.358 0.101-0.123 0.192-0.23 0.204-0.237 0.003-0.002 0.006-0.003 0.009-0.003v0zM11.902 15.28c0.019 0.019-0.535 0.646-0.908 1.027-0.934 0.954-1.861 1.701-3.008 2.429-0.144 0.091-0.275 0.174-0.292 0.184-0.031 0.018 0.010-0.029 0.514-0.578 0.317-0.346 0.561-0.633 0.836-0.992 0.182-0.236 0.216-0.269 0.483-0.461 0.717-0.518 2.356-1.628 2.375-1.609z"></path>
</svg>
