<!-- Generated by IcoMoon.io -->
<svg version="1.1" xmlns="http://www.w3.org/2000/svg" width="32" height="32" viewBox="0 0 32 32">
<title>mysql</title>
<path d="M0.469 0.791c-0.802 0.802-0.602 1.725 0.802 3.811 0.722 1.083 1.565 2.768 1.886 3.731 0.321 1.003 0.963 2.367 1.404 3.049 0.802 1.123 0.802 1.364 0.281 3.41-0.321 1.284-0.442 2.888-0.281 3.891 0.241 1.685 1.605 4.132 2.447 4.413 0.722 0.24 1.765-1.043 1.805-2.206 0-1.003 0.040-1.043 0.481-0.321 0.762 1.244 3.169 3.891 3.37 3.69 0.080-0.080-0.441-1.123-1.203-2.286-0.722-1.203-1.565-2.768-1.886-3.49-0.441-1.203-0.602-1.284-1.123-0.722-0.321 0.321-0.722 1.243-0.843 2.086-0.321 1.926-1.043 2.166-1.605 0.522s-0.561-4.453 0-6.379c0.401-1.324 0.361-1.685-0.321-2.688-0.441-0.602-1.123-2.046-1.484-3.209-0.361-1.123-1.204-2.808-1.885-3.691-1.565-2.206-1.565-3.009 0.080-2.688 0.682 0.12 1.725 0.602 2.367 1.043 0.602 0.441 1.645 0.802 2.287 0.802 1.925 0 5.295 1.886 7.742 4.332 1.885 1.886 2.848 3.41 4.894 7.542 2.407 4.894 2.608 5.175 4.092 5.656 1.765 0.602 5.456 2.848 5.456 3.329 0 0.161-0.923 0.401-2.046 0.482-3.009 0.321-3.29 0.883-1.324 2.647 0.923 0.802 2.648 2.046 3.891 2.728l2.247 1.284-1.043-1.324c-0.602-0.722-1.845-1.845-2.808-2.447s-1.725-1.244-1.725-1.404c0-0.161 0.682-0.442 1.524-0.562 2.247-0.401 2.888-0.602 2.888-1.003 0-0.602-4.051-3.65-5.977-4.493-1.645-0.762-1.845-1.083-3.971-5.456-1.885-4.011-2.648-5.135-5.055-7.542-3.089-3.089-5.215-4.413-7.943-4.814-0.923-0.16-2.206-0.642-2.768-1.043-1.324-1.003-4.012-1.364-4.654-0.682z"></path>
</svg>
