<!-- Generated by IcoMoon.io -->
<svg version="1.1" xmlns="http://www.w3.org/2000/svg" width="31" height="32" viewBox="0 0 31 32">
<title>napster</title>
<path d="M18.644 23.35c-0.887 0.85-1.956 1.506-3.15 1.906-1.188-0.4-2.263-1.056-3.144-1.906h6.294zM21.394 10.875c1.25-1.056 2.725-1.825 4.35-2.262v10.075c0 13.712-20.5 13.6-20.5 0.019v-10.1c1.619 0.431 3.1 1.225 4.344 2.275 3.55-2.5 8.281-2.494 11.806-0.006zM8.344 7.219c4.025-3.75 10.269-3.756 14.306-0.013-0.444 0.219-0.869 0.456-1.288 0.719-3.669-1.906-8.075-1.9-11.744 0.006-0.394-0.25-0.869-0.513-1.275-0.713zM2.737 5.825v4.331c-3.65 2.281-3.65 7.569 0.006 9.894 1.65 15.319 23.856 15.019 25.475 0.094l0.019-0.106c3.669-2.269 3.681-7.606 0.012-9.887v-4.325c-1.081 0.031-2.125 0.188-3.131 0.463-5.125-5.719-14.094-5.719-19.219 0.006-1.019-0.275-2.069-0.438-3.163-0.469zM16.2 22s2.25-0.019 3.831-0.094c0.637-0.031 1.319-0.25 1.594-0.406 1.644-0.944 1.587-2.45 1.637-2.962-4.969-0.038-6.244-0.244-7.063 3.462zM7.731 18.544c0.050 0.512-0.006 2.019 1.638 2.962 0.275 0.156 0.95 0.375 1.594 0.406 1.581 0.069 3.831 0.094 3.831 0.094-0.825-3.712-2.106-3.506-7.063-3.462zM18.3 26.256c-0.2-0.331-0.431-0.456-0.431-0.456-1.55 0.456-3.262 0.431-4.744 0 0 0-0.181 0.094-0.4 0.413-0.175 0.256-0.231 0.6-0.231 0.6 1.819 1.1 4.194 1.1 6.012 0-0.006-0.006-0.019-0.25-0.206-0.556z"></path>
</svg>
