<!-- Generated by IcoMoon.io -->
<svg version="1.1" xmlns="http://www.w3.org/2000/svg" width="32" height="32" viewBox="0 0 32 32">
<title>neos</title>
<path d="M25.965 32h-5.944l-6.763-9.659v5.694l-5.402 3.965h-6.106v-30.136l2.529-1.864h6.753l7.734 11.008v-7.043l5.402-3.966h6.106v28.844zM2.423 2.204v28.796l4.5-3.305v-15.57l13.469 19.227h5.299l3.272-2.386h-4.892l-19.759-28.154zM7.582 31.367l5-3.674v-6.313l-4.985-7.15v13.809l-4.534 3.328h4.521zM5.039 0.673l19.413 27.661h5.148v-27.661h-4.984v19.848l-13.934-19.848zM19.438 11.978l4.5 6.426v-17.408l-4.5 3.313v7.67z"></path>
</svg>
