<!-- Generated by IcoMoon.io -->
<svg version="1.1" xmlns="http://www.w3.org/2000/svg" width="32" height="32" viewBox="0 0 32 32">
<title>nginx</title>
<path d="M16.064 12.635c-0.135 0.049-0.242 0.133-0.326 0.258-0.135 0.199-0.135 0.205-0.145 1.307l-0.008 1h1.338l-0.006-1.030-0.006-1.028-0.068-0.141c-0.115-0.242-0.301-0.379-0.543-0.393-0.090-0.006-0.158 0.002-0.236 0.029z"></path>
<path d="M0.798 12.715c-0.336 0.055-0.664 0.285-0.748 0.52-0.039 0.106-0.041 0.191-0.047 2.805-0.006 3.094-0.021 2.864 0.172 3.071 0.074 0.082 0.15 0.137 0.238 0.178 0.117 0.053 0.149 0.059 0.344 0.059 0.199 0 0.225-0.004 0.352-0.066 0.172-0.082 0.285-0.195 0.346-0.346l0.049-0.121 0.010-1.989 0.010-1.987 0.574 0.697c0.316 0.385 1.035 1.26 1.598 1.946 1.086 1.326 1.334 1.598 1.538 1.707 0.229 0.123 0.381 0.16 0.643 0.16 0.367 0 0.592-0.092 0.733-0.305 0.145-0.219 0.137-0.020 0.137-3.065v-2.735l-0.049-0.121c-0.066-0.162-0.203-0.299-0.363-0.361-0.094-0.037-0.162-0.047-0.315-0.049-0.225 0-0.313 0.023-0.471 0.115-0.129 0.078-0.229 0.225-0.264 0.389-0.014 0.066-0.022 0.764-0.022 2.086 0 1.094-0.006 1.987-0.014 1.985-0.014 0-2.889-3.468-3.313-3.997-0.207-0.256-0.371-0.41-0.514-0.477-0.176-0.082-0.455-0.127-0.625-0.098z"></path>
<path d="M25.851 12.729c-0.203 0.053-0.377 0.201-0.471 0.399-0.033 0.070-0.049 0.143-0.055 0.279-0.008 0.16-0.002 0.207 0.043 0.336 0.1 0.287 0.135 0.328 1.135 1.334 0.522 0.524 0.949 0.963 0.949 0.973s-0.426 0.449-0.949 0.973c-1.016 1.020-1.055 1.067-1.145 1.358-0.063 0.215-0.047 0.453 0.045 0.625 0.238 0.445 0.766 0.512 1.291 0.162 0.051-0.033 0.514-0.481 1.030-0.996l0.936-0.934 0.938 0.934c0.514 0.514 0.977 0.963 1.028 0.996 0.244 0.164 0.508 0.246 0.711 0.223 0.262-0.031 0.461-0.162 0.58-0.385 0.092-0.172 0.109-0.41 0.045-0.625-0.090-0.291-0.129-0.338-1.145-1.358-0.523-0.524-0.948-0.963-0.948-0.973s0.426-0.449 0.948-0.973c1-1.006 1.035-1.047 1.135-1.334 0.045-0.129 0.051-0.176 0.043-0.336-0.006-0.135-0.020-0.209-0.055-0.281-0.149-0.311-0.479-0.473-0.832-0.408-0.068 0.012-0.211 0.066-0.318 0.117l-0.195 0.096-1.936 1.928-0.967-0.965-0.969-0.963-0.195-0.096c-0.27-0.131-0.469-0.164-0.678-0.107z"></path>
<path d="M18.431 12.764c-0.201 0.047-0.365 0.178-0.451 0.365l-0.045 0.094v5.531l0.057 0.123c0.031 0.068 0.090 0.158 0.131 0.199 0.162 0.166 0.5 0.248 0.848 0.203 0.326-0.041 0.549-0.164 0.817-0.445 0.084-0.090 0.873-1.028 1.752-2.086l1.598-1.922 0.010 1.983 0.010 1.985 0.049 0.107c0.088 0.199 0.283 0.336 0.527 0.375 0.297 0.049 0.565-0.023 0.738-0.195 0.197-0.195 0.18 0.033 0.188-2.858 0.006-2.649 0.002-2.821-0.082-3.014-0.082-0.195-0.381-0.395-0.668-0.451-0.256-0.049-0.582 0.016-0.797 0.16-0.078 0.051-0.242 0.229-0.586 0.641-1.291 1.543-3.1 3.686-3.112 3.686-0.008 0.002-0.018-0.895-0.020-1.991-0.006-1.805-0.010-2-0.041-2.077-0.086-0.213-0.223-0.34-0.445-0.404-0.121-0.035-0.352-0.041-0.479-0.010z"></path>
<path d="M8.925 12.848c-0.055 0.096-1.629 2.999-1.68 3.1l-0.031 0.064 0.916 1.647 0.916 1.649 3.835 0.010 0.942-1.735 0.942-1.737-0.729-0.012c-1.309-0.023-3.386-0.020-3.52 0.004-0.182 0.033-0.32 0.109-0.436 0.236-0.352 0.385-0.117 0.948 0.436 1.051 0.078 0.014 0.49 0.023 1.133 0.023h1.010l-0.313 0.516-0.313 0.518-2.112 0.010-0.578-1.043c-0.316-0.574-0.576-1.055-0.576-1.069 0-0.016 0.242-0.473 0.539-1.016l0.537-0.99h2.321l0.344 0.563 0.346 0.561 0.766 0.002h0.764l-0.029-0.047c-0.016-0.025-0.346-0.574-0.733-1.219l-0.703-1.172h-3.946l-0.049 0.086z"></path>
<path d="M15.593 17.304c0.008 1.454 0.008 1.473 0.053 1.604 0.066 0.197 0.172 0.324 0.34 0.41 0.174 0.088 0.348 0.096 0.52 0.021 0.137-0.059 0.293-0.227 0.356-0.385l0.047-0.117 0.006-1.487 0.006-1.487-0.201-0.012c-0.111-0.008-0.412-0.014-0.668-0.014h-0.467l0.006 1.469z"></path>
</svg>
