<!-- Generated by IcoMoon.io -->
<svg version="1.1" xmlns="http://www.w3.org/2000/svg" width="24" height="32" viewBox="0 0 24 32">
<title>nimblr</title>
<path d="M15.412 18.706c0.973 0 1.697 0.716 1.697 1.688s-0.726 1.688-1.697 1.688c-0.981 0-1.697-0.723-1.697-1.688s0.722-1.688 1.697-1.688zM7.063 20.391c0-0.976 0.73-1.688 1.697-1.688s1.697 0.716 1.697 1.688-0.717 1.688-1.697 1.688c-0.965 0-1.697-0.707-1.697-1.688zM11.985 9.938c-2.172 0-6.394 1.236-8.282 4.25l-2.828-14.188v20.968c0 6.103 4.976 11.032 11.11 11.032s11.11-4.934 11.11-11.032-4.962-11.030-11.11-11.030zM11.985 29.195c-4.579 0-8.282-3.681-8.282-8.224s3.703-8.224 8.282-8.224 8.282 3.679 8.282 8.221-3.704 8.224-8.282 8.224z"></path>
</svg>
