<!-- Generated by IcoMoon.io -->
<svg version="1.1" xmlns="http://www.w3.org/2000/svg" width="28" height="32" viewBox="0 0 28 32">
<title>node-js</title>
<path d="M14 31.75c-0.419 0-0.844-0.113-1.213-0.325l-3.856-2.281c-0.575-0.325-0.294-0.438-0.106-0.5 0.769-0.269 0.925-0.325 1.744-0.794 0.088-0.050 0.2-0.031 0.287 0.025l2.963 1.756c0.106 0.063 0.256 0.063 0.356 0l11.544-6.663c0.106-0.063 0.175-0.188 0.175-0.313v-13.325c0-0.131-0.069-0.25-0.181-0.319l-11.537-6.656c-0.106-0.063-0.25-0.063-0.356 0l-11.531 6.662c-0.112 0.063-0.181 0.188-0.181 0.319v13.319c0 0.125 0.069 0.25 0.181 0.306l3.162 1.825c1.719 0.856 2.769-0.15 2.769-1.169v-13.15c0-0.188 0.15-0.331 0.338-0.331h1.463c0.181 0 0.338 0.144 0.338 0.331v13.156c0 2.288-1.25 3.6-3.419 3.6-0.669 0-1.194 0-2.656-0.725l-3.025-1.744c-0.75-0.431-1.212-1.238-1.212-2.106v-13.319c0-0.863 0.463-1.675 1.212-2.106l11.531-6.662c0.731-0.412 1.7-0.412 2.425 0l11.544 6.669c0.75 0.431 1.212 1.238 1.212 2.106v13.319c0 0.863-0.462 1.669-1.212 2.106l-11.544 6.662c-0.369 0.212-0.787 0.325-1.213 0.325zM23.319 18.619c0-2.494-1.688-3.156-5.231-3.625-3.588-0.475-3.95-0.719-3.95-1.556 0-0.694 0.306-1.619 2.962-1.619 2.369 0 3.244 0.512 3.606 2.113 0.031 0.15 0.169 0.262 0.325 0.262h1.5c0.094 0 0.181-0.037 0.244-0.106s0.094-0.162 0.087-0.256c-0.231-2.756-2.063-4.037-5.762-4.037-3.294 0-5.256 1.387-5.256 3.719 0 2.525 1.956 3.225 5.112 3.538 3.781 0.369 4.075 0.925 4.075 1.669 0 1.288-1.038 1.837-3.469 1.837-3.056 0-3.725-0.769-3.95-2.288-0.025-0.163-0.162-0.281-0.331-0.281h-1.494c-0.188 0-0.331 0.15-0.331 0.331 0 1.944 1.056 4.262 6.112 4.262 3.65-0.006 5.75-1.45 5.75-3.962z"></path>
</svg>
