<!-- Generated by IcoMoon.io -->
<svg version="1.1" xmlns="http://www.w3.org/2000/svg" width="32" height="32" viewBox="0 0 32 32">
<title>nodejs</title>
<path d="M5.035 16.284c0-0.098-0.051-0.187-0.136-0.236l-2.247-1.293c-0.038-0.022-0.081-0.034-0.124-0.036-0.004 0-0.020 0-0.023 0-0.043 0.002-0.086 0.013-0.124 0.036l-2.246 1.293c-0.084 0.048-0.136 0.138-0.136 0.236l0.005 3.482c0 0.048 0.025 0.093 0.068 0.117 0.042 0.025 0.093 0.025 0.135 0l1.335-0.764c0.084-0.050 0.136-0.139 0.136-0.236v-1.627c0-0.097 0.051-0.186 0.135-0.235l0.568-0.327c0.042-0.024 0.089-0.036 0.136-0.036 0.046 0 0.094 0.012 0.135 0.036l0.568 0.327c0.084 0.048 0.136 0.138 0.136 0.235v1.627c0 0.097 0.052 0.186 0.136 0.236l1.335 0.764c0.042 0.025 0.094 0.025 0.136 0 0.041-0.024 0.067-0.069 0.067-0.117l0.004-3.482z"></path>
<path d="M17.032 11.498c-0.042-0.023-0.093-0.023-0.135 0.002s-0.067 0.069-0.067 0.117v3.448c0 0.034-0.018 0.065-0.047 0.082s-0.066 0.017-0.095 0l-0.563-0.324c-0.084-0.048-0.187-0.048-0.271 0l-2.247 1.297c-0.084 0.048-0.136 0.138-0.136 0.235v2.595c0 0.097 0.052 0.186 0.136 0.235l2.247 1.298c0.084 0.049 0.187 0.049 0.271 0l2.248-1.298c0.084-0.049 0.136-0.138 0.136-0.235v-6.468c0-0.098-0.053-0.189-0.139-0.237l-1.337-0.746zM16.823 18.097c0 0.024-0.013 0.047-0.034 0.059l-0.772 0.445c-0.021 0.012-0.047 0.012-0.068 0l-0.772-0.445c-0.021-0.012-0.034-0.035-0.034-0.059v-0.891c0-0.024 0.013-0.047 0.034-0.059l0.771-0.446c0.021-0.012 0.047-0.012 0.068 0l0.772 0.446c0.021 0.012 0.034 0.035 0.034 0.059v0.891z"></path>
<path d="M25.072 17.183c0.084-0.048 0.135-0.138 0.135-0.234v-0.629c0-0.097-0.051-0.186-0.135-0.235l-2.233-1.296c-0.084-0.049-0.188-0.049-0.272-0l-2.247 1.297c-0.084 0.049-0.136 0.138-0.136 0.235v2.594c0 0.097 0.052 0.188 0.137 0.236l2.233 1.272c0.082 0.047 0.183 0.047 0.266 0.001l1.351-0.751c0.043-0.024 0.069-0.069 0.070-0.118s-0.026-0.094-0.068-0.119l-2.261-1.298c-0.042-0.024-0.068-0.069-0.068-0.118v-0.813c0-0.048 0.026-0.093 0.068-0.118l0.704-0.405c0.042-0.024 0.093-0.024 0.135 0l0.704 0.405c0.042 0.024 0.068 0.069 0.068 0.118v0.64c0 0.049 0.026 0.093 0.068 0.117s0.094 0.024 0.136-0l1.345-0.782z"></path>
<path d="M9.122 14.774c0.084-0.048 0.187-0.048 0.271 0l2.247 1.297c0.084 0.048 0.136 0.138 0.136 0.235v2.596c0 0.097-0.052 0.186-0.136 0.235l-2.247 1.298c-0.084 0.048-0.187 0.048-0.271 0l-2.247-1.298c-0.084-0.049-0.136-0.138-0.136-0.235v-2.596c0-0.097 0.052-0.186 0.136-0.235l2.247-1.297z"></path>
<path d="M29.436 20.471c-0.077 0-0.155-0.020-0.222-0.059l-0.708-0.419c-0.105-0.059-0.054-0.080-0.019-0.092 0.141-0.049 0.169-0.060 0.32-0.145 0.016-0.009 0.037-0.006 0.053 0.004l0.543 0.323c0.020 0.011 0.048 0.011 0.066 0l2.119-1.223c0.020-0.011 0.032-0.034 0.032-0.057v-2.446c0-0.024-0.012-0.046-0.033-0.058l-2.118-1.222c-0.020-0.011-0.046-0.011-0.065 0l-2.117 1.222c-0.020 0.012-0.034 0.035-0.034 0.058v2.446c0 0.023 0.013 0.045 0.033 0.057l0.581 0.335c0.315 0.158 0.508-0.028 0.508-0.214v-2.414c0-0.034 0.028-0.061 0.062-0.061h0.269c0.034 0 0.061 0.027 0.061 0.061v2.415c0 0.42-0.229 0.661-0.627 0.661-0.122 0-0.219 0-0.488-0.133l-0.556-0.32c-0.137-0.079-0.222-0.228-0.222-0.386v-2.446c0-0.159 0.085-0.307 0.222-0.386l2.119-1.225c0.134-0.076 0.312-0.076 0.445 0l2.119 1.225c0.137 0.079 0.223 0.227 0.223 0.386v2.446c0 0.159-0.085 0.307-0.223 0.386l-2.119 1.223c-0.068 0.039-0.144 0.059-0.223 0.059z"></path>
<path d="M30.090 18.787c-0.928 0-1.122-0.426-1.122-0.783 0-0.034 0.027-0.061 0.061-0.061h0.274c0.031 0 0.056 0.022 0.061 0.052 0.041 0.279 0.165 0.42 0.726 0.42 0.446 0 0.636-0.101 0.636-0.338 0-0.137-0.054-0.238-0.748-0.306-0.58-0.057-0.938-0.186-0.938-0.649 0-0.428 0.36-0.682 0.965-0.682 0.679 0 1.015 0.236 1.057 0.741 0.002 0.017-0.005 0.034-0.016 0.047s-0.028 0.020-0.045 0.020h-0.275c-0.028 0-0.053-0.020-0.059-0.048-0.066-0.294-0.226-0.387-0.662-0.387-0.487 0-0.544 0.17-0.544 0.297 0 0.154 0.067 0.199 0.725 0.286 0.651 0.086 0.961 0.208 0.961 0.666 0 0.462-0.385 0.726-1.056 0.726z"></path>
<path d="M22.67 17.061c0.016-0.009 0.036-0.009 0.052 0l0.431 0.249c0.016 0.009 0.026 0.027 0.026 0.045v0.498c0 0.019-0.010 0.036-0.026 0.045l-0.431 0.249c-0.016 0.009-0.036 0.009-0.052 0l-0.431-0.249c-0.016-0.009-0.026-0.026-0.026-0.045v-0.498c0-0.019 0.010-0.036 0.026-0.045l0.431-0.249z"></path>
</svg>
