<!-- Generated by IcoMoon.io -->
<svg version="1.1" xmlns="http://www.w3.org/2000/svg" width="40" height="32" viewBox="0 0 40 32">
<title>ns8</title>
<path d="M11.694 9.994l-2.138 7.106-3.406-7.106h-3.087l-3.063 10.006h2.806l1.944-6.656 3.162 6.656h3.556l3.031-10.006h-2.806zM39.975 9.938c-0.181-1.125-1.494-1.756-2.631-1.956-2.788-0.487-6.369 1.019-5.531 3.675v0.006c-2.738 0.544-4.644 1.675-5.887 3.013-0.188-0.613-0.85-1.037-2.125-1.037h-5.475c-0.581 0-0.806-0.144-0.719-0.463 0.1-0.344 0.119-0.425 0.231-0.762 0.131-0.4 0.488-0.444 0.831-0.444h8.344l0.606-1.969c-8.731 0-9.031-0.031-10.006 0.075-0.769 0.081-1.469 0.3-1.912 0.938-0.425 0.619-0.9 2.225-1.1 2.944-0.338 1.213-0.037 1.787 2.050 1.787h5.456c0.488 0 0.55 0.169 0.481 0.412-0.069 0.275-0.175 0.625-0.281 0.913-0.1 0.262-0.294 0.462-0.863 0.462h-7.925l-0.725 2.469c8.744 0 9.081-0.038 10.056-0.144 0.413-0.044 0.813-0.131 1.156-0.306 0.012 0.231 0.031 0.456 0.075 0.675 0.337 1.906 1.712 3.269 3.55 3.719 3.038 0.744 6.794-1.050 8.444-4.25 1.169-2.262 0.881-4.762-0.212-6.594h0.006c1.85-0.369 4.394-1.375 4.106-3.162zM33.169 16.481c-0.369 1.844-2.288 2.988-3.85 2.744-1.931-0.3-2.406-2.469-0.881-4.050 1.012-1.050 2.825-1.5 4.281-1.681 0.419 0.881 0.644 2 0.45 2.987zM34.531 11.287c-0.263-0.375-0.612-1.156-0.156-1.644 0.419-0.45 1.306-0.631 1.987-0.481 0.956 0.213 1.231 0.994 0.306 1.525-0.669 0.381-1.475 0.506-2.138 0.6z"></path>
</svg>
