<!-- Generated by IcoMoon.io -->
<svg version="1.1" xmlns="http://www.w3.org/2000/svg" width="25" height="32" viewBox="0 0 25 32">
<title>nutritionix</title>
<path d="M5.5 0.506s8.338-0.512 7.563 6.525c0 0 1.194-4.681 6.438-2.537 0 0-1.106 4.625-5.5 3.5 0 0 0.912-3.412 4.131-3.537 0 0-2.494-0.644-5.131 3.050 0 0-1.238-5.906-5.85-6.231 0 0 4.7 1.212 4.85 6.719 0 0.006-6.65 0.438-6.5-7.487zM25 20.231c0 3.031-0.606 5.956-2 8.269-2.637 1.931-6.563 3-10.5 3-3.931 0-7.862-1.069-10.5-3-1.394-2.313-2-5.238-2-8.269 0-3.025 1.106-5.919 2.5-8.231 2.638-1.931 6.069-3.037 10-3.037 3.938 0 7.363 1.1 10 3.037 1.394 2.313 2.5 5.206 2.5 8.231zM7.5 26.75c0-0.969-0.781-1.75-1.75-1.75s-1.75 0.781-1.75 1.75 0.781 1.75 1.75 1.75 1.75-0.781 1.75-1.75zM7.5 22.613c0-0.969-0.781-1.75-1.75-1.75s-1.75 0.781-1.75 1.75 0.781 1.75 1.75 1.75 1.75-0.781 1.75-1.75zM7.5 18.475c0-0.969-0.781-1.75-1.75-1.75s-1.75 0.781-1.75 1.75 0.781 1.75 1.75 1.75 1.75-0.781 1.75-1.75zM12 26.75c0-0.969-0.781-1.75-1.75-1.75s-1.75 0.781-1.75 1.75 0.781 1.75 1.75 1.75 1.75-0.781 1.75-1.75zM12 22.613c0-0.969-0.781-1.75-1.75-1.75s-1.75 0.781-1.75 1.75 0.781 1.75 1.75 1.75 1.75-0.781 1.75-1.75zM12 18.475c0-0.969-0.781-1.75-1.75-1.75s-1.75 0.781-1.75 1.75 0.781 1.75 1.75 1.75 1.75-0.781 1.75-1.75zM16.5 26.75c0-0.969-0.781-1.75-1.75-1.75s-1.75 0.781-1.75 1.75 0.781 1.75 1.75 1.75 1.75-0.781 1.75-1.75zM16.5 22.613c0-0.969-0.781-1.75-1.75-1.75s-1.75 0.781-1.75 1.75 0.781 1.75 1.75 1.75 1.75-0.781 1.75-1.75zM16.5 18.475c0-0.969-0.781-1.75-1.75-1.75s-1.75 0.781-1.75 1.75 0.781 1.75 1.75 1.75 1.75-0.781 1.75-1.75zM21 26.75c0-0.969-0.781-1.75-1.75-1.75s-1.75 0.781-1.75 1.75 0.781 1.75 1.75 1.75 1.75-0.781 1.75-1.75zM21 22.613c0-0.969-0.781-1.75-1.75-1.75s-1.75 0.781-1.75 1.75 0.781 1.75 1.75 1.75 1.75-0.781 1.75-1.75zM21 18.475c0-0.969-0.781-1.75-1.75-1.75s-1.75 0.781-1.75 1.75 0.781 1.75 1.75 1.75 1.75-0.781 1.75-1.75zM22.5 16c-0.3-1.394-0.462-2.306-1-3.5-2.425-1.244-5.656-2-9-2s-6.575 0.756-9 2c-0.55 1.219-0.7 2.119-1 3.5 2.638-0.494 6.169-0.925 10-0.925s7.363 0.431 10 0.925z"></path>
</svg>
