<!-- Generated by IcoMoon.io -->
<svg version="1.1" xmlns="http://www.w3.org/2000/svg" width="20" height="32" viewBox="0 0 20 32">
<title>odnoklassniki</title>
<path d="M17.194 20.875c-1.713 1.087-4.069 1.519-5.625 1.681l1.306 1.288 4.769 4.769c1.744 1.788-1.094 4.581-2.856 2.856-1.194-1.212-2.944-2.962-4.769-4.788l-4.769 4.781c-1.763 1.719-4.6-1.1-2.837-2.856 1.212-1.212 2.944-2.962 4.769-4.769l1.287-1.288c-1.537-0.163-3.931-0.569-5.662-1.681-2.038-1.313-2.931-2.081-2.144-3.688 0.462-0.913 1.731-1.681 3.413-0.356 0 0 2.269 1.806 5.931 1.806s5.931-1.806 5.931-1.806c1.681-1.319 2.944-0.556 3.412 0.356 0.775 1.606-0.119 2.375-2.156 3.694zM1.894 8.106c0-4.481 3.644-8.106 8.106-8.106s8.106 3.625 8.106 8.106c0 4.463-3.644 8.088-8.106 8.088s-8.106-3.625-8.106-8.088zM6.019 8.106c0 2.194 1.788 3.981 3.981 3.981s3.981-1.787 3.981-3.981c0-2.213-1.787-4-3.981-4s-3.981 1.787-3.981 4z"></path>
</svg>
