<!-- Generated by IcoMoon.io -->
<svg version="1.1" xmlns="http://www.w3.org/2000/svg" width="28" height="32" viewBox="0 0 28 32">
<title>odnoklassniki-sp</title>
<path d="M11.512 11.069c0-1.381 1.119-2.5 2.488-2.5s2.488 1.119 2.488 2.5c0 1.375-1.119 2.487-2.488 2.487s-2.488-1.119-2.488-2.488zM28 5v22c0 1.656-1.344 3-3 3h-22c-1.656 0-3-1.344-3-3v-22c0-1.656 1.344-3 3-3h22c1.656 0 3 1.344 3 3zM8.931 11.069c0 2.787 2.275 5.056 5.069 5.056s5.069-2.262 5.069-5.056c0-2.8-2.275-5.069-5.069-5.069s-5.069 2.262-5.069 5.069zM19.837 16.738c-0.288-0.569-1.081-1.050-2.131-0.225 0 0-1.419 1.125-3.706 1.125s-3.706-1.125-3.706-1.125c-1.050-0.825-1.844-0.344-2.131 0.225-0.494 1.006 0.069 1.481 1.338 2.313 1.081 0.694 2.575 0.95 3.537 1.050l-0.806 0.806c-1.137 1.125-2.219 2.219-2.981 2.981-1.1 1.1 0.669 2.863 1.775 1.788l2.981-2.994c1.137 1.137 2.231 2.231 2.981 2.994 1.1 1.075 2.875-0.669 1.788-1.788l-2.981-2.981-0.813-0.806c0.969-0.1 2.444-0.369 3.512-1.050 1.275-0.831 1.831-1.313 1.344-2.313z"></path>
</svg>
