<!-- Generated by IcoMoon.io -->
<svg version="1.1" xmlns="http://www.w3.org/2000/svg" width="32" height="32" viewBox="0 0 32 32">
<title>onedrive1</title>
<path d="M10.374 25.35c-1.937-0.484-3.015-2.023-3.019-4.307-0.001-0.73 0.052-1.080 0.234-1.55 0.447-1.151 1.63-2.020 3.186-2.34 0.775-0.159 1.013-0.33 1.013-0.725 0-0.124 0.092-0.493 0.205-0.821 0.512-1.488 1.46-2.728 2.472-3.235 1.060-0.531 1.595-0.651 2.877-0.644 1.821 0.010 2.729 0.405 4 1.739l0.699 0.734 0.626-0.217c3.030-1.048 6.050 0.736 6.293 3.719l0.067 0.816 0.597 0.214c1.704 0.611 2.505 1.892 2.359 3.777-0.095 1.232-0.671 2.216-1.584 2.705l-0.429 0.23-9.536 0.018c-7.328 0.014-9.657-0.012-10.060-0.113v0z"></path>
<path d="M3.226 24.032c-1.13-0.269-2.328-1.267-2.89-2.409-0.319-0.648-0.336-0.743-0.336-1.889 0-1.090 0.027-1.265 0.281-1.806 0.535-1.141 1.559-1.965 2.845-2.289 0.271-0.068 0.526-0.177 0.566-0.242s0.085-0.419 0.099-0.786c0.089-2.283 1.587-4.294 3.678-4.94 1.13-0.349 2.549-0.263 3.778 0.228 0.39 0.156 0.346 0.189 1.17-0.891 0.487-0.639 1.472-1.434 2.278-1.839 0.87-0.437 1.775-0.638 2.856-0.636 3.024 0.007 5.63 1.899 6.594 4.786 0.308 0.922 0.293 1.181-0.071 1.188-0.159 0.003-0.613 0.091-1.009 0.194l-0.721 0.188-0.658-0.658c-1.855-1.855-4.882-2.256-7.456-0.988-1.028 0.507-1.854 1.234-2.479 2.183-0.445 0.676-1.012 1.937-1.012 2.25 0 0.222-0.18 0.333-0.948 0.585-2.378 0.78-3.766 2.581-3.765 4.885 0 0.839 0.216 1.865 0.516 2.453 0.113 0.222 0.176 0.432 0.14 0.468-0.092 0.092-3.050 0.061-3.459-0.036v0z"></path>
</svg>
