<!-- Generated by IcoMoon.io -->
<svg version="1.1" xmlns="http://www.w3.org/2000/svg" width="36" height="32" viewBox="0 0 36 32">
<title>optin-monster</title>
<path d="M35.788 26.337c0.35-0.594 0.294-0.95-0.337-0.725-0.188-0.306-0.438-0.594-0.694-0.863 0.181-0.606-0.044-0.887-0.675-0.575-0.288-0.2-0.644-0.406-0.994-0.575 0-0.944-0.725-0.725-1.1-0.356-0.65-0.094-1.169-0.019-1.675 0.356 0.019-0.406 0.019-0.813 0.019-1.231 0.788 0 2.513-0.688 2.869-2.262 0.087-0.425 0.1-0.863-0.019-1.369-0.188-0.844-0.894-1.331-1.569-1.606-0.050-0.369-0.475-0.894-0.931-0.994s-0.775 0.306-0.881 0.644c-0.531 0-1.2 0.175-1.319 0.525-0.337-0.031-0.694-0.087-1.050-0.119 0.169-0.119 0.337-0.219 0.525-0.288 0.337-0.575 0.913-0.712 1.606-0.725v-0.175c1.219-0.031 2.688-0.369 3.362-1.131 0.794-0.863 0.913-2.331 0.775-3.444-0.15-1.081-0.606-2.35-1.538-3.006-0.525-0.369-1.35-0.050-1.419 0.594-0.137 1.225 0.075 1.875-2.413 1.569-0.644-1.488-1.538-2.787-2.669-3.75-4.35-3.731-10.481-3.362-15.262-2.35 1.231 0.287 2.569 0.537 3.731 1.031-1.637 0.15-3.294 0.706-4.762 1.45-2.050 1.063-2.75 1.869-3.544 2.65 0.931-0.137 1.806-0.319 2.737-0.238-0.606 0.338-1.15 0.762-1.656 1.25-1.612 0.056-1.487-0.331-1.638-1.619-0.069-0.656-0.894-0.963-1.419-0.606-1.756 1.244-2.094 4.994-0.763 6.469 0.675 0.762 2.194 1.081 3.431 1.113-0.019 0.069-0.019 0.119-0.019 0.169 0.675 0.031 1.219 0.169 1.538 0.725 0.188 0.069 0.356 0.169 0.506 0.288-0.338 0.031-0.694 0.087-1.031 0.119-0.206-0.413-0.856-0.506-1.319-0.506-0.1-0.356-0.406-0.762-0.881-0.644-0.425 0.119-0.881 0.625-0.931 0.994-1.406 0.594-1.881 1.675-1.569 2.975 0.331 1.55 2.063 2.262 2.869 2.262v1.231c-0.412-0.313-0.894-0.469-1.675-0.356-0.344-0.344-1.081-0.631-1.081 0.356-0.369 0.169-0.712 0.369-0.994 0.575-0.613-0.306-0.85-0.106-0.694 0.575-0.256 0.269-0.488 0.538-0.694 0.863-0.637-0.231-0.688 0.137-0.338 0.725-0.069 0.219-0.1 0.438-0.119 0.675-0.031 1.975 2.788 4 4.594 4.069 1.081 0.031 2.163-0.525 2.688-1.469 7.075 0.306 14.169 0.256 21.262 0 0.506 0.944 1.587 1.519 2.669 1.469 1.825-0.069 4.644-2.094 4.594-4.069 0.013-0.231-0.044-0.45-0.106-0.669zM31.175 10.463c0.069-0.188 0.15-0.525 0.15-0.912 0-0.369 0.425-0.506 0.881-0.050 0.694 0.725 0.931 2.531 0.862 3.194-0.256-0.85-0.813-1.813-1.894-2.231zM30.887 10.881c1.219 0.387 1.787 1.725 1.856 3.056-0.069 0.169-0.188 0.338-0.306 0.475-0.356 0.369-0.962 0.625-1.637 0.762 0.269-1.331 0.019-2.956-0.794-3.938 0.306-0.050 0.681-0.15 0.881-0.356zM29.381 11.306c0.863 0.744 1.25 2.45 0.881 3.969-0.256 0.031-0.506 0.050-0.725 0.050-0.119-1.369-0.425-2.75-0.894-4.037 0.231 0.019 0.506 0.019 0.738 0.019zM2.969 12.688c-0.069-0.656 0.15-2.469 0.862-3.194 0.438-0.456 0.881-0.319 0.881 0.050 0 0.387 0.088 0.725 0.15 0.912-1.081 0.425-1.638 1.387-1.894 2.231zM3.575 14.412c-0.119-0.137-0.219-0.306-0.306-0.475 0.087-1.331 0.644-2.669 1.856-3.056 0.2 0.2 0.575 0.306 0.881 0.356-0.813 0.981-1.063 2.6-0.794 3.938-0.675-0.137-1.281-0.375-1.638-0.762zM6.569 15.325c-0.256 0-0.506-0.019-0.794-0.050-0.287-1.162-0.119-2.431 0.338-3.313v0.019l0.763-0.319c0.306-0.119 0.606-0.238 0.931-0.306-0.669 1.231-1.088 2.581-1.237 3.969zM18.069 5.156c2.619 0 4.762 2.125 4.762 4.744 0 2.638-2.144 4.763-4.762 4.763s-4.762-2.125-4.762-4.762c0-2.612 2.144-4.744 4.762-4.744zM25.294 16.050c-0.019 1.113-0.438 3.056-1.438 3.563-0.825 0.413-0.406-0.469-1.031-3.631 0.831 0.019 1.663 0.019 2.469 0.069zM21.919 15.95c0.050 0.306 0.238 2.519-0.1 2.619-0.725 0.219-2.5 0.269-3.194-0.069-0.256-0.188-0.288-2.244-0.269-2.569v0.019c1.181-0.019 2.381-0.019 3.563 0zM17.394 19.313c-0.813 0.219-2.6 0.256-3.412-0.1-0.406-0.169-0.238-2.65-0.119-3.225 1.2-0.031 2.4-0.031 3.613-0.050v0.019c0.069 0.519 0.206 3.2-0.081 3.356zM10.738 16.119c0.762-0.050 1.537-0.087 2.3-0.1-0.15 0.962-0.188 2.719-0.306 3.262-0.069 0.425-0.269 0.425-0.606 0.269-1.369-0.613-1.725-2.2-1.387-3.431zM8.525 18.075c0.488-0.069 0.981-0.119 1.469-0.169 0.1 0.387 0.238 0.744 0.438 1.1 0.625 1.063 2.75 2.231 2.819 0.438 0.387 0.931 2.55 0.762 3.431 0.675 0.981-0.087 1.488-0.087 1.675-0.894 0.775 0.269 1.925 0.256 2.75 0.188 0.706-0.050 1.3-0.031 1.538-0.556 0.069 0.319 0.119 0.725 0.288 1.050 0.675 1.331 2.331 0.087 2.925-1.975 0.538 0.050 1.1 0.119 1.656 0.169-0.025 0.081-0.238 0.456 0.456 0.725-2.975 2.938-5.981 5.488-10.2 6.688-3.95-1.3-7.006-3.719-9.744-6.656 0.6-0.212 0.65-0.55 0.5-0.781zM7.175 28.856c-0.237 1.113-1.369 1.856-2.481 1.806-1.2-0.050-2.906-1.063-3.7-2.281-0.169-1.944 2.737-3.831 4.138-3.413 0.931 0.269 1.737 1.925 2.094 3.375 0 0.188-0.019 0.356-0.050 0.512zM6.631 24.731c-0.031-0.844-0.031-1.688-0.019-2.531h0.019c0.169-0.1 0.356-0.238 0.487-0.406 0.406-0.1 0.813-0.319 0.944-0.575 0.206-0.444-0.438-0.469-0.338-0.775 0.169-0.069 0.356-0.137 0.488-0.219 1.825 1.825 3.662 3.531 6.081 4.813-2.3 0.706-4.525 1.725-6.619 2.938-0.075-1.163-0.481-2.244-1.044-3.244zM27.731 28.769c-6.438 0.219-12.887 0.256-19.337 0 0 0.019 0 0.019-0.019 0.019v-0.019h0.019c2.194-1.35 4.512-2.45 7.025-3.175 0.725 0.319 1.438 0.594 2.181 0.825 0.137 0.050 0.137 0.050 0.269 0 0.894-0.256 1.775-0.575 2.637-0.962 2.594 0.731 4.925 1.981 7.225 3.313zM28.387 27.994c-2.244-1.219-4.563-2.244-6.994-2.975 2.381-1.25 4.494-2.956 6.469-4.794 0.137 0.087 0.288 0.15 0.475 0.2 0 0.050 0.019 0.119 0.031 0.15-0.288 0.169-0.488 0.387-0.369 0.644 0.137 0.238 0.538 0.475 0.944 0.556 0.15 0.169 0.319 0.319 0.506 0.425 0 0.863-0.019 1.725-0.050 2.581l0.019-0.019c-0.581 0.994-0.969 2.313-1.031 3.231zM35.006 28.381c-0.794 1.219-2.5 2.231-3.7 2.281-1.206 0.056-2.531-0.825-2.531-2.313 0.356-1.45 1.181-3.106 2.094-3.375 1.419-0.431 4.325 1.462 4.137 3.406zM23.306 4.7c-0.238-4.506-6.3-4.981-7.875-1.469 2.788-1.519 5.644-0.981 7.875 1.469zM4.675 25.444c-0.981 0.1-3.094 1.587-3.094 2.7 0 0.725 0.981 1.219 2.013 0.931 0.763-0.2 1.944-1.1 2.244-1.706 0.375-0.725-0.231-2.044-1.162-1.925zM18.169 14.431c1.788 0 3.244-1.35 3.244-3.025 0-2.256-2.531-3.631-4.512-2.769 0.594 0.188 1.031 0.725 1.031 1.35 0 1.456-2.081 2-2.906 0.706-0.456 2.131 1.212 3.737 3.144 3.737zM4.25 29.631c0.031 0.406 0.763 0.794 1.35 0.594 0.425-0.169 0.912-0.656 1.081-1.012 0.188-0.438-0.069-1.25-0.606-1.15-0.556 0.1-1.856 1.044-1.825 1.569zM31.325 25.444c-0.931-0.119-1.538 1.2-1.181 1.925 0.306 0.606 1.506 1.506 2.262 1.706 1.031 0.288 2.013-0.2 2.013-0.931 0-1.113-2.112-2.6-3.094-2.7zM29.925 28.063c-0.525-0.1-0.775 0.706-0.594 1.15 0.15 0.356 0.644 0.844 1.081 1.012 0.575 0.2 1.319-0.188 1.331-0.594 0.056-0.525-1.262-1.469-1.819-1.569z"></path>
</svg>
