<!-- Generated by IcoMoon.io -->
<svg version="1.1" xmlns="http://www.w3.org/2000/svg" width="32" height="32" viewBox="0 0 32 32">
<title>orcid</title>
<path d="M18.422 11.762h-2.87v9.613h2.967c4.226 0 5.195-3.209 5.195-4.807 0-2.602-1.659-4.806-5.292-4.806zM16 0.5c-8.563 0-15.5 6.938-15.5 15.5s6.938 15.5 15.5 15.5 15.5-6.938 15.5-15.5-6.938-15.5-15.5-15.5zM10.951 23.047h-1.865v-12.969h1.865zM10.018 8.601c-0.675 0-1.223-0.548-1.223-1.223s0.548-1.223 1.223-1.223c0.675 0 1.223 0.548 1.223 1.223v0c-0.002 0.675-0.549 1.221-1.223 1.223h-0zM18.75 23.063h-5.063v-12.984h5.038c4.796 0 6.902 3.427 6.902 6.491-0.003 3.33-2.604 6.493-6.878 6.493z"></path>
</svg>
