<!-- Generated by IcoMoon.io -->
<svg version="1.1" xmlns="http://www.w3.org/2000/svg" width="36" height="32" viewBox="0 0 36 32">
<title>palfed</title>
<path d="M24.056 12.119c0-2.963-3.45-2.763-5.962-1.863-0.081 2.463-0.156 5.044-0.188 7.487 0.044 0.175 0.163 0.387 0.944 0.387 2.3 0 5.212-2.675 5.206-6.012zM11.9 16.631c0.012 0 0.406-0.169 0.7-0.169 1.662 0 1.294 2.756-0.9 2.756-1.344 0-2.319-1.131-2.319-2.688 0-2.625 2.681-5.975 6.294-7.906 0.063-0.775 0.188-1.375 0.656-1.763 0.7-0.563 1.663-0.219 1.844 0.694 4.512-1.388 8.45 0.063 8.45 4.5 0 4.869-4.956 9.537-8.756 8.637-0.006 2.462 0.056 4.65 0.169 6.25v0.012c0.012 0.212 0.038 0.781-0.331 1.194-0.6 0.663-2.088 0.625-2.275-1.394-0.256-2.775 0.012-12.881 0.088-15.156-1.344 0.938-3.656 3.144-3.656 4.744 0.012 0.156 0.025 0.25 0.037 0.288zM0.5 11.319s-0.006 2.338 2.4 2.338h1.875l1.4 13.575s0 2.769 2.794 2.769h18.056s2.794-0.025 2.794-2.769l1.4-13.575h1.875s2.4 0.075 2.4-2.338c0 0 0.006-2.338-2.4-2.338h-1.881c-0.456-1.6-1.887-4.644-7.462-4.644h-1.75v-1.194s-0.169-1.15-1.319-1.15h-5.363s-1.319 0-1.319 1.15v1.194h-1.756s-6.563 0.263-7.531 4.644h-1.813s-2.4-0.075-2.4 2.338z"></path>
</svg>
