<!-- Generated by IcoMoon.io -->
<svg version="1.1" xmlns="http://www.w3.org/2000/svg" width="40" height="32" viewBox="0 0 40 32">
<title>penny-arcade</title>
<path d="M26.369 10.267c-0.281 1.216-0.087 0.379-0.944 4.081l2.483-0.663c-1.396-3.101-1.081-2.401-1.539-3.418zM13.489 13.461c-1.262 0.338-0.707 0.189-2.477 0.661l0.279 2.887c1.761-0.474 1.289-0.348 2.176-0.584 2.644-0.612 2.053-3.526 0.022-2.964zM33.874 11.824l-2.842-6.2c-0.356-0.773-1.216-1.178-2.039-0.958-4.392 1.172-2.42 0.645-8.474 2.264-0.552 0.151-0.987 0.555-1.177 1.076l-0.004 0.012c-10.322-0.939-19.338 1.591-19.338 6.148 0 2.094 1.917 4.194 5.056 5.961l0.109 1.117c-0.66 0.258-1.118 0.889-1.118 1.627 0 0.058 0.003 0.115 0.008 0.172l-0.001-0.007 0.269 2.78c0.087 0.894 0.839 1.576 1.737 1.575 0.324-0.001-0.188 0.111 7.658-1.985 0.786-0.211 1.32-0.939 1.286-1.751 13.537 2.844 25.124-0.374 24.993-5.302 0.001-1.759-1.387-4.16-6.124-6.529zM15.946 18.644l-1.369 0.367-3.027 0.807 0.154 1.472 1.283-0.344 0.282 2.782-7.207 1.924-0.269-2.782 1.251-0.334-0.694-7.165-1.258 0.337-0.272-2.781c11.134-2.971 10.636-2.901 11.639-2.916 3.541-0.071 4.009 4.49 2.659 6.527-0.759 1.043-1.86 1.797-3.135 2.1l-0.037 0.007zM28.395 19.683l-0.243-2.468 0.931-0.249-0.413-0.918-3.61 0.964-0.256 1.096 1.2-0.32 0.253 2.471-7.053 1.879-0.279-2.777 1.312-0.349 2.067-7.904-1.072 0.285-0.262-2.78c5.835-1.562 4.063-1.088 8.474-2.265l4.167 9.092 1.299-0.348 0.269 2.78-6.784 1.81z"></path>
</svg>
