<!-- Generated by IcoMoon.io -->
<svg version="1.1" xmlns="http://www.w3.org/2000/svg" width="28" height="32" viewBox="0 0 28 32">
<title>periscope</title>
<path d="M23.125 3.975c-2.413-2.563-5.594-3.975-8.963-3.975-7.169 0-13.006 6.013-13.006 13.4 0 4.694 3.612 9.988 5.169 12.044 2.288 3.025 5.713 6.556 7.838 6.556 2.6 0 7.056-5.887 7.556-6.563 1.538-2.069 5.125-7.394 5.125-12.037 0-3.531-1.319-6.881-3.719-9.425zM14.162 30.869c-2.656 0-11.875-10.456-11.875-17.462 0-6.713 5.244-12.269 11.875-12.269 6.3 0 11.544 5.563 11.544 12.269 0.006 7.006-9.212 17.462-11.544 17.462zM21.125 12.925c0 3.694-3.194 6.856-6.925 6.856-6.287 0-9.419-6.762-5.806-11.363v0.025c0 1.531 1.256 2.775 2.8 2.775s2.8-1.244 2.8-2.775c0-1.138-0.694-2.112-1.681-2.544 4.787-1.2 8.813 2.456 8.813 7.025z"></path>
</svg>
