<!-- Generated by IcoMoon.io -->
<svg version="1.1" xmlns="http://www.w3.org/2000/svg" width="32" height="32" viewBox="0 0 32 32">
<title>perl</title>
<path d="M16 0c-8.837 0-16 7.163-16 16s7.163 16 16 16c8.836 0 16-7.164 16-16s-7.164-16-16-16zM13.292 27.605c-0.165 0.331-0.861 0.099-1.622-0.165s-3.343-1.324-4.832-3.012c-1.489-1.688-2.251-3.939-2.184-6.090s0.662-3.045 1.655-4.435c0.993-1.39 3.74-3.442 4.601-3.972s2.019-1.423 2.582-2.151c0.563-0.728 0.861-1.324 0.827-2.317s0.066-1.887 0.033-2.217c-0.033-0.331-0.033-0.993 0.265-0.861s0.331 0.496 0.331 0.861-0.099 1.854-0.199 3.31c-0.099 1.456-1.258 2.681-2.118 3.542s-3.343 3.541-4.27 4.866c-0.927 1.324-1.389 3.068-1.291 4.534 0.099 1.489 0.463 2.946 1.854 4.502s2.35 2.284 3.078 2.648c0.728 0.364 1.456 0.629 1.291 0.96zM14.511 29.196c-0.238 0.289-0.646 0.463-0.695 0.347s0.295-0.183 0.548-0.465c0.232-0.259 0.171-0.743 0.336-0.749 0.135-0.005 0.050 0.578-0.188 0.867zM15.113 26.778c-0.463 0.596-2.35-1.456-3.343-2.648s-1.986-3.608-2.019-5.494c-0.033-1.887 1.026-3.641 1.787-4.7s2.251-2.88 2.648-3.707 0.827-1.721 0.96-2.88c0.132-1.158 0-5.296 0-5.296s-0.033-1.82 0.265-1.622c0.298 0.199 0.364 1.357 0.364 2.416s0.099 5.627-0.232 6.851c-0.331 1.225-1.092 2.582-1.92 3.773s-1.787 3.707-1.754 5.263c0.033 1.556 0.927 4.104 1.622 5.164 0.698 1.063 1.882 2.545 1.622 2.879zM16.102 29.868c-0.137 0-0.085-0.413-0.085-0.922s-0.046-0.922 0.085-0.922c0.122 0 0.085 0.413 0.085 0.922s0.026 0.922-0.085 0.922zM18.261 29.527c-0.050 0.117-0.458-0.058-0.695-0.347s-0.323-0.872-0.188-0.867c0.165 0.006 0.104 0.491 0.336 0.749 0.253 0.281 0.598 0.348 0.548 0.465zM25.037 24.473c-1.281 1.49-2.848 2.4-4.656 3.124-0.597 0.239-0.975 0.496-1.48 0.026-0.813-0.757-1.582-0.836-2.6-1.107-0.283-0.075-0.479-0.704-0.582-0.93-0.34-0.745-0.598-1.528-0.797-2.322-0.959-3.832-0.194-7.668 0.775-11.413 0.414-1.599 0.681-3.187 0.694-4.847 0.007-0.868-0.114-1.726-0.217-2.586-0.044-0.366-0.215-1.272 0.23-0.576 0.18 0.281 0.507-0.116 0.536 0.206 0.022 0.25 0.026 0.501 0.035 0.751 0.021 0.637 0.017 1.289 0.118 1.92 0.243 1.527 2.126 2.473 3.287 3.199 2.657 1.662 6.226 3.865 6.766 7.267 0.434 2.743-0.309 5.195-2.109 7.289z"></path>
</svg>
