<!-- Generated by IcoMoon.io -->
<svg version="1.1" xmlns="http://www.w3.org/2000/svg" width="31" height="32" viewBox="0 0 31 32">
<title>phabricator</title>
<path d="M20.188 16.381l-0.006-0.813s1.356-1.238 1.319-1.325l-0.594-1.25c-0.038-0.088-1.844-0.031-1.844-0.031l-0.587-0.581s0.012-1.781-0.075-1.819l-1.256-0.575c-0.087-0.037-1.294 1.313-1.294 1.313l-0.819-0.012s-1.281-1.338-1.369-1.3l-1.25 0.519c-0.088 0.031 0.012 1.806 0.012 1.806l-0.569 0.569s-1.825-0.056-1.856 0.025l-0.506 1.238c-0.037 0.088 1.313 1.313 1.313 1.313l0.006 0.806s-1.356 1.238-1.319 1.325l0.594 1.25c0.037 0.087 1.844 0.031 1.844 0.031l0.588 0.581s-0.012 1.988 0.075 2.019l1.256 0.519c0.088 0.038 1.294-1.469 1.294-1.469l0.819 0.012s1.281 1.488 1.362 1.456l1.25-0.469c0.087-0.038-0.012-2.006-0.012-2.006l0.569-0.569s1.825 0.056 1.856-0.031l0.506-1.238c0.044-0.069-1.306-1.294-1.306-1.294zM17.381 15.838c0.044 1.069-0.8 1.975-1.881 2.025s-2.006-0.781-2.050-1.85c-0.044-1.069 0.8-1.975 1.881-2.019 1.081-0.050 2.006 0.781 2.050 1.844zM29.956 13.469l-6.063-6.063-0.006 0.006c-4.694-4.581-12.213-4.55-16.863 0.1-3.181 3.188-1.737 1.744-5.981 5.956-1.394 1.394-1.394 3.669 0 5.063 4.369 4.337 2.9 2.875 6.088 6.063l0.006-0.006c4.694 4.581 12.212 4.556 16.863-0.1 3.188-3.181 1.744-1.744 5.956-5.956 1.394-1.394 1.394-3.669 0-5.063zM8.775 22.738c-3.725-3.719-3.725-9.75 0-13.469 3.719-3.725 9.75-3.719 13.475 0 3.719 3.719 3.725 9.75 0 13.475-3.725 3.719-9.75 3.712-13.475-0.006z"></path>
</svg>
