<!-- Generated by IcoMoon.io -->
<svg version="1.1" xmlns="http://www.w3.org/2000/svg" width="40" height="32" viewBox="0 0 40 32">
<title>phoenix-framework</title>
<path d="M13.306 21.519c0.238-0.006 1.425-0.087 1.6-0.137-0.15-0.163-2.725-0.063-4.25-3.1-0.269-0.538-0.469-1.1-0.4-1.725 0.181-1.594 2.056-1.875 3.25-1.156 2.25 1.35 3.956 5.706 7.106 6.094 2.313 0.281 5.287-1.063 6.762-2.837-0.038-0.006-0.050-0.012-0.063-0.006-0.025 0.006-0.050 0.012-0.069 0.019-2.081 0.756-5.894 0.606-8.419-0.925-2.35-1.425-3.319-3.669-3.238-4.662 0.113-1.331 1.431-1.45 2.244-1.225 0.9 0.244 1.525 1.1 2.431 1.713 0.975 0.65 2.056 0.856 3.206 0.644 0.931-0.169 2.15-0.769 2.281-0.906-0.069-0.006-0.113-0.006-0.156-0.012-0.387-0.037-0.775-0.050-1.156-0.106-6.95-1.031-8.056-10.225-15.781-10.819-2.769-0.212-6.213 0.506-8.519 2.188-0.050 0.037-0.094 0.075-0.138 0.112 0.006 0.013 0.006 0.019 0.013 0.031 0.050 0 0.1-0.006 0.15-0.013 0.394-0.063 0.781-0.050 1.169 0.019 1.488 0.269 2.981 1.444 3.494 4.781 0.331 2.144-0.044 3.175 0.5 5.381 1.188 4.819 5.688 6.725 7.981 6.65zM4.706 4.056c-0.056-0.063-0.056-0.075-0.081-0.125 0.756-0.163 1.513-0.256 2.287-0.3-0.069 0.919-1.388 1.331-2.206 0.425zM17.012 25.962c-2.675 0.075-5.75-1.669-7.719-3.837-0.287-0.313-1.050-1.262-1.162-1.462l0.025-0.025c0.412 0.256 1.606 1.163 3.425 1.688 1.512 0.438 3.006 0.394 4.475-0.206 1.419-0.581 2.563-0.031 2.694 0.181-1.156 0.238-1.256 0.275-1.5 0.494-0.319 0.275-0.288 0.731 0.438 1.075 1.637 0.775 3.938-0.175 6.075 1.587 0.15 0.125 0.506 0.488 0.631 0.669-0.006 0.012-0.019 0.019-0.025 0.031-0.3-0.094-1.025-0.469-2.512-0.581-1.544-0.125-2.894 0.331-4.844 0.387zM27.938 10.213c1.025-0.325 2.581-0.838 4.156-0.206 1.006 0.406 1.638 1.169 2.006 2.162 0.219 0.588 0.319 1.231 0.319 1.794-0.013 0-0.025 0-0.038 0.006-0.013-0.025-0.025-0.056-0.031-0.081-0.313-1.375-1.869-2.737-4.225-1.869-3.137 1.162-8.15 0.606-11.056-3-0.044-0.056-0.15-0.106-0.081-0.2 0.006-0.012 0.131 0.037 0.188 0.081 1.131 0.838 2.394 1.369 3.769 1.637 1.906 0.381 3.413 0.181 4.994-0.325zM34.356 17.556c-2.025 0.012-2.112 3.131-6.475 4.025-1.137 0.231-2.419 0.288-2.806 0.262v-0.025c0.175-0.094 0.919-0.163 1.856-1.038 0.494-0.456 0.956-0.944 1.425-1.431 1.219-1.262 2.587-2.637 5.119-2.438 1.444 0.113 1.831 0.512 2.256 0.794 0.019 0.012 0.025 0.031 0.044 0.056-0.031 0-0.044 0.006-0.056 0-0.438-0.169-0.894-0.206-1.362-0.206zM33.587 16.050c-0.006 0.012-0.006 0.025-0.013 0.038-1.806-0.275-3-0.494-4.281 0.25-1.063 0.619-1.962 1.281-3.875 1.525-1.694 0.212-2.819 0.15-4.131-0.5-0.019-0.012-0.038-0.025-0.063-0.038 0-0.012 0.006-0.019 0.006-0.031 1.556 0.238 2.275 0.319 3.469-0.363 1.394-0.806 2.506-1.662 4.456-1.938 1.85-0.256 3.206 0.156 4.431 1.056zM16.788 6.081c-0.038-0.037-0.069-0.075-0.131-0.144 0.475 0 1.856-0.075 3.337 0.525 1.231 0.5 2.012 1.313 3.137 2.056 0.694 0.456 1.462 0.581 2.275 0.506 0.269-0.025 0.531-0.075 0.8-0.106 0.025-0.006 0.056 0 0.094 0.019-0.038 0.025-0.075 0.056-0.113 0.075-0.506 0.25-1.044 0.394-1.6 0.444-1.631 0.162-3.144-0.231-4.588-0.963-1.206-0.619-2.275-1.431-3.212-2.412zM40 20.981c-0.219 0.194-1.419 0.725-2.669 0.331-0.769-0.244-1.219-0.931-1.975-1.506-0.625-0.475-1.306-0.494-1.756-0.525 0.038-0.050 0.056-0.075 0.075-0.087 0.925-0.575 1.906-0.762 2.956-0.406 0.781 0.262 1.2 0.844 1.9 1.512 0.675 0.65 1.313 0.619 1.444 0.656 0.006-0.006 0.013 0 0.025 0.025zM26.719 29.544c0.137 0.075 0.1 0.094 0.094 0.125-1.156-0.087-2.119-0.475-2.925-1.387-1.363-1.544-2.606-1.744-3.038-1.856 0.031-0.012 0.050-0.025 0.069-0.025 0.819 0.006 1.631 0.044 2.431 0.244 1.581 0.4 2.188 1.587 2.6 2.206 0.2 0.3 0.456 0.519 0.769 0.694z"></path>
</svg>
