<!-- Generated by IcoMoon.io -->
<svg version="1.1" xmlns="http://www.w3.org/2000/svg" width="32" height="32" viewBox="0 0 32 32">
<title>phoenix-squadron</title>
<path d="M6 3.961c2.906-2.258 6.597-3.504 10.282-3.411 1.849-0.024 3.694 0.336 5.432 0.958-1.508-0.289-3.063-0.396-4.586-0.153-2.679 0.332-5.19 1.697-6.989 3.699 0.354-0.063 0.674-0.229 1-0.366 1.134-0.492 2.343-0.829 3.577-0.927 1.234-0.133 2.478-0.027 3.705 0.12-0.901 0.174-1.82 0.286-2.688 0.599-2.152 0.692-4.079 2.072-5.394 3.914-0.863 1.232-1.477 2.679-1.542 4.196-0.022 1.031 0.326 2.176 1.239 2.75 0.491 0.301 1.086 0.48 1.722 0.48 0.22 0 0.436-0.021 0.644-0.062l-0.021 0.003c0.966-0.154 1.879-0.54 2.725-1.021 0.72-0.426 1.417-0.909 2-1.516 0.237-0.201 0.158-0.528 0.164-0.799-0.133-0.021-0.274-0.069-0.394 0.019-0.635 0.357-1.376 0.682-2.149 0.935l-0.090 0.025c-1.25 0.386-2.635 0.529-3.881 0.049 0.799 0.108 1.629 0.019 2.359-0.34 1.264-0.607 2.301-1.575 3.403-2.423 1.615-1.255 3.437-2.405 5.366-3.371l0.19-0.086c1.607-0.75 3.309-1.424 5.098-1.508-0.977 0.857-2.009 1.657-2.924 2.586-0.907 0.875-1.716 1.844-2.507 2.824-0.22 0.287-0.559 0.434-0.849 0.635-1.391 0.944-2.495 2.213-3.219 3.7l-0.025 0.056c-0.583 1.23-0.906 2.616-0.736 3.978 0.121 0.856 0.544 1.724 1.306 2.182 0.806 0.5 1.816 0.504 2.718 0.319 2.050-0.466 3.839-1.806 5.063-3.49 1.277-1.72 1.907-3.887 1.823-6.022-0.032-0.469-0.098-0.938-0.104-1.406 0.5 1.217 0.926 2.482 1.041 3.802 0.125 0.893 0.047 1.797-0.101 2.681-0.119 0.688-0.354 1.344-0.486 2.027 1.231-1.376 2.102-3.098 2.449-5.004l0.010-0.063c0.089-0.538 0.141-1.159 0.141-1.791 0-1.722-0.379-3.355-1.058-4.82l0.029 0.071c1.299 2 2.021 4.349 2.232 6.718 0.031 0.796 0.031 1.594 0 2.389-0.192 2.268-0.855 4.346-1.889 6.186l0.039-0.076c-1.633 2.959-4.25 5.352-7.324 6.75-4.893 2.264-10.918 1.957-15.5-0.918-2.436-1.507-4.382-3.597-5.675-6.080l-0.041-0.086c-0.876-1.688-1.446-3.667-1.583-5.763l-0.002-0.044v-1.959c0.246-4.359 2.554-8.495 6-11.148zM19.875 8.982c0.378-0.065 0.714-0.162 1.033-0.292l-0.033 0.012c0.313-0.111 0.578-0.371 0.645-0.701-0.56 0.312-1.124 0.62-1.645 0.981z"></path>
</svg>
