<!-- Generated by IcoMoon.io -->
<svg version="1.1" xmlns="http://www.w3.org/2000/svg" width="32" height="32" viewBox="0 0 32 32">
<title>phonegap</title>
<path d="M15.891 0.128c-0.731 0.27-1.206 0.804-1.44 1.608-0.161 0.548-0.161 0.716 0.175 11.079 0.161 4.984 0.336 10.758 0.402 12.826 0.080 2.719 0.146 3.91 0.226 4.29 0.27 1.272 1.286 2.068 2.646 2.068 0.512 0 11.745-1.907 12.315-2.090 0.519-0.168 1.14-0.775 1.425-1.396 0.439-0.957 0.439-0.943 0.139-5.364-0.409-6.007-0.987-14.836-1.111-17.080-0.132-2.222-0.212-2.624-0.658-3.289-0.322-0.475-1.016-0.994-1.52-1.147-0.212-0.058-1.498-0.278-2.865-0.475-8.558-1.242-9.041-1.294-9.735-1.031zM23.551 6.085c3.786 0.292 4.239 0.336 4.517 0.475 0.46 0.241 0.855 0.636 1.074 1.074 0.19 0.387 0.197 0.468 0.365 3.376 0.095 1.637 0.292 4.875 0.431 7.206 0.241 3.91 0.256 4.253 0.153 4.611-0.205 0.68-0.87 1.272-1.688 1.491-0.512 0.132-8.887 0.972-9.362 0.935-0.855-0.066-1.535-0.614-1.82-1.476-0.095-0.27-0.139-0.826-0.19-2.192-0.036-1.009-0.168-4.597-0.292-7.981-0.205-5.671-0.219-6.183-0.11-6.541 0.146-0.504 0.49-0.913 0.95-1.125 0.519-0.241 0.987-0.234 5.971 0.146z"></path>
<path d="M17.967 6.216c-0.599 0.161-1.001 0.767-1.001 1.498 0 0.351-0.095 0.329 1.535 0.468 1.031 0.088 1.447 0.248 1.835 0.723 0.409 0.49 0.417 0.577 0.68 6.614 0.263 6.125 0.27 5.978-0.132 6.505-0.11 0.139-0.395 0.343-0.658 0.475-0.402 0.197-0.606 0.241-1.586 0.343-0.621 0.058-1.14 0.124-1.155 0.139-0.058 0.051 0.168 0.819 0.336 1.111 0.095 0.168 0.3 0.395 0.446 0.49 0.475 0.314 0.811 0.329 2.711 0.131 0.95-0.095 1.747-0.205 1.769-0.227 0.029-0.029-0.139-4.114-0.365-9.077l-0.409-9.026-1.535-0.124c-1.776-0.139-2.090-0.146-2.47-0.044z"></path>
<path d="M9.299 3.176c-0.548 0.146-0.862 0.358-1.111 0.753-0.446 0.702-0.431-0.343-0.212 11.591 0.197 10.802 0.219 11.438 0.439 11.935 0.314 0.731 0.972 1.162 1.973 1.293 0.3 0.037 4.21-0.417 4.29-0.504 0.029-0.029-0.117-4.962-0.153-4.992-0.007-0.015-0.672 0.044-1.476 0.124-1.506 0.153-1.893 0.139-2.353-0.102-0.417-0.219-0.76-0.716-0.884-1.293-0.037-0.175-0.124-3.186-0.197-6.694-0.146-7.184-0.168-6.768 0.409-7.286 0.453-0.409 0.702-0.446 2.302-0.343 0.767 0.051 1.469 0.11 1.564 0.132l0.168 0.044-0.044-1.601c-0.022-0.884-0.066-1.864-0.088-2.185l-0.037-0.592-1.951-0.197c-2.207-0.227-2.105-0.227-2.638-0.080z"></path>
<path d="M3.833 6.779c-0.57 0.146-0.994 0.57-1.089 1.096-0.029 0.146-0.015 2.499 0.037 5.233 0.146 8.149 0.212 10.312 0.314 10.648 0.132 0.446 0.548 0.833 1.060 0.979 0.402 0.117 0.497 0.117 1.703 0 0.702-0.073 1.418-0.146 1.586-0.168l0.314-0.044-0.044-1.761c-0.029-0.965-0.059-1.768-0.066-1.776-0.007-0.015-0.475 0.015-1.045 0.059-1.279 0.102-1.615 0.058-1.966-0.248-0.49-0.431-0.468-0.278-0.585-5.365l-0.102-4.611 0.154-0.307c0.117-0.227 0.241-0.344 0.49-0.453 0.307-0.139 0.424-0.146 1.615-0.095l1.279 0.058-0.051-1.491c-0.022-0.811-0.066-1.498-0.080-1.52-0.044-0.037-1.549-0.175-2.704-0.256-0.322-0.022-0.687-0.007-0.819 0.022z"></path>
<path d="M10.564 8.124c-0.497 0.234-0.731 0.797-0.65 1.586l0.051 0.49 0.811 0.037c0.972 0.044 1.33 0.183 1.637 0.658l0.205 0.307v8.733l-0.219 0.234c-0.329 0.351-0.767 0.512-1.527 0.57l-0.665 0.044-0.022 0.402c-0.058 0.914 0.263 1.549 0.906 1.798 0.292 0.11 0.424 0.117 1.447 0.029 0.621-0.051 1.162-0.117 1.213-0.146 0.11-0.066 0.102-0.957-0.037-7.162-0.154-7.14-0.168-7.367-0.475-7.528-0.073-0.037-0.658-0.088-1.294-0.11-0.906-0.037-1.206-0.022-1.381 0.058z"></path>
<path d="M0.478 11.098c-0.088 0.029-0.227 0.153-0.314 0.263-0.153 0.19-0.153 0.241-0.153 3.274 0 1.688 0.022 3.552 0.051 4.129 0.044 0.95 0.058 1.067 0.212 1.25 0.234 0.271 0.599 0.351 1.484 0.307l0.745-0.037-0.022-0.921-0.022-0.921-0.672-0.037c-1.074-0.058-1.001 0.139-1.030-2.821-0.022-2.77-0.029-2.741 0.504-2.879 0.168-0.051 0.468-0.058 0.694-0.029l0.395 0.044v-1.608l-0.227-0.044c-0.329-0.066-1.462-0.044-1.644 0.029z"></path>
<path d="M4.395 11.931v0.775h0.227c0.3 0 0.709 0.197 0.811 0.395 0.131 0.226 0.183 4.575 0.058 4.86-0.095 0.234-0.46 0.446-0.76 0.446h-0.19v0.65c0 0.358 0.022 0.753 0.044 0.877 0.044 0.219 0.058 0.227 0.46 0.227 0.468 0 0.84-0.161 1.052-0.453 0.146-0.19 0.146-0.256 0.058-3.947-0.080-3.238-0.11-3.786-0.212-3.998-0.197-0.402-0.46-0.548-1.038-0.577l-0.512-0.029v0.775z"></path>
</svg>
