<!-- Generated by IcoMoon.io -->
<svg version="1.1" xmlns="http://www.w3.org/2000/svg" width="40" height="32" viewBox="0 0 40 32">
<title>php-sp</title>
<path d="M20 6.531c10.712 0 18.95 4.512 18.95 9.469s-8.244 9.469-18.95 9.469c-10.713 0-18.95-4.512-18.95-9.469s8.244-9.469 18.95-9.469zM20 5.481c-11.044 0-20 4.706-20 10.519s8.956 10.519 20 10.519 20-4.706 20-10.519-8.956-10.519-20-10.519zM13.637 15.156c-0.494 2.531-2.238 2.269-4.381 2.269l0.856-4.412c2.375 0 3.987-0.256 3.525 2.144zM6.088 21.894h2.294l0.544-2.8c2.569 0 4.162 0.188 5.637-1.194 1.631-1.5 2.056-4.169 0.894-5.506-0.606-0.7-1.581-1.044-2.906-1.044h-4.419l-2.044 10.544zM17.694 8.544h2.281l-0.544 2.8c1.969 0 3.794-0.144 4.675 0.669 0.925 0.85 0.481 1.938-0.519 7.069h-2.313c0.962-4.963 1.144-5.375 0.794-5.75-0.337-0.363-1.106-0.287-2.962-0.287l-1.175 6.037h-2.281l2.044-10.537zM31.563 15.156c-0.5 2.569-2.294 2.269-4.381 2.269l0.856-4.412c2.387 0 3.988-0.256 3.525 2.144zM24.012 21.894h2.3l0.544-2.8c2.7 0 4.194 0.156 5.637-1.194 1.631-1.5 2.056-4.169 0.894-5.506-0.606-0.7-1.581-1.044-2.906-1.044h-4.419l-2.050 10.544z"></path>
</svg>
