<!-- Generated by IcoMoon.io -->
<svg version="1.1" xmlns="http://www.w3.org/2000/svg" width="32" height="32" viewBox="0 0 32 32">
<title>php</title>
<path d="M8.038 11.45h-5.611l-2.426 12.284h2.882l0.607-3.185h2.73c2.578 0.152 5.46-1.971 5.46-5.611 0-2.123-1.213-3.337-3.64-3.488zM5.915 18.275h-1.82l0.758-4.55h1.972c1.062 0 1.82 0.455 1.82 1.365-0.152 2.578-1.365 3.033-2.73 3.185z"></path>
<path d="M18.199 11.45h-2.73l0.607-3.185h-2.882l-2.426 12.284h2.881l1.365-6.825h2.275c1.062 0 1.062 0.455 0.91 1.213l-1.062 5.611h3.033l1.062-6.218c0.303-1.517-0.607-2.73-3.033-2.882z"></path>
<path d="M28.36 11.45h-5.611l-2.427 12.284h2.882l0.606-3.185h2.73c2.578 0.152 5.46-1.971 5.46-5.611 0-2.123-1.213-3.337-3.64-3.488zM26.237 18.275h-1.82l0.758-4.55h1.972c1.062 0 1.82 0.455 1.82 1.365-0.152 2.578-1.365 3.033-2.73 3.185z"></path>
</svg>
