<!-- Generated by IcoMoon.io -->
<svg version="1.1" xmlns="http://www.w3.org/2000/svg" width="32" height="32" viewBox="0 0 32 32">
<title>phpstorm</title>
<path d="M19.93 23.806c0.506 0.657 1.013 0.938 1.622 0.938 1.059 0 1.982-0.908 1.982-2.28v-3.664c0-1.624-0.818-2.516-1.982-2.516-0.655 0-1.369 0.371-1.847 1.174v-0.953h-2.039v12.311h-10.64v-5.011c0.506 0.657 1.013 0.938 1.623 0.938 1.058 0 1.981-0.908 1.981-2.28v-3.664c0-1.624-0.818-2.516-1.981-2.516-0.655 0-1.371 0.371-1.847 1.174v-0.953h-2.040v12.311h-1.64v-18.044h8.087v13.748h2.264v-5.646c0-0.462 0.191-0.744 0.626-0.744 0.388 0 0.594 0.238 0.594 0.744v5.646h2.265v-6.421c0-1.251-0.835-1.817-1.804-1.817-0.597 0-1.236 0.193-1.683 0.758v-6.269h8.719c-0.002 0.031-0.004 0.055-0.004 0.086l0.025 0.767c0 1.122 0.541 2.497 0.808 3.107 0 0 0.768 1.574 1.362 2.193 0.593 0.616 1.030 1.079 1.534 1.565 0.466 0.448 0.905 0.872 1.142 1.163 0.393 0.485 0.417 0.9 0.453 1.503 0.070 1.174-0.362 1.856-1.029 2.764-0.679 0.926-1.051 1.326-1.482 1.79-0.216 0.234-0.442 0.477-0.712 0.789l-0.217 0.252c-0.434 0.5-0.801 0.926-1.112 1.316l-0.696 0.748h-2.335v-5.011h-0zM21.269 22.003v-2.89c0-0.64-0.223-0.982-0.669-0.982-0.448 0-0.67 0.342-0.67 0.982v2.89c0 0.641 0.222 0.939 0.67 0.939 0.446 0 0.669-0.298 0.669-0.939zM8.366 22.003v-2.89c0-0.64-0.222-0.982-0.668-0.982-0.447 0-0.671 0.342-0.671 0.982v2.89c0 0.641 0.223 0.939 0.671 0.939 0.446 0 0.668-0.298 0.668-0.939z"></path>
<path d="M33.311 4.703c0.52-0.602 0.949-1.090 1.301-1.533h-7.89c-0.469 0.599-1.422 1.754-1.967 2.779-0.719 1.356-1.31 2.375-1.369 4.872l0.025 0.805c0 1.19 0.853 2.938 0.853 2.938 0.133 0.311 0.583 0.966 0.871 1.366h-0.007c0.17 0.229 0.221 0.297 0.273 0.364l-0.116-0.157c0.85 0.974 2.137 2.062 2.705 2.762 0.664 0.821 0.681 1.589 0.716 2.186 0.097 1.616-0.558 2.591-1.257 3.546-1.057 1.442-1.439 1.71-2.252 2.654-0.52 0.601-0.947 1.088-1.299 1.532h8.15c0.479-0.616 1.158-1.748 1.706-2.779 0.719-1.356 1.311-2.375 1.368-4.87l-0.026-0.805c0-1.19-0.851-2.941-0.851-2.941-0.133-0.311-0.584-0.962-0.873-1.365h0.006c-0.077-0.105-0.129-0.172-0.181-0.239l0.024 0.032c-0.848-0.974-2.137-2.062-2.703-2.761-0.665-0.819-0.683-1.588-0.719-2.187-0.096-1.616 0.558-2.591 1.257-3.546 1.058-1.441 1.439-1.71 2.253-2.652z"></path>
</svg>
