<!-- Generated by IcoMoon.io -->
<svg version="1.1" xmlns="http://www.w3.org/2000/svg" width="28" height="32" viewBox="0 0 28 32">
<title>pied-piper-sp1</title>
<path d="M2 26.188l-2 3.762 0.050-20.5c0-4.119 3.325-7.45 7.45-7.45h20.45c-5.813 1.806-11.869 5.888-15.869 10.537-4.412 5.088-6.919 8.588-10.081 13.65zM28 2s-8.925 4.175-11.65 10.444c-1.45 3.35-1.806 7.381-4.438 9.912-1.806 1.738-4.362 2.387-6.581 3.519-1.45 0.75-4.15 2.531-5.306 4.125h20.525c4.125 0 7.456-3.331 7.456-7.45-0.006 0-0.006-20.55-0.006-20.55z"></path>
</svg>
