<!-- Generated by IcoMoon.io -->
<svg version="1.1" xmlns="http://www.w3.org/2000/svg" width="36" height="32" viewBox="0 0 36 32">
<title>pied-piper-sp</title>
<path d="M15.25 15.375c-0.2-0.125-0.394-0.181-0.631-0.181-0.412 0-0.787 0.2-1.206 0.231l0.106 0.306zM23.744 27.744c-1.188 0-4.006 0.594-4.994 1.238l0.431 2.819c2.231 0.381 4.381 0.225 6.625-0.613-0.3-0.625-1.469-3.444-2.063-3.444zM21.3 11.063c0.413 0.175 0.719 0.575 1.419 1.381 0.125-0.088 0.469-0.325 0.469-0.537 0-0.306-0.738-0.825-0.825-1.438 0.7-0.356 1.575-0.375 2.35-0.556 4.256-1.025 7.269-3.306 9.175-7.294 0.381-0.788 0.737-1.613 0.775-2.494l-0.125 0.162c-1.775 3.125-2.063 3.95-5.081 6.25-1.994 1.525-4.325 2.513-6.662 3.412l-0.394-0.019v-1.363c-1.225 0.1-1.231-0.912-1.975-1.438-1.169 1.287-1.975 2.55-3.681 3.194-0.794 0.3-1.225 0.625-1.619 1.363 2.181-1.025 5.7-0.844 6.175-0.625zM34.719 0l-0.038 0.069-0.019 0.056 0.038-0.038zM31.019 23.881c-2.119-3.556-4.706-7.4-9.375-7.219l-0.019-0.375c-0.069-0.844 2.050 0.2 2.194-1.938l-0.9 0.45c-1.238-2.856-0.538-3.394-4.094-3.394-0.919 0-1.669 0.106-2.587 0.287 0.181 1.162 0.137 2.294-0.681 3.144l1.219 0.344c-0.106 0.2-0.181 0.394-0.181 0.613 0 1.313 2.675 0.181 2.675 2.1 0 1.15-2.3 3.756-3.431 3.756-0.5 0-3.356-3.125-3.338-3.756l0.019-0.288 3.269-0.719c0.813-0.163 0.769-1.419-0.181-1.419-0.231 0-2.694 0.575-3.088 0.663-0.125-0.325-0.469-0.881-0.863-0.881-0.2 0-0.394 0.2-0.594 0.25-0.575 0.162-1.938 0.181-1.344 1.256l-8.725 1.9c-0.344 0.069-0.556 0.394-0.556 0.738 0 0.375 0.344 0.681 0.719 0.681 0.5 0 8.206-1.775 9.213-2.012 0.162 0.2 0.287 0.394 0.488 0.538 1.256 0.9 3.737 5.369 4.775 5.369 1.506 0 3.625-1.4 4.456-2.619 0.2-0.269 0.431-0.469 0.775-0.431 0.038 0.863-1.975 2.137-2.063 2.731-0.087 0.637-0.063 2.2-0.019 2.569 1.669 0.506 3.25-0.225 4.869-0.181 0.269-1.313 0.663-2.619 0.613-3.969l-0.019-0.594c-0.087-2.137-0.681-2.406-2.175-3.663-0.069-0.069-0.163-0.163-0.231-0.25 0.137-0.087 0.069-0.063 0.288-0.106 5.531 0 3.519 11.475 6.969 14.369 2.069-0.938 4.531-1.744 6.469-2.95-1.813-1.6-3.288-2.856-4.544-4.994zM18.756 26.762v1.7l0.738-0.212-0.181-1.488zM14.463 17.363l1.506 3.825 1.313-0.863-1.956-3.181zM19.738 27.044l0.125 0.775c0.563-0.094 3.65-0.413 3.65-0.881 0-0.087-0.038-0.2-0.056-0.288-1.675 0-2.306 0.238-3.719 0.394z"></path>
</svg>
