<!-- Generated by IcoMoon.io -->
<svg version="1.1" xmlns="http://www.w3.org/2000/svg" width="40" height="32" viewBox="0 0 40 32">
<title>pied-piper-hat</title>
<path d="M40 1.556c-5.050 3.35-5.587 5.781-6.025 6.525-0.419 0.762-0.731 3.769-1.456 5.225-0.731 1.475-3.387 2.638-4.131 3.125-0.731 0.488-1.769 2.381-2.619 4.012-6.756-0.275-10.463 2.425-16.2 5.85 1.838-0.606 2.706-1.044 2.706-1.044 5.887-2.25 8.706-4.269 17.569-3.075 0.069 0 0.119 0.038 0.175 0.050 0.244 0.137 0.331 0.431 0.194 0.675l-3.369 5.988c-0.156 0.294-0.488 0.45-0.819 0.381-7.925-1.488-14.181 1.081-19.931 1.163-4.588 0.069-6.094-2.094-6.094-2.194 0-0.069 0.037-0.106 0.106-0.106 0 0 2.394 0 6.444-0.956 4.6-8.769 8.7-11.838 13.162-11.838 0 0 4.481 0 5.662 3.869 1.425-2.481 1.769-3.075 1.769-3.075 0.331-0.588 2.188-4.825 5.4-8.838 3.219-4 5.65-4.994 7.456-5.737z"></path>
</svg>
