<!-- Generated by IcoMoon.io -->
<svg version="1.1" xmlns="http://www.w3.org/2000/svg" width="30" height="32" viewBox="0 0 30 32">
<title>pied-piper</title>
<path d="M28.496 1.45c-1.669 0.425-4.259 1.781-7.161 4.216-1.822-1.048-4.006-1.666-6.334-1.666v0c-7.179 0-13 5.82-13 13s5.821 13 13 13 13-5.821 13-13c0-0.004 0-0.010 0-0.015 0-3.516-1.401-6.704-3.675-9.038l0.003 0.003c-0.389 0.498-0.743 1.059-1.037 1.656l-0.025 0.057c1.739 1.938 2.803 4.514 2.803 7.338v0c0 6.104-4.965 11.069-11.068 11.069-2.016-0-3.905-0.543-5.529-1.491l0.052 0.028c5.184-6.708 9.424-2.361 11.519-14.166 0.362-2.039 1.75-5.891 7.889-10.011 0.505-0.339 0.152-1.13-0.437-0.98zM7.813 25.4c-2.38-2.037-3.88-5.043-3.881-8.4v-0c0-6.104 4.966-11.069 11.069-11.069 0.001 0 0.003 0 0.004 0 1.742 0 3.389 0.41 4.848 1.138l-0.063-0.028c-4.124 3.882-7.929 9.554-11.977 18.359z"></path>
</svg>
