<!-- Generated by IcoMoon.io -->
<svg version="1.1" xmlns="http://www.w3.org/2000/svg" width="28" height="32" viewBox="0 0 28 32">
<title>pinterest-sp</title>
<path d="M28 5v22c0 1.656-1.344 3-3 3h-15.35c0.613-1.025 1.4-2.5 1.713-3.706 0.188-0.719 0.956-3.65 0.956-3.65 0.5 0.956 1.963 1.762 3.519 1.762 4.631 0 7.963-4.256 7.963-9.544 0-5.069-4.137-8.863-9.463-8.863-6.625 0-10.137 4.444-10.137 9.287 0 2.25 1.2 5.050 3.112 5.944 0.294 0.137 0.444 0.075 0.513-0.206 0.050-0.212 0.313-1.256 0.425-1.738 0.037-0.156 0.019-0.288-0.106-0.438-0.631-0.769-1.144-2.181-1.144-3.5 0-3.387 2.563-6.662 6.931-6.662 3.769 0 6.413 2.569 6.413 6.244 0 4.15-2.094 7.025-4.825 7.025-1.506 0-2.631-1.244-2.275-2.775 0.431-1.825 1.269-3.794 1.269-5.113 0-3.313-4.719-2.856-4.719 1.563 0 1.356 0.456 2.281 0.456 2.281-1.963 8.3-2.256 8.406-1.85 12.037l0.137 0.050h-5.537c-1.656 0-3-1.344-3-3v-22c0-1.656 1.344-3 3-3h22c1.656 0 3 1.344 3 3z"></path>
</svg>
