<!-- Generated by IcoMoon.io -->
<svg version="1.1" xmlns="http://www.w3.org/2000/svg" width="32" height="32" viewBox="0 0 32 32">
<title>portugol</title>
<path d="M20.25 28c0.552 0 1-0.448 1-1s-0.448-1-1-1h-8.499c-0.552 0-1 0.448-1 1s0.448 1 1 1v0zM17.364 32c0.552 0 1-0.448 1-1s-0.448-1-1-1h-2.528c-0.552 0-1 0.448-1 1s0.448 1 1 1v0zM20.887 23.156c0.105-1.124 0.369-2.158 0.77-3.12l-0.026 0.070c0.494-0.919 1.006-1.756 1.5-2.565 1.539-2.525 2.869-4.703 2.869-7.844-0.095-5.375-4.474-9.696-9.863-9.696-0.048 0-0.095 0-0.143 0.001l0.007-0c-0.041-0.001-0.088-0.001-0.136-0.001-5.39 0-9.771 4.323-9.863 9.691l-0 0.009c0 3.137 1.331 5.319 2.869 7.844 0.494 0.806 1 1.644 1.5 2.565 0.376 0.894 0.64 1.931 0.741 3.014l0.003 0.042c0.092 0.483 0.511 0.843 1.014 0.843 0.57 0 1.031-0.462 1.031-1.031 0-0.046-0.003-0.091-0.009-0.136l0.001 0.005c-0.119-1.35-0.459-2.593-0.985-3.732l0.029 0.070c-2.038-3.779-4.131-5.978-4.131-9.484 0.076-4.267 3.553-7.697 7.831-7.697 0.037 0 0.074 0 0.111 0.001l-0.006-0c0.031-0 0.068-0.001 0.105-0.001 4.278 0 7.755 3.43 7.832 7.69l0 0.007c0 3.506-2.094 5.705-4.131 9.475-0.492 1.070-0.832 2.312-0.953 3.617l-0.003 0.045c-0.005 0.039-0.008 0.085-0.008 0.131 0 0.57 0.462 1.031 1.031 1.031 0.503 0 0.922-0.36 1.013-0.836l0.001-0.006z"></path>
</svg>
