<!-- Generated by IcoMoon.io -->
<svg version="1.1" xmlns="http://www.w3.org/2000/svg" width="32" height="32" viewBox="0 0 32 32">
<title>postgresql</title>
<path d="M31.282 19.38c-0.342-0.396-0.925-0.287-1.376-0.198-1.084 0.193-2.263 0.418-3.314-0.032 1.876-2.959 3.351-6.191 4.175-9.601 0.3-1.297 0.531-2.622 0.488-3.956-0.033-0.747-0.137-1.542-0.593-2.16-1.13-1.49-2.767-2.575-4.572-3.060-2.254-0.611-4.674-0.429-6.891 0.256-0.184 0.037-0.363-0.045-0.543-0.068-2.013-0.409-4.233-0.248-5.978 0.918-2.095-0.754-4.348-1.21-6.579-0.976-1.659 0.173-3.325 0.943-4.277 2.356-1.204 1.763-1.367 4.013-1.175 6.080 0.387 2.743 1.056 5.443 1.907 8.077 0.561 1.642 1.177 3.296 2.175 4.73 0.506 0.704 1.18 1.414 2.085 1.525 0.806 0.098 1.534-0.402 2.027-0.993 0.853-1.022 1.731-2.025 2.642-2.995 0.595 0.292 1.24 0.46 1.901 0.509-0.357 0.424-0.652 0.977-1.22 1.144-0.766 0.296-1.665 0.256-2.34 0.766-0.39 0.279-0.409 0.887-0.058 1.207 0.633 0.615 1.566 0.747 2.408 0.817 1.194 0.091 2.4-0.311 3.307-1.093-0.006 1.898 0.004 3.801 0.217 5.689 0.106 1.106 0.584 2.207 1.424 2.951 0.792 0.691 1.922 0.835 2.928 0.66 0.987-0.187 2.002-0.484 2.773-1.158 0.82-0.722 1.169-1.814 1.332-2.861 0.294-1.876 0.518-3.762 0.732-5.647 2.11 0.356 4.497-0.048 6.074-1.588 0.337-0.317 0.657-0.866 0.324-1.297zM26.599 1.534c1.267 0.48 2.392 1.316 3.237 2.374 0.403 0.505 0.454 1.183 0.48 1.804 0.018 1.479-0.28 2.941-0.66 4.364-0.727 2.633-1.831 5.157-3.218 7.507-0.137 0.231-0.286 0.455-0.45 0.667-0.013-0.064-0.038-0.195-0.051-0.261 0.173-0.453 0.424-0.879 0.522-1.36 0.348-1.356 0.054-2.751-0.072-4.116-0.131-1.288 0.309-2.541 0.298-3.825 0.050-0.629-0.199-1.224-0.441-1.789-0.875-1.956-2.267-3.696-4.052-4.892-0.435-0.299-0.922-0.508-1.356-0.808 1.898-0.407 3.934-0.355 5.763 0.334zM25.442 12.516c0.111 1.523 0.553 3.16-0.165 4.605-0.963-1.916-2.208-3.745-2.642-5.88-0.123-0.679-0.154-1.538 0.449-2.010 0.765-0.543 1.766-0.422 2.65-0.367-0.038 1.223-0.415 2.421-0.292 3.652zM8.223 21.541c-0.346 0.407-0.813 0.892-1.401 0.771-0.689-0.199-1.127-0.828-1.511-1.393-1.037-1.659-1.662-3.532-2.234-5.392-0.641-2.201-1.182-4.438-1.493-6.711-0.155-1.73-0.058-3.586 0.827-5.126 0.663-1.167 1.899-1.91 3.198-2.153 2.079-0.4 4.212 0.024 6.208 0.633-0.881 0.968-1.566 2.107-1.966 3.354-0.545 1.666-0.794 3.439-0.664 5.19 0.075 1.233 0.043 2.473-0.129 3.697-0.216 1.598 0.425 3.241 1.612 4.32-0.808 0.945-1.665 1.846-2.448 2.812zM10.044 15.819c-0.204-0.904 0.062-1.815 0.093-2.722 0.070-1.026-0.002-2.053-0.023-3.079 0.959-0.62 2.081-1.106 3.242-1.039 0.602 0.026 1.157 0.452 1.301 1.044 0.528 2.102 0.691 4.44-0.319 6.43-0.353 0.768-0.639 1.564-0.885 2.37-1.681 0.017-3.111-1.404-3.409-3.004zM15.277 21.443c-1.056 1.43-3.169 1.703-4.695 0.925 0.753-0.349 1.634-0.322 2.36-0.751 0.703-0.378 0.982-1.211 1.639-1.639 0.715-0.101 1.238 0.962 0.697 1.465zM24.331 19.774c-0.401 0.646-0.26 1.434-0.359 2.151-0.23 2.010-0.456 4.023-0.784 6.020-0.155 0.957-0.561 1.975-1.466 2.451-0.926 0.471-2.002 0.766-3.043 0.607-0.989-0.174-1.613-1.095-1.892-1.994-0.205-0.753-0.226-1.54-0.285-2.314-0.099-1.871-0.101-3.745-0.052-5.619 0.041-0.732-0.335-1.493-0.987-1.848-0.316-0.178-0.685-0.201-1.039-0.23 0.278-1.376 1.115-2.564 1.402-3.938 0.373-1.7 0.167-3.47-0.215-5.149-0.186-0.838-0.823-1.579-1.672-1.783-1.306-0.329-2.623 0.182-3.792 0.728 0.148-1.898 0.655-3.841 1.818-5.381 0.854-1.146 2.181-1.911 3.596-2.096 2.336-0.297 4.789 0.346 6.645 1.806 1.534 1.212 2.745 2.854 3.398 4.7-1.086-0.038-2.317-0.082-3.194 0.672-0.796 0.671-0.898 1.816-0.72 2.779 0.416 2.288 1.765 4.233 2.761 6.29 0.265 0.483 0.621 0.903 0.958 1.336-0.403 0.204-0.852 0.398-1.081 0.813zM27.125 21.391c-0.717 0.086-1.462 0.111-2.154-0.126 0.003-0.392-0.018-0.855 0.296-1.146 0.249-0.183 0.603-0.353 0.891-0.152 1.224 0.645 2.647 0.33 3.948 0.173-0.795 0.774-1.897 1.136-2.98 1.253z"></path>
<path d="M23.367 9.516c-0.255 0.21 0.020 0.522 0.239 0.621 0.53 0.312 1.257-0.124 1.275-0.73-0.479-0.223-1.081-0.2-1.515 0.11z"></path>
<path d="M13.974 10.483c0.226-0.127 0.465-0.479 0.204-0.691-0.373-0.303-0.915-0.361-1.368-0.24-0.147 0.051-0.3 0.151-0.271 0.33 0.105 0.609 0.921 0.979 1.435 0.601z"></path>
</svg>
