<!-- Generated by IcoMoon.io -->
<svg version="1.1" xmlns="http://www.w3.org/2000/svg" width="32" height="32" viewBox="0 0 32 32">
<title>prettier</title>
<path d="M23.619 6.095h1.524c0.427 0 0.762 0.335 0.762 0.762s-0.335 0.762-0.762 0.762h-1.524c-0.427 0-0.762-0.335-0.762-0.762s0.335-0.762 0.762-0.762z"></path>
<path d="M0.762 30.476h7.619c0.427 0 0.762 0.335 0.762 0.762s-0.335 0.762-0.762 0.762h-7.619c-0.427 0-0.762-0.335-0.762-0.762s0.335-0.762 0.762-0.762z"></path>
<path d="M19.048 18.286h4.571c0.427 0 0.762 0.335 0.762 0.762s-0.335 0.762-0.762 0.762h-4.571c-0.427 0-0.762-0.335-0.762-0.762s0.335-0.762 0.762-0.762z"></path>
<path d="M9.905 18.286h6.095c0.427 0 0.762 0.335 0.762 0.762s-0.335 0.762-0.762 0.762h-6.095c-0.427 0-0.762-0.335-0.762-0.762s0.335-0.762 0.762-0.762z"></path>
<path d="M0.762 18.286h6.095c0.427 0 0.762 0.335 0.762 0.762s-0.335 0.762-0.762 0.762h-6.095c-0.427 0-0.762-0.335-0.762-0.762s0.335-0.762 0.762-0.762z"></path>
<path d="M0.762 24.381h7.619c0.427 0 0.762 0.335 0.762 0.762s-0.335 0.762-0.762 0.762h-7.619c-0.427 0-0.762-0.335-0.762-0.762s0.335-0.762 0.762-0.762z"></path>
<path d="M0.762 12.19h7.619c0.427 0 0.762 0.335 0.762 0.762s-0.335 0.762-0.762 0.762h-7.619c-0.427 0-0.762-0.335-0.762-0.762s0.335-0.762 0.762-0.762z"></path>
<path d="M8.381 3.048h15.238c0.427 0 0.762 0.335 0.762 0.762s-0.335 0.762-0.762 0.762h-15.238c-0.427 0-0.762-0.335-0.762-0.762s0.335-0.762 0.762-0.762z"></path>
<path d="M0.762 3.048h4.571c0.427 0 0.762 0.335 0.762 0.762s-0.335 0.762-0.762 0.762h-4.571c-0.427 0-0.762-0.335-0.762-0.762s0.335-0.762 0.762-0.762z"></path>
<path d="M6.857 27.429h1.524c0.427 0 0.762 0.335 0.762 0.762s-0.335 0.762-0.762 0.762h-1.524c-0.427 0-0.762-0.335-0.762-0.762s0.335-0.762 0.762-0.762z"></path>
<path d="M6.857 9.143h1.524c0.427 0 0.762 0.335 0.762 0.762s-0.335 0.762-0.762 0.762h-1.524c-0.427 0-0.762-0.335-0.762-0.762s0.335-0.762 0.762-0.762z"></path>
<path d="M0.762 27.429h3.048c0.427 0 0.762 0.335 0.762 0.762s-0.335 0.762-0.762 0.762h-3.048c-0.427 0-0.762-0.335-0.762-0.762s0.335-0.762 0.762-0.762z"></path>
<path d="M0.762 9.143h3.048c0.427 0 0.762 0.335 0.762 0.762s-0.335 0.762-0.762 0.762h-3.048c-0.427 0-0.762-0.335-0.762-0.762s0.335-0.762 0.762-0.762z"></path>
<path d="M20.571 27.429h1.524c0.427 0 0.762 0.335 0.762 0.762s-0.335 0.762-0.762 0.762h-1.524c-0.427 0-0.762-0.335-0.762-0.762s0.335-0.762 0.762-0.762z"></path>
<path d="M11.429 27.429h6.095c0.427 0 0.762 0.335 0.762 0.762s-0.335 0.762-0.762 0.762h-6.095c-0.427 0-0.762-0.335-0.762-0.762s0.335-0.762 0.762-0.762z"></path>
<path d="M25.143 27.429h6.095c0.427 0 0.762 0.335 0.762 0.762s-0.335 0.762-0.762 0.762h-6.095c-0.427 0-0.762-0.335-0.762-0.762s0.335-0.762 0.762-0.762z"></path>
<path d="M12.952 15.238h12.19c0.427 0 0.762 0.335 0.762 0.762s-0.335 0.762-0.762 0.762h-12.19c-0.427 0-0.762-0.335-0.762-0.762s0.335-0.762 0.762-0.762z"></path>
<path d="M5.333 15.238h4.571c0.427 0 0.762 0.335 0.762 0.762s-0.335 0.762-0.762 0.762h-4.571c-0.427 0-0.762-0.335-0.762-0.762s0.335-0.762 0.762-0.762z"></path>
<path d="M0.762 15.238h1.524c0.427 0 0.762 0.335 0.762 0.762s-0.335 0.762-0.762 0.762h-1.524c-0.427 0-0.762-0.335-0.762-0.762s0.335-0.762 0.762-0.762z"></path>
<path d="M14.476 6.095h6.095c0.427 0 0.762 0.335 0.762 0.762s-0.335 0.762-0.762 0.762h-6.095c-0.427 0-0.762-0.335-0.762-0.762s0.335-0.762 0.762-0.762z"></path>
<path d="M0.762 6.095h10.667c0.427 0 0.762 0.335 0.762 0.762s-0.335 0.762-0.762 0.762h-10.667c-0.427 0-0.762-0.335-0.762-0.762s0.335-0.762 0.762-0.762z"></path>
<path d="M5.333 21.333h13.714c0.427 0 0.762 0.335 0.762 0.762s-0.335 0.762-0.762 0.762h-13.714c-0.427 0-0.762-0.335-0.762-0.762s0.335-0.762 0.762-0.762z"></path>
<path d="M0.762 21.333h1.524c0.427 0 0.762 0.335 0.762 0.762s-0.335 0.762-0.762 0.762h-1.524c-0.427 0-0.762-0.335-0.762-0.762s0.335-0.762 0.762-0.762z"></path>
<path d="M19.048 9.143h7.619c0.427 0 0.762 0.335 0.762 0.762s-0.335 0.762-0.762 0.762h-7.619c-0.427 0-0.762-0.335-0.762-0.762s0.335-0.762 0.762-0.762z"></path>
<path d="M19.048 12.19h7.619c0.427 0 0.762 0.335 0.762 0.762s-0.335 0.762-0.762 0.762h-7.619c-0.427 0-0.762-0.335-0.762-0.762s0.335-0.762 0.762-0.762z"></path>
<path d="M0.762 0h18.286c0.427 0 0.762 0.335 0.762 0.762s-0.335 0.762-0.762 0.762h-18.286c-0.427 0-0.762-0.335-0.762-0.762s0.335-0.762 0.762-0.762z"></path>
<path d="M22.095 0h9.143c0.427 0 0.762 0.335 0.762 0.762s-0.335 0.762-0.762 0.762h-9.143c-0.427 0-0.762-0.335-0.762-0.762s0.335-0.762 0.762-0.762z"></path>
<path d="M22.095 21.333h3.048c0.427 0 0.762 0.335 0.762 0.762s-0.335 0.762-0.762 0.762h-3.048c-0.427 0-0.762-0.335-0.762-0.762s0.335-0.762 0.762-0.762z"></path>
<path d="M28.19 21.333h3.048c0.427 0 0.762 0.335 0.762 0.762s-0.335 0.762-0.762 0.762h-3.048c-0.427 0-0.762-0.335-0.762-0.762s0.335-0.762 0.762-0.762z"></path>
<path d="M26.667 18.286h4.571c0.427 0 0.762 0.335 0.762 0.762s-0.335 0.762-0.762 0.762h-4.571c-0.427 0-0.762-0.335-0.762-0.762s0.335-0.762 0.762-0.762z"></path>
<path d="M26.667 3.048h4.571c0.427 0 0.762 0.335 0.762 0.762s-0.335 0.762-0.762 0.762h-4.571c-0.427 0-0.762-0.335-0.762-0.762s0.335-0.762 0.762-0.762z"></path>
<path d="M28.19 15.238h3.048c0.427 0 0.762 0.335 0.762 0.762s-0.335 0.762-0.762 0.762h-3.048c-0.427 0-0.762-0.335-0.762-0.762s0.335-0.762 0.762-0.762z"></path>
<path d="M28.19 6.095h3.048c0.427 0 0.762 0.335 0.762 0.762s-0.335 0.762-0.762 0.762h-3.048c-0.427 0-0.762-0.335-0.762-0.762s0.335-0.762 0.762-0.762z"></path>
<path d="M29.714 9.143h1.524c0.427 0 0.762 0.335 0.762 0.762s-0.335 0.762-0.762 0.762h-1.524c-0.427 0-0.762-0.335-0.762-0.762s0.335-0.762 0.762-0.762z"></path>
<path d="M29.714 12.19h1.524c0.427 0 0.762 0.335 0.762 0.762s-0.335 0.762-0.762 0.762h-1.524c-0.427 0-0.762-0.335-0.762-0.762s0.335-0.762 0.762-0.762z"></path>
<path d="M17.524 24.381h13.714c0.427 0 0.762 0.335 0.762 0.762s-0.335 0.762-0.762 0.762h-13.714c-0.427 0-0.762-0.335-0.762-0.762s0.335-0.762 0.762-0.762z"></path>
<path d="M11.429 24.381h3.048c0.427 0 0.762 0.335 0.762 0.762s-0.335 0.762-0.762 0.762h-3.048c-0.427 0-0.762-0.335-0.762-0.762s0.335-0.762 0.762-0.762z"></path>
<path d="M23.619 30.476h7.619c0.427 0 0.762 0.335 0.762 0.762s-0.335 0.762-0.762 0.762h-7.619c-0.427 0-0.762-0.335-0.762-0.762s0.335-0.762 0.762-0.762z"></path>
<path d="M11.429 30.476h9.143c0.427 0 0.762 0.335 0.762 0.762s-0.335 0.762-0.762 0.762h-9.143c-0.427 0-0.762-0.335-0.762-0.762s0.335-0.762 0.762-0.762z"></path>
<path d="M11.429 9.143h4.571c0.427 0 0.762 0.335 0.762 0.762s-0.335 0.762-0.762 0.762h-4.571c-0.427 0-0.762-0.335-0.762-0.762s0.335-0.762 0.762-0.762z"></path>
<path d="M11.429 12.19h4.571c0.427 0 0.762 0.335 0.762 0.762s-0.335 0.762-0.762 0.762h-4.571c-0.427 0-0.762-0.335-0.762-0.762s0.335-0.762 0.762-0.762z"></path>
</svg>
