<!-- Generated by IcoMoon.io -->
<svg version="1.1" xmlns="http://www.w3.org/2000/svg" width="32" height="32" viewBox="0 0 32 32">
<title>prolog</title>
<path d="M10.406 10.977c0 0.266-0.216 0.482-0.482 0.482s-0.482-0.216-0.482-0.482c0-0.266 0.216-0.482 0.482-0.482s0.482 0.216 0.482 0.482z"></path>
<path d="M10.633 8.68c-1.566 0-2.836 1.27-2.836 2.836s1.27 2.836 2.836 2.836c1.566 0 2.836-1.27 2.836-2.836s-1.27-2.836-2.836-2.836zM10.704 13.303c-0.948 0-1.716-0.768-1.716-1.716s0.768-1.716 1.716-1.716c0.948 0 1.716 0.768 1.716 1.716s-0.768 1.716-1.716 1.716z"></path>
<path d="M22.913 11.459c0.266 0 0.482-0.216 0.482-0.482s-0.216-0.482-0.482-0.482c-0.267 0-0.482 0.216-0.482 0.482s0.216 0.482 0.482 0.482z"></path>
<path d="M23.792 14.466c1.566 0 2.836-1.27 2.836-2.836s-1.27-2.836-2.836-2.836c-1.566 0-2.836 1.27-2.836 2.836s1.27 2.836 2.836 2.836zM23.693 9.9c0.948 0 1.716 0.768 1.716 1.716s-0.768 1.716-1.716 1.716c-0.948 0-1.716-0.768-1.716-1.716s0.768-1.716 1.716-1.716z"></path>
<path d="M30.251 15.355c0-3.889-1.559-7.412-4.084-9.983-0.469-1.431-0.415-3.41 0.18-4.311 0.207-0.314 0.429-0.619 0.667-0.961-2.112-0.36-3.909 0.245-5.111 1.752-0.146 0.183-0.282 0.291-0.424 0.344-1.687-0.703-3.537-1.092-5.478-1.092-1.948 0-3.805 0.392-5.497 1.1-0.15-0.050-0.292-0.16-0.445-0.352-1.203-1.506-2.999-2.111-5.111-1.752 0.238 0.342 0.46 0.647 0.667 0.961 0.604 0.914 0.651 2.938 0.159 4.374-2.489 2.566-4.024 6.063-4.024 9.92 0 1.815 0.341 3.55 0.96 5.147 0.155 0.438 0.297 0.881 0.441 1.322 0.132 0.404 0.259 0.804 0.376 1.206 0.344 1.182 0.555 2.404 0.59 3.635 0.010 0.337 0.004 0.674-0.005 1.010-0.003 0.116-0.007 0.231-0.012 0.347l2.887-2.642c0.524 0.483 1.235 0.919 2.093 1.29-0.869 0.608-1.438 1.615-1.438 2.756 0 0.974 0.417 1.848 1.078 2.462-0.064-0.214-0.1-0.44-0.1-0.675 0-1.292 1.048-2.34 2.34-2.34s2.34 1.047 2.34 2.34c0 0.277-0.051 0.541-0.139 0.788 0.735-0.616 1.202-1.541 1.202-2.575 0-0.566-0.14-1.098-0.387-1.566 0.772 0.080 1.576 0.123 2.404 0.123 0.564 0 1.116-0.020 1.655-0.058-0.226 0.452-0.354 0.961-0.354 1.501 0 0.974 0.417 1.848 1.078 2.462-0.064-0.214-0.1-0.44-0.1-0.675 0-1.292 1.048-2.34 2.34-2.34s2.34 1.047 2.34 2.34c0 0.277-0.050 0.541-0.139 0.788 0.735-0.616 1.202-1.541 1.202-2.575 0-1.029-0.463-1.95-1.192-2.566 0.888-0.34 1.644-0.745 2.227-1.198l2.495 2.283c-0.005-0.116-0.009-0.231-0.012-0.347-0.009-0.336-0.015-0.673-0.005-1.010 0.035-1.232 0.246-2.453 0.59-3.635 0.117-0.401 0.244-0.802 0.376-1.206 0.152-0.465 0.3-0.932 0.465-1.392l-0.001 0.001c0.584-1.556 0.906-3.239 0.906-5zM3.406 19.606l-0.535-1.599 0.71 0.653 1.1-0.389-1.276 1.335zM3.68 20.75l0.71 0.653 1.1-0.389-1.276 1.335-0.535-1.599zM5.424 18.367l0.659 0.704 1.126-0.305-1.372 1.236-0.413-1.635zM4.895 25.136l-0.535-1.599 0.71 0.653 1.1-0.389-1.276 1.335zM6.66 22.86l-0.535-1.599 0.71 0.653 1.1-0.389-1.276 1.335zM7.87 18.856l0.659 0.704 1.126-0.305-1.372 1.236-0.413-1.635zM16.042 21.198c-0.283-0.422-0.52-0.896-0.74-1.323-0.253-0.49-0.507-0.978-0.762-1.467-0.488-0.934-1.212-1.884-1.455-2.937-0.971 0.79-2.209 1.263-3.558 1.263-3.117 0-5.644-2.527-5.644-5.644s2.527-5.644 5.644-5.644c0.829 0 1.615 0.18 2.324 0.501 0.32 0.136 0.628 0.3 0.918 0.492 1.464 1.013 2.423 2.704 2.423 4.619 0 0.275-0.022 0.545-0.060 0.809 0.288-0.090 0.594-0.139 0.911-0.139 0.366 0 0.716 0.068 1.041 0.187-0.049-0.298-0.077-0.602-0.077-0.913 0-0.489 0.066-0.961 0.183-1.413 0.006-0.022 0.012-0.044 0.018-0.067 0.031-0.114 0.065-0.226 0.103-0.337 0.026-0.078 0.054-0.154 0.083-0.23 0.012-0.031 0.024-0.063 0.037-0.093 0.841-2.061 2.863-3.514 5.227-3.514 3.117 0 5.644 2.527 5.644 5.644s-2.527 5.644-5.644 5.644c-1.173 0-2.262-0.358-3.164-0.97-0.163-0.109-0.318-0.228-0.468-0.353-0.119 0.562-0.404 1.040-0.688 1.574-0.388 0.731-0.771 1.464-1.154 2.198l-1.142 2.113zM26.65 18.559l-0.413 1.635-1.372-1.236 1.126 0.305 0.659-0.704zM22.419 19.447l1.126 0.305 0.659-0.704-0.413 1.635-1.372-1.236zM25.413 23.052l-1.276-1.335 1.1 0.389 0.71-0.653-0.535 1.599zM27.178 25.327l-1.276-1.335 1.1 0.389 0.71-0.653-0.535 1.599zM27.859 22.541l-1.276-1.335 1.1 0.389 0.71-0.653-0.535 1.599zM28.667 19.797l-1.276-1.336 1.1 0.389 0.71-0.653-0.535 1.599z"></path>
<path d="M16.035 12.291c-1.46 0-2.645 1.184-2.645 2.645 0 1.166 0.822 2.174 1.338 3.162 0.222 0.425 0.443 0.85 0.663 1.276 0.192 0.371 0.397 0.783 0.644 1.15l0.993-1.837c0.333-0.638 0.666-1.276 1.003-1.911 0.322-0.607 0.649-1.128 0.649-1.84 0-1.461-1.184-2.645-2.645-2.645z"></path>
</svg>
