<!-- Generated by IcoMoon.io -->
<svg version="1.1" xmlns="http://www.w3.org/2000/svg" width="32" height="32" viewBox="0 0 32 32">
<title>python</title>
<path d="M12.164 15.429h7.625c2.123 0 3.817-1.748 3.817-3.879v-7.269c0-2.069-1.745-3.623-3.817-3.968-1.311-0.218-2.672-0.318-3.977-0.311s-2.551 0.117-3.648 0.311c-3.231 0.571-3.817 1.765-3.817 3.968v2.909h7.634v0.97h-10.499c-2.219 0-4.162 1.334-4.769 3.87-0.701 2.908-0.732 4.723 0 7.759 0.543 2.26 1.839 3.871 4.057 3.871h2.625v-3.488c0-2.519 2.18-4.742 4.769-4.742zM11.683 5.25c-0.791 0-1.433-0.648-1.433-1.45 0-0.805 0.641-1.459 1.433-1.459 0.789 0 1.432 0.654 1.432 1.459 0 0.802-0.644 1.45-1.432 1.45z"></path>
<path d="M31.24 12.030c-0.548-2.209-1.596-3.87-3.817-3.87h-2.865v3.39c0 2.628-2.228 4.84-4.769 4.84h-7.625c-2.089 0-3.817 1.788-3.817 3.879v7.27c0 2.069 1.799 3.286 3.817 3.879 2.417 0.711 4.734 0.839 7.625 0 1.922-0.556 3.817-1.676 3.817-3.879v-2.91h-7.625v-0.97h11.442c2.219 0 3.045-1.548 3.817-3.871 0.797-2.391 0.763-4.691 0-7.759zM20.269 26.569c0.791 0 1.432 0.648 1.432 1.45 0 0.805-0.641 1.459-1.432 1.459-0.789 0-1.432-0.654-1.432-1.459 0-0.802 0.644-1.45 1.432-1.45z"></path>
</svg>
