<!-- Generated by IcoMoon.io -->
<svg version="1.1" xmlns="http://www.w3.org/2000/svg" width="28" height="32" viewBox="0 0 28 32">
<title>qq</title>
<path d="M27.11 26.278c-0.72 0.087-2.804-3.296-2.804-3.296 0 1.959-1.009 4.515-3.191 6.362 1.053 0.325 3.428 1.198 2.863 2.151-0.457 0.771-7.844 0.493-9.977 0.252-2.133 0.24-9.52 0.519-9.977-0.252-0.565-0.953 1.807-1.826 2.861-2.151-2.183-1.846-3.191-4.403-3.191-6.362 0 0-2.083 3.383-2.804 3.296-0.336-0.041-0.776-1.853 0.584-6.232 0.641-2.064 1.375-3.78 2.509-6.611-0.191-7.306 2.828-13.435 10.016-13.435 7.109 0 10.197 6.008 10.017 13.435 1.132 2.826 1.869 4.553 2.509 6.611 1.361 4.379 0.92 6.191 0.584 6.232z"></path>
</svg>
