<!-- Generated by IcoMoon.io -->
<svg version="1.1" xmlns="http://www.w3.org/2000/svg" width="32" height="32" viewBox="0 0 32 32">
<title>quinscape</title>
<path d="M19.6 29.663h-0.063c-5.457 0-9.881-4.424-9.881-9.881s4.424-9.881 9.881-9.881v0c5.931 0 10.512 5.194 9.813 11.037 0.25 0.319 0.512 0.6 0.7 0.956 0.837-1.894 1.269-3.9 1.269-6.106 0-8.444-6.844-15.287-15.288-15.287s-15.281 6.844-15.281 15.287 6.844 15.288 15.281 15.288c0.035 0 0.076 0 0.117 0 1.528 0 3.001-0.231 4.388-0.66l-0.105 0.028c-0.325-0.219-0.556-0.506-0.831-0.781zM19.594 29.656l0.025 0.006zM24.494 19.1c-3.424 0-6.2 2.776-6.2 6.2s2.776 6.2 6.2 6.2c3.424 0 6.2-2.776 6.2-6.2v0c0-0 0-0.001 0-0.001 0-3.423-2.775-6.199-6.199-6.199-0 0-0.001 0-0.001 0h0z"></path>
</svg>
