<!-- Generated by IcoMoon.io -->
<svg version="1.1" xmlns="http://www.w3.org/2000/svg" width="28" height="32" viewBox="0 0 28 32">
<title>quora</title>
<path d="M27.531 24.169h-1.831c-0.094 0.844-0.656 1.925-2.063 1.925-1.281 0-2.206-0.887-3.094-2.238 2.762-2.137 4.669-5.469 4.669-9.563 0.006-7.344-6.038-12.294-12.4-12.294-6.231 0-12.356 4.981-12.356 12.294 0 8.381 8.206 13.85 15.562 11.813 1.231 2.1 2.856 3.894 5.95 3.894 5.113 0 5.675-4.706 5.563-5.831zM18.563 20.575c-1.219-1.825-2.731-3.262-5.719-3.262-1.906 0-3.394 0.625-4.313 1.425l0.762 1.519c0.387-0.188 0.813-0.25 1.238-0.25 2.219 0 3.356 1.925 4.325 3.831-0.625 0.188-1.294 0.262-2.044 0.262-4.688 0-6.719-3.313-6.719-9.794 0-6.525 2.031-9.869 6.719-9.869 4.762 0 6.794 3.344 6.794 9.856 0.006 2.612-0.337 4.725-1.044 6.281z"></path>
</svg>
