<!-- Generated by IcoMoon.io -->
<svg version="1.1" xmlns="http://www.w3.org/2000/svg" width="36" height="32" viewBox="0 0 36 32">
<title>r-project</title>
<path d="M36.313 14.162c0-6.719-8.131-12.162-18.156-12.162s-18.156 5.444-18.156 12.162c0 5.987 6.456 10.963 14.963 11.969v3.869h6.194v-3.844c1.519-0.169 2.975-0.462 4.337-0.869l2.506 4.712h7l-4.212-7.106c3.406-2.212 5.525-5.306 5.525-8.731zM7.138 15.069c0-4.594 6.181-8.313 13.8-8.313s13.244 2.544 13.244 8.313c0 3.131-1.656 5.313-4.394 6.65-0.15-0.1-0.294-0.181-0.4-0.231-0.637-0.325-1.738-0.656-1.738-0.656s5.413-0.4 5.413-5.794-5.663-5.494-5.663-5.494h-12.438v13.019c-4.631-1.344-7.825-4.194-7.825-7.494zM21.206 17.462v-3.475c3.613 0 5.488-0.425 5.488 1.706 0 2.281-2.387 1.769-5.488 1.769zM21.15 21.994h1.663c0.675 0 1.181 0.731 1.5 1.2-1.006 0.119-2.063 0.175-3.163 0.181v-1.381z"></path>
</svg>
