<!-- Generated by IcoMoon.io -->
<svg version="1.1" xmlns="http://www.w3.org/2000/svg" width="32" height="32" viewBox="0 0 32 32">
<title>raphael</title>
<path d="M30.839 19.878c0.755-1.141 1.161-2.478 1.161-3.877 0-1.886-0.735-3.658-2.069-4.988l-8.948-8.942c-1.276-1.278-3.039-2.070-4.984-2.070s-3.707 0.792-4.983 2.071l-0.003-0.003-8.945 8.944c-1.334 1.333-2.069 3.104-2.069 4.989s0.734 3.656 2.068 4.988l8.065 8.065c0.323 0.363 0.663 0.702 1.021 1.014 1.315 1.246 3.027 1.931 4.845 1.931 1.884 0 3.655-0.733 4.987-2.066l8.702-8.701c0.022-0.022 0.044-0.044 0.066-0.066l0.176-0.176c0.336-0.336 0.634-0.7 0.892-1.085 0.006-0.009 0.013-0.017 0.019-0.025l-0.003-0.001zM29.39 16.001c0 0.877-0.255 1.715-0.726 2.431-0.282 0.386-0.577 0.723-0.881 1.015l-0.022 0.021c-1.431 1.361-3.047 1.747-4.419 1.747-0.755 0-1.436-0.117-1.971-0.252-3.135-0.792-6.543-3.49-8.103-7.425 0.84 0.355 1.763 0.551 2.732 0.551 3.637 0 6.639-2.771 7.007-6.312l5.080 5.080c0.84 0.84 1.304 1.957 1.304 3.144zM16 2.61c2.446 0 4.435 1.99 4.435 4.435s-1.989 4.436-4.435 4.436c-2.445 0-4.435-1.99-4.435-4.436s1.989-4.435 4.435-4.435zM3.913 19.145c-0.841-0.84-1.303-1.956-1.303-3.143s0.463-2.303 1.303-3.143l3.437-3.437c-0.897 3.054-1.282 6.267-1.076 9.348 0.074 1.107 0.227 2.169 0.447 3.183l-2.808-2.807zM9.788 10.365c0.755 5.906 5.43 11.735 10.943 13.129 0.898 0.227 1.779 0.338 2.631 0.338 0.013 0 0.025-0.001 0.037-0.001l-4.258 4.258c-0.84 0.839-1.955 1.301-3.142 1.301-0.826 0-1.615-0.229-2.303-0.648l0.001-0.002c-0.271-0.18-0.529-0.382-0.779-0.597-0.020-0.019-0.041-0.035-0.060-0.055l-0.86-0.86c-1.769-2.031-2.882-5.053-3.121-8.634-0.181-2.71 0.144-5.535 0.912-8.23z"></path>
</svg>
