<!-- Generated by IcoMoon.io -->
<svg version="1.1" xmlns="http://www.w3.org/2000/svg" width="32" height="32" viewBox="0 0 32 32">
<title>rasberry-pi</title>
<path d="M26.369 14.528l-0.227-0.404c0.009-2.9-1.316-4.081-2.861-4.98 0.467-0.125 0.95-0.228 1.083-0.824 0.803-0.209 0.972-0.586 1.052-0.986 0.21-0.142 0.913-0.542 0.84-1.228 0.394-0.276 0.613-0.63 0.502-1.132 0.423-0.469 0.534-0.856 0.355-1.213 0.508-0.641 0.283-0.973 0.066-1.309 0.38-0.7 0.045-1.452-1.019-1.326-0.423-0.631-1.345-0.488-1.488-0.485-0.16-0.203-0.37-0.376-1.018-0.292-0.42-0.38-0.889-0.315-1.374-0.129-0.575-0.454-0.955-0.090-1.39 0.048-0.696-0.228-0.855 0.084-1.197 0.211-0.759-0.16-0.99 0.189-1.354 0.558l-0.423-0.008c-1.145 0.675-1.714 2.049-1.916 2.755-0.202-0.706-0.769-2.081-1.914-2.755l-0.423 0.008c-0.364-0.369-0.595-0.718-1.354-0.558-0.342-0.127-0.501-0.438-1.197-0.211-0.285-0.090-0.548-0.278-0.856-0.268l0 0c-0.162 0.005-0.336 0.065-0.534 0.221-0.484-0.187-0.954-0.252-1.373 0.129-0.648-0.084-0.859 0.090-1.019 0.292-0.142-0.003-1.065-0.146-1.488 0.485-1.063-0.126-1.399 0.625-1.019 1.326-0.217 0.336-0.442 0.669 0.066 1.309-0.18 0.357-0.068 0.744 0.355 1.213-0.112 0.502 0.108 0.856 0.502 1.132-0.074 0.687 0.63 1.086 0.84 1.228 0.081 0.4 0.249 0.778 1.052 0.986 0.132 0.596 0.615 0.699 1.083 0.824-1.545 0.898-2.87 2.080-2.861 4.98l-0.226 0.404c-1.772 1.078-3.366 4.541-0.873 7.356 0.163 0.881 0.436 1.514 0.679 2.215 0.364 2.822 2.737 4.144 3.363 4.301 0.917 0.699 1.894 1.362 3.216 1.826 1.246 1.285 2.596 1.775 3.954 1.774 0.020 0 0.040 0 0.060 0 1.357 0.001 2.707-0.489 3.954-1.774 1.322-0.465 2.299-1.128 3.216-1.826 0.626-0.156 2.999-1.478 3.363-4.301 0.243-0.701 0.516-1.333 0.679-2.215 2.493-2.815 0.899-6.278-0.873-7.356zM24.767 14.033c-0.092 1.168-6.088-4.067-5.053-4.241 2.809-0.475 5.147 1.195 5.053 4.241zM18.185 1.829c0.052 0.262 0.111 0.428 0.178 0.477 0.333-0.363 0.606-0.734 1.035-1.083 0.001 0.205-0.102 0.427 0.154 0.59 0.23-0.314 0.541-0.595 0.954-0.833-0.199 0.348-0.034 0.454 0.073 0.598 0.315-0.274 0.615-0.552 1.196-0.768-0.159 0.197-0.381 0.388-0.145 0.614 0.325-0.206 0.651-0.411 1.423-0.558-0.174 0.197-0.533 0.393-0.315 0.59 0.408-0.158 0.859-0.273 1.358-0.34-0.239 0.2-0.438 0.395-0.242 0.55 0.436-0.136 1.037-0.32 1.625-0.162l-0.372 0.38c-0.041 0.051 0.87 0.040 1.471 0.048-0.22 0.31-0.443 0.608-0.574 1.14 0.060 0.061 0.358 0.027 0.639 0-0.288 0.616-0.788 0.771-0.905 1.035 0.176 0.135 0.42 0.1 0.687 0.008-0.207 0.434-0.642 0.731-0.986 1.083 0.087 0.063 0.239 0.1 0.598 0.057-0.318 0.343-0.701 0.656-1.156 0.938 0.080 0.095 0.357 0.091 0.614 0.097-0.412 0.409-0.942 0.621-1.439 0.889 0.248 0.172 0.425 0.132 0.614 0.13-0.351 0.293-0.949 0.446-1.503 0.622 0.105 0.166 0.211 0.212 0.437 0.259-0.587 0.33-1.428 0.179-1.665 0.347 0.057 0.166 0.219 0.274 0.412 0.364-0.945 0.056-3.53-0.035-4.026-2.021 0.967-1.079 2.733-2.346 5.77-3.912-2.363 0.803-4.495 1.873-6.279 3.346-2.098-0.992-0.652-3.493 0.372-4.486zM15.988 8.992v-0c1.488-0.016 3.33 1.11 3.323 2.172-0.006 0.937-1.294 1.695-3.311 1.681-1.976-0.023-3.306-0.953-3.301-1.861 0.004-0.747 1.613-2.035 3.29-1.992zM8.467 8.191c0.225-0.047 0.331-0.092 0.437-0.259-0.555-0.177-1.152-0.329-1.504-0.622 0.19 0.002 0.367 0.042 0.614-0.13-0.497-0.268-1.027-0.48-1.439-0.889 0.257-0.006 0.534-0.002 0.614-0.097-0.455-0.282-0.838-0.595-1.156-0.938 0.359 0.043 0.511 0.006 0.598-0.057-0.344-0.352-0.779-0.649-0.986-1.083 0.267 0.092 0.511 0.127 0.687-0.008-0.117-0.264-0.617-0.419-0.905-1.035 0.281 0.027 0.579 0.061 0.638 0-0.13-0.531-0.354-0.83-0.574-1.139 0.601-0.009 1.513 0.002 1.471-0.048l-0.372-0.38c0.587-0.158 1.188 0.025 1.625 0.162 0.196-0.155-0.003-0.35-0.242-0.55 0.499 0.067 0.95 0.181 1.358 0.34 0.218-0.197-0.142-0.394-0.315-0.59 0.771 0.146 1.098 0.352 1.423 0.558 0.236-0.226 0.014-0.418-0.145-0.614 0.582 0.215 0.881 0.493 1.196 0.768 0.107-0.144 0.272-0.25 0.073-0.598 0.413 0.238 0.724 0.518 0.954 0.833 0.255-0.163 0.152-0.385 0.154-0.59 0.429 0.349 0.701 0.72 1.035 1.083 0.067-0.049 0.126-0.214 0.178-0.477 1.024 0.993 2.47 3.494 0.372 4.486-1.785-1.472-3.916-2.542-6.278-3.345 3.036 1.565 4.801 2.832 5.768 3.91-0.495 1.986-3.080 2.077-4.026 2.021 0.194-0.090 0.355-0.198 0.412-0.364-0.237-0.169-1.078-0.018-1.665-0.348zM11.952 9.702c1.035 0.174-4.96 5.409-5.053 4.241-0.094-3.046 2.243-4.716 5.053-4.241zM5.658 21.367c-1.457-1.172-1.926-4.604 0.775-6.146 1.628-0.436 0.549 6.735-0.775 6.146zM11.337 27.51c-0.822 0.496-2.817 0.291-4.236-1.746-0.957-1.71-0.833-3.45-0.162-3.961 1.004-0.612 2.556 0.215 3.751 1.6 1.041 1.254 1.515 3.457 0.647 4.106zM9.722 20.031c-1.508-0.988-1.78-3.227-0.607-5.001s3.345-2.412 4.853-1.424c1.508 0.988 1.78 3.227 0.607 5.001s-3.345 2.412-4.853 1.424zM15.993 31.002c-1.807 0.078-3.58-1.48-3.557-2.021-0.027-0.792 2.201-1.411 3.653-1.374 1.462-0.064 3.424 0.471 3.427 1.18 0.024 0.689-1.779 2.245-3.524 2.215zM19.713 23.192c0.011 1.853-1.61 3.364-3.62 3.373s-3.647-1.485-3.658-3.338c0-0.012 0-0.024 0-0.035-0.011-1.853 1.61-3.363 3.62-3.373s3.647 1.485 3.658 3.338c0 0.012 0 0.024 0 0.035zM17.431 18.429c-1.172-1.774-0.901-4.013 0.607-5.001s3.681-0.35 4.853 1.424c1.172 1.774 0.901 4.013-0.607 5.001s-3.681 0.35-4.853-1.424zM24.801 25.862c-1.558 2.161-3.666 2.246-4.451 1.643-0.822-0.775-0.195-3.181 0.932-4.5l-0-0c1.289-1.455 2.666-2.405 3.626-1.663 0.646 0.644 1.025 3.068-0.106 4.519zM26.020 21.278c-1.325 0.589-2.403-6.583-0.775-6.146 2.701 1.542 2.232 4.975 0.775 6.146z"></path>
</svg>
