<!-- Generated by IcoMoon.io -->
<svg version="1.1" xmlns="http://www.w3.org/2000/svg" width="25" height="32" viewBox="0 0 25 32">
<title>raspberry-pi</title>
<path d="M18.208 23.117c-1.143 1.319-1.779 3.72-0.945 4.495 0.8 0.599 2.933 0.521 4.513-1.64 0.459-0.649 0.735-1.457 0.735-2.329 0-0.804-0.233-1.552-0.636-2.183l0.009 0.016c-0.973-0.74-2.371 0.219-3.676 1.657zM7.465 23.517c-1.211-1.387-2.784-2.211-3.801-1.6-0.68 0.509-0.807 2.247 0.164 3.956 1.437 2.032 3.467 2.239 4.295 1.743 0.879-0.651 0.4-2.849-0.657-4.1zM12.939 27.711c-1.467-0.035-3.733 0.585-3.701 1.376-0.024 0.533 1.775 2.096 3.6 2.017 1.768 0.040 3.6-1.519 3.576-2.199s-2-1.236-3.476-1.179zM12.839 9.119c-1.7-0.043-3.333 1.244-3.333 1.991 0 0.907 1.344 1.835 3.347 1.859 2.057 0.013 3.357-0.745 3.376-1.68 0.021-1.059-1.859-2.185-3.357-2.169zM8.744 9.828c-2.847-0.46-5.217 1.2-5.123 4.256 0.093 1.179 6.173-4.055 5.124-4.236v-0.020zM21.743 14.163c0.095-3.036-2.279-4.695-5.125-4.235-1.049 0.18 5.029 5.415 5.125 4.235zM22.228 15.261c-1.652-0.439-0.56 6.732 0.784 6.153 0.735-0.7 1.192-1.687 1.192-2.779 0-1.436-0.789-2.687-1.957-3.344l-0.019-0.009v-0.020zM2.361 21.495c1.343 0.6 2.436-6.572 0.785-6.133-1.188 0.672-1.977 1.927-1.977 3.367 0 1.095 0.457 2.084 1.191 2.785l0.001 0.001zM14.915 13.564c-0.84 0.653-1.376 1.665-1.376 2.801 0 0.832 0.287 1.596 0.767 2.2l-0.005-0.007c0.656 1.117 1.851 1.856 3.219 1.856 0.623 0 1.211-0.153 1.727-0.424l-0.020 0.009c0.841-0.653 1.379-1.664 1.379-2.801 0-0.832-0.287-1.596-0.768-2.2l0.005 0.007c-0.645-1.113-1.832-1.851-3.191-1.851-0.635 0-1.231 0.161-1.752 0.444l0.020-0.009zM10.781 13.744c-0.497-0.265-1.088-0.42-1.715-0.42-1.36 0-2.548 0.731-3.193 1.821l-0.009 0.017c-0.476 0.6-0.763 1.368-0.763 2.203 0 1.14 0.536 2.155 1.369 2.807l0.008 0.005c0.501 0.273 1.097 0.433 1.731 0.433 1.359 0 2.545-0.737 3.181-1.835l0.009-0.017c0.469-0.597 0.752-1.359 0.752-2.187 0-1.137-0.533-2.149-1.365-2.8l-0.008-0.005zM16.607 23.293c-0.103-1.865-1.64-3.339-3.521-3.339-0.065 0-0.131 0.001-0.196 0.005h0.009c-0.037-0.001-0.083-0.003-0.127-0.003-1.897 0-3.447 1.492-3.537 3.368v0.047c0.104 1.865 1.643 3.339 3.524 3.339 0.065 0 0.131-0.001 0.196-0.005h-0.009c0.047 0.003 0.101 0.004 0.156 0.004 1.884 0 3.421-1.488 3.5-3.352v-0.045l0.013-0.020zM20.893 3.116c-2.253 1.028-4.187 2.341-5.861 3.927l0.009-0.009c0.503 2 3.125 2.077 4.084 2.016-0.185-0.059-0.335-0.188-0.419-0.355l-0.001-0.004c0.24-0.16 1.095-0.021 1.691-0.34-0.228-0.040-0.336-0.081-0.439-0.267 0.576-0.127 1.084-0.34 1.541-0.629l-0.020 0.012c-0.044 0.007-0.093 0.012-0.145 0.012-0.176 0-0.341-0.049-0.481-0.133l0.004 0.003c0.559-0.239 1.039-0.533 1.471-0.885l-0.011 0.008c-0.267 0-0.541 0-0.621-0.1 0.448-0.263 0.833-0.572 1.167-0.931l0.003-0.003c-0.363 0.060-0.52 0.021-0.605-0.040 0.393-0.301 0.725-0.659 0.989-1.064l0.009-0.016c-0.101 0.053-0.221 0.084-0.348 0.084s-0.247-0.031-0.352-0.085l0.004 0.003c0.121-0.259 0.627-0.419 0.92-1.039-0.097 0.025-0.209 0.041-0.324 0.041s-0.227-0.015-0.333-0.043l0.009 0.003c0.124-0.437 0.323-0.817 0.585-1.145l-0.005 0.007c-0.127 0.005-0.275 0.008-0.424 0.008-0.375 0-0.744-0.017-1.109-0.051l0.047 0.004 0.377-0.38c-0.165-0.032-0.355-0.051-0.549-0.051-0.396 0-0.773 0.077-1.119 0.219l0.020-0.007c-0.199-0.14 0-0.34 0.247-0.533-0.513 0.067-0.979 0.184-1.42 0.349l0.044-0.015c-0.219-0.2 0.133-0.38 0.32-0.581-0.551 0.095-1.041 0.291-1.475 0.569l0.016-0.009c-0.24-0.22-0.020-0.419 0.133-0.599-0.472 0.183-0.876 0.44-1.221 0.76l0.003-0.003c-0.12-0.133-0.279-0.239-0.080-0.599-0.388 0.216-0.713 0.497-0.973 0.832l-0.005 0.007c-0.259-0.179-0.159-0.4-0.159-0.599-0.38 0.337-0.727 0.691-1.047 1.067l-0.012 0.015c-0.081-0.041-0.133-0.2-0.18-0.461-1.039 1-2.519 3.497-0.38 4.475 1.813-1.421 3.932-2.559 6.229-3.293l0.143-0.040 0.055-0.1zM4.548 3.116c2.441 0.777 4.56 1.921 6.411 3.389l-0.041-0.032c2.133-1 0.657-3.497-0.376-4.475-0.055 0.259-0.113 0.439-0.18 0.479-0.332-0.389-0.676-0.743-1.040-1.071l-0.011-0.009c0 0.2 0.103 0.44-0.156 0.6-0.257-0.344-0.579-0.625-0.947-0.832l-0.015-0.008c0.199 0.341 0.033 0.44-0.075 0.599-0.329-0.344-0.729-0.616-1.177-0.792l-0.023-0.008c0.16 0.199 0.4 0.4 0.16 0.62-0.412-0.271-0.897-0.467-1.419-0.556l-0.023-0.003c0.18 0.199 0.533 0.4 0.317 0.6-0.401-0.16-0.867-0.281-1.352-0.341l-0.028-0.003c0.241 0.2 0.456 0.385 0.256 0.533-0.335-0.147-0.724-0.231-1.132-0.231-0.191 0-0.379 0.019-0.559 0.053l0.019-0.003 0.379 0.379c-0.323 0.035-0.697 0.055-1.076 0.055-0.147 0-0.293-0.003-0.44-0.009l0.021 0.001c0.265 0.317 0.467 0.7 0.576 1.119l0.004 0.020c-0.060 0.060-0.36 0.021-0.644 0 0.3 0.599 0.8 0.76 0.917 1.020-0.101 0.055-0.221 0.087-0.348 0.087s-0.248-0.032-0.352-0.088l0.004 0.001c0.292 0.409 0.62 0.764 0.988 1.073l0.009 0.007c-0.111 0.052-0.241 0.081-0.377 0.081-0.085 0-0.169-0.012-0.248-0.033l0.007 0.001c0.335 0.359 0.716 0.667 1.135 0.92l0.024 0.013c-0.080 0.093-0.361 0.092-0.639 0.1 0.42 0.347 0.901 0.644 1.42 0.869l0.039 0.015c-0.136 0.095-0.304 0.151-0.487 0.151-0.047 0-0.093-0.004-0.139-0.011h0.005c0.436 0.28 0.944 0.495 1.488 0.613l0.031 0.005c-0.095 0.157-0.264 0.263-0.459 0.267 0.599 0.339 1.437 0.18 1.677 0.36-0.085 0.171-0.233 0.3-0.413 0.359l-0.005 0.001c0.959 0.060 3.6-0.020 4.096-2.019-1.664-1.569-3.599-2.876-5.723-3.836l-0.132-0.053 0.053 0.021zM6.86 0.133c0.324 0.044 0.617 0.137 0.885 0.273l-0.016-0.007c0.705-0.227 0.867 0.084 1.213 0.212 0.769-0.16 1.003 0.188 1.372 0.559l0.429-0.012c0.943 0.652 1.633 1.608 1.935 2.725l0.008 0.033c0.308-1.149 0.999-2.105 1.927-2.743l0.016-0.011 0.428 0.009c0.369-0.373 0.603-0.719 1.372-0.557 0.348-0.133 0.507-0.44 1.215-0.221 0.44-0.133 0.827-0.5 1.409-0.060 0.175-0.101 0.385-0.161 0.609-0.161 0.299 0 0.572 0.107 0.785 0.284l-0.001-0.001c0.667-0.080 0.871 0.081 1.032 0.28 0.144 0 1.079-0.133 1.509 0.48 1.080-0.12 1.419 0.619 1.032 1.317 0.152 0.161 0.247 0.379 0.247 0.619 0 0.272-0.121 0.516-0.312 0.681l-0.001 0.001c0.2 0.359 0.083 0.737-0.36 1.217 0.019 0.073 0.031 0.156 0.031 0.243 0 0.379-0.212 0.707-0.524 0.873l-0.005 0.003c0.080 0.68-0.64 1.080-0.839 1.219-0.081 0.4-0.241 0.779-1.067 0.979-0.119 0.599-0.619 0.697-1.099 0.819 1.745 0.825 2.932 2.572 2.932 4.595 0 0.133-0.005 0.267-0.016 0.397l0.001-0.017 0.241 0.4c1.321 0.885 2.179 2.372 2.179 4.060 0 1.271-0.487 2.428-1.284 3.296l0.003-0.004c-0.185 0.847-0.42 1.581-0.713 2.284l0.032-0.087c-0.281 1.973-1.596 3.583-3.371 4.279l-0.036 0.013c-0.929 0.752-2.008 1.367-3.179 1.792l-0.077 0.025c-0.993 1.087-2.412 1.771-3.991 1.783h-0.125c-1.588-0.009-3.016-0.692-4.012-1.776l-0.004-0.004c-1.251-0.452-2.331-1.068-3.284-1.837l0.021 0.017c-1.811-0.711-3.128-2.319-3.412-4.263l-0.004-0.029c-0.264-0.62-0.501-1.361-0.673-2.127l-0.017-0.089c-0.799-0.865-1.288-2.025-1.288-3.3 0-1.687 0.859-3.173 2.161-4.048l0.017-0.011 0.229-0.4c-0.009-0.113-0.015-0.245-0.015-0.379 0-2.023 1.185-3.769 2.901-4.581l0.031-0.013c-0.479-0.12-0.96-0.22-1.097-0.82-0.82-0.2-0.98-0.579-1.067-0.979-0.2-0.14-0.919-0.533-0.839-1.237-0.319-0.173-0.532-0.507-0.532-0.889 0-0.089 0.012-0.175 0.033-0.257l-0.001 0.007c-0.419-0.461-0.533-0.86-0.36-1.22-0.192-0.164-0.312-0.407-0.312-0.677 0-0.241 0.096-0.461 0.252-0.621-0.38-0.7-0.040-1.459 1.039-1.333 0.423-0.62 1.364-0.479 1.501-0.479 0.161-0.2 0.38-0.38 1.039-0.3 0.216-0.177 0.495-0.285 0.799-0.285 0.22 0 0.427 0.056 0.607 0.155l-0.007-0.003c0.144-0.129 0.332-0.212 0.54-0.221h0.001z"></path>
</svg>
