<!-- Generated by IcoMoon.io -->
<svg version="1.1" xmlns="http://www.w3.org/2000/svg" width="32" height="32" viewBox="0 0 32 32">
<title>ravelry</title>
<path d="M25.462 3.844c-4.738-2.462-9.35-1.906-14.031 0.281-0.706 0.325-0.969 0.662-1.244 1.188-0.644 1.2-1.012 2.338-1.244 3.294-1.325 1.6-2.275 3.506-2.706 5.619-0.662 1.125-1.306 2.588-1.444 4.463 0 0-0.044 0.475-0.031 0.494-2.206-0.288-4.763-1.688-4.763-1.688 0.569 0.906 3.831 2.019 4.769 2.369 0 0 0.106 6.125 4.031 8.2-0.706-1.075-0.831-1.262-0.831-1.262s-2.044-3.738-1.694-6.506c0.044 0 0.094 0.012 0.138 0.012 1.494 5.463 6.45 9.463 12.306 9.463 0.387 0 0.756-0.012 1.125-0.044 0.875 0.094 1.725 0.031 2.506-0.244 0.431-0.137 0.863-0.4 1.262-0.675 4.387-2.444 6.306-5.125 7.694-9.231 0.337-1 0.506-2.219 0.613-3.262 0.544-5.144-1.913-10.1-6.456-12.469zM8.675 10.2s-0.075 0.769-0.044 1.231c-0.213 0.156-0.631 0.506-1.138 1.044 0.325-0.8 0.706-1.569 1.181-2.275zM6.725 17.819c0.275-1.075 0.831-2.444 1.863-3.444 0 0 0.106 3 0.988 5.631l-2.588-0.431c-0.138-0.575-0.219-1.156-0.263-1.756zM7.219 20.494c0.925 0.2 2.125 0.475 2.694 0.569 1.706 4.8 6.769 7.769 6.769 7.769 0.063 0.031 0.106 0.044 0.169 0.063-4.569-0.725-8.294-4.044-9.631-8.4zM24.125 27.756c-0.906 0.294-2.262 0.525-4.044 0.231 0 0-5.694-1.444-7.969-6.738 2.387 0.044 3.275-0.012 4.875-0.244 2.462-0.356 4.938-1.012 7.188-2.063 0.738-0.337 0.694-1.212 0.6-1.863-0.125-0.8-0.694-0.756-1.337-0.294 0 0-5.125 3.663-11.863 3.356-1.169-2-1.675-6.925-1.675-6.925 2.588-2.2 5.2-3.725 10.525-3.275 0.012-0.4 0.188-1.694-1.275-1.756 0 0-5.844-0.694-9.125 2.094 0.156-1.031 0.369-1.831 0.694-2.463 2.138-1.925 4.938-3.094 8.019-3.094 6.65 0 12.063 5.444 12.063 12.156-0.012 4.75-2.738 8.875-6.675 10.875z"></path>
</svg>
