<!-- Generated by IcoMoon.io -->
<svg version="1.1" xmlns="http://www.w3.org/2000/svg" width="32" height="32" viewBox="0 0 32 32">
<title>react</title>
<path d="M26.137 11.075c-0.337-0.113-0.675-0.219-1.012-0.319 0.056-0.231 0.106-0.463 0.156-0.694 0.769-3.725 0.262-6.719-1.444-7.706-1.644-0.944-4.325 0.038-7.038 2.4-0.269 0.231-0.531 0.475-0.781 0.719-0.169-0.162-0.344-0.325-0.519-0.481-2.844-2.525-5.694-3.587-7.4-2.594-1.638 0.95-2.125 3.769-1.438 7.294 0.069 0.35 0.144 0.694 0.231 1.044-0.4 0.113-0.794 0.238-1.163 0.369-3.337 1.156-5.731 2.981-5.731 4.869 0 1.95 2.55 3.906 6.019 5.094 0.281 0.094 0.563 0.188 0.85 0.269-0.094 0.375-0.175 0.744-0.25 1.125-0.656 3.469-0.144 6.219 1.494 7.162 1.688 0.975 4.525-0.025 7.287-2.444 0.219-0.194 0.438-0.394 0.656-0.606 0.275 0.269 0.563 0.525 0.85 0.775 2.675 2.3 5.319 3.231 6.95 2.288 1.688-0.975 2.238-3.931 1.525-7.531-0.056-0.275-0.119-0.556-0.188-0.844 0.2-0.056 0.394-0.119 0.587-0.181 3.606-1.194 6.219-3.125 6.219-5.106 0-1.894-2.462-3.731-5.863-4.9zM17.681 5.769c2.325-2.025 4.494-2.819 5.481-2.25 1.056 0.606 1.462 3.056 0.8 6.275-0.044 0.213-0.087 0.419-0.144 0.625-1.387-0.313-2.794-0.537-4.206-0.662-0.813-1.162-1.7-2.275-2.663-3.319 0.244-0.231 0.481-0.45 0.731-0.669zM10.45 19.219c0.319 0.544 0.644 1.087 0.988 1.619-0.975-0.106-1.944-0.262-2.9-0.469 0.275-0.9 0.619-1.831 1.019-2.781 0.287 0.55 0.581 1.094 0.894 1.631zM8.556 11.7c0.9-0.2 1.856-0.363 2.85-0.488-0.331 0.519-0.656 1.050-0.963 1.588-0.306 0.531-0.606 1.075-0.887 1.625-0.394-0.931-0.725-1.844-1-2.725zM10.269 16.006c0.412-0.863 0.863-1.706 1.338-2.537s0.988-1.637 1.525-2.431c0.938-0.069 1.894-0.106 2.869-0.106s1.938 0.037 2.869 0.106c0.531 0.787 1.038 1.594 1.519 2.419s0.931 1.669 1.356 2.525c-0.419 0.862-0.869 1.713-1.35 2.55-0.475 0.831-0.981 1.637-1.512 2.438-0.931 0.069-1.9 0.1-2.881 0.1s-1.931-0.031-2.85-0.087c-0.544-0.794-1.056-1.606-1.537-2.438s-0.925-1.675-1.344-2.538zM21.556 19.206c0.319-0.55 0.619-1.106 0.913-1.669 0.4 0.906 0.75 1.825 1.056 2.769-0.969 0.219-1.95 0.387-2.938 0.5 0.337-0.525 0.656-1.063 0.969-1.6zM22.456 14.425c-0.294-0.55-0.594-1.1-0.906-1.637-0.306-0.531-0.625-1.056-0.956-1.575 1.006 0.125 1.969 0.294 2.869 0.5-0.288 0.925-0.625 1.825-1.006 2.713zM16.012 7.394c0.656 0.712 1.275 1.462 1.85 2.237-1.238-0.056-2.481-0.056-3.719 0 0.613-0.806 1.244-1.556 1.869-2.237zM8.762 3.563c1.050-0.612 3.381 0.263 5.838 2.438 0.156 0.138 0.313 0.287 0.475 0.438-0.969 1.044-1.863 2.156-2.681 3.319-1.412 0.125-2.813 0.344-4.2 0.65-0.081-0.319-0.15-0.644-0.219-0.969-0.588-3.025-0.2-5.306 0.787-5.875zM7.231 20.038c-0.263-0.075-0.519-0.156-0.775-0.244-1.331-0.419-2.844-1.081-3.938-1.95-0.631-0.438-1.056-1.113-1.175-1.869 0-1.144 1.975-2.606 4.825-3.6 0.356-0.125 0.719-0.238 1.081-0.344 0.425 1.356 0.938 2.688 1.531 3.975-0.6 1.306-1.119 2.656-1.55 4.031zM14.519 26.163c-1.031 0.944-2.225 1.694-3.525 2.206-0.694 0.331-1.494 0.363-2.206 0.081-0.994-0.575-1.406-2.781-0.844-5.75 0.069-0.35 0.144-0.7 0.231-1.044 1.4 0.3 2.813 0.506 4.244 0.613 0.825 1.169 1.731 2.288 2.7 3.337-0.2 0.194-0.4 0.381-0.6 0.556zM16.050 24.644c-0.637-0.688-1.275-1.45-1.894-2.269 0.6 0.025 1.219 0.038 1.844 0.038 0.644 0 1.275-0.012 1.9-0.044-0.575 0.794-1.194 1.55-1.85 2.275zM24.219 26.519c-0.056 0.762-0.431 1.475-1.031 1.956-0.994 0.575-3.113-0.175-5.4-2.137-0.262-0.225-0.525-0.469-0.794-0.719 0.956-1.056 1.837-2.175 2.637-3.35 1.431-0.119 2.856-0.337 4.262-0.656 0.063 0.256 0.119 0.512 0.169 0.762 0.306 1.35 0.356 2.756 0.156 4.144zM25.356 19.8c-0.175 0.056-0.35 0.113-0.531 0.163-0.438-1.363-0.975-2.694-1.594-3.988 0.6-1.275 1.106-2.588 1.531-3.931 0.325 0.094 0.637 0.194 0.938 0.294 2.913 1 4.956 2.487 4.956 3.625 0 1.225-2.181 2.806-5.3 3.838zM16 18.863c1.581 0 2.863-1.281 2.863-2.863s-1.281-2.863-2.863-2.863c-1.581 0-2.863 1.281-2.863 2.863s1.281 2.863 2.863 2.863z"></path>
</svg>
