<!-- Generated by IcoMoon.io -->
<svg version="1.1" xmlns="http://www.w3.org/2000/svg" width="36" height="32" viewBox="0 0 36 32">
<title>readme</title>
<path d="M33.019 2.906h-8.738c-3.006 0-5.619 2.081-6.275 5.019-0.663-2.938-3.269-5.019-6.275-5.019h-8.731c-1.656 0-3 1.344-3 3v15.363c0 1.656 1.344 3 3 3h5.606c6.387 0 8.294 1.525 9.206 4.688 0.044 0.175 0.325 0.175 0.375 0 0.919-3.163 2.825-4.688 9.206-4.688h5.606c1.656 0 3-1.344 3-3v-15.356c0-1.65-1.331-2.994-2.981-3.006zM15.125 19.494c0 0.119-0.094 0.219-0.219 0.219h-10.019c-0.119 0-0.219-0.094-0.219-0.219v-1.431c0-0.119 0.094-0.219 0.219-0.219h10.025c0.119 0 0.219 0.094 0.219 0.219v1.431zM15.125 15.688c0 0.119-0.094 0.219-0.219 0.219h-10.019c-0.119 0-0.219-0.094-0.219-0.219v-1.431c0-0.119 0.094-0.219 0.219-0.219h10.025c0.119 0 0.219 0.094 0.219 0.219v1.431zM15.125 11.881c0 0.119-0.094 0.219-0.219 0.219h-10.019c-0.119 0-0.219-0.094-0.219-0.219v-1.431c0-0.119 0.094-0.219 0.219-0.219h10.025c0.119 0 0.219 0.094 0.219 0.219v1.431zM31.331 19.488c0 0.119-0.094 0.219-0.219 0.219h-10.019c-0.119 0-0.219-0.094-0.219-0.219v-1.431c0-0.119 0.094-0.219 0.219-0.219h10.025c0.119 0 0.219 0.094 0.219 0.219v1.431zM31.331 15.681c0 0.119-0.094 0.219-0.219 0.219h-10.019c-0.119 0-0.219-0.094-0.219-0.219v-1.431c0-0.119 0.094-0.219 0.219-0.219h10.025c0.119 0 0.219 0.094 0.219 0.219v1.431zM31.331 11.875c0 0.119-0.094 0.219-0.219 0.219h-10.019c-0.119 0-0.219-0.094-0.219-0.219v-1.425c0-0.119 0.094-0.219 0.219-0.219h10.025c0.119 0 0.219 0.094 0.219 0.219v1.425z"></path>
</svg>
