<!-- Generated by IcoMoon.io -->
<svg version="1.1" xmlns="http://www.w3.org/2000/svg" width="32" height="32" viewBox="0 0 32 32">
<title>rebel</title>
<path d="M16.031 31.5c-8.706 0-15.469-7.262-15.206-15.881 0.175-4.95 2.7-9.512 7.281-12.525 0.019 0 0.119-0.038 0.069 0.050-0.362 0.344-6.956 8.113-0.881 14.15 3.113 3.094 5.625 0.156 5.625 0.156 2.406-3.131-0.037-7.869-0.037-7.869-0.625-1.556-2.856-2.506-2.856-2.506l1.8-1.987c1.525 0.656 2.7 2.419 2.7 2.419 0.050-1.85-1.369-3.837-1.369-3.837l2.787-3.169 2.769 3.131c-1.281 1.8-1.369 3.912-1.369 3.912 0.863-1.438 2.719-2.456 2.719-2.456l1.781 1.987c-1.712 0.556-2.837 2.494-2.837 2.494-0.988 1.781-1.694 5.588 0.038 7.956 2.025 2.788 5.481-0.175 5.481-0.175 6.419-5.744-0.656-14.063-0.656-14.063-0.381-0.344 0.050-0.175 0.050-0.175 3.131 2.281 7.163 5.275 7.262 12.8 0.125 9.1-6.244 15.588-15.15 15.588z"></path>
</svg>
