<!-- Generated by IcoMoon.io -->
<svg version="1.1" xmlns="http://www.w3.org/2000/svg" width="32" height="32" viewBox="0 0 32 32">
<title>reddit-alien</title>
<path d="M27.519 12.719c-0.938 0-1.762 0.387-2.369 0.994-2.231-1.544-5.238-2.537-8.569-2.644l1.731-7.8 5.512 1.237c0 1.35 1.1 2.45 2.45 2.45 1.375 0 2.481-1.131 2.481-2.481s-1.1-2.481-2.481-2.481c-0.962 0-1.794 0.581-2.206 1.375l-6.087-1.35c-0.306-0.081-0.606 0.138-0.688 0.444l-1.9 8.6c-3.306 0.137-6.281 1.131-8.519 2.675-0.606-0.631-1.463-1.019-2.4-1.019-3.475 0-4.612 4.663-1.431 6.256-0.112 0.494-0.163 1.019-0.163 1.544 0 5.238 5.9 9.481 13.144 9.481 7.275 0 13.175-4.244 13.175-9.481 0-0.525-0.056-1.075-0.194-1.569 3.119-1.6 1.969-6.231-1.488-6.231zM8.088 19.306c0-1.375 1.1-2.481 2.481-2.481 1.35 0 2.45 1.1 2.45 2.481 0 1.35-1.1 2.45-2.45 2.45-1.375 0.006-2.481-1.1-2.481-2.45zM21.481 25.15c-2.275 2.275-8.694 2.275-10.969 0-0.25-0.219-0.25-0.606 0-0.856 0.219-0.219 0.606-0.219 0.825 0 1.738 1.781 7.5 1.813 9.313 0 0.219-0.219 0.606-0.219 0.825 0 0.256 0.25 0.256 0.637 0.006 0.856zM21.431 21.762c-1.35 0-2.45-1.1-2.45-2.45 0-1.375 1.1-2.481 2.45-2.481 1.375 0 2.481 1.1 2.481 2.481-0.006 1.344-1.106 2.45-2.481 2.45z"></path>
</svg>
