<!-- Generated by IcoMoon.io -->
<svg version="1.1" xmlns="http://www.w3.org/2000/svg" width="32" height="32" viewBox="0 0 32 32">
<title>redhat</title>
<path d="M21.345 17.848c2.103 0 5.146-0.434 5.146-2.938 0.014-0.421 0.054-0.114-1.305-6.015-0.289-1.197-0.543-1.74-2.644-2.791-1.631-0.834-5.183-2.211-6.233-2.211-0.979 0-1.262 1.261-2.429 1.261-1.125 0-1.957-0.941-3.008-0.941-1.009 0-1.666 0.688-2.174 2.101-1.719 4.847-1.643 4.642-1.633 4.892 0 1.55 6.103 6.632 14.279 6.632zM26.813 15.928c0.291 1.375 0.291 1.522 0.291 1.703 0 2.354-2.646 3.66-6.125 3.66-7.859 0.005-14.744-4.603-14.744-7.646 0-0.001 0-0.003 0-0.005 0-0.444 0.093-0.866 0.262-1.248l-0.008 0.020c-2.828 0.141-6.487 0.646-6.487 3.877 0 5.292 12.539 11.813 22.468 11.813 7.612 0 9.532-3.442 9.532-6.161 0-2.138-1.849-4.566-5.183-6.015z"></path>
</svg>
