<!-- Generated by IcoMoon.io -->
<svg version="1.1" xmlns="http://www.w3.org/2000/svg" width="32" height="32" viewBox="0 0 32 32">
<title>redis</title>
<path d="M14.276 3.147c0 0.010 0.151 0.296 0.34 0.646 0.184 0.345 0.32 0.641 0.301 0.655s-0.544 0.214-1.161 0.432c-0.622 0.223-1.122 0.413-1.112 0.423s0.714 0.082 1.564 0.16c1.025 0.097 1.564 0.165 1.602 0.204 0.034 0.034 0.267 0.413 0.525 0.835l0.461 0.777 0.082-0.194c0.044-0.102 0.184-0.442 0.316-0.748l0.228-0.558 1.233-0.131c0.675-0.073 1.277-0.131 1.34-0.131 0.058-0.005 0.107-0.019 0.107-0.044 0-0.019-0.456-0.209-1.020-0.418-0.558-0.209-1.020-0.388-1.020-0.393s0.121-0.301 0.267-0.655 0.257-0.656 0.248-0.665c-0.010-0.015-0.486 0.131-1.049 0.316l-1.029 0.335-1.093-0.432c-1.073-0.422-1.131-0.442-1.131-0.413z"></path>
<path d="M21.060 6.842c-1.306 0.52-2.379 0.952-2.389 0.961s0.961 0.403 2.161 0.879l2.175 0.859 0.233-0.092c2.423-0.942 4.628-1.821 4.618-1.831-0.034-0.039-4.322-1.719-4.37-1.719-0.034 0.005-1.126 0.427-2.428 0.942z"></path>
<path d="M8.522 6.337c-1.253 0.131-2.306 0.495-2.753 0.957-0.306 0.316-0.354 0.583-0.165 0.908 0.282 0.486 1.204 0.893 2.481 1.102 0.573 0.097 2.258 0.082 2.841-0.019 1.364-0.238 2.248-0.675 2.457-1.224 0.078-0.204 0.078-0.233 0-0.432-0.204-0.534-1.073-0.976-2.36-1.199-0.651-0.112-1.865-0.155-2.501-0.092z"></path>
<path d="M31.859 7.847c-0.063 0.082-0.296 0.267-0.519 0.418-0.66 0.427-1.515 0.816-6.818 3.098-3.729 1.602-4.681 2.025-5.973 2.646-1.432 0.685-2.025 0.874-2.744 0.874-0.646 0-1.029-0.112-2.234-0.646-0.481-0.214-2.447-1.039-4.37-1.84-8.405-3.496-8.561-3.569-9.012-4.055l-0.189-0.209v3.307l0.214 0.204c0.204 0.199 0.898 0.617 1.146 0.69 0.068 0.019 0.524 0.209 1.020 0.422s2.909 1.224 5.366 2.248c4.064 1.695 4.992 2.083 6.376 2.69 0.733 0.325 1.141 0.408 1.831 0.384 0.505-0.019 0.656-0.049 1.097-0.199 0.287-0.097 0.782-0.306 1.102-0.466 1.054-0.529 2.331-1.093 7.415-3.282 4.783-2.064 5.404-2.35 5.924-2.71 0.534-0.379 0.51-0.287 0.51-2.127 0-0.879-0.005-1.598-0.015-1.598s-0.063 0.068-0.126 0.151z"></path>
<path d="M15.116 10.003c-1.957 0.301-3.579 0.558-3.608 0.568-0.044 0.015 4.875 2.083 5.084 2.136 0.049 0.015 2.248-3.151 2.248-3.234 0-0.044 0.005-0.049-3.724 0.529z"></path>
<path d="M31.888 13.276c-0.044 0.073-0.248 0.252-0.447 0.393-0.636 0.437-1.593 0.874-7.405 3.375-3.346 1.442-4.395 1.904-5.39 2.389-1.612 0.782-2.001 0.908-2.865 0.903-0.67-0.005-1.083-0.112-1.971-0.515-0.855-0.393-1.811-0.796-5.652-2.389-6.681-2.773-7.454-3.117-7.925-3.574l-0.233-0.219v3.253l0.262 0.248c0.427 0.398 0.384 0.379 7.556 3.365 2.632 1.093 5.113 2.137 5.511 2.316 1.058 0.476 1.364 0.588 1.782 0.675 0.976 0.199 1.7 0.039 3.282-0.733 1.029-0.5 2.287-1.058 5.332-2.37 5.788-2.496 7.216-3.137 7.638-3.418 0.15-0.107 0.354-0.277 0.456-0.388l0.18-0.199v-1.627c0-0.893-0.005-1.627-0.015-1.627-0.005 0-0.049 0.063-0.097 0.141z"></path>
<path d="M31.835 18.603c-0.384 0.481-1.151 0.85-7.119 3.419-3.894 1.68-5.079 2.204-6.361 2.816-1.345 0.641-1.787 0.777-2.564 0.777-0.529 0-1.068-0.126-1.665-0.388-1.394-0.612-2.311-1-6.38-2.695-4.628-1.928-6.109-2.554-6.604-2.802-0.461-0.233-0.932-0.563-1.039-0.733l-0.102-0.155v1.656c0 1.899-0.034 1.758 0.476 2.103 0.563 0.379 1.398 0.748 6.953 3.054 3.885 1.612 5.283 2.2 5.973 2.51 1.408 0.631 1.782 0.733 2.569 0.69 0.719-0.034 1.19-0.189 2.433-0.782 1.297-0.622 2.253-1.049 6.482-2.87 5.875-2.53 6.512-2.836 6.958-3.35l0.155-0.175v-1.622c0-0.893-0.005-1.627-0.010-1.627-0.010-0-0.078 0.078-0.155 0.175z"></path>
</svg>
