<!-- Generated by IcoMoon.io -->
<svg version="1.1" xmlns="http://www.w3.org/2000/svg" width="28" height="32" viewBox="0 0 28 32">
<title>replyd</title>
<path d="M20 30h-12c-4.4 0-8-3.6-8-8v-12c0-4.4 3.6-8 8-8h12c4.4 0 8 3.6 8 8v12c0 4.4-3.6 8-8 8zM12.088 17.075c-0.381-0.125-0.725-0.194-1.025-0.194-0.45 0-0.844 0.119-1.181 0.35s-0.6 0.563-0.8 0.988h-0.069l-0.262-1.144h-1.75v8.681h2.256v-5.606c0.094-0.337 0.275-0.613 0.544-0.825s0.613-0.319 1.012-0.319c0.287 0 0.613 0.063 0.975 0.194l0.3-2.125zM19.288 23.538c-0.2 0.15-0.481 0.3-0.856 0.444s-0.8 0.219-1.275 0.219c-0.762 0-1.319-0.188-1.656-0.556-0.344-0.369-0.531-0.919-0.563-1.65h5.206c0.056-0.3 0.1-0.587 0.131-0.869 0.031-0.275 0.044-0.538 0.044-0.781 0-0.669-0.1-1.231-0.294-1.681-0.2-0.45-0.456-0.813-0.781-1.075-0.325-0.269-0.694-0.456-1.113-0.575-0.419-0.113-0.844-0.175-1.288-0.175-1.319 0-2.344 0.381-3.075 1.144s-1.094 1.906-1.094 3.438c0 1.425 0.325 2.544 0.975 3.356 0.65 0.819 1.675 1.225 3.075 1.225 0.669 0 1.306-0.094 1.9-0.288s1.069-0.425 1.413-0.7l-0.75-1.475zM17.925 19.144c0.238 0.337 0.331 0.819 0.288 1.444h-3.231c0.056-0.587 0.231-1.063 0.512-1.413s0.719-0.531 1.313-0.531c0.512-0.006 0.881 0.163 1.119 0.5zM22.919 19.3c0.256 0.244 0.587 0.363 1.006 0.363 0.438 0 0.788-0.119 1.044-0.363s0.381-0.569 0.381-0.975-0.125-0.725-0.381-0.962c-0.256-0.238-0.6-0.356-1.044-0.356-0.419 0-0.75 0.119-1.006 0.356s-0.381 0.556-0.381 0.962 0.125 0.731 0.381 0.975zM22.919 25.581c0.256 0.244 0.587 0.363 1.006 0.363 0.438 0 0.788-0.119 1.044-0.363s0.381-0.569 0.381-0.975-0.125-0.725-0.381-0.962c-0.256-0.238-0.6-0.356-1.044-0.356-0.419 0-0.75 0.119-1.006 0.356s-0.381 0.556-0.381 0.962c0 0.413 0.125 0.731 0.381 0.975z"></path>
</svg>
