<!-- Generated by IcoMoon.io -->
<svg version="1.1" xmlns="http://www.w3.org/2000/svg" width="31" height="32" viewBox="0 0 31 32">
<title>resolving</title>
<path d="M17.575 17.387c2.875-0.831 3.1-1.469 2.75-2.713l-0.7-2.456c-0.381-1.306-1.15-1.756-4.444-0.8l-11.762 3.381 1.787 6.162 12.369-3.575zM15.531 0.5c-7.319 0-13.456 5.044-15.081 11.844l13.869-3.994c2.175-0.638 3.388-0.731 4.956-0.513 2.269 0.381 3.294 1.562 3.837 3.45l0.669 2.362c0.512 1.756 0.063 3.163-1.469 4.6-1.212 1.087-1.95 1.531-3.837 2.075l-5.787 1.663 13.775 1.694 0.606 2.137-3.006 0.831-17.925-2.331 1.438 5.012c2.3 1.375 5.019 2.169 7.894 2.169 8.563 0 15.531-6.962 15.531-15.519 0.063-8.519-6.906-15.481-15.469-15.481zM2.394 24.288l-2.394-8.238c0 3.031 0.894 5.838 2.394 8.238z"></path>
</svg>
