<!-- Generated by IcoMoon.io -->
<svg version="1.1" xmlns="http://www.w3.org/2000/svg" width="32" height="32" viewBox="0 0 32 32">
<title>responsive</title>
<path d="M3.606 7.108c-0.087 0.029-0.215 0.099-0.279 0.157-0.279 0.244-0.279 0.267-0.279 3.908v3.426h1.277l0.012-3.095 0.017-3.089 19.016-0.029 0.012 0.941 0.017 0.946 1.231 0.035 0.035-0.859c0.046-1.057-0.012-1.794-0.151-2.009-0.052-0.087-0.168-0.203-0.256-0.255-0.151-0.099-0.72-0.105-10.324-0.116-5.586-0.006-10.237 0.012-10.33 0.041zM25.548 11.173c-3.792 0.029-3.896 0.035-4.093 0.151-0.11 0.064-0.267 0.232-0.348 0.377l-0.145 0.255v5.748c0 5.429 0.006 5.766 0.105 6.021 0.122 0.314 0.308 0.482 0.627 0.569 0.29 0.081 8.077 0.081 8.35 0.006 0.279-0.087 0.447-0.209 0.645-0.482l0.174-0.238v-5.772c0-5.203-0.012-5.789-0.093-5.957-0.215-0.424-0.505-0.615-1.010-0.674-0.174-0.017-2.067-0.023-4.21-0.006zM30.106 17.153v5.052h-8.419v-10.103h8.419v5.052zM24.712 22.896c0.209 0.215 0.221 0.459 0.029 0.679-0.29 0.343-0.848 0.128-0.848-0.325 0-0.476 0.488-0.685 0.819-0.354zM26.117 22.797c0.186 0.099 0.267 0.226 0.273 0.43 0 0.366-0.406 0.645-0.708 0.482-0.203-0.105-0.273-0.232-0.279-0.47 0-0.163 0.041-0.244 0.18-0.36 0.192-0.163 0.343-0.186 0.534-0.081zM27.749 22.878c0.226 0.226 0.209 0.54-0.035 0.749-0.221 0.186-0.47 0.168-0.668-0.064-0.197-0.221-0.18-0.499 0.046-0.685 0.232-0.197 0.459-0.192 0.656 0zM1.707 15.522c-0.29 0.093-0.389 0.18-0.482 0.424-0.087 0.221-0.093 0.685-0.081 4.343 0.017 4.558-0.006 4.274 0.412 4.529 0.174 0.11 0.308 0.116 2.131 0.116s1.957-0.006 2.131-0.116c0.418-0.256 0.395 0.046 0.395-4.616 0-3.902-0.006-4.198-0.105-4.343-0.232-0.36-0.226-0.36-2.334-0.372-1.051-0.006-1.986 0.012-2.067 0.035zM5.719 20.231v3.135h-4.064v-6.271h4.064v3.135zM3.809 23.831c0.134 0.076 0.151 0.36 0.017 0.488-0.186 0.192-0.499 0.052-0.499-0.226 0-0.261 0.238-0.389 0.482-0.261zM7.113 20.056v1.277h12.948v-2.555h-12.948v1.277zM14.133 19.557c0.325 0.168 0.383 0.575 0.128 0.859-0.424 0.476-1.179-0.006-0.935-0.598 0.128-0.302 0.493-0.424 0.807-0.261zM11.624 22.245c-0.017 0.029-0.046 0.174-0.064 0.325-0.099 0.65-0.197 0.859-0.662 1.33l-0.435 0.453h3.339c2.601 0 3.35-0.017 3.368-0.070 0.017-0.041-0.081-0.151-0.209-0.244-0.459-0.331-0.703-0.755-0.801-1.399l-0.070-0.435h-2.218c-1.225 0-2.236 0.017-2.247 0.041z"></path>
</svg>
