<!-- Generated by IcoMoon.io -->
<svg version="1.1" xmlns="http://www.w3.org/2000/svg" width="32" height="32" viewBox="0 0 32 32">
<title>responsive</title>
<path fill="#fff" d="M25.344 9.837c0-0.818 0.002-1.592-0.001-2.366-0.003-0.769-0.339-1.105-1.116-1.106-7.028-0.002-14.057-0.002-21.085 0-0.757 0-1.089 0.333-1.089 1.083-0.001 2.209-0 4.419-0 6.628 0 0.128 0 0.255 0 0.408 0.478 0 0.923 0 1.409 0 0-2.229 0-4.444 0-6.673 6.84 0 13.64 0 20.482 0 0 0.686 0 1.35 0 2.027 0.477 0 0.913 0 1.399 0zM20.382 18.978c-4.657 0-9.288 0-13.935 0 0 0.933 0 1.842 0 2.761 4.657 0 9.289 0 13.935 0 0-0.931 0-1.842 0-2.761zM17.217 24.969c0.035-0.044 0.070-0.088 0.106-0.132-0.903-0.454-1.187-1.236-1.189-2.147-1.651 0-3.237 0-4.833 0-0.1 0.434-0.119 0.899-0.316 1.269-0.191 0.36-0.563 0.624-0.932 1.010 2.465 0 4.814 0 7.163 0z"></path>
<path fill="#000" d="M32 24.085c-0.281 0.727-0.818 0.952-1.579 0.942-2.571-0.031-5.143-0.011-7.715-0.012-0.938-0-1.368-0.43-1.369-1.378-0.002-3.825-0.002-7.651-0-11.476 0-0.955 0.419-1.376 1.366-1.376 2.598-0.002 5.195 0.016 7.793-0.011 0.758-0.008 1.267 0.247 1.504 0.98 0 4.11 0 8.22 0 12.331zM31.204 22.684c0-3.653 0-7.26 0-10.871-3.051 0-6.069 0-9.099 0 0 3.637 0 7.255 0 10.871 3.049 0 6.067 0 9.099 0zM28.833 23.814c0.006-0.297-0.222-0.551-0.511-0.568-0.306-0.018-0.577 0.231-0.586 0.538-0.009 0.31 0.246 0.569 0.556 0.566 0.302-0.003 0.534-0.233 0.54-0.537zM25.574 23.807c0.002-0.311-0.254-0.566-0.562-0.56-0.286 0.006-0.535 0.258-0.541 0.547-0.006 0.306 0.254 0.563 0.565 0.558 0.294-0.005 0.536-0.25 0.538-0.544zM26.669 23.247c-0.288-0.009-0.547 0.231-0.562 0.52-0.016 0.315 0.222 0.575 0.535 0.584 0.3 0.008 0.545-0.218 0.56-0.518 0.016-0.314-0.222-0.576-0.534-0.586z"></path>
<path fill="#000" d="M0.747 25.636c-0.569-0.171-0.752-0.555-0.747-1.141 0.022-2.686 0.009-5.373 0.010-8.059 0-0.703 0.27-0.989 0.981-0.995 1.175-0.011 2.351-0.010 3.526-0 0.681 0.006 0.971 0.302 0.972 0.973 0.003 2.738-0.006 5.476 0.008 8.215 0.003 0.536-0.254 0.832-0.717 1.008-1.344 0-2.688 0-4.033 0zM0.554 17.199c0 2.261 0 4.487 0 6.718 1.48 0 2.932 0 4.39 0 0-2.252 0-4.477 0-6.718-1.471 0-2.915 0-4.39 0z"></path>
<path fill="#000" d="M25.344 9.837c-0.487 0-0.922 0-1.399 0 0-0.677 0-1.34 0-2.027-6.842 0-13.642 0-20.482 0 0 2.229 0 4.444 0 6.673-0.486 0-0.932 0-1.409 0 0-0.152 0-0.28 0-0.408 0-2.209-0.001-4.418 0-6.628 0-0.749 0.331-1.083 1.089-1.083 7.028-0.002 14.057-0.002 21.085 0 0.778 0 1.114 0.337 1.116 1.106 0.003 0.774 0 1.548 0 2.366z"></path>
<path fill="#000" d="M20.382 18.978c0 0.918 0 1.829 0 2.761-4.646 0-9.277 0-13.935 0 0-0.919 0-1.827 0-2.761 4.646 0 9.278 0 13.935 0zM14.318 20.333c-0.008-0.349-0.304-0.619-0.661-0.602-0.338 0.017-0.598 0.296-0.588 0.635 0.009 0.33 0.294 0.612 0.62 0.613 0.341 0.001 0.637-0.302 0.629-0.646z"></path>
<path fill="#000" d="M17.217 24.969c-2.349 0-4.698 0-7.163 0 0.368-0.386 0.741-0.65 0.932-1.010 0.197-0.371 0.216-0.835 0.316-1.269 1.596 0 3.182 0 4.833 0 0.002 0.911 0.286 1.693 1.189 2.147-0.035 0.044-0.071 0.088-0.106 0.132z"></path>
<path fill="#fff" d="M3.023 24.703c0 0.187-0.152 0.339-0.339 0.339s-0.339-0.152-0.339-0.339c0-0.187 0.152-0.339 0.339-0.339s0.339 0.152 0.339 0.339z"></path>
</svg>
