<!-- Generated by IcoMoon.io -->
<svg version="1.1" xmlns="http://www.w3.org/2000/svg" width="28" height="32" viewBox="0 0 28 32">
<title>rev</title>
<path d="M18.104 17.181c0 0 0 0 0 0.001 0 2.263-1.835 4.098-4.098 4.098s-4.098-1.835-4.098-4.098c0-2.263 1.835-4.098 4.098-4.098 0 0 0 0 0.001 0h-0c2.262 0.003 4.095 1.836 4.098 4.097v0zM26.826 16.865h-0.008c-0.094-3.848-1.873-7.262-4.624-9.546l-0.021-0.017-2.836 1.638c2.716 1.775 4.486 4.801 4.488 8.24v0c0 5.414-4.404 9.82-9.818 9.82s-9.819-4.406-9.819-9.82c0-5.117 3.938-9.329 8.938-9.777v2.445l6.798-3.924-6.798-3.924v2.395c-6.669 0.453-11.938 6-11.938 12.786 0 6.974 5.57 12.643 12.504 12.813v0.007h13.135v-13.135z"></path>
</svg>
