<!-- Generated by IcoMoon.io -->
<svg version="1.1" xmlns="http://www.w3.org/2000/svg" width="36" height="32" viewBox="0 0 36 32">
<title>rocketchat</title>
<path d="M30.401 6.723c-4.808-3.177-11.199-3.9-16.508-2.942-5.939-5.729-12.595-3.094-13.893-2.336 0 0 4.567 3.881 3.826 7.281-5.407 5.513-2.837 11.65 0 14.548 0.742 3.399-3.826 7.281-3.826 7.281 1.286 0.76 7.923 3.387 13.893-2.313 5.297 0.952 11.688 0.235 16.508-2.947 7.454-4.759 7.478-13.788 0-18.572zM18.386 25.264c-0.018 0-0.040 0-0.061 0-1.936 0-3.812-0.259-5.595-0.745l0.149 0.035-1.236 1.193c-0.667 0.647-1.417 1.215-2.232 1.683l-0.055 0.029c-0.939 0.484-2.036 0.812-3.197 0.918l-0.035 0.003c0.063-0.111 0.117-0.223 0.173-0.328q1.854-3.438 1-6.168c-2.033-1.601-3.25-3.646-3.25-5.883 0-5.125 6.421-9.277 14.338-9.277s14.338 4.152 14.338 9.277-6.421 9.264-14.338 9.264zM11.508 18.206c-0.009 0-0.020 0-0.030 0-1.172 0-2.124-0.939-2.145-2.106l-0-0.002c-0.044-2.837 4.239-2.899 4.282-0.068v0.032c0 0.006 0 0.013 0 0.020 0 1.168-0.941 2.115-2.107 2.125h-0.001zM16.118 16.099c-0.049-2.837 4.234-2.905 4.283-0.074v0.038c0.024 2.817-4.234 2.848-4.283 0.036zM25.079 18.206c-0.009 0-0.020 0-0.030 0-1.172 0-2.124-0.939-2.145-2.106l-0-0.002c-0.043-2.837 4.24-2.899 4.283-0.068v0.032c0 0.008 0 0.017 0 0.027 0 1.166-0.942 2.112-2.107 2.118h-0.001z"></path>
</svg>
