<!-- Generated by IcoMoon.io -->
<svg version="1.1" xmlns="http://www.w3.org/2000/svg" width="32" height="32" viewBox="0 0 32 32">
<title>ruby-rough</title>
<path d="M1.233 16.406c0.199-0.625 0.438-1.901 0.992-3.020 2.696-5.442 6.869-9.401 12.439-11.806 1.075-0.464 2.355-0.612 3.542-0.618 1.485-0.008 2.478 1.025 2.609 2.523 0.068 0.78 0.059 1.646-0.209 2.364-2.64 7.059-7.619 11.786-14.622 14.443-0.273 0.103-0.577 0.13-0.87 0.17-2.384 0.327-3.917-1.024-3.881-4.056z"></path>
<path d="M19.557 11.175c3.871-0.271 7.676-0.538 11.663-0.817-0.291-0.278-0.455-0.459-0.644-0.611-3.47-2.783-6.95-5.555-10.407-8.354-0.342-0.277-0.555-0.713-1.011-1.319 1.485 0 2.686-0.014 3.886 0.004 1.45 0.021 2.934-0.119 4.341 0.141 3.044 0.564 4.67 2.527 4.613 5.623-0.054 2.901-0.354 5.798-0.568 8.695-0.328 4.436-0.674 8.87-1.016 13.304-0.059 0.765-0.13 1.529-0.208 2.438-1.61-1.434-3.149-2.804-4.686-4.176-0.199-0.178-0.363-0.406-0.583-0.546-1.879-1.197-2.664-2.981-3.090-5.111-0.558-2.786-1.374-5.521-2.076-8.279-0.078-0.309-0.136-0.623-0.215-0.991z"></path>
<path d="M5.045 28.137c0.829-0.115 1.604-0.163 2.342-0.355 0.29-0.075 0.628-0.428 0.722-0.725 0.696-2.204 1.335-4.425 1.995-6.641 0.058-0.194 0.138-0.382 0.244-0.67 4.031 1.291 8.029 2.571 12.147 3.889-2.143 2.162-4.421 3.975-6.968 5.604 4.538 0.347 9.076 0.693 13.614 1.040 0 0.058 0 0.116 0.001 0.174-0.978 0.069-1.956 0.143-2.934 0.207-5.772 0.38-11.544 0.759-17.316 1.135-0.917 0.060-1.836 0.161-2.753 0.145-3.885-0.070-6.087-2.2-6.137-6.098-0.028-2.189 0.197-4.382 0.337-6.572 0.010-0.165 0.247-0.316 0.378-0.473 0.196 0.174 0.481 0.311 0.575 0.529 1.16 2.689 2.293 5.39 3.433 8.088 0.092 0.216 0.19 0.43 0.32 0.724z"></path>
</svg>
