<!-- Generated by IcoMoon.io -->
<svg version="1.1" xmlns="http://www.w3.org/2000/svg" width="32" height="32" viewBox="0 0 32 32">
<title>ruby-on-rails</title>
<path d="M3.464 31.707h15.618c0 0-3.464-7.868-2.584-15.090s6.576-10.51 9.806-10.863c3.229-0.353 4.991 1.644 4.991 1.644l0.705-1.057c0 0-4.639-4.697-10.51-4.169s-9.923 4.404-12.447 9.101c-2.525 4.698-3.993 7.986-4.991 12.918s-0.587 7.516-0.587 7.516z"></path>
<path d="M0.352 23.839l3.053 0.235-0.528 3.053-2.877-0.352 0.352-2.936z"></path>
<path d="M5.167 17.38l0.822-2.29-2.701-1.057-0.881 2.466 2.759 0.881z"></path>
<path d="M8.983 9.512l1.585-1.879-2.055-1.35-1.644 1.82 2.114 1.409z"></path>
<path d="M13.152 2.231l1.409 1.703 1.938-1.115-1.409-1.585-1.938 0.998z"></path>
<path d="M20.022 0.293l0.352 1.703 2.408-0.059-0.235-1.526-2.525-0.118z"></path>
<path d="M28.184 2.114l-0.059 1.057 1.644 0.881 0.352-0.528-1.937-1.409z"></path>
<path d="M27.831 6.635v0.881l1.585 0.176v-0.705l-1.585-0.352z"></path>
<path d="M22.782 7.398l0.763 1.409 1.115-0.881-0.235-0.94-1.644 0.411z"></path>
<path d="M20.374 9.218l1.174 1.761-0.704 1.233-1.703-1.879 1.233-1.116z"></path>
<path d="M18.026 14.092l-0.763 1.526 1.996 1.703 0.47-1.938-1.703-1.292z"></path>
<path d="M17.203 19.435l-0.117 2.055 2.466 1.057-0.117-1.938-2.231-1.174z"></path>
<path d="M17.908 26.716l0.588 2.114 3.111 0.176-1.115-2.29h-2.584z"></path>
</svg>
