<!-- Generated by IcoMoon.io -->
<svg version="1.1" xmlns="http://www.w3.org/2000/svg" width="27" height="32" viewBox="0 0 27 32">
<title>rust</title>
<path d="M26.783 15.669l-1.132-0.701c-0.009-0.11-0.020-0.22-0.032-0.33l0.973-0.907c0.099-0.092 0.143-0.229 0.116-0.361s-0.119-0.242-0.246-0.289l-1.244-0.465c-0.031-0.108-0.064-0.215-0.098-0.321l0.776-1.078c0.079-0.109 0.095-0.252 0.044-0.377s-0.164-0.214-0.298-0.236l-1.311-0.213c-0.051-0.099-0.104-0.197-0.158-0.294l0.551-1.21c0.056-0.123 0.045-0.267-0.031-0.378s-0.202-0.178-0.337-0.173l-1.331 0.046c-0.069-0.086-0.139-0.171-0.21-0.255l0.306-1.297c0.031-0.132-0.008-0.27-0.104-0.365-0.095-0.095-0.233-0.135-0.365-0.104l-1.296 0.306c-0.084-0.071-0.169-0.142-0.256-0.21l0.047-1.331c0.005-0.135-0.060-0.263-0.173-0.337s-0.255-0.087-0.378-0.031l-1.21 0.551c-0.098-0.053-0.196-0.107-0.294-0.158l-0.214-1.312c-0.022-0.133-0.111-0.246-0.235-0.297s-0.267-0.035-0.377 0.044l-1.078 0.776c-0.106-0.034-0.213-0.066-0.32-0.097l-0.465-1.244c-0.047-0.127-0.157-0.22-0.289-0.246s-0.269 0.018-0.361 0.116l-0.908 0.974c-0.109-0.012-0.22-0.023-0.33-0.032l-0.701-1.132c-0.071-0.115-0.197-0.184-0.331-0.184s-0.261 0.070-0.331 0.184l-0.701 1.132c-0.11 0.009-0.221 0.020-0.33 0.032l-0.908-0.974c-0.092-0.098-0.229-0.142-0.361-0.116s-0.242 0.119-0.289 0.246l-0.465 1.244c-0.108 0.031-0.214 0.064-0.321 0.097l-1.078-0.776c-0.11-0.079-0.252-0.096-0.377-0.044s-0.214 0.164-0.235 0.297l-0.214 1.312c-0.099 0.051-0.197 0.104-0.294 0.158l-1.21-0.551c-0.123-0.056-0.266-0.045-0.378 0.031s-0.178 0.203-0.173 0.337l0.046 1.331c-0.086 0.069-0.171 0.139-0.256 0.21l-1.296-0.306c-0.132-0.031-0.27 0.008-0.365 0.104s-0.135 0.233-0.104 0.365l0.305 1.297c-0.071 0.084-0.141 0.169-0.21 0.255l-1.331-0.046c-0.134-0.004-0.263 0.061-0.338 0.173s-0.087 0.255-0.031 0.378l0.551 1.21c-0.054 0.097-0.107 0.195-0.158 0.294l-1.312 0.213c-0.133 0.022-0.245 0.111-0.297 0.236s-0.035 0.267 0.044 0.377l0.776 1.078c-0.034 0.106-0.066 0.213-0.097 0.321l-1.244 0.465c-0.126 0.047-0.219 0.156-0.246 0.289s0.018 0.269 0.116 0.361l0.973 0.907c-0.012 0.11-0.023 0.22-0.032 0.33l-1.132 0.701c-0.115 0.071-0.185 0.196-0.185 0.331s0.070 0.261 0.185 0.331l1.132 0.701c0.009 0.11 0.020 0.22 0.032 0.33l-0.973 0.908c-0.099 0.092-0.143 0.228-0.116 0.361s0.119 0.242 0.246 0.289l1.244 0.465c0.031 0.108 0.064 0.215 0.097 0.321l-0.776 1.078c-0.079 0.11-0.096 0.252-0.044 0.376 0.052 0.125 0.164 0.214 0.298 0.236l1.311 0.213c0.051 0.1 0.104 0.198 0.158 0.295l-0.551 1.209c-0.056 0.123-0.045 0.266 0.031 0.379s0.203 0.178 0.338 0.173l1.331-0.047c0.069 0.087 0.139 0.171 0.21 0.256l-0.305 1.297c-0.031 0.132 0.008 0.269 0.104 0.365s0.234 0.135 0.365 0.104l1.296-0.305c0.084 0.071 0.17 0.141 0.256 0.21l-0.046 1.331c-0.005 0.135 0.061 0.263 0.173 0.338s0.255 0.087 0.378 0.030l1.21-0.551c0.097 0.054 0.195 0.107 0.294 0.158l0.214 1.311c0.022 0.133 0.111 0.246 0.235 0.298s0.267 0.035 0.377-0.043l1.077-0.777c0.106 0.034 0.213 0.067 0.321 0.098l0.465 1.244c0.047 0.126 0.156 0.22 0.289 0.246 0.132 0.027 0.269-0.018 0.361-0.117l0.908-0.973c0.109 0.013 0.22 0.023 0.33 0.033l0.701 1.132c0.071 0.114 0.196 0.184 0.331 0.184s0.26-0.070 0.331-0.184l0.701-1.132c0.11-0.010 0.22-0.020 0.33-0.033l0.908 0.973c0.092 0.099 0.228 0.143 0.361 0.117s0.242-0.119 0.289-0.246l0.465-1.244c0.108-0.031 0.215-0.064 0.321-0.098l1.078 0.777c0.109 0.078 0.252 0.095 0.377 0.043s0.214-0.164 0.236-0.298l0.214-1.311c0.099-0.051 0.197-0.105 0.295-0.158l1.209 0.551c0.123 0.056 0.266 0.045 0.378-0.030s0.178-0.203 0.173-0.338l-0.047-1.331c0.086-0.069 0.171-0.138 0.255-0.21l1.296 0.305c0.132 0.031 0.27-0.007 0.365-0.104s0.135-0.233 0.104-0.365l-0.305-1.297c0.071-0.084 0.141-0.169 0.21-0.256l1.331 0.047c0.134 0.005 0.263-0.060 0.338-0.173s0.087-0.255 0.030-0.379l-0.551-1.209c0.054-0.098 0.107-0.196 0.158-0.295l1.311-0.213c0.134-0.021 0.246-0.11 0.297-0.236 0.052-0.124 0.036-0.267-0.044-0.376l-0.776-1.078c0.033-0.106 0.066-0.213 0.097-0.321l1.244-0.465c0.126-0.047 0.22-0.156 0.245-0.289 0.027-0.133-0.017-0.269-0.117-0.361l-0.973-0.908c0.012-0.11 0.023-0.22 0.032-0.33l1.132-0.701c0.115-0.071 0.184-0.196 0.184-0.331s-0.070-0.26-0.184-0.331zM19.205 25.061c-0.432-0.093-0.707-0.52-0.615-0.953s0.518-0.709 0.95-0.615c0.433 0.092 0.708 0.519 0.615 0.952s-0.519 0.708-0.951 0.616zM18.82 22.459c-0.394-0.084-0.782 0.167-0.867 0.562l-0.402 1.876c-1.241 0.563-2.618 0.876-4.069 0.876-1.484 0-2.891-0.328-4.154-0.915l-0.402-1.876c-0.085-0.395-0.473-0.646-0.867-0.561l-1.656 0.356c-0.307-0.317-0.593-0.653-0.856-1.009h8.058c0.091 0 0.152-0.016 0.152-0.1v-2.85c0-0.083-0.061-0.099-0.152-0.099h-2.357v-1.807h2.549c0.233 0 1.244 0.066 1.567 1.359 0.101 0.398 0.324 1.691 0.476 2.105 0.151 0.464 0.768 1.392 1.426 1.392h4.015c0.046 0 0.094-0.005 0.145-0.014-0.278 0.378-0.584 0.737-0.913 1.071l-1.694-0.364zM7.676 25.022c-0.432 0.093-0.858-0.183-0.951-0.616-0.093-0.434 0.182-0.86 0.615-0.953 0.433-0.092 0.858 0.183 0.951 0.616s-0.183 0.86-0.615 0.953zM4.619 12.627c0.179 0.405-0.003 0.879-0.407 1.058s-0.877-0.003-1.057-0.408c-0.179-0.405 0.003-0.879 0.407-1.058s0.877 0.003 1.057 0.408zM3.679 14.854l1.725-0.767c0.368-0.164 0.535-0.595 0.371-0.965l-0.355-0.803h1.397v6.298h-2.819c-0.245-0.86-0.376-1.767-0.376-2.704 0-0.358 0.020-0.712 0.056-1.059zM11.25 14.243v-1.857h3.327c0.172 0 1.214 0.199 1.214 0.978 0 0.647-0.799 0.879-1.456 0.879l-3.085 0.001zM23.343 15.914c0 0.246-0.009 0.49-0.027 0.732h-1.012c-0.101 0-0.142 0.067-0.142 0.166v0.464c0 1.094-0.617 1.331-1.157 1.392-0.515 0.058-1.085-0.215-1.155-0.531-0.304-1.707-0.809-2.072-1.608-2.702 0.992-0.629 2.023-1.558 2.023-2.801 0-1.342-0.92-2.188-1.547-2.602-0.88-0.58-1.854-0.696-2.117-0.696h-10.462c1.419-1.583 3.341-2.705 5.516-3.113l1.233 1.294c0.279 0.292 0.741 0.303 1.032 0.024l1.38-1.32c2.891 0.538 5.339 2.338 6.75 4.807l-0.945 2.133c-0.163 0.369 0.003 0.801 0.372 0.965l1.819 0.808c0.032 0.323 0.048 0.649 0.048 0.98zM12.888 5.122c0.319-0.306 0.826-0.294 1.132 0.026 0.305 0.321 0.294 0.828-0.027 1.134s-0.826 0.294-1.132-0.026c-0.305-0.32-0.293-0.828 0.027-1.134zM22.262 12.666c0.179-0.405 0.652-0.587 1.057-0.408s0.586 0.653 0.407 1.058c-0.179 0.405-0.652 0.588-1.057 0.408s-0.586-0.653-0.407-1.058z"></path>
</svg>
