<!-- Generated by IcoMoon.io -->
<svg version="1.1" xmlns="http://www.w3.org/2000/svg" width="32" height="32" viewBox="0 0 32 32">
<title>safari-sp</title>
<path d="M17.168 17.168l-2.336-2.336-4.457 6.793zM16 0.5c-8.563 0-15.5 6.938-15.5 15.5s6.938 15.5 15.5 15.5 15.5-6.938 15.5-15.5-6.938-15.5-15.5-15.5zM25.741 11.424l0.924-0.383c0.056-0.024 0.122-0.038 0.191-0.038 0.207 0 0.385 0.126 0.461 0.306l0.001 0.003c0.024 0.057 0.038 0.123 0.038 0.192 0 0.207-0.126 0.385-0.306 0.461l-0.003 0.001-0.922 0.382c-0.056 0.024-0.122 0.038-0.191 0.038-0.207 0-0.385-0.126-0.461-0.305l-0.001-0.003c-0.024-0.057-0.038-0.123-0.038-0.192 0-0.207 0.125-0.384 0.304-0.46l0.003-0.001zM19.652 5.875l0.383-0.924c0.078-0.182 0.255-0.307 0.461-0.307 0.069 0 0.135 0.014 0.195 0.040l-0.003-0.001c0.183 0.077 0.309 0.255 0.309 0.462 0 0.069-0.014 0.135-0.039 0.194l0.001-0.003-0.383 0.924c-0.077 0.183-0.255 0.309-0.462 0.309-0.069 0-0.135-0.014-0.194-0.039l0.003 0.001c-0.183-0.077-0.309-0.255-0.309-0.462 0-0.070 0.014-0.136 0.040-0.196l-0.001 0.003zM16 3.75v0c0.276 0 0.5 0.224 0.5 0.5v0 1c0 0.276-0.224 0.5-0.5 0.5v0 0c-0.276 0-0.5-0.224-0.5-0.5v0-1c0-0.276 0.224-0.5 0.5-0.5v0zM11.313 4.683c0.057-0.024 0.123-0.038 0.192-0.038 0.207 0 0.385 0.126 0.461 0.306l0.001 0.003 0.382 0.922c0.026 0.059 0.042 0.128 0.042 0.2 0 0.276-0.224 0.5-0.5 0.5-0.211 0-0.391-0.13-0.464-0.314l-0.001-0.003-0.383-0.924c-0.024-0.056-0.037-0.121-0.037-0.189 0-0.207 0.126-0.385 0.305-0.461l0.003-0.001zM7.339 7.338v0c0.090-0.090 0.215-0.146 0.353-0.146s0.263 0.056 0.353 0.146v0l0.704 0.707c0.090 0.090 0.145 0.215 0.145 0.352s-0.056 0.262-0.145 0.353l0-0c-0.090 0.090-0.215 0.146-0.353 0.146s-0.263-0.056-0.353-0.146l-0.707-0.707c-0.089-0.090-0.144-0.214-0.144-0.352s0.056-0.263 0.146-0.353v0zM3.75 16v0c0-0.276 0.224-0.5 0.5-0.5v0h1c0.276 0 0.5 0.224 0.5 0.5v0 0c0 0.276-0.224 0.5-0.5 0.5v0h-1c-0.276 0-0.5-0.224-0.5-0.5v0zM6.259 20.576l-0.924 0.383c-0.056 0.024-0.122 0.038-0.191 0.038-0.207 0-0.385-0.126-0.461-0.306l-0.001-0.003c-0.024-0.057-0.038-0.123-0.038-0.192 0-0.207 0.126-0.385 0.306-0.461l0.003-0.001 0.922-0.382c0.056-0.024 0.122-0.038 0.191-0.038 0.207 0 0.385 0.126 0.461 0.305l0.001 0.003c0.024 0.057 0.038 0.123 0.038 0.192 0 0.206-0.125 0.384-0.304 0.46l-0.003 0.001zM6.53 12.076v0c-0.077 0.184-0.255 0.311-0.463 0.311-0.069 0-0.135-0.014-0.195-0.040l0.003 0.001-0.924-0.383c-0.182-0.078-0.307-0.255-0.307-0.461 0-0.069 0.014-0.135 0.040-0.195l-0.001 0.003c0.077-0.183 0.255-0.309 0.462-0.309 0.069 0 0.135 0.014 0.194 0.039l-0.003-0.001 0.924 0.383c0.183 0.077 0.308 0.255 0.308 0.462 0 0.069-0.014 0.134-0.039 0.194l0.001-0.003zM12.348 26.125l-0.383 0.924c-0.077 0.183-0.255 0.309-0.462 0.309-0.276 0-0.5-0.224-0.5-0.5 0-0.069 0.014-0.135 0.039-0.195l-0.001 0.003 0.383-0.924c0.075-0.188 0.255-0.318 0.466-0.318 0.276 0 0.5 0.224 0.5 0.5 0 0.072-0.015 0.141-0.043 0.203l0.001-0.003zM16.5 27.75c0 0.276-0.224 0.5-0.5 0.5v0 0c-0.276 0-0.5-0.224-0.5-0.5v0-1c0-0.276 0.224-0.5 0.5-0.5v0 0c0.276 0 0.5 0.224 0.5 0.5v0zM20.688 27.317v0c-0.057 0.024-0.123 0.038-0.192 0.038-0.207 0-0.385-0.126-0.461-0.306l-0.001-0.003-0.382-0.922c-0.024-0.056-0.038-0.122-0.038-0.191 0-0.207 0.126-0.385 0.305-0.461l0.003-0.001c0.056-0.024 0.122-0.038 0.191-0.038 0.207 0 0.385 0.126 0.461 0.305l0.001 0.003 0.383 0.924c0.024 0.056 0.037 0.121 0.037 0.189 0 0.207-0.126 0.385-0.305 0.461l-0.003 0.001zM24.661 24.662v0c-0.090 0.090-0.215 0.146-0.353 0.146s-0.263-0.056-0.353-0.146v0l-0.704-0.707c-0.090-0.090-0.145-0.215-0.145-0.352s0.056-0.262 0.145-0.353l-0 0c0.090-0.090 0.215-0.146 0.353-0.146s0.263 0.056 0.353 0.146l0.707 0.707c0.089 0.090 0.144 0.214 0.144 0.352s-0.056 0.263-0.146 0.353v0zM17.891 17.891l-10.994 7.213 7.213-10.994 10.994-7.213zM27.317 20.688v0c-0.077 0.183-0.255 0.309-0.462 0.309-0.069 0-0.135-0.014-0.194-0.039l0.003 0.001-0.924-0.383c-0.183-0.077-0.309-0.255-0.309-0.462 0-0.069 0.014-0.135 0.039-0.194l-0.001 0.003c0.077-0.183 0.255-0.309 0.462-0.309 0.070 0 0.136 0.014 0.196 0.040l-0.003-0.001 0.924 0.383c0.182 0.078 0.307 0.255 0.307 0.461 0 0.069-0.014 0.135-0.040 0.195l0.001-0.003zM27.75 16.5h-1c-0.276 0-0.5-0.224-0.5-0.5v0 0c0-0.276 0.224-0.5 0.5-0.5v0h1c0.276 0 0.5 0.224 0.5 0.5v0 0c0 0.276-0.224 0.5-0.5 0.5v0z"></path>
</svg>
