<!-- Generated by IcoMoon.io -->
<svg version="1.1" xmlns="http://www.w3.org/2000/svg" width="32" height="32" viewBox="0 0 32 32">
<title>safari</title>
<path d="M16 3.196c-0.591 0-1.173 0.037-1.746 0.106-0.038-0.142-0.103-0.272-0.188-0.386 0.303-0.309 0.487-0.718 0.487-1.166 0-0.966-0.856-1.749-1.911-1.749s-1.911 0.783-1.911 1.749c0 0.774 0.55 1.431 1.312 1.661-0.010 0.060-0.017 0.122-0.017 0.185 0 0.052 0.005 0.102 0.011 0.152-6.028 1.721-10.441 7.27-10.441 13.85 0 7.954 6.448 14.402 14.402 14.402s14.402-6.448 14.402-14.402c-0-7.954-6.448-14.402-14.402-14.402zM11.185 1.749c0-0.737 0.653-1.334 1.458-1.334s1.457 0.597 1.457 1.334c0 0.335-0.135 0.64-0.357 0.875-0.17-0.102-0.369-0.162-0.582-0.162-0.414 0-0.776 0.223-0.973 0.555-0.582-0.175-1.002-0.676-1.002-1.267zM16 29.733c-6.702 0-12.135-5.433-12.135-12.135s5.433-12.135 12.135-12.135 12.135 5.433 12.135 12.135c0 6.702-5.433 12.135-12.135 12.135z"></path>
<path d="M24.47 22.729l0.792 0.504c1.001-1.642 1.578-3.571 1.578-5.634 0-0.728-0.072-1.438-0.209-2.125l-0.858 0.191c-0.108 0.024-0.215-0.041-0.238-0.146s0.045-0.209 0.154-0.233l0.86-0.191c-0.634-2.682-2.264-4.978-4.479-6.478l-0.559 0.88c-0.058 0.092-0.179 0.12-0.27 0.062s-0.117-0.179-0.058-0.271l0.561-0.882c-1.665-1.042-3.633-1.646-5.743-1.646-0.694 0-1.372 0.066-2.029 0.19l0.223 1.003c0.024 0.107-0.042 0.213-0.146 0.237s-0.209-0.045-0.233-0.152l-0.225-1.009c-2.719 0.617-5.050 2.256-6.567 4.493l0.889 0.565c0.093 0.059 0.122 0.181 0.065 0.271s-0.18 0.116-0.273 0.057l-0.892-0.567c-1.046 1.667-1.651 3.639-1.651 5.752 0 0.722 0.071 1.428 0.206 2.111l1.034-0.23c0.108-0.024 0.215 0.041 0.238 0.146s-0.045 0.209-0.154 0.233l-1.037 0.231c0.641 2.727 2.313 5.057 4.581 6.556l0.634-0.998c0.059-0.092 0.18-0.12 0.27-0.063s0.117 0.179 0.058 0.271l-0.635 0.998c1.644 1.004 3.576 1.583 5.643 1.583 0.756 0 1.494-0.078 2.207-0.225l-0.228-1.022c-0.024-0.107 0.042-0.213 0.146-0.237s0.209 0.045 0.233 0.152l0.227 1.021c2.689-0.658 4.985-2.32 6.467-4.566l-0.792-0.503c-0.093-0.059-0.122-0.181-0.065-0.271s0.18-0.116 0.273-0.056zM11.638 14.556l1.98 0.722c0.285-0.293 0.623-0.532 0.999-0.704v-4.015l1.738 3.733c0.136 0.015 0.27 0.037 0.401 0.068l-0.291 0.273c-0.152-0.024-0.307-0.036-0.466-0.036-1.658 0-3.001 1.344-3.001 3.002 0 0.342 0.058 0.671 0.164 0.977l-0.211 0.351c-0.002-0.004-0.003-0.007-0.005-0.011h-3.964l3.719-1.731c0.053-0.424 0.185-0.824 0.382-1.183l-1.445-1.445zM9.501 25.522l5.345-8.884 7.489-7.024-5.345 8.884-0.038 0.036-7.451 6.988zM20.54 20.413l-1.941-0.742c-0.26 0.325-0.579 0.601-0.942 0.809l0.050-0.008-0.065 4.144-1.649-3.692c-0.286-0.001-0.563-0.038-0.828-0.106l0.286-0.268c0.178 0.033 0.361 0.051 0.548 0.051 1.658 0 3.001-1.344 3.001-3.001 0-0.463-0.105-0.901-0.292-1.293l0.195-0.325c0.004 0.006 0.008 0.012 0.011 0.019l4.058 0.063-3.651 1.631c-0.012 0.424-0.102 0.828-0.258 1.198l1.475 1.522zM15.966 16.669c-0.512 0.023-0.909 0.457-0.886 0.969s0.457 0.909 0.969 0.886c0.512-0.023 0.909-0.457 0.886-0.969s-0.457-0.909-0.969-0.886z"></path>
</svg>
