<!-- Generated by IcoMoon.io -->
<svg version="1.1" xmlns="http://www.w3.org/2000/svg" width="28" height="32" viewBox="0 0 28 32">
<title>schlix</title>
<path d="M21.906 9.856l-3.387-2.881 4.588-2.438 4.894 2.763-6.094 2.556zM12 7.631l2.856-1.763 2.169 2.163-3.463 1.813-1.563-2.213zM7.931 8.044l1.994-1.381 1.075 1.775-2.294 1.406-0.775-1.8zM6.475 13.556l-0.55-2.175 1.85-1.144 0.819 2.206-2.119 1.113zM5.15 8.325l1.494-1.131 0.556 1.5-1.669 1.144-0.381-1.512zM3.688 12.906l-0.225-1.775 1.394-0.969 0.381 1.794-1.55 0.95zM1.775 13.944l1.3-0.8 0.206 2.088-1.431 0.75-0.075-2.037zM0.087 16.75l1.2-0.637 0.025 2.387-1.313 0.55 0.087-2.3zM3.781 20.456l-1.769 0.519-0.1-2.925 1.569-0.669 0.3 3.075zM6.188 16.45l-1.944 0.813-0.325-2.55 1.712-0.9 0.556 2.638zM7.7 23.563l-2.6 0.369-0.506-3.969 2.2-0.675 0.906 4.275zM9.481 14.819l1.325 3.569-2.888 0.85-0.856-3.381 2.419-1.037zM14.838 29.225l-4.431-0.206-1.519-5.988 3.45-0.538 2.5 6.731zM9.531 11.744l2.637-1.4 1.75 2.869-3.175 1.331-1.213-2.8zM12.094 17.675l3.831-1.169 3.3 5.413-4.988 0.706-2.144-4.95zM15.306 12.325l4.206-1.8 4.094 4.088-5.537 1.638-2.762-3.925z"></path>
</svg>
