<!-- Generated by IcoMoon.io -->
<svg version="1.1" xmlns="http://www.w3.org/2000/svg" width="32" height="32" viewBox="0 0 32 32">
<title>scrum</title>
<path d="M22.567 23.153c0.091 0.006 0.188 0.017 0.285 0.018 1.381 0.001 2.761-0.007 4.141 0.007 0.303 0.003 0.392-0.101 0.376-0.389-0.020-0.377-0.005-0.755-0.005-1.222 1.567 1.153 3.080 2.266 4.635 3.41-1.542 1.136-3.056 2.251-4.635 3.413 0-0.439 0-0.802-0-1.165-0-0.47-0.001-0.47-0.456-0.47-8.825 0-17.65 0-26.475 0-0.427 0-0.427-0-0.427-0.429 0-0.931 0.012-1.861-0.007-2.791-0.006-0.302 0.090-0.37 0.38-0.369 4.745 0.009 9.49 0.016 14.234 0.002 2.433-0.007 4.353-1.014 5.622-3.11 2.291-3.785-0.097-8.744-4.487-9.383-3.39-0.493-6.542 1.783-7.117 5.231-0.060 0.359-0.064 0.728-0.1 1.16 0.554-0.075 1.058-0.143 1.627-0.221-0.892 1.724-1.752 3.388-2.624 5.074-1.338-1.379-2.655-2.736-3.944-4.064 0.323-0.054 0.753-0.115 1.178-0.205 0.081-0.017 0.199-0.147 0.197-0.222-0.024-0.902 0.039-1.796 0.214-2.681 0.005-0.027-0.007-0.058-0.015-0.11-0.861-0.146-1.661-0.457-2.385-0.958-1.771-1.227-2.698-3.508-2.264-5.587 0.474-2.266 2.182-3.96 4.391-4.377 1.432-0.27 2.76-0.013 3.993 0.744 0.218 0.134 0.35 0.154 0.493-0.079 0.083-0.136 0.209-0.248 0.353-0.414 0.179 0.724 0.347 1.4 0.514 2.077 0.056 0.228 0.101 0.459 0.167 0.683 0.072 0.244-0.001 0.351-0.259 0.334-0.743-0.050-1.487-0.096-2.23-0.146-0.183-0.012-0.366-0.033-0.602-0.055 0.184-0.231 0.351-0.44 0.532-0.667-0.401-0.306-0.843-0.457-1.304-0.532-2.227-0.364-4.188 1.346-4.144 3.6 0.034 1.729 1.492 3.275 3.214 3.421 0.223 0.019 0.3-0.095 0.387-0.261 1.22-2.342 3.059-3.997 5.558-4.859 5.784-1.994 11.823 1.579 12.938 7.428 0.549 2.88-0.076 5.51-1.824 7.868-0.048 0.065-0.092 0.134-0.134 0.204-0.008 0.013 0.003 0.038 0.010 0.091z"></path>
</svg>
