<!-- Generated by IcoMoon.io -->
<svg version="1.1" xmlns="http://www.w3.org/2000/svg" width="28" height="32" viewBox="0 0 28 32">
<title>sellcast</title>
<path d="M22.087 2h-16.169c-3.256 0-5.919 2.662-5.919 5.912v16.169c0 3.256 2.663 5.919 5.919 5.919h16.169c3.256 0 5.919-2.663 5.919-5.912v-16.175c0-3.25-2.663-5.912-5.919-5.912zM18.962 21.775c-1.744 3.012-5.619 4.056-8.637 2.325-1.431 2.488-3.431 0.538-2.644-0.825l0.981-1.7c0.369-0.644 1.2-0.869 1.844-0.494 1.162 0.675-0.006-0.006 1.156 0.669 1.725 0.994 3.963 0.394 4.963-1.331 0.994-1.725 0.394-3.962-1.331-4.963-1.113-0.637-0.037-0.025-1.162-0.662-1.537-0.887-0.213-3.244 1.35-2.344 1.163 0.675-0.006-0.006 1.156 0.669 3.025 1.75 4.069 5.644 2.325 8.656zM20.325 8.725c-1.063 1.844-1.019 1.8-1.188 1.969-0.406 0.406-1.019 0.544-1.656 0.225-1.163-0.675 0.006 0.006-1.156-0.669-1.725-0.994-3.963-0.394-4.963 1.331s-0.394 3.963 1.331 4.963c0 0 1.156 0.663 1.162 0.663 1.537 0.887 0.213 3.244-1.35 2.344-1.162-0.675 0.006 0.006-1.156-0.669-3.013-1.738-4.056-5.631-2.319-8.65 1.744-3.013 5.619-4.056 8.637-2.325l0.3-0.525c0.894-1.556 3.25-0.206 2.356 1.344z"></path>
</svg>
