<!-- Generated by IcoMoon.io -->
<svg version="1.1" xmlns="http://www.w3.org/2000/svg" width="32" height="32" viewBox="0 0 32 32">
<title>senchatouch</title>
<path d="M13.473 0.027l-0.001 0-0 0.001 0.001-0z"></path>
<path d="M13.509 0.002c-0.003-0.008-0.028 0.008-0.035 0.025 0.014-0.006 0.051 0.016 0.035-0.025z"></path>
<path d="M9.544 19.185c-0.011-0.009-0.022-0.018-0.033-0.028 0.004 0.017 0.014 0.028 0.033 0.028z"></path>
<path d="M18.635 31.875c-0 0-0 0-0 0-0.039-0.008-0.063 0.024-0.095 0.036-0.036 0.018-0.082 0.024-0.098 0.089 0.045-0.015 0.078-0.018 0.097-0.051 0.053-0.013 0.103-0.031 0.142-0.072 0.018-0.002 0.032-0.009 0.038-0.028-0.005-0.006-0.010-0.012-0.016-0.017-0.029 0.004-0.054 0.014-0.068 0.042z"></path>
<path d="M26.558 21.474c0.016-0.429-0.003-0.857-0.059-1.283-0-0.012-0.001-0.024-0.002-0.035 0.005-0.075 0.005-0.15-0.027-0.221v0c0-0-0-0-0-0-0.002-0.018-0.003-0.036-0.005-0.054-0-0.152-0.024-0.302-0.067-0.448 0.006-0.106-0.026-0.206-0.052-0.307-0.017-0.13-0.040-0.259-0.088-0.383 0.004-0.042 0.002-0.082-0.029-0.115 0.006-0.009 0.004-0.017-0.005-0.023 0.003-0.041 0.002-0.081-0.031-0.112 0.005-0.010 0.003-0.019-0.006-0.026-0.051-0.262-0.13-0.515-0.233-0.76-0.045-0.193-0.118-0.375-0.208-0.551-0.001-0.032-0.007-0.062-0.035-0.083v0c0.005-0.009 0.002-0.015-0.007-0.019-0.049-0.158-0.118-0.307-0.203-0.449 0.001-0.029-0.007-0.055-0.034-0.071-0.092-0.23-0.21-0.446-0.346-0.653-0.001-0.029-0.014-0.051-0.038-0.067 0.001-0.020-0.008-0.034-0.027-0.042-0.003-0.027-0.012-0.051-0.039-0.065-0.133-0.258-0.294-0.498-0.474-0.725-0.139-0.222-0.301-0.428-0.478-0.62v0c-0.282-0.362-0.596-0.695-0.942-0.997-0.268-0.266-0.552-0.511-0.863-0.723-0.035-0.049-0.084-0.080-0.138-0.103-0.024-0.038-0.059-0.061-0.102-0.072-0.006-0.019-0.019-0.028-0.038-0.029l-0.002-0.001c-0.013-0.026-0.035-0.038-0.063-0.042 0-0.001 0-0.001 0-0.002-0.354-0.266-0.73-0.494-1.129-0.686-0.041-0.041-0.093-0.061-0.147-0.076 0-0 0-0 0-0-0.014-0.022-0.037-0.027-0.060-0.028-0.046-0.046-0.107-0.065-0.163-0.092-0.374-0.188-0.748-0.375-1.123-0.561-0.138-0.068-0.267-0.156-0.416-0.202-0.044-0.048-0.107-0.065-0.162-0.093-0.95-0.476-1.901-0.951-2.852-1.426-0.189-0.094-0.369-0.206-0.569-0.277-0.198-0.126-0.415-0.217-0.623-0.322-0.204-0.103-0.403-0.217-0.617-0.298-0.049-0.050-0.116-0.070-0.176-0.099-0.276-0.135-0.547-0.278-0.799-0.456-0.111-0.079-0.22-0.16-0.33-0.24-0 0-0 0.001-0 0.001-0.005-0.020-0.018-0.030-0.038-0.033-0.005-0.018-0.018-0.030-0.036-0.035-0.277-0.266-0.531-0.551-0.758-0.86-0-0.017-0.007-0.030-0.023-0.036-0.007-0.016-0.012-0.032-0.021-0.047-0.576-0.901-0.823-1.881-0.718-2.948 0.069-0.696 0.287-1.341 0.652-1.938 0.325-0.531 0.746-0.971 1.246-1.34 0.066-0.035 0.135-0.066 0.178-0.132h-0c0.031 0.002 0.057-0.009 0.074-0.036 0-0 0-0 0-0 0.067-0.015 0.13-0.035 0.163-0.103-0.081 0.011-0.147 0.050-0.208 0.101-0.017 0.005-0.032 0.013-0.034 0.033v0c-0.081 0.012-0.148 0.054-0.212 0.102-0.537 0.272-1.074 0.544-1.612 0.815-1.018 0.513-1.936 1.166-2.748 1.966-0.883 0.87-1.595 1.864-2.139 2.979-0.651 1.334-0.995 2.746-1.070 4.224-0.031 0.597-0.005 1.194 0.070 1.787 0.023 0.18 0.029 0.365 0.093 0.539-0.001 0.131 0.028 0.256 0.070 0.379 0.002 0.012 0.004 0.023 0.006 0.035-0.005 0.040-0.001 0.078 0.027 0.111 0.003 0.021 0.006 0.041 0.010 0.062-0.005 0.030-0.001 0.058 0.023 0.080 0 0 0 0 0 0 0.043 0.258 0.112 0.509 0.209 0.753-0.004 0.011-0.002 0.020 0.006 0.029-0.004 0.030 0.003 0.057 0.028 0.078 0 0 0 0 0 0-0.004 0.010-0.002 0.019 0.006 0.025-0.003 0.031 0.004 0.057 0.028 0.078 0.027 0.133 0.071 0.26 0.137 0.379 0.060 0.201 0.137 0.396 0.241 0.579 0.001 0.030 0.008 0.059 0.035 0.078-0.003 0.010-0 0.018 0.009 0.024-0.001 0.021 0.008 0.036 0.026 0.046-0.003 0.010-0.001 0.018 0.008 0.023-0.002 0.028 0.008 0.050 0.031 0.066l0.001 0.002c-0.001 0.029 0.010 0.051 0.034 0.067l0.001 0.002c-0.001 0.029 0.010 0.051 0.034 0.067l0.001 0.002c-0.001 0.028 0.010 0.051 0.033 0.067 0.035 0.116 0.098 0.217 0.167 0.315h0c0.002 0.028 0.011 0.052 0.037 0.068 0.001 0.028 0.014 0.050 0.037 0.066l0.001 0.002c-0 0.022 0.010 0.038 0.029 0.048 0.046 0.123 0.119 0.231 0.198 0.335 0.145 0.254 0.306 0.497 0.494 0.721 0.002 0.019 0.011 0.032 0.029 0.038 0.004 0.026 0.017 0.046 0.042 0.058 0 0 0 0 0 0 0.133 0.196 0.281 0.381 0.448 0.55l0.005 0.006c0.001 0.018 0.011 0.028 0.029 0.032l0.003 0.003c0.001 0.019 0.011 0.031 0.030 0.035l0.001 0.001c0.003 0.019 0.014 0.031 0.033 0.035l0 0c0.004 0.018 0.013 0.031 0.032 0.037 0.003 0.020 0.016 0.032 0.035 0.038 0.117 0.145 0.238 0.285 0.384 0.402 0.242 0.254 0.498 0.492 0.783 0.699l0.002-0c0.005 0.020 0.019 0.030 0.039 0.033 0.005 0.018 0.017 0.028 0.037 0.030-0.012-0.010-0.024-0.020-0.036-0.030-0-0-0-0-0-0 0.015 0.007 0.025 0.019 0.036 0.030l0.002 0.002c0.009 0.011 0.020 0.021 0.033 0.028l0.007 0.004c0.012 0.024 0.030 0.039 0.056 0.043 0.006 0.019 0.020 0.027 0.038 0.030 0.005 0.018 0.017 0.029 0.036 0.030-0.012-0.010-0.024-0.020-0.036-0.030 0.013 0.009 0.025 0.019 0.036 0.030l0.004 0.002c0.004 0.015 0.012 0.025 0.029 0.024-0 0-0 0-0-0s0 0 0 0c0.005 0.011 0.013 0.017 0.025 0.016 0.008 0.020 0.023 0.030 0.044 0.033 0.005 0.018 0.017 0.028 0.037 0.029l0.004 0.003c0.004 0.015 0.012 0.025 0.029 0.023 0.13 0.107 0.264 0.209 0.415 0.286l0.002 0.001c0.012 0.027 0.035 0.037 0.062 0.041 0.006 0.018 0.020 0.026 0.039 0.027l0.002 0.002c0.013 0.027 0.036 0.037 0.063 0.040 0.006 0.018 0.020 0.026 0.039 0.026l0.005 0.002c0.014 0.024 0.035 0.037 0.062 0.039l-0-0c0.423 0.287 0.879 0.513 1.344 0.723 0.016 0.026 0.041 0.035 0.070 0.035 0.314 0.177 0.635 0.339 0.967 0.48 0.029 0.039 0.075 0.050 0.115 0.070 0.28 0.143 0.56 0.286 0.842 0.426 0.358 0.178 0.717 0.354 1.076 0.53 0.007 0.009 0.016 0.012 0.027 0.010 0.008 0.018 0.021 0.027 0.041 0.024 0.007 0.009 0.017 0.013 0.028 0.010 0.008 0.018 0.021 0.027 0.041 0.024 0.237 0.128 0.473 0.256 0.722 0.357 0.188 0.116 0.388 0.209 0.59 0.298 0.006 0.009 0.015 0.012 0.025 0.010 0.008 0.017 0.021 0.026 0.041 0.024 0.007 0.009 0.017 0.013 0.028 0.010 0.008 0.017 0.021 0.026 0.041 0.024 0.144 0.082 0.288 0.163 0.444 0.218 0-0 0-0 0-0.001 0.006 0.019 0.019 0.026 0.038 0.024 0.18 0.102 0.36 0.203 0.553 0.279l0.009 0.009 0.013-0.001c0.010 0.019 0.026 0.027 0.047 0.026 0.155 0.092 0.316 0.175 0.484 0.242l0.008 0.009 0.012-0.001c0.010 0.019 0.026 0.027 0.047 0.026 0.15 0.080 0.3 0.16 0.45 0.24v0c0.004 0.010 0.011 0.013 0.021 0.010 0.009 0.020 0.025 0.029 0.046 0.030v0c0.137 0.096 0.273 0.193 0.41 0.289 0.139 0.122 0.278 0.244 0.417 0.367v0c0.125 0.142 0.249 0.284 0.374 0.425 0.093 0.134 0.186 0.268 0.28 0.402 0.002 0.028 0.013 0.050 0.038 0.064l0.002 0.003c-0.001 0.019 0.006 0.033 0.024 0.041 0.003 0.027 0.011 0.052 0.038 0.066 0.002 0.029 0.011 0.053 0.037 0.069v0c0 0.028 0.013 0.049 0.036 0.064 0.034 0.1 0.074 0.196 0.134 0.284 0.069 0.195 0.138 0.391 0.207 0.586 0.028 0.151 0.056 0.302 0.102 0.449 0.003 0.021 0.005 0.042 0.008 0.063-0.006 0.062-0 0.122 0.025 0.18 0.001 0.002 0.001 0.003 0.002 0.005 0.017 0.329 0.024 0.658 0.008 0.987-0.047 0.338-0.122 0.671-0.211 1-0.129 0.331-0.281 0.652-0.453 0.964-0.174 0.246-0.356 0.487-0.551 0.717-0.222 0.205-0.441 0.415-0.685 0.594-0.065 0.023-0.115 0.070-0.17 0.108-0.031 0.012-0.063 0.024-0.079 0.057 0.005 0.006 0.011 0.011 0.016 0.017 0.024-0.002 0.049-0.004 0.063-0.028 0.073-0.032 0.146-0.063 0.208-0.114 0.247-0.119 0.497-0.233 0.729-0.379-0 0-0 0-0-0s0 0 0 0c0.011 0.003 0.020 0 0.026-0.010 0.021 0.003 0.035-0.005 0.044-0.024 0.053-0.008 0.099-0.030 0.137-0.069l0.016 0 0.012-0.011c0.020 0.003 0.034-0.005 0.042-0.024 0.012 0.003 0.021-0.001 0.027-0.012 0.019 0.003 0.031-0.005 0.036-0.024 0.028-0 0.054-0.006 0.068-0.035l0.001-0c0.029 0 0.054-0.006 0.068-0.034h0.001c0.029 0 0.054-0.006 0.068-0.034l0.001-0c0.029 0 0.055-0.007 0.070-0.034v0c0.354-0.162 0.701-0.337 1.024-0.555l0.007-0.003c0.020 0.002 0.032-0.007 0.038-0.026 0.028-0.002 0.052-0.009 0.064-0.038l0.003-0.002c0.021-0 0.038-0.008 0.047-0.029v0c0.011 0.003 0.019-0.001 0.022-0.012 0.020 0.002 0.030-0.007 0.035-0.025l0.001-0.001c0.028 0 0.047-0.013 0.060-0.037l0.007-0.004c0.020 0.002 0.032-0.007 0.037-0.027 0.028-0 0.047-0.015 0.059-0.038 0.044-0.026 0.090-0.048 0.132-0.077 0.721-0.495 1.375-1.067 1.955-1.721 0.308-0.347 0.603-0.703 0.849-1.099 0.027-0.012 0.037-0.034 0.041-0.061 0.019-0.006 0.027-0.020 0.027-0.040l0.001-0.002c0.026-0.012 0.037-0.035 0.041-0.062 0.019-0.006 0.027-0.020 0.027-0.040l0.001-0.002c0.027-0.013 0.037-0.036 0.039-0.063 0.019-0.006 0.027-0.019 0.026-0.039l0.002-0.004c0.026-0.013 0.037-0.035 0.038-0.063 0.028-0.012 0.036-0.037 0.041-0.064 0.019-0.007 0.026-0.021 0.025-0.041l0.001-0.001c0.095-0.114 0.159-0.248 0.229-0.377 0.158-0.289 0.319-0.576 0.429-0.889 0.029-0.018 0.034-0.046 0.034-0.076 0.118-0.229 0.21-0.467 0.278-0.715 0.090-0.213 0.163-0.43 0.204-0.658 0.030-0.031 0.036-0.069 0.030-0.109 0.010-0.007 0.012-0.016 0.006-0.027 0.084-0.247 0.143-0.501 0.17-0.761 0.033-0.043 0.034-0.092 0.029-0.143 0.003-0.019 0.005-0.038 0.008-0.057 0.005-0.015 0.007-0.028 0.008-0.038 0.057-0.25 0.090-0.502 0.094-0.759 0.043-0.16 0.036-0.324 0.033-0.487 0.039-0.088 0.017-0.182 0.020-0.271z"></path>
</svg>
