<!-- Generated by IcoMoon.io -->
<svg version="1.1" xmlns="http://www.w3.org/2000/svg" width="28" height="32" viewBox="0 0 28 32">
<title>shirtsinbulk</title>
<path d="M6.25 25.644l1.912 0.837 0.275-0.619-1.912-0.837zM8.713 26.738l1.912 0.837 0.275-0.619-1.912-0.837zM19.469 25.863l0.275 0.619 1.913-0.837-0.275-0.619zM11.194 27.813l1.894 0.856 0.275-0.619-1.894-0.837zM3.775 24.55l1.913 0.837 0.275-0.6-1.912-0.856zM16.988 26.956l0.275 0.619 1.913-0.837-0.275-0.619zM14.531 28.050l0.275 0.619 1.912-0.856-0.275-0.6zM21.931 24.788l0.275 0.6 1.913-0.837-0.275-0.619zM10.625 2.913h-2.094v0.656h2.094zM7.675 2.913h-2.1v0.656h2.094zM4.719 2.913h-2.075v0.656h2.081zM13.563 2.913h-2.075v0.656h2.075zM19.469 2.913h-2.094v0.656h2.094zM22.425 2.913h-2.094v0.656h2.094zM16.512 2.913h-2.075v0.656h2.075zM25.356 2.913h-2.081v0.656h2.081zM3.3 21.944h-0.675v2.094h0.675zM7.675 8.45h-2.1v0.656h2.094zM3.3 9.113h1.425v-0.656h-2.1v2.094h0.675zM13.856 23.4c3.156 0 5.706-2.55 5.706-5.706 0-3.137-2.55-5.706-5.706-5.706-3.137 0-5.706 2.569-5.706 5.706 0 3.156 2.569 5.706 5.706 5.706zM10.844 16.456c0-1.588 1.844-1.988 3.1-1.988 1.056 0 1.825 0.363 2.769 0.75l-0.55 1.056h-0.056c-0.4-0.619-1.55-0.819-2.225-0.819-0.563 0-1.863 0.113-1.863 0.931 0 1.35 4.906-0.637 4.906 2.369 0 1.587-1.969 1.95-3.188 1.95-1.131 0-2.025-0.181-2.95-0.762l0.563-1.15h0.056c0.381 0.762 1.475 0.931 2.244 0.931 0.544 0 2.044-0.075 2.044-0.894 0-1.631-4.85 0.394-4.85-2.375zM3.3 11.15h-0.675v2.1h0.675zM24.7 24.038h0.675v-2.094h-0.675zM3.3 19.244h-0.675v2.094h0.675zM0 0.231v25.375l13.856 6.162 14.144-6.163v-25.375zM26.175 24.425l-12.3 5.356-12.050-5.356v-16.881h24.356v16.881zM26.175 5.719h-24.35v-3.663h24.356v3.663zM3.3 13.85h-0.675v2.094h0.675zM3.3 16.55h-0.675v2.094h0.675zM10.625 8.45h-2.094v0.656h2.094zM24.7 18.644h0.675v-2.094h-0.675zM24.7 15.944h0.675v-2.094h-0.675zM13.563 8.45h-2.075v0.656h2.075zM24.7 13.25h0.675v-2.094h-0.675zM24.7 21.344h0.675v-2.094h-0.675zM16.512 8.45h-2.075v0.656h2.075zM19.469 8.45h-2.094v0.656h2.094zM24.7 10.55h0.675v-2.094h-2.094v0.656h1.425zM22.425 8.45h-2.094v0.656h2.094z"></path>
</svg>
