<!-- Generated by IcoMoon.io -->
<svg version="1.1" xmlns="http://www.w3.org/2000/svg" width="32" height="32" viewBox="0 0 32 32">
<title>shopware</title>
<path d="M25.219 28.463c-2.529 1.897-5.72 3.037-9.178 3.037-0.015 0-0.029-0-0.043-0h0.002c-8.574 0-15.5-6.938-15.5-15.5 0-8.574 6.938-15.5 15.5-15.5 0.004 0 0.009 0 0.013 0 3.984 0 7.615 1.506 10.357 3.981l-0.014-0.012c0.045 0.041 0.073 0.1 0.073 0.165 0 0.123-0.1 0.223-0.223 0.223-0.010 0-0.020-0.001-0.030-0.002l0.001 0c-1.040-0.146-2.242-0.23-3.463-0.23-0.029 0-0.058 0-0.086 0h0.004c-8.085 0-13.9 3.342-13.9 9.709 0 6.813 5.758 9.117 11.052 11.171 2.102 0.813 4.087 1.585 5.438 2.599 0.054 0.041 0.089 0.106 0.089 0.179s-0.035 0.137-0.089 0.178l-0.001 0zM31.438 14.568c-0.006-0.061-0.035-0.115-0.079-0.152l-0-0c-3.235-2.688-5.851-3.78-9.030-3.78-5.258 0-5.016 3.261-5.016 3.352 0 2.663 3.254 3.875 7.021 5.281 1.942 0.724 3.949 1.473 5.793 2.496 0.030 0.017 0.067 0.026 0.105 0.026 0.093 0 0.173-0.057 0.207-0.139l0.001-0.002c0.674-1.677 1.064-3.621 1.064-5.656 0-0.502-0.024-0.998-0.070-1.488l0.005 0.063z"></path>
</svg>
