<!-- Generated by IcoMoon.io -->
<svg version="1.1" xmlns="http://www.w3.org/2000/svg" width="32" height="32" viewBox="0 0 32 32">
<title>simplybuilt</title>
<path d="M30.075 4h-6.625c-0.906 0-1.663 0.737-1.663 1.644v2.475h-11.581v-2.475c0-0.906-0.75-1.644-1.662-1.644h-6.625c-0.913 0-1.65 0.737-1.65 1.644v20.712c0 0.906 0.738 1.644 1.663 1.644h28.15c0.925 0 1.663-0.738 1.663-1.644v-20.712c-0.012-0.906-0.75-1.644-1.669-1.644zM9.363 22.238c-2.287 0-4.15-1.856-4.15-4.15 0-2.306 1.856-4.162 4.15-4.162 2.306 0 4.162 1.856 4.162 4.162 0 2.294-1.856 4.15-4.162 4.15zM22.637 22.238c-2.306 0-4.162-1.856-4.162-4.162 0-2.287 1.856-4.15 4.163-4.15 2.288 0 4.15 1.856 4.15 4.15 0 2.306-1.863 4.163-4.15 4.163z"></path>
</svg>
