<!-- Generated by IcoMoon.io -->
<svg version="1.1" xmlns="http://www.w3.org/2000/svg" width="32" height="32" viewBox="0 0 32 32">
<title>smashing-magazine</title>
<path d="M25.378 0.224c0.558 0.228 1.116 0.736 1.383 1.231 0.165 0.317 1.015 3.933 4.415 18.7 0.457 1.966 0.825 3.869 0.825 4.237 0 0.799-0.266 1.37-0.901 1.941-0.507 0.469-0.787 0.571-3.349 1.18l-1.522 0.355 0.406-0.774c0.558-1.040 0.825-2.271 0.825-3.73 0-2.804-1.040-5.125-3.133-6.99-1.218-1.091-3.019-2.093-5.772-3.222-3.831-1.56-4.948-2.525-4.948-4.263 0.013-1.928 1.535-2.918 4.186-2.74 1.319 0.102 2.715 0.444 4.161 1.040 0.609 0.254 1.193 0.482 1.294 0.52 0.152 0.051 0.393-0.495 1.066-2.322 0.482-1.307 0.901-2.448 0.926-2.525 0.076-0.203-2.030-1.129-3.451-1.522-1.662-0.444-1.7-0.457-1.459-0.52 3.21-0.812 4.25-0.939 5.049-0.596zM7.503 4.487c-0.381 0.545-0.761 1.332-0.964 1.941-0.292 0.875-0.342 1.231-0.342 2.601 0 1.395 0.038 1.7 0.33 2.512 1.104 3.070 3.692 5.278 8.348 7.13 2.081 0.825 3.476 1.611 4.186 2.36 0.723 0.761 0.939 1.395 0.863 2.537-0.063 1.066-0.482 1.687-1.459 2.169-0.71 0.343-0.799 0.355-2.639 0.355-1.763 0-2.004-0.025-3.298-0.406-0.761-0.216-1.827-0.584-2.347-0.799-0.52-0.228-1.053-0.419-1.18-0.431-0.165-0.013-0.482 0.546-1.357 2.385-0.634 1.319-1.142 2.448-1.142 2.486 0 0.152 1.992 1.015 3.286 1.421 0.672 0.216 1.307 0.419 1.408 0.444 0.101 0.038-0.495 0.228-1.332 0.431-2.639 0.647-3.882 0.368-4.58-1.028-0.178-0.355-1.281-4.884-2.842-11.659-2.804-12.115-2.728-11.646-2.042-12.724 0.495-0.787 1.256-1.116 3.755-1.687 1.751-0.381 3.882-0.888 3.958-0.939 0.013-0.013-0.254 0.393-0.609 0.901z"></path>
</svg>
