<!-- Generated by IcoMoon.io -->
<svg version="1.1" xmlns="http://www.w3.org/2000/svg" width="32" height="32" viewBox="0 0 32 32">
<title>snapchat-ghost</title>
<path d="M31.928 24.542c-0.326 0.76-1.702 1.318-4.21 1.707-0.129 0.174-0.236 0.918-0.407 1.497-0.102 0.348-0.351 0.554-0.758 0.554l-0.019-0c-0.587 0-1.2-0.27-2.428-0.27-1.658 0-2.229 0.378-3.516 1.287-1.364 0.965-2.673 1.798-4.627 1.712-1.978 0.146-3.627-1.057-4.554-1.713-1.295-0.915-1.864-1.286-3.515-1.286-1.179 0-1.921 0.295-2.428 0.295-0.505 0-0.701-0.308-0.776-0.565-0.169-0.574-0.275-1.329-0.408-1.508-1.292-0.201-4.207-0.709-4.281-2.009-0.001-0.011-0.001-0.024-0.001-0.037 0-0.329 0.239-0.601 0.552-0.655l0.004-0.001c4.349-0.716 6.308-5.181 6.389-5.371 0.005-0.011 0.010-0.021 0.015-0.032 0.232-0.471 0.284-0.866 0.154-1.172-0.316-0.744-1.679-1.010-2.253-1.237-1.482-0.585-1.688-1.258-1.601-1.719 0.152-0.802 1.358-1.296 2.063-0.966 0.557 0.261 1.053 0.394 1.472 0.394 0.314 0 0.513-0.075 0.623-0.136-0.128-2.246-0.444-5.456 0.355-7.248 2.111-4.732 6.585-5.1 7.905-5.1 0.059 0 0.571-0.006 0.632-0.006 3.259 0 6.391 1.674 7.92 5.103 0.799 1.791 0.484 4.987 0.356 7.251 0.099 0.055 0.272 0.121 0.537 0.134 0.4-0.018 0.863-0.149 1.379-0.391 0.38-0.178 0.9-0.154 1.28 0.004l0.002 0.001c0.592 0.212 0.965 0.638 0.974 1.117 0.012 0.609-0.533 1.135-1.617 1.564-0.132 0.052-0.293 0.103-0.465 0.158-0.612 0.194-1.538 0.488-1.788 1.079-0.13 0.306-0.078 0.701 0.154 1.172 0.005 0.011 0.010 0.021 0.015 0.032 0.081 0.189 2.038 4.654 6.389 5.371 0.402 0.066 0.698 0.492 0.483 0.991z"></path>
</svg>
