<!-- Generated by IcoMoon.io -->
<svg version="1.1" xmlns="http://www.w3.org/2000/svg" width="31" height="32" viewBox="0 0 31 32">
<title>snapchat</title>
<path d="M15.5 0.5c-8.563 0-15.5 6.938-15.5 15.5s6.938 15.5 15.5 15.5 15.5-6.938 15.5-15.5-6.938-15.5-15.5-15.5zM26.094 21.681c-0.219 0.506-1.131 0.875-2.8 1.137-0.087 0.119-0.156 0.613-0.269 0.994-0.069 0.231-0.231 0.369-0.506 0.369h-0.012c-0.387 0-0.8-0.181-1.613-0.181-1.1 0-1.481 0.25-2.337 0.856-0.906 0.644-1.775 1.194-3.075 1.137-1.313 0.1-2.412-0.7-3.031-1.137-0.863-0.606-1.238-0.856-2.338-0.856-0.781 0-1.275 0.194-1.613 0.194s-0.469-0.206-0.519-0.375c-0.112-0.381-0.181-0.881-0.269-1-0.862-0.131-2.8-0.469-2.844-1.337-0.013-0.225 0.144-0.425 0.369-0.462 2.894-0.475 4.194-3.444 4.25-3.569 0-0.006 0.006-0.012 0.012-0.019 0.156-0.313 0.188-0.575 0.1-0.781-0.213-0.494-1.119-0.669-1.5-0.825-0.987-0.387-1.125-0.838-1.063-1.144 0.1-0.531 0.9-0.863 1.369-0.644 0.369 0.175 0.7 0.262 0.981 0.262 0.206 0 0.344-0.050 0.412-0.088-0.088-1.494-0.294-3.625 0.238-4.819 1.406-3.144 4.381-3.394 5.256-3.394 0.037 0 0.381-0.006 0.419-0.006 2.169 0 4.25 1.112 5.269 3.394 0.531 1.194 0.325 3.319 0.238 4.819 0.069 0.037 0.181 0.081 0.356 0.088 0.269-0.012 0.575-0.1 0.919-0.262 0.25-0.119 0.6-0.1 0.85 0 0.394 0.144 0.644 0.425 0.65 0.744 0.006 0.406-0.356 0.756-1.075 1.037-0.087 0.037-0.194 0.069-0.306 0.106-0.406 0.131-1.025 0.325-1.188 0.719-0.087 0.206-0.050 0.469 0.1 0.781 0.006 0.006 0.006 0.012 0.012 0.019 0.056 0.125 1.356 3.094 4.25 3.569 0.25 0.063 0.444 0.344 0.306 0.675z"></path>
</svg>
