<!-- Generated by IcoMoon.io -->
<svg version="1.1" xmlns="http://www.w3.org/2000/svg" width="32" height="32" viewBox="0 0 32 32">
<title>snap-svg</title>
<path d="M15.989 27.168l-4.665-2.276 0.005-0.002-0.001-0-4.957 2.418 9.622 4.693 9.638-4.683-4.975-2.465z"></path>
<path d="M6.382 27.323v-4.836l4.771-2.327 4.907 2.42z"></path>
<path d="M21.283 7.419v7.647l-5.333 2.6 4.905 2.442 4.775-2.326v-13.080z"></path>
<path d="M25.63 27.319v0-4.837l-14.901-7.421v-7.647l-4.347-2.716v13.080z"></path>
<path d="M10.716 7.407v-0.001l5.276-2.573 5.276 2.573 4.341-2.713-9.621-4.693-9.619 4.696 4.342 2.713z"></path>
</svg>
