<!-- Generated by IcoMoon.io -->
<svg version="1.1" xmlns="http://www.w3.org/2000/svg" width="28" height="32" viewBox="0 0 28 32">
<title>sourcetree</title>
<path d="M26.7 12.688c0-7.006-5.681-12.688-12.688-12.688-7.006-0.013-12.688 5.662-12.7 12.662 0 0.007-0 0.015-0 0.023 0 5.609 3.643 10.368 8.692 12.039l0.090 0.026v6.356c0 0.494 0.4 0.894 0.894 0.894v0h6.025c0.494 0 0.894-0.4 0.894-0.894v-6.35c5.141-1.698 8.787-6.457 8.794-12.068v-0.001zM9.725 12.688c0-5.675 8.581-5.675 8.581 0-0.006 5.619-8.581 5.688-8.581 0z"></path>
</svg>
