<!-- Generated by IcoMoon.io -->
<svg version="1.1" xmlns="http://www.w3.org/2000/svg" width="32" height="32" viewBox="0 0 32 32">
<title>speaker-deck</title>
<path d="M13.366 18.5h-7.116c-3.452 0-6.25-2.798-6.25-6.25s2.798-6.25 6.25-6.25v0h8.303c1.381 0 2.5 1.119 2.5 2.5s-1.119 2.5-2.5 2.5v0h-8.428c-1.654 0-1.653 2.5 0 2.5h7.114c3.452 0 6.25 2.798 6.25 6.25s-2.798 6.25-6.25 6.25v0h-10.739c-1.381 0-2.5-1.119-2.5-2.5s1.119-2.5 2.5-2.5v0h10.866c1.655 0 1.654-2.5 0-2.5zM18.625 26c1.67-1.145 2.843-2.91 3.188-4.956l0.006-0.044h4.034c0.68-0.006 1.229-0.559 1.229-1.239 0-0.004-0-0.008-0-0.011v0.001-7.5c0-0.003 0-0.007 0-0.011 0-0.681-0.549-1.233-1.228-1.239h-7.328c0.583-0.664 0.939-1.541 0.939-2.5s-0.356-1.836-0.942-2.504l0.004 0.004h8.558c2.715 0 4.916 2.239 4.916 5v10c0 2.761-2.201 5-4.916 5z"></path>
</svg>
