<!-- Generated by IcoMoon.io -->
<svg version="1.1" xmlns="http://www.w3.org/2000/svg" width="32" height="32" viewBox="0 0 32 32">
<title>spring</title>
<path d="M29.094 1.667c-0.45 1.075-1.021 2.096-1.708 3.033-3.008-3.008-7.092-4.7-11.346-4.7-8.8 0-16.042 7.25-16.042 16.063 0 4.396 1.8 8.604 4.983 11.637l0.592 0.525c2.892 2.438 6.554 3.779 10.333 3.779 8.367 0 15.4-6.558 15.996-14.917 0.438-4.092-0.762-9.267-2.808-15.421zM7.26 27.792c-0.258 0.321-0.654 0.508-1.067 0.508-0.754 0-1.371-0.621-1.371-1.375s0.621-1.375 1.371-1.375c0.313 0 0.621 0.108 0.862 0.308 0.588 0.475 0.679 1.346 0.204 1.933zM29.027 22.983c-3.958 5.279-12.412 3.5-17.833 3.754 0 0-0.963 0.058-1.929 0.217 0 0 0.363-0.154 0.833-0.333 3.804-1.325 5.604-1.583 7.917-2.771 4.354-2.217 8.658-7.067 9.554-12.113-1.658 4.854-6.683 9.025-11.262 10.721-3.137 1.158-8.804 2.283-8.804 2.283l-0.229-0.121c-3.858-1.879-3.975-10.242 3.038-12.942 3.071-1.183 6.008-0.533 9.325-1.325 3.542-0.842 7.637-3.5 9.304-6.967 1.867 5.546 4.112 14.229 0.087 19.596z"></path>
</svg>
