<!-- Generated by IcoMoon.io -->
<svg version="1.1" xmlns="http://www.w3.org/2000/svg" width="28" height="32" viewBox="0 0 28 32">
<title>staylinked</title>
<path d="M23.919 18.281l0.169 0.169-10.625-10.456c-0.219-0.219-0.606-0.231-0.863-0.031l-3.581 2.725c-0.262 0.2-0.287 0.544-0.069 0.762l4.256 4.019c0.225 0.219 0.619 0.231 0.875 0.031l0.006-0.006c0.256-0.2 0.65-0.188 0.875 0.031l5.25 5.081c0.225 0.219 0.2 0.563-0.056 0.762l-5.825 4.625c-0.262 0.206-0.656 0.194-0.887-0.025l-9.494-9.219c-0.219-0.219-0.606-0.231-0.869-0.031l-2.862 2.181c-0.263 0.2-0.294 0.544-0.075 0.762l13.044 12.256s0.463 0.425 1.081-0.050l12.375-10.244c0.25-0.2 0.275-0.544 0.044-0.762zM27.325 13.069l-13.156-12.912c-0.094-0.075-0.5-0.344-1.019 0.069l-12.925 10.131c-0.263 0.2-0.3 0.544-0.075 0.762l2.644 2.606 10.731 10.319c0.231 0.219 0.631 0.231 0.894 0.025l3.138-2.425-0.019-0.019 0.481-0.375c0.262-0.2 0.288-0.544 0.056-0.762l-3.569-3.4c-0.225-0.219-0.625-0.231-0.887-0.031l-0.006 0.006c-0.262 0.2-0.656 0.194-0.887-0.025l-5.912-5.738c-0.225-0.219-0.194-0.556 0.069-0.762l5.762-4.469c0.256-0.2 0.644-0.188 0.869 0.031l10.025 9.938c0.231 0.219 0.625 0.231 0.881 0.031l2.863-2.238c0.256-0.2 0.275-0.544 0.044-0.762z"></path>
</svg>
