<!-- Generated by IcoMoon.io -->
<svg version="1.1" xmlns="http://www.w3.org/2000/svg" width="28" height="32" viewBox="0 0 28 32">
<title>steam-sp</title>
<path d="M11.575 22.281c0.481-1.156-0.063-2.481-1.225-2.962l-1.844-0.762c0.713-0.269 1.519-0.281 2.275 0.031 0.762 0.319 1.35 0.913 1.669 1.669 0.313 0.762 0.313 1.6-0.006 2.356-0.656 1.569-2.463 2.313-4.037 1.656-0.725-0.3-1.275-0.85-1.588-1.512l1.781 0.738c1.162 0.488 2.494-0.056 2.975-1.212zM25 2h-22c-1.656 0-3 1.344-3 3v10.044l7.287 3.006c0.75-0.512 1.637-0.756 2.544-0.706l3.463-5.012v-0.069c0-3.013 2.456-5.469 5.475-5.469s5.475 2.456 5.475 5.469c0 3.075-2.556 5.544-5.6 5.469l-4.938 3.519c0.1 2.406-1.819 4.3-4.106 4.3-1.987 0-3.656-1.419-4.031-3.294l-5.569-2.306v7.050c0 1.656 1.344 3 3 3h22c1.656 0 3-1.344 3-3v-22c0-1.656-1.344-3-3-3zM18.769 15.906c-2.012 0-3.65-1.631-3.65-3.644s1.638-3.644 3.65-3.644 3.65 1.637 3.65 3.644-1.637 3.644-3.65 3.644zM18.775 14.994c1.512 0 2.744-1.225 2.744-2.737s-1.225-2.738-2.744-2.738c-1.512 0-2.744 1.225-2.744 2.738s1.231 2.738 2.744 2.738z"></path>
</svg>
