<!-- Generated by IcoMoon.io -->
<svg version="1.1" xmlns="http://www.w3.org/2000/svg" width="36" height="32" viewBox="0 0 36 32">
<title>sticker-mule</title>
<path d="M35.106 12.475c-0.081 0.019 0.019 0 0 0zM34.719 7.638c-0.481-1.394-0.319-0.45-0.837-2.306-0.1-0.406-0.225-0.906-0.388-1.25-0.275-0.544-0.288-0.469-0.288-0.594 0-0.331 1.919-2.831 1.188-2.931-0.356-0.037-0.763 0.725-1.288 1.063-0.538 0.262-0.5 0.313-0.644 0.313-0.163 0-0.356-0.188-0.388-0.313-0.125-0.356 0.119-1.619-0.225-1.619-0.225 0-0.769 1.55-1.063 1.613-0.325 0.081-1.744-0.713-4.694 1.125-1.581 0.825-5.431 4.075-5.438 4.081-0.419 0.294-1.25 0.294-2.219 1-2.775 1.881-6.85 0.587-6.919 0.563-6.912-1.675-8-0.95-9.938 0.719-1.3 1.119-1.481 2.281-1.512 2.431-0.263 1.275 0.325 3.019 0.419 4.019 0.112 1.206-0.169 1.106 0.481 6.144 0.031 0.063 0.256 0 0.319 0.094 0 0.525-0.238 0.756-0.256 0.813-0.094 0.281-0.094 0.656 0 1 0.144 0.512 0.512 2.325 0.512 2.931 0 2.613 0.025 2.75 0.163 3.087 0.244 0.625 0.781 0.569 1.062 0.75 0.194 0.219-0.031 0.531 0.063 0.781 0.031 0.125 0.225 0.25 0.388 0.313 0.575 0.225 1.688 0.019 1.869-0.156 0.1-0.094 0.031-0.281 0.194-0.313 0.319 0 0.675-0.031 0.9-0.156 0.319-0.156 0.256-0.375 0.094-0.656-0.025-0.050-0.438-0.831-0.612-1-0.131-0.125-0.319-0.188-0.45-0.281-0.362-0.306-0.644-1.212-0.644-1.219-0.287-1.212-0.644-2.894-0.256-4.175 0.287-1.075 2.469-5.481 2.475-5.488 0.256-0.406 1.063-0.719 1.706-0.438 0.375 0.119 1.206 1.375 4.088 1.931 2.994 0.544 6.088-0.125 7.013-0.125 0.175 0.125-0.119 0.813-0.031 2.431 0 1.65-0.025 0.856-0.256 1.869-0.137 0.606 0.212 1.45-0.094 2.931-0.087 0.613-0.619 2.044-0.512 2.712 0.031 0.063 0.063 0.125 0.094 0.219 0.031 0.281 0.094 0.531 0.288 0.625 0.456 0.225 0.75-0.219 0.613 0.719-0.044 0.194-0.163 0.75 0.094 0.938 0.275 0.231 1.913 0.212 2.281 0.031 0.163-0.094 0.1-0.281 0.4-0.462 0.119-0.056 0.706-0.025 0.706-0.406 0.019-0.113-0.575-1.244-0.581-1.25-0.163-0.219-0.575-0.281-0.706-0.5-0.431-0.631-0.106-3.288 0.031-3.712 0.188-0.688 0.35-1.4 0.544-2.025 0.688-2.656 0.644-3.163 1.031-4.269 0.050-0.113 0.4-1.444 0.644-1.869 0.581-1.063 1.356-2.025 2.094-2.963 1.125-1.431 2.125-2.931 3.25-4.362 0.381-0.438 0.512-0.856 1.125-0.5 0.675 0.356 1.35 0.438 1.994 1.063 0.913 0.8 0.638 1.137 0.737 1.431 0.094 0.313 0.481 0.656 0.931 0.594 0.65-0.125 0.813-0.156 0.837-0.156 0.163-0.031 0.356-0.313 0.45-0.5 0.194-0.344 0.45-0.563 0.45-1.031 0-0.481-0.025-0.175-1.288-3.306z"></path>
</svg>
