<!-- Generated by IcoMoon.io -->
<svg version="1.1" xmlns="http://www.w3.org/2000/svg" width="32" height="32" viewBox="0 0 32 32">
<title>streamline</title>
<path d="M16 13.091c-8.156 0-14.546-2.875-14.546-6.545s6.389-6.546 14.546-6.546 14.546 2.875 14.546 6.546c0 3.67-6.389 6.545-14.546 6.545zM16 1.455c-6.192 0-13.091 2.091-13.091 5.091s6.899 5.091 13.091 5.091c6.192 0 13.091-2.091 13.091-5.091s-6.899-5.091-13.091-5.091z"></path>
<path d="M16 18.909c-8.156 0-14.546-2.875-14.546-6.546v-5.818c0-0.402 0.325-0.727 0.727-0.727s0.727 0.325 0.727 0.727v5.818c0 3 6.899 5.091 13.091 5.091s13.091-2.091 13.091-5.091v-5.818c0-0.402 0.325-0.727 0.727-0.727s0.727 0.325 0.727 0.727v5.818c0 3.671-6.389 6.546-14.545 6.546z"></path>
<path d="M16 25.455c-8.156 0-14.546-2.875-14.546-6.546v-6.546c0-0.402 0.325-0.727 0.727-0.727s0.727 0.325 0.727 0.727v6.546c0 3 6.899 5.091 13.091 5.091s13.091-2.091 13.091-5.091v-6.546c0-0.402 0.325-0.727 0.727-0.727s0.727 0.325 0.727 0.727v6.546c0 3.67-6.389 6.546-14.545 6.546z"></path>
<path d="M16 32c-8.156 0-14.546-2.875-14.546-6.545v-6.546c0-0.402 0.325-0.727 0.727-0.727s0.727 0.325 0.727 0.727v6.546c0 3 6.899 5.091 13.091 5.091s13.091-2.091 13.091-5.091v-6.546c0-0.402 0.325-0.727 0.727-0.727s0.727 0.325 0.727 0.727v6.546c0 3.67-6.389 6.545-14.545 6.545z"></path>
</svg>
