<!-- Generated by IcoMoon.io -->
<svg version="1.1" xmlns="http://www.w3.org/2000/svg" width="24" height="32" viewBox="0 0 24 32">
<title>stripe-s</title>
<path d="M9.706 9.662c0-1.394 1.162-1.931 3.025-1.931 2.713 0 6.156 0.831 8.869 2.294v-8.394c-2.956-1.181-5.906-1.631-8.863-1.631-7.231 0-12.050 3.775-12.050 10.088 0 9.869 13.55 8.269 13.55 12.525 0 1.65-1.431 2.181-3.419 2.181-2.95 0-6.763-1.219-9.756-2.844v8.031c2.873 1.272 6.224 2.017 9.747 2.025h0.003c7.412 0 12.519-3.188 12.519-9.6 0-10.637-13.625-8.731-13.625-12.744z"></path>
</svg>
