<!-- Generated by IcoMoon.io -->
<svg version="1.1" xmlns="http://www.w3.org/2000/svg" width="32" height="32" viewBox="0 0 32 32">
<title>studiovinari</title>
<path d="M30.019 11.731l0.262 1.75v1.75l-1.569 2.756-2.488 4.9-3.506 4.219-4.944 2.363-1.106 1.531-0.481 0.75-0.6 0.25s1.081-3.975 1.213-3.975c0.131 0 1.269 0.044 1.269 0.044l4.169-2.413-5.781 1.631-3.494 2.3-1.425 1.75-0.412 0.087 1.3-4.6 0.431-0.344 1.294 0.806 5.519-2.825 3.55-3.219 0.925-4.275-7.838 1.456 0.95-1.137-10.838-3.331 5.119-0.656-10.375-7.681 7.181 1.131-6.331-6.75 15.806 7.912-1.969-2.375 7.775 4.65-8.956-6.188 1.169 2.4-3.1-1.131-2.844-5.269 12.162 7.625-2.681-3.487 6.75 6.025 0.75-0.556-1.313-1.025 0.262-2.362 2.363-0.65 1.825 1.544 0.719 0.263-0.438 0.388 0.531 0.75-0.819 0.463-0.644 1.262 0.656 1.494z"></path>
</svg>
