<!-- Generated by IcoMoon.io -->
<svg version="1.1" xmlns="http://www.w3.org/2000/svg" width="31" height="32" viewBox="0 0 31 32">
<title>stumbleupon-circle</title>
<path d="M16 0.5c-8.563 0-15.5 6.938-15.5 15.5s6.938 15.5 15.5 15.5 15.5-6.938 15.5-15.5-6.938-15.5-15.5-15.5zM16 11.594c-0.613 0-1.113 0.5-1.113 1.113v6.681c0 2.556-2.119 4.619-4.681 4.619-2.588 0-4.681-2.094-4.681-4.681v-2.906h3.581v2.863c0 0.625 0.5 1.113 1.113 1.113s1.113-0.494 1.113-1.113v-6.775c0-2.5 2.137-4.506 4.669-4.506 2.544 0 4.669 2.019 4.669 4.537v1.481l-2.131 0.631-1.431-0.669v-1.287c0.006-0.6-0.494-1.1-1.106-1.1zM26.475 19.319c0 2.587-2.094 4.681-4.681 4.681-2.575 0-4.681-2.075-4.681-4.637v-2.925l1.431 0.669 2.131-0.631v2.944c0 0.613 0.5 1.1 1.113 1.1s1.113-0.494 1.113-1.1v-3h3.581c-0.006 2.869-0.006 2.9-0.006 2.9z"></path>
</svg>
