<!-- Generated by IcoMoon.io -->
<svg version="1.1" xmlns="http://www.w3.org/2000/svg" width="32" height="32" viewBox="0 0 32 32">
<title>stylus</title>
<path d="M3.971 13.045c0.364 0 0.658 0.050 0.881 0.149s0.335 0.223 0.335 0.372c0 0.182-0.046 0.389-0.137 0.62s-0.178 0.422-0.261 0.571c-0.033 0.033-0.074 0.037-0.124 0.012s-0.075-0.070-0.075-0.137c0.050-0.115 0.075-0.281 0.075-0.496 0-0.231-0.062-0.422-0.186-0.571s-0.294-0.223-0.509-0.223c-0.281 0-0.509 0.087-0.682 0.261s-0.261 0.418-0.261 0.732c0 0.265 0.070 0.518 0.211 0.757s0.298 0.48 0.472 0.72c0.174 0.24 0.335 0.496 0.484 0.77s0.223 0.583 0.223 0.931c0 0.595-0.24 1.059-0.72 1.39s-1.109 0.497-1.886 0.497c-0.563 0-1.005-0.091-1.328-0.273s-0.484-0.38-0.484-0.595c0-0.066 0.025-0.157 0.074-0.273s0.116-0.24 0.199-0.372c0.083-0.132 0.174-0.264 0.273-0.397s0.207-0.24 0.323-0.322c0.050-0.033 0.095-0.025 0.136 0.025s0.046 0.099 0.013 0.149c-0.099 0.099-0.174 0.203-0.223 0.31s-0.075 0.253-0.075 0.434c0 0.298 0.099 0.542 0.298 0.732s0.455 0.286 0.769 0.286c0.43 0 0.765-0.12 1.005-0.36s0.36-0.534 0.36-0.881c0-0.314-0.071-0.608-0.211-0.881s-0.294-0.538-0.459-0.794c-0.166-0.256-0.319-0.517-0.459-0.782s-0.211-0.546-0.211-0.844c0-0.43 0.182-0.79 0.546-1.079s0.902-0.435 1.613-0.435z"></path>
<path d="M10.746 13.169c0.082 0.033 0.116 0.079 0.099 0.136s-0.091 0.104-0.223 0.137c-0.248 0-0.534 0.008-0.856 0.025s-0.666 0.042-1.030 0.074c-0.331 0.811-0.604 1.601-0.819 2.37s-0.323 1.394-0.323 1.874c0 0.562 0.215 0.844 0.645 0.844s0.91-0.372 1.44-1.117c0.049-0.033 0.095-0.033 0.136 0s0.054 0.091 0.037 0.174c-0.281 0.463-0.637 0.865-1.067 1.204s-0.852 0.509-1.266 0.509c-0.43 0-0.749-0.103-0.956-0.31s-0.31-0.492-0.31-0.856c0-0.48 0.116-1.142 0.347-1.986s0.529-1.704 0.894-2.581c-0.43 0.050-0.828 0.116-1.191 0.199-0.083-0.016-0.104-0.058-0.062-0.124s0.116-0.136 0.223-0.211c0.107-0.075 0.236-0.141 0.385-0.199s0.289-0.087 0.422-0.087c0.066 0 0.132 0 0.199 0s0.132-0.008 0.199-0.025c0.215-0.48 0.438-0.943 0.67-1.39s0.463-0.852 0.695-1.216c0.099-0.115 0.236-0.219 0.409-0.31s0.343-0.161 0.509-0.211c0.165-0.050 0.302-0.078 0.41-0.087s0.153 0.021 0.136 0.087c-0.281 0.431-0.558 0.91-0.831 1.44s-0.534 1.084-0.782 1.663c0.314-0.016 0.633-0.025 0.956-0.025s0.624 0 0.906 0z"></path>
<path d="M25.804 0.751c0.248 0 0.451 0.062 0.608 0.186s0.264 0.29 0.322 0.497c0.058 0.207 0.066 0.443 0.025 0.707s-0.137 0.53-0.286 0.794c-0.033 0.033-0.074 0.033-0.124 0s-0.083-0.074-0.099-0.124c0.033-0.199-0.037-0.364-0.211-0.496s-0.443-0.199-0.807-0.199c-0.679 0-1.361 0.252-2.048 0.757s-1.352 1.171-1.998 1.998c-0.645 0.828-1.25 1.779-1.812 2.854s-1.051 2.184-1.464 3.326c-0.414 1.141-0.741 2.275-0.981 3.4s-0.36 2.151-0.36 3.078c0 0.496 0.14 0.744 0.422 0.744 0.199 0 0.393-0.083 0.583-0.248s0.41-0.413 0.658-0.744c0.049-0.033 0.095-0.029 0.136 0.013s0.054 0.095 0.037 0.161c-0.331 0.496-0.72 0.91-1.167 1.241s-0.852 0.496-1.216 0.496c-0.315 0-0.534-0.091-0.658-0.273s-0.186-0.413-0.186-0.695c0-0.778 0.165-1.75 0.496-2.916s0.773-2.399 1.328-3.698c0.554-1.299 1.195-2.593 1.923-3.884s1.485-2.453 2.271-3.487c0.786-1.034 1.576-1.874 2.37-2.52s1.539-0.968 2.234-0.968z"></path>
<path d="M3.768 31.249c-0.248 0-0.451-0.062-0.608-0.186s-0.264-0.29-0.323-0.496c-0.058-0.207-0.066-0.443-0.025-0.707s0.136-0.529 0.285-0.794c0.033-0.034 0.075-0.034 0.124 0s0.083 0.074 0.099 0.124c-0.033 0.199 0.037 0.364 0.211 0.496s0.443 0.198 0.807 0.198c0.679 0 1.361-0.253 2.048-0.757s1.353-1.171 1.998-1.997c0.645-0.828 1.249-1.779 1.812-2.854s1.051-2.184 1.464-3.326c0.414-1.141 0.741-2.275 0.98-3.4s0.36-2.151 0.36-3.078c0-0.497-0.14-0.745-0.422-0.745-0.199 0-0.393 0.082-0.583 0.248s-0.41 0.414-0.658 0.745c-0.050 0.033-0.095 0.029-0.136-0.013s-0.053-0.095-0.037-0.162c0.331-0.496 0.72-0.91 1.167-1.241s0.852-0.496 1.216-0.496c0.314 0 0.534 0.090 0.658 0.273s0.186 0.414 0.186 0.695c0 0.778-0.165 1.75-0.497 2.916s-0.773 2.399-1.328 3.698c-0.554 1.299-1.195 2.593-1.923 3.884s-1.485 2.453-2.271 3.487c-0.786 1.034-1.576 1.874-2.37 2.519s-1.539 0.968-2.234 0.968z"></path>
<path d="M20.534 19.399c-0.695 0-1.042-0.381-1.042-1.142 0-0.265 0.029-0.571 0.087-0.918s0.149-0.707 0.273-1.080c0.124-0.372 0.269-0.748 0.434-1.129s0.364-0.744 0.596-1.092c-0.182 0.116-0.356 0.236-0.521 0.36s-0.314 0.252-0.447 0.384c-0.050 0.034-0.095 0.021-0.136-0.037s-0.046-0.111-0.012-0.161c0.281-0.298 0.682-0.604 1.204-0.918s1.021-0.562 1.502-0.745c0.082 0 0.145 0.021 0.186 0.062s0.046 0.095 0.013 0.161c-0.53 0.695-0.956 1.448-1.278 2.258s-0.484 1.597-0.484 2.358c0 0.48 0.149 0.72 0.447 0.72 0.215 0 0.48-0.145 0.794-0.434s0.645-0.67 0.993-1.142c0.347-0.471 0.699-1.005 1.055-1.6s0.682-1.2 0.98-1.812c0.049-0.099 0.194-0.198 0.434-0.298s0.484-0.149 0.732-0.149c0.248 0 0.323 0.067 0.223 0.199-0.232 0.431-0.434 0.831-0.608 1.204s-0.319 0.741-0.434 1.104c-0.116 0.364-0.203 0.732-0.261 1.104s-0.087 0.782-0.087 1.228c0 0.53 0.14 0.794 0.422 0.794s0.596-0.248 0.943-0.744c0.050-0.033 0.099-0.033 0.149 0s0.066 0.083 0.050 0.149c-0.282 0.43-0.592 0.757-0.931 0.98s-0.65 0.335-0.931 0.335c-0.695 0-1.042-0.405-1.042-1.216 0-0.844 0.149-1.679 0.447-2.507-0.629 1.141-1.291 2.048-1.985 2.718s-1.282 1.005-1.762 1.005z"></path>
<path d="M30.784 13.045c0.364 0 0.658 0.050 0.881 0.149s0.335 0.223 0.335 0.372c0 0.182-0.046 0.389-0.136 0.62s-0.178 0.422-0.261 0.571c-0.033 0.033-0.074 0.037-0.124 0.012s-0.075-0.070-0.075-0.137c0.050-0.115 0.075-0.281 0.075-0.496 0-0.231-0.062-0.422-0.186-0.571s-0.294-0.223-0.509-0.223c-0.282 0-0.509 0.087-0.683 0.261s-0.261 0.418-0.261 0.732c0 0.265 0.070 0.518 0.211 0.757s0.298 0.48 0.472 0.72c0.174 0.24 0.335 0.496 0.484 0.77s0.223 0.583 0.223 0.931c0 0.595-0.24 1.059-0.72 1.39s-1.109 0.497-1.886 0.497c-0.563 0-1.005-0.091-1.328-0.273s-0.484-0.38-0.484-0.595c0-0.066 0.025-0.157 0.074-0.273s0.116-0.24 0.198-0.372c0.083-0.132 0.174-0.264 0.273-0.397s0.207-0.24 0.323-0.322c0.050-0.033 0.095-0.025 0.137 0.025s0.045 0.099 0.012 0.149c-0.099 0.099-0.174 0.203-0.223 0.31s-0.075 0.253-0.075 0.434c0 0.298 0.099 0.542 0.298 0.732s0.455 0.286 0.769 0.286c0.43 0 0.765-0.12 1.005-0.36s0.36-0.534 0.36-0.881c0-0.314-0.070-0.608-0.211-0.881s-0.294-0.538-0.459-0.794c-0.166-0.256-0.319-0.517-0.459-0.782s-0.211-0.546-0.211-0.844c0-0.43 0.182-0.79 0.546-1.079s0.902-0.435 1.614-0.435z"></path>
</svg>
