<!-- Generated by IcoMoon.io -->
<svg version="1.1" xmlns="http://www.w3.org/2000/svg" width="27" height="32" viewBox="0 0 27 32">
<title>sublime</title>
<path d="M-0.002 16v13.484h26.969v-26.969h-26.969v13.484zM15.289 9.337c0.292 0.071 0.573 0.159 0.838 0.26 0.579 0.222 1.363 0.484 1.888 1.009 0.213 0.213 0.187 0.275-0.3 0.974-0.287 0.399-0.562 0.787-0.612 0.849-0.062 0.062-0.218-0.050-0.724-0.287-1.016-0.477-1.948-0.912-2.972-0.912-1.436 0-2.172 0.549-2.172 1.636 0 0.999 0.687 1.448 3.121 2.073 3.209 0.824 4.345 1.91 4.295 4.133-0.032 1.412-1.104 2.857-2.355 3.404-1.421 0.621-3.087 0.535-4.542 0.084-0.797-0.247-1.627-0.582-2.353-0.996-0.27-0.154-0.64-0.385-0.87-0.615-0.252-0.252-0.123-0.3 0.106-0.591 0.175-0.237 0.487-0.612 0.687-0.837l0.35-0.425 0.837 0.562c1.211 0.812 2.073 1.099 3.296 1.111 1.211 0.012 1.823-0.237 2.272-0.899 0.237-0.337 0.287-0.549 0.225-0.936-0.087-0.749-0.674-1.224-2.035-1.623-2.997-0.899-3.521-1.086-3.995-1.423-0.599-0.437-1.074-1.036-1.273-1.623-0.2-0.599-0.175-1.86 0.062-2.535 0.881-2.506 3.897-2.961 6.226-2.393z"></path>
</svg>
