<!-- Generated by IcoMoon.io -->
<svg version="1.1" xmlns="http://www.w3.org/2000/svg" width="40" height="32" viewBox="0 0 40 32">
<title>supple</title>
<path d="M40 16.406c0 4.006-6.813 7.256-15.219 7.256-1.55 0-3.038-0.113-4.444-0.313 0.481 0.025 0.969 0.038 1.462 0.038 8.406 0 15.219-3.556 15.219-7.944 0-1.838-1.194-3.525-3.2-4.875 3.75 1.319 6.181 3.444 6.181 5.838zM2.981 14.244c-0.006-4.388 6.8-7.956 15.206-7.975 0.494 0 0.975 0.013 1.456 0.031-1.406-0.2-2.894-0.306-4.438-0.306-8.406 0.025-15.213 3.287-15.206 7.294 0.006 2.394 2.444 4.519 6.206 5.831-2.019-1.344-3.219-3.038-3.225-4.875zM6.744 16.738s0.656 0.825 1.831 0.825c1.119 0 1.775-0.719 1.775-1.569 0-1.75-2.513-1.569-2.513-2.481 0-0.338 0.331-0.569 0.781-0.569 0.356 0 0.706 0.162 0.706 0.412v0.244h0.887v-0.494c0-0.756-0.963-1.050-1.588-1.050-1.031 0-1.781 0.637-1.781 1.506 0 1.662 2.513 1.588 2.513 2.494 0 0.413-0.363 0.631-0.769 0.631-0.744 0-1.294-0.631-1.294-0.631l-0.55 0.681zM14.294 12.137v3.4c0 0.706-0.444 1.112-1.113 1.112s-1.113-0.406-1.113-1.106v-3.406h-0.988v3.438c0 1.181 0.838 1.994 2.106 1.994 1.256 0 2.088-0.813 2.088-1.994v-3.438h-0.981zM16.444 17.475h0.988v-1.844h0.969c1 0 1.7-0.719 1.7-1.756s-0.7-1.738-1.7-1.738h-2.444v0.838h0.487v4.5zM17.431 14.787v-1.819h0.806c0.544 0 0.856 0.356 0.856 0.9 0 0.556-0.319 0.919-0.875 0.919h-0.788zM20.994 17.475h0.988v-1.844h0.969c1 0 1.7-0.719 1.7-1.756s-0.7-1.738-1.7-1.738h-2.444v0.838h0.488v4.5zM21.975 14.787v-1.819h0.806c0.544 0 0.856 0.356 0.856 0.9 0 0.556-0.313 0.919-0.875 0.919h-0.788zM25.544 16.962c0 0.363 0.15 0.512 0.512 0.512h2.35c0.363 0 0.512-0.15 0.512-0.512v-0.813h-0.894v0.325c0 0.106-0.063 0.163-0.163 0.163h-1.163c-0.106 0-0.163-0.063-0.163-0.163v-3.825c0-0.356-0.15-0.512-0.512-0.512h-0.962v0.838h0.325c0.106 0 0.163 0.063 0.163 0.162v3.825zM29.506 16.962c0 0.363 0.15 0.512 0.512 0.512h2.419c0.356 0 0.513-0.15 0.513-0.512v-0.813h-0.894v0.325c0 0.106-0.063 0.163-0.163 0.163h-1.231c-0.106 0-0.163-0.063-0.163-0.163v-1.269h1.731v-0.838h-1.731v-1.4h1.2c0.106 0 0.163 0.063 0.163 0.162v0.325h0.888v-0.813c0-0.356-0.156-0.512-0.513-0.512h-3.225v0.838h0.488v3.994zM33.188 12.213v0.369h0.1v-0.369h0.169v-0.075h-0.438v0.075h0.169zM33.544 12.137v0.444h0.094v-0.356l0.144 0.356h0.081l0.144-0.356v0.356h0.094v-0.444h-0.144l-0.131 0.319-0.131-0.319h-0.15z"></path>
</svg>
