<!-- Generated by IcoMoon.io -->
<svg version="1.1" xmlns="http://www.w3.org/2000/svg" width="40" height="32" viewBox="0 0 40 32">
<title>suse</title>
<path d="M29.442 6.416s-0.019 1.144-0.019 1.269c-0.569-0.188-4.65-1.506-8.481-1.644-3.244-0.112-7.675-0.269-13.938 3.581-1.213 0.775-4.619 2.881-6.225 6.856-0.343 0.834-0.787 2.709-0.343 4.462 0.225 0.85 0.58 1.594 1.046 2.253l-0.015-0.022c1.088 1.563 2.913 2.6 4.881 2.775 2.775 0.244 4.881-1 5.625-3.331 0.512-1.613 0-3.975-1.969-5.181-1.6-0.981-3.331-0.756-4.325-0.1-0.869 0.575-1.362 1.469-1.35 2.45 0.019 1.738 1.519 2.663 2.594 2.663 0.354-0.002 0.693-0.063 1.009-0.175l-0.021 0.007c0.406-0.113 0.831-0.406 0.831-0.931 0-0.756-0.725-0.925-1.050-0.869-0.181 0.031-0.281 0.125-0.737 0.15-0.125-0.012-0.75-0.194-0.75-0.875v-0.004c0.013-0.769 0.825-1.125 1.594-1.056 2.019 0.175 2.981 2.544 1.781 4.106-1.144 1.481-4.787 1.45-6.231-1.275-1.625-3.075 0.794-6.95 5.438-6.15 2.075 0.356 5.225 2.219 6.4 6.519h2.869c-0.356-1.1-0.556-4.269 2.669-4.269 3.544 0 3.994 2.494 4.988 4.269h3.038c-0.8-1.144-1.356-2.419-1.181-3.488 0.35-2.113 2.481-1.15 5.15-1.087 4.156 0.025 6.381-1.688 6.444-1.75 0.231-0.194 0.406-0.988 0.438-1.106 0.081-0.319-0.2-0.15-0.2-0.15-0.544 0.325-1.906 0.95-3.181 0.975-1.581 0.031-4.762-1.588-5.1-1.762-0.019-0.025 0.006 0.075-0.688-1.594 5.525 3.644 7.394 2.531 9.075 1.356 0.050-0.037 0.269-0.181 0.225-0.356-0.862-3.006-1.4-3.919-2.156-4.35-2.313-1.35-7.813-2.169-8.075-2.206 0.006-0.006-0.056-0.019-0.056 0.044zM33.218 10.966c0.042-1.263 1.076-2.27 2.345-2.27 0.030 0 0.060 0.001 0.091 0.002l-0.004-0c2.087 0.075 3.050 2.644 1.525 4.075-1.513 1.419-4.025 0.287-3.956-1.806zM35.63 9.385c-0.016-0.001-0.035-0.001-0.053-0.001-0.907 0-1.642 0.735-1.642 1.642s0.735 1.642 1.642 1.642c0.886 0 1.608-0.702 1.641-1.58l0-0.003c0.001-0.019 0.001-0.041 0.001-0.064 0-0.887-0.706-1.609-1.586-1.636l-0.002-0zM35.899 11.185c-0.962 0-0.962-0.975 0-0.975s0.962 0.977 0 0.977z"></path>
</svg>
