<!-- Generated by IcoMoon.io -->
<svg version="1.1" xmlns="http://www.w3.org/2000/svg" width="32" height="32" viewBox="0 0 32 32">
<title>swift</title>
<path d="M19.941 1.709c0 0 7.113 4.233 8.974 10.968 1.679 6.076 0.332 8.974 0.332 8.974s1.001 0.967 1.994 3.324c1.484 3.523 0.332 5.318 0.332 5.318s-0.109-2.477-3.656-2.991c-3.249-0.471-4.433 2.818-10.635 2.659-3.573-0.092-11.015-0.973-17.283-9.971 3.041 1.73 7.016 4.394 11.965 3.988s5.982-1.994 5.982-1.994-9.479-7.699-14.624-15.953c3.881 3.399 13.518 10.142 13.294 9.971-2.942-2.258-9.638-11.632-9.638-11.632s14.458 12.365 15.621 12.297c0.479-1.026 2.951-6.335-2.659-14.956z"></path>
</svg>
