<!-- Generated by IcoMoon.io -->
<svg version="1.1" xmlns="http://www.w3.org/2000/svg" width="32" height="32" viewBox="0 0 32 32">
<title>symfony</title>
<path d="M16 0.5c-8.563 0-15.5 6.938-15.5 15.5s6.938 15.5 15.5 15.5 15.5-6.938 15.5-15.5-6.938-15.5-15.5-15.5zM24.359 9.471c-0.717 0.026-1.212-0.403-1.236-1.054-0.017-0.574 0.418-0.84 0.408-1.178-0.014-0.409-0.635-0.426-0.804-0.417-2.486 0.081-3.037 3.562-3.681 7.116 1.339 0.197 2.291-0.045 2.821-0.389 0.75-0.484-0.209-0.982-0.089-1.535 0.25-1.135 2.034-1.188 2 0.331-0.023 1.116-1.62 2.613-4.85 2.231-0.672 3.72-1.147 7.188-3.637 10.108-1.813 2.154-3.65 2.489-4.474 2.516-1.541 0.053-2.563-0.769-2.599-1.865-0.035-1.063 0.903-1.641 1.519-1.662 1.368-0.047 1.883 1.604 0.93 2.125-0.756 0.607 0.007 0.788 0.128 0.784 0.651-0.023 1.084-0.344 1.386-0.563 1.5-1.25 2.078-3.429 2.834-7.397 0.512-3.104 1.063-4.875 1.139-5.125-1.058-0.797-1.692-1.784-3.116-2.17-0.976-0.264-1.57-0.039-1.988 0.489-0.495 0.625-0.331 1.438 0.148 1.919l0.789 0.875c0.969 1.121 1.5 1.992 1.3 3.164-0.316 1.871-2.545 3.306-5.18 2.496-2.25-0.694-2.669-2.285-2.399-3.164 0.469-1.509 2.647-0.733 2.164 0.85-0.174 0.538-0.308 0.543-0.393 0.817-0.285 0.923 2.616 1.775 3.188-0.087 0.279-0.907-0.331-1.357-1.391-2.491-1.779-1.984-1-4.093 0.184-4.979 3.301-2.459 6.282 1.095 6.911 1.613 2.323-6.813 6.283-6.591 6.402-6.596 1.573-0.051 2.762 0.662 2.802 1.791 0.016 0.481-0.261 1.412-1.22 1.446z"></path>
</svg>
