<!-- Generated by IcoMoon.io -->
<svg version="1.1" xmlns="http://www.w3.org/2000/svg" width="32" height="32" viewBox="0 0 32 32">
<title>teamspeak</title>
<path d="M15.262 21.674c0.15-0.769-0.75-1.875-2.025-3.044-1.306-1.2-3.013-2.444-3.963-2.912-1.356-0.75-2.606-0.113-2.894 1.419-0.313 1.637 0 3.212 0.906 4.619 0.638 0.969 1.587 1.419 2.712 1.5 0.725 0.038 3.281 0.137 3.856-0.063 0.744-0.269 1.256-0.738 1.406-1.519zM28.075 22.974c-0.056-0.047-0.129-0.075-0.209-0.075-0.144 0-0.266 0.093-0.31 0.223l-0.001 0.002c-0.5 1.587-2.794 7.031-10.756 7.594-9.356 0.656 5.019 2.725 9.087-0.4 1.419-1.087 2.975-2.188 2.913-5.338-0.025-0.631-0.306-1.668-0.725-2.006zM31.95 15.324c-0.019-1.181-0.538-2.088-1.625-2.637-0.181-0.081-0.313-0.169-0.369-0.4-0.407-2.232-1.294-4.205-2.551-5.886l0.026 0.036c-0.069-0.094-0.219-0.2-0.137-0.313 0.531-0.719-0.019-1.125-0.438-1.525q-6.769-6.544-15.769-3.782c-2.506 0.769-4.619 2.225-6.375 4.213-0.25 0.269-0.419 0.569-0.188 0.906 0.188 0.25 0.081 0.388-0.063 0.581-1.237 1.732-2.075 3.644-2.456 5.732-0.044 0.269-0.181 0.375-0.4 0.488-0.887 0.438-1.406 1.156-1.556 2.125l-0.050 1.656v1.306c0 1.925 1.313 3.15 3.237 3.063 0.481-0.019 0.731-0.269 0.75-0.719 0.125-4.844-0.15-5.963 0.231-7.863 1.538-7.781 10.425-11.993 17.363-8.219 4.131 2.288 6.275 5.851 6.394 10.588 0.050 1.763 0 3.531 0 5.287 0 0.438 0.137 0.781 0.587 0.887 1.506 0.313 3.075-0.75 3.325-2.294 0.181-1.069 0.063-2.156 0.063-3.231zM21.975 23.543c2.281 0.175 3.706-1.781 3.65-3.781-0.131-2.825-4.137-1.031-5.488-0.5-4.575 1.756-2.813 3.431-1.387 3.8z"></path>
</svg>
