<!-- Generated by IcoMoon.io -->
<svg version="1.1" xmlns="http://www.w3.org/2000/svg" width="24" height="32" viewBox="0 0 24 32">
<title>tencent-weibo</title>
<path d="M4.519 30.988c0.088 1.244-1.725 1.387-1.856 0.181-0.725-8.119 1.944-14.969 6.338-19.575-0.975-2.125 0.575-4.819 3.162-4.819 1.894 0 3.444 1.537 3.444 3.444 0 2.75-3.094 4.425-5.431 2.819-4.106 4.456-6.338 10.612-5.656 17.95zM12 0.006c-7.869 0-12.769 8.387-9.269 15.144 0.544 1.088 2.206 0.281 1.644-0.838-2.894-5.787 1.313-12.45 7.625-12.45 4.712 0 8.556 3.838 8.556 8.556 0 5.675-5.431 9.619-10.481 8.319-1.194-0.256-1.6 1.525-0.412 1.819 6.919 1.45 12.75-3.75 12.75-10.144 0-5.744-4.663-10.406-10.412-10.406z"></path>
</svg>
