<!-- Generated by IcoMoon.io -->
<svg version="1.1" xmlns="http://www.w3.org/2000/svg" width="32" height="32" viewBox="0 0 32 32">
<title>themeisle</title>
<path d="M13 5.518c0-0.625 0.393-1.357 1.107-1.357 0.696 0 1.107 0.732 1.107 1.357 0 0.643-0.411 1.357-1.107 1.357-0.714 0-1.107-0.714-1.107-1.357zM32 15.518c0 2.25-0.714 6.393-2.268 8.107-1.429 1.554-5.464 3.821-7.554 4.411l-0.071 0.018v2.036c0 1.018-0.786 1.911-1.821 1.911-0.625 0-1.214-0.357-1.536-0.893-0.339 0.536-0.928 0.893-1.553 0.893s-1.214-0.357-1.554-0.893c-0.321 0.536-0.911 0.893-1.536 0.893-0.643 0-1.214-0.357-1.554-0.893-0.321 0.536-0.911 0.893-1.536 0.893-1.179 0-1.839-0.982-1.839-2.054-1.018 0.768-2.232 1.214-3.536 1.214-1.375 0-2.714-0.518-3.768-1.429 0.643-0.018 1.286-0.143 1.893-0.357-1.304-0.357-2.464-1.179-3.25-2.268 1.336 0.29 2.888 0.105 4.196-0.696-1.375-1.375-3.536-3.679-4.286-5.464-0.357-0.839-0.428-1.964-0.428-2.857 0-3.107 1.268-10 5.393-10 0.661 0 1.179 0.304 1.446 0.929 0.249-0.362 0.495-0.676 0.759-0.975l-0.009 0.011c0.125-0.161 0.357-0.339 0.446-0.518 0.5-0.786 0.732-1.321 1.357-2.125 2.018-2.571 5.107-4.339 8.429-4.339 0.375 0 0.75 0.018 1.107 0.071 0.679-0.732 1.625-1.143 2.607-1.143 0.911 0 1.857 0.375 2.5 1.018 0.054 0.054 0.089 0.143 0.089 0.214 0 0.232-0.643 0.839-0.804 1.018 0.268 0.089 0.982 0.429 0.982 0.75 0 0.179-0.179 0.321-0.286 0.446 1.964 1.732 3.089 4.196 3.518 6.75 0.268-0.321 0.643-0.536 1.071-0.536 0.661 0 1.304 0.447 1.786 0.875 1.304 1.161 1.607 3.321 1.607 4.982zM11.75 5.589c0 1.143 0.786 2.321 2.018 2.321s2.018-1.179 2.018-2.321c0-1.125-0.786-2.304-2.018-2.304s-2.018 1.179-2.018 2.304zM14.857 12.125c0-1.232 0.232-2.446 0.536-3.643-3.252 4.971-0.846 11.536 4.304 11.536 1.339 0 2.661-0.482 3.75-1.25 0.125-0.464 0.232-0.929 0.232-1.411 0-0.893-0.393-1.339-1.286-1.339-0.286 0-0.571 0.054-0.839 0.107-3.959 0.792-6.696 0.229-6.696-4zM12.286 28.054c0-0.696-0.554-1.304-1.268-1.304s-1.25 0.607-1.25 1.304v2.036c0 0.696 0.536 1.321 1.25 1.321s1.268-0.607 1.268-1.321v-2.036zM15.357 28.054c0-0.696-0.536-1.304-1.25-1.304s-1.268 0.607-1.268 1.304v2.036c0 0.696 0.554 1.321 1.268 1.321s1.25-0.625 1.25-1.321v-2.036zM18.464 28.054c0-0.696-0.554-1.304-1.268-1.304s-1.268 0.607-1.268 1.304v2.036c0 0.696 0.554 1.321 1.268 1.321s1.268-0.607 1.268-1.321v-2.036zM21.571 28.054c0-0.696-0.554-1.304-1.268-1.304s-1.268 0.607-1.268 1.304v2.036c0 0.696 0.554 1.321 1.268 1.321s1.268-0.625 1.268-1.321v-2.036zM26.357 17.875c-1.929 3.696-5.643 6.411-9.911 6.411-6.036 0-10.036-5.286-10.036-11.036 0-1.054 0.125-2.089 0.375-3.107-1.25 2.107-1.857 4.536-1.857 6.964 0 3.768 1.554 7.607 4.464 10.054 0.321-0.607 0.929-1.018 1.625-1.018 0.625 0 1.214 0.357 1.536 0.893 0.339-0.536 0.911-0.893 1.554-0.893 0.625 0 1.214 0.357 1.536 0.893 0.339-0.536 0.929-0.893 1.554-0.893s1.214 0.357 1.554 0.893c0.321-0.536 0.911-0.893 1.536-0.893 0.679 0 1.304 0.411 1.607 1 2.714-2.268 4.286-5.75 4.464-9.268zM27.018 11.643c0-3.357-2.161-6.607-5.786-6.607-1.893 0-3.661 0.946-4.929 2.304-1.25 4.149-1.715 8.536 2.589 8.536 1.8 0 6.085-1.784 5.268 2.304 1.804-1.625 2.857-4.107 2.857-6.536z"></path>
</svg>
