<!-- Generated by IcoMoon.io -->
<svg version="1.1" xmlns="http://www.w3.org/2000/svg" width="31" height="32" viewBox="0 0 31 32">
<title>trade-federation</title>
<path d="M15.5 0.55c-8.563 0-15.5 6.938-15.5 15.5s6.938 15.5 15.5 15.5 15.5-6.938 15.5-15.5-6.938-15.5-15.5-15.5zM15.5 30.725c-8.106 0-14.675-6.569-14.675-14.675s6.569-14.675 14.675-14.675 14.675 6.569 14.675 14.675-6.569 14.675-14.675 14.675zM25.194 10.194v-2.925h-12.113v5.106h-9.694l2.294 2.875h7.356v12.3h3.050v-12.238h5.206v-2.938h-5.206v-2.175h9.106zM20.613 13.012v1.494h-5.181v12.338h-1.675v-12.338h-7.737l-1.256-1.494h8.994v-5.037h10.737v1.525h-9.063v3.512zM10.531 8.7l-0.775-1.294 0.131 1.487-1.469 0.338 1.456 0.338-0.131 1.5 0.769-1.281 1.387 0.594-0.981-1.131 0.988-1.131zM8.681 7.469l0.581-0.719-0.794 0.369-0.5-0.775 0.106 0.869-0.894 0.237 0.856 0.169-0.050 0.919 0.425-0.763 0.863 0.331zM19.019 16.544l-0.819 0.35-0.456-0.762 0.081 0.887-0.869 0.2 0.869 0.2-0.075 0.887 0.456-0.762 0.819 0.344-0.587-0.669zM25.7 11.719l-1.306 0.569-0.75-1.225 0.137 1.419-1.394 0.338 1.387 0.306-0.113 1.431 0.719-1.225 1.325 0.55-0.944-1.063zM15.5 1.869c-7.831 0-14.181 6.35-14.181 14.181s6.35 14.181 14.181 14.181 14.181-6.35 14.181-14.181-6.35-14.181-14.181-14.181zM21.413 12.25v3.188h-5.206v12.231h-3.294v-12.3h-7.294l-2.5-3.119h9.837v-5.1h12.363v3.169h-9.106v1.931zM15.5 2.7c3.769 0 7.175 1.563 9.6 4.075h-12.444v5.1h-9.838c1.75-5.325 6.769-9.175 12.681-9.175zM15.5 29.394c-7.369 0-13.35-5.975-13.35-13.344 0-1.325 0.194-2.613 0.556-3.819l2.737 3.519h7.169v12.3h4.037v-12.238h5.206v-3.919h-5.2v-1.2h9.1v-3.175c1.925 2.312 3.081 5.288 3.081 8.531 0.006 7.369-5.969 13.344-13.338 13.344zM11.175 17.188l-0.688-1.338 0.106 1.531-1.481 0.244 1.488 0.369-0.231 1.488 0.813-1.306 1.344 0.675-0.988-1.175 1.056-1.069z"></path>
</svg>
