<!-- Generated by IcoMoon.io -->
<svg version="1.1" xmlns="http://www.w3.org/2000/svg" width="32" height="32" viewBox="0 0 32 32">
<title>travis</title>
<path d="M10.421 7.632h4.959v15.884h-1.86v2.712h7.361v-3.022h-2.324v-15.806h5.269v2.324h2.402v-4.726h-18.518v4.726h2.712zM32.057-0.426h-30.082c-0.525 0-1.007 0.389-1.007 0.907v30.078c0 0.518 0.482 0.938 1.007 0.938h30.082c0.525 0 0.911-0.42 0.911-0.938v-30.078c0-0.518-0.386-0.907-0.911-0.907zM27.777 11.274h-5.501v-2.324h-2.169v12.707h2.324v6.121h-10.46v-5.811h1.86v-12.784h-1.86v2.092h-5.811v-7.826h21.617v7.826z"></path>
</svg>
