<!-- Generated by IcoMoon.io -->
<svg version="1.1" xmlns="http://www.w3.org/2000/svg" width="28" height="32" viewBox="0 0 28 32">
<title>trello</title>
<path d="M24.519 2h-21.012c-1.938 0-3.506 1.569-3.506 3.5-0.006 0 0-0.25 0 21 0 1.931 1.569 3.5 3.5 3.5h21.012c1.925-0.012 3.481-1.575 3.481-3.5v-21c0.006-1.925-1.55-3.487-3.475-3.5zM12.313 23.206c-0.012 0.919-0.756 1.663-1.681 1.663h-5.169c-0.925 0.006-1.681-0.738-1.688-1.663v-15.887c0-0.925 0.75-1.681 1.681-1.681h5.181c0.925 0 1.681 0.75 1.681 1.681v15.887zM24.381 16.206c0 0.925-0.75 1.681-1.681 1.681h-5.063c-0.925 0-1.681-0.75-1.681-1.681v-8.881c0-0.925 0.75-1.681 1.675-1.681h5.069c0.925 0 1.681 0.75 1.681 1.681v8.881z"></path>
</svg>
