<!-- Generated by IcoMoon.io -->
<svg version="1.1" xmlns="http://www.w3.org/2000/svg" width="36" height="32" viewBox="0 0 36 32">
<title>tripadvisor</title>
<path d="M33.057 11.176l2.943-3.203h-6.521c-3.212-2.212-7.186-3.533-11.469-3.533s-8.257 1.321-11.538 3.578l0.069-0.045h-6.541l2.943 3.203c-1.783 1.649-2.895 4-2.895 6.611 0 4.968 4.027 8.994 8.994 8.994 2.345 0 4.479-0.897 6.080-2.367l-0.007 0.006 2.884 3.137 2.882-3.136c1.6 1.486 3.751 2.397 6.114 2.397 4.968 0 8.996-4.028 8.996-8.996v0h-0.002c0-0.003 0-0.007 0-0.011 0-2.626-1.128-4.989-2.927-6.63l-0.007-0.006zM9.004 23.911c-3.362 0-6.087-2.725-6.087-6.087s2.725-6.087 6.087-6.087c3.362 0 6.087 2.725 6.087 6.087v0c0 3.362-2.725 6.087-6.087 6.087v0zM18 17.648c0-4.006-2.914-7.442-6.756-8.912 1.995-0.854 4.317-1.351 6.755-1.351s4.76 0.497 6.87 1.395l-0.115-0.043c-3.842 1.47-6.755 4.907-6.755 8.912zM26.992 23.911h-0.001c-3.362-0-6.087-2.726-6.087-6.088s2.726-6.088 6.088-6.088 6.088 2.726 6.088 6.088c0 3.362-2.725 6.088-6.087 6.088h-0zM9.004 14.633h-0.001c-1.762 0-3.191 1.429-3.191 3.191s1.429 3.191 3.191 3.191c1.762 0 3.191-1.429 3.191-3.191v0-0.007c-0.002-1.759-1.428-3.184-3.188-3.184-0.001 0-0.002 0-0.003 0h0zM26.992 14.633c-1.762 0-3.191 1.429-3.191 3.191s1.429 3.191 3.191 3.191c1.762 0 3.191-1.429 3.191-3.191v0c0-1.762-1.429-3.191-3.191-3.191v0z"></path>
</svg>
