<!-- Generated by IcoMoon.io -->
<svg version="1.1" xmlns="http://www.w3.org/2000/svg" width="28" height="32" viewBox="0 0 28 32">
<title>tumblr-sp</title>
<path d="M25 2h-22c-1.656 0-3 1.344-3 3v22c0 1.656 1.344 3 3 3h22c1.656 0 3-1.344 3-3v-22c0-1.656-1.344-3-3-3zM19.856 24.762c-0.531 0.569-1.95 1.238-3.806 1.238-4.719 0-5.744-3.469-5.744-5.494v-5.625h-1.856c-0.213 0-0.387-0.175-0.387-0.387v-2.656c0-0.281 0.175-0.531 0.444-0.625 2.425-0.856 3.181-2.969 3.294-4.575 0.031-0.431 0.256-0.638 0.625-0.638h2.769c0.213 0 0.387 0.175 0.387 0.388v4.5h3.244c0.212 0 0.387 0.175 0.387 0.387v3.194c0 0.213-0.175 0.387-0.387 0.387h-3.256v5.206c0 1.337 0.925 2.094 2.656 1.4 0.188-0.075 0.35-0.125 0.5-0.087 0.137 0.031 0.225 0.131 0.288 0.306l0.863 2.512c0.063 0.2 0.125 0.419-0.019 0.569z"></path>
</svg>
