<!-- Generated by IcoMoon.io -->
<svg version="1.1" xmlns="http://www.w3.org/2000/svg" width="32" height="32" viewBox="0 0 32 32">
<title>typescript</title>
<path d="M0.5 15.977v15.625h31.25v-31.25h-31.25zM25.683 14.727c0.776 0.184 1.442 0.58 1.953 1.123l0.002 0.002c0.281 0.293 0.53 0.621 0.737 0.976l0.013 0.024c0 0.040-1.35 0.953-2.172 1.462-0.030 0.020-0.15-0.11-0.282-0.308-0.302-0.513-0.842-0.858-1.464-0.882l-0.003-0c-0.948-0.065-1.558 0.433-1.552 1.25-0.001 0.013-0.001 0.029-0.001 0.044 0 0.198 0.050 0.384 0.139 0.547l-0.003-0.006c0.207 0.433 0.595 0.69 1.81 1.215 2.238 0.962 3.195 1.598 3.79 2.5 0.665 1 0.813 2.615 0.363 3.81-0.5 1.3-1.725 2.183-3.457 2.475-0.327 0.040-0.706 0.062-1.090 0.062-0.455 0-0.902-0.032-1.34-0.093l0.050 0.006c-1.252-0.208-2.341-0.795-3.172-1.637l-0.001-0.001c-0.288-0.317-0.848-1.145-0.813-1.205 0.083-0.062 0.177-0.123 0.275-0.176l0.012-0.006 1.15-0.66 0.898-0.52 0.188 0.277c0.32 0.454 0.714 0.832 1.168 1.125l0.017 0.010c1 0.525 2.365 0.453 3.040-0.155 0.251-0.246 0.406-0.589 0.406-0.968 0-0.284-0.087-0.548-0.237-0.766l0.003 0.005c-0.25-0.348-0.75-0.64-2.148-1.25-1.613-0.695-2.308-1.125-2.942-1.81-0.383-0.435-0.678-0.958-0.85-1.533l-0.008-0.029c-0.070-0.352-0.11-0.756-0.11-1.17 0-0.293 0.020-0.581 0.059-0.863l-0.004 0.033c0.332-1.558 1.5-2.645 3.205-2.967 0.292-0.038 0.629-0.060 0.972-0.060 0.495 0 0.979 0.045 1.449 0.132l-0.049-0.008zM18.348 16.038v1.28h-4.058v11.557h-2.877v-11.56h-4.067v-1.25c-0.003-0.093-0.004-0.202-0.004-0.312 0-0.344 0.014-0.685 0.042-1.022l-0.003 0.044c0.015-0.020 2.5-0.030 5.5-0.025h5.453z"></path>
</svg>
