<!-- Generated by IcoMoon.io -->
<svg version="1.1" xmlns="http://www.w3.org/2000/svg" width="32" height="32" viewBox="0 0 32 32">
<title>typo3</title>
<path d="M24.106 22.053c-0.475 0.14-0.854 0.188-1.349 0.188-4.063 0-10.031-14.199-10.031-18.925 0-1.741 0.413-2.321 0.994-2.818-4.974 0.58-10.943 2.404-12.85 4.725-0.414 0.581-0.663 1.493-0.663 2.653 0 7.379 7.876 24.124 13.43 24.124 2.57 0 6.904-4.228 10.469-9.947z"></path>
<path d="M21.512 0c5.14 0 10.281 0.829 10.281 3.731 0 5.886-3.73 13.016-5.638 13.016-3.398 0-7.627-9.45-7.627-14.176 0-2.156 0.829-2.571 2.984-2.571z"></path>
</svg>
