<!-- Generated by IcoMoon.io -->
<svg version="1.1" xmlns="http://www.w3.org/2000/svg" width="28" height="32" viewBox="0 0 28 32">
<title>uber</title>
<path d="M25.881 2h-23.762c-1.169 0-2.119 0.95-2.119 2.119v23.756c0 1.175 0.95 2.125 2.119 2.125h23.756c1.169 0 2.119-0.95 2.119-2.119v-23.762c0.006-1.169-0.944-2.119-2.113-2.119zM14.85 24.444c-4.662 0.469-8.825-2.931-9.294-7.594h5.9v1.275c0 0.231 0.188 0.425 0.425 0.425h4.244c0.231 0 0.425-0.188 0.425-0.425v-4.244c0-0.231-0.188-0.425-0.425-0.425h-4.244c-0.231 0-0.425 0.188-0.425 0.425v1.275h-5.9c0.438-4.338 4.088-7.638 8.444-7.638s8.006 3.3 8.444 7.638c0.469 4.656-2.931 8.819-7.594 9.288z"></path>
</svg>
