<!-- Generated by IcoMoon.io -->
<svg version="1.1" xmlns="http://www.w3.org/2000/svg" width="32" height="32" viewBox="0 0 32 32">
<title>ubuntu</title>
<path d="M16 0c-8.837 0-16 7.163-16 16s7.163 16 16 16c8.837 0 16-7.164 16-16s-7.163-16-16-16zM19.59 5.51c0.59-1.022 1.896-1.372 2.918-0.783s1.371 1.896 0.781 2.918c-0.59 1.022-1.895 1.371-2.917 0.781s-1.371-1.895-0.782-2.917zM16 6.72c0.859 0 1.69 0.119 2.479 0.337 0.139 0.858 0.649 1.649 1.461 2.118 0.811 0.467 1.749 0.514 2.561 0.208 1.579 1.553 2.608 3.666 2.757 6.019l-3.044 0.045c-0.281-3.187-2.955-5.687-6.215-5.687-0.939 0-1.83 0.209-2.628 0.58l-1.484-2.66c1.24-0.614 2.636-0.96 4.112-0.96zM5.121 18.136c-1.18 0-2.137-0.956-2.137-2.136s0.956-2.137 2.137-2.137c1.18 0 2.136 0.956 2.136 2.137s-0.956 2.136-2.136 2.136zM7.014 18.326c0.674-0.55 1.106-1.388 1.106-2.326s-0.432-1.777-1.106-2.327c0.578-2.236 1.969-4.145 3.838-5.394l1.562 2.616c-1.604 1.129-2.653 2.994-2.653 5.105s1.048 3.976 2.653 5.105l-1.562 2.616c-1.87-1.249-3.26-3.158-3.838-5.395zM22.508 27.271c-1.022 0.59-2.328 0.24-2.917-0.782s-0.24-2.327 0.782-2.917c1.021-0.589 2.327-0.239 2.917 0.782 0.59 1.022 0.24 2.328-0.782 2.917zM22.502 22.617c-0.812-0.307-1.75-0.261-2.561 0.207-0.812 0.47-1.322 1.26-1.461 2.118-0.789 0.219-1.62 0.338-2.479 0.338-1.477 0-2.873-0.347-4.112-0.961l1.484-2.66c0.798 0.372 1.689 0.58 2.628 0.58 3.26 0 5.934-2.498 6.214-5.687l3.045 0.045c-0.15 2.353-1.178 4.466-2.757 6.019z"></path>
</svg>
