<!-- Generated by IcoMoon.io -->
<svg version="1.1" xmlns="http://www.w3.org/2000/svg" width="24" height="32" viewBox="0 0 24 32">
<title>uniregistry</title>
<path d="M12 30c2.469 0 4.762-0.738 6.675-2.012h-13.344c1.906 1.275 4.2 2.012 6.669 2.012zM6.431 17.931v-0.775h-6.431v0.775c0 0.156 0 0.313 0.006 0.462h6.444c-0.013-0.15-0.019-0.306-0.019-0.462zM7.713 21.494h-7.181c0.162 0.531 0.363 1.050 0.6 1.55h8.644c-0.806-0.356-1.506-0.887-2.063-1.55zM6.606 19.325h-6.525c0.056 0.475 0.138 0.938 0.244 1.394h6.856c-0.25-0.431-0.45-0.9-0.575-1.394zM6.431 14.994h-6.431v1.081h6.431zM6.431 4.169h-6.431v0.306h6.431zM6.431 2h-6.431v0.156h6.431zM6.431 6.331h-6.431v0.463h6.431zM6.431 12.831h-6.431v0.925h6.431zM6.431 8.5h-6.431v0.619h6.431zM6.431 10.662h-6.431v0.775h6.431zM16.819 20.719h6.856c0.113-0.456 0.194-0.919 0.244-1.394h-6.525c-0.131 0.494-0.325 0.962-0.575 1.394zM17.569 9.113h6.431v-0.613h-6.431zM17.569 11.438h6.431v-0.775h-6.431zM17.569 6.794h6.431v-0.463h-6.431zM17.569 2v0.156h6.431v-0.156zM4.881 27.681h14.231c0.738-0.544 1.419-1.163 2.012-1.856h-18.319c0.6 0.688 1.338 1.313 2.075 1.856zM17.569 4.475h6.431v-0.306h-6.431zM17.569 13.756h6.431v-0.925h-6.431zM2.425 25.356h19.081c0.419-0.531 0.788-1.1 1.113-1.7h-21.181c0.325 0.6 0.575 1.169 0.987 1.7zM14.225 23.038h8.713c0.231-0.5 0.363-1.012 0.531-1.55h-7.188c-0.55 0.669-1.256 1.2-2.056 1.55zM17.569 17.931c0 0.156-0.006 0.313-0.025 0.462h6.444c0.006-0.156 0.012-0.306 0.012-0.462v-0.775h-6.431zM17.569 16.075h6.431v-1.081h-6.431z"></path>
</svg>
