<!-- Generated by IcoMoon.io -->
<svg version="1.1" xmlns="http://www.w3.org/2000/svg" width="40" height="32" viewBox="0 0 40 32">
<title>untappd</title>
<path d="M25.081 3.119c-4.988 10.006-5.287 9.531-5.494 10.825l-0.325 2.050c-0.119 0.75-0.413 1.469-0.856 2.087l-9.306 12.988c-0.475 0.663-1.275 1.012-2.088 0.913-2.519-0.313-4.862-2.012-5.956-4.281-0.356-0.738-0.281-1.613 0.194-2.275l9.306-12.994c0.444-0.619 1.025-1.125 1.7-1.481l1.831-0.969c1.156-0.613 0.606-0.744 8.475-8.681 0.063-0.3 0.063-0.456 0.225-0.5 0.188-0.044 0.413-0.063 0.394-0.287l-0.025-0.287c-0.012-0.119 0.081-0.225 0.2-0.225 0.281-0.006 0.825 0.075 1.6 0.625 0.769 0.556 1.025 1.050 1.106 1.319 0.038 0.112-0.038 0.231-0.15 0.263l-0.281 0.069c-0.212 0.056-0.156 0.275-0.144 0.462 0.006 0.175-0.144 0.225-0.406 0.381zM14.381 2.275c0.213 0.056 0.156 0.275 0.144 0.462-0.012 0.169 0.131 0.219 0.4 0.375 0.494 0.994 0.956 1.906 1.387 2.75 0.044 0.081 0.144 0.094 0.206 0.031 0.7-0.75 1.538-1.638 2.531-2.663 0.081-0.087 0.087-0.219 0.006-0.306-0.5-0.513-1.031-1.056-1.6-1.631-0.063-0.294-0.063-0.456-0.225-0.5-0.188-0.050-0.413-0.063-0.394-0.287 0.019-0.206 0.087-0.506-0.175-0.512-0.281-0.006-0.825 0.069-1.6 0.625-0.769 0.556-1.025 1.050-1.106 1.319-0.088 0.263 0.225 0.288 0.425 0.337zM38.75 25.419l-9.3-12.994c-0.825-1.156-1.663-1.463-3.525-2.444-0.7-0.369-0.887-0.681-1.906-1.806-0.063-0.069-0.181-0.056-0.225 0.031-2.894 5.55-2.944 5.175-3.063 5.925-0.106 0.669-0.081 1.25 0.019 1.863 0.119 0.75 0.413 1.469 0.856 2.087l9.306 12.994c0.475 0.663 1.263 1.013 2.069 0.919 2.519-0.306 4.875-2 5.981-4.287 0.337-0.744 0.269-1.619-0.212-2.288z"></path>
</svg>
