<!-- Generated by IcoMoon.io -->
<svg version="1.1" xmlns="http://www.w3.org/2000/svg" width="24" height="32" viewBox="0 0 24 32">
<title>ups</title>
<path d="M6.45 18.938c-0.325 0.225-2.038 0.819-2.038-1.188v-6.5h-2.044v6.413c0 4.681 5.013 3.194 6.119 2.438v-8.85h-2.037zM0.25 4.676v13.806c0 6.481 4.681 8.45 11.731 11.506 7.025-3.056 11.731-5.012 11.731-11.506v-13.806c-7.269-3.85-17.613-3.1-23.462 0zM22.631 18.483c0 5.413-3.325 7.1-10.65 10.331-7.344-3.238-10.656-4.919-10.656-10.331v-7.9c6.394-5.862 14.475-6.25 21.306-5.612zM9.531 11.77v13.3h2.044v-4.294c1.525 0.456 4.481-0.163 4.481-4.906 0-6.088-5.044-5.058-6.525-4.1zM11.575 19.101v-6.269c0.525-0.262 2.4-0.794 2.4 3.081 0 4.244-2.275 3.238-2.4 3.188zM16.519 13.701c0.006 2.956 3.225 2.656 3.262 4.4 0.038 1.469-1.9 1.438-3.175 0.306v1.881c2.262 1.344 5.119 0.506 5.2-2.094 0.106-3.219-3.381-2.912-3.337-4.575 0.038-1.269 1.913-1.281 3.031-0.137v-1.775c-1.781-1.375-4.994-0.575-4.981 1.994z"></path>
</svg>
