<!-- Generated by IcoMoon.io -->
<svg version="1.1" xmlns="http://www.w3.org/2000/svg" width="40" height="32" viewBox="0 0 40 32">
<title>usb</title>
<path d="M40.094 16c0 0.194-0.106 0.381-0.281 0.469l-5.569 3.344c-0.087 0.050-0.175 0.087-0.281 0.087-0.087 0-0.194-0.019-0.281-0.069-0.175-0.106-0.281-0.281-0.281-0.488v-2.225h-14.919c1.581 2.475 2.531 6.681 4.35 6.681h1.669v-1.675c0-0.313 0.244-0.556 0.556-0.556h5.569c0.313 0 0.556 0.244 0.556 0.556v5.569c0 0.313-0.244 0.556-0.556 0.556h-5.569c-0.313 0-0.556-0.244-0.556-0.556v-1.669h-1.669c-4.713 0-5.069-8.906-7.794-8.906h-6.269c-0.506 1.913-2.244 3.344-4.313 3.344-2.456-0.006-4.456-2.006-4.456-4.463s2-4.456 4.456-4.456c2.069 0 3.813 1.425 4.313 3.344 2.444 0 2.744 0.594 4.662-3.775 2.506-5.569 3.631-5.131 6.806-5.131 0.469-1.306 1.688-2.225 3.15-2.225 1.844 0 3.344 1.494 3.344 3.344s-1.494 3.344-3.344 3.344c-1.462 0-2.681-0.925-3.15-2.225h-1.863c-1.819 0-2.769 4.213-4.35 6.681h19.381v-2.225c0-0.206 0.106-0.381 0.281-0.488s0.4-0.088 0.556 0.019l5.569 3.344c0.175 0.069 0.281 0.256 0.281 0.45z"></path>
</svg>
