<!-- Generated by IcoMoon.io -->
<svg version="1.1" xmlns="http://www.w3.org/2000/svg" width="36" height="32" viewBox="0 0 36 32">
<title>usps</title>
<path d="M28.769 15.106c1.613-2.581 0.95-3.050-0.731-3.050h-1.688c-0.006 0-0.094-0.088-0.681 0.5-0.7 0.35-2.369 0.394-2.369 0.544 0 0.281 4.394-0.194 5.506 0 0.594 0.094-0.094 1.275-0.275 2-0.031 0.281 0.15 0.144 0.238 0.006zM21.762 16.519c4-1.331 6.081-1.494 6.375-1.637 0.275-0.181-0.275-0.412-1.637-0.363-3.231 0.137-8.6 2.319-10.787 3.369l-1.919-5.831h12.287c-0.169-1.762-9.556-1.412-21.119-1.412l-3.275 15.344c12.275-6.081 16.181-8.144 20.075-9.469zM5.919 6c15.831 3.356 20.625 4.106 20.756 5.325 2.275 0 2.869 0 3.275 0.412 1.319 1.231-0.913 4.231-0.913 4.231-0.275 0.181-25.4 10.012-25.4 10.012h26.444l4.231-19.981z"></path>
</svg>
