<!-- Generated by IcoMoon.io -->
<svg version="1.1" xmlns="http://www.w3.org/2000/svg" width="32" height="32" viewBox="0 0 32 32">
<title>ussunnah</title>
<path d="M9.8 17.819l0.356 0.9h-0.512c-0.081-0.2-0.194-0.481-0.238-0.594-0.156-0.394-0.069-0.525 0-0.625 0.119-0.169 0.2-0.275 0.225-0.325 0 0.137 0.050 0.356 0.169 0.644zM28.381 18.994c-0.131 0.863-0.356 1.694-0.656 2.481l2.688 1.462-2.8-1.175c-0.331 0.825-0.75 1.6-1.244 2.325l2.137 1.887-2.3-1.65c-0.525 0.738-1.125 1.413-1.794 2.019l1.556 2.169-1.756-1.988c-0.688 0.6-1.444 1.125-2.256 1.569l0.981 2.325-1.206-2.206c-0.819 0.425-1.688 0.756-2.6 0.994l0.419 2.4-0.656-2.337c-0.894 0.212-1.825 0.331-2.781 0.337l-0.113 2.394-0.119-2.4c-0.956-0.006-1.887-0.125-2.781-0.331l-0.662 2.331 0.419-2.387c-0.912-0.231-1.787-0.569-2.606-0.988l-1.2 2.194 0.975-2.313c-0.813-0.438-1.575-0.962-2.263-1.569l-1.744 1.975 1.544-2.15c-0.669-0.606-1.275-1.281-1.8-2.019l-2.281 1.637 2.119-1.869c-0.494-0.725-0.912-1.506-1.25-2.331l-2.775 1.169 2.663-1.45c-0.3-0.794-0.525-1.631-0.656-2.494l-3.188 0.563 3.144-0.887c-0.069-0.531-0.106-1.069-0.106-1.619 0-0.294 0.013-0.587 0.031-0.881l-3.462-0.181 3.5-0.175c0.081-0.819 0.237-1.613 0.469-2.381l-3.569-1.006 3.681 0.65c0.25-0.75 0.569-1.469 0.95-2.15l-3.444-1.875 3.644 1.537c0.394-0.662 0.844-1.275 1.35-1.85l-3.094-2.725 3.369 2.419c0.506-0.537 1.063-1.031 1.662-1.475l-2.5-3.475 2.85 3.225c0.594-0.412 1.231-0.769 1.894-1.075l-1.706-4.056 2.112 3.881c0.656-0.275 1.338-0.494 2.044-0.65l-0.775-4.419 1.219 4.325c0.688-0.131 1.394-0.2 2.112-0.213l0.231-4.513 0.225 4.513c0.719 0.013 1.425 0.088 2.113 0.219l1.225-4.331-0.775 4.419c0.706 0.162 1.387 0.381 2.038 0.656l2.119-3.888-1.712 4.069c0.663 0.306 1.294 0.669 1.887 1.075l2.863-3.237-2.506 3.494c0.594 0.444 1.15 0.938 1.656 1.475l3.387-2.431-3.106 2.744c0.5 0.569 0.95 1.181 1.344 1.838l3.669-1.544-3.469 1.887c0.381 0.681 0.694 1.394 0.944 2.144l3.706-0.65-3.594 1.012c0.231 0.762 0.387 1.556 0.469 2.369l3.519 0.169-3.5 0.175c0.019 0.288 0.031 0.581 0.031 0.881 0 0.544-0.038 1.081-0.1 1.613l3.169 0.894-3.219-0.569zM27.019 17.056c0-6.094-4.938-11.031-11.031-11.031s-11.031 4.938-11.031 11.031 4.938 11.031 11.031 11.031 11.031-4.938 11.031-11.031zM25.519 17.056c0 5.269-4.269 9.538-9.537 9.538s-9.537-4.269-9.537-9.538 4.269-9.537 9.537-9.537 9.537 4.269 9.537 9.537zM12.188 15.063c0 0.131 0.081 0.238 0.225 0.319 0.206 0.119 0.387 0.287 0.512 0.512 0.175-0.356 0.269-0.594 0.269-0.7 0-0.137-0.069-0.275-0.2-0.438-0.131-0.156-0.2-0.325-0.206-0.481-0.406 0.425-0.6 0.681-0.6 0.787zM9.644 13.875c0 0.131 0.081 0.238 0.225 0.319 0.219 0.119 0.387 0.287 0.512 0.512 0.175-0.356 0.269-0.594 0.269-0.7 0-0.137-0.069-0.275-0.2-0.438-0.131-0.156-0.2-0.325-0.206-0.481-0.406 0.425-0.6 0.681-0.6 0.787zM8.456 13.875c0 0.131 0.081 0.238 0.225 0.319 0.206 0.119 0.387 0.287 0.512 0.512 0.175-0.356 0.269-0.594 0.269-0.7 0-0.137-0.069-0.275-0.2-0.438-0.131-0.156-0.2-0.325-0.206-0.481-0.4 0.425-0.6 0.681-0.6 0.787zM21.262 19.369c-0.525-0.188-0.544-0.425-0.544-0.975v-7.019c-0.512 0.781-0.887 1.162-1.125 1.162 0.394 0.9 0.594 1.494 0.594 1.769v4.019c0 0.137-0.137 0.406-0.294 0.406h-1.125c-0.175-0.469-0.637-1.681-0.956-2.519-0.125 0.156-0.45 0.575-0.669 0.856 0.15 0.1 0.256 0.225 0.325 0.394 0.163 0.419 0.4 1.031 0.494 1.262h-0.575c-0.244-0.65-0.6-1.587-0.738-1.944-0.125 0.156-0.45 0.575-0.669 0.856 0.15 0.1 0.256 0.225 0.325 0.394 0.050 0.125 0.175 0.456 0.269 0.681h-0.575c-0.094-0.256-0.35-0.913-0.525-1.375-0.125 0.156-0.45 0.575-0.669 0.856 0.156 0.1 0.269 0.225 0.325 0.394 0.012 0.038 0.031 0.087 0.037 0.106h-1.106c-0.287-0.869-0.713-1.731-0.713-2.131 0-0.137 0.019-0.319 0.069-0.512-0.55 0.675-0.875 0.994-0.875 1.563 0 0.469 0.65 1.769 0.65 2.081 0 0.106-0.031 0.206-0.088 0.306-0.6-0.794-0.969-1.294-1.175-1.294h-0.75l-0.7-1.75c-0.238-0.6-0.356-1-0.356-1.175 0-0.238 0.031-0.481 0.106-0.762-0.063 0.081-0.231 0.294-0.344 0.444-0.050-0.131-0.194-0.481-0.287-0.719-0.131 0.156-0.469 0.569-0.7 0.85 0.056 0.144 0.206 0.506 0.306 0.762-0.156 0.206-0.569 0.738-0.85 1.106-0.25 0.331-0.362 0.831-0.169 1.363 0.156 0.419 0.125 0.494-0.106 0.881h3.856c0.344 0 0.894 0.875 0.969 1.375 0.825-1 0.963-1.225 1.050-1.35h6.688c0.244 0 0.45-0.119 0.619-0.363zM22.519 17.706v-6.35c-0.563 0.781-0.994 1.162-1.294 1.162 0.444 0.9 0.669 1.494 0.669 1.769v4.144c0 1.094 0.538 1.275 1.5 1.275 0.506 0 0.781-0.050 0.856-0.169-0.269-0.1-0.475-0.156-0.619-0.206-0.506-0.2-1.113-0.462-1.113-1.625z"></path>
</svg>
