<!-- Generated by IcoMoon.io -->
<svg version="1.1" xmlns="http://www.w3.org/2000/svg" width="28" height="32" viewBox="0 0 28 32">
<title>vaadin</title>
<path d="M14.031 8.794c0.094-1.1 0.306-3.294 3.113-3.294h6.162c1.294 0 2.006-0.487 2.006-1.35v-0.769c0-0.763 0.581-1.381 1.344-1.381s1.344 0.619 1.344 1.381v2.281c0 2.681-1.344 3.875-4.175 3.875h-6.281c-1.881 0-2.063 0.919-2.063 1.694 0 0.081-0.006 0.156-0.012 0.231-0.044 0.769-0.681 1.387-1.463 1.387s-1.419-0.613-1.463-1.387c-0.006-0.075-0.012-0.15-0.012-0.231 0-0.769-0.188-1.694-2.063-1.694h-6.294c-2.831 0-4.175-1.194-4.175-3.875v-2.281c0-0.763 0.588-1.381 1.35-1.381s1.344 0.619 1.344 1.381v0.769c0 0.862 0.712 1.35 2.006 1.35h6.163c2.8 0 3.019 2.194 3.113 3.294h0.056zM14 28.5c0.719 0 1.338-0.438 1.606-1.019 0.069-0.113 6.069-10.6 6.137-10.713 0.744-1.225-0.2-2.769-1.7-2.769-0.869 0-1.456 0.4-1.863 1.269l-4.181 7.356-4.181-7.356c-0.4-0.869-0.994-1.269-1.862-1.269-1.5 0-2.444 1.537-1.7 2.769 0.069 0.119 6.069 10.6 6.137 10.712 0.269 0.581 0.887 1.019 1.606 1.019z"></path>
</svg>
