<!-- Generated by IcoMoon.io -->
<svg version="1.1" xmlns="http://www.w3.org/2000/svg" width="32" height="32" viewBox="0 0 32 32">
<title>vagrant</title>
<path d="M30.628 5.975v-2.77l-6.65 3.868v2.338l-5.317 11.477-2.662 1.832v8.402l5.702-3.288 8.927-21.86z"></path>
<path d="M15.998 16.735l-3.987-9.307v-2.633l-0.027-0.013-3.963 2.29v2.338l5.32 11.98 2.658-1.315v-3.34z"></path>
<path d="M26.64 0.877l-6.652 3.895v2.655l-3.99 9.307v3.113l-2.658 1.543-5.32-11.98v-2.342l3.992-2.295-6.65-3.895-3.99 2.328v2.853l8.977 21.802 5.648 3.262v-8.19l2.663-1.543-0.035-0.020 5.352-11.96v-2.338l0.003-0.005 6.648-3.862-3.988-2.328z"></path>
</svg>
