<!-- Generated by IcoMoon.io -->
<svg version="1.1" xmlns="http://www.w3.org/2000/svg" width="24" height="32" viewBox="0 0 24 32">
<title>vine</title>
<path d="M24 15.919v3.256c-1.15 0.262-2.306 0.381-3.256 0.381-2.306 4.838-6.438 8.988-7.819 9.762-0.875 0.494-1.694 0.525-2.669-0.050-1.694-1.019-8.119-6.287-10.256-22.85h4.656c1.169 9.944 4.031 15.044 7.175 18.863 1.744-1.744 3.425-4.069 4.725-6.681-3.113-1.581-5.006-5.056-5.006-9.1 0-4.1 2.356-7.194 6.388-7.194 7.181 0 6.637 7.994 5.1 11.344 0 0-2.9 0.575-3.969-1.281 0.212-0.706 0.512-1.925 0.512-3.031 0-1.956-0.706-2.912-1.775-2.912-1.137 0-1.925 1.069-1.925 3.125 0.006 4.95 3.712 7.419 8.119 6.369z"></path>
</svg>
