<!-- Generated by IcoMoon.io -->
<svg version="1.1" xmlns="http://www.w3.org/2000/svg" width="32" height="32" viewBox="0 0 32 32">
<title>visualg</title>
<path d="M0.221 11.555c0.205 0.571 0.548 1.483 2.617 6.946l0.936 2.473 1.681 0.023 1.681 0.015 0.076-0.205c0.038-0.122 0.852-2.29 1.796-4.839 0.944-2.541 1.735-4.702 1.765-4.808l0.046-0.19h-3.127l-0.19 0.624c-1.315 4.298-1.993 6.436-2.031 6.39-0.046-0.046-2.199-6.885-2.199-6.976 0-0.023-0.738-0.038-1.636-0.038h-1.636z"></path>
<path d="M16.53 10.997c-2.214 0.213-3.72 1.438-4.276 3.477-0.112 0.498-0.177 1.071-0.177 1.659s0.065 1.16 0.187 1.711l-0.010-0.052c0.38 1.346 1.24 2.48 2.244 2.967 0.859 0.418 1.483 0.533 2.868 0.54 2.001 0.008 2.853-0.259 4.777-1.483l0.167-0.107-0.015-2.13-0.023-2.13-2.374-0.023-2.381-0.015v2.13h2.062l-0.023 0.472-0.023 0.479-0.494 0.243c-1.232 0.601-2.571 0.472-3.241-0.312-0.7-0.822-0.837-2.944-0.251-4.131 0.357-0.746 0.959-1.088 1.887-1.088 0.723 0 1.217 0.243 1.499 0.738 0.114 0.198 0.213 0.373 0.221 0.388 0.015 0.023 2.944-0.51 2.982-0.548 0.054-0.054-0.335-0.944-0.571-1.278-0.503-0.731-1.28-1.241-2.18-1.382l-0.018-0.002c-0.597-0.094-1.286-0.148-1.987-0.148-0.299 0-0.596 0.010-0.891 0.029l0.040-0.002z"></path>
<path d="M27.23 9.654c-0.942 0.108-1.766 0.546-2.368 1.194l-0.002 0.002c-0.512 0.555-0.869 1.259-1 2.041l-0.003 0.023c-0.085 0.436-0.076 0.702 0.041 0.814 0.094 0.099 0.107 0.099 1.731 0.099 1.538 0 1.641-0.004 1.731-0.085 0.119-0.146 0.195-0.331 0.207-0.533l0-0.003c0.031-0.202 0.193-0.333 0.328-0.261 0.144 0.076 0.198 0.283 0.184 0.674-0.018 0.306-0.036 0.373-0.131 0.481-0.175 0.188-0.36 0.242-0.823 0.242-0.36 0-0.441 0.013-0.544 0.094l-0.117 0.090v1.367c0 0.751 0.013 1.399 0.027 1.439 0.058 0.144 0.252 0.198 0.72 0.188 0.048-0.007 0.104-0.010 0.16-0.010 0.168 0 0.328 0.033 0.473 0.094l-0.008-0.003c0.324 0.161 0.477 0.535 0.405 0.998-0.063 0.427-0.481 0.652-0.764 0.405-0.090-0.076-0.126-0.166-0.161-0.391-0.023-0.161-0.054-0.328-0.067-0.373-0.054-0.175-0.234-0.193-1.916-0.166-1.466 0.023-1.614 0.031-1.686 0.103-0.067 0.067-0.081 0.153-0.072 0.517-0.001 0.021-0.001 0.047-0.001 0.072 0 0.976 0.411 1.856 1.069 2.476l0.002 0.002c0.841 0.841 1.835 1.183 3.283 1.133 0.012 0 0.027 0 0.041 0 0.93 0 1.792-0.291 2.5-0.788l-0.014 0.009c0.939-0.655 1.545-1.73 1.545-2.946 0-0.047-0.001-0.094-0.003-0.14l0 0.007c0-0.012 0-0.026 0-0.041 0-0.554-0.116-1.081-0.325-1.558l0.010 0.025c-0.194-0.349-0.416-0.65-0.673-0.919l0.002 0.002c-0.076-0.061-0.138-0.136-0.183-0.221l-0.002-0.004c0.049-0.096 0.112-0.178 0.187-0.247l0.001-0.001c0.522-0.562 0.843-1.318 0.843-2.148 0-0.091-0.004-0.18-0.011-0.269l0.001 0.012c-0.032-0.964-0.454-1.824-1.113-2.43l-0.003-0.002c-0.702-0.678-1.66-1.097-2.716-1.097-0.062 0-0.123 0.002-0.185 0.004l0.009-0c-0.273 0.008-0.547 0.021-0.611 0.030z"></path>
</svg>
