<!-- Generated by IcoMoon.io -->
<svg version="1.1" xmlns="http://www.w3.org/2000/svg" width="36" height="32" viewBox="0 0 36 32">
<title>vk</title>
<path d="M34.063 7.356c0.231-0.781 0-1.356-1.112-1.356h-3.681c-0.938 0-1.369 0.494-1.6 1.044 0 0-1.875 4.569-4.525 7.531-0.856 0.856-1.25 1.131-1.719 1.131-0.231 0-0.587-0.275-0.587-1.056v-7.294c0-0.938-0.262-1.356-1.038-1.356h-5.787c-0.588 0-0.938 0.438-0.938 0.844 0 0.888 1.325 1.094 1.463 3.594v5.425c0 1.188-0.213 1.406-0.681 1.406-1.25 0-4.287-4.588-6.088-9.838-0.362-1.019-0.719-1.431-1.662-1.431h-3.681c-1.050 0-1.262 0.494-1.262 1.044 0 0.975 1.25 5.819 5.819 12.219 3.044 4.369 7.331 6.738 11.231 6.738 2.344 0 2.631-0.525 2.631-1.431 0-4.175-0.212-4.569 0.962-4.569 0.544 0 1.481 0.275 3.669 2.381 2.5 2.5 2.913 3.619 4.313 3.619h3.681c1.050 0 1.581-0.525 1.275-1.563-0.7-2.181-5.431-6.669-5.644-6.969-0.544-0.7-0.387-1.012 0-1.637 0.006-0.006 4.5-6.331 4.963-8.475z"></path>
</svg>
