<!-- Generated by IcoMoon.io -->
<svg version="1.1" xmlns="http://www.w3.org/2000/svg" width="40" height="32" viewBox="0 0 40 32">
<title>vnv</title>
<path d="M6.556 22c-2.131 0-2.9-1.9-2.9-1.9l-3.494-6.969s-0.65-1.131 0.65-1.131h2.050c0.65 0 0.825 0.544 1.175 1.131l2.294 4.656s0.325 0.819 1.319 0.819 1.319-0.819 1.319-0.819l2.294-4.656c0.35-0.594 0.525-1.131 1.175-1.131h2.050c1.3 0 0.65 1.131 0.65 1.131l-3.487 6.969s-0.762 1.9-2.9 1.9h-2.194zM31.244 22c-2.131 0-2.9-1.9-2.9-1.9l-3.494-6.969s-0.65-1.131 0.65-1.131h2.050c0.65 0 0.825 0.544 1.175 1.131l2.294 4.656s0.325 0.819 1.319 0.819 1.319-0.819 1.319-0.819l2.3-4.656c0.35-0.594 0.525-1.131 1.175-1.131h2.056c1.3 0 0.65 1.131 0.65 1.131l-3.494 6.969s-0.763 1.9-2.9 1.9h-2.2zM21.1 12c2.131 0 2.9 1.9 2.9 1.9l3.494 6.969s0.65 1.131-0.65 1.131h-2.050c-0.65 0-0.825-0.544-1.175-1.131l-2.294-4.656s-0.325-0.819-1.319-0.819c-0.994 0-1.319 0.819-1.319 0.819l-2.294 4.656c-0.35 0.587-0.525 1.131-1.175 1.131h-2.056c-1.3 0-0.65-1.131-0.65-1.131l3.494-6.969s0.762-1.9 2.9-1.9h2.194z"></path>
</svg>
