<!-- Generated by IcoMoon.io -->
<svg version="1.1" xmlns="http://www.w3.org/2000/svg" width="33" height="32" viewBox="0 0 33 32">
<title>vscode</title>
<path d="M0.31 11.123s-0.794-0.572 0.159-1.336l2.219-1.984s0.635-0.668 1.306-0.086l20.477 15.503v7.434s-0.010 1.167-1.508 1.038z"></path>
<path d="M5.588 15.915l-5.278 4.798s-0.542 0.403 0 1.124l2.45 2.229s0.582 0.625 1.442-0.086l5.595-4.243z"></path>
<path d="M14.854 15.954l9.68-7.391-0.063-7.395s-0.413-1.614-1.792-0.774l-12.881 11.723z"></path>
<path d="M22.963 31.703c0.243 0.256 0.586 0.416 0.967 0.416 0.098 0 0.194-0.011 0.286-0.031l-0.009 0.002 7.543-3.717c0.966-0.658 0.83-1.475 0.83-1.475v-22.197c0-0.976-0.999-1.313-0.999-1.313l-6.538-3.152c-1.429-0.883-2.365 0.159-2.365 0.159s1.204-0.866 1.792 0.774v29.35c0 0.002 0 0.004 0 0.006 0 0.208-0.048 0.405-0.132 0.58l0.003-0.008c-0.172 0.347-0.546 0.671-1.442 0.536z"></path>
</svg>
