<!-- Generated by IcoMoon.io -->
<svg version="1.1" xmlns="http://www.w3.org/2000/svg" width="32" height="32" viewBox="0 0 32 32">
<title>waze</title>
<path d="M31.386 12.604c0.908 5.366-1.934 10.495-7.073 13.008 0.813 2.131-0.775 4.387-3.020 4.387-1.724-0.001-3.132-1.353-3.223-3.054l-0-0.008c-0.402 0.012-4.012 0-4.771-0.040-0.072 1.727-1.49 3.1-3.228 3.1-0.047 0-0.094-0.001-0.14-0.003l0.007 0c-2.116-0.085-3.622-2.177-2.938-4.245-2.326-0.819-4.534-2.179-6.226-4.425-0.813-1.080-0.030-2.613 1.303-2.613 2.894 0 2.014-3.386 2.697-6.891 1.152-5.871 7.297-9.821 13.232-9.821 6.405 0 12.322 4.417 13.38 10.604zM23.344 24.267c2.625-1.199 5.083-3.544 6.018-6.384 2.53-7.693-4.009-14.25-11.357-14.25-5.216 0-10.645 3.464-11.629 8.5-0.596 3.057 0.313 8.209-4.297 8.209 1.559 2.069 3.646 3.289 5.858 4.003 1.541-1.363 3.992-0.967 4.989 0.896 0.889 0.063 4.949 0.074 5.494 0.051 0.547-1.052 1.629-1.758 2.876-1.758 0.78 0 1.495 0.276 2.054 0.737l-0.006-0.004zM12.82 11.696c0-2.171 3.178-2.172 3.178 0s-3.178 2.171-3.178 0zM20.106 11.696c0-2.171 3.179-2.172 3.179 0s-3.179 2.172-3.179 0zM12.443 16.114c-0.215-1.059 1.386-1.386 1.601-0.326l0.004 0.018c0.259 1.339 1.866 2.75 4.007 2.692 2.23-0.059 3.703-1.388 4.007-2.673 0.279-1.003 1.788-0.647 1.592 0.375-0.327 1.386-1.951 3.875-5.716 3.931-2.659 0-5.055-1.74-5.494-4.016z"></path>
</svg>
