<!-- Generated by IcoMoon.io -->
<svg version="1.1" xmlns="http://www.w3.org/2000/svg" width="32" height="32" viewBox="0 0 32 32">
<title>webplatform</title>
<path d="M3.693-0.781c-0.375 0.062-0.891 0.242-1.283 0.444-1.035 0.529-1.819 1.453-2.197 2.58-0.229 0.686-0.212-0.333-0.212 12.927 0 10.583 0.007 12.006 0.049 12.261 0.189 1.091 0.79 2.116 1.633 2.776 0.846 0.66 1.727 0.96 2.808 0.96 0.957 0 1.747-0.235 2.537-0.754 0.268-0.18 0.793-0.689 4.64-4.532l4.333-4.33 4.336 4.33c3.843 3.843 4.369 4.353 4.637 4.532 0.79 0.519 1.581 0.754 2.537 0.754 0.513 0 0.927-0.056 1.329-0.183 1.643-0.516 2.841-1.881 3.112-3.546 0.042-0.268 0.049-1.786 0.049-12.271 0-13.257 0.016-12.238-0.212-12.924-0.457-1.365-1.499-2.406-2.864-2.864-0.451-0.15-0.862-0.212-1.414-0.212s-0.963 0.062-1.414 0.212c-1.574 0.529-2.691 1.812-3.033 3.487-0.049 0.245-0.056 0.823-0.065 6.583l-0.013 6.318-2.080-2.077c-2.26-2.253-2.279-2.269-2.981-2.602-1.202-0.575-2.645-0.575-3.846 0-0.702 0.333-0.722 0.349-2.981 2.602l-2.080 2.077-0.013-6.318c-0.013-6.988 0.003-6.462-0.222-7.171-0.503-1.58-1.907-2.798-3.523-3.063-0.385-0.062-1.185-0.059-1.564 0.003zM4.875 1.893c0.653 0.137 1.221 0.696 1.378 1.358 0.287 1.221-0.787 2.38-2.031 2.191-0.578-0.088-1.084-0.46-1.345-0.989-0.666-1.358 0.516-2.874 1.998-2.56zM27.895 1.893c1.038 0.219 1.678 1.355 1.319 2.344-0.209 0.578-0.598 0.95-1.198 1.153-0.127 0.042-0.274 0.062-0.506 0.062s-0.379-0.020-0.506-0.062c-0.519-0.173-0.885-0.483-1.107-0.937-0.666-1.358 0.516-2.874 1.998-2.56zM16.454 13.42c1.117 0.297 1.665 1.535 1.14 2.573-0.193 0.382-0.601 0.728-1.032 0.878-0.31 0.104-0.813 0.104-1.123 0-0.784-0.271-1.267-0.983-1.224-1.803 0.039-0.787 0.562-1.44 1.319-1.649 0.212-0.059 0.705-0.059 0.921 0zM5.061 24.962c1.26 0.428 1.639 2.015 0.702 2.955-0.366 0.369-0.764 0.539-1.267 0.539-0.5 0-0.911-0.17-1.267-0.522-0.705-0.699-0.712-1.832-0.013-2.531 0.229-0.228 0.575-0.424 0.875-0.493 0.277-0.062 0.702-0.039 0.97 0.052zM28.081 24.959c1.26 0.428 1.639 2.018 0.702 2.958-0.369 0.372-0.764 0.539-1.273 0.539-0.477 0-0.875-0.157-1.221-0.477-1.048-0.97-0.594-2.713 0.8-3.066 0.268-0.065 0.718-0.046 0.993 0.046z"></path>
</svg>
