<!-- Generated by IcoMoon.io -->
<svg version="1.1" xmlns="http://www.w3.org/2000/svg" width="33" height="32" viewBox="0 0 33 32">
<title>webpack</title>
<path d="M29.818 24.666l-12.955 7.332v-5.713l8.064-4.445zM30.706 23.874v-15.361l-4.73 2.764v9.841l4.729 2.736zM2.77 24.666l12.951 7.332v-5.713l-8.064-4.445zM1.882 23.874v-15.361l4.73 2.764v9.841zM2.421 7.524l13.301-7.524v5.527l-8.571 4.727zM30.167 7.524l-13.304-7.524v5.527l8.573 4.727zM15.722 24.978l-7.962-4.377v-8.699l7.968 4.603zM16.866 24.978l7.968-4.381v-8.693l-7.971 4.603zM8.293 10.92l8-4.413 8 4.413-8 4.603z"></path>
</svg>
