<!-- Generated by IcoMoon.io -->
<svg version="1.1" xmlns="http://www.w3.org/2000/svg" width="32" height="32" viewBox="0 0 32 32">
<title>webstorm</title>
<path d="M18.905 28.25c0.315-0.395 0.688-0.828 1.13-1.337l0.22-0.25c0.275-0.317 0.5-0.563 0.723-0.8 0.521-0.549 1.013-1.141 1.465-1.764l0.035-0.051c0.677-0.922 1.113-1.615 1.043-2.805-0.035-0.613-0.060-1.032-0.457-1.525-0.373-0.419-0.751-0.804-1.146-1.17l-0.011-0.010c-0.5-0.5-0.955-0.962-1.558-1.59s-1.383-2.223-1.383-2.223c-0.356-0.768-0.63-1.659-0.777-2.592l-0.008-0.058-1.77-9.075h-5.043l-2.467 11.443-2.188-11.443h-5.963l5.38 26h5.018l2.5-11.25 2.217 11.25h2.335z"></path>
<path d="M29.402 4.55c0.527-0.61 0.96-1.105 1.317-1.555h-8c-0.475 0.607-1.442 1.78-2 2.82-0.72 1.375-1.323 2.408-1.383 4.935l0.027 0.815c0 1.207 0.863 2.98 0.863 2.98 0.286 0.531 0.58 0.984 0.904 1.412l-0.019-0.027 0.16 0.21c0.863 1 2.168 2.093 2.75 2.8 0.672 0.83 0.692 1.61 0.727 2.218 0.098 1.64-0.565 2.628-1.275 3.598-1.087 1.473-1.475 1.745-2.3 2.7-0.527 0.61-0.96 1.105-1.317 1.552h8.267c0.592-0.81 1.166-1.732 1.672-2.695l0.058-0.122c0.73-1.375 1.33-2.407 1.387-4.94l-0.027-0.817c0-1.21-0.863-2.982-0.863-2.982-0.288-0.531-0.581-0.984-0.905-1.412l0.020 0.027-0.16-0.21c-0.863-1-2.168-2.090-2.75-2.8-0.672-0.832-0.692-1.613-0.727-2.217-0.098-1.637 0.565-2.627 1.275-3.598 1.087-1.46 1.473-1.74 2.297-2.69z"></path>
</svg>
