<!-- Generated by IcoMoon.io -->
<svg version="1.1" xmlns="http://www.w3.org/2000/svg" width="32" height="32" viewBox="0 0 32 32">
<title>weibo</title>
<path d="M25.438 11.1c0.475-1.5-0.837-2.925-2.337-2.606-1.375 0.3-1.8-1.756-0.444-2.050 3.131-0.681 5.769 2.319 4.781 5.3-0.425 1.325-2.425 0.675-2-0.644zM13.425 27.919c-6.644 0-13.425-3.212-13.425-8.519 0-2.769 1.75-5.963 4.769-8.981 6.231-6.231 12.7-6.306 10.85-0.356-0.25 0.819 0.769 0.356 0.769 0.375 4.969-2.1 8.781-1.050 7.125 3.213-0.231 0.588 0.069 0.681 0.519 0.819 8.481 2.644 2.175 13.45-10.606 13.45zM22.406 18.775c-0.337-3.481-4.906-5.875-10.213-5.356-5.3 0.537-9.3 3.769-8.963 7.25s4.906 5.875 10.213 5.356c5.3-0.538 9.3-3.769 8.963-7.25zM21.744 2.194c-1.619 0.35-1.050 2.731 0.519 2.394 4.519-0.95 8.425 3.3 6.981 7.75-0.462 1.512 1.819 2.313 2.337 0.75 1.994-6.237-3.444-12.244-9.837-10.894zM16.837 21.631c-1.069 2.425-4.175 3.75-6.819 2.894-2.55-0.819-3.625-3.337-2.519-5.606 1.106-2.212 3.944-3.463 6.462-2.819 2.625 0.675 3.944 3.137 2.875 5.531zM11.444 19.756c-0.806-0.337-1.875 0.019-2.375 0.806-0.519 0.806-0.269 1.75 0.537 2.125 0.819 0.375 1.925 0.019 2.444-0.806 0.5-0.819 0.231-1.769-0.606-2.125zM13.481 18.919c-0.319-0.106-0.713 0.038-0.894 0.337-0.181 0.319-0.088 0.663 0.231 0.806 0.319 0.125 0.731-0.019 0.912-0.337 0.175-0.325 0.069-0.681-0.25-0.806z"></path>
</svg>
