<!-- Generated by IcoMoon.io -->
<svg version="1.1" xmlns="http://www.w3.org/2000/svg" width="36" height="32" viewBox="0 0 36 32">
<title>weixin</title>
<path d="M24.075 10.475c0.4 0 0.788 0.019 1.175 0.069-1.038-4.9-6.294-8.544-12.269-8.544-6.7 0-12.169 4.55-12.169 10.338 0 3.338 1.831 6.094 4.869 8.225l-1.206 3.663 4.25-2.131c1.525 0.3 2.738 0.606 4.262 0.606 0.387 0 0.756-0.019 1.144-0.050-0.25-0.806-0.387-1.663-0.387-2.55-0.006-5.306 4.556-9.625 10.331-9.625zM17.544 7.169c0.906 0 1.512 0.606 1.512 1.525 0 0.906-0.606 1.512-1.512 1.512-0.925 0-1.831-0.606-1.831-1.512 0.006-0.919 0.913-1.525 1.831-1.525zM9.019 10.206c-0.906 0-1.831-0.606-1.831-1.512 0-0.925 0.925-1.525 1.831-1.525 0.925 0 1.525 0.606 1.525 1.525 0 0.912-0.6 1.512-1.525 1.512zM35.188 19.962c0-4.869-4.869-8.831-10.337-8.831-5.794 0-10.338 3.963-10.338 8.831s4.55 8.831 10.338 8.831c1.206 0 2.431-0.319 3.663-0.619l3.337 1.831-0.925-3.038c2.45-1.837 4.262-4.269 4.262-7.006zM21.494 18.431c-0.606 0-1.206-0.606-1.206-1.225 0-0.606 0.606-1.206 1.206-1.206 0.925 0 1.525 0.606 1.525 1.206 0 0.625-0.606 1.225-1.525 1.225zM28.188 18.431c-0.606 0-1.206-0.606-1.206-1.225 0-0.606 0.606-1.206 1.206-1.206 0.906 0 1.525 0.606 1.525 1.206 0.006 0.625-0.619 1.225-1.525 1.225z"></path>
</svg>
