<!-- Generated by IcoMoon.io -->
<svg version="1.1" xmlns="http://www.w3.org/2000/svg" width="28" height="32" viewBox="0 0 28 32">
<title>whatsapp-sp</title>
<path d="M14 7.675c-4.544 0-8.238 3.694-8.244 8.238 0 1.556 0.438 3.075 1.263 4.381l0.194 0.313-0.831 3.038 3.119-0.819 0.3 0.181c1.262 0.75 2.713 1.15 4.194 1.15h0.006c4.538 0 8.331-3.694 8.331-8.238 0-2.2-0.95-4.269-2.506-5.825-1.563-1.563-3.625-2.419-5.825-2.419zM18.844 19.45c-0.206 0.581-1.194 1.106-1.669 1.175-0.788 0.119-1.4 0.056-2.969-0.619-2.481-1.075-4.106-3.575-4.231-3.738s-1.012-1.344-1.012-2.563 0.637-1.819 0.869-2.069c0.225-0.25 0.494-0.313 0.662-0.313 0.162 0 0.331 0 0.475 0.006 0.15 0.006 0.356-0.056 0.556 0.425 0.206 0.494 0.7 1.713 0.762 1.838s0.106 0.269 0.019 0.431c-0.475 0.95-0.981 0.912-0.725 1.35 0.956 1.644 1.912 2.213 3.369 2.944 0.25 0.125 0.394 0.106 0.537-0.063 0.144-0.163 0.619-0.725 0.781-0.969 0.163-0.25 0.331-0.206 0.556-0.125s1.444 0.681 1.694 0.806 0.413 0.188 0.475 0.288c0.056 0.119 0.056 0.619-0.15 1.194zM25 2h-22c-1.656 0-3 1.344-3 3v22c0 1.656 1.344 3 3 3h22c1.656 0 3-1.344 3-3v-22c0-1.656-1.344-3-3-3zM13.994 25.825c-1.662 0-3.294-0.419-4.737-1.206l-5.256 1.381 1.406-5.137c-0.869-1.5-1.325-3.206-1.325-4.956 0.006-5.463 4.45-9.906 9.913-9.906 2.65 0 5.137 1.031 7.012 2.906 1.869 1.875 2.994 4.363 2.994 7.012 0 5.463-4.544 9.906-10.006 9.906z"></path>
</svg>
