<!-- Generated by IcoMoon.io -->
<svg version="1.1" xmlns="http://www.w3.org/2000/svg" width="40" height="32" viewBox="0 0 40 32">
<title>wix</title>
<path d="M24.586 8.231c0 0.814 0.13 2.043-1.793 2.739-0.595 0.216-0.997 0.604-0.997 0.604 0-1.938 0.295-2.639 1.087-3.054 0.609-0.319 1.702-0.289 1.702-0.289zM17.349 10.452l-2.14 8.291-1.78-6.786c-0.481-1.999-1.301-3.033-3.027-3.033-1.711 0-2.541 1.011-3.027 3.033l-1.78 6.786-2.14-8.291c-0.347-1.67-1.964-2.392-3.455-2.204l4.098 15.496s1.352 0.098 2.029-0.247c0.889-0.453 1.311-0.802 1.849-2.911 0.479-1.879 1.819-7.401 1.945-7.794 0.297-0.934 0.693-0.863 0.963 0 0.123 0.394 1.466 5.914 1.945 7.794 0.537 2.108 0.961 2.457 1.849 2.911 0.676 0.345 2.029 0.247 2.029 0.247l4.098-15.496c-1.526-0.192-3.114 0.558-3.456 2.204zM24.585 10.777s-0.256 0.396-0.841 0.723c-0.376 0.21-0.736 0.352-1.123 0.538-0.946 0.454-0.824 0.872-0.824 2.2v9.504s1.034 0.131 1.711-0.214c0.871-0.444 1.071-0.872 1.079-2.799v-9.392l-0.001 0.001v-0.561zM34.8 16.032l5.2-7.734s-2.194-0.374-3.281 0.616c-0.831 0.756-1.526 1.847-3.386 4.529-0.029 0.046-0.391 0.659-0.817 0-1.831-2.639-2.55-3.768-3.386-4.529-1.087-0.989-3.281-0.616-3.281-0.616l5.2 7.734-5.186 7.71s2.286 0.289 3.372-0.701c0.718-0.654 1.099-1.273 3.282-4.42 0.426-0.657 0.786-0.048 0.817 0 1.837 2.649 2.452 3.629 3.321 4.42 1.087 0.989 3.333 0.701 3.333 0.701l-5.187-7.71z"></path>
</svg>
