<!-- Generated by IcoMoon.io -->
<svg version="1.1" xmlns="http://www.w3.org/2000/svg" width="40" height="32" viewBox="0 0 40 32">
<title>wizards-of-the-coast</title>
<path d="M13.699 21.606c-0.119 0.086-0.692 0.527-0.016 1.473 0.29 0.401 0.882 0.799 1.358 0.409 0.406-0.305 0.459-0.808 0.016-1.44-0.342-0.485-0.893-0.805-1.358-0.442zM34.746 26.352c-0.021 0.106-0.034 0.104 0.049 0 0.131-0.262 0.262-0.638 0.311-1.244 0.196-2.406-2.521-4.468-6.334-4.877-3.421-0.376-7.774 0.573-11.8 3.781l-0.016 0.098c0.164 0.311 0.311 0.671 0.212 1.326l0.049 0.016c3.993-3.65 8.199-4.828 11.522-4.616 3.65 0.229 6.252 2.128 6.252 4.255-0.001 0.622-0.164 0.983-0.246 1.261zM24.517 15.026c0.049 0.442 0.262 0.638 0.573 0.654 0.344 0.016 0.589-0.164 0.654-0.409 0.049-0.213 0.131-1.866 0.131-1.866s-0.704 0.409-0.933 0.654c-0.229 0.23-0.458 0.524-0.425 0.966zM21.391 5.582c-12.782 0-20.573 8.592-21.342 9.492-0.066 0.033-0.082 0.049 0.049 0.082 3.781 1.031 9.738 5.074 12.258 12.635l0.066 0.016c3.453-4.37 8.805-8.003 14.812-8.003 5.057 0 8.134 2.635 8.134 5.024 0 1.146-0.409 2.095-1.391 2.897 0 0.060-0.013 0.049 0.049 0.049 0.916-0.671 1.719-1.8 1.719-3.011 0-1.424-0.753-2.389-0.753-2.389 0.442 0.442 0.671 1.015 0.671 1.015 0.36-2.553 1.686-3.895 1.686-3.895-0.148-0.606-0.426-1.113-0.426-1.113 0.474 0.508 0.9 1.719 0.9 2.586 0 0.654-0.212 1.424-0.786 1.997l0.016 0.032c0.508-0.311 1.031-1.047 1.031-2.373 0-0.982-0.294-1.62-0.294-1.62 0.36-0.328 0.704-0.573 0.998-0.736 0.049 0.212 0.131 0.606 0.148 0.933 0 0.066 0.049 0.114 0.066 0 0.049-0.36-0.016-1.015-0.016-1.031 0.376-0.196 0.606-0.278 0.606-0.278-0.983-6.891-9.002-12.309-18.201-12.309zM15.189 23.684c-0.691 0.562-1.512 0.255-1.915-0.262-0.466-0.599-0.422-1.506 0.262-2.029 0.928-0.709 1.692-0.031 1.947 0.344 0.018 0.024 0.758 1.036-0.294 1.948zM15.319 15.157l0.589-1.113 0.736 4.435-0.786 0.376-1.539-1.8 0.884-1.669 0.229 0.278-0.114-0.507zM16.481 22.506l-0.016-0.016c0.128-0.256-0.156-0.413-1.096-1.981-0.082-0.148-0.196-0.18-0.278-0.164l-0.016-0.032c0.491-0.36 0.966-0.638 1.588-0.982l0.032 0.016c0.082 0.114 0.131 0.18 0.212 0.294l-0.016 0.032c-0.066-0.016-0.148-0.049-0.328 0.016-0.131 0.049-0.491 0.229-0.769 0.474v0.082c0.098 0.148 0.246 0.409 0.36 0.606h0.016c0.628-0.392 0.473-0.284 0.72-0.491h0.016c0.032 0.114 0.032 0.114 0.114 0.344l-0.016 0.016c-0.191 0.038-0.291 0.021-0.72 0.344v0.016c0.591 1.064 0.688 1.047 0.786 0.998l0.016 0.016c-0.146 0.099-0.392 0.263-0.605 0.411zM19.935 20.476c-0.196 0.098-0.376 0.18-0.622 0.311l-0.016-0.016c0.081-0.162 0.073-0.169-0.736-2.029l-0.016-0.016c-0.009 0-0.556 0.228-0.622 0.458h-0.032l-0.066-0.36 0.016-0.032c0.456-0.285 1.596-0.727 1.735-0.786l0.032 0.016 0.196 0.311-0.016 0.032c-0.221-0.11-0.459 0.047-0.769 0.164v0.016c0.769 2.001 0.792 1.915 0.916 1.915v0.016zM22.733 19.445c-0.262 0.066-0.328 0.082-0.606 0.18l-0.016-0.016 0.032-0.278c-0.066-0.212-0.196-0.72-0.229-0.851l-0.016-0.016c-0.212 0.049-0.556 0.164-0.802 0.246l-0.016 0.016c0.049 0.164 0.196 0.622 0.262 0.867 0.049 0.148 0.114 0.18 0.18 0.196v0.032c-0.229 0.066-0.442 0.164-0.638 0.246l-0.016-0.016c0.066-0.082 0.066-0.18 0.016-0.311-0.066-0.196-0.508-1.489-0.573-1.702-0.032-0.114-0.098-0.196-0.164-0.196v-0.032c0.196-0.066 0.376-0.131 0.671-0.212l0.016 0.016-0.016 0.294c0.082 0.246 0.148 0.474 0.196 0.606h0.016c0.246-0.082 0.589-0.18 0.802-0.246l0.016-0.016-0.164-0.589c-0.032-0.114-0.066-0.212-0.164-0.246v-0.016c0.278-0.066 0.458-0.114 0.671-0.148l0.016 0.016c-0.066 0.082-0.066 0.18-0.032 0.278 0.098 0.392 0.294 1.277 0.392 1.653 0.034 0.164 0.116 0.213 0.164 0.246zM24.746 19.019l-0.016 0.016c-0.294 0.032-0.884 0.148-1.407 0.262l-0.016-0.016 0.049-0.262c-0.098-0.491-0.212-1.162-0.311-1.637-0.016-0.114-0.049-0.18-0.164-0.229l0.049-0.032c0.573-0.098 1.26-0.148 1.555-0.164l0.016 0.016c0.032 0.148 0.049 0.196 0.098 0.344l-0.016 0.016c-0.071-0.071-0.209-0.2-1.015-0.049l-0.016 0.016c0.016 0.098 0.066 0.409 0.098 0.622l0.016 0.016c0.595-0.105 0.297-0.004 0.671-0.148h0.016c0 0.098-0.016 0.114-0.016 0.328h-0.016c-0.301-0.064-0.134-0.056-0.638 0l-0.016 0.016c0.016 0.131 0.098 0.589 0.131 0.786l0.016 0.016c0.072 0.024 0.888-0.041 1.015-0.294h0.016c-0.033 0.149-0.066 0.263-0.099 0.378zM25.418 16.238c-0.278 0.148-0.508 0.18-0.688 0.18-0.016 0.001-0.713 0.068-1.096-0.622-0.421-0.674-0.061-1.575 0.344-1.981 0.55-0.508 1.459-0.631 1.784-1.064 0.502-0.646-0.815-1.394-1.849-0.36l-0.164-0.18 0.328-1.015c1.599-0.098 2.825-0.19 3.126 1.015 0.049 0.196 0 0.589-0.016 0.753 0 0.164-0.114 1.178-0.131 1.44-0.032 0.262-0.049 1.146-0.049 1.293 0.016 0.148 0.032 0.262 0.098 0.344 0.098 0.114 0.36 0.114 0.36 0.114l-0.049 0.294c-0.739-0.067-0.642-0.037-1.277-0.066-0.201-0.322-0.139-0.205-0.262-0.491 0 0.001-0.262 0.246-0.458 0.344zM27.741 17.563c-0.397-0.661-1.239-0.448-1.358 0.344-0.164 1.067 0.894 1.237 1.293 0.638l0.016 0.016c-0.032 0.114-0.114 0.376-0.114 0.392l-0.032 0.032c-0.644 0.429-1.781-0.156-1.604-1.162 0.121-0.679 0.902-1.183 1.8-0.622l0.016 0.032c0 0.066-0.017 0.213-0.017 0.328zM28.102 12.080v-0.409c0.043 0 1.228 0.205 1.735 0.458l-0.098 1.096s0.638-0.589 0.966-0.671c0.328-0.098 0.933 0.458 0.933 0.458l-0.704 0.704c-0.754-0.397-1.224-0.005-1.293 0.049-0.331 2.42-0.538 2.636 0.278 2.881l-0.032 0.294c-1.097-0.268-1.158-0.281-2.308-0.458l0.049-0.294c0.453 0 0.468-0.332 0.474-0.426 0 0 0.311-3.322 0.311-3.453-0.001-0.179-0.312-0.229-0.312-0.229zM28.789 19.233c-0.508-0.131-0.884-0.688-0.671-1.293 0.196-0.589 0.769-0.769 1.178-0.638 0.573 0.164 0.802 0.736 0.671 1.211-0.163 0.556-0.589 0.867-1.178 0.72zM31.424 19.838c-0.148-0.032-0.442-0.148-0.54-0.18v-0.016l0.098-0.114c0.037-0.515 0.037-0.454 0.016-0.474-0.301-0.113-0.416-0.148-0.442-0.148-0.082 0.114-0.18 0.278-0.229 0.344l-0.049 0.212v0.016c-0.082-0.016-0.246-0.082-0.376-0.098v-0.016l0.164-0.114c0.212-0.294 0.622-0.884 0.867-1.26v-0.131l0.032-0.016c0.131 0.049 0.344 0.131 0.474 0.18 0.030 0.030 0.011-0.117-0.066 1.571-0.015 0.113 0.001 0.163 0.050 0.244zM31.129 14.224c0.703-1.142 1.923-1.012 2.128-0.213l0.474-1.637c0.146-0.391-0.176-0.619-0.278-0.704l0.114-0.229c0.764 0.648 1.024 0.873 1.407 1.277-1.619 4.567-1.922 5.051-1.539 5.27l-0.114 0.278c-0.398-0.209-0.556-0.276-1.113-0.54l0.131-0.426c-0.016-0.016-0.246 0.246-0.606 0.229-1.191-0.081-1.431-1.984-0.604-3.306zM32.962 19.183c0-0.357-0.396-0.493-0.491-0.328-0.082 0.131 0.066 0.311 0.18 0.524 0.098 0.164 0.164 0.392 0.066 0.589-0.165 0.396-0.775 0.332-0.966-0.049 0-0.044-0.017 0.006 0.114-0.294l0.049-0.016c-0.036 0.354 0.379 0.601 0.524 0.311 0.066-0.131-0.032-0.344-0.131-0.524-0.098-0.164-0.229-0.392-0.114-0.606 0.17-0.316 0.703-0.279 0.916 0.148v0.032l-0.148 0.212zM34.288 20.018c-0.123-0.204-0.057-0.134-0.278-0.294h-0.016c-0.148 0.262-0.36 0.654-0.54 1.015-0.082 0.148-0.066 0.212-0.049 0.246l-0.016 0.016-0.36-0.278 0.016-0.016 0.131-0.082c0.196-0.36 0.409-0.753 0.573-1.064v-0.016c-0.165-0.124-0.076-0.094-0.376-0.114v-0.016l0.196-0.212h0.016c0.229 0.148 0.622 0.426 0.769 0.556l0.016 0.016-0.082 0.244zM35.99 17.252l-0.18-0.18c0.049-0.148 0.114-0.311 0.131-0.474 0.047-0.609-0.72-0.74-0.72-0.311 0 0.311 0.491 1.211 0.491 1.735 0 0.638-0.36 0.982-0.867 1.031-0.524 0.049-1.26-0.654-1.26-0.654l0.311-0.9 0.18 0.131c-0.186 1.113 1.105 1.273 0.834 0.328-0.066-0.251-1.172-2.137 0.131-2.389 0.851-0.148 1.44 1.031 1.44 1.031l-0.491 0.654zM38.216 16.614c-0.688-1.899-3.781-7.971-11.997-8.101-3.339-0.066-5.892 0.966-8.297 2.373l5.352-0.573-5.712 1.293 1.571 1.227-0.246-1.031c0.469-0.107 2.447-0.528 4.173-0.556l-1.391 5.024c0.851-0.044 1.186-0.561 1.227-1.424l0.311-0.066 0.016 1.669c-1.404 0.201-2.331 0.418-3.093 0.622l0.818-2.701-3.846-2.291 0.148 0.508 0.638 0.311c0.392 1.162 1.211 3.535 1.277 3.666 0.122 0.267 0.198 0.361 0.753 0.278l0.066 0.311c-1.005 0.304-1.479 0.476-2.439 0.9l-0.148-0.294c0.275-0.184 0.546-0.246 0.344-0.802-1.481-3.906-1.343-3.634-1.424-3.715l0.148-0.278 2.095 4.206c-0.24-0.742 0.105 0.106-2.062-4.926l-2.619 5.532 0.294-0.867-2.242-2.635 1.735 5.842-0.736 0.524c-6.993-6.354-6.615-6.149-7.104-6.171-0.344-0.016-0.851 0.344-0.851 0.344l-0.311-0.376c1.91-1.471 1.976-1.521 3.65-2.668l0.262 0.442s-0.36 0.262-0.491 0.442c-0.369 0.58 0.104 0.83 3.862 4.73l-1.178-3.683 2.487-0.638 1.604 1.915 0.278-0.769-0.311-1.539 0.818-0.213 0.033 0.196 0.229-0.654-5.892 1.833 0.704-0.311-0.851-2.651 1.080-0.573 1.882 2.259 1.784-0.818c-0.088-0.467-0.154-0.906-0.294-1.228l1.080 0.867 0.294-0.131-3.699-2.668 1.442 0.719c1.186-0.379 1.577-0.467 2.013-0.606l0.164 0.688c-0.784 0.784 0.089 1.051 0.409 1.211l-0.851-3.813 0.753 1.768c0.262-0.082 0.458-0.131 0.458-0.131l0.164 0.54s-0.196 0.066-0.392 0.131l0.556 1.309 2.111-4.108-1.293 3.813c2.651-1.506 5.090-2.291 8.249-2.242 4.19 0.066 10.458 2.553 12.487 8.739 0.049 0.131-0.001 0.164-0.049 0.017zM12.717 9.527s0.114-0.033 0.262-0.082l0.589 0.474c-0.025 0-0.215-0.016-0.704 0.148l-0.148-0.54zM21.703 11.933c-0.098-0.037-1.654-0.301-2.079 1.293l1.358 1.064 0.721-2.357zM19.902 4.192c-3.65 0-6.628 0.753-7.185 0.9v0.049c0.524 0.131 0.9 0.262 1.326 0.736l0.098 0.016c0.409-0.114 3.061-0.867 6.89-0.867 11.26 0 18.854 7.299 18.854 13.961v0.622c0 0.082 0.049 0.164 0.066 0.032 0.032-0.131 0.049-0.54 0.049-1.227 0.016-5.237-6.039-14.222-20.098-14.222zM33.093 14.797c0.082-0.36 0-0.769-0.458-0.818-0.601-0.071-1.009 1.487-1.064 2.095-0.049 0.344-0.082 0.933 0.376 0.933 0.292-0.001 0.608-0.057 1.146-2.21zM29.247 17.481c-0.164-0.049-0.589-0.049-0.786 0.654-0.114 0.426 0.032 0.834 0.376 0.916 0.229 0.066 0.556 0.032 0.736-0.671 0.164-0.621-0.114-0.851-0.327-0.899zM30.688 18.791c0.114 0.032 0.196 0.066 0.36 0.114 0-0.114 0.032-0.524 0.049-0.753-0.066 0.082-0.344 0.508-0.409 0.622v0.017z"></path>
</svg>
