<!-- Generated by IcoMoon.io -->
<svg version="1.1" xmlns="http://www.w3.org/2000/svg" width="32" height="32" viewBox="0 0 32 32">
<title>wordpress</title>
<path d="M-0.020 15.978c0 6.33 3.68 11.806 9.017 14.396l-7.631-20.909c-0.889 1.991-1.387 4.192-1.387 6.513zM26.78 15.17c0-1.977-0.712-3.348-1.319-4.412-0.811-1.319-1.57-2.434-1.57-3.753 0-1.471 1.112-2.839 2.687-2.839 0.068 0 0.137 0.009 0.205 0.014-2.845-2.607-6.637-4.201-10.802-4.201-5.591 0-10.508 2.869-13.367 7.212 0.376 0.012 0.728 0.020 1.029 0.020 1.674 0 4.264-0.206 4.264-0.206 0.86-0.048 0.963 1.216 0.1 1.32 0 0-0.865 0.1-1.831 0.152l5.827 17.328 3.502-10.499-2.494-6.829c-0.862-0.052-1.678-0.152-1.678-0.152-0.863-0.052-0.76-1.368 0.103-1.32 0 0 2.64 0.206 4.211 0.206 1.672 0 4.266-0.206 4.266-0.206 0.859-0.048 0.961 1.216 0.098 1.32 0 0-0.864 0.1-1.829 0.152l5.782 17.196 1.596-5.33c0.811-2.080 1.218-3.802 1.218-5.173zM16.261 17.378l-4.802 13.95c1.433 0.421 2.947 0.65 4.521 0.65 1.862 0 3.65-0.322 5.313-0.909-0.043-0.068-0.083-0.14-0.115-0.218l-4.917-13.473zM30.017 8.3c0.070 0.511 0.11 1.057 0.11 1.647 0 1.623-0.304 3.447-1.218 5.73l-4.886 14.127c4.755-2.772 7.953-7.924 7.953-13.826 0.001-2.784-0.71-5.398-1.959-7.679z"></path>
</svg>
