<!-- Generated by IcoMoon.io -->
<svg version="1.1" xmlns="http://www.w3.org/2000/svg" width="32" height="32" viewBox="0 0 32 32">
<title>wpbeginner</title>
<path d="M28.925 20.148c3.513 4.019 0.26 9.852-5.741 9.852-2.475 0-4.927-1.105-6.259-3.128-0.43 0.022-1.419 0.022-1.849 0-1.335 2.026-3.789 3.128-6.259 3.128-5.968 0-9.272-5.812-5.741-9.852-4.946-8.241 1.954-18.148 12.925-18.148 10.977 0 17.867 9.914 12.925 18.148zM7.697 14.963h2.596v-3.63h-2.596v3.63zM21.271 20.342v-1.49c-3.782 1.307-8.272 0.575-11.724-2.123l0.015 1.556c3.194 2.898 8.234 3.617 11.709 2.057zM11.849 14.963h10.379v-3.63h-10.379v3.63z"></path>
</svg>
