<!-- Generated by IcoMoon.io -->
<svg version="1.1" xmlns="http://www.w3.org/2000/svg" width="32" height="32" viewBox="0 0 32 32">
<title>wpexplorer</title>
<path d="M32 16c0 8.825-7.169 16-16 16-8.825 0-16-7.169-16-16s7.169-16 16-16 16 7.169 16 16zM30 16c0-7.7-6.269-14-14-14-7.719 0-14 6.281-14 14s6.281 14 14 14 14-6.281 14-14zM10.056 7.787l5.431 2.319-2.319 5.431-5.431-2.319 2.319-5.431zM16.931 18.356l2.913 5.875h-0.913l-3.125-6.25-3.056 6.25h-0.875l3.194-6.681-1.394-0.587 0.375-0.875 4.288 1.819-0.375 0.894-1.031-0.444zM16.194 11.088l4.288 1.838-1.837 4.269-4.269-1.819 1.819-4.287zM21.212 13.769l3.413 1.444-1.462 3.394-3.394-1.444 1.444-3.394z"></path>
</svg>
