<!-- Generated by IcoMoon.io -->
<svg version="1.1" xmlns="http://www.w3.org/2000/svg" width="28" height="32" viewBox="0 0 28 32">
<title>wpforms</title>
<path d="M28 4.7v22.606c0 1.519-1.188 2.7-2.7 2.7h-22.6c-1.494-0.006-2.7-1.169-2.7-2.706v-22.6c0-1.506 1.175-2.7 2.7-2.7h22.606c1.5 0 2.694 1.175 2.694 2.7zM25.669 27.3v-22.6c0-0.188-0.163-0.362-0.363-0.362h-0.581l-6.894 4.663-3.831-3.119-3.825 3.119-6.894-4.669h-0.581c-0.2 0-0.362 0.175-0.362 0.362v22.606c0 0.188 0.163 0.363 0.362 0.363h22.606c0.2 0.006 0.363-0.169 0.363-0.363zM9.387 11.625v2.313h-4.594v-2.313h4.594zM9.387 16.275v2.331h-4.594v-2.331h4.594zM10.081 7.069l3.375-2.731h-7.406l4.031 2.731zM23.206 11.625v2.313h-12.25v-2.313h12.25zM23.206 16.275v2.331h-12.25v-2.331h12.25zM17.919 7.069l4.031-2.731h-7.4l3.369 2.731zM23.206 20.938v2.331h-6.213v-2.331h6.212z"></path>
</svg>
