<!-- Generated by IcoMoon.io -->
<svg version="1.1" xmlns="http://www.w3.org/2000/svg" width="31" height="32" viewBox="0 0 31 32">
<title>wpressr</title>
<path d="M15.5 0.5c-8.561 0-15.5 6.939-15.5 15.5s6.939 15.5 15.5 15.5 15.5-6.939 15.5-15.5-6.939-15.5-15.5-15.5zM26.208 10.412c-0.949 2.157-1.898 4.314-2.852 6.469-0.152 0.344-0.431 0.515-0.811 0.515-1.439-0.001-2.877 0.004-4.316-0.003-0.32-0.002-0.516 0.118-0.646 0.42-0.637 1.473-1.289 2.938-1.934 4.406-0.096 0.219-0.254 0.331-0.495 0.331-2.871-0.001-5.742-0.001-8.613 0-0.196 0-0.352-0.072-0.482-0.216-0.701-0.771-1.404-1.539-2.105-2.309-0.168-0.184-0.174-0.386-0.076-0.608 0.541-1.221 1.079-2.444 1.618-3.666 0.808-1.834 1.618-3.668 2.422-5.505 0.106-0.242 0.268-0.355 0.534-0.353 0.89 0.006 1.78 0.001 2.67 0.003 0.39 0.001 0.575 0.303 0.416 0.662-0.85 1.923-1.698 3.847-2.546 5.771-0.357 0.812-0.714 1.624-1.068 2.438-0.244 0.559 0.443 0.748 0.684 0.35 0.014-0.023-0.089 0.261 1.876-4.231 0.085-0.194 0.213-0.275 0.423-0.274 0.951 0.005 1.902 0.001 2.853 0.002 0.348 0.001 0.494 0.227 0.354 0.547-0.521 1.185-1.044 2.369-1.561 3.556-0.311 0.714 0.505 0.781 0.705 0.333 0.002-0.005 1.743-3.958 2.012-4.572 0.126-0.288 0.34-0.407 0.647-0.406 1.652 0.003 3.304 0 4.956 0.003 0.777 0.001 0.871-0.853 0.244-0.853-1.579 0.002-3.157 0.001-4.736 0.001-0.392 0-0.49-0.154-0.329-0.517 0.361-0.816 0.724-1.632 1.081-2.451 0.108-0.248 0.282-0.362 0.552-0.361 1.443 0.004 1.624 0.001 8.174 0.002 0.38-0.001 0.502 0.174 0.351 0.517z"></path>
</svg>
