<!-- Generated by IcoMoon.io -->
<svg version="1.1" xmlns="http://www.w3.org/2000/svg" width="32" height="32" viewBox="0 0 32 32">
<title>xbox</title>
<path d="M23.119 19.887c2.769 3.394 4.044 6.175 3.4 7.419-0.494 0.944-3.544 2.788-5.788 3.494-1.85 0.581-4.275 0.831-6.275 0.637-2.388-0.231-4.806-1.087-6.881-2.438-1.744-1.137-2.138-1.606-2.138-2.538 0-1.869 2.056-5.144 5.575-8.881 2-2.119 4.781-4.606 5.087-4.537 0.587 0.131 5.269 4.694 7.019 6.844zM11.787 8.988c-1.856-1.681-3.631-3.369-5.4-3.963-0.95-0.319-1.019-0.3-1.794 0.506-1.825 1.9-3.344 4.981-3.769 7.65-0.338 2.138-0.381 2.737-0.262 3.781 0.35 3.156 1.081 5.337 2.531 7.556 0.594 0.913 0.756 1.081 0.581 0.619-0.263-0.688-0.019-2.344 0.594-4 0.894-2.438 3.369-7.056 7.519-12.15zM31.262 12.956c-1.056-5-4.219-8.144-4.662-8.144-0.456 0-1.512 0.406-2.25 0.869-1.456 0.906-2.563 1.963-4.019 3.3 2.65 3.331 6.387 8.713 7.681 12.644 0.425 1.294 0.606 2.569 0.462 3.269-0.106 0.531-0.106 0.531 0.087 0.288 0.381-0.481 1.244-1.956 1.587-2.719 0.462-1.012 0.938-2.512 1.163-3.669 0.269-1.406 0.244-4.425-0.050-5.838zM8.831 2.688c2.981-0.156 6.856 2.156 7.144 2.213 0.044 0.006 0.65-0.263 1.35-0.606 3.994-1.944 5.875-1.612 6.712-1.575-3.994-2.456-9.544-3.125-14.619-0.731-1.463 0.694-1.5 0.744-0.588 0.7z"></path>
</svg>
