<!-- Generated by IcoMoon.io -->
<svg version="1.1" xmlns="http://www.w3.org/2000/svg" width="24" height="32" viewBox="0 0 24 32">
<title>xing</title>
<path d="M10.169 13.125c-0.113 0.206-1.575 2.775-4.381 7.719-0.306 0.519-0.675 0.781-1.106 0.781h-4.069c-0.481 0-0.756-0.469-0.531-0.9l4.313-7.581c0.013 0 0.013-0.006 0-0.019l-2.744-4.725c-0.269-0.487 0.019-0.881 0.531-0.881h4.069c0.456 0 0.831 0.256 1.125 0.762l2.794 4.844zM23.913 2.881l-9 15.813v0.019l5.725 10.412c0.244 0.444 0.012 0.881-0.531 0.881h-4.075c-0.475 0-0.85-0.25-1.125-0.762l-5.775-10.531c0.206-0.363 3.219-5.675 9.050-15.95 0.288-0.506 0.65-0.763 1.094-0.763h4.106c0.5 0 0.769 0.419 0.531 0.881z"></path>
</svg>
