<!-- Generated by IcoMoon.io -->
<svg version="1.1" xmlns="http://www.w3.org/2000/svg" width="32" height="32" viewBox="0 0 32 32">
<title>yammer</title>
<path d="M26.361 9.511c0.333-0.266 0.545-0.673 0.545-1.128 0-0.796-0.645-1.441-1.441-1.441-0.146 0-0.286 0.022-0.419 0.062l0.010-0.003c-0.052 0.027-0.107 0.056-0.164 0.088-0.953 0.525-7.396 5.039-6.668 5.548s5.128-1.476 8.137-3.125zM26.361 23.084c-3.010-1.649-7.415-3.631-8.137-3.125s5.714 5.022 6.668 5.546c0.058 0.032 0.113 0.063 0.164 0.088 0.121 0.037 0.259 0.058 0.403 0.058 0.796 0 1.442-0.646 1.442-1.442 0-0.454-0.21-0.859-0.537-1.123l-0.003-0.002zM29.013 14.813c-0.059 0-0.122-0.004-0.188-0.004-1.087 0-8.908 0.86-8.515 1.657s5.206 1.171 8.638 1.172c0.688-0.116 1.205-0.707 1.205-1.419 0-0.69-0.486-1.266-1.133-1.405l-0.009-0.002zM1.938 6.041c-0.050-0.146-0.079-0.315-0.079-0.49 0-0.859 0.696-1.555 1.555-1.555 0.619 0 1.154 0.362 1.404 0.886l0.004 0.009 5.062 12.816h0.076l4.813-12.721c0.22-0.552 0.75-0.935 1.369-0.935 0.812 0 1.47 0.658 1.47 1.47 0 0.15-0.022 0.294-0.064 0.43l0.003-0.010-6.85 17.087c-1.159 2.951-2.32 4.973-5.831 4.973-0.010 0-0.022 0-0.034 0-0.514 0-1.017-0.044-1.506-0.129l0.052 0.008c-0.562-0.165-0.965-0.675-0.965-1.28 0-0.736 0.596-1.332 1.332-1.332 0.023 0 0.045 0.001 0.067 0.002l-0.003-0c0.041 0.004 0.682 0.041 0.866 0.041 1.904 0 2.734-1.184 3.629-3.713z"></path>
</svg>
