<!-- Generated by IcoMoon.io -->
<svg version="1.1" xmlns="http://www.w3.org/2000/svg" width="32" height="32" viewBox="0 0 32 32">
<title>yeoman</title>
<path d="M16.969 14.531l-0.080-0.22c-0.019 0.011-0.039 0.020-0.059 0.031l0.139 0.19z"></path>
<path d="M17.56 14.059l-0.154-0.176c-0.014 0.017-0.030 0.032-0.045 0.049l0.199 0.127z"></path>
<path d="M17.941 13.404l-0.208-0.109c-0.007 0.021-0.015 0.042-0.023 0.062l0.231 0.047z"></path>
<path d="M18.059 12.657l-0.234-0.027c0.001 0.022 0.003 0.044 0.003 0.066l0.231-0.040z"></path>
<path d="M17.9 11.917l-0.227 0.059c0.009 0.020 0.017 0.041 0.025 0.061l0.202-0.121z"></path>
<path d="M14.805 14.391l0.161-0.169c-0.018-0.012-0.035-0.026-0.053-0.040l-0.108 0.209z"></path>
<path d="M16.247 14.758l0.005-0.235c-0.022 0.003-0.043 0.008-0.065 0.010l0.060 0.225z"></path>
<path d="M15.491 14.71l0.090-0.217c-0.022-0.005-0.043-0.011-0.064-0.016l-0.026 0.233z"></path>
<path d="M14.966 14.221c0.166 0.114 0.352 0.2 0.551 0.255l0.102-0.941-0.653 0.686z"></path>
<path d="M16.867 10.845l-0.128 0.197c0.020 0.009 0.040 0.019 0.060 0.029l0.068-0.226z"></path>
<path d="M14.22 11.678l0.184 0.145c0.011-0.019 0.023-0.037 0.034-0.056l-0.218-0.089z"></path>
<path d="M13.966 12.391l0.224 0.069c0.003-0.022 0.006-0.044 0.010-0.065l-0.234-0.004z"></path>
<path d="M13.987 13.148l0.233-0.017c-0.005-0.021-0.011-0.042-0.015-0.064l-0.218 0.080z"></path>
<path d="M17.484 11.284l-0.19 0.137c0.016 0.016 0.029 0.033 0.045 0.049l0.146-0.187z"></path>
<path d="M14.279 13.846l0.212-0.1c-0.013-0.018-0.024-0.037-0.035-0.056l-0.176 0.156z"></path>
<path d="M15.581 14.493c0.135 0.032 0.275 0.050 0.419 0.050 0.063 0 0.125-0.003 0.186-0.010l-0.245-0.916-0.361 0.875z"></path>
<path d="M16.134 10.658l-0.048 0.231c0.022 0.001 0.044 0.002 0.066 0.003l-0.018-0.234z"></path>
<path d="M15.382 10.749l0.038 0.231c0.021-0.007 0.042-0.014 0.063-0.020l-0.101-0.211z"></path>
<path d="M14.714 11.105l0.119 0.201c0.017-0.014 0.035-0.027 0.053-0.040l-0.172-0.161z"></path>
<path d="M16.889 14.311c0.178-0.1 0.337-0.229 0.472-0.38l-0.795-0.51 0.323 0.89z"></path>
<path d="M16.556 12.797c0 0.307-0.249 0.556-0.556 0.556s-0.556-0.249-0.556-0.556c0-0.307 0.249-0.556 0.556-0.556s0.556 0.249 0.556 0.556z"></path>
<path d="M14.22 13.131c0.047 0.201 0.128 0.39 0.235 0.559l0.71-0.627-0.945 0.067z"></path>
<path d="M14.19 12.46c-0.012 0.083-0.020 0.168-0.020 0.254 0 0.121 0.013 0.239 0.035 0.353l0.889-0.329-0.905-0.279z"></path>
<path d="M14.913 14.182l0.435-0.84-0.857 0.404c0.115 0.168 0.259 0.315 0.422 0.436z"></path>
<path d="M16 15.248c1.397 0 2.535-1.137 2.535-2.534s-1.137-2.535-2.535-2.535-2.535 1.137-2.535 2.535c0 1.397 1.137 2.534 2.535 2.534zM16 10.609c1.161 0 2.105 0.944 2.105 2.105s-0.944 2.104-2.105 2.104-2.105-0.944-2.105-2.104c0-1.161 0.944-2.105 2.105-2.105z"></path>
<path d="M14.404 11.822c-0.098 0.175-0.168 0.368-0.204 0.572l0.947 0.015-0.743-0.587z"></path>
<path d="M22.877 23.301c-4.824-1.2-6.877 1.246-6.877 1.246-0.023 2.446 3.323 6.832 7.431 7.362s6.739-1.431 6.739-1.431-2.469-5.977-7.293-7.177z"></path>
<path d="M9.122 23.301c-4.823 1.2-7.293 7.177-7.293 7.177s2.631 1.962 6.739 1.431c4.108-0.531 7.454-4.916 7.431-7.362 0-0-2.054-2.446-6.877-1.246z"></path>
<path d="M16.252 14.524c0.206-0.029 0.4-0.091 0.579-0.182l-0.558-0.764-0.020 0.946z"></path>
<path d="M2.568 18.246h26.864l0.831-2.492h-3.946l0.773-4.468 1.029-5.951c0 0-2.718-5.335-12.059-5.335-11.355 0-12.179 5.335-12.179 5.335l1.802 10.419h-3.946l0.83 2.492zM16 9.799c1.608 0 2.916 1.308 2.916 2.916 0 1.607-1.308 2.914-2.916 2.914s-2.916-1.308-2.916-2.914c0-1.608 1.308-2.916 2.916-2.916z"></path>
<path d="M17.825 12.63c-0.010-0.208-0.053-0.408-0.127-0.593l-0.812 0.485 0.939 0.108z"></path>
<path d="M17.733 13.296c0.062-0.183 0.096-0.378 0.096-0.581 0-0.006-0.001-0.012-0.001-0.018l-0.933 0.16 0.838 0.44z"></path>
<path d="M17.406 13.882c0.129-0.155 0.232-0.333 0.304-0.525l-0.927-0.188 0.623 0.713z"></path>
<path d="M17.673 11.976c-0.083-0.187-0.197-0.357-0.334-0.505l-0.581 0.745 0.915-0.239z"></path>
<path d="M17.294 11.422c-0.143-0.143-0.311-0.261-0.494-0.351l-0.273 0.905 0.767-0.554z"></path>
<path d="M14.833 11.306c-0.156 0.13-0.289 0.286-0.395 0.46l0.877 0.356-0.481-0.816z"></path>
<path d="M16.086 10.889c-0.029-0.001-0.057-0.004-0.086-0.004-0.18 0-0.353 0.027-0.517 0.075l0.409 0.854 0.194-0.925z"></path>
<path d="M15.42 10.98c-0.195 0.065-0.375 0.163-0.534 0.286l0.689 0.648-0.154-0.934z"></path>
<path d="M16.74 11.042c-0.182-0.081-0.38-0.133-0.587-0.15l0.072 0.943 0.515-0.793z"></path>
</svg>
