<!-- Generated by IcoMoon.io -->
<svg version="1.1" xmlns="http://www.w3.org/2000/svg" width="28" height="32" viewBox="0 0 28 32">
<title>youtube-sp</title>
<path d="M11.675 12.631l5.95 3.381-5.95 3.381v-6.762zM28 5v22c0 1.656-1.344 3-3 3h-22c-1.656 0-3-1.344-3-3v-22c0-1.656 1.344-3 3-3h22c1.656 0 3 1.344 3 3zM25.375 16.019s0-3.725-0.475-5.512c-0.262-0.988-1.031-1.762-2.012-2.025-1.769-0.481-8.887-0.481-8.887-0.481s-7.119 0-8.887 0.481c-0.981 0.262-1.75 1.037-2.013 2.025-0.475 1.781-0.475 5.512-0.475 5.512s0 3.725 0.475 5.512c0.263 0.988 1.031 1.731 2.013 1.994 1.769 0.475 8.887 0.475 8.887 0.475s7.119 0 8.887-0.481c0.981-0.262 1.75-1.006 2.012-1.994 0.475-1.781 0.475-5.506 0.475-5.506z"></path>
</svg>
