<!-- Generated by IcoMoon.io -->
<svg version="1.1" xmlns="http://www.w3.org/2000/svg" width="32" height="32" viewBox="0 0 32 32">
<title>zend</title>
<path d="M15.050 12.775c0 0 0-4.238 4.238-4.238h12.713c0 0 0 4.238-4.238 4.238h-12.713z"></path>
<path d="M15.050 18.189c0 0 0-4.238 4.238-4.238h6.356c0 0 0 4.238-4.238 4.238h-6.356z"></path>
<path d="M15.050 23.604c0 0 0-4.237 4.238-4.237h2.119c0 0 0 4.237-4.237 4.237h-2.119z"></path>
<path d="M13.627 20.297v3.38h-13.627l8.779-11.975h-7.536v-3.381h14.216l-8.738 11.975z"></path>
</svg>
