<!-- Generated by IcoMoon.io -->
<svg version="1.1" xmlns="http://www.w3.org/2000/svg" width="28" height="32" viewBox="0 0 28 32">
<title>accessible-icon</title>
<path d="M26.494 15.988l-0.806 9.831c-0.206 2.544-3.994 2.194-3.788-0.306l0.625-7.656-2.569 0.144c0.631 1.294 0.988 2.744 0.988 4.281 0 2.575-1.006 4.919-2.644 6.656l-2.456-2.456c3.619-3.981 0.819-10.45-4.625-10.45-1.619 0-3.094 0.619-4.2 1.625l-2.456-2.456c1.375-1.294 3.131-2.194 5.088-2.512l4.706-5.356-2.662-1.55-3.225 2.875c-1.875 1.675-4.412-1.156-2.531-2.838l4.25-3.794c0.613-0.55 1.506-0.637 2.219-0.225 0 0 8.706 5.056 8.719 5.069 1.012 0.631 1.294 2.25 0.381 3.287l-3.65 4.156 6.631-0.369c1.156-0.069 2.1 0.9 2.006 2.044zM22.438 6.362c1.756 0 3.181-1.425 3.181-3.181s-1.425-3.181-3.181-3.181c-1.756 0-3.181 1.425-3.181 3.181s1.425 3.181 3.181 3.181zM11.225 28.531c-5.037 0-7.963-5.663-5.169-9.756l-2.481-2.481c-1.3 1.644-2.075 3.725-2.075 5.981 0 8.169 9.419 12.587 15.712 7.656l-2.481-2.481c-1 0.681-2.206 1.081-3.506 1.081z"></path>
</svg>
