<!-- Generated by IcoMoon.io -->
<svg version="1.1" xmlns="http://www.w3.org/2000/svg" width="24" height="32" viewBox="0 0 24 32">
<title>acquisitions-incorporated</title>
<path d="M22.341 29.262c-0.075-0.481-0.081-0.475-0.6-0.475-6.238 0.012-6.988-0.15-7.044-0.163-0.769-0.106-1.287-0.656-1.313-1.444-0.006-0.1-0.012-4.475-0.063-8.069-0.006-0.294 0.1-0.4 0.369-0.469 0.781-0.188 1.556-0.381 2.331-0.606 0.269-0.081 0.425-0.012 0.525 0.219 0.281 0.644 0.55 1.288 0.825 1.931 0.1 0.231 0.006 0.275-0.212 0.275-0.625-0.012-1.25-0.006-1.9-0.006v1.688h7.25c-0.087-0.594-0.169-1.131-0.25-1.719-0.438 0-0.863 0.025-1.275-0.006-1.413-0.1-1.144-0.275-5.25-9.912-0.55-1.256-1.744-3.881-2.281-5.575-0.275-0.875 0.344-1.587 1.181-1.663 1.162-0.106 2.344-0.1 3.513-0.125 1.288-0.025 2.575-0.025 3.863-0.031 0.194 0 0.25-0.087 0.269-0.269 0.075-0.613 0.169-1.219 0.25-1.825 0.050-0.331 0.1-0.669 0.15-1.006l-21.194-0.013c-0.225 0-0.331 0.069-0.288 0.331 0.137 0.825-0.050 0.050 0.4 2.831 3.962 0 4.487 0.056 6.362 0.031 0.769-0.013 2.313 0.219 2.356 1.381 0.025 0.713-0.069 0.706-2.037 5.463-3.362 8.112-3.169 7.519-4.206 10.063-0.106 0.256-0.225 0.325-0.475 0.325-0.531-0.012-1.063-0.019-1.587 0.006-0.119 0.006-0.325 0.113-0.344 0.2-0.094 0.506-0.137 1.019-0.2 1.556h7.144v-1.725c-0.431 0-2.094 0.025-2.206-0.181 0.331-0.769 0.65-1.525 0.981-2.294 1.019 0.25 1.994 0.488 2.975 0.731 0.213 0.056 0.287 0.188 0.287 0.425-0.006 2.681 0.006 5.369 0.012 8.050 0 0.637-0.344 1.194-0.931 1.444-0.406 0.169-0.206 0.212-7.588 0.15-0.331 0-0.444 0.125-0.475 0.425-0.094 0.806-0.181 1.619-0.313 2.425-0.050 0.313 0.081 0.356 0.331 0.356 11.45 0.037-1.919 0 21.069 0-0.156-0.938-0.275-1.837-0.413-2.731zM11.409 16.406c-0.831-0.262-1.662-0.512-2.494-0.781-0.142-0.059-0.261-0.12-0.375-0.188l0.012 0.007c1.075-2.769 2.138-5.506 3.206-8.256 0.469 0.15 0.494-0.050 0.588 0 0.581 1.406 1.131 3.756 1.688 5.175 0.412 1.044 0.813 2.094 1.231 3.181-0.068 0.043-0.147 0.087-0.23 0.125l-0.014 0.006c-0.819 0.244-1.65 0.469-2.463 0.731-0.171 0.062-0.369 0.098-0.575 0.098s-0.404-0.036-0.587-0.102l0.012 0.004z"></path>
</svg>
