<!-- Generated by IcoMoon.io -->
<svg version="1.1" xmlns="http://www.w3.org/2000/svg" width="28" height="32" viewBox="0 0 28 32">
<title>angellist</title>
<path d="M21.694 13.463c0.731-2.037 2.837-7.931 2.837-9.819 0-1.663-0.981-3.056-2.731-3.056-2.788 0-5.287 8.231-6.069 10.194-0.606-1.781-3.444-10.781-5.944-10.781-1.944 0-2.856 1.431-2.856 3.231 0 2.206 2.138 7.925 2.913 10.125-0.394-0.144-0.819-0.269-1.25-0.269-1.463 0-3.019 1.819-3.019 3.288 0 0.556 0.306 1.337 0.5 1.856-2.306 0.625-3.194 2.163-3.194 4.481-0.006 4.512 4.269 9.288 10.281 9.288 7.375 0 11.962-5.538 11.962-12.681 0-2.694-0.431-5.125-3.431-5.856zM19.481 6.75c0.25-0.769 1.319-4.019 2.319-4.019 0.538 0 0.681 0.556 0.681 1 0 1.194-2.413 7.788-2.944 9.25l-2.125-0.375 2.069-5.856zM8.894 3.019c0-0.744 0.906-2.856 2.894 2.944l2.162 6.269c-0.975-0.081-1.731-0.188-2.213 0.088-0.681-1.8-2.844-7.481-2.844-9.3zM8.75 15.25c1.831 0 4.194 5.913 4.194 6.712 0 0.319-0.306 0.712-0.662 0.712-1.306 0-4.806-4.806-4.806-6.106 0.006-0.481 0.794-1.319 1.275-1.319zM20.269 26.894c-1.819 2-4.144 3.038-6.856 3.038-3.713 0-6.644-2.038-8.056-5.519-1.069-2.712 0.237-4.269 1.287-4.269 0.713 0 3.394 3.769 3.394 4.569 0 0.306-0.481 0.519-0.731 0.519-1.006 0-1.4-0.969-3.194-3.212-1.856 1.856 1.281 5.431 3.644 5.431 1.631 0 2.694-1.512 2.375-2.625 0.231 0 0.519 0.019 0.731-0.038 0.069 1.694 0.569 3.712 2.606 3.856 0-0.056 0.125-0.444 0.125-0.462 0-1.087-0.662-2.038-0.662-3.144 0-1.769 1.356-3.481 2.731-4.481 0.5-0.375 1.106-0.606 1.694-0.819 0.606-0.231 1.25-0.5 1.712-0.962-0.069-0.7-0.356-1.319-1.056-1.319-1.731 0-7.537 0.25-7.537-2.481 0-0.419 0.006-0.819 1.088-0.819 2.019 0 7.144 0.5 8.644 1.819 1.131 1.006 1.519 7.075-1.938 10.919zM14.106 19.019c0.606 0.194 1.231 0.25 1.856 0.375-0.463 0.337-0.875 0.75-1.269 1.194-0.175-0.531-0.387-1.050-0.588-1.569z"></path>
</svg>
