<!-- Generated by IcoMoon.io -->
<svg version="1.1" xmlns="http://www.w3.org/2000/svg" width="32" height="32" viewBox="0 0 32 32">
<title>avianex</title>
<path d="M28.319 2h-19.5c-2.431 0-4.763 1.95-5.206 4.356l-3.538 19.288c-0.444 2.406 1.169 4.356 3.606 4.356h19.5c2.431 0 4.762-1.95 5.206-4.356l3.544-19.281c0.438-2.413-1.175-4.362-3.613-4.362zM24.681 23.706l-2 0.844-7.213-6.875c-0.919 0.625-1.825 1.219-2.606 1.694l1.381 4.012-1.119 0.794-2.537-3.813-3.275-3.006 0.981-0.962 3.625 1.944c0.581-0.656 1.3-1.413 2.050-2.181l-1.281-1.85-4.3-6.237 1.175-1.806 0.556-0.3 6.444 7.025 0.306 0.281c1.212-1.175 2.113-2.025 2.113-2.025 0.481-0.406 1.344-0.181 1.919 0.494 0.563 0.656 0.663 1.544 0.169 1.956-0.113 0.081-0.969 0.713-2.206 1.6l0.281 0.456 5.931 7.463-0.394 0.494z"></path>
</svg>
