<!-- Generated by IcoMoon.io -->
<svg version="1.1" xmlns="http://www.w3.org/2000/svg" width="32" height="32" viewBox="0 0 32 32">
<title>battle-net</title>
<path d="M28.038 14.101c1.679 0.011 2.223-0.464 2.433-0.773 0.779-1.020-0.441-2.975-3.303-4.458 1.11-2.099 1.882-3.98 2.271-5.331 0.211-0.739 0.068-1.188 0.028-1.266-0.108 0.657-0.991 3.029-3.012 6.253-1.563-0.701-3.532-1.256-5.861-1.487-0.559-1.059-2.18-3.991-3.78-5.558-1.053-1.034-1.895-1.414-2.553-1.467h-0.003c-0.864-0.097-1.417 0.366-1.713 0.688-1.075 1.158-1.521 3.054-1.563 5.254-0.453-0.772-1.073-1.539-1.781-1.621h-0.011c-1.291-0.218-2.399 1.826-2.25 5.081-2.397 0.086-4.438 0.359-5.813 0.702-0.619 0.153-1.014 0.454-1.11 0.607 0.063-0.024 1.4-0.576 6.973-0.576 0.326 3.313 1.859 6.364 1.625 5.824-0.608 0.963-2.39 3.897-2.957 6.106-0.367 1.43-0.273 2.351 0.009 2.946 0.348 0.797 1.026 1.045 1.45 1.141 1.563 0.357 3.461-0.227 5.419-1.321-0.471 0.802-0.869 1.782-0.566 2.459 0.457 1.228 2.781 1.166 5.527-0.591 1.261 2.011 2.504 3.621 3.481 4.633 0.158 0.17 0.338 0.317 0.536 0.437l0.011 0.006c0.321 0.201 0.536 0.211 0.536 0.211-0.515-0.422-2.125-2.375-3.909-5.736 1.389-1 2.853-2.429 4.217-4.329 7.676 0.288 8.956-1.547 9.25-1.977 0.917-1.242 0.214-3.59-3.582-5.856zM23.172 20.74c1.488-2.357 1.896-4.236 1.841-5.771 1.741 1.098 2.949 2.349 3.066 3.677 0.071 0.808-0.506 1.82-4.907 2.094zM13.556 24.231c0.61-0.389 1.221-0.82 1.825-1.281 0.418 0.833 0.85 1.631 1.287 2.387-2.537 1.366-4.303 0.797-3.113-1.106zM26.994 13.521c-0.643-0.334-1.323-0.646-2.024-0.941 0.388-0.572 0.858-1.325 1.306-2.092l0.116-0.214c2.441 1.506 2.869 3.324 0.602 3.247zM17.449 24.875c-0.344-0.709-0.688-1.469-1.031-2.277 2.703 0.079 3.901-1.171 3.955-1.276 0 0.004-1.563 0.977-3.908 0.766 1.937-1.625 3.676-3.343 5.267-5.191l0.050-0.059q0.816-0.957 1.558-1.944c-0.023-0.018-0.096-0.188-1.032-0.75-3.231 3.767-6.396 6.125-8.297 7.245-1.287-0.699-2.553-1.986-3.482-3.843-1.25-2.495-1.875-5.149-1.973-7.254 0.769 0.057 1.579 0.136 2.428 0.242-1.393 2.3-0.899 3.938-0.842 4.014 0-0.004-0.059-1.823 1.259-3.723 0.627 3.599 1.596 6.806 2.9 9.835l-0.108-0.282c0.058-0.024 0.115 0.055 1.167-0.516-1.646-4.654-2.11-8.636-2.125-10.839 1.25-0.776 3.011-1.237 5.102-1.113 2.786 0.167 5.398 0.953 7.27 1.919q-0.668 0.979-1.458 2.029c-1.296-2.357-2.954-2.742-3.054-2.732 0.007 0 1.619 0.879 2.595 2.951-2.017-0.772-4.436-1.457-6.927-1.937l-0.281-0.045c-0.577-0.118-1.416-0.251-2.263-0.358l-0.199-0.020c-0.004 0.028-0.113 0.116-0.135 1.271 4.867 0.906 8.541 2.493 10.452 3.576 0.046 1.472-0.434 3.226-1.588 4.973-1.538 2.332-3.524 4.202-5.298 5.339zM19.161 6.938c-2.785-0.104-4.599 0.464-5.918 1.292 0.125-3.269 1.332-4.774 2.388-4.705 1.056-0.265 3.431 3.26 3.53 3.413zM10.996 7.131c0.030 0.757 0.099 1.539 0.201 2.33-0.909-0.053-1.796-0.078-2.65-0.079-0.005 0.203-0.008-3.188 1.542-3.099h0.006c0.36 0.068 0.664 0.43 0.902 0.848zM9.242 17.256c1.297 2.481 2.706 3.786 4.078 4.519-2.924 1.547-4.846 1.25-5.308 0.282-0.013-0.013-0.696-0.956 1.229-4.801z"></path>
</svg>
