<!-- Generated by IcoMoon.io -->
<svg version="1.1" xmlns="http://www.w3.org/2000/svg" width="28" height="32" viewBox="0 0 28 32">
<title>bimobject</title>
<path d="M26 2h-24c-1.1 0-2 0.9-2 2v24c0 1.1 0.9 2 2 2h24c1.1 0 2-0.9 2-2v-24c0-1.1-0.9-2-2-2zM22 18.087c0 3.087-0.712 5.163-6.488 5.163h-1.056c-2.756 0-3.9-0.931-4.4-2.425h-0.056v2.175h-4v-14.5h4v4.669h0.069c0.287-1.906 2.481-2.425 4.356-2.425h1.081c5.775 0 6.488 2.069 6.488 5.156v2.188zM18 16.281v1.431c0 1.356-0.212 2.113-2.4 2.113h-2.831c-1.806 0-2.756-0.406-2.756-2.231v-1.188c0-1.831 0.95-2.231 2.756-2.231h2.831c2.188-0.012 2.4 0.75 2.4 2.106z"></path>
</svg>
