<!-- Generated by IcoMoon.io -->
<svg version="1.1" xmlns="http://www.w3.org/2000/svg" width="32" height="32" viewBox="0 0 32 32">
<title>bitbucket-sp</title>
<path d="M16 0v0c-7.81 0-14.188 2.1-14.188 4.707 0 0.687 1.703 10.533 2.379 14.438 0.303 1.751 4.829 4.319 11.806 4.319l0.007-0.021v0.021c6.977 0 11.502-2.568 11.805-4.319 0.676-3.905 2.379-13.751 2.379-14.438-0-2.607-6.378-4.707-14.188-4.707zM16 20.301c-2.491 0-4.51-2.020-4.51-4.51s2.019-4.51 4.51-4.51c2.491 0 4.51 2.019 4.51 4.51s-2.019 4.51-4.51 4.51zM15.997 6.162c-5.018-0.008-9.085-0.88-9.083-1.948s4.071-1.927 9.089-1.919c5.018 0.008 9.085 0.88 9.083 1.948s-4.071 1.927-9.089 1.919z"></path>
<path d="M26.197 22.304c-0.216 0-0.389 0.153-0.389 0.153s-3.494 2.767-9.809 2.767c-6.315-0-9.809-2.767-9.809-2.767s-0.173-0.153-0.388-0.153c-0.258 0-0.502 0.173-0.502 0.555 0 0.041 0.004 0.081 0.011 0.12 0.542 2.902 0.938 4.962 1.008 5.275 0.473 2.135 4.65 3.746 9.679 3.746v0h0.001c5.030-0 9.206-1.611 9.679-3.746 0.070-0.314 0.466-2.373 1.008-5.275 0.007-0.040 0.011-0.080 0.011-0.12 0-0.382-0.244-0.555-0.502-0.555z"></path>
<path d="M18.588 15.827c0 1.357-1.1 2.457-2.457 2.457s-2.457-1.1-2.457-2.457c0-1.357 1.1-2.457 2.457-2.457s2.457 1.1 2.457 2.457z"></path>
</svg>
