<!-- Generated by IcoMoon.io -->
<svg version="1.1" xmlns="http://www.w3.org/2000/svg" width="32" height="32" viewBox="0 0 32 32">
<title>blackberry</title>
<path d="M27.564 15.22c-2.094 0-4.352 0-4.352 0l1.186-5.512c0 0 3.063 0 4.18 0 2.712 0 3.354 1.339 3.354 2.399 0 1.499-0.965 3.113-4.368 3.113zM30.312 19.959c0 1.499-0.965 3.113-4.368 3.113-2.094 0-4.352 0-4.352 0l1.186-5.516c0 0 3.063 0 4.176 0 2.711-0 3.357 1.347 3.357 2.403zM17.434 10.287c-2.094 0-4.347 0-4.347 0l1.186-5.512c0 0 3.059 0 4.171 0 2.716 0 3.362 1.339 3.362 2.399 0 1.499-0.969 3.113-4.372 3.113zM20.293 15.47c0 1.499-0.965 3.113-4.368 3.113-2.092 0-4.348 0-4.348 0l1.184-5.508c0 0 3.063 0 4.178 0 2.712 0 3.353 1.335 3.353 2.394zM18.677 24.112c0 1.503-0.965 3.113-4.36 3.113-2.098 0-4.358 0-4.358 0l1.186-5.516c0 0 3.063 0 4.18 0 2.709 0 3.351 1.343 3.351 2.403zM5.791 10.287c-2.092 0-4.345 0-4.345 0l1.18-5.512c0 0 3.063 0 4.18 0 2.712 0 3.36 1.339 3.36 2.399-0 1.499-0.971 3.113-4.374 3.113zM8.655 15.47c0 1.499-0.971 3.113-4.366 3.113-2.1 0-4.358 0-4.358 0l1.188-5.508c0 0 3.065 0 4.176 0 2.713 0 3.36 1.335 3.36 2.394z"></path>
</svg>
