<!-- Generated by IcoMoon.io -->
<svg version="1.1" xmlns="http://www.w3.org/2000/svg" width="32" height="32" viewBox="0 0 32 32">
<title>ceylon</title>
<path d="M10.105 22.615c-0.269-0.068-0.502-0.154-0.723-0.26l0.023 0.010c-0.512 0.805-1.7 2.843-1.87 4.688h3.075c-0.325-1.188-0.512-2.552-0.512-3.959 0-0.168 0.003-0.336 0.008-0.503l-0.001 0.024zM20.070 20.98c-0.561 1.218-1.052 2.651-1.397 4.14l-0.030 0.155c-0.133 0.595 0.27 1.188 0.195 1.777h3.867c-1.020-2.815-1.25-6.91-1.777-8.547-0.012-0.023-0.843 2.495-0.858 2.475z"></path>
<path d="M31.080 11.297c-0.88-1.25-2.887-2.3-3.355-3.728-0.12-0.365-0.14-1.115 0.090-1.465s-0.135-0.25-0.135-0.25c-0.5 0.192-0.715-0.357-0.715-0.357-0.075-0.192 0.027-0.78-0.402-0.46-0.775 0.582-0.52 2-0.375 2.57 0.281 1.013 0.792 1.884 1.476 2.586l-0.001-0.001c0.25 0.232 1.825 1.965 1.61 2.853-0.016 0.317-0.237 0.578-0.533 0.654l-0.005 0.001c-1.148 0.23-1.52-1.178-1.52-1.178-0.86-3.672-2.25-4.957-2.25-4.957-0.295-0.011-0.641-0.018-0.989-0.018-2.028 0-4.005 0.221-5.907 0.642l0.181-0.034c-8.592-0.322-15.057 2.318-15.057 2.318-1.89 2.713-3 7.75-3 7.75s0 0.025 0.018 0.027c0.002 0 0.005 0 0.007 0 0.024 0 0.046-0.013 0.058-0.033l0-0c0.72-0.898 1.504-1.689 2.364-2.393l0.028-0.022c-0.18 7 1.405 11.25 1.405 11.25h3c0.213-2.523 2.192-5.303 2.192-5.303 1.115 0.845 3.635 0.595 3.635 0.595 0.445 1.685 1.35 4.705 1.35 4.705h3.615c0.343-2.481 1.034-4.726 2.027-6.797l-0.059 0.137s0.895-2.030 0.918-2.64c0.058-1.063 1.063-1.378 1.607-1.378s3.025 1.385 4.878 1.293c3.227-0.163 4.5-1.655 4.563-3.357 0.050-1.17-0.225-2.307-0.718-3.010zM20.707 14.905c-0.018 0.052-0.041 0.096-0.069 0.137l0.001-0.002c-0.033 0.049-0.076 0.088-0.126 0.117l-0.002 0.001c-0.047 0.026-0.103 0.041-0.163 0.041-0.007 0-0.014-0-0.021-0.001l0.001 0c-0.060-0.004-0.117-0.018-0.169-0.039l0.004 0.001c-0.182-0.084-0.338-0.195-0.47-0.33l-0-0c-0.067-0.063-0.13-0.127-0.19-0.19l-0.175-0.182c-0.104-0.089-0.228-0.159-0.362-0.205l-0.008-0.002c-0.148-0.053-0.308-0.095-0.475-0.135s-0.335-0.082-0.517-0.143c-0.045-0.015-0.093-0.033-0.145-0.057l-0.073-0.027c-0.036-0.021-0.067-0.043-0.096-0.068l0.001 0.001c-0.056-0.049-0.103-0.107-0.138-0.172l-0.002-0.003c-0.029-0.053-0.053-0.115-0.069-0.18l-0.001-0.005c-0.017-0.077-0.027-0.166-0.027-0.257 0-0.026 0.001-0.051 0.002-0.076l-0 0.003c0.005-0.106 0.016-0.206 0.035-0.303l-0.002 0.013c0.040-0.21 0.088-0.389 0.146-0.562l-0.009 0.030q0.082-0.25 0.183-0.5c0.032-0.082 0.065-0.162 0.102-0.25 0.046-0.101 0.089-0.183 0.137-0.262l-0.007 0.012c0.194-0.319 0.437-0.587 0.723-0.802l0.007-0.005c0.131-0.1 0.279-0.194 0.435-0.277l0.018-0.008c0.142-0.077 0.308-0.145 0.482-0.195l0.018-0.005c-0.289 0.203-0.541 0.426-0.767 0.674l-0.003 0.004c-0.218 0.231-0.401 0.497-0.54 0.789l-0.008 0.019c-0.027 0.058-0.056 0.132-0.081 0.207l-0.004 0.015-0.078 0.25c-0.050 0.162-0.1 0.325-0.14 0.488-0.037 0.126-0.072 0.287-0.099 0.452l-0.003 0.026c-0.011 0.065-0.019 0.142-0.022 0.221l-0 0.004c-0.001 0.011-0.001 0.024-0.001 0.038 0 0.053 0.006 0.105 0.017 0.155l-0.001-0.005c0.005 0.033 0.019 0.062 0.040 0.085l-0-0 0.035 0.020 0.098 0.040c0.145 0.055 0.313 0.098 0.48 0.15 0.206 0.062 0.376 0.125 0.541 0.199l-0.029-0.011c0.197 0.082 0.364 0.201 0.499 0.349l0.001 0.001c0.063 0.078 0.108 0.145 0.16 0.215l0.152 0.203c0.050 0.065 0.102 0.127 0.157 0.185 0.049 0.054 0.104 0.102 0.164 0.143l0.003 0.002c0.034 0.028 0.078 0.044 0.126 0.044 0.009 0 0.018-0.001 0.027-0.002l-0.001 0c0.064-0.024 0.115-0.069 0.147-0.126l0.001-0.001c0.041-0.064 0.078-0.137 0.107-0.214l0.003-0.008c0.032-0.080 0.058-0.162 0.085-0.25 0.004 0.041 0.006 0.089 0.006 0.137 0 0.141-0.020 0.277-0.056 0.406l0.003-0.010zM23.902 12.675c-0.074 0.22-0.279 0.376-0.52 0.376-0.302 0-0.547-0.245-0.547-0.547s0.245-0.547 0.547-0.547c0.112 0 0.215 0.033 0.302 0.091l-0.002-0.001c0.158 0.081 0.264 0.242 0.264 0.429 0 0.073-0.016 0.142-0.045 0.204l0.001-0.003z"></path>
</svg>
