<!-- Generated by IcoMoon.io -->
<svg version="1.1" xmlns="http://www.w3.org/2000/svg" width="32" height="32" viewBox="0 0 32 32">
<title>chromecast</title>
<path d="M27.988 4h-23.988c-1.475 0-2.669 1.194-2.669 2.669v3.994h2.669v-3.994h23.988v18.663h-9.325v2.669h9.337c1.475 0 2.669-1.194 2.669-2.669v-18.663c0-1.475-1.206-2.669-2.681-2.669zM1.331 23.975v0 3.994h3.994c0-2.206-1.788-3.994-3.994-3.994v0zM1.331 18.663v2.65c3.681 0 6.662 3.006 6.662 6.688h2.669c0.006-5.15-4.181-9.331-9.331-9.337zM13.338 28h2.669c-0.031-8.094-6.581-14.644-14.675-14.662v2.65c6.625-0.012 12 5.387 12.006 12.012z"></path>
</svg>
