<!-- Generated by IcoMoon.io -->
<svg version="1.1" xmlns="http://www.w3.org/2000/svg" width="32" height="32" viewBox="0 0 32 32">
<title>codepen</title>
<path d="M31.977 10.886c-0.007-0.039-0.014-0.077-0.024-0.115-0.006-0.023-0.014-0.044-0.021-0.067-0.011-0.034-0.022-0.067-0.035-0.1-0.010-0.023-0.020-0.045-0.031-0.067-0.015-0.031-0.030-0.062-0.047-0.091-0.012-0.022-0.026-0.043-0.039-0.064-0.019-0.029-0.038-0.056-0.058-0.084-0.015-0.020-0.031-0.040-0.047-0.059-0.021-0.026-0.045-0.051-0.068-0.075-0.018-0.018-0.036-0.036-0.055-0.054-0.025-0.023-0.051-0.044-0.078-0.065-0.021-0.016-0.041-0.032-0.062-0.047-0.008-0.005-0.015-0.012-0.023-0.017l-14.625-9.75c-0.462-0.308-1.063-0.308-1.525 0l-14.625 9.75c-0.008 0.005-0.015 0.012-0.023 0.017-0.021 0.015-0.042 0.031-0.062 0.047-0.026 0.021-0.053 0.043-0.078 0.065-0.019 0.017-0.037 0.035-0.055 0.054-0.024 0.024-0.047 0.049-0.069 0.075-0.016 0.019-0.032 0.039-0.047 0.059-0.021 0.027-0.040 0.055-0.058 0.084-0.013 0.021-0.027 0.042-0.039 0.064-0.017 0.030-0.032 0.060-0.047 0.091-0.010 0.022-0.021 0.044-0.031 0.067-0.013 0.033-0.025 0.067-0.036 0.1-0.007 0.023-0.015 0.044-0.021 0.067-0.010 0.038-0.017 0.076-0.024 0.115-0.004 0.020-0.008 0.039-0.011 0.059-0.008 0.059-0.012 0.119-0.012 0.18v9.75c0 0.061 0.005 0.12 0.012 0.18 0.003 0.020 0.008 0.039 0.011 0.059 0.007 0.039 0.014 0.077 0.024 0.115 0.006 0.023 0.014 0.045 0.021 0.067 0.011 0.034 0.022 0.067 0.036 0.101 0.009 0.023 0.020 0.045 0.031 0.066 0.014 0.031 0.029 0.061 0.047 0.092 0.012 0.021 0.026 0.043 0.039 0.063 0.018 0.028 0.037 0.056 0.058 0.084 0.015 0.021 0.031 0.040 0.047 0.059 0.022 0.026 0.045 0.050 0.069 0.075 0.018 0.018 0.036 0.037 0.055 0.053 0.025 0.023 0.051 0.045 0.078 0.066 0.021 0.016 0.041 0.032 0.062 0.047 0.008 0.006 0.015 0.012 0.023 0.017l14.625 9.75c0.231 0.154 0.497 0.231 0.763 0.231s0.532-0.077 0.763-0.231l14.625-9.75c0.008-0.005 0.015-0.011 0.023-0.017 0.021-0.015 0.042-0.031 0.062-0.047 0.027-0.021 0.053-0.043 0.078-0.066 0.019-0.017 0.037-0.035 0.055-0.053 0.024-0.024 0.047-0.049 0.068-0.075 0.016-0.019 0.032-0.039 0.047-0.059 0.021-0.027 0.040-0.055 0.058-0.084 0.014-0.021 0.027-0.042 0.039-0.063 0.017-0.030 0.032-0.061 0.047-0.092 0.010-0.022 0.021-0.044 0.031-0.066 0.014-0.033 0.025-0.067 0.035-0.101 0.007-0.022 0.015-0.044 0.021-0.067 0.010-0.038 0.017-0.076 0.024-0.115 0.003-0.020 0.008-0.039 0.011-0.059 0.008-0.059 0.012-0.119 0.012-0.18v-9.75c0-0.061-0.005-0.12-0.012-0.18-0.002-0.020-0.007-0.040-0.011-0.059zM16 19.253l-4.863-3.253 4.863-3.253 4.864 3.253-4.864 3.253zM14.625 10.358l-5.962 3.987-4.812-3.219 10.774-7.182v6.414zM6.19 16l-3.44 2.301v-4.602l3.44 2.301zM8.663 17.655l5.962 3.987v6.414l-10.774-7.183 4.812-3.219zM17.375 21.641l5.962-3.987 4.813 3.218-10.774 7.183v-6.414zM25.81 16l3.44-2.301v4.602l-3.44-2.301zM23.336 14.346l-5.962-3.987v-6.414l10.774 7.182-4.813 3.219z"></path>
</svg>
