<!-- Generated by IcoMoon.io -->
<svg version="1.1" xmlns="http://www.w3.org/2000/svg" width="32" height="32" viewBox="0 0 32 32">
<title>codeigniter</title>
<path d="M22.64 12.092c-0.068-0.035-0.127-0.072-0.196-0.107 0.103 0.249 0.137 0.461 0.133 0.651 0.037-0.154 0.061-0.312 0.064-0.477 0.002 0.205-0.022 0.397-0.071 0.576 0.004-0.032 0.006-0.065 0.007-0.099-0.056 0.238-0.151 0.459-0.277 0.661 0.021-0.021 0.042-0.042 0.061-0.065-0.744 1.245-2.773 1.517-3.774 0.231-1.606-2.064 0.033-4.289 0.263-6.474 0.287-2.739-1.43-5.398-3.56-6.989 1.173 1.897-0.373 4.408-1.609 5.811-1.199 1.361-2.657 2.497-3.98 3.733-1.421 1.328-2.789 2.726-3.957 4.284-2.337 3.118-3.768 7.040-2.717 10.932 1.051 3.889 4.419 6.364 8.222 7.239-1.919-0.829-3.714-2.937-3.719-5.094-0.005-2.352 1.485-4.348 3.339-5.66-0.223 0.842-0.344 1.612 0.208 2.365 0.513 0.7 1.412 1.040 2.261 0.855 1.983-0.434 2.074-2.614 0.899-3.884-1.163-1.257-2.287-2.679-1.845-4.503 0.222-0.914 0.783-1.77 1.494-2.383-0.547 1.437 1.007 2.854 2.030 3.559 1.776 1.225 3.723 2.15 5.356 3.585 1.717 1.508 2.985 3.548 2.729 5.913-0.278 2.564-2.315 4.347-4.6 5.248 4.829-1.066 9.819-4.814 9.921-10.17 0.084-4.406-2.938-7.797-6.682-9.738z"></path>
</svg>
