<!-- Generated by IcoMoon.io -->
<svg version="1.1" xmlns="http://www.w3.org/2000/svg" width="36" height="32" viewBox="0 0 36 32">
<title>connectdevelop</title>
<path d="M34.406 15.063l-3.131-5.424c0.067-0.134 0.117-0.285 0.117-0.452 0-0.502-0.419-0.921-0.921-0.938l-3.465-5.993c0.034-0.1 0.067-0.201 0.067-0.301 0-0.536-0.435-0.954-0.954-0.954-0.301 0-0.552 0.134-0.737 0.352h-6.663c-0.167-0.218-0.419-0.351-0.72-0.351s-0.552 0.134-0.72 0.352h-6.629c-0.184-0.218-0.435-0.352-0.737-0.352-0.519 0-0.954 0.419-0.954 0.954 0 0.1 0.034 0.218 0.067 0.301l-3.499 6.077c-0.335 0.151-0.569 0.469-0.569 0.854 0 0.033 0.017 0.067 0.017 0.1l-3.332 5.759c-0.452 0.084-0.787 0.469-0.787 0.938 0 0.452 0.318 0.837 0.753 0.938l3.449 5.96c-0.034 0.1-0.050 0.184-0.050 0.301 0 0.452 0.318 0.837 0.753 0.921l3.231 5.608c-0.034 0.1-0.067 0.218-0.067 0.335 0 0.536 0.435 0.954 0.954 0.954 0.301 0 0.552-0.134 0.72-0.335h6.68c0.167 0.201 0.435 0.335 0.72 0.335s0.552-0.134 0.72-0.335h6.696c0.167 0.184 0.419 0.301 0.686 0.301 0.536 0 0.954-0.435 0.954-0.954 0-0.1-0.017-0.184-0.050-0.268l3.231-5.642c0.435-0.084 0.753-0.469 0.753-0.921 0-0.1-0.017-0.201-0.050-0.301l3.432-5.96c0.435-0.084 0.77-0.469 0.77-0.938-0-0.452-0.318-0.837-0.737-0.921zM9.596 28.171l-2.729-4.738h2.729v4.738zM9.596 22.931h-2.729c-0.017-0.067-0.050-0.134-0.084-0.201l2.812-2.963v3.164zM9.596 19.030l-3.147 3.332c-0.084-0.034-0.167-0.084-0.251-0.1l-3.482-6.027c0.033-0.084 0.033-0.167 0.033-0.251s0-0.151-0.017-0.218l3.248-5.625c0.167-0.017 0.335-0.067 0.486-0.167l3.131 3.248v5.809zM9.596 12.635l-2.863-2.963c0.084-0.134 0.134-0.301 0.134-0.485 0-0.017-0.017-0.050-0.017-0.067l2.745-0.988v4.503zM9.596 7.596l-2.729 0.988 2.729-4.721v3.733zM30.003 10.040l0.050 0.084-2.21 10.446-3.984-4.202 6.127-6.345 0.017 0.017zM18.234 22.194l0.72 0.737h-1.423l0.703-0.737zM18.218 21.491l-5.206-5.34 4.972-5.273 5.19 5.474-4.955 5.14zM18.552 21.859l4.955-5.139 4.219 4.453-0.368 1.758h-7.751l-1.055-1.071zM25.651 2.775c0.067 0.034 0.134 0.067 0.218 0.084l3.616 6.295v0.034c0 0.184 0.050 0.351 0.134 0.485l-6.094 6.328-5.19-5.474 7.316-7.751zM25.081 2.641l-7.098 7.517-3.566-3.767 10.396-3.75h0.268zM17.364 2.641c0.167 0.167 0.385 0.268 0.636 0.268s0.469-0.1 0.636-0.268h4.688l-9.275 3.348-3.181-3.348h6.495zM10.098 2.992l0.067-0.134c0.072-0.018 0.127-0.035 0.182-0.055l-0.015 0.005 3.198 3.365-3.432 1.239v-4.42zM10.098 7.948l3.8-1.373 3.733 3.951-4.972 5.257-2.561-2.628v-5.207zM10.098 13.74l2.277 2.36-2.277 2.394v-4.755zM10.098 19.231l2.628-2.779 5.173 5.374-1.071 1.105h-6.73v-3.7zM10.534 29.359c-0.1-0.1-0.218-0.167-0.368-0.218l-0.067-0.1v-5.608h6.244l-5.725 5.926h-0.084zM18.653 29.359c-0.167-0.151-0.402-0.268-0.653-0.268s-0.485 0.117-0.653 0.268h-6.027l5.725-5.926h2.394l5.725 5.926h-6.512zM26.153 28.623l-0.268 0.469c-0.084 0.017-0.151 0.050-0.218 0.084l-5.575-5.742h7.148l-1.088 5.19zM26.956 27.233l0.804-3.8h1.373l-2.176 3.8zM29.133 22.931h-1.272l0.285-1.323 1.071 1.138c-0.033 0.050-0.067 0.117-0.084 0.184zM33.268 16.218l-3.465 6.044c-0.084 0.033-0.167 0.067-0.251 0.117l-1.289-1.373 2.16-10.245 2.863 4.955c-0.017 0.084-0.050 0.167-0.050 0.268 0 0.084 0.017 0.151 0.033 0.234z"></path>
</svg>
