<!-- Generated by IcoMoon.io -->
<svg version="1.1" xmlns="http://www.w3.org/2000/svg" width="32" height="32" viewBox="0 0 32 32">
<title>cotton-bureau</title>
<path d="M29.644 20.651c-1.479 5.741-5.889 9.037-12.619 9.272v-3.072c0-3 1.651-4.649 4.649-4.649 3.875 0 6.2-2.325 6.2-6.201 0-3.836-2.283-6.143-6.086-6.191-2.063-4.332-9.156-4.041-11.078 0-3.804 0.049-6.086 2.356-6.086 6.191 0 3.883 2.329 6.213 6.213 6.213 3 0 4.659 1.639 4.659 4.649v3.075c-8.402-0.313-13.194-5.317-13.194-13.938 0-8.864 5.084-13.95 13.95-13.95 7.173 0 11.865 3.325 13.418 9.301h1.579c-1.633-6.881-6.986-10.851-15.011-10.851-9.676 0-15.489 5.824-15.489 15.489 0 9.707 5.824 15.532 15.489 15.511 8.017 0 13.367-3.988 14.979-10.849zM22.313 11.396c2.586 0.216 4.012 1.813 4.012 4.604 0 3-1.652 4.651-4.65 4.651-1.788 0-3.083-0.599-3.849-1.708 5.191-1.034 4.724-6.229 4.487-7.547zM17.207 17.481c-0.154-0.646-1.021-5.438 3.514-6.063 0.142 0.631 1.032 5.444-3.516 6.063zM16.25 8.25c1.788 0 3.063 0.604 3.84 1.726-1.773 0.342-3.085 1.287-3.849 2.716-0.764-1.429-2.077-2.375-3.85-2.716 0.776-1.106 2.079-1.709 3.848-1.709zM11.78 11.42c4.573 0.661 3.682 5.426 3.531 6.063-4.526-0.615-3.688-5.434-3.516-6.063zM10.825 20.651c-3 0-4.65-1.65-4.65-4.651 0-2.773 1.429-4.375 4.014-4.604-0.422 2.325-0.086 6.658 4.478 7.547-0.759 1.102-2.053 1.706-3.821 1.706zM14.151 21.425c0.898-0.482 1.616-1.199 2.086-2.070l0.013-0.027c0.486 0.906 1.208 1.596 2.114 2.097-0.901 0.485-1.62 1.209-2.086 2.087l-0.013 0.027c-0.5-0.906-1.192-1.639-2.098-2.114z"></path>
</svg>
