<!-- Generated by IcoMoon.io -->
<svg version="1.1" xmlns="http://www.w3.org/2000/svg" width="40" height="32" viewBox="0 0 40 32">
<title>cpanel</title>
<path d="M13.144 13.762c-0.35-1.55-1.681-2.575-3.188-2.575h-2.313c-0.444 0-0.781 0.281-0.894 0.681l-2.181 8.131 1.544-0.006c0.425 0 0.769-0.281 0.888-0.669l1.613-5.981h1.238c0.525 0 1.012 0.35 1.144 0.925 0.156 0.681-0.369 1.412-1.144 1.412h-0.644c-0.438 0-0.781 0.287-0.894 0.675l-0.4 1.488h2c2.325 0 3.644-2.262 3.231-4.081zM3.362 15.512h1.163c0.431 0 0.775-0.275 0.894-0.681l0.388-1.475h-2.5c-1.431 0-2.744 0.881-3.2 2.569-0.544 2.112 1.050 4.075 3.144 4.075h0.775l0.444-1.631c0.075-0.275-0.138-0.519-0.4-0.519h-0.706c-1.544 0-1.556-2.338 0-2.338zM18.831 13.338h-4.869l-0.219 0.838c-0.15 0.6 0.281 1.156 0.887 1.156h3.594c0.25 0 0.15 0.269 0.131 0.331l-0.538 1.988c-0.025 0.087-0.056 0.331-0.344 0.331h-2.181c-0.331 0-0.331-0.494 0-0.494h1.35c0.425 0 0.769-0.288 0.887-0.675l0.219-0.825h-3.025c-2.45 0-2.725 3.988-0.044 3.988l3.594 0.012c0.7 0 1.288-0.45 1.462-1.113l0.875-3.238c0.3-1.2-0.606-2.3-1.781-2.3zM39.569 11.188h-1.181c-0.306 0-0.575 0.2-0.65 0.494l-2.225 8.319c1.294 0 2.487-0.863 2.806-2.156l1.656-6.137c0.075-0.269-0.125-0.519-0.406-0.519zM24.8 13.356v0.006h-3.019l-1.637 6.125c-0.075 0.275 0.137 0.519 0.4 0.519h1.181c0.3 0 0.575-0.188 0.65-0.488l1.075-4h1.238c0.781 0 1.337 0.738 1.131 1.462l-0.663 2.5c-0.075 0.269 0.119 0.519 0.4 0.519h1.194c0.288 0 0.569-0.181 0.644-0.488l0.55-2.069c0.563-2.069-0.994-4.088-3.144-4.088zM30.944 18.019c-0.225 0-0.375-0.212-0.319-0.419l0.5-1.875c0.056-0.244 0.231-0.375 0.488-0.375h2.056c0.163 0 0.288 0.15 0.244 0.319l-0.044 0.162c-0.038 0.125-0.119 0.188-0.244 0.188h-1.35c-0.438 0-0.788 0.288-0.887 0.675l-0.219 0.813h3.338c0.656 0 1.269-0.413 1.45-1.1l0.2-0.75c0.306-1.194-0.581-2.3-1.769-2.3h-2.956c-1.119 0-2.113 0.75-2.413 1.85l-0.675 2.5c-0.313 1.106 0.519 2.294 1.769 2.294h4.169c0.425 0 0.769-0.281 0.888-0.669l0.356-1.313z"></path>
</svg>
