<!-- Generated by IcoMoon.io -->
<svg version="1.1" xmlns="http://www.w3.org/2000/svg" width="36" height="32" viewBox="0 0 36 32">
<title>d-and-d</title>
<path d="M5.156 6.181c-0.037-1.075 0.125-2.112 0.794-3.013 0.019 0.462 0.075 0.906 0.263 1.35 0.369-1.719 1.231-3.081 2.644-4.094-0.119 0.369-0.219 0.738-0.188 1.106 0.544-0.463 1.175-1.113 2.775-1.419 0.919-0.175 1.856-0.125 2.631 0.063 2.406 0.581 3.813 2.144 4.356 4.519 0.331 1.444 0.044 2.813-0.519 4.15-0.325 0.775-0.75 1.525-1.294 2.194-0.125-0.119-0.244-0.238-0.363-0.35-2.675-2.55-1.675-1.575-2.338-2.338-0.069-0.075-0.063-0.137-0.006-0.225 0.519-0.844 0.738-1.763 0.625-2.75-0.069-0.612-0.269-1.181-0.706-1.638-0.906-0.956-2.45-0.938-3.344 0.038-0.713 0.781-0.881 1.712-0.681 2.725 0.012 0.081 0.025 0.169 0 0.244-0.213 0.856-0.287 1.725-0.156 2.6 0.006 0.031 0.006 0.069 0.006 0.1 0 0.019-0.006 0.031-0.012 0.069-1.363-0.688-2.25-1.769-2.7-3.263-0.519 1.112-0.694 2.219-0.412 3.381-0.975-0.95-1.331-2.144-1.375-3.45zM34.506 13.881c-0.725-0.725-1.563-1.275-2.506-1.662-0.8-0.325-1.625-0.494-2.494-0.444-0.625 0.037-1.225 0.194-1.813 0.4-0.156 0.056-0.319 0.1-0.481 0.137-0.306 0.075-0.456-0.194-0.294-0.425 0.2-0.287 0.212-0.262 0.938-0.75 0.038-0.025 0.075-0.050 0.137-0.094h-0.156c-0.038 0-0.075 0.012-0.119 0.019-1.206 0.206-1.919 0.969-3.056 1.85-0.65 0.506-0.863 0.238-0.75-0.031 0.087-0.219 0.206-0.419 0.319-0.625 0.063-0.113 0.144-0.213 0.219-0.319-0.012-0.012-0.031-0.019-0.044-0.031-1.688 1.144-2.919 2.65-3.606 4.581 0.019 0.019 0.044 0.038 0.063 0.056 0.019-0.038 0.031-0.075 0.056-0.106 0.65-0.756 1.425-1.363 2.288-1.863 1.137-0.662 2.344-1.144 3.669-1.262 0.269-0.025 0.544-0.006 0.819-0.006-0.113 0.044-0.219 0.056-0.331 0.069-1.156 0.15-2.219 0.563-3.219 1.156-1.887 1.119-3.406 2.637-4.694 4.4-0.019 0.025-0.025 0.056-0.044 0.081 0.906 0.331 1.5 1.081 2.256 1.6 0.012-0.006 0.019-0.012 0.025-0.025l0.075-0.169c0.762-1.681 1.688-3.269 2.919-4.656 1.044-1.175 2.375-1.581 3.906-1.25 0.369 0.081 0.712 0.275 1.075 0.425 0.144-0.088 0.319-0.2 0.5-0.294 0.525-0.269 1.087-0.438 1.669-0.563 0.919-0.194 1.844-0.306 2.781-0.081v-0.031c-0.031-0.025-0.075-0.050-0.106-0.088zM19.794 24.85c-2.462-2.063-1.425-1.219-2.669-2.225-0.050 0.056 0-0.012-0.119 0.188-0.7 1.194-1.594 2.206-2.75 2.975-0.644 0.425-1.344 0.738-2.131 0.738-1.35 0-2.388-0.594-3.088-1.738-0.75-1.219-0.831-2.544-0.512-3.913 0.488-2.113 1.881-3.45 2.412-4.019-1.169-0.387-2.063 0.106-2.9 0.869 0.050-0.869 0.269-1.637 0.738-2.331-1.519 0.663-2.869 1.563-4.050 2.744-0.019-0.363 0.338-2.731 0.35-2.794 0.019-0.169-0.037-0.331-0.188-0.463-1.513 1.544-2.781 3.237-3.506 5.287 0.462-0.369 0.931-0.712 1.475-1.012-0.519 1.394-1.225 3.3-0.487 6.319 0.288 1.188 0.744 2.3 1.506 3.269 0.181 0.231 0.394 0.431 0.594 0.644 0.013-0.012 0.025-0.019 0.037-0.031-0.088-0.438-0.138-0.881-0.094-1.369 0.138 0.2 0.244 0.375 0.369 0.538 0.787 1 1.794 1.712 2.95 2.225 1.563 0.706 3.194 0.831 4.869 0.538 3.431-0.606 5.669-3.038 7.25-6.175 0.063-0.113 0.038-0.181-0.056-0.262zM30.544 21.95c-0.594-0.194-1.387-0.262-1.794-0.181 0.619 0.25 0.881 0.413 1.175 0.75 0.788 0.9 0.65 2.169-0.337 2.85-0.731 0.506-1.556 0.656-2.431 0.569-0.075-0.006-0.144-0.025-0.188-0.038 0.175-0.231 0.375-0.438 0.506-0.675 0.587-1.050 0.337-2.631-0.544-3.506-0.131-0.131-0.288-0.244-0.438-0.369-0.019 0.081-0.006 0.131 0.006 0.175 0.262 1.038-0.506 2.025-1.55 1.988-0.475-0.019-0.869-0.238-1.225-0.531-1.219-1.006-2.444-2.006-3.656-3.019-0.369-0.306-0.781-0.506-1.256-0.544-0.288-0.025-0.581-0.038-0.869-0.056-0.369-0.025-0.55-0.175-0.65-0.525-0.056-0.212-0.094-0.425-0.137-0.637-0.094-0.506-0.387-0.813-0.894-0.887-0.275-0.044-0.556-0.063-0.831-0.094-0.813-0.087-1.238-0.462-1.412-1.269-0.313 0.688-0.1 1.4 0.456 1.869 0.281 0.238 0.581 0.456 0.863 0.7 0.287 0.238 0.463 0.544 0.494 0.925 0.025 0.294 0.050 0.594 0.113 0.881 0.137 0.663 0.556 1.15 1.063 1.569 1.031 0.856 2.063 1.706 3.094 2.569 1.119 0.938 0.869 2.050 0.813 3.5-0.056 1.431 0.762 2.681 2.094 3.2 0.063 0.025 0.125 0.038 0.225 0.069-0.981-1.137-0.631-2.756 0.044-3.269 0.019 0.137 0.025 0.269 0.056 0.4 0.587 2.756 2.837 4.012 5.313 3.556 1-0.181 1.913-0.556 2.681-1.238 0.125-0.113 0.231-0.256 0.369-0.406-1.206 0.288-2.238 0.006-3.181-0.663 0.044-0.019 0.081-0.019 0.119-0.019 1.331 0.113 2.538-0.212 3.563-1.087 1.219-1.038 1.663-2.681 1.087-4.125-0.519-1.256-1.475-2.019-2.738-2.431zM6.213 11.206c-0.331-0.575-0.825-0.975-1.381-1.331 0.856-0.031 1.662 0.012 2.475 0.231-0.438-0.762-0.531-1.544-0.313-2.419 0.331 0.744 0.856 1.256 1.475 1.675 1.231 0.825 2.231 1.225 2.919 1.887 0.213 0.206 0.394 0.444 0.6 0.681-0.050-0.131-0.088-0.256-0.137-0.375-0.313-0.662-0.813-1.162-1.412-1.563-0.113-0.075-0.175-0.156-0.213-0.281-0.206-0.781-0.188-1.569-0.044-2.35 0.063-0.344 0.175-0.681 0.281-1.019 0.050-0.15 0.144-0.287 0.25-0.412 0.037 0.431 0 1.594 1.225 2.875 0.675 0.706 1.4 1.369 2.119 2.044 0.563 0.531 1.144 1.044 1.594 1.675 0.069 0.1 0.137 0.206 0.238 0.294-0.313-0.813-0.887-1.506-1.512-2.113-0.6-0.581-1.213-1.15-1.825-1.713-0.206-0.188-0.287-0.419-0.319-0.681-0.075-0.65 0-1.287 0.269-1.888 0.031-0.063 0.069-0.125 0.119-0.206 0.031 0.263 0.037 0.494 0.088 0.725 0.3 1.444 1.275 2.269 3.081 3.969 0.625 0.588 1.206 1.2 1.6 1.975 0.3 0.581 0.456 1.188 0.356 1.85-0.006 0.037 0.031 0.106 0.069 0.125 0.387 0.162 0.625 0.431 0.606 0.894 0.481-0.162 0.781-0.5 1.025-0.906 0.262 1.263-0.569 3.144-1.7 3.669 0.025-0.281 0.313-1.462-1.031-1.731-0.425-0.081-0.8-0.081-1.431-0.131 0.294-0.563 0.65-1.287 0.031-1.4-1.556-0.287-3.3 0.119-3.612 0.287 0.512 0.025 1.019 0.063 1.469 0.206-0.125 0.406-0.25 0.794-0.363 1.181-0.119 0.406 0.131 0.913 0.581 0.6 0.075-0.056 0.144-0.119 0.206-0.169-0.194 1.119-0.181 0.994-0.175 1.144 0.019 0.637 0.594 0.488 0.981 0.456-0.156 0.738-1.844 1.706-2.838 1.613 0.438-0.294 0.794-0.644 0.994-1.119-0.406 0.050-0.806 0.1-1.2 0.15l-0.019-0.056c0.294-0.212 0.5-0.488 0.637-0.819 0.544-1.319-0.225-2.375-1.563-2.494-0.569-0.050-1.113 0.050-1.619 0.344 0.387-0.975 1.075-1.662 2.037-2.156-0.95-0.269-0.556-0.169-1.537-0.394 0.912-0.581 1.887-0.825 2.906-0.912-0.325-0.2-3.006-0.225-4.388 1.306 0.494 0.088 0.969 0.175 1.45 0.262-1.487 0.438-2.75 1.231-3.9 2.225 0.069-0.3 0.169-0.594 0.206-0.894 0.037-0.281 0.050-0.575 0.006-0.85-0.094-0.588-0.556-0.944-1.231-1.019-0.494-0.056-0.975 0.006-1.456 0.081-0.056 0.006-0.106 0.019-0.181 0 0.988-0.925 2.25-1.356 3.319-2.094 0.375-0.281 0.425-0.512 0.188-0.931zM14.238 12.881c0.206 1 0.787 1.594 1.488 1.519-0.287-0.706-0.756-1.219-1.488-1.519z"></path>
</svg>
