<!-- Generated by IcoMoon.io -->
<svg version="1.1" xmlns="http://www.w3.org/2000/svg" width="32" height="32" viewBox="0 0 32 32">
<title>diaspora</title>
<path d="M15.727 22.159c-0.088 0-5.5 7.494-5.544 7.494s-5.412-3.778-5.434-3.825 5.412-7.856 5.412-7.963c0-0.137-8.1-2.75-8.6-2.944-0.081-0.031 1.962-6.362 1.981-6.381 0.038-0.044 9.025 2.938 9.094 2.938 0.025 0 0.056-0.037 0.063-0.081 0.025-0.125 0.063-9.287 0.106-9.35 0.050-0.075 6.531-0.044 6.569-0.019 0.094 0.063 0.219 9.756 0.381 9.756 0.087 0 8.669-2.938 8.706-2.894 0.050 0.056 1.994 6.387 1.969 6.412-0.056 0.056-8.762 2.944-8.787 3.050-0.019 0.087 5.175 7.631 5.156 7.681s-5.344 3.969-5.394 3.969c-0.063-0.012-5.563-7.844-5.681-7.844z"></path>
</svg>
