<!-- Generated by IcoMoon.io -->
<svg version="1.1" xmlns="http://www.w3.org/2000/svg" width="28" height="32" viewBox="0 0 28 32">
<title>discord</title>
<path d="M18.576 15.2c0 0.976-0.72 1.776-1.632 1.776-0.896 0-1.632-0.8-1.632-1.776s0.72-1.776 1.632-1.776c0.912 0 1.632 0.8 1.632 1.776zM11.104 13.424c-0.912 0-1.632 0.8-1.632 1.776s0.736 1.776 1.632 1.776c0.912 0 1.632-0.8 1.632-1.776 0.016-0.976-0.72-1.776-1.632-1.776zM28 3.296v28.704c-4.031-3.562-2.742-2.383-7.424-6.736l0.848 2.96h-18.144c-1.808 0-3.28-1.472-3.28-3.296v-21.632c0-1.824 1.472-3.296 3.28-3.296h21.44c1.808 0 3.28 1.472 3.28 3.296zM23.44 18.464c0-5.152-2.304-9.328-2.304-9.328-2.304-1.728-4.496-1.68-4.496-1.68l-0.224 0.256c2.72 0.832 3.984 2.032 3.984 2.032-3.801-2.083-8.265-2.083-11.952-0.464-0.592 0.272-0.944 0.464-0.944 0.464s1.328-1.264 4.208-2.096l-0.16-0.192s-2.192-0.048-4.496 1.68c0 0-2.304 4.176-2.304 9.328 0 0 1.344 2.32 4.88 2.432 0 0 0.592-0.72 1.072-1.328-2.032-0.608-2.8-1.888-2.8-1.888 0.235 0.165 0.624 0.378 0.656 0.4 2.701 1.512 6.537 2.008 9.984 0.56 0.56-0.208 1.184-0.512 1.84-0.944 0 0-0.8 1.312-2.896 1.904 0.48 0.608 1.056 1.296 1.056 1.296 3.536-0.112 4.896-2.432 4.896-2.432z"></path>
</svg>
