<!-- Generated by IcoMoon.io -->
<svg version="1.1" xmlns="http://www.w3.org/2000/svg" width="32" height="32" viewBox="0 0 32 32">
<title>dojo</title>
<path d="M8.094 8.698c0 0.030 0 1.933 0 4.241v4.194l-0.19 0.387c-0.262 0.517-0.898 1.154-1.446 1.44-0.619 0.321-1.041 0.428-1.695 0.428-0.993 0-1.725-0.309-2.445-1.029-0.898-0.904-1.255-2.124-0.976-3.331 0.155-0.66 0.422-1.118 0.952-1.648 0.779-0.785 1.529-1.071 2.647-1.017 0.732 0.036 1.184 0.173 1.731 0.523 0.202 0.131 0.369 0.232 0.381 0.22 0.006-0.012 0.042-0.262 0.083-0.553 0.042-0.297 0.089-0.589 0.107-0.66 0.024-0.101-0.048-0.155-0.44-0.339-0.69-0.321-1.172-0.422-2.040-0.422-0.922 0-1.368 0.101-2.177 0.5-1.237 0.601-2.124 1.731-2.486 3.159-0.143 0.577-0.131 1.743 0.030 2.314 0.428 1.558 1.559 2.736 3.147 3.284 0.541 0.184 0.607 0.19 1.457 0.196 0.773 0 0.952-0.018 1.338-0.143 0.589-0.178 1.071-0.422 1.564-0.785 0.22-0.161 0.404-0.292 0.416-0.292 0.006 0 0.012 0.22 0.012 0.488v0.494l1.517 0.036v-11.725h-0.744c-0.41 0-0.744 0.018-0.744 0.042z"></path>
<path d="M20.349 9.876v0.922h1.19v-1.844h-1.19v0.922z"></path>
<path d="M12.984 9.364c-0.048 0.030-0.071 0.131-0.059 0.25l0.018 0.202 2.005 0.018 2.011 0.012 0.036-0.143c0.018-0.077 0.024-0.196 0.012-0.256-0.018-0.101-0.137-0.107-1.981-0.119-1.083-0.012-1.999 0.006-2.040 0.036z"></path>
<path d="M25.238 9.382c-0.077 0.077-0.089 0.22-0.036 0.369 0.030 0.083 0.268 0.095 2.023 0.095h1.987l0.065-0.143c0.048-0.101 0.048-0.172 0-0.268-0.071-0.125-0.089-0.125-2.017-0.125-1.439 0-1.969 0.018-2.022 0.071z"></path>
<path d="M14.073 11.179c-0.916 0.178-1.737 0.583-2.344 1.148-0.708 0.648-1.118 1.332-1.404 2.302-0.125 0.434-0.149 0.648-0.149 1.249 0 0.904 0.095 1.315 0.482 2.112 0.262 0.541 0.375 0.69 0.845 1.166 0.637 0.637 1.13 0.952 1.945 1.231 0.541 0.184 0.601 0.19 1.487 0.196 0.892 0 0.94-0.006 1.487-0.196 2.017-0.702 3.272-2.421 3.284-4.503 0.006-0.845-0.119-1.374-0.5-2.171-0.268-0.553-0.363-0.684-0.874-1.19-0.464-0.464-0.672-0.625-1.118-0.851-0.303-0.155-0.762-0.339-1.011-0.405-0.601-0.155-1.582-0.196-2.13-0.089zM16.119 12.523c0.851 0.303 1.624 0.999 2.028 1.826 0.958 1.969-0.119 4.289-2.29 4.931-0.482 0.143-1.368 0.143-1.838 0-1.237-0.369-2.207-1.398-2.498-2.653-0.428-1.82 0.69-3.676 2.528-4.194 0.476-0.131 1.571-0.083 2.070 0.089z"></path>
<path d="M26.327 11.179c-1.826 0.363-3.129 1.529-3.682 3.296-0.137 0.446-0.155 0.589-0.155 1.428 0 0.976 0.053 1.255 0.345 1.927 0.529 1.208 1.648 2.171 3.016 2.606 0.631 0.202 1.737 0.232 2.421 0.065 2.796-0.666 4.384-3.504 3.468-6.198-0.506-1.481-1.695-2.594-3.242-3.028-0.577-0.161-1.6-0.208-2.171-0.095zM28.076 12.434c0.928 0.22 1.868 0.964 2.29 1.814 0.292 0.595 0.393 0.999 0.393 1.606 0 0.91-0.297 1.689-0.898 2.344-0.452 0.488-0.904 0.785-1.541 1.011-0.428 0.149-0.595 0.172-1.1 0.178-1.005 0-1.731-0.297-2.439-1.005-0.452-0.446-0.773-0.993-0.958-1.606-0.161-0.529-0.143-1.481 0.030-1.993 0.398-1.142 1.285-2.005 2.415-2.326 0.452-0.131 1.303-0.143 1.808-0.024z"></path>
<path d="M20.932 11.381l-0.583 0.018v4.325c0 4.753 0.006 4.646-0.363 5.378-0.107 0.208-0.357 0.547-0.565 0.767-0.208 0.214-0.381 0.41-0.381 0.434 0 0.071 0.714 1.047 0.761 1.041 0.131-0.006 1.053-1.309 1.344-1.892 0.416-0.833 0.393-0.506 0.381-5.538l-0.018-4.551-0.577 0.018z"></path>
</svg>
