<!-- Generated by IcoMoon.io -->
<svg version="1.1" xmlns="http://www.w3.org/2000/svg" width="30" height="32" viewBox="0 0 30 32">
<title>draft2digital</title>
<path d="M30 24.881l-9-5.137v4.044h-5.706c1.925-2.188 5.113-5.994 6.988-9.331 2.2-3.912 1.006-7.713-0.8-9.581-0.275-0.287-3.887-3.931-10.375-2.575-3.694 0.775-5.588 2.712-6.519 4.206-0.819 1.306-1.063 2.487-1.138 2.981-0.344 2.063 1.213 4.194 3.544 4.194 1.981 0 3.581-1.606 3.581-3.588 0-1.694-1.231-3.256-3-3.55 0.112-0.456 1.106-1.319 1.644-1.544 2.569-1.081 4.875 0.325 5.206 2.094 0.519 2.769-2.319 5.65-4.356 7.975-4.787 5.438-8.925 9.731-10.069 10.925l21-0.006v4.012zM23.119 23.188l2.944 1.7-2.944 1.7zM8.387 10.088c0 0.775-0.625 1.4-1.4 1.4s-1.4-0.625-1.4-1.4 0.625-1.4 1.4-1.4 1.4 0.631 1.4 1.4zM5.156 23.781c1.6-1.712 6.106-6.544 9.425-10.619 2.194-2.694 2.519-5.15 1.775-7.044-0.463-1.175-1.094-1.888-1.519-2.231 2.831 0.131 4.25 1.463 5.137 2.394 0 0 2.65 3.013 0.363 7.081-2.313 4.119-6.931 9.219-8.031 10.419z"></path>
</svg>
