<!-- Generated by IcoMoon.io -->
<svg version="1.1" xmlns="http://www.w3.org/2000/svg" width="28" height="32" viewBox="0 0 28 32">
<title>drupal</title>
<path d="M20.835 5.887c-1.589-1.002-3.113-1.396-4.631-2.398-0.93-0.63-2.24-2.147-3.328-3.457-0.193 2.097-0.823 2.949-1.575 3.543-1.524 1.217-2.491 1.589-3.829 2.312-1.131 0.594-7.215 4.781-7.215 12.582 0 7.816 6.57 13.563 13.871 13.563 7.279 0 13.613-5.296 13.613-13.312 0-8.038-5.941-12.239-6.907-12.833zM21.014 29.191c-1.439 1.439-6.449 2.054-8.352 0.301-0.344-0.344 0.021-0.859 0.465-0.859 0 0 1.217 0.952 3.686 0.952 1.932 0 3.292-0.551 3.901-1.002 0.437-0.329 0.601 0.308 0.301 0.608zM17.113 25.426c0.623-0.258 2.076-0.272 2.634 0.093 0.293 0.2 1.152 1.346 0.444 1.696-0.601 0.301-0.086-1.124-1.897-1.124-1.052 0-1.396 0.372-1.911 0.787-0.501 0.429-0.701 0.573-0.873 0.336-0.429-0.587 1.138-1.596 1.603-1.789zM23.734 26.664c-1.088-0.072-3.257-3.493-4.652-3.543-2.212-0.064-7.451 5.776-11.545 3.006-2.777-1.904-1.045-7.501 3.707-7.529 3.543-0.036 5.998 3.507 7.766 3.471 1.524-0.021 4.423-2.992 5.855-2.992 3.486 0 1.668 7.823-1.131 7.587z"></path>
</svg>
