<!-- Generated by IcoMoon.io -->
<svg version="1.1" xmlns="http://www.w3.org/2000/svg" width="31" height="32" viewBox="0 0 31 32">
<title>ello</title>
<path d="M15.5 0.5c-8.561 0-15.5 6.939-15.5 15.5s6.939 15.5 15.5 15.5 15.5-6.939 15.5-15.5-6.939-15.5-15.5-15.5zM24.49 18.325c-1.033 4.082-4.753 6.975-8.99 6.975s-7.957-2.893-8.99-6.975c-0.103-0.465 0.155-0.982 0.62-1.085s0.982 0.155 1.085 0.62c0.878 3.307 3.875 5.632 7.285 5.632s6.407-2.325 7.285-5.632c0.103-0.465 0.62-0.775 1.085-0.62 0.465 0.103 0.775 0.62 0.62 1.085z"></path>
</svg>
