<!-- Generated by IcoMoon.io -->
<svg version="1.1" xmlns="http://www.w3.org/2000/svg" width="31" height="32" viewBox="0 0 31 32">
<title>empire</title>
<path d="M17.975 3.388c-0.675-0.138-1.381-0.206-2.094-0.225v-1.137c4.881 0.138 9.131 2.75 11.538 6.662l-0.988 0.569c-0.381-0.606-0.794-1.175-1.262-1.694l-1.125 0.969c-1.625-1.85-3.837-3.169-6.369-3.65l0.3-1.494zM3.337 20.15l1.438-0.481c-0.4-1.144-0.625-2.387-0.625-3.669s0.206-2.525 0.606-3.669l-1.419-0.481c0.225-0.675 0.519-1.331 0.85-1.938l-0.987-0.569c-1.075 1.969-1.694 4.25-1.694 6.656s0.625 4.688 1.694 6.663l0.987-0.569c-0.331-0.625-0.606-1.269-0.85-1.944zM13.319 27.125c-2.525-0.5-4.737-1.819-6.369-3.669l-1.125 0.988c-0.469-0.538-0.9-1.106-1.263-1.712l-1 0.587c2.406 3.894 6.675 6.519 11.556 6.663v-1.144c-0.706-0.019-1.419-0.106-2.094-0.225l0.294-1.488zM5.831 7.556l1.125 0.969c1.625-1.85 3.837-3.169 6.369-3.65l-0.294-1.487c0.675-0.138 1.381-0.206 2.094-0.225v-1.137c-4.881 0.138-9.131 2.75-11.537 6.662l0.987 0.569c0.375-0.606 0.787-1.181 1.256-1.7zM25.169 24.444l-1.125-0.988c-1.625 1.85-3.837 3.169-6.369 3.669l0.294 1.488c-0.675 0.119-1.381 0.206-2.094 0.225v1.144c4.881-0.137 9.15-2.769 11.556-6.663l-1.006-0.587c-0.356 0.606-0.788 1.175-1.256 1.712zM31 16c0 8.563-6.938 15.5-15.5 15.5s-15.5-6.938-15.5-15.5 6.938-15.5 15.5-15.5 15.5 6.938 15.5 15.5zM30.238 16c0-8.131-6.606-14.738-14.738-14.738s-14.738 6.606-14.738 14.738 6.606 14.738 14.738 14.738 14.738-6.606 14.738-14.738zM27.8 9.338l-0.988 0.569c0.331 0.606 0.625 1.262 0.85 1.938l-1.419 0.481c0.4 1.144 0.606 2.387 0.606 3.669s-0.225 2.525-0.625 3.669l1.438 0.481c-0.244 0.675-0.519 1.313-0.85 1.938l0.988 0.569c1.075-1.962 1.694-4.244 1.694-6.65s-0.619-4.688-1.694-6.662zM16.363 20.444c1.019-0.206 1.9-0.725 2.544-1.469l3.2 2.8c0.744-0.85 1.331-1.831 1.694-2.925l-4.012-1.381c0.156-0.469 0.244-0.95 0.244-1.469s-0.087-1.006-0.244-1.469l4.031-1.381c-0.381-1.088-0.969-2.075-1.712-2.925l-3.2 2.8c-0.637-0.744-1.525-1.281-2.544-1.488l0.831-4.15c-0.538-0.119-1.106-0.175-1.694-0.175s-1.156 0.050-1.694 0.175l0.831 4.15c-1.019 0.206-1.9 0.744-2.544 1.488l-3.2-2.8c-0.744 0.85-1.331 1.831-1.713 2.925l4.031 1.381c-0.156 0.469-0.244 0.95-0.244 1.469s0.088 1.006 0.244 1.469l-4.013 1.381c0.362 1.087 0.95 2.075 1.694 2.925l3.2-2.8c0.637 0.744 1.525 1.262 2.544 1.469l-0.831 4.169c0.537 0.106 1.106 0.175 1.694 0.175s1.156-0.069 1.694-0.175l-0.831-4.169z"></path>
</svg>
