<!-- Generated by IcoMoon.io -->
<svg version="1.1" xmlns="http://www.w3.org/2000/svg" width="24" height="32" viewBox="0 0 24 32">
<title>evernote</title>
<path d="M7.551 8.263c0.1 1.394-1.097 1.349-1.351 1.349-4.308 0-4.603-0.063-5.224 0.209-0.035 0.014-0.046 0-0.023-0.023l6.783-6.895c0.024-0.023 0.037-0.014 0.024 0.023-0.272 0.624-0.209 0.943-0.209 5.337zM12.489 27.513c-0.918-2.317 0.813-4.808 3.283-4.789 1.093 0 1.412 1.451 0.497 1.964-0.387 0.206-1.559 0.109-1.571 1.2-0.003 1.068 1.229 1.563 1.95 1.556 0 0 0 0 0.001 0 1.575 0 2.852-1.277 2.852-2.852 0-0 0-0 0-0.001v0-0.005c0-0.727-0.487-2.951-2.971-3.459-0.483-0.096-4.063-0.397-4.272-3.157-0.234 1.058-1.088 3.968-2.694 4.318-0.546 0.121-4.355 0.477-7.058-2.298 0 0-1.161-0.952-1.764-3.622-0.211-0.984-0.58-2.481-0.696-3.875 0-1.125 0.696-1.903 1.567-2.012 5.063 0 5.625 0.145 6.313-0.488 0.614-0.578 0.488-0.969 0.488-6.424 0.063-0.519 0.487-1.926 3.338-1.509 0.375 0.054 1.994 0.261 2.342 1.915l4.016 0.697c1.277 0.232 4.434 0.438 5.038 3.621 1.416 7.568 0.557 14.904 0.488 14.904-0.999 7.149-6.942 6.803-6.942 6.803-1.184-0.014-3.391-0.587-4.204-2.489zM17.547 14.711c-0.063 0.12-0.137 0.375 0.053 0.438 0.881 0.308 2.484 0.428 2.867 0.346 0.194-0.016 0.191-0.277 0.155-0.416-0.221-1.366-2.552-1.656-3.078-0.37z"></path>
</svg>
