<!-- Generated by IcoMoon.io -->
<svg version="1.1" xmlns="http://www.w3.org/2000/svg" width="31" height="32" viewBox="0 0 31 32">
<title>expeditedssl</title>
<path d="M15.5 2.712c-7.338 0-13.287 5.95-13.287 13.287s5.95 13.288 13.287 13.288 13.288-5.95 13.288-13.288-5.95-13.287-13.287-13.287zM9.412 11.019c0-3.356 2.731-6.088 6.088-6.088s6.087 2.731 6.087 6.088v1.662c0 0.313-0.244 0.556-0.556 0.556h-1.106c-0.313 0-0.556-0.244-0.556-0.556v-1.662c0-5.131-7.75-5.131-7.75 0v1.662c0 0.313-0.244 0.556-0.556 0.556h-1.106c-0.313 0-0.556-0.244-0.556-0.556v-1.662zM24.356 23.75c0 0.606-0.5 1.106-1.106 1.106h-15.5c-0.606 0-1.106-0.5-1.106-1.106v-8.856c0-0.606 0.5-1.106 1.106-1.106h15.5c0.606 0 1.106 0.5 1.106 1.106v8.856zM8.856 15.169v8.306c0 0.156-0.119 0.275-0.275 0.275h-0.556c-0.156 0-0.275-0.119-0.275-0.275v-8.306c0-0.156 0.119-0.275 0.275-0.275h0.556c0.156 0 0.275 0.119 0.275 0.275zM17.712 18.212c0 0.813-0.45 1.525-1.106 1.9v1.975c0 0.313-0.244 0.556-0.556 0.556h-1.106c-0.313 0-0.556-0.244-0.556-0.556v-1.975c-0.656-0.381-1.106-1.087-1.106-1.9 0-1.231 0.988-2.213 2.213-2.213s2.219 0.987 2.219 2.213zM15.5 0.5c-8.563 0-15.5 6.938-15.5 15.5s6.938 15.5 15.5 15.5 15.5-6.938 15.5-15.5-6.938-15.5-15.5-15.5zM15.5 30.394c-7.938 0-14.394-6.456-14.394-14.394s6.456-14.394 14.394-14.394 14.394 6.456 14.394 14.394-6.456 14.394-14.394 14.394z"></path>
</svg>
