<!-- Generated by IcoMoon.io -->
<svg version="1.1" xmlns="http://www.w3.org/2000/svg" width="28" height="32" viewBox="0 0 28 32">
<title>first-order</title>
<path d="M0.806 14.325c0.006-0.006 0.012-0.019 0.019-0.025 0 0.006 0 0.019-0.006 0.025h-0.012zM14 6.037c-0.444 0-0.912 0.037-1.338 0.106l0.231 4.212-1.375-4c-0.894 0.231-1.731 0.588-2.5 1.037l1.838 3.838-2.819-3.181c-0.713 0.556-1.356 1.194-1.912 1.931l3.162 2.838-3.819-1.856c-0.444 0.769-0.806 1.606-1.037 2.5l4.019 1.412-4.25-0.25c-0.056 0.444-0.088 0.912-0.088 1.375s0.037 0.913 0.088 1.356l4.231-0.25-4 1.413c0.231 0.894 0.588 1.731 1.037 2.519l3.819-1.856-3.181 2.819c0.556 0.731 1.194 1.394 1.931 1.931l2.806-3.181-1.844 3.837c0.769 0.462 1.606 0.819 2.5 1.056l1.394-4.037-0.25 4.25c0.444 0.069 0.912 0.106 1.356 0.106 0.463 0 0.912-0.038 1.356-0.106l-0.25-4.288 1.412 4.069c0.894-0.25 1.731-0.587 2.5-1.056l-1.837-3.831 2.806 3.181c0.731-0.556 1.375-1.194 1.913-1.931l-3.163-2.819 3.819 1.837c0.444-0.769 0.806-1.606 1.038-2.519l-4-1.394 4.212 0.25c0.069-0.444 0.087-0.894 0.087-1.356s-0.019-0.931-0.087-1.375l-4.231 0.25 4-1.394c-0.231-0.894-0.569-1.75-1.038-2.519l-3.806 1.856 3.163-2.838c-0.556-0.731-1.194-1.375-1.913-1.931l-2.819 3.181 1.837-3.819c-0.769-0.463-1.606-0.819-2.5-1.056l-1.394 4.019 0.25-4.231c-0.444-0.075-0.894-0.106-1.356-0.106zM27.712 8v16l-13.713 8-13.713-8v-16l13.713-8 13.713 8zM26.644 8.644l-12.644-7.338-12.644 7.338v14.694l12.644 7.356 12.644-7.356v-14.694zM14 2.319l11.731 6.838v13.681l-11.731 6.844-11.731-6.844v-13.675l11.731-6.844zM14 5.5c-5.769 0-10.431 4.694-10.431 10.5 0 5.788 4.662 10.481 10.431 10.481 5.75 0 10.431-4.694 10.431-10.481 0-5.806-4.681-10.5-10.431-10.5z"></path>
</svg>
