<!-- Generated by IcoMoon.io -->
<svg version="1.1" xmlns="http://www.w3.org/2000/svg" width="24" height="32" viewBox="0 0 24 32">
<title>fonticons-fi</title>
<path d="M7.15 14h5.775l-0.95 3.2h-4.775v9.863c0 0.5-0.175 0.575 0.275 0.625l3.725 0.35v2.15h-11.2v-2.2l1.825-0.175c0.45-0.050 0.575-0.2 0.575-0.675v-9.738c0-0.2-0.25-0.2-0.5-0.2h-1.9v-3.2h2.4v-1.8c0-4.25 2.275-6 6.625-6 2.925 0 5.55 0.7 5.55 4.525l-4.35 0.525c0.025-1.6-0.375-1.975-1.4-1.975-1.575 0-1.625 0.85-1.625 2.35v2c0 0.2-0.3 0.375-0.050 0.375zM24 30.188h-8.8v-2.15l1.75-0.225c0.45-0.050 0.65-0.15 0.65-0.625v-9.25c0-0.35-0.25-0.575-0.575-0.675l-2.075-0.55 0.575-2.525h6.875v13c0 0.5-0.225 0.55 0.25 0.625l1.35 0.225v2.15zM22.125 8.488l0.775 2.85-0.625 0.625-2.675-1.425-2.675 1.425-0.625-0.625 0.775-2.85-1.875-2.275 0.3-0.625h2.375l1.325-2.4h0.8l1.325 2.4h2.375l0.3 0.825-1.875 2.075z"></path>
</svg>
