<!-- Generated by IcoMoon.io -->
<svg version="1.1" xmlns="http://www.w3.org/2000/svg" width="28" height="32" viewBox="0 0 28 32">
<title>font-awesome</title>
<path d="M24.863 2h-21.725c-1.719 0-3.138 1.419-3.138 3.138v21.725c0 1.719 1.419 3.137 3.138 3.137h21.725c1.719 0 3.137-1.419 3.137-3.137v-21.725c0-1.719-1.419-3.138-3.137-3.138zM22.025 19.769c0 0.262-0.225 0.375-0.488 0.488-1.044 0.45-2.163 0.856-3.363 0.856-1.681 0-2.463-1.044-4.481-1.044-1.456 0-2.988 0.525-4.219 1.081-0.075 0.038-0.15 0.038-0.225 0.075v2.837c0 0.113 0 0.225-0.037 0.3v0.075c-0.15 0.525-0.637 0.894-1.194 0.894-0.706 0-1.269-0.563-1.269-1.269v-13.662c-0.487-0.375-0.819-0.969-0.819-1.644 0-1.156 0.931-2.094 2.094-2.094 1.156 0 2.094 0.931 2.094 2.094 0 0.675-0.3 1.269-0.819 1.644v1.156c0.113-0.037 0.225-0.075 0.338-0.15 1.156-0.488 2.537-0.894 3.844-0.894 1.419 0 2.538 0.375 3.806 0.856 0.262 0.113 0.525 0.15 0.819 0.15 1.419 0 2.988-1.006 3.363-1.006 0.3 0 0.563 0.225 0.563 0.488v8.769z"></path>
</svg>
