<!-- Generated by IcoMoon.io -->
<svg version="1.1" xmlns="http://www.w3.org/2000/svg" width="32" height="32" viewBox="0 0 32 32">
<title>gg-circle</title>
<path d="M16.063 0.5c-8.563 0-15.5 6.938-15.5 15.5s6.938 15.5 15.5 15.5 15.5-6.938 15.5-15.5-6.938-15.5-15.5-15.5zM12.969 23.925l-7.856-7.856 7.856-7.856 2.2 2.213-1.512 1.512-0.694-0.694-4.825 4.825 4.825 4.825 1.662-1.663-3.319-3.306 1.525-1.525 4.825 4.825-4.688 4.7zM19.156 23.788l-2.2-2.2 1.506-1.525 0.694 0.694 4.825-4.825-4.825-4.825-1.656 1.656 3.319 3.306-1.525 1.525-4.825-4.825 4.688-4.688 7.856 7.856-7.856 7.85z"></path>
</svg>
