<!-- Generated by IcoMoon.io -->
<svg version="1.1" xmlns="http://www.w3.org/2000/svg" width="32" height="32" viewBox="0 0 32 32">
<title>git-branch</title>
<path d="M22.857 4.571c-2.522 0-4.571 2.048-4.571 4.571 0 1.686 0.924 3.145 2.286 3.939v0.633c0 0 0 4.571-4.572 4.571-1.895 0-3.38 0.406-4.571 1.029v-10.805c1.363-0.794 2.286-2.252 2.286-3.939 0-2.523-2.048-4.571-4.571-4.571s-4.571 2.048-4.571 4.571c0 1.686 0.923 3.145 2.286 3.939v14.981c-1.363 0.792-2.286 2.25-2.286 3.938 0 2.522 2.048 4.571 4.571 4.571s4.571-2.049 4.571-4.571c0-1.197-0.471-2.277-1.223-3.094 0.665-0.817 1.747-1.478 3.509-1.478 9.072 0 9.143-9.143 9.143-9.143v-0.633c1.362-0.794 2.286-2.252 2.286-3.939 0-2.523-2.049-4.571-4.571-4.571zM9.143 2.286c1.265 0 2.286 1.021 2.286 2.286s-1.021 2.286-2.286 2.286c-1.265 0-2.286-1.021-2.286-2.286s1.021-2.286 2.286-2.286zM9.143 29.714c-1.265 0-2.286-1.022-2.286-2.286 0-1.261 1.021-2.286 2.286-2.286s2.286 1.025 2.286 2.286c0 1.263-1.021 2.286-2.286 2.286zM22.857 11.429c-1.263 0-2.286-1.021-2.286-2.286s1.022-2.286 2.286-2.286 2.286 1.021 2.286 2.286c0 1.265-1.022 2.286-2.286 2.286z"></path>
</svg>
