<!-- Generated by IcoMoon.io -->
<svg version="1.1" xmlns="http://www.w3.org/2000/svg" width="32" height="32" viewBox="0 0 32 32">
<title>git-compare</title>
<path d="M27.846 22.265v-12.394c0-5.938-5.923-5.923-5.923-5.923h-1.974v-3.949l-5.923 5.923 5.923 5.923v-3.949c0 0 0.823 0 1.974 0 1.741 0 1.974 1.974 1.974 1.974v12.394c-1.176 0.685-1.974 1.94-1.974 3.401 0 2.179 1.77 3.949 3.949 3.949s3.949-1.77 3.949-3.949c0-1.457-0.798-2.716-1.974-3.401zM25.872 27.641c-1.089 0-1.974-0.883-1.974-1.974 0-1.089 0.885-1.974 1.974-1.974 1.091 0 1.974 0.885 1.974 1.974 0 1.091-0.883 1.974-1.974 1.974zM4.154 9.736v12.393c0 5.938 5.923 5.923 5.923 5.923h1.974v3.949l5.923-5.923-5.923-5.923v3.949c0 0-0.823 0-1.974 0-1.741 0-1.974-1.974-1.974-1.974v-12.393c1.177-0.685 1.974-1.941 1.974-3.402 0-2.18-1.769-3.949-3.949-3.949s-3.949 1.769-3.949 3.949c0 1.459 0.797 2.717 1.974 3.402zM6.128 8.391c-1.089 0-1.974-0.882-1.974-1.974 0-1.089 0.885-1.974 1.974-1.974 1.092 0 1.974 0.885 1.974 1.974 0 1.092-0.882 1.974-1.974 1.974z"></path>
</svg>
