<!-- Generated by IcoMoon.io -->
<svg version="1.1" xmlns="http://www.w3.org/2000/svg" width="28" height="32" viewBox="0 0 28 32">
<title>github-p</title>
<path d="M25 2h-22c-1.656 0-3 1.344-3 3v22c0 1.656 1.344 3 3 3h22c1.656 0 3-1.344 3-3v-22c0-1.656-1.344-3-3-3zM17.331 25.981c-0.525 0.094-0.719-0.231-0.719-0.5 0-0.337 0.012-2.063 0.012-3.456 0-0.975-0.325-1.594-0.706-1.919 2.313-0.256 4.75-0.575 4.75-4.569 0-1.137-0.406-1.706-1.069-2.438 0.106-0.269 0.462-1.375-0.106-2.813-0.869-0.269-2.856 1.119-2.856 1.119-0.825-0.231-1.719-0.35-2.6-0.35s-1.775 0.119-2.6 0.35c0 0-1.988-1.387-2.856-1.119-0.569 1.431-0.219 2.537-0.106 2.813-0.662 0.731-0.975 1.3-0.975 2.438 0 3.975 2.331 4.313 4.644 4.569-0.3 0.269-0.569 0.731-0.662 1.394-0.594 0.269-2.112 0.731-3.019-0.869-0.569-0.988-1.594-1.069-1.594-1.069-1.013-0.012-0.069 0.637-0.069 0.637 0.675 0.313 1.15 1.512 1.15 1.512 0.606 1.856 3.506 1.231 3.506 1.231 0 0.869 0.012 2.281 0.012 2.538 0 0.269-0.188 0.594-0.719 0.5-4.125-1.381-7.013-5.306-7.013-9.894 0-5.738 4.388-10.094 10.125-10.094s10.387 4.356 10.387 10.094c0.006 4.587-2.794 8.519-6.919 9.894zM11.2 22.163c-0.119 0.025-0.231-0.025-0.244-0.106-0.012-0.094 0.069-0.175 0.188-0.2 0.119-0.012 0.231 0.038 0.244 0.119 0.019 0.081-0.063 0.163-0.188 0.188zM10.606 22.106c0 0.081-0.094 0.15-0.219 0.15-0.137 0.012-0.231-0.056-0.231-0.15 0-0.081 0.094-0.15 0.219-0.15 0.119-0.012 0.231 0.056 0.231 0.15zM9.75 22.038c-0.025 0.081-0.15 0.119-0.256 0.081-0.119-0.025-0.2-0.119-0.175-0.2s0.15-0.119 0.256-0.094c0.125 0.038 0.206 0.131 0.175 0.212zM8.981 21.7c-0.056 0.069-0.175 0.056-0.269-0.038-0.094-0.081-0.119-0.2-0.056-0.256 0.056-0.069 0.175-0.056 0.269 0.038 0.081 0.081 0.113 0.206 0.056 0.256zM8.412 21.131c-0.056 0.038-0.162 0-0.231-0.094s-0.069-0.2 0-0.244c0.069-0.056 0.175-0.012 0.231 0.081 0.069 0.094 0.069 0.206 0 0.256zM8.006 20.525c-0.056 0.056-0.15 0.025-0.219-0.038-0.069-0.081-0.081-0.175-0.025-0.219 0.056-0.056 0.15-0.025 0.219 0.038 0.069 0.081 0.081 0.175 0.025 0.219zM7.588 20.063c-0.025 0.056-0.106 0.069-0.175 0.025-0.081-0.038-0.119-0.106-0.094-0.163 0.025-0.038 0.094-0.056 0.175-0.025 0.081 0.044 0.119 0.113 0.094 0.163z"></path>
</svg>
