<!-- Generated by IcoMoon.io -->
<svg version="1.1" xmlns="http://www.w3.org/2000/svg" width="37" height="32" viewBox="0 0 37 32">
<title>gitkraken</title>
<path d="M35.356 7.381c-0.144-0.381-0.581-0.575-0.956-0.412-0.356 0.15-0.531 0.556-0.394 0.912 0.681 1.813 1.056 3.781 1.056 5.831 0 8.413-6.269 15.356-14.387 16.419v-7.731c0.494-0.094 0.969-0.225 1.438-0.387v6.5c6.669-1.619 11.619-7.631 11.619-14.8 0-5.737-3.175-10.738-7.863-13.331-0.356-0.2-0.813-0.056-0.994 0.313-0.169 0.344-0.038 0.762 0.294 0.944 4.244 2.35 7.119 6.875 7.119 12.075 0 5.831-3.619 10.819-8.738 12.838v-5.762c0.887-0.281 1.556-1.106 1.556-2.094 0-0.819-0.425-1.525-1.081-1.906 0.519-4.969 2.781-3.662 2.781-5.244v-0.919c0-2.375-5.494-10.113-8.063-10.294-0.156-0.013-0.313-0.013-0.475 0-2.575 0.188-8.069 7.919-8.069 10.294v0.925c0 1.581 2.269 0.269 2.781 5.244-0.662 0.381-1.081 1.087-1.081 1.906 0 0.988 0.662 1.813 1.55 2.094v5.762c-5.119-2.012-8.738-7-8.738-12.838 0-5.194 2.875-9.719 7.119-12.075 0.338-0.188 0.463-0.6 0.294-0.944-0.181-0.369-0.631-0.512-0.994-0.313-4.688 2.594-7.862 7.594-7.862 13.331 0 7.169 4.95 13.175 11.619 14.8v-6.5c0.475 0.156 0.944 0.288 1.438 0.387v7.731c-8.113-1.063-14.387-8.006-14.387-16.419 0-2.050 0.375-4.019 1.056-5.831 0.138-0.362-0.038-0.763-0.394-0.912-0.375-0.162-0.813 0.025-0.956 0.412-0.738 1.969-1.144 4.1-1.144 6.331 0 9.694 7.662 17.6 17.269 17.988v-9.119c0.425 0.025 0.938 0.031 1.462 0v9.113c9.606-0.381 17.269-8.287 17.269-17.981 0-2.231-0.406-4.363-1.144-6.338zM22.869 17.219c0.813 0 1.481 0.656 1.481 1.481 0 0.819-0.663 1.481-1.481 1.481-0.813 0-1.481-0.656-1.481-1.481 0-0.819 0.663-1.481 1.481-1.481zM14.131 20.175c-0.825 0-1.481-0.669-1.481-1.481s0.656-1.481 1.481-1.481c0.819 0 1.481 0.663 1.481 1.481 0 0.813-0.656 1.481-1.481 1.481z"></path>
</svg>
