<!-- Generated by IcoMoon.io -->
<svg version="1.1" xmlns="http://www.w3.org/2000/svg" width="40" height="32" viewBox="0 0 40 32">
<title>google-plus-g</title>
<path d="M24.129 14.281c0.115 0.606 0.196 1.211 0.196 1.997 0 6.86-4.6 11.722-11.525 11.722-6.63 0-12-5.37-12-12s5.37-12 12-12c3.241 0 5.943 1.179 8.038 3.143l-3.258 3.127c-0.884-0.851-2.439-1.85-4.78-1.85-4.093 0-7.433 3.389-7.433 7.58s3.34 7.58 7.433 7.58c4.748 0 6.532-3.422 6.81-5.173h-6.81v-4.126h11.329zM35.717 14.683v-3.483h-3.5v3.483h-3.483v3.5h3.483v3.483h3.5v-3.483h3.483v-3.5h-3.483z"></path>
</svg>
