<!-- Generated by IcoMoon.io -->
<svg version="1.1" xmlns="http://www.w3.org/2000/svg" width="32" height="32" viewBox="0 0 32 32">
<title>grav</title>
<path d="M18.819 13.25c0.275 0.275 0.275 0.744 0 1.019l-0.606 0.606c-0.275 0.294-0.744 0.294-1.038 0l-0.656-0.656c-0.275-0.294-0.275-0.744 0-1.037l0.606-0.606c0.275-0.275 0.744-0.275 1.038 0l0.656 0.675zM16.931 12.019c0.188-0.188 0.188-0.488 0-0.656-0.175-0.188-0.469-0.188-0.656 0-0.175 0.175-0.175 0.469 0 0.656 0.194 0.175 0.488 0.175 0.656 0zM15.306 12.35c-0.188 0.175-0.188 0.469 0 0.637 0.175 0.188 0.469 0.188 0.656 0 0.175-0.175 0.175-0.469 0-0.637-0.188-0.188-0.481-0.188-0.656 0zM19.837 11.519c-1.244-0.9-2.113-2.7-0.744-4.256 1.35-1.556 2.544-1.075 3.738 0.050 0.744 0.706 1.831 1.556 1.075 3.013-0.781 1.469-2.819 2.075-4.069 1.194zM22.819 8.738c-0.556-0.625-1.456 0.431-0.969 1.006 0.462 0.563 2.006 0.15 0.969-1.006zM31.5 16c0 8.563-6.938 15.5-15.5 15.5s-15.5-6.938-15.5-15.5 6.938-15.5 15.5-15.5 15.5 6.938 15.5 15.5zM27.363 18.663c0.156-1.006-1.262-1.038-1.575-1.606-0.85-1.506-1.731-2.3-3.406-1.9 0.725-0.5 1.469-0.381 1.469-0.381 0.019-0.4 0-0.813-0.587-1.556 0.244-0.781 0.019-1.4 0.019-1.4 0.969-0.537 1.675-1.525 1.819-2.7 0.225-1.938-1.175-3.7-3.113-3.925-1.381-0.156-2.731 0.481-3.394 1.606-1.45 2.506 0.087 4.431 1.4 5.088-0.9-0.088-2.144-0.744-2.506-2.144-0.413-1.606 0.175-3.112 0.556-3.838 0 0-0.275-0.362-0.5-0.556 0 0-0.863 0-1.538 0.331 0.744-0.95 1.575-0.9 1.575-0.9 0-0.4-0.038-0.931-0.225-1.35-0.337-0.688-1.488-0.806-1.981 0.175 0.006-0.013 0.019-0.025 0.025-0.031-0.313 0.744-0.069 3.494 1.056 5.45-0.156 0.088-0.569 0.381-0.813 0.625-1.35 0.606-3.512 3.769-3.512 3.769-1.762 0.675-4.825 3.181-4.412 4.981 0.019 0.188 0.088 0.344 0.188 0.469-0.175 0.137-0.344 0.313-0.519 0.519-0.744 0.863-0.331 2.2 1.106 1.525 0.988-0.45 1.85-1.262 2.269-1.9 0 0-0.344-0.313-1.019-0.275 1.731-0.413 2.144-0.587 2.887-0.569 0.5 0.244 0.5-2.144 0.5-2.144 0-0.919-0.137-1.938-0.694-2.594 0.781 0.762 1.819 2.044 1.75 3.788-0.050 1.144-0.95 1.438-0.95 1.438-0.569 1.038-2.7 4.119-1.9 6.625 0 0-0.606-0.931-0.637-1.381-1.088 1.212-2.906 3.269-1.537 4.031 1.662 0.919 6.8-5.538 7.888-8.894 2.163-1.3 3.462-2.956 3.994-4.063 1.375 2.719 5.956 5.906 6.319 3.688z"></path>
</svg>
