<!-- Generated by IcoMoon.io -->
<svg version="1.1" xmlns="http://www.w3.org/2000/svg" width="32" height="32" viewBox="0 0 32 32">
<title>hackerrank</title>
<path d="M29.844 8c-0.906-1.559-12.023-8-13.834-8s-12.932 6.424-13.832 8-0.906 14.425 0 16 12.024 8 13.832 8 12.928-6.433 13.833-8 0.907-14.438 0.001-16zM19.758 25.889c-0.25 0-2.557-2.236-2.375-2.418 0.054-0.054 0.391-0.093 1.097-0.114 0-1.639 0.037-4.287 0.059-5.395 0-0.125-0.027-0.214-0.027-0.366h-4.996c0 0.444-0.029 2.262 0.086 4.555 0.014 0.284-0.099 0.375-0.359 0.371-0.633 0-1.267-0.007-1.901-0.005-0.256 0-0.367-0.096-0.359-0.382 0.057-2.090 0.188-5.25-0.009-13.292v-0.198c-0.604-0.022-1.024-0.063-1.079-0.115-0.182-0.182 2.159-2.418 2.406-2.418s2.573 2.236 2.392 2.418c-0.054 0.054-0.494 0.093-1.048 0.115v0.197c-0.151 1.609-0.125 4.974-0.164 6.587h5.016c0-0.284 0.024-2.171-0.075-5.227-0.006-0.212 0.059-0.323 0.263-0.325 0.692-0.005 1.384-0.008 2.077-0.004 0.216 0 0.286 0.107 0.281 0.336-0.23 11.956-0.043 11.121-0.043 13.146 0.554 0.022 1.051 0.063 1.106 0.115 0.18 0.182-2.101 2.418-2.349 2.418z"></path>
</svg>
