<!-- Generated by IcoMoon.io -->
<svg version="1.1" xmlns="http://www.w3.org/2000/svg" width="40" height="32" viewBox="0 0 40 32">
<title>hips</title>
<path d="M15.725 9.85c0-0.119-0.056-0.175-0.175-0.175h-2.556c-0.1 0-0.169 0.088-0.169 0.175v12.612c0 0.087 0.069 0.175 0.169 0.175h2.556c0.119 0 0.175-0.056 0.175-0.175zM9.781 10.5c-1.006-0.738-2.269-1.119-3.769-1.125-1.131-0.006-2.163 0.231-3.112 0.713v-5.075c0-0.112-0.056-0.169-0.175-0.169h-2.556c-0.113 0-0.169 0.056-0.169 0.169v17.45c0 0.119 0.056 0.175 0.169 0.175h2.563c0.119 0 0.175-0.056 0.175-0.175v-8.506c0-0.050-0.175-1.688 2.863-1.688 3.031 0 2.863 1.631 2.863 1.688v7.662c0 0.563 0.456 1.019 1.025 1.019h1.706c0.113 0 0.169-0.056 0.169-0.175v-8.506c0-1.463-0.581-2.612-1.75-3.456zM39.681 17.381c-0.425-0.981-1.15-1.688-2.181-2.131l-3.6-1.581c-0.538-0.225-0.575-0.7-0.163-1.006 0.462-0.344 2.769-0.869 5.25 0.425 0.106 0.063 0.25-0.019 0.25-0.15v-2.794c0-0.081-0.038-0.131-0.119-0.162-1.106-0.412-2.256-0.619-3.444-0.619-1.656 0-2.831 0.363-3.656 0.963-0.031 0.025-1.775 1.25-1.419 3.356 0.212 1.225 0.988 2.137 2.325 2.725l3.35 1.469c0.725 0.319 0.95 0.831 0.763 1.325-0.231 0.569-0.825 0.85-2.281 0.85-1.519 0-2.794-0.556-3.65-1.194-0.131-0.087-0.275 0.012-0.275 0.144v2.15c0 0.65 0.306 1.081 0.913 1.294 0.975 0.344 1.975 0.512 3.013 0.512 0.794 0 1.612-0.075 2.269-0.269 0.044-0.019 2.25-0.556 2.85-2.863 0.219-0.844 0.15-1.656-0.194-2.444zM23.512 9.363c-1.981 0-6.512 1.256-6.512 6.469v11.469c0 0.050 0.038 0.169 0.169 0.169h2.556c0.119 0 0.175-0.056 0.175-0.169v-5.55c1.031 0.794 2.238 1.194 3.606 1.194 3.781 0 6.794-3.031 6.794-6.794 0.006-3.769-3.012-6.787-6.788-6.787zM23.512 20.044c-1.075 0-1.994-0.381-2.75-1.137-0.762-0.762-1.137-1.675-1.137-2.75 0-2.156 1.725-3.887 3.887-3.887 2.156 0 3.887 1.725 3.887 3.887 0.006 2.144-1.706 3.887-3.887 3.887zM14.269 4.531c-0.994 0-1.8 0.806-1.806 1.806 0 0.975 0.794 1.806 1.806 1.806s1.806-0.819 1.806-1.806c0-1.013-0.813-1.806-1.806-1.806z"></path>
</svg>
