<!-- Generated by IcoMoon.io -->
<svg version="1.1" xmlns="http://www.w3.org/2000/svg" width="40" height="32" viewBox="0 0 40 32">
<title>hooli</title>
<path d="M9.031 22l2.394 0.050c-0.825-0.288-1.625-0.637-2.394-1.050zM12.637 21.669v0.331l-1.213 0.050c2.281 0.781 4.369 0.887 5.919 0.45-1.244 0.012-2.863-0.163-4.706-0.831zM38.194 14.469c0.994 0 1.806-0.806 1.806-1.806s-0.806-1.531-1.806-1.531c-0.994 0-1.806 0.537-1.806 1.531s0.806 1.806 1.806 1.806zM36.381 22h3.619v-6.906h-3.619zM31.775 22h3.619v-12.206l-3.619 1.706zM29.837 14.537c-1.137-1.137-3.15-1.069-3.15-1.069s-2.019-0.069-3.15 1.069c-1.137 1.137-1.050 2.119-1.050 3.287s-0.087 2.144 1.050 3.281 3.15 1.069 3.15 1.069 2.019 0.069 3.15-1.069c1.137-1.137 1.050-2.113 1.050-3.281-0.006-1.175 0.081-2.156-1.050-3.287zM27.35 19.031c0 0.225-0.113 0.781-0.669 0.781s-0.669-0.556-0.669-0.781v-2.525c0-0.544 0.456-0.681 0.669-0.681s0.669 0.131 0.669 0.681zM20.712 14.537c-1.137-1.137-3.15-1.069-3.15-1.069s-2.012-0.069-3.15 1.069c-0.119 0.119-0.231 0.244-0.331 0.375-2.388-1.85-4.531-2.906-6.381-3.819v-1.294l-1.406 0.662c-3.4-1.381-5.563-1.137-6.081 0.006 0 0-1.556 2.050 3.862 6.925v4.606h3.619v-1.788c-0.406-0.262-0.813-0.544-1.213-0.85-0.925-0.7-1.713-1.35-2.4-1.962v-1.938c0.819 0.919 1.906 1.962 3.338 3.144l0.281 0.225v-1.863c0-0.431 0.106-1.137 0.675-1.137s0.662 0.431 0.662 0.938v3.044c1.125 0.762 2.331 1.381 3.606 1.85v-5.869c0-1.169-0.838-2.338-2.537-2.338-0.988-0.006-1.906 0.512-2.406 1.369v-3.394c2.619 1.306 5.244 2.906 6.244 3.644-0.637 0.912-0.581 1.756-0.581 2.731 0 1.169-0.088 2.144 1.050 3.281s3.15 1.069 3.15 1.069 2.019 0.069 3.15-1.069c1.137-1.137 1.044-2.113 1.044-3.281 0-1.156 0.094-2.137-1.044-3.269zM4.075 11.5v3.956c-3.044-3.406-2.431-4.75-2.2-4.944 0.844-0.713 2.344-0.5 4.025 0.131zM18.231 19.031c0 0.225-0.113 0.781-0.669 0.781s-0.669-0.556-0.669-0.781v-2.525c0-0.544 0.456-0.681 0.669-0.681s0.669 0.131 0.669 0.681z"></path>
</svg>
