<!-- Generated by IcoMoon.io -->
<svg version="1.1" xmlns="http://www.w3.org/2000/svg" width="28" height="32" viewBox="0 0 28 32">
<title>instagram-square</title>
<path d="M14 12.666c-1.841 0.001-3.332 1.493-3.332 3.334s1.493 3.334 3.334 3.334 3.334-1.493 3.334-3.334v0c-0.001-1.841-1.494-3.333-3.335-3.334h-0zM21.794 10.104c-0.351-0.872-1.029-1.55-1.878-1.893l-0.023-0.008c-1.313-0.518-4.438-0.402-5.894-0.402s-4.578-0.121-5.894 0.402c-0.872 0.351-1.55 1.029-1.893 1.878l-0.008 0.023c-0.518 1.313-0.402 4.441-0.402 5.896s-0.116 4.579 0.404 5.896c0.351 0.872 1.029 1.55 1.878 1.893l0.023 0.008c1.313 0.518 4.438 0.402 5.894 0.402s4.577 0.121 5.894-0.402c0.872-0.351 1.55-1.029 1.893-1.878l0.008-0.023c0.522-1.313 0.402-4.441 0.402-5.896s0.12-4.579-0.402-5.896zM14 21.125c-2.83 0-5.125-2.295-5.125-5.125s2.295-5.125 5.125-5.125c2.83 0 5.125 2.295 5.125 5.125v0c0 0.002 0 0.004 0 0.006 0 2.827-2.292 5.119-5.119 5.119-0.002 0-0.004 0-0.007 0h0zM19.336 11.856c-0 0-0 0-0.001 0-0.661 0-1.196-0.536-1.196-1.196s0.536-1.196 1.196-1.196c0.661 0 1.196 0.536 1.196 1.196v0c0 0.002 0 0.003 0 0.005 0 0.659-0.534 1.193-1.193 1.194h-0zM25 2h-22c-1.657 0-3 1.343-3 3v0 22c0 1.657 1.343 3 3 3v0h22c1.657 0 3-1.343 3-3v0-22c0-1.657-1.343-3-3-3v0zM23.93 20.125c-0.081 1.602-0.446 3.021-1.616 4.188s-2.587 1.539-4.188 1.616c-1.651 0.093-6.599 0.093-8.25 0-1.602-0.081-3.016-0.447-4.188-1.616s-1.539-2.589-1.616-4.188c-0.093-1.651-0.093-6.601 0-8.25 0.081-1.602 0.442-3.021 1.616-4.188s2.592-1.535 4.188-1.611c1.651-0.093 6.599-0.093 8.25 0 1.602 0.081 3.021 0.447 4.188 1.616s1.539 2.589 1.616 4.191c0.093 1.645 0.093 6.59 0 8.242z"></path>
</svg>
