<!-- Generated by IcoMoon.io -->
<svg version="1.1" xmlns="http://www.w3.org/2000/svg" width="28" height="32" viewBox="0 0 28 32">
<title>invision</title>
<path d="M25.462 2h-22.925c-1.4 0-2.538 1.138-2.538 2.537v22.925c0 1.4 1.137 2.538 2.538 2.538h22.925c1.4 0 2.538-1.137 2.538-2.538v-22.925c0-1.4-1.137-2.538-2.538-2.538zM11.006 9.1c0.025 1.463-1.4 1.706-1.662 1.713-0.931 0-1.694-0.75-1.694-1.688 0.006-2.2 3.319-2.219 3.356-0.025zM20.8 23.563c-4.1 0-2.131-4.625-1.563-6.663 0.881-2.9-2.825-3.688-3.744 0.044l-1.613 6.456h-2.819l0.506-2.031c-1.969 3.238-5.912 2.775-5.912-0.269 0.006-0.894 0.056-0.875 1.438-6.506h-1.987l0.606-2.225h4.775c-2.1 8.356-2.037 7.931-2.056 8.637 0 1.306 2.556 0.844 3.588-1.45l1.238-4.963h-2.019l0.606-2.225h4.3l-0.556 2.531c2.531-4.719 7.994-2.988 6.362 2.375-0.887 3.194-0.913 3.169-0.931 3.675 0 0.969 1.094 1.413 1.988-1.056l1.119 0.419c-0.656 2.294-1.837 3.25-3.325 3.25z"></path>
</svg>
