<!-- Generated by IcoMoon.io -->
<svg version="1.1" xmlns="http://www.w3.org/2000/svg" width="27" height="32" viewBox="0 0 27 32">
<title>ionic</title>
<path d="M24.254 7.897c0.289-0.332 0.464-0.765 0.464-1.239 0-1.046-0.848-1.893-1.893-1.893-0.474 0-0.907 0.176-1.239 0.464-2.257-1.702-5.064-2.713-8.103-2.713-7.435 0-13.485 6.049-13.485 13.485s6.049 13.485 13.485 13.485 13.484-6.049 13.484-13.485c0-3.039-1.011-5.846-2.713-8.103zM13.483 29.031c-7.185 0-13.031-5.846-13.031-13.031s5.846-13.031 13.031-13.031c2.922 0 5.621 0.966 7.797 2.597-0.219 0.309-0.348 0.685-0.348 1.092 0 1.046 0.848 1.893 1.893 1.893 0.407 0 0.783-0.13 1.092-0.348 1.63 2.176 2.597 4.875 2.597 7.797 0 7.185-5.845 13.031-13.031 13.031z"></path>
<path d="M18.988 16c0 3.041-2.465 5.506-5.506 5.506s-5.506-2.465-5.506-5.506c0-3.041 2.465-5.506 5.506-5.506s5.506 2.465 5.506 5.506z"></path>
</svg>
