<!-- Generated by IcoMoon.io -->
<svg version="1.1" xmlns="http://www.w3.org/2000/svg" width="32" height="32" viewBox="0 0 32 32">
<title>itch-io</title>
<path d="M4.495 2.173c-1.357 0.806-4.032 3.879-4.058 4.685v1.334c0 1.691 1.581 3.178 3.016 3.178 1.723 0 3.159-1.428 3.159-3.125 0 1.695 1.386 3.125 3.11 3.125s3.063-1.428 3.063-3.125c0 1.695 1.474 3.125 3.197 3.125h0.031c1.723 0 3.198-1.428 3.198-3.125 0 1.695 1.342 3.125 3.063 3.125s3.11-1.428 3.11-3.125c0 1.695 1.438 3.125 3.159 3.125 1.438 0 3.016-1.486 3.016-3.178v-1.334c-0.025-0.806-2.7-3.879-4.058-4.688-4.215-0.146-7.14-0.171-11.5-0.171s-10.304 0.069-11.505 0.173zM12.765 10.572c-1.375 2.4-4.869 2.419-6.241 0.016-0.823 1.446-2.698 2.004-3.5 1.729-0.242 2.509-0.854 14.821 1.108 16.822 5 1.167 18.88 1.133 23.735 0 1.978-2.017 1.332-14.5 1.109-16.822-0.808 0.277-2.68-0.287-3.5-1.729-1.375 2.408-4.866 2.381-6.241-0.015-0.444 0.781-1.441 1.809-3.235 1.809-0.034 0.001-0.073 0.002-0.113 0.002-1.329 0-2.49-0.721-3.112-1.793l-0.009-0.017zM10.166 13.933c1.029 0 1.943 0 3.076 1.236 0.826-0.089 1.785-0.139 2.756-0.139s1.929 0.051 2.874 0.149l-0.118-0.010c1.135-1.232 2.049-1.232 3.078-1.232 3.271 0 4.076 4.846 5.242 9.028 1.079 3.884-0.345 3.979-2.122 3.983-2.634-0.098-4.093-2.011-4.093-3.924-2.453 0.402-6.371 0.549-9.722 0 0 1.913-1.459 3.826-4.093 3.924-1.776-0.004-3.2-0.099-2.121-3.983 1.167-4.188 1.973-9.028 5.242-9.028zM16 16.924s-2.774 2.548-3.272 3.451l1.813-0.073v1.582c0 0.097 1.334 0.010 1.458 0.010 0.728 0.034 1.457 0.063 1.457-0.010v-1.58l1.813 0.073c-0.5-0.905-3.272-3.453-3.272-3.453z"></path>
</svg>
