<!-- Generated by IcoMoon.io -->
<svg version="1.1" xmlns="http://www.w3.org/2000/svg" width="32" height="32" viewBox="0 0 32 32">
<title>javascript-sp</title>
<path d="M0.033 0.033v32h32v-32h-32zM16.734 27.407c-0.471 0.958-1.372 1.588-2.415 1.892-1.603 0.368-3.136 0.158-4.277-0.526-0.763-0.468-1.36-1.189-1.764-2.020 0.812-0.496 1.621-0.995 2.433-1.49 0.021 0.009 0.085 0.125 0.17 0.274 0.31 0.52 0.578 0.888 1.104 1.147 0.517 0.176 1.652 0.289 2.090-0.62 0.268-0.462 0.182-1.979 0.182-3.625 0-2.586 0.012-5.129 0.012-7.746h2.993c0 2.748 0.015 5.505 0 8.248 0.006 1.682 0.152 3.211-0.529 4.467zM29.151 26.561c-1.040 3.559-6.841 3.674-9.159 1.323-0.49-0.554-0.797-0.843-1.089-1.481 1.232-0.709 1.232-0.709 2.43-1.402 0.651 1.001 1.253 1.551 2.336 1.776 1.469 0.179 2.948-0.326 2.616-1.886-0.341-1.275-3.009-1.585-4.824-2.948-1.843-1.238-2.275-4.246-0.76-5.965 0.505-0.636 1.366-1.11 2.269-1.338 0.313-0.040 0.63-0.082 0.943-0.122 1.81-0.037 2.941 0.441 3.772 1.369 0.231 0.234 0.42 0.487 0.773 1.034-0.964 0.615-0.961 0.608-2.342 1.503-0.295-0.636-0.785-1.034-1.302-1.208-0.803-0.243-1.816 0.021-2.026 0.87-0.073 0.262-0.058 0.505 0.058 0.937 0.325 0.742 1.417 1.065 2.397 1.515 2.82 1.144 3.772 2.37 4.006 3.83 0.225 1.256-0.055 2.071-0.097 2.193z"></path>
</svg>
