<!-- Generated by IcoMoon.io -->
<svg version="1.1" xmlns="http://www.w3.org/2000/svg" width="28" height="32" viewBox="0 0 28 32">
<title>jedi-order</title>
<path d="M24.906 23.35c5.994-7.631 1.075-14.569 1.075-14.569 2.837 5.362-2.587 10.656-2.587 10.656 6.563-10.719-3.781-16.969-3.781-16.969 6.056 4.544-0.631 11.919-0.631 11.919 5.363 9.9-4.287 14.381-4.287 14.381s-0.025-1.056-0.137-5.356c0.269 0.281 2.156 2.262 2.156 2.262l-1.512-2.962 3.913-0.569-3.912-0.569 1.263-3.469-1.963 2.869c-0.137-5.481-0.488-19.069-0.494-19.181v0c0 0.063-0.35 13.688-0.494 19.181l-1.963-2.869 1.262 3.469-3.912 0.569 3.912 0.569-1.512 2.962 2.156-2.262c-0.113 4.3-0.137 5.356-0.137 5.356s-9.65-4.481-4.287-14.381c0 0-6.688-7.381-0.631-11.919 0 0-10.344 6.244-3.781 16.969 0 0-5.425-5.3-2.587-10.656 0 0-4.919 6.938 1.075 14.569 0 0-1.637-1.006-3.087-4.856 0 0 1.056 11.456 13.875 11.606h0.256c12.813-0.15 13.875-11.606 13.875-11.606-1.475 3.844-3.119 4.856-3.119 4.856z"></path>
</svg>
