<!-- Generated by IcoMoon.io -->
<svg version="1.1" xmlns="http://www.w3.org/2000/svg" width="32" height="32" viewBox="0 0 32 32">
<title>jenkins</title>
<path d="M16.472 0.006c-0.755 0.064-1.319 0.168-1.852 0.34-0.324 0.106-1.033 0.374-1.291 0.488-0.208 0.092-1.117 0.591-1.691 0.927-1.003 0.587-1.521 1.145-1.764 1.904-0.048 0.148-0.068 0.184-0.116 0.21-0.238 0.13-0.465 0.332-0.617 0.553-0.234 0.342-0.402 0.873-0.456 1.441-0.012 0.132-0.028 0.286-0.032 0.344l-0.010 0.104-0.234 0.206c-0.645 0.569-1.335 1.345-1.846 2.078-1.057 1.517-1.768 3.329-2.020 5.145-0.090 0.655-0.11 0.963-0.11 1.712s0.020 1.057 0.11 1.711c0.164 1.185 0.545 2.428 1.079 3.537 0.627 1.299 1.549 2.548 2.582 3.499l0.294 0.27 0.024 0.376c0.014 0.206 0.034 0.622 0.042 0.925 0.022 0.701 0.050 0.821 0.224 0.969 0.1 0.086 0.26 0.164 0.587 0.286 0.132 0.050 0.55 0.242 0.931 0.426 0.965 0.471 1.277 0.597 1.758 0.713 0.336 0.082 0.414 0.092 0.853 0.106l0.42 0.012 0.136 0.471c0.246 0.841 0.452 1.523 0.566 1.872 0.142 0.43 0.328 0.935 0.358 0.963 0.030 0.032 0.326 0.12 0.637 0.19 1.119 0.252 2.863 0.286 4.53 0.086 0.564-0.068 0.953-0.28 1.091-0.595 0.036-0.080 0.038-0.108 0.020-0.228-0.010-0.074-0.026-0.25-0.032-0.388l-0.014-0.252 0.178-0.034c0.582-0.112 0.873-0.264 1.001-0.524 0.042-0.088 0.054-0.146 0.062-0.314 0.014-0.258-0.010-0.424-0.136-0.985-0.17-0.739-0.204-1.019-0.16-1.285l0.026-0.144 0.126-0.042c0.27-0.090 0.39-0.224 0.39-0.439v-0.104l0.126-0.058c0.3-0.136 0.631-0.198 1.115-0.214l0.35-0.010 0.056 0.098c0.032 0.052 0.090 0.136 0.132 0.184 0.074 0.086 0.078 0.088 0.284 0.124 0.629 0.108 1.275 0.11 1.768 0.006 0.382-0.080 0.51-0.144 0.705-0.352 0.362-0.39 0.613-1.141 0.611-1.848 0-0.312-0.018-0.422-0.144-0.861-0.176-0.61-0.404-1.231-0.575-1.561-0.106-0.206-0.27-0.386-0.448-0.492-0.064-0.036-0.116-0.074-0.116-0.084 0-0.008 0.046-0.096 0.102-0.196 0.16-0.284 0.48-0.959 0.617-1.293 0.468-1.167 0.737-2.324 0.845-3.649 0.030-0.372 0.030-1.365 0-1.742-0.106-1.315-0.374-2.478-0.845-3.649-0.156-0.388-0.547-1.183-0.759-1.545-0.484-0.823-1.075-1.597-1.742-2.282l-0.312-0.32-0.036-0.396c-0.122-1.389-0.448-2.524-0.941-3.277-0.358-0.548-1.099-1.341-1.763-1.888-0.791-0.651-1.748-1.017-3.093-1.185-0.238-0.030-1.359-0.056-1.581-0.038zM17.984 0.762c0.767 0.124 1.525 0.362 2.208 0.697 0.48 0.236 0.723 0.414 1.115 0.819 0.274 0.284 0.977 1.159 1.017 1.267 0.014 0.034 0.006 0.036-0.080 0.024-0.366-0.048-0.546-0.034-0.757 0.066-0.258 0.12-0.404 0.324-0.414 0.579-0.002 0.046 0.002 0.090 0.008 0.096s0.044-0.012 0.086-0.040c0.158-0.108 0.28-0.14 0.541-0.14 0.218 0 0.258 0.006 0.43 0.066 0.274 0.092 0.479 0.22 0.691 0.432 0.386 0.384 0.518 0.841 0.59 2.052 0.036 0.585 0.048 1.756 0.022 2.122-0.114 1.615-0.542 3.113-1.213 4.252-0.148 0.252-0.665 1.025-0.789 1.181-0.166 0.206-0.382 0.4-0.623 0.557-0.723 0.47-1.483 0.777-2.194 0.889-0.29 0.044-0.831 0.044-1.089 0-0.274-0.048-0.683-0.192-1.051-0.372-0.963-0.47-1.609-1.093-2.648-2.552l-0.128-0.18 0.012 0.1c0.062 0.448 0.322 0.909 0.851 1.511 0.61 0.693 1.057 1.101 1.443 1.317 0.072 0.040 0.144 0.086 0.16 0.102 0.026 0.024 0.016 0.026-0.070 0.014-0.056-0.006-0.212-0.018-0.35-0.024-0.406-0.020-0.677 0.064-0.811 0.25l-0.060 0.084-0.21-0.012c-1.167-0.066-1.874-0.282-2.294-0.705-0.458-0.458-1.115-1.98-1.259-2.921-0.048-0.304-0.036-0.334 0.192-0.583 0.252-0.272 0.296-0.372 0.236-0.546-0.022-0.062-0.026-0.064-0.112-0.052-0.116 0.016-0.182 0.050-0.396 0.214-0.098 0.074-0.206 0.146-0.24 0.158-0.186 0.072-0.493 0.060-0.709-0.028-0.538-0.218-1.025-0.923-1.171-1.693-0.042-0.218-0.042-0.609 0-0.779 0.096-0.39 0.352-0.743 0.681-0.935 0.238-0.14 0.567-0.204 0.849-0.17 0.452 0.058 0.703 0.36 0.887 1.077l0.066 0.256 0.216-0.004c0.358-0.004 0.649-0.1 0.759-0.25 0.040-0.052 0.040-0.058 0.006-0.28-0.020-0.124-0.074-0.38-0.122-0.566-0.228-0.903-0.226-1.047 0.038-2.312 0.122-0.585 0.154-0.825 0.156-1.131 0.002-0.286-0.034-0.512-0.114-0.751-0.028-0.080-0.050-0.17-0.050-0.198 0-0.066 0.134-0.31 0.3-0.546 0.166-0.238 0.693-0.769 1.001-1.005 0.292-0.226 0.831-0.582 1.181-0.781 1.045-0.593 1.415-0.699 2.392-0.683 0.414 0.006 0.555 0.016 0.821 0.058zM13.98 1.317c0.106 0.084 0.024 0.232-0.162 0.292-0.072 0.022-0.136 0.064-0.214 0.138-0.062 0.058-0.204 0.176-0.318 0.26-0.314 0.236-0.418 0.354-0.655 0.747-0.256 0.424-0.38 0.589-0.496 0.663-0.118 0.076-0.226 0.090-0.454 0.062-0.24-0.032-0.364-0.012-0.797 0.13-0.376 0.122-0.517 0.15-0.517 0.106 0-0.016 0.044-0.104 0.1-0.194 0.386-0.651 1.111-1.259 2.072-1.742 0.346-0.174 0.554-0.262 0.941-0.396 0.336-0.118 0.418-0.128 0.501-0.066zM11.93 3.951c0.078 0.206 0.104 0.366 0.114 0.693 0.010 0.38-0.008 0.596-0.106 1.225-0.108 0.705-0.118 0.803-0.118 1.161 0 0.378 0.014 0.472 0.13 0.867 0.090 0.308 0.118 0.547 0.078 0.645-0.028 0.068-0.092 0.11-0.202 0.13l-0.072 0.014-0.014-0.136c-0.036-0.358-0.216-0.681-0.508-0.913-0.288-0.228-0.607-0.34-0.975-0.34-0.256 0-0.436 0.040-0.689 0.156-0.090 0.040-0.166 0.070-0.172 0.064-0.026-0.026-0.056-0.566-0.058-1.017 0-0.41 0.006-0.55 0.036-0.709 0.098-0.535 0.27-0.841 0.659-1.167 0.406-0.34 0.857-0.559 1.369-0.665 0.254-0.052 0.276-0.056 0.402-0.060 0.096-0.002 0.106 0.002 0.126 0.052zM8.719 7.232c0.020 0.018 0.032 0.070 0.034 0.138 0 0.060 0.008 0.11 0.018 0.11 0.008 0 0.014 0.044 0.014 0.1 0 0.054-0.008 0.1-0.018 0.1-0.008 0-0.012 0.022-0.008 0.046 0.006 0.028-0.004 0.062-0.022 0.080-0.018 0.016-0.032 0.040-0.032 0.052s-0.008 0.022-0.020 0.022c-0.010 0-0.020 0.012-0.020 0.028s-0.014 0.032-0.030 0.040c-0.016 0.006-0.030 0.024-0.030 0.040s-0.012 0.038-0.028 0.046c-0.026 0.016-0.172 0.435-0.172 0.496 0 0.016-0.006 0.030-0.014 0.030-0.010 0-0.016 0.030-0.018 0.064 0 0.036-0.012 0.174-0.026 0.306-0.062 0.585 0.1 1.393 0.402 2.002 0.346 0.695 0.941 1.183 1.607 1.319l0.12 0.026 0.006 0.078c0.030 0.426 0.21 0.957 0.454 1.339 0.25 0.392 0.328 0.625 0.27 0.801-0.042 0.13-0.156 0.214-0.711 0.531-1.173 0.671-1.994 1.165-2.382 1.439-0.11 0.078-0.362 0.226-0.558 0.326-0.512 0.264-0.671 0.424-0.705 0.717-0.024 0.206 0.078 0.616 0.304 1.231 0.072 0.198 0.184 0.51 0.248 0.693 0.064 0.184 0.202 0.552 0.306 0.821 0.272 0.701 0.342 0.937 0.472 1.565 0.088 0.418 0.242 1.445 0.242 1.599 0 0.114-0.569-0.503-1.047-1.135-1.023-1.353-1.726-2.923-2.054-4.588-0.084-0.426-0.148-0.863-0.134-0.919 0.008-0.030 0.004-0.048-0.010-0.048-0.016 0-0.020-0.030-0.012-0.1 0.008-0.066 0.004-0.1-0.010-0.1s-0.018-0.042-0.008-0.13c0.010-0.092 0.006-0.13-0.010-0.13s-0.018-0.052-0.008-0.19c0.010-0.132 0.008-0.19-0.008-0.19s-0.022-0.132-0.022-0.43c0-0.298 0.006-0.43 0.022-0.43s0.018-0.058 0.008-0.19c-0.010-0.138-0.008-0.19 0.008-0.19s0.020-0.038 0.010-0.13c-0.010-0.088-0.006-0.13 0.008-0.13s0.018-0.034 0.010-0.1c-0.008-0.062-0.004-0.1 0.008-0.1 0.014 0 0.018-0.036 0.010-0.090-0.004-0.050 0-0.090 0.010-0.090s0.014-0.032 0.010-0.070c-0.004-0.038 0-0.070 0.010-0.070s0.014-0.032 0.010-0.070c-0.004-0.038 0-0.070 0.010-0.070s0.016-0.028 0.010-0.060c-0.004-0.034 0-0.060 0.008-0.060 0.010 0 0.020-0.052 0.022-0.114 0.002-0.064 0.012-0.118 0.022-0.122 0.010-0.002 0.014-0.028 0.008-0.054-0.004-0.028 0-0.050 0.008-0.050 0.010 0 0.020-0.042 0.020-0.094 0.002-0.052 0.012-0.098 0.024-0.102s0.018-0.018 0.012-0.032c-0.028-0.070 0.342-1.369 0.394-1.389 0.010-0.004 0.018-0.026 0.018-0.048 0-0.058 0.082-0.276 0.102-0.276 0.010 0 0.018-0.022 0.018-0.050s0.010-0.050 0.020-0.050c0.012 0 0.020-0.022 0.020-0.050s0.010-0.050 0.020-0.050c0.012 0 0.020-0.022 0.020-0.048 0-0.028 0.014-0.062 0.030-0.080 0.016-0.016 0.030-0.040 0.030-0.054 0-0.042 0.048-0.158 0.064-0.158 0.008 0 0.016-0.014 0.016-0.030 0-0.038 0.104-0.256 0.13-0.274 0.012-0.008 0.042-0.062 0.068-0.12 0.12-0.276 0.15-0.334 0.176-0.344 0.014-0.006 0.026-0.030 0.026-0.052s0.018-0.056 0.040-0.074c0.022-0.020 0.040-0.050 0.040-0.070 0-0.018 0.016-0.050 0.038-0.070 0.020-0.020 0.042-0.060 0.050-0.092 0.006-0.030 0.022-0.054 0.032-0.054 0.012 0 0.020-0.014 0.020-0.030s0.008-0.030 0.018-0.030c0.010 0 0.024-0.022 0.030-0.050 0.008-0.028 0.022-0.050 0.032-0.050 0.012 0 0.020-0.014 0.020-0.030s0.008-0.030 0.018-0.030c0.010 0 0.024-0.022 0.030-0.050 0.008-0.028 0.022-0.050 0.032-0.050 0.012 0 0.020-0.014 0.020-0.030s0.010-0.030 0.020-0.030c0.012 0 0.020-0.014 0.020-0.030s0.010-0.030 0.020-0.030c0.012 0 0.020-0.014 0.020-0.030s0.010-0.030 0.020-0.030c0.012 0 0.020-0.014 0.020-0.030 0-0.018 0.014-0.036 0.030-0.042 0.016-0.008 0.030-0.024 0.030-0.040s0.010-0.028 0.020-0.028c0.012 0 0.020-0.012 0.020-0.028s0.014-0.032 0.030-0.040c0.016-0.006 0.030-0.024 0.030-0.042 0-0.016 0.010-0.030 0.020-0.030 0.012 0 0.020-0.012 0.020-0.028s0.014-0.032 0.030-0.040c0.016-0.006 0.030-0.024 0.030-0.040 0-0.014 0.014-0.032 0.030-0.040 0.016-0.006 0.030-0.024 0.030-0.040 0-0.014 0.014-0.032 0.030-0.040 0.016-0.006 0.030-0.024 0.030-0.040 0-0.018 0.018-0.040 0.040-0.052s0.040-0.032 0.040-0.046c0-0.014 0.018-0.036 0.040-0.050s0.040-0.036 0.040-0.050c0-0.014 0.018-0.036 0.040-0.050s0.040-0.036 0.040-0.050c0-0.014 0.028-0.046 0.060-0.070 0.034-0.026 0.060-0.056 0.060-0.070s0.032-0.050 0.070-0.080c0.038-0.030 0.070-0.066 0.070-0.078s0.054-0.072 0.12-0.13c0.066-0.060 0.12-0.118 0.12-0.128 0-0.028 0.386-0.418 0.412-0.418 0.014 0 0.028-0.018 0.034-0.040 0.012-0.048 0.046-0.052 0.088-0.008zM24.189 8.095c1.487 1.738 2.38 3.819 2.644 6.172 0.042 0.392 0.060 1.545 0.030 1.994-0.1 1.441-0.46 2.811-1.077 4.112-0.118 0.246-0.388 0.751-0.492 0.913l-0.052 0.082-0.194 0.026c-0.5 0.062-1.225 0.306-1.87 0.631-0.194 0.098-0.22 0.104-0.22 0.060 0-0.016 0.066-0.212 0.148-0.434 0.306-0.841 0.607-1.745 0.935-2.818 0.1-0.324 0.262-0.847 0.36-1.161 0.218-0.695 0.264-0.901 0.254-1.161-0.012-0.388-0.132-0.522-1.495-1.694-0.378-0.324-0.679-0.623-0.733-0.731-0.078-0.15-0.006-0.374 0.272-0.845 0.21-0.354 0.322-0.601 0.456-1.007 0.3-0.901 0.517-1.888 0.631-2.881 0.044-0.366 0.092-1.009 0.092-1.211 0-0.21 0.018-0.32 0.050-0.32 0.012 0 0.13 0.124 0.26 0.274zM22.067 14.769c0.066 0.056 0.35 0.326 0.631 0.601s0.611 0.575 0.731 0.669c0.322 0.252 0.478 0.41 0.553 0.563 0.064 0.128 0.064 0.13 0.052 0.354-0.014 0.232-0.084 0.587-0.244 1.251-0.206 0.843-0.541 1.84-1.035 3.077-0.322 0.805-0.395 0.915-0.643 0.987-0.204 0.058-0.248 0.064-0.785 0.084-0.494 0.020-0.661 0.044-0.811 0.12-0.094 0.048-0.12 0.050-0.12 0.008s0.142-0.284 0.901-1.529c0.592-0.971 1.027-1.7 1.107-1.856 0.030-0.054 0.028-0.064-0.006-0.118-0.020-0.032-0.094-0.124-0.166-0.204-0.13-0.146-0.194-0.25-0.194-0.314 0-0.018 0.032-0.126 0.068-0.236 0.282-0.831 0.138-2.188-0.28-2.654-0.092-0.102-0.252-0.202-0.324-0.202-0.054 0-0.204-0.104-0.204-0.142 0-0.020 0.088-0.102 0.206-0.194 0.112-0.086 0.244-0.204 0.294-0.26 0.050-0.054 0.104-0.1 0.12-0.102 0.016 0 0.084 0.044 0.15 0.1zM11.642 15.372c0.050 0.048 0.21 0.22 0.352 0.386 0.142 0.164 0.31 0.358 0.372 0.428 0.204 0.234 0.665 0.51 1.686 1.011l0.631 0.31 0.026 0.162c0.062 0.402 0.428 1.674 0.572 1.976 0.19 0.404 0.418 0.522 0.767 0.396 0.076-0.028 0.15-0.050 0.162-0.050 0.070 0-0.016 0.192-0.188 0.42-0.226 0.3-0.274 0.492-0.166 0.657 0.058 0.088 0.238 0.214 0.486 0.34 0.609 0.312 1.345 0.665 1.708 0.815 0.232 0.096 0.424 0.188 0.424 0.2 0 0.018-0.088 0.028-0.314 0.038-1.679 0.070-2.67 0.148-4.238 0.334-0.442 0.052-0.711 0.076-0.729 0.064-0.046-0.028-0.1-0.192-0.124-0.37-0.034-0.276-0.024-1.153 0.020-1.718 0.022-0.28 0.040-0.588 0.040-0.683 0-0.504-0.242-0.5-0.334 0.006-0.032 0.186-0.028 0.332 0.034 1.005 0.044 0.454 0.052 1.005 0.020 1.213-0.012 0.072-0.038 0.19-0.062 0.264-0.036 0.126-0.044 0.136-0.094 0.136-0.082-0.002-0.208-0.066-0.426-0.22-0.258-0.182-0.358-0.232-0.38-0.196-0.048 0.074-0.002 0.2 0.128 0.352 0.126 0.144 0.146 0.27 0.056 0.37-0.046 0.056-0.084 0.070-0.246 0.104-0.262 0.056-0.376 0.14-0.376 0.28 0 0.048 0.004 0.050 0.126 0.050 0.068 0 0.296-0.010 0.509-0.024 0.384-0.022 0.574-0.012 0.769 0.044l0.072 0.020 0.014 0.166c0.044 0.523 0.208 1.882 0.374 3.061 0.064 0.47 0.118 0.865 0.118 0.875 0 0.048-0.502 0-0.921-0.088-0.673-0.142-1.221-0.366-2.352-0.961-0.362-0.19-0.731-0.38-0.815-0.422l-0.156-0.076v-0.182c0-0.416-0.080-1.527-0.162-2.272-0.23-2.094-0.703-4.005-1.361-5.509-0.076-0.172-0.138-0.326-0.138-0.34 0-0.016 0.186-0.168 0.414-0.338 1.325-0.995 2.22-1.553 3.179-1.984 0.166-0.074 0.33-0.134 0.366-0.136 0.050 0 0.088 0.020 0.158 0.084zM21.451 15.996c0.204 0.104 0.348 0.573 0.41 1.325 0.032 0.41-0.026 0.811-0.14 0.965l-0.036 0.046-0.328-0.022c-0.531-0.034-1.203-0.134-1.519-0.226l-0.088-0.024 0.002-0.31c0.002-0.17 0.004-0.316 0.004-0.324 0-0.020 0.138-0.088 0.21-0.104 0.078-0.016 0.304-0.038 0.376-0.036 0.030 0.002 0.054-0.006 0.054-0.014 0-0.020-0.218-0.084-0.33-0.094-0.044-0.006-0.092-0.014-0.106-0.018-0.012-0.004-0.066 0-0.118 0.008-0.124 0.024-0.154 0.004-0.186-0.112-0.014-0.052-0.044-0.13-0.064-0.174-0.032-0.064-0.034-0.080-0.012-0.094 0.014-0.010 0.034-0.018 0.044-0.018 0.008 0 0.174-0.104 0.37-0.234 0.586-0.386 0.839-0.524 1.027-0.556 0.036-0.008 0.066-0.014 0.068-0.016 0.020-0.020 0.312 0.008 0.362 0.034zM19.935 15.998c0 0.016-0.018 0.038-0.038 0.050-0.022 0.010-0.204 0.15-0.404 0.31l-0.366 0.29-0.112 0.004c-0.428 0.014-0.755-0.038-1.007-0.16-0.194-0.096-0.394-0.234-0.394-0.274s0.090-0.058 0.156-0.032c0.1 0.040 0.332 0.082 0.472 0.082 0.194 0 0.508-0.050 0.903-0.144 0.328-0.078 0.683-0.15 0.757-0.154 0.018-0.002 0.034 0.012 0.034 0.028zM13.335 16.096c0.146 0.048 0.402 0.086 0.819 0.122 0.569 0.046 0.557 0.044 0.557 0.114 0 0.032-0.018 0.128-0.038 0.212-0.022 0.086-0.046 0.202-0.054 0.258-0.012 0.098-0.018 0.106-0.066 0.106-0.092 0-0.448-0.096-0.673-0.178-0.542-0.204-0.867-0.456-0.821-0.639 0.024-0.094 0.046-0.106 0.116-0.064 0.036 0.020 0.108 0.050 0.16 0.068zM15.786 16.166c0.022 0.010 0.044 0.016 0.050 0.012 0.028-0.028 0.815 0.232 1.087 0.36 0.42 0.198 0.53 0.256 0.753 0.402 0.126 0.084 0.34 0.166 0.458 0.178 0.028 0.002 0.060 0.006 0.072 0.006 0.012 0.002 0.022 0.040 0.024 0.082 0.004 0.074-0.002 0.082-0.088 0.13s-0.274 0.114-0.304 0.108c-0.014-0.002-0.072 0.012-0.3 0.076-0.106 0.030-0.13 0.080-0.028 0.060 0.116-0.024 0.701 0.14 0.761 0.214 0.012 0.014 0.016 0.102 0.010 0.224l-0.012 0.202-0.082 0.058c-0.044 0.034-0.234 0.186-0.422 0.342-0.186 0.154-0.412 0.334-0.5 0.396-0.372 0.268-1.165 0.573-1.493 0.573-0.096 0-0.118-0.008-0.166-0.058-0.032-0.034-0.060-0.080-0.064-0.106-0.006-0.042-0.128-0.392-0.17-0.486-0.086-0.194-0.23-0.631-0.25-0.757-0.006-0.036-0.014-0.086-0.020-0.114-0.046-0.23-0.068-0.825-0.040-1.141 0.006-0.082 0.012-0.164 0.014-0.18 0.012-0.148 0.126-0.424 0.208-0.5 0.084-0.078 0.184-0.112 0.33-0.108 0.074 0.002 0.152 0.014 0.174 0.026zM19.091 17.029c0.11 0.048 0.134 0.074 0.194 0.204 0.074 0.158 0.070 0.372-0.008 0.519-0.080 0.156-0.196 0.216-0.406 0.218-0.244 0-0.238 0.004-0.302-0.288-0.032-0.138-0.050-0.262-0.044-0.272 0.006-0.012 0.002-0.020-0.008-0.020-0.014 0-0.022-0.050-0.022-0.126 0-0.116 0.004-0.126 0.056-0.152 0.252-0.126 0.39-0.146 0.541-0.082zM19.527 18.288c0.046 0.022 0.156 0.088 0.244 0.15 0.198 0.138 0.35 0.21 0.482 0.226l0.102 0.012v0.12c0 0.068-0.008 0.222-0.020 0.342-0.010 0.122-0.028 0.442-0.040 0.713-0.030 0.682-0.064 1.017-0.162 1.621-0.042 0.268-0.106 0.49-0.14 0.496-0.038 0.006-0.27-0.466-0.609-1.247-0.426-0.983-0.665-1.435-0.963-1.838-0.072-0.098-0.128-0.19-0.124-0.204 0.004-0.016 0.052-0.082 0.106-0.15l0.1-0.122 0.090 0.014c0.148 0.022 0.208 0.012 0.424-0.082 0.236-0.102 0.368-0.116 0.508-0.052zM21.387 18.641c0.15 0.040 0.326 0.134 0.444 0.238 0.12 0.106 0.246 0.266 0.246 0.312 0 0.040-0.596 1.077-0.951 1.653-0.338 0.551-0.801 1.213-0.863 1.237-0.040 0.016-0.036-0.012 0.032-0.274 0.144-0.563 0.26-1.391 0.33-2.356 0.016-0.226 0.030-0.484 0.030-0.577 0-0.162 0.002-0.166 0.056-0.186 0.212-0.082 0.472-0.1 0.675-0.048zM18.058 19.145c0.432 0.611 0.699 1.125 1.249 2.432 0.114 0.274 0.208 0.511 0.208 0.527 0 0.048-0.058 0.036-0.404-0.082-0.621-0.214-1.197-0.458-1.88-0.799-0.478-0.238-0.939-0.488-0.939-0.508 0-0.008 0.018-0.074 0.042-0.144 0.108-0.334 0.34-0.659 0.667-0.933 0.192-0.162 0.883-0.644 0.925-0.646 0.012 0 0.072 0.070 0.132 0.154zM25.608 22.012c0.206 0.1 0.414 0.306 0.513 0.51 0.126 0.26 0.26 0.713 0.454 1.513 0.080 0.332 0.090 0.402 0.1 0.681 0.008 0.27 0.004 0.332-0.032 0.487-0.104 0.44-0.356 0.779-0.697 0.939-0.334 0.158-1.177 0.222-1.609 0.124-0.11-0.024-0.138-0.038-0.138-0.068 0-0.064 0.256-0.144 0.737-0.232 0.386-0.070 0.563-0.11 0.575-0.13 0.010-0.016-0.028-0.028-0.24-0.080-0.126-0.032-0.765-0.032-1.131-0.002-0.148 0.014-0.416 0.030-0.594 0.036l-0.322 0.014-0.012-0.108c-0.006-0.060-0.040-0.388-0.074-0.729-0.086-0.881-0.176-1.453-0.29-1.852l-0.032-0.11 0.086-0.074c0.166-0.142 0.549-0.312 1.235-0.544 0.388-0.132 0.639-0.234 0.795-0.326 0.184-0.108 0.244-0.126 0.4-0.12 0.108 0.006 0.172 0.022 0.278 0.072zM22.277 23.045c0.076 0.046 0.264 0.556 0.35 0.941 0.098 0.44 0.18 1.271 0.166 1.688l-0.006 0.206-0.26 0.088c-0.142 0.048-0.316 0.094-0.384 0.1l-0.122 0.014-0.012-0.086c-0.006-0.048-0.026-0.228-0.042-0.398-0.018-0.17-0.086-0.657-0.152-1.081-0.12-0.779-0.198-1.343-0.198-1.431 0-0.046 0.008-0.048 0.156-0.056 0.206-0.012 0.474-0.002 0.504 0.016zM18.244 23.055c0.458 0.028 1.283 0.122 1.325 0.15 0.010 0.006 0.064 0.454 0.084 0.691 0.028 0.328 0.038 0.512 0.072 1.351 0.030 0.677 0.038 0.789 0.1 1.441 0.038 0.4 0.066 0.925 0.090 1.712 0.036 1.181 0.080 1.762 0.172 2.31 0.026 0.164 0.046 0.3 0.044 0.302-0.020 0.012-0.342 0.094-0.536 0.138-0.575 0.126-1.137 0.18-1.832 0.18-0.807-0.002-1.421-0.062-2.152-0.208-0.33-0.066-0.871-0.202-0.891-0.224-0.004-0.004-0.064-0.196-0.136-0.428-0.514-1.66-0.875-3.293-1.153-5.223-0.112-0.767-0.226-1.756-0.208-1.772 0.022-0.020 1.059-0.188 1.527-0.25 0.646-0.082 1.373-0.146 2.012-0.176 0.316-0.016 1.195-0.012 1.481 0.006zM20.96 23.185c0.108 0.402 0.18 0.985 0.276 2.242 0.034 0.428 0.068 0.853 0.078 0.941 0.012 0.104 0.012 0.164-0.002 0.172-0.020 0.012-0.576 0.114-0.951 0.174-0.15 0.024-0.226 0.028-0.226 0.016s-0.014-0.198-0.030-0.412c-0.066-0.879-0.092-1.453-0.104-2.258-0.006-0.464-0.006-0.845 0-0.845s0.068-0.014 0.136-0.032c0.15-0.038 0.424-0.064 0.646-0.060 0.16 0.002 0.16 0.002 0.176 0.062zM20.908 27.19c0.036 0.010 0.046 0.032 0.056 0.134 0.008 0.068 0.064 0.358 0.124 0.645 0.15 0.717 0.19 0.973 0.202 1.321l0.012 0.3-0.228 0.074c-0.126 0.040-0.272 0.082-0.328 0.094-0.11 0.022-0.45 0.052-0.45 0.040 0-0.004-0.018-0.3-0.042-0.659-0.022-0.358-0.046-0.919-0.052-1.247l-0.012-0.595h0.064c0.036 0 0.152-0.022 0.258-0.048 0.106-0.028 0.222-0.054 0.254-0.058 0.034-0.004 0.070-0.010 0.080-0.010 0.012-0.002 0.040 0.002 0.062 0.008z"></path>
<path d="M15.892 3.811c-0.168 0.028-0.404 0.134-0.631 0.284-0.19 0.124-0.498 0.436-0.626 0.633-0.172 0.262-0.284 0.612-0.254 0.793 0.014 0.080 0.106 0.198 0.154 0.198 0.014 0 0.062-0.074 0.106-0.166 0.17-0.348 0.431-0.685 0.669-0.861 0.138-0.102 0.354-0.2 0.536-0.244 0.114-0.028 0.2-0.032 0.43-0.024 0.156 0.006 0.306 0.016 0.332 0.024 0.038 0.012 0.048 0.004 0.074-0.058 0.048-0.112 0.038-0.196-0.034-0.304-0.14-0.208-0.458-0.324-0.757-0.274z"></path>
<path d="M22.358 5.973c0 0.272 0.066 0.54 0.244 0.985 0.054 0.136 0.096 0.266 0.092 0.29-0.010 0.064-0.19 0.108-0.543 0.132-0.31 0.022-0.34 0.026-0.488 0.064-0.078 0.020-0.086 0.028-0.086 0.082 0 0.192 0.138 0.368 0.332 0.426 0.314 0.090 0.853-0.074 1.137-0.344 0.174-0.168 0.172-0.156 0.030-0.392-0.116-0.19-0.348-0.655-0.59-1.181-0.054-0.12-0.104-0.216-0.112-0.216-0.010 0-0.016 0.070-0.016 0.154z"></path>
<path d="M17.243 5.937c-0.048 0.282 0.13 0.829 0.45 1.377 0.072 0.122 0.12 0.226 0.116 0.252-0.014 0.104-0.322 0.19-0.585 0.164-0.078-0.008-0.264-0.036-0.412-0.062-0.36-0.064-0.408-0.064-0.438 0.006-0.056 0.136-0.060 0.188-0.028 0.268 0.088 0.224 0.444 0.358 0.951 0.358 0.418 0 0.581-0.054 0.817-0.272 0.098-0.092 0.126-0.132 0.152-0.224 0.036-0.124 0.028-0.248-0.024-0.348-0.018-0.036-0.134-0.168-0.256-0.296-0.252-0.264-0.306-0.352-0.504-0.817-0.074-0.174-0.154-0.354-0.178-0.404l-0.046-0.088-0.014 0.086z"></path>
<path d="M19.831 6.301c-0.030 0.016-0.036 0.048-0.036 0.166 0 0.549 0.318 1.269 0.877 1.994 0.144 0.184 0.629 0.767 0.827 0.991 0.2 0.228 0.268 0.422 0.218 0.635-0.032 0.136-0.112 0.294-0.156 0.31-0.018 0.006-0.222 0.1-0.454 0.208-0.536 0.248-0.717 0.322-0.941 0.386-0.266 0.074-0.466 0.1-0.683 0.086-0.348-0.020-0.42-0.088-0.527-0.502-0.034-0.13-0.062-0.242-0.062-0.244 0-0.004-0.008-0.008-0.020-0.008-0.034 0-0.118 0.192-0.14 0.328-0.042 0.236 0.042 0.533 0.206 0.723l0.070 0.080 0.302 0.006c0.817 0.020 1.571-0.224 2.492-0.803l0.298-0.188 0.034-0.138c0.018-0.076 0.056-0.202 0.084-0.278 0.028-0.078 0.062-0.192 0.074-0.254 0.040-0.192 0.024-0.222-0.314-0.555-0.871-0.853-1.82-2.172-1.934-2.69-0.022-0.098-0.052-0.176-0.086-0.214-0.052-0.064-0.076-0.070-0.13-0.038z"></path>
<path d="M9.952 8.479c-0.192 0.066-0.336 0.222-0.412 0.45-0.048 0.14-0.044 0.148 0.042 0.070 0.12-0.116 0.164-0.138 0.278-0.138 0.056 0 0.11 0.008 0.116 0.020 0.006 0.010-0.012 0.094-0.042 0.184-0.044 0.138-0.056 0.212-0.064 0.438-0.010 0.314 0.022 0.516 0.114 0.709 0.118 0.246 0.116 0.25 0.126-0.272 0.010-0.408 0.016-0.484 0.054-0.603 0.070-0.218 0.206-0.31 0.372-0.256 0.1 0.034 0.178 0.134 0.314 0.412 0.068 0.138 0.152 0.282 0.188 0.324l0.064 0.074 0.014-0.138c0.062-0.574-0.264-1.119-0.767-1.273-0.158-0.048-0.262-0.050-0.398-0.002z"></path>
<path d="M22.247 11.256c-0.763 0.404-1.029 0.508-1.459 0.579-0.098 0.016-0.186 0.040-0.196 0.054-0.018 0.030-0.022 0.512-0.004 0.621 0.012 0.074 0.016 0.076 0.096 0.076 0.136 0 0.436-0.072 0.621-0.146 0.462-0.188 0.917-0.643 1.243-1.241 0.040-0.074 0.070-0.134 0.066-0.134-0.002 0-0.168 0.086-0.366 0.192z"></path>
<path d="M17.285 11.646c0.138 0.256 0.504 0.537 0.919 0.697 0.498 0.196 1.281 0.318 1.892 0.298l0.19-0.006-0.004-0.27c-0.002-0.148-0.012-0.31-0.020-0.36l-0.018-0.090-0.689-0.012c-1.133-0.020-1.716-0.11-2.29-0.348-0.032-0.014-0.030-0.002 0.020 0.092z"></path>
<path d="M16.858 12.247c-0.102 0.030-0.116 0.080-0.048 0.17 0.032 0.044 0.104 0.122 0.162 0.178 0.056 0.054 0.184 0.214 0.284 0.354s0.236 0.32 0.304 0.4c0.354 0.414 0.745 0.556 1.523 0.556 0.639 0 1.225-0.118 1.425-0.288 0.062-0.052 0.206-0.252 0.206-0.286 0-0.010-0.326-0.014-0.727-0.010-1.197 0.014-1.695-0.054-2.186-0.294-0.332-0.164-0.564-0.386-0.697-0.667-0.058-0.124-0.070-0.136-0.124-0.134-0.032 0-0.090 0.010-0.124 0.020z"></path>
<path d="M19.423 18.989c-0.12 0.072-0.136 0.248-0.034 0.35 0.148 0.148 0.386 0.040 0.386-0.176 0-0.060-0.014-0.090-0.068-0.144-0.080-0.080-0.184-0.092-0.284-0.030z"></path>
<path d="M19.725 20.048c-0.108 0.036-0.17 0.12-0.17 0.23 0 0.062 0.014 0.092 0.068 0.146 0.058 0.058 0.082 0.068 0.16 0.068 0.072 0 0.104-0.012 0.156-0.058 0.058-0.052 0.066-0.070 0.066-0.16 0-0.086-0.008-0.11-0.060-0.16-0.062-0.060-0.152-0.088-0.22-0.066z"></path>
<path d="M24.7 22.894c-0.492 0.088-0.893 0.288-1.121 0.561l-0.084 0.1h0.094c0.21 0 0.43-0.092 0.911-0.38 0.29-0.174 0.462-0.264 0.581-0.3 0.1-0.032-0.166-0.018-0.38 0.020z"></path>
<path d="M24.285 23.735c-0.14 0.026-0.304 0.092-0.376 0.15-0.050 0.042-0.056 0.054-0.030 0.072 0.044 0.030 0.707 0.006 1.171-0.042 0.21-0.022 0.398-0.040 0.42-0.042 0.066-0.004-0.168-0.072-0.37-0.106-0.228-0.040-0.671-0.058-0.815-0.032z"></path>
<path d="M24.105 24.566c-0.112 0.030-0.256 0.098-0.274 0.126s0.282 0.044 1.099 0.056c0.683 0.008 0.755 0.006 0.697-0.020-0.094-0.044-0.446-0.128-0.677-0.162-0.252-0.038-0.704-0.038-0.845 0z"></path>
</svg>
