<!-- Generated by IcoMoon.io -->
<svg version="1.1" xmlns="http://www.w3.org/2000/svg" width="32" height="32" viewBox="0 0 32 32">
<title>jira-sp</title>
<path d="M9.109 1.916c-1.159 0-2.098 0.938-2.098 2.1 0 1.159 0.939 2.1 2.098 2.1 1.161 0 2.098-0.941 2.098-2.1 0-1.162-0.938-2.1-2.098-2.1z"></path>
<path d="M22.892 1.916c-1.16 0-2.097 0.938-2.097 2.1 0 1.159 0.937 2.1 2.097 2.1 1.157 0 2.098-0.941 2.098-2.1 0-1.162-0.941-2.098-2.098-2.1z"></path>
<path d="M16.001 0c-1.159 0-2.098 0.937-2.098 2.1 0 1.159 0.939 2.1 2.098 2.1s2.098-0.941 2.098-2.1c0-1.163-0.938-2.1-2.098-2.1z"></path>
<path d="M27.218 7.676c-1.421 0.543-2.863 0.956-4.18 1.262-0.269 0.063-0.486 0.262-0.575 0.502-0.959 2.628-3.409 5.13-5.979 7.751-0.103 0.099-0.247 0.227-0.483 0.227s-0.378-0.125-0.483-0.227c-2.57-2.621-5.019-5.114-5.979-7.742-0.090-0.239-0.307-0.439-0.575-0.502-1.317-0.307-2.764-0.732-4.183-1.275-0.076-0.029-0.156-0.043-0.235-0.043-0.143 0-0.28 0.045-0.397 0.134-0.182 0.139-0.277 0.364-0.255 0.58 0.218 2.185 1.081 4.321 2.639 6.56 1.465 2.105 3.375 4.053 5.222 5.937 3.404 3.472 6.619 6.75 6.901 10.552 0.025 0.343 0.311 0.609 0.656 0.609h3.999c0.18 0 0.352-0.074 0.476-0.204s0.189-0.305 0.18-0.485c-0.126-2.542-1.082-5.088-2.924-7.782-0.386-0.565-0.8-1.114-1.232-1.652-0.175-0.219-0.102-0.491 0.032-0.628 0.133-0.136 0.266-0.272 0.4-0.409 1.847-1.884 3.757-3.832 5.223-5.937 1.558-2.239 2.421-4.363 2.639-6.548z"></path>
<path d="M11.711 23.796c-0.094-0.099-0.234-0.2-0.467-0.2-0.298 0-0.476 0.206-0.542 0.309-1.682 2.559-2.551 4.975-2.671 7.403-0.009 0.179 0.057 0.357 0.181 0.487s0.298 0.205 0.478 0.205h3.992c0.343 0 0.633-0.268 0.658-0.611 0.087-1.17 0.451-2.343 1.114-3.575 0.23-0.426 0.051-0.827-0.081-0.998-0.658-0.856-1.464-1.768-2.663-3.019z"></path>
<path d="M16.005 9.726c1.253 0 1.98-0.075 2.235-0.075 0.309 0 0.605 0.253 0.605 0.608 0 0.104-0.024 0.177-0.049 0.243-0.166 0.444-0.924 2.043-2.334 3.414-0.158 0.154-0.338 0.183-0.461 0.183h-0.001c-0.123 0-0.302-0.029-0.46-0.183-1.41-1.371-2.168-2.97-2.334-3.414-0.025-0.065-0.049-0.139-0.049-0.243 0-0.355 0.296-0.608 0.605-0.608 0.255 0 0.982 0.075 2.235 0.075h0.008z"></path>
</svg>
