<!-- Generated by IcoMoon.io -->
<svg version="1.1" xmlns="http://www.w3.org/2000/svg" width="31" height="32" viewBox="0 0 31 32">
<title>joget</title>
<path d="M23.631 2.813c-2.531-1.569-5.344-2.313-8.119-2.313-5.2 0-10.275 2.619-13.206 7.369-4.494 7.287-2.225 16.831 5.063 21.325s16.831 2.225 21.325-5.056c4.494-7.288 2.225-16.837-5.063-21.325zM26.869 23.012c-2.525 4.094-6.9 6.344-11.375 6.344-0.425 0-0.85-0.025-1.275-0.063-0.563-0.85-1.244-2.081-1.481-2.65-0.356-0.856-1.7-2.85 1.95-4.194 3.231-1.194 11.044-1.031 13.050-1.1-0.25 0.563-0.538 1.119-0.869 1.663zM14.319 17.619c-3.469-0.087-5.106-1.3-3.656-3.012s3.194-2.544 4.306-3.2c1.119-0.656 1.706-2.106-1.475-1.856-8.037 0.544-10.456 6.206-11.144 8.762-0.55-3.106-0.006-6.419 1.781-9.319 3.869-6.281 12.094-8.231 18.375-4.362 4.675 2.881 6.95 8.181 6.206 13.294-1.556-0.031-11.206-0.225-14.394-0.306zM25.806 14.194c-1.419-0.375-3.563 0.706-5.419 1.7-1.856 0.987-1.944 0.513-1.944 0.513s2.512-1.756 3.169-2.156 1.994-0.875 0.837-1.537c-0.2-0.113-0.419-0.169-0.65-0.169-1.113 0-2.594 1.169-4.219 2.225-1.969 1.281-4.081 1.956-4.081 1.956l10.594-0.1 2.906-1.463s0.225-0.594-1.194-0.969z"></path>
</svg>
