<!-- Generated by IcoMoon.io -->
<svg version="1.1" xmlns="http://www.w3.org/2000/svg" width="36" height="32" viewBox="0 0 36 32">
<title>jsfiddle</title>
<path d="M31.915 14.841c-0.295-0.164-0.354-0.359-0.399-0.674-0.147-1.030-0.221-2.101-0.569-3.068-2.243-6.247-9.624-8.962-15.428-5.728-1.711 0.953-3.061 2.273-4.093 3.994-0.199-0.094-0.341-0.169-0.489-0.23-1.881-0.776-3.691-0.633-5.333 0.573-1.596 1.171-2.276 2.784-2.042 4.775 0.022 0.189-0.123 0.476-0.282 0.597-2.482 1.874-3.502 4.879-2.619 7.788 0.864 2.848 3.595 4.987 6.601 5.090 1.893 0.064 3.79 0.034 5.685 0.034 5.253-0.001 10.506 0.033 15.758-0.030 3.291-0.040 6.007-2.305 6.763-5.456 0.721-3.005-0.697-6.081-3.552-7.665zM33.234 24.646c-1.139 1.402-2.646 2.203-4.455 2.228-3.555 0.049-7.11 0.014-10.666 0.014 0 0.044-10.189 0.010-10.233 0.010-2.741-0.021-4.796-1.235-5.948-3.75-1.181-2.578-0.25-5.678 2.137-7.257 0.574-0.38 0.782-0.723 0.631-1.446-0.343-1.648 0.278-2.997 1.651-3.936 1.437-0.983 2.964-1.009 4.502-0.193 0.642 0.341 0.913 0.723 1.387-0.158 0.889-1.65 2.16-2.92 3.792-3.831 6.091-3.398 14.273 0.473 14.39 8.294 0.008 0.509 0.151 0.777 0.616 0.993 3.598 1.677 4.654 6.008 2.196 9.031zM27.747 19.615c-0.366 1.947-2.164 3.444-4.167 3.443-1.060-0-2.004-0.409-2.755-1.107-1.731-1.607-4.446-4.686-5.996-5.837-1.254-0.931-2.624-0.771-3.767 0.236-3.125 2.754 0.991 7.611 4.191 4.824 0.284-0.247 0.49-0.596 0.796-0.803 0.512-0.344 1.298-0.055 0.823 0.664-1.085 1.643-3.083 2.387-4.929 1.831-1.806-0.544-3.053-2.248-3.039-4.386 0.077-1.405 0.773-2.691 2.213-3.498 1.411-0.79 2.898-0.822 4.187 0.155 3.174 2.405 4.724 5.109 6.706 6.328 1.535 0.944 3.391 0.46 4.301-1.094 1.802-3.076-2.162-6.564-4.929-3.966-0.249 0.234-0.432 0.558-0.713 0.733-0.686 0.426-1.083-0.257-0.801-0.647 1.294-1.785 3.154-2.527 5.204-1.763 1.964 0.732 3.069 2.773 2.672 4.887z"></path>
</svg>
