<!-- Generated by IcoMoon.io -->
<svg version="1.1" xmlns="http://www.w3.org/2000/svg" width="24" height="32" viewBox="0 0 24 32">
<title>kickstarter-k</title>
<path d="M9.206 7.15c0-3.513-2.031-5.15-4.588-5.15-2.981 0-4.619 2.263-4.619 5.088v17.688c0 2.956 1.581 5.212 4.681 5.212 2.487 0 4.525-1.6 4.525-5.212v-4.781l7.006 8.644c1.419 1.7 4.506 1.919 6.45 0 1.688-1.725 1.706-4.213 0.462-5.762l-5.675-7.175 4.681-6.713c1.087-1.544 1.094-3.944-0.65-5.612-1.894-1.813-5.15-1.975-7.1 0.8l-5.175 7.388v-4.412z"></path>
</svg>
