<!-- Generated by IcoMoon.io -->
<svg version="1.1" xmlns="http://www.w3.org/2000/svg" width="28" height="32" viewBox="0 0 28 32">
<title>kickstarter</title>
<path d="M25 30h-22c-1.65 0-3-1.35-3-3v-22c0-1.65 1.35-3 3-3h22c1.65 0 3 1.35 3 3v22c0 1.65-1.35 3-3 3zM12.475 11.156c0-1.919-1.1-2.819-2.481-2.819-1.613 0-2.5 1.238-2.5 2.781v9.675c0 1.613 0.856 2.85 2.531 2.85 1.344 0 2.45-0.875 2.45-2.85v-2.613l3.788 4.731c0.769 0.931 2.438 1.050 3.488 0 0.913-0.944 0.925-2.3 0.25-3.15l-3.069-3.925 2.531-3.669c0.587-0.844 0.594-2.156-0.35-3.069-1.025-0.994-2.788-1.081-3.838 0.438l-2.8 4.044v-2.425z"></path>
</svg>
