<!-- Generated by IcoMoon.io -->
<svg version="1.1" xmlns="http://www.w3.org/2000/svg" width="32" height="32" viewBox="0 0 32 32">
<title>latex</title>
<path d="M0 16v16h32v-32h-32v16zM9.725 13.75c0.669 1.6 1.294 3.019 1.387 3.156 0.125 0.188 0.244 0.275 0.469 0.344 0.162 0.050 0.294 0.131 0.294 0.169 0 0.063-0.3 0.081-1.281 0.081-1.1 0-1.281-0.012-1.281-0.094 0-0.063 0.063-0.094 0.181-0.094 0.106 0 0.262-0.063 0.356-0.144 0.213-0.181 0.188-0.331-0.181-1.2l-0.269-0.625-1.256-0.019-1.25-0.012-0.237 0.544c-0.3 0.688-0.412 1.056-0.362 1.181 0.044 0.125 0.35 0.275 0.55 0.275 0.1 0 0.156 0.038 0.156 0.094 0 0.081-0.15 0.094-1 0.094-0.769 0-1-0.019-1-0.081 0-0.044 0.119-0.119 0.263-0.169 0.375-0.131 0.481-0.325 1.675-3.137 1.306-3.069 1.419-3.319 1.506-3.287 0.031 0.012 0.613 1.331 1.281 2.925zM17.375 11.3c0 0.275 0.019 0.706 0.038 0.969 0.044 0.45 0.038 0.481-0.081 0.481-0.094 0-0.137-0.069-0.2-0.331-0.1-0.438-0.337-0.762-0.681-0.925-0.238-0.119-0.425-0.144-1.119-0.169l-0.831-0.031v3.588c0 2.744 0.019 3.625 0.081 3.744 0.106 0.212 0.456 0.375 0.813 0.375 0.256 0 0.3 0.019 0.281 0.106-0.019 0.106-0.162 0.113-1.819 0.131-1.719 0.012-1.794 0.012-1.794-0.1 0-0.1 0.063-0.125 0.369-0.156 0.431-0.038 0.662-0.169 0.75-0.431 0.044-0.131 0.069-1.369 0.069-3.725v-3.525l-0.856 0.025c-0.931 0.025-1.094 0.075-1.406 0.406-0.181 0.188-0.363 0.625-0.363 0.869 0 0.113-0.037 0.15-0.137 0.15-0.131 0-0.131-0.012-0.094-0.706 0.025-0.381 0.044-0.819 0.044-0.969v-0.262h6.938v0.488zM25.75 10.931c0 0.088-0.063 0.125-0.262 0.15-0.306 0.044-0.575 0.225-0.6 0.406-0.012 0.069 0.044 0.25 0.119 0.4 0.113 0.213 1.306 2.056 1.413 2.175 0.038 0.037 0.238-0.194 1.15-1.363 0.788-1.019 0.856-1.169 0.631-1.45-0.081-0.1-0.2-0.15-0.438-0.175-0.262-0.025-0.325-0.050-0.325-0.144 0-0.113 0.075-0.119 1.469-0.119 1.4 0 1.469 0.006 1.469 0.119 0 0.088-0.063 0.125-0.275 0.156-0.325 0.050-0.738 0.3-1.094 0.669-0.35 0.369-2.194 2.725-2.194 2.813 0 0.125 2.244 3.4 2.594 3.788 0.331 0.369 0.569 0.506 1.050 0.606 0.094 0.025 0.169 0.081 0.169 0.131 0 0.081-0.256 0.094-1.813 0.094-1.563 0-1.813-0.012-1.813-0.094 0-0.063 0.094-0.106 0.262-0.131 0.325-0.056 0.55-0.269 0.55-0.519 0-0.131-0.244-0.556-0.881-1.519-0.488-0.731-0.906-1.331-0.931-1.331-0.050 0-1.45 1.762-1.913 2.406-0.262 0.369-0.281 0.625-0.050 0.806 0.094 0.075 0.231 0.131 0.313 0.131 0.206 0 0.337 0.063 0.337 0.163 0 0.069-0.181 0.087-0.856 0.1l-0.85 0.019-0.175 0.531c-0.1 0.294-0.25 0.738-0.344 0.981l-0.163 0.456h-3.119c-2.731 0-3.119-0.012-3.119-0.094 0-0.063 0.063-0.094 0.194-0.094 0.319 0 0.681-0.137 0.813-0.3 0.119-0.156 0.119-0.262 0.106-3.594l-0.019-3.431-0.175-0.15c-0.144-0.125-0.244-0.15-0.55-0.15-0.325 0-0.369-0.012-0.369-0.125 0-0.125 0.044-0.125 3.119-0.125h3.113l0.038 0.512c0.025 0.287 0.044 0.681 0.044 0.875 0 0.313-0.019 0.363-0.113 0.363-0.087 0-0.137-0.075-0.194-0.331-0.094-0.425-0.262-0.7-0.519-0.838-0.181-0.1-0.406-0.113-1.688-0.131l-1.488-0.025v3.2h1.144c0.956 0 1.169-0.019 1.35-0.113 0.294-0.144 0.444-0.369 0.494-0.738 0.031-0.219 0.075-0.313 0.156-0.325 0.1-0.019 0.106 0.081 0.106 1.387 0 1.337-0.006 1.413-0.119 1.413-0.087 0-0.125-0.063-0.15-0.281-0.056-0.387-0.194-0.631-0.438-0.762-0.163-0.094-0.406-0.113-1.369-0.131l-1.175-0.025v1.606c0 1.575 0.025 1.794 0.212 1.919 0.113 0.075 2.45 0.056 2.756-0.019 0.369-0.094 0.738-0.425 1.106-0.994l0.313-0.469-0.544-0.019c-0.456-0.012-0.538-0.031-0.519-0.119 0.012-0.056 0.131-0.125 0.306-0.169 0.337-0.087 0.738-0.319 1.1-0.631 0.419-0.356 2.6-3.144 2.556-3.256-0.1-0.269-1.931-2.856-2.275-3.219-0.406-0.431-0.769-0.637-1.256-0.719-0.194-0.031-0.256-0.069-0.256-0.156 0-0.113 0.087-0.119 1.938-0.119s1.938 0.006 1.938 0.119zM5.188 10.963c0 0.063-0.119 0.1-0.388 0.131-0.438 0.050-0.644 0.137-0.831 0.344-0.119 0.137-0.125 0.225-0.125 3.537v3.394l0.144 0.144c0.138 0.137 0.175 0.144 1.406 0.144 0.9 0 1.35-0.025 1.563-0.087 0.444-0.125 0.906-0.575 1.2-1.163 0.162-0.313 0.275-0.469 0.35-0.469 0.094 0 0.069 0.113-0.175 0.887-0.156 0.494-0.319 1.006-0.356 1.144l-0.075 0.25h-3.244c-3.044 0-3.25-0.006-3.269-0.113-0.019-0.087 0.025-0.106 0.269-0.106 0.35 0 0.687-0.15 0.831-0.369 0.094-0.144 0.106-0.481 0.106-3.537 0-1.856-0.019-3.45-0.050-3.544-0.069-0.25-0.356-0.419-0.788-0.463-0.262-0.031-0.381-0.069-0.381-0.125 0-0.075 0.344-0.088 1.906-0.088 1.594 0 1.906 0.012 1.906 0.088zM7.606 13.637c-0.3 0.688-0.537 1.269-0.525 1.281s0.506 0.012 1.094 0.006l1.063-0.019-0.519-1.244c-0.287-0.681-0.537-1.25-0.55-1.262s-0.269 0.544-0.563 1.238z"></path>
</svg>
