<!-- Generated by IcoMoon.io -->
<svg version="1.1" xmlns="http://www.w3.org/2000/svg" width="32" height="32" viewBox="0 0 32 32">
<title>linux</title>
<path d="M15.516 7.819c0 0.106-0.106 0.106-0.106 0.106h-0.106c-0.106 0-0.106-0.106-0.212-0.212 0 0-0.106-0.106-0.106-0.212s0-0.106 0.106-0.106l0.212 0.106c0.106 0.106 0.212 0.212 0.212 0.318zM13.609 6.76c0-0.53-0.212-0.848-0.53-0.848 0 0 0 0.106-0.106 0.106v0.212h0.318c0 0.212 0.106 0.318 0.106 0.53h0.212zM17.317 6.23c0.212 0 0.318 0.212 0.424 0.53h0.212c-0.106-0.106-0.106-0.212-0.106-0.318s0-0.212-0.106-0.318-0.212-0.212-0.318-0.212c0 0-0.106 0.106-0.212 0.106 0 0.106 0.106 0.106 0.106 0.212zM14.139 7.925c-0.106 0-0.106 0-0.106-0.106s0-0.212 0.106-0.318c0.212 0 0.318-0.106 0.318-0.106 0.106 0 0.106 0.106 0.106 0.106 0 0.106-0.106 0.212-0.318 0.424h-0.106zM12.973 7.819c-0.424-0.212-0.53-0.53-0.53-1.060 0-0.318 0-0.53 0.212-0.742 0.106-0.212 0.318-0.318 0.53-0.318s0.318 0.106 0.53 0.318c0.106 0.318 0.212 0.636 0.212 0.954v0.212h0.106v-0.106c0.106 0 0.106-0.212 0.106-0.636 0-0.318 0-0.636-0.212-0.954s-0.424-0.53-0.848-0.53c-0.318 0-0.636 0.212-0.742 0.53-0.212 0.424-0.254 0.742-0.254 1.271 0 0.424 0.148 0.848 0.572 1.271 0.106-0.106 0.212-0.106 0.318-0.212zM26.217 22.758c0.106 0 0.106-0.042 0.106-0.138 0-0.233-0.106-0.509-0.424-0.816-0.318-0.318-0.848-0.519-1.483-0.604-0.106-0.011-0.212-0.011-0.212-0.011-0.106-0.021-0.106-0.021-0.212-0.021-0.106-0.011-0.318-0.032-0.424-0.053 0.318-0.985 0.424-1.854 0.424-2.617 0-1.060-0.212-1.801-0.636-2.437s-0.848-0.954-1.377-1.059c-0.106 0.106-0.106 0.106-0.106 0.212 0.53 0.212 1.059 0.636 1.377 1.271 0.318 0.742 0.424 1.377 0.424 2.119 0 0.593-0.106 1.473-0.53 2.596-0.424 0.169-0.848 0.561-1.165 1.176 0 0.095 0 0.148 0.106 0.148 0 0 0.106-0.095 0.212-0.276 0.212-0.18 0.318-0.36 0.53-0.54 0.318-0.18 0.53-0.276 0.848-0.276 0.53 0 1.059 0.074 1.377 0.223 0.424 0.138 0.636 0.286 0.742 0.456 0.106 0.159 0.212 0.307 0.318 0.445 0 0.138 0.106 0.201 0.106 0.201zM16.469 7.395c-0.106-0.106-0.106-0.318-0.106-0.53 0-0.424 0-0.636 0.212-0.954 0.212-0.212 0.424-0.318 0.636-0.318 0.318 0 0.53 0.212 0.742 0.424 0.106 0.318 0.212 0.53 0.212 0.848 0 0.53-0.212 0.848-0.636 0.954 0 0 0.106 0.106 0.212 0.106 0.212 0 0.318 0.106 0.53 0.212 0.106-0.636 0.212-1.059 0.212-1.589 0-0.636-0.106-1.059-0.318-1.377-0.318-0.318-0.636-0.424-1.059-0.424-0.318 0-0.636 0.106-0.954 0.318-0.212 0.318-0.318 0.53-0.318 0.848 0 0.53 0.106 0.954 0.318 1.377 0.106 0 0.212 0.106 0.318 0.106zM17.741 9.091c-1.377 0.954-2.437 1.377-3.284 1.377-0.742 0-1.483-0.318-2.119-0.848 0.106 0.212 0.212 0.424 0.318 0.53l0.636 0.636c0.424 0.424 0.954 0.636 1.483 0.636 0.742 0 1.589-0.424 2.649-1.165l0.954-0.636c0.212-0.212 0.424-0.424 0.424-0.742 0-0.106 0-0.212-0.106-0.212-0.106-0.212-0.636-0.53-1.695-0.848-0.954-0.424-1.695-0.636-2.119-0.636-0.318 0-0.848 0.212-1.589 0.636-0.636 0.424-1.059 0.848-1.059 1.271 0 0 0.106 0.106 0.212 0.318 0.636 0.53 1.271 0.848 1.907 0.848 0.848 0 1.907-0.424 3.284-1.483v0.212c0.106-0 0.106 0.106 0.106 0.106zM20.178 30.492c0.424 0.797 1.165 1.197 2.013 1.197 0.212 0 0.424-0.032 0.636-0.095 0.212-0.042 0.424-0.117 0.53-0.201 0.106-0.074 0.212-0.148 0.318-0.233 0.212-0.074 0.212-0.127 0.318-0.18l1.801-1.557c0.424-0.338 0.848-0.634 1.377-0.89 0.424-0.254 0.848-0.424 1.059-0.519 0.318-0.085 0.53-0.212 0.742-0.381 0.106-0.159 0.212-0.36 0.212-0.615 0-0.307-0.212-0.54-0.424-0.71s-0.424-0.286-0.636-0.36-0.424-0.244-0.742-0.53c-0.212-0.276-0.424-0.657-0.53-1.155l-0.106-0.614c-0.106-0.286-0.106-0.498-0.212-0.615 0-0.032 0-0.042-0.106-0.042s-0.318 0.095-0.424 0.276c-0.212 0.18-0.424 0.381-0.636 0.593-0.106 0.212-0.424 0.403-0.636 0.583-0.318 0.18-0.636 0.276-0.848 0.276-0.848 0-1.271-0.233-1.589-0.689-0.212-0.339-0.318-0.731-0.424-1.176-0.212-0.18-0.318-0.275-0.53-0.275-0.53 0-0.742 0.551-0.742 1.663v3.295c0 0.095-0.106 0.307-0.106 0.636-0.106 0.328-0.106 0.701-0.106 1.123l-0.212 1.176v0.018zM4.815 29.929c0.985 0.144 2.119 0.452 3.401 0.923 1.282 0.466 2.066 0.71 2.352 0.71 0.742 0 1.356-0.328 1.865-0.963 0.106-0.206 0.106-0.447 0.106-0.725 0-1.001-0.604-2.267-1.812-3.804l-0.72-0.964c-0.148-0.201-0.328-0.509-0.562-0.922-0.223-0.413-0.424-0.731-0.583-0.954-0.138-0.244-0.36-0.487-0.646-0.731-0.276-0.244-0.593-0.403-0.943-0.487-0.445 0.085-0.752 0.233-0.901 0.434s-0.233 0.424-0.254 0.657c-0.032 0.223-0.095 0.371-0.201 0.445-0.106 0.064-0.286 0.117-0.53 0.17-0.053 0-0.148 0-0.286 0.011h-0.286c-0.562 0-0.943 0.064-1.144 0.169-0.265 0.307-0.403 0.657-0.403 1.028 0 0.169 0.042 0.456 0.127 0.858 0.085 0.392 0.127 0.71 0.127 0.932 0 0.434-0.127 0.869-0.392 1.303-0.265 0.456-0.403 0.795-0.403 1.036 0.106 0.411 0.805 0.7 2.087 0.87zM8.343 20.295c0-0.731 0.191-1.536 0.583-2.49 0.381-0.954 0.763-1.589 1.134-2.013-0.021-0.106-0.074-0.106-0.159-0.106l-0.106-0.106c-0.307 0.318-0.678 1.059-1.123 2.119-0.445 0.954-0.678 1.833-0.678 2.479 0 0.477 0.117 0.89 0.328 1.25 0.233 0.35 0.795 0.858 1.685 1.505l1.123 0.731c1.197 1.038 1.833 1.759 1.833 2.183 0 0.223-0.106 0.445-0.424 0.689-0.212 0.254-0.498 0.381-0.742 0.381-0.021 0-0.032 0.021-0.032 0.074 0 0.011 0.106 0.223 0.328 0.636 0.445 0.604 1.399 0.901 2.67 0.901 2.331 0 4.132-0.954 5.509-2.861 0-0.53 0-0.858-0.106-0.996v-0.392c0-0.689 0.106-1.208 0.318-1.547s0.424-0.498 0.742-0.498c0.212 0 0.424 0.074 0.636 0.233 0.106-0.816 0.106-1.526 0.106-2.161 0-0.964 0-1.759-0.212-2.5-0.106-0.636-0.318-1.165-0.53-1.589-0.212-0.318-0.424-0.636-0.636-0.953s-0.318-0.636-0.53-0.954c-0.106-0.424-0.212-0.742-0.212-1.271-0.318-0.53-0.53-1.059-0.848-1.589-0.212-0.53-0.424-1.059-0.636-1.483l-0.954 0.742c-1.059 0.742-1.907 1.059-2.649 1.059-0.636 0-1.166-0.106-1.483-0.53l-0.636-0.53c0 0.318-0.106 0.742-0.318 1.165l-0.667 1.271c-0.297 0.742-0.456 1.165-0.487 1.483-0.042 0.212-0.074 0.424-0.095 0.424l-0.795 1.589c-0.858 1.589-1.293 3.062-1.293 4.28 0 0.244 0.021 0.498 0.064 0.752-0.477-0.328-0.71-0.784-0.71-1.377zM15.929 30.317c-1.377 0-2.437 0.186-3.178 0.556v-0.032c-0.53 0.636-1.123 0.964-1.95 0.964-0.519 0-1.335-0.201-2.437-0.604-1.112-0.381-2.098-0.674-2.956-0.867-0.085-0.024-0.276-0.060-0.583-0.109-0.297-0.048-0.572-0.096-0.816-0.145-0.222-0.048-0.477-0.12-0.752-0.217-0.265-0.084-0.477-0.193-0.636-0.325-0.146-0.134-0.218-0.284-0.218-0.453s0.036-0.351 0.108-0.544c0.068-0.117 0.142-0.233 0.216-0.339 0.074-0.116 0.138-0.222 0.18-0.328 0.064-0.095 0.106-0.191 0.148-0.297 0.042-0.095 0.085-0.191 0.106-0.307 0.021-0.106 0.042-0.212 0.042-0.318s-0.042-0.424-0.127-0.985c-0.085-0.551-0.127-0.901-0.127-1.049 0-0.466 0.106-0.837 0.339-1.102s0.456-0.403 0.689-0.403h1.218c0.095 0 0.244-0.053 0.466-0.18 0.074-0.169 0.138-0.307 0.18-0.434 0.053-0.127 0.074-0.222 0.095-0.265 0.021-0.064 0.042-0.127 0.064-0.18 0.042-0.074 0.095-0.159 0.17-0.244-0.085-0.106-0.127-0.244-0.127-0.413 0-0.117 0-0.223 0.021-0.286 0-0.381 0.18-0.922 0.561-1.632l0.371-0.668c0.307-0.572 0.54-0.996 0.71-1.42 0.18-0.424 0.371-1.059 0.583-1.907 0.17-0.742 0.572-1.483 1.208-2.225l0.795-0.954c0.551-0.636 0.911-1.166 1.113-1.589s0.307-0.954 0.307-1.377c0-0.212-0.053-0.848-0.17-1.907-0.106-1.059-0.159-2.119-0.159-3.072 0-0.742 0.064-1.271 0.201-1.801s0.381-1.060 0.742-1.483c0.318-0.424 0.742-0.848 1.377-1.059s1.377-0.318 2.225-0.318c0.318 0 0.636 0 0.954 0.106 0.318 0 0.742 0.106 1.271 0.318 0.424 0.212 0.848 0.424 1.166 0.742 0.424 0.318 0.742 0.848 1.059 1.377 0.212 0.636 0.424 1.271 0.53 2.119 0.106 0.53 0.106 1.059 0.212 1.801 0 0.636 0.106 1.059 0.106 1.377 0.106 0.318 0.106 0.742 0.212 1.271 0.106 0.424 0.212 0.848 0.424 1.165 0.212 0.424 0.424 0.848 0.742 1.271 0.318 0.53 0.742 1.059 1.165 1.695 0.954 1.059 1.695 2.225 2.119 3.39 0.53 1.059 0.848 2.437 0.848 3.91 0 0.731-0.106 1.441-0.318 2.13 0.212 0 0.318 0.085 0.424 0.233s0.212 0.466 0.318 0.964l0.106 0.784c0.106 0.233 0.212 0.456 0.53 0.646 0.212 0.191 0.424 0.35 0.742 0.477 0.212 0.106 0.53 0.254 0.742 0.445 0.212 0.212 0.318 0.434 0.318 0.667 0 0.36-0.106 0.625-0.318 0.816-0.212 0.212-0.424 0.36-0.742 0.456-0.212 0.106-0.636 0.318-1.271 0.617-0.53 0.314-1.059 0.694-1.589 1.144l-1.059 0.902c-0.424 0.413-0.848 0.71-1.166 0.89-0.318 0.191-0.742 0.286-1.165 0.286l-0.742-0.085c-0.848-0.223-1.377-0.646-1.695-1.293-1.695-0.206-3.073-0.307-3.92-0.307z"></path>
</svg>
