<!-- Generated by IcoMoon.io -->
<svg version="1.1" xmlns="http://www.w3.org/2000/svg" width="28" height="32" viewBox="0 0 28 32">
<title>medium</title>
<path d="M0 2v28h28v-28h-28zM23.262 8.631l-1.5 1.438c-0.131 0.1-0.194 0.262-0.169 0.419v10.581c-0.025 0.163 0.038 0.325 0.169 0.419l1.469 1.438v0.319h-7.375v-0.306l1.519-1.475c0.15-0.15 0.15-0.194 0.15-0.419v-8.556l-4.225 10.725h-0.569l-4.919-10.725v7.188c-0.044 0.3 0.063 0.606 0.275 0.825l1.975 2.394v0.319h-5.612v-0.319l1.975-2.394c0.213-0.219 0.306-0.525 0.256-0.825v-8.313c0.025-0.231-0.063-0.456-0.237-0.613l-1.756-2.119v-0.319h5.456l4.213 9.25 3.706-9.244h5.2v0.313z"></path>
</svg>
