<!-- Generated by IcoMoon.io -->
<svg version="1.1" xmlns="http://www.w3.org/2000/svg" width="40" height="32" viewBox="0 0 40 32">
<title>mendeley</title>
<path d="M39.038 20.325c-0.769-0.775-1.856-1.2-3.025-1.075-2.706-0.063-3.106-2.181-2.344-6.175 1.425-3.594-0.931-8.219-5.462-8.175-4.837 0.044-5.106 5.125-8.181 5.125-3.006 0-3.375-5.081-8.181-5.125-4.556-0.050-6.881 4.581-5.463 8.175 0.763 3.994 0.362 6.113-2.344 6.175-1.325-0.144-2.313 0.406-3.313 1.406-1.244 1.231-1.206 5.925 2.663 6.413 2.944 0.369 5.1-2.681 3.825-5.488-2.956-6.481 11.619-6.631 9.156-0.512-0.006 0.006-0.012 0.012-0.019 0.025-1.675 2.675 0.425 6.087 3.675 5.95 3.256 0.131 5.337-3.288 3.675-5.95-0.006-0.012-0.012-0.019-0.019-0.025-2.462-6.119 12.112-5.969 9.156 0.512-0.288 0.625-0.419 1.331-0.356 2.063 0.306 3.337 4.294 4.631 6.556 2.2 1.112-0.925 1.444-4.1 0-5.519zM20.044 19.131h-0.038c-2.712 0-3.925-2.344-3.925-3.925 0-2.169 1.762-3.925 3.925-3.925h0.038c2.169 0 3.925 1.756 3.925 3.925 0 1.563-1.2 3.925-3.925 3.925z"></path>
</svg>
