<!-- Generated by IcoMoon.io -->
<svg version="1.1" xmlns="http://www.w3.org/2000/svg" width="32" height="32" viewBox="0 0 32 32">
<title>messenger</title>
<path d="M16.034 0.5c-8.752 0-15.534 6.396-15.534 15.036 0 4.519 1.857 8.424 4.879 11.121 0.522 0.469 0.414 0.741 0.503 3.639 0.024 0.669 0.572 1.202 1.244 1.202 0.18 0 0.351-0.038 0.506-0.107l-0.008 0.003c3.307-1.456 3.349-1.571 3.91-1.419 9.581 2.637 19.965-3.494 19.965-14.44 0-8.639-6.713-15.036-15.466-15.036zM25.362 12.071l-4.563 7.223c-0.421 0.656-1.147 1.085-1.972 1.085-0.527 0-1.012-0.174-1.403-0.468l0.006 0.004-3.63-2.717c-0.155-0.117-0.35-0.188-0.563-0.188s-0.408 0.070-0.565 0.189l0.002-0.002-4.898 3.715c-0.654 0.496-1.51-0.288-1.069-0.979l4.562-7.223c0.421-0.656 1.146-1.085 1.972-1.085 0.527 0 1.013 0.174 1.403 0.469l-0.006-0.004 3.629 2.716c0.155 0.117 0.35 0.188 0.563 0.188s0.408-0.070 0.565-0.189l-0.002 0.002 4.901-3.711c0.652-0.499 1.509 0.284 1.068 0.976z"></path>
</svg>
