<!-- Generated by IcoMoon.io -->
<svg version="1.1" xmlns="http://www.w3.org/2000/svg" width="32" height="32" viewBox="0 0 32 32">
<title>mitlicence</title>
<path d="M14.818 0.091c-1.664 0.188-2.652 0.388-3.841 0.782-5.48 1.802-9.603 6.468-10.697 12.105-0.432 2.246-0.363 4.704 0.206 6.944 1.433 5.668 5.899 10.141 11.548 11.561 1.501 0.382 2.058 0.444 3.91 0.444 1.87 0 2.352-0.050 3.847-0.407 6.124-1.458 10.904-6.55 11.98-12.762 0.307-1.752 0.307-3.616-0.006-5.443-0.995-5.862-5.261-10.735-10.985-12.53-0.744-0.238-1.545-0.419-2.552-0.576-0.594-0.094-2.921-0.175-3.409-0.119zM17.57 1.461c3.040 0.35 5.555 1.42 7.876 3.334 2.815 2.333 4.623 5.655 5.142 9.459 0.119 0.882 0.106 2.94-0.025 3.816-0.413 2.709-1.539 5.242-3.222 7.263-2.415 2.884-5.749 4.723-9.49 5.217-1.001 0.131-2.715 0.131-3.753 0-1.958-0.25-4.104-1.001-5.724-2.002-1.12-0.688-1.883-1.307-2.859-2.296-0.807-0.813-1.239-1.339-1.808-2.208-2.527-3.847-3.097-8.746-1.52-13.056 1.145-3.122 3.372-5.793 6.318-7.563 2.665-1.601 5.999-2.327 9.065-1.964zM5.059 16.131v6.256h1.877l0.006-4.804 0.006-4.798 0.932 4.661c0.507 2.565 0.945 4.723 0.963 4.798 0.031 0.144 0.050 0.144 1.001 0.144 0.532 0 0.97-0.019 0.97-0.050 0.006-0.025 0.438-2.183 0.97-4.798l0.957-4.754 0.006 4.798 0.006 4.804h1.877v-12.512h-2.99l-0.038 0.144c-0.019 0.081-0.413 1.971-0.882 4.204-0.732 3.503-0.907 4.298-0.907 4.073 0-0.019-0.394-1.908-0.876-4.191-0.482-2.277-0.876-4.166-0.876-4.185 0-0.025-0.676-0.044-1.501-0.044h-1.501v6.256zM16.569 16.131v6.256h2.002v-12.512h-2.002v6.256zM19.76 10.939v1.063h2.94v10.385h2.002v-10.385h2.94v-2.127h-7.882v1.063z"></path>
</svg>
