<!-- Generated by IcoMoon.io -->
<svg version="1.1" xmlns="http://www.w3.org/2000/svg" width="40" height="32" viewBox="0 0 40 32">
<title>mixcloud</title>
<path d="M26.527 13.733c-0.519-5.313-5.018-9.483-10.469-9.483-4.517 0-8.514 2.907-9.95 7.13-3.409 0.502-6.039 3.426-6.039 6.974 0 3.894 3.167 7.060 7.078 7.060h18.101c3.271 0 5.936-2.648 5.936-5.918 0-2.821-2.007-5.191-4.655-5.762zM25.246 22.766h-18.101c-2.44 0-4.43-1.973-4.43-4.413s1.99-4.413 4.43-4.413c1.177 0 2.284 0.467 3.115 1.298 1.248 1.248 3.133-0.639 1.886-1.886-0.917-0.9-2.042-1.523-3.253-1.834 1.246-2.769 4.049-4.62 7.164-4.62 4.343 0 7.874 3.53 7.874 7.856 0 0.848-0.138 1.679-0.398 2.475-0.559 1.72 2.008 2.434 2.509 0.831 0.173-0.519 0.311-1.056 0.398-1.592 1.211 0.467 2.094 1.644 2.094 3.028 0 1.8-1.471 3.271-3.288 3.271zM39.938 19.496c0 2.752-0.796 5.399-2.319 7.666-0.26 0.381-0.675 0.588-1.108 0.588-1.020 0-1.695-1.177-1.090-2.059 1.211-1.834 1.869-3.98 1.869-6.195s-0.658-4.361-1.869-6.178c-0.978-1.427 1.21-2.953 2.198-1.471 1.523 2.25 2.319 4.897 2.319 7.649zM35.508 19.496c0 1.973-0.571 3.876-1.679 5.52-0.26 0.381-0.675 0.571-1.108 0.571-1.075 0-1.689-1.186-1.090-2.059 0.813-1.194 1.229-2.578 1.229-4.032 0-1.436-0.415-2.838-1.229-4.032-0.985-1.437 1.188-2.943 2.198-1.471 1.107 1.627 1.679 3.53 1.679 5.503z"></path>
</svg>
