<!-- Generated by IcoMoon.io -->
<svg version="1.1" xmlns="http://www.w3.org/2000/svg" width="31" height="32" viewBox="0 0 31 32">
<title>mizuni</title>
<path d="M15.5 0.5c-8.563 0-15.5 6.944-15.5 15.5 0 8.563 6.938 15.5 15.5 15.5s15.5-6.938 15.5-15.5c0-8.556-6.938-15.5-15.5-15.5zM10.5 22.494c-1.963 0.663-3.675 1.706-5 3.012v-17.006c0-1.381 1.119-2.5 2.5-2.5s2.5 1.119 2.5 2.5v13.994zM18 21.875c-0.806-0.125-1.637-0.194-2.488-0.194-0.863 0-1.7 0.069-2.512 0.194v-13.375c0-1.381 1.119-2.5 2.5-2.5s2.5 1.119 2.5 2.5v13.375zM25.5 25.481c-1.325-1.3-3.038-2.337-5-3v-13.981c0-1.381 1.119-2.5 2.5-2.5s2.5 1.119 2.5 2.5v16.981z"></path>
</svg>
