<!-- Generated by IcoMoon.io -->
<svg version="1.1" xmlns="http://www.w3.org/2000/svg" width="32" height="32" viewBox="0 0 32 32">
<title>mozilla</title>
<path d="M12.574 3.823c-1.705 0.244-3.261 0.862-4.797 1.905-1.999 1.355-5.122 3.979-6.946 5.828-0.375 0.381-0.387 0.412-0.237 0.412 0.087 0 0.281-0.044 0.431-0.1 0.481-0.169 3.798-1.068 3.767-1.018-0.019 0.031-0.543 0.468-1.168 0.981-2.080 1.705-2.911 2.524-3.51 3.467l-0.112 0.175 0.306-0.125c0.169-0.062 0.8-0.35 1.399-0.631 1.087-0.506 2.118-0.899 2.28-0.862 0.044 0.012-0.162 0.231-0.456 0.487-1.48 1.287-2.761 2.655-2.761 2.948 0 0.112 0.012 0.112 0.269-0.044 1.156-0.7 2.555-1.393 3.042-1.499l0.212-0.050-0.437 0.493c-0.637 0.712-1.299 1.543-1.655 2.068-0.294 0.437-0.762 1.33-0.718 1.374 0.006 0.012 0.381-0.194 0.825-0.456 0.937-0.55 2.567-1.374 2.617-1.324 0.037 0.031-0.618 0.981-1.393 2.018-0.468 0.625-0.762 1.149-0.762 1.362 0 0.087 0.087 0.037 0.362-0.206 0.55-0.493 1.886-1.38 1.886-1.256 0 0.025-0.156 0.3-0.35 0.606-0.387 0.625-0.775 1.399-0.775 1.555 0 0.087 0.019 0.087 0.175-0.019 0.287-0.206 0.893-0.487 1.48-0.693l0.562-0.194-0.281 0.231c-0.418 0.35-1.124 1.031-1.124 1.087 0 0.031 0.075 0.037 0.175 0.019 0.094-0.019 0.237-0.006 0.319 0.025 0.137 0.050 0.119 0.062-0.219 0.2-0.656 0.256-0.637 0.194-0.2 0.737 0.431 0.531 1.668 1.78 1.868 1.893 0.119 0.056 0.125 0.050 0.094-0.062-0.019-0.075-0.050-0.181-0.069-0.244-0.025-0.087 0.187-0.237 1.124-0.762 0.631-0.356 1.143-0.656 1.131-0.668s-0.593 0.119-1.293 0.294c-1.58 0.4-1.818 0.444-1.786 0.35 0.012-0.037 0.65-0.394 1.412-0.787 1.031-0.531 1.487-0.8 1.749-1.037 0.194-0.181 0.337-0.337 0.319-0.35s-0.456 0-0.974 0.037c-0.525 0.031-0.993 0.037-1.056 0.012-0.094-0.031-0.106-0.1-0.081-0.468 0.025-0.344 0.087-0.537 0.337-1.043 0.262-0.531 0.3-0.668 0.306-1.006 0-0.331-0.025-0.412-0.2-0.656-0.887-1.187-1.555-2.38-1.83-3.267-0.144-0.481-0.3-1.755-0.231-1.936 0.037-0.094 0.075-0.069 0.231 0.175 0.1 0.162 0.194 0.294 0.212 0.294 0.012 0 0.056-0.231 0.1-0.518 0.125-0.874 0.125-0.874 0.312-0.337s0.431 0.924 0.706 1.118l0.187 0.131-0.037-0.181c-0.206-0.962-0.212-2.292-0.019-2.992 0.231-0.825 0.718-1.587 1.362-2.124 0.162-0.137 0.287-0.25 0.281-0.256-0.031-0.025-1.449 0.225-1.618 0.281-0.106 0.037-0.2 0.069-0.212 0.069-0.044 0 0.237-0.656 0.425-1.012 0.137-0.262 0.337-0.487 0.731-0.818 1.293-1.106 2.286-1.68 3.373-1.961 0.531-0.137 0.693-0.15 1.412-0.125s0.949 0.062 2.018 0.337l1.212 0.312-0.294 0.331c-0.294 0.331-0.518 0.718-0.456 0.781 0.019 0.019 0.3-0.062 0.618-0.181 0.931-0.344 2.792-0.906 3.323-1.006 0.269-0.050 0.718-0.094 0.993-0.094 0.444 0 0.512 0.019 0.612 0.137 0.062 0.081 0.231 0.287 0.369 0.468l0.262 0.325-0.387-0.2c-0.362-0.187-0.431-0.2-0.987-0.194-0.687 0-0.893 0.062-2.224 0.65-0.625 0.281-1.187 0.468-2.055 0.693-0.656 0.169-1.218 0.319-1.249 0.325-0.094 0.031 0.381 0.287 0.793 0.431 0.281 0.094 0.55 0.131 0.993 0.137 0.462 0.006 0.612 0.025 0.612 0.087 0 0.187 0.356 0.787 0.675 1.143 0.319 0.35 0.675 0.606 0.743 0.531 0.019-0.012-0.069-0.325-0.194-0.681-0.35-1.012-0.306-1.28 0.256-1.643 0.637-0.412 1.074-0.531 1.43-0.4 0.162 0.062 0.15 0.075-0.35 0.331-0.587 0.3-0.75 0.475-0.793 0.868-0.106 0.912 1.262 1.649 3.298 1.793 0.425 0.031 0.787 0.044 0.8 0.031s-0.187-0.256-0.444-0.537c-0.874-0.968-1.162-1.505-0.5-0.937 0.7 0.612 1.868 1.28 3.104 1.793 0.294 0.125 1.162 0.45 1.924 0.725 1.355 0.493 2.174 0.862 2.474 1.099 0.144 0.112 0.144 0.125 0.050 0.312-0.056 0.106-0.169 0.275-0.25 0.369-0.337 0.4-0.481 0.668-0.481 0.893 0 0.319 0.3 0.812 1.006 1.649 0.019 0.031 0.025-0.2 0.006-0.506-0.031-0.637 0.006-0.887 0.15-0.887 0.050 0 0.15 0.125 0.225 0.294 0.181 0.412 0.219 1.187 0.087 1.793-0.1 0.431-0.119 0.475-0.244 0.444-0.681-0.156-1.037-0.219-1.574-0.281-1.83-0.206-3.142-0.662-4.785-1.662-1.224-0.743-3.379-2.236-4.422-3.073-0.781-0.625-1.181-0.906-1.437-0.993-0.194-0.075-0.543-0.206-0.781-0.3l-0.431-0.162 0.319 0.362c0.169 0.2 0.537 0.612 0.818 0.924 0.281 0.306 0.612 0.712 0.737 0.893 0.331 0.468 0.331 0.85 0 1.537-0.262 0.556-0.225 0.568-0.593-0.094-0.169-0.294-0.212-0.468-0.306-1.212-0.1-0.812-0.112-0.856-0.187-0.675-0.281 0.693-0.425 2.317-0.269 2.986 0.175 0.725 0.6 1.362 1.218 1.824 0.625 0.468 0.918 0.587 1.761 0.706l0.768 0.1-0.462-0.437c-0.568-0.55-0.762-0.912-0.731-1.343 0.006-0.050 0.094 0.025 0.2 0.169 0.612 0.837 2.286 1.593 5.259 2.38 1.162 0.306 1.643 0.493 1.83 0.7 0.087 0.1 0.081 0.119-0.137 0.269-0.125 0.087-0.431 0.206-0.681 0.262l-0.444 0.106-1.124-0.356c-1.243-0.4-1.893-0.687-2.236-1.006l-0.231-0.212-0.2 0.119c-0.112 0.062-0.356 0.156-0.556 0.212-0.706 0.2-3.523 0.75-3.829 0.75-0.893-0.006-2.28-0.75-3.435-1.836-0.287-0.275-0.575-0.5-0.631-0.5-0.244 0 0.144 0.993 0.643 1.643 0.162 0.212 0.481 0.637 0.712 0.943 0.406 0.531 0.437 0.556 0.962 0.793 0.3 0.131 0.562 0.25 0.575 0.262 0.012 0.019-0.181 0.156-0.437 0.312-0.687 0.431-1.018 0.75-1.224 1.187-0.2 0.425-0.3 0.825-0.212 0.874 0.031 0.019 0.181-0.062 0.331-0.187 0.387-0.312 1.624-0.862 1.624-0.731 0 0.019-0.106 0.194-0.237 0.387-0.206 0.3-0.25 0.425-0.281 0.793-0.019 0.237-0.081 0.593-0.137 0.775-0.106 0.337-0.106 0.344-0.206 0.206-0.062-0.075-0.412-0.287-0.793-0.475-0.375-0.187-0.874-0.468-1.106-0.625-0.237-0.156-0.425-0.275-0.425-0.262s0.044 0.131 0.1 0.262c0.187 0.462 0.775 1.262 1.318 1.805l0.537 0.537-0.162 0.344c-0.094 0.187-0.194 0.337-0.225 0.337-0.050 0-0.993-0.693-1.487-1.099l-0.2-0.156 0.281 0.737c0.156 0.406 0.337 0.831 0.406 0.943 0.062 0.112 0.119 0.219 0.119 0.237 0 0.012-0.244 0.025-0.543 0.025-0.962 0-2.117-0.256-4.735-1.056-0.787-0.237-1.443-0.425-1.455-0.412-0.012 0.006 0.219 0.175 0.512 0.369 1.599 1.068 3.785 1.818 5.903 2.036 0.706 0.069 2.511 0.087 2.961 0.025l0.281-0.037-0.187-0.425-0.187-0.419 0.187-0.556c0.106-0.306 0.281-0.981 0.387-1.493 0.506-2.424 0.912-3.036 2.655-4.029 0.512-0.287 1.087-0.581 1.274-0.643 0.537-0.187 1.405-0.119 2.63 0.2 1.43 0.369 2.18 0.506 2.73 0.506 0.481 0 0.506-0.006 1.049-0.319 0.312-0.175 0.812-0.493 1.124-0.706l0.556-0.381 0.512 0.019c0.581 0.025 0.856-0.062 1.068-0.35 0.069-0.094 0.244-0.506 0.387-0.918 0.15-0.412 0.394-1.056 0.543-1.424s0.275-0.743 0.275-0.831c0-0.087-0.056-0.444-0.125-0.793s-0.162-1.137-0.212-1.743c-0.050-0.606-0.119-1.162-0.156-1.224-0.037-0.069-0.231-0.269-0.425-0.45-0.481-0.425-1.493-0.918-3.236-1.562-1.605-0.6-2.386-0.943-3.054-1.337-0.531-0.312-1.106-0.743-1.362-1.012-0.156-0.169-0.162-0.2-0.106-0.475 0.131-0.6-0.137-1.355-0.737-2.080-0.431-0.525-0.75-0.756-1.287-0.918-0.6-0.181-1.793-0.137-2.692 0.1l-0.618 0.169-0.537-0.137c-0.294-0.075-1.068-0.3-1.724-0.506-1.886-0.6-1.955-0.612-2.499-0.606-0.275 0.006-0.568 0.019-0.656 0.031zM20.151 8.757c0.019 0.025 0 0.1-0.050 0.175-0.050 0.069-0.094 0.194-0.094 0.275 0 0.137-0.012 0.144-0.106 0.069-0.087-0.075-0.269-0.425-0.269-0.525 0-0.044 0.468-0.037 0.518 0.006zM21.188 9.42c0.106 0.112 0.194 0.225 0.194 0.25 0 0.031-0.144 0.050-0.319 0.050-0.312 0-0.312 0-0.219-0.137 0.056-0.075 0.1-0.187 0.1-0.25 0-0.156 0.025-0.144 0.244 0.087zM23.486 16.178c0.037 0.031-0.362 0.406-0.431 0.412-0.056 0-0.069-0.325-0.012-0.456 0.025-0.075 0.075-0.081 0.225-0.037 0.106 0.025 0.206 0.062 0.219 0.081zM24.561 16.797c0.050 0.062 0.025 0.125-0.119 0.262l-0.187 0.181v-0.162c0-0.331 0.15-0.468 0.306-0.281zM25.516 17.171c0.094 0.075 0.081 0.1-0.081 0.325l-0.181 0.244v-0.325c0-0.337 0.056-0.394 0.262-0.244zM26.484 17.577c0.056 0.037 0.037 0.112-0.062 0.287-0.144 0.256-0.369 0.419-0.237 0.175 0.037-0.069 0.069-0.212 0.069-0.319 0-0.194 0.081-0.244 0.231-0.144zM27.677 17.808c0.012 0.012-0.062 0.169-0.169 0.356l-0.194 0.331v-0.781l0.175 0.037c0.094 0.025 0.175 0.050 0.187 0.056zM28.746 18.002c0.037 0.031-0.125 0.212-0.256 0.281-0.1 0.056-0.112 0.031-0.112-0.169 0-0.212 0.006-0.225 0.169-0.181 0.1 0.025 0.187 0.050 0.2 0.069zM29.776 18.127c0.087 0.031 0.087 0.056 0.006 0.206-0.044 0.094-0.131 0.206-0.181 0.25-0.087 0.075-0.1 0.050-0.1-0.206 0-0.294 0.050-0.337 0.275-0.25zM12.605 6.871c-0.612 0.125-1.131 0.319-1.362 0.512-0.493 0.412-1.049 1.262-1.137 1.73-0.056 0.294 0.012 0.294 0.35-0.012 0.144-0.137 0.4-0.319 0.562-0.406l0.287-0.162 0.044 0.269c0.069 0.425 0.331 0.887 0.7 1.224 0.194 0.175 0.381 0.319 0.418 0.319 0.056 0 0.075-0.237 0.081-0.831 0-0.899 0.119-1.449 0.35-1.662 0.069-0.069 0.3-0.212 0.506-0.325 0.212-0.112 0.512-0.287 0.662-0.387 0.219-0.15 0.256-0.194 0.175-0.237-0.181-0.106-1.181-0.119-1.637-0.031zM14.573 8.751c0 0.056 0.2 0.35 0.456 0.681 0.131 0.169 0.219 0.319 0.206 0.337-0.019 0.012-0.281 0.062-0.581 0.112-0.737 0.106-1.206 0.212-1.206 0.269 0 0.025 0.181 0.15 0.406 0.275 0.225 0.131 0.406 0.244 0.406 0.256s-0.287 0.131-0.637 0.256c-1.018 0.369-1.786 0.812-1.649 0.949 0.019 0.025 0.287 0.006 0.593-0.031 0.8-0.106 2.33-0.094 3.104 0.025 0.362 0.056 0.668 0.087 0.687 0.069s-0.137-0.344-0.344-0.718c-0.212-0.375-0.381-0.7-0.381-0.718 0-0.044 0.287-0.125 0.837-0.231l0.375-0.075-0.312-0.275c-0.444-0.394-1.287-0.956-1.649-1.093-0.175-0.062-0.312-0.106-0.312-0.087zM19.039 10.157c0.131 0.444 0.531 0.931 0.874 1.062 0.225 0.087 1.749 0.162 2.005 0.1 0.25-0.069 0.156-0.106-1.006-0.444-1.012-0.294-1.349-0.431-1.712-0.712l-0.212-0.156 0.050 0.15zM11.175 12.312c-0.668 0.7-0.893 1.374-0.831 2.48 0.031 0.537 0.019 0.787-0.081 1.249-0.144 0.693-0.156 0.924-0.037 1.199 0.106 0.262 0.987 1.137 1.649 1.649 0.6 0.462 0.668 0.394 0.194-0.187-0.556-0.693-1.287-1.986-1.118-1.986 0.031 0 0.262 0.081 0.512 0.181 0.475 0.181 1.168 0.4 1.549 0.475l0.212 0.050-0.181-0.244c-0.1-0.137-0.444-0.581-0.762-0.993s-0.681-0.937-0.8-1.162c-0.506-0.968-0.531-1.849-0.062-2.636 0.262-0.462 0.15-0.493-0.244-0.075z"></path>
</svg>
