<!-- Generated by IcoMoon.io -->
<svg version="1.1" xmlns="http://www.w3.org/2000/svg" width="32" height="32" viewBox="0 0 32 32">
<title>nancy</title>
<path d="M6.993 0.701c0.775 4.069 1.395 10.462 1.201 12.090-0.155 1.085-0.853 3.061-1.511 4.417-1.356 2.712-1.317 2.868 0.852 3.991 0.775 0.387 0.891 0.736 0.775 2.092-0.116 1.434 0 1.628 0.775 1.744s0.891 0.31 0.697 1.085c-0.233 0.814-0.078 1.008 0.891 1.356 0.891 0.31 1.162 0.698 1.356 1.899 0.31 1.899 1.628 2.906 3.371 2.557 0.62-0.116 2.325-0.93 3.758-1.744 1.434-0.852 3.333-1.666 4.224-1.821 1.589-0.233 1.589-0.233 2.209-2.712 1.162-4.534 0.659-6.626-0.814-3.604-1.007 1.976-3.72 4.224-5.115 4.224-0.349 0-0.116-0.31 0.543-0.736 5.153-3.216 5.929-10.346 1.666-14.995-1.705-1.821-2.48-2.054-1.123-0.31 1.279 1.627 2.092 4.882 1.782 7.168-0.271 2.015-1.472 3.836-3.061 4.689-0.62 0.349-0.504 0.078 0.465-1.008 1.046-1.201 1.24-1.744 1.24-3.371 0-3.294-2.131-6.858-8.098-13.523-2.441-2.712-1.821-0.388 0.891 3.487 2.054 2.867 1.976 3.022-0.31 0.659-1.86-1.937-4.456-5.154-6.355-7.866-0.465-0.659-0.465-0.659-0.31 0.233z"></path>
</svg>
