<!-- Generated by IcoMoon.io -->
<svg version="1.1" xmlns="http://www.w3.org/2000/svg" width="32" height="32" viewBox="0 0 32 32">
<title>netbeans</title>
<path d="M30.117 5.205c-0.076-0.030-0.152-0.060-0.228-0.090-3.955-1.559-7.927-3.078-11.855-4.702-1.24-0.513-2.298-0.569-3.574-0.048-4.373 1.785-8.8 3.44-13.211 5.131-0.314 0.12-0.416 0.272-0.404 0.606 0.048 1.357 0.019 2.716 0.085 4.075 0.086 1.782 0.032 3.567 0.094 5.352 0.082 2.356 0.025 4.715 0.134 7.071 0 0.573 0.019 1.148-0.007 1.72-0.015 0.341 0.098 0.516 0.415 0.671 4.674 2.288 9.341 4.591 14.004 6.899 0.278 0.137 0.502 0.157 0.775-0.002 0.395-0.229 0.812-0.422 1.223-0.624 4.184-2.060 8.368-4.12 12.555-6.173 0.253-0.124 0.414-0.244 0.423-0.572 0.081-2.911 0.188-5.822 0.277-8.733 0.053-1.751 0.041-3.505 0.145-5.252 0.076-1.275 0.065-2.551 0.128-3.825 0.067-1.357 0.299-0.997-0.979-1.505zM15.009 28.923c0 0.396-0.051 0.483-0.444 0.287-3.69-1.838-7.386-3.662-11.087-5.478-0.279-0.137-0.362-0.301-0.365-0.601-0.027-2.52-0.063-5.039-0.112-7.559-0.046-2.371-0.11-4.742-0.165-7.113-0.004-0.179-0.001-0.357-0.001-0.623 1.538 0.665 2.992 1.29 4.443 1.922 2.458 1.071 4.912 2.151 7.374 3.214 0.281 0.121 0.383 0.266 0.382 0.578-0.019 5.124-0.027 10.248-0.026 15.372zM15.757 11.324c-3.638-1.594-7.28-3.178-10.92-4.768-0.098-0.043-0.229-0.054-0.287-0.23 3.818-1.469 7.615-2.928 11.41-4.393 0.185-0.071 0.34-0.058 0.517 0.012 3.589 1.411 7.179 2.818 10.77 4.225 0.074 0.029 0.159 0.047 0.198 0.18-0.913 0.409-1.83 0.822-2.749 1.23-2.778 1.234-5.558 2.465-8.336 3.7-0.2 0.089-0.375 0.143-0.603 0.044zM29.070 8.346c-0.068 2.535-0.139 5.069-0.217 7.604-0.053 1.716-0.119 3.432-0.18 5.148-0.027 0.752-0.078 1.503-0.078 2.255 0 0.324-0.194 0.412-0.418 0.522-3.186 1.566-6.372 3.134-9.557 4.7-0.525 0.258-1.051 0.514-1.651 0.808 0-0.497-0-0.888 0-1.28 0.008-4.798 0.021-9.595 0.014-14.393-0.001-0.426 0.135-0.616 0.529-0.789 3.684-1.616 7.356-3.259 11.031-4.896 0.535-0.239 0.543-0.243 0.527 0.321z"></path>
</svg>
