<!-- Generated by IcoMoon.io -->
<svg version="1.1" xmlns="http://www.w3.org/2000/svg" width="32" height="32" viewBox="0 0 32 32">
<title>netmagazine</title>
<path d="M25.371 9.269c-0.258 0.225-0.266 0.33-0.153 1.642 0.064 0.773 0.008 0.99-0.258 0.99-0.402 0-1.312 0.652-1.424 1.030-0.080 0.249 0.113 0.821 0.322 0.958 0.097 0.064 0.386 0.137 0.636 0.161 0.338 0.032 0.475 0.088 0.539 0.209 0.097 0.193 0.024 1.408-0.145 2.398-0.113 0.62-0.113 0.756 0 1.352 0.072 0.37 0.129 0.813 0.129 0.99s0.032 0.386 0.080 0.467c0.040 0.080 0.097 0.467 0.113 0.861 0.048 0.998 0.169 1.376 0.563 1.714 0.507 0.443 0.628 0.475 1.601 0.483 0.499 0 0.99 0.008 1.102 0.008 0.813 0.008 1.851-0.153 1.907-0.298 0.024-0.056 0.282-0.306 0.571-0.555 0.748-0.636 0.95-0.95 1.030-1.69 0.064-0.531-0.097-1.424-0.298-1.682-0.081-0.105-0.225-0.362-0.314-0.563-0.113-0.274-0.201-0.37-0.33-0.37-0.089 0-0.225-0.073-0.298-0.161-0.137-0.161-0.145-0.161-0.411-0.016-0.153 0.080-0.322 0.217-0.362 0.306-0.048 0.080-0.153 0.25-0.225 0.37-0.080 0.113-0.145 0.306-0.145 0.419s-0.064 0.378-0.153 0.587c-0.081 0.209-0.169 0.523-0.201 0.684-0.072 0.394-0.233 0.547-0.595 0.547-0.435 0-0.499-0.073-0.491-0.531 0.024-1.593 0-2.229-0.121-2.631-0.217-0.756-0.032-2.398 0.29-2.599 0.056-0.040 0.692-0.064 1.4-0.072 1.183 0 1.32-0.016 1.481-0.161 0.153-0.137 0.169-0.217 0.129-0.523-0.024-0.201-0.080-0.604-0.121-0.893-0.032-0.298-0.097-0.579-0.129-0.628-0.040-0.072-0.362-0.089-1.239-0.056-0.644 0.024-1.255 0.064-1.352 0.097-0.241 0.064-0.483-0.378-0.354-0.668 0.048-0.105 0.088-0.33 0.088-0.507 0-0.169 0.040-0.338 0.080-0.362 0.121-0.072 0.097-0.555-0.040-0.732-0.064-0.080-0.121-0.217-0.121-0.29 0-0.201-0.145-0.258-0.845-0.33-1.698-0.169-1.69-0.169-1.939 0.048z"></path>
<path d="M19.625 12.141c-0.113 0.032-0.338 0.064-0.499 0.072-0.378 0.008-1.939 0.563-2.076 0.74-0.024 0.024-0.113 0.072-0.201 0.105-0.193 0.056-1.344 1.135-1.521 1.424-0.121 0.193-0.193 0.563-0.37 1.843-0.048 0.33-0.121 0.708-0.161 0.837-0.201 0.604 0.016 2.261 0.354 2.615 0.105 0.113 0.233 0.29 0.282 0.386 0.097 0.185 0.088 0.185-0.547 0.185h-0.636l-0.008-0.958c0-0.531-0.040-1.054-0.088-1.167-0.048-0.137-0.048-0.427 0.016-0.869 0.113-0.861 0.088-1.835-0.056-2.197-0.064-0.153-0.121-0.394-0.121-0.539 0-0.547-0.515-1.569-0.805-1.601-0.064-0.008-0.153-0.024-0.201-0.032-0.040-0.016-0.145-0.024-0.217-0.032-0.072 0-0.298-0.153-0.499-0.322-0.507-0.435-0.797-0.523-1.432-0.41-0.829 0.145-1.32 0.314-1.553 0.523-0.113 0.113-0.274 0.201-0.346 0.201-0.185 0-0.249 0.056-0.612 0.499-0.169 0.217-0.362 0.386-0.427 0.386-0.177 0-0.346-0.209-0.346-0.426 0-0.105-0.080-0.258-0.169-0.346-0.153-0.137-0.314-0.153-1.271-0.161-0.604-0.008-1.239-0.040-1.416-0.072-0.716-0.121-1.054 0.314-0.958 1.231 0.024 0.298 0.088 0.628 0.129 0.732 0.064 0.185 0.088 0.193 0.692 0.145l0.628-0.048 0.105 0.241c0.105 0.241 0.097 0.427-0.064 1.118-0.105 0.459-0.105 1.923 0 2.454 0.233 1.175 0.241 1.36 0.097 1.465-0.072 0.064-0.37 0.105-0.684 0.105-0.491 0-0.555 0.016-0.676 0.201-0.145 0.225-0.346 1.062-0.354 1.465 0 0.217 0.048 0.274 0.362 0.427 0.338 0.161 0.756 0.185 1.851 0.089 0.37-0.032 1.151 0.032 1.239 0.105 0.137 0.105 1.762 0.081 2.060-0.032 0.346-0.129 0.523-0.378 0.523-0.716 0-0.177-0.040-0.346-0.080-0.37-0.048-0.024-0.081-0.274-0.081-0.555 0-0.628-0.105-0.781-0.587-0.829-0.33-0.040-0.378-0.072-0.378-0.225 0-0.105-0.048-0.209-0.097-0.225-0.080-0.032-0.080-0.064-0.008-0.113 0.177-0.129 0.201-0.523 0.105-1.674-0.097-1.046-0.097-1.175 0.024-1.36 0.080-0.113 0.137-0.346 0.137-0.515 0-0.185 0.048-0.362 0.121-0.418 0.064-0.056 0.121-0.145 0.121-0.201 0-0.306 1.175-0.346 1.73-0.056 0.137 0.064 0.298 0.145 0.362 0.177s0.129 0.153 0.145 0.266c0.016 0.113 0.080 0.25 0.145 0.298 0.129 0.113 0.161 1.151 0.040 1.473-0.088 0.225-0.121 1.577-0.048 2.028 0.072 0.459-0.137 0.644-0.748 0.644-0.692 0-0.716 0.105-0.427 1.682 0.129 0.7 0.161 0.724 0.974 0.652s0.523-0.073 2.736 0l1.811 0.064 0.185-0.258c0.145-0.201 0.177-0.338 0.161-0.676l-0.024-0.427 0.845 0.563c1.030 0.684 1.416 0.789 2.953 0.773 0.869-0.008 1.143-0.040 1.569-0.185 0.274-0.105 0.555-0.217 0.62-0.258 0.064-0.032 0.306-0.113 0.539-0.169 0.596-0.137 1.038-0.515 1.239-1.054 0.088-0.241 0.233-0.579 0.322-0.748 0.088-0.177 0.161-0.37 0.161-0.435 0-0.169-0.394-0.612-0.555-0.612-0.072 0-0.266-0.073-0.435-0.161-0.314-0.169-0.547-0.161-0.781 0.040-0.064 0.056-0.249 0.121-0.41 0.153-0.161 0.024-0.362 0.129-0.443 0.217-0.088 0.097-0.29 0.226-0.459 0.29-0.161 0.064-0.37 0.225-0.459 0.346-0.121 0.161-0.274 0.241-0.628 0.322-0.265 0.056-0.563 0.073-0.668 0.040-0.241-0.073-0.958-0.531-0.958-0.604 0-0.032-0.153-0.217-0.33-0.402-0.314-0.322-0.33-0.362-0.282-0.708 0.064-0.507 0.153-0.579 0.668-0.579 0.241 0 0.547-0.056 0.684-0.129 0.362-0.193 1.601-0.177 1.899 0.016 0.177 0.121 0.394 0.145 1.143 0.145 0.974 0.008 1.424-0.080 1.762-0.338 0.209-0.153 0.209-0.177 0.209-1.151 0-1.078-0.113-1.634-0.402-2.044-0.097-0.137-0.241-0.378-0.322-0.547-0.080-0.177-0.201-0.33-0.274-0.362-0.072-0.024-0.265-0.193-0.426-0.378-0.209-0.241-0.386-0.354-0.587-0.386-0.153-0.024-0.507-0.153-0.781-0.29-1.046-0.499-1.288-0.555-1.754-0.41zM20.124 14.218c0.274 0.185 1.191 1.215 1.191 1.344 0 0.177-0.209 0.282-0.773 0.402-0.74 0.161-1.803 0.161-2.012 0-0.080-0.064-0.209-0.121-0.282-0.121-0.129 0-0.233-0.153-0.233-0.322 0-0.040 0.121-0.201 0.265-0.354 0.137-0.153 0.354-0.41 0.475-0.555 0.402-0.499 0.957-0.66 1.368-0.394z"></path>
<path d="M0.915 19.899c-0.314 0.145-0.644 0.499-0.797 0.869-0.491 1.175 0.628 2.414 1.867 2.076 1.336-0.354 1.545-2.293 0.322-2.889-0.41-0.193-1.022-0.217-1.392-0.056z"></path>
</svg>
