<!-- Generated by IcoMoon.io -->
<svg version="1.1" xmlns="http://www.w3.org/2000/svg" width="31" height="32" viewBox="0 0 31 32">
<title>old-republic</title>
<path d="M14.735 0.639c0.469-0.019 0.938-0.017 1.406-0.006 0.226 0.009 0.45 0.025 0.674 0.046 0.308 0.017 0.612 0.064 0.917 0.101 0.183 0.027 0.364 0.061 0.547 0.091 0.494 0.083 0.979 0.205 1.462 0.337 0.765 0.217 1.512 0.495 2.235 0.826 1.66 0.765 3.184 1.826 4.477 3.117 1.252 1.256 2.295 2.722 3.056 4.324 0.071 0.162 0.152 0.319 0.217 0.484 0.176 0.402 0.337 0.811 0.474 1.227 0.259 0.771 0.459 1.562 0.589 2.364 0.036 0.196 0.065 0.394 0.087 0.592 0.034 0.239 0.059 0.481 0.074 0.723 0.052 0.521 0.052 1.046 0.048 1.569-0.004 0.311-0.016 0.621-0.047 0.931-0.015 0.211-0.032 0.422-0.061 0.633-0.024 0.17-0.039 0.341-0.069 0.511-0.056 0.322-0.106 0.644-0.179 0.963-0.256 1.156-0.644 2.284-1.157 3.352-0.986 2.052-2.427 3.886-4.195 5.32-1.027 0.845-2.198 1.575-3.459 2.14l-0.098 0.039c-0.388 0.168-0.779 0.328-1.179 0.463-0.219 0.073-0.438 0.149-0.661 0.212-0.414 0.117-0.831 0.227-1.253 0.313-0.291 0.057-0.584 0.108-0.877 0.155-0.328 0.041-0.656 0.090-0.987 0.109-0.418 0.041-0.838 0.052-1.258 0.051-0.426 0.002-0.853-0.008-1.278-0.049-0.206-0.014-0.411-0.031-0.614-0.059-0.17-0.024-0.341-0.039-0.511-0.069-0.258-0.045-0.516-0.086-0.772-0.139-0.266-0.059-0.531-0.118-0.793-0.189-0.539-0.136-1.068-0.313-1.588-0.508-0.656-0.258-1.299-0.547-1.915-0.891-0.134-0.072-0.268-0.143-0.397-0.223-0.701-0.411-1.366-0.881-1.995-1.396-2.167-1.776-3.838-4.152-4.772-6.794-0.193-0.546-0.357-1.103-0.487-1.668-0.092-0.385-0.158-0.776-0.224-1.166-0.025-0.147-0.038-0.296-0.059-0.443-0.037-0.247-0.047-0.497-0.073-0.746-0.050-0.592-0.044-1.187-0.032-1.781 0.009-0.219 0.021-0.438 0.044-0.657 0.019-0.198 0.029-0.398 0.058-0.595 0.026-0.176 0.041-0.353 0.073-0.527 0.044-0.246 0.081-0.494 0.133-0.739 0.214-1.033 0.529-2.046 0.954-3.011 0.072-0.182 0.162-0.357 0.241-0.537 0.503-1.044 1.119-2.035 1.843-2.941 1.25-1.586 2.819-2.917 4.579-3.904 0.469-0.259 0.947-0.503 1.442-0.711 0.989-0.43 2.026-0.747 3.082-0.961 0.219-0.042 0.44-0.078 0.66-0.116 0.164-0.029 0.33-0.044 0.494-0.068 0.221-0.033 0.444-0.042 0.666-0.065 0.154-0.015 0.307-0.022 0.46-0.032zM15.275 2.165c-0.577 0.006-1.152 0.062-1.723 0.139-0.456 0.067-0.908 0.163-1.357 0.269-0.869 0.219-1.717 0.521-2.529 0.901-0.654 0.312-1.287 0.669-1.886 1.076-0.261 0.183-0.525 0.362-0.771 0.564-0.317 0.248-0.624 0.511-0.918 0.787-0.157 0.14-0.301 0.294-0.451 0.441-1.764 1.799-3.027 4.087-3.594 6.543-0.127 0.527-0.221 1.064-0.278 1.603-0.069 0.556-0.090 1.116-0.088 1.675 0.007 0.446 0.024 0.892 0.076 1.336 0.039 0.445 0.117 0.885 0.2 1.324 0.067 0.291 0.127 0.582 0.208 0.869 0.393 1.461 1.031 2.856 1.879 4.109 0.54 0.811 1.174 1.558 1.874 2.236 1.018 0.989 2.191 1.815 3.459 2.451 0.455 0.22 0.916 0.429 1.392 0.602 0.315 0.11 0.629 0.223 0.951 0.311 0.704 0.202 1.423 0.35 2.149 0.441 0.182 0.018 0.363 0.038 0.545 0.056 0.864 0.067 1.734 0.063 2.596-0.027 0.278-0.038 0.558-0.062 0.834-0.111 0.227-0.042 0.455-0.078 0.679-0.131 0.258-0.061 0.517-0.119 0.773-0.192 1.656-0.459 3.224-1.232 4.599-2.262 0.986-0.739 1.872-1.61 2.633-2.58 0.204-0.251 0.386-0.519 0.571-0.784 0.212-0.316 0.411-0.641 0.6-0.971 0.15-0.277 0.296-0.557 0.434-0.841 0.356-0.753 0.642-1.539 0.859-2.343 0.162-0.626 0.297-1.26 0.369-1.903 0.111-0.842 0.121-1.694 0.081-2.541-0.018-0.243-0.042-0.486-0.063-0.729-0.139-1.192-0.424-2.369-0.864-3.488-0.372-0.946-0.846-1.852-1.413-2.696-0.793-1.175-1.765-2.23-2.873-3.114-1.566-1.25-3.404-2.159-5.353-2.63-0.486-0.121-0.981-0.209-1.477-0.278-0.244-0.037-0.491-0.051-0.736-0.078-0.462-0.036-0.926-0.045-1.389-0.036zM8.704 5.221c0.831-0.556 1.755-0.961 2.706-1.261-0.198 0.111-0.402 0.211-0.596 0.331-0.701 0.417-1.345 0.931-1.899 1.531-0.425 0.464-0.797 0.983-1.063 1.556-0.206 0.429-0.353 0.887-0.429 1.357-0.058 0.303-0.081 0.613-0.073 0.922 0.008 0.854 0.277 1.693 0.706 2.426 0.37 0.639 0.852 1.208 1.397 1.704 0.303 0.273 0.64 0.506 0.934 0.787 0.141 0.137 0.281 0.276 0.402 0.432 0.164 0.207 0.306 0.437 0.374 0.694 0.056 0.189 0.041 0.387 0.043 0.582 0.001 0.256-0.002 0.512 0.002 0.769 0.009 0.221-0.001 0.443 0.007 0.664 0.005 0.149 0.001 0.297 0.003 0.446 0.010 0.361 0.004 0.721 0.009 1.081 0.007 0.182 0.001 0.364 0.008 0.546 0.002 0.102 0.008 0.205-0.002 0.307-0.057 0.008-0.114 0.011-0.171 0.010-0.687 0-1.367-0.164-1.997-0.433-0.375-0.169-0.738-0.368-1.068-0.614-0.359-0.262-0.693-0.56-0.987-0.894-0.408-0.453-0.749-0.962-1.039-1.497-0.067-0.127-0.14-0.251-0.199-0.383-0.072-0.165-0.164-0.321-0.229-0.489-0.253-0.605-0.411-1.246-0.505-1.894-0.031-0.277-0.068-0.555-0.075-0.834-0.044-0.983 0.053-1.972 0.292-2.926 0.133-0.509 0.298-1.011 0.519-1.489 0.395-0.888 0.959-1.699 1.644-2.387 0.393-0.388 0.821-0.74 1.283-1.042zM19.664 3.963c0.171 0.046 0.338 0.109 0.506 0.168 0.398 0.146 0.793 0.303 1.169 0.497 0.819 0.402 1.582 0.926 2.239 1.561 0.637 0.622 1.171 1.35 1.571 2.146 0.080 0.172 0.165 0.341 0.238 0.516 0.394 0.944 0.625 1.954 0.702 2.973 0.026 0.284 0.027 0.568 0.028 0.852 0.004 0.727-0.093 1.453-0.269 2.158-0.123 0.454-0.272 0.906-0.491 1.324-0.199 0.415-0.418 0.823-0.677 1.203-0.434 0.654-0.975 1.242-1.614 1.701-0.655 0.477-1.415 0.814-2.212 0.961-0.219 0.043-0.442 0.067-0.666 0.076-0.116 0.004-0.233 0.010-0.348-0.006-0.017-0.134 0-0.269-0.001-0.404-0.002-0.233 0.009-0.466 0.006-0.698 0.012-0.439 0.001-0.878 0.013-1.317 0.002-0.149-0.002-0.297 0.002-0.446 0.011-0.317-0.003-0.634 0.009-0.951 0.006-0.187-0.015-0.377 0.032-0.56 0.041-0.156 0.111-0.304 0.193-0.443 0.279-0.457 0.691-0.81 1.105-1.141 0.336-0.261 0.654-0.548 0.939-0.865 0.48-0.523 0.886-1.117 1.174-1.767 0.156-0.371 0.282-0.756 0.347-1.154 0.054-0.273 0.066-0.552 0.063-0.829-0.001-0.491-0.087-0.978-0.227-1.448-0.109-0.358-0.267-0.699-0.443-1.028-0.242-0.433-0.541-0.832-0.872-1.2-0.621-0.678-1.359-1.246-2.163-1.694-0.116-0.064-0.24-0.114-0.352-0.186zM13.364 7.616c0.061-0.074 0.124-0.146 0.195-0.211-0.038 0.058-0.079 0.113-0.122 0.168-0.194 0.242-0.346 0.519-0.439 0.816-0.054 0.204-0.105 0.412-0.108 0.625-0.004 0.158-0.005 0.317 0.020 0.473 0.071 0.477 0.271 0.928 0.548 1.32 0.125 0.169 0.266 0.329 0.432 0.458 0.101 0.079 0.221 0.131 0.334 0.191 0.194 0.105 0.395 0.202 0.567 0.342 0.167 0.131 0.284 0.333 0.275 0.549-0.001 4.604 0 9.209-0.001 13.814 0 0.084-0.005 0.169 0.002 0.253 0.008 0.093 0.051 0.177 0.092 0.259 0.054 0.104 0.111 0.209 0.199 0.289 0.053 0.048 0.123 0.087 0.197 0.078 0.094-0.012 0.166-0.084 0.216-0.161 0.060-0.094 0.105-0.198 0.143-0.303 0.047-0.133 0.027-0.276 0.034-0.414 0.009-0.252-0.001-0.504 0.009-0.756 0.002-0.368 0.002-0.736 0.004-1.104 0.009-0.226 0.002-0.453 0.007-0.679 0.009-0.252-0.001-0.504 0.009-0.756 0.002-0.374 0.002-0.749 0.004-1.123 0.009-0.226 0.001-0.453 0.007-0.679 0.009-0.246-0.001-0.491 0.009-0.736 0.002-0.374 0.002-0.749 0.004-1.123 0.010-0.246-0.001-0.492 0.012-0.739 0.018 0.090 0.008 0.183 0.014 0.274 0.012 0.226 0.026 0.452 0.047 0.677 0.020 0.215 0.027 0.431 0.054 0.645 0.023 0.194 0.032 0.389 0.059 0.582 0.036 0.256 0.054 0.513 0.096 0.768 0.091 0.565 0.177 1.132 0.318 1.687 0.071 0.301 0.15 0.601 0.25 0.894 0.159 0.494 0.358 0.979 0.644 1.414 0.108 0.165 0.242 0.311 0.381 0.451 0.017 0.016 0.034 0.032 0.055 0.044 0.038 0.016 0.082-0.004 0.106-0.036 0.044-0.055 0.073-0.121 0.106-0.183 0.253-0.488 0.511-0.973 0.771-1.457 0.044-0.082 0.090-0.164 0.16-0.226 0.109-0.098 0.24-0.168 0.374-0.227 0.18-0.076 0.369-0.137 0.564-0.151 0.411-0.039 0.819 0.047 1.223 0.116 0.231 0.036 0.462 0.073 0.696 0.088 0.234 0.006 0.468 0.003 0.701-0.017 0.534-0.058 1.062-0.185 1.559-0.391 0.331-0.14 0.654-0.302 0.957-0.496 0.716-0.451 1.341-1.036 1.878-1.688 0.073-0.089 0.141-0.181 0.216-0.267-0.075 0.203-0.167 0.398-0.26 0.593-0.078 0.181-0.177 0.351-0.267 0.526-0.323 0.602-0.689 1.182-1.109 1.72-0.252 0.326-0.533 0.628-0.833 0.911-0.415 0.378-0.879 0.711-1.402 0.922-0.513 0.211-1.082 0.289-1.631 0.206-0.223-0.036-0.438-0.106-0.651-0.18-0.174-0.061-0.337-0.149-0.502-0.231-0.214-0.107-0.415-0.238-0.607-0.38 0.169 0.191 0.356 0.366 0.544 0.538 0.267 0.235 0.546 0.457 0.852 0.639 0.249 0.153 0.518 0.275 0.802 0.344 0.091 0.023 0.185 0.029 0.278 0.038-0.078 0.069-0.164 0.128-0.249 0.186-0.601 0.409-1.251 0.741-1.918 1.027-1.304 0.544-2.698 0.873-4.109 0.959-0.291 0.015-0.582 0.023-0.874 0.023-0.311-0.007-0.623-0.008-0.932-0.041-0.7-0.047-1.393-0.171-2.073-0.339-0.647-0.169-1.284-0.383-1.894-0.659-0.544-0.241-1.070-0.526-1.562-0.862-0.114-0.082-0.234-0.158-0.336-0.255 0.412-0.074 0.814-0.212 1.187-0.405 0.359-0.179 0.687-0.416 0.977-0.692 0.14-0.137 0.268-0.287 0.387-0.443-0.214 0.133-0.433 0.259-0.664 0.361-0.276 0.135-0.567 0.236-0.863 0.314-0.358 0.095-0.734 0.108-1.101 0.071-0.508-0.059-0.991-0.267-1.407-0.561-0.27-0.184-0.514-0.402-0.747-0.629-0.621-0.635-1.138-1.363-1.604-2.116-0.246-0.392-0.471-0.797-0.695-1.201-0.066-0.128-0.134-0.253-0.199-0.381 0.178 0.183 0.348 0.373 0.527 0.555 0.562 0.561 1.16 1.090 1.822 1.53 0.472 0.306 0.979 0.577 1.535 0.689 0.194 0.046 0.395 0.029 0.592 0.051 0.173 0.017 0.348 0.012 0.521 0.019 0.316 0.004 0.632 0.003 0.947-0.010 0.228-0.010 0.454-0.041 0.681-0.068 0.129-0.016 0.257-0.044 0.384-0.075 0.242-0.059 0.507-0.060 0.739 0.038 0.297 0.116 0.527 0.352 0.711 0.607 0.135 0.189 0.254 0.389 0.354 0.599 0.072 0.152 0.154 0.299 0.222 0.454 0.063 0.14 0.134 0.276 0.214 0.407 0.042 0.064 0.088 0.134 0.164 0.159 0.066-0.047 0.107-0.119 0.143-0.189 0.131-0.26 0.214-0.541 0.306-0.816 0.126-0.412 0.236-0.829 0.324-1.251 0.138-0.578 0.203-1.17 0.284-1.758 0.035-0.249 0.052-0.499 0.082-0.748 0.054-0.665 0.119-1.329 0.14-1.996 0.005-0.116 0.015-0.232 0.016-0.348 0.001-0.272 0.016-0.543 0.014-0.814-0.001-0.149-0.001-0.297 0-0.446 0.003-0.317-0.012-0.634-0.014-0.951-0.012-0.413-0.044-0.825-0.081-1.236-0.046-0.367-0.097-0.736-0.195-1.094-0.128-0.484-0.349-0.939-0.613-1.364-0.197-0.317-0.424-0.617-0.693-0.877-0.242-0.241-0.536-0.443-0.871-0.528-0.094-0.026-0.191-0.028-0.287-0.040 0.004-0.187 0.044-0.371 0.079-0.553 0.099-0.482 0.238-0.956 0.422-1.412 0.095-0.252 0.213-0.494 0.337-0.732 0.216-0.41 0.476-0.799 0.779-1.154zM15.319 7.723c0.022-0.004 0.044-0.008 0.067-0.012 0.012 0.112 0.006 0.224 0.006 0.336v2.383c-0.001 0.109 0.008 0.218-0.009 0.326-0.023-0.002-0.044-0.003-0.066-0.003-0.059-0.234-0.107-0.472-0.164-0.707-0.024-0.096-0.036-0.193-0.067-0.287-0.106-0.015-0.214-0.011-0.322-0.012-0.316-0.001-0.633 0-0.949-0.001-0.104-0.001-0.207 0.006-0.311-0.002-0.002-0.024-0.016-0.057 0.010-0.074 0.080-0.041 0.17-0.055 0.254-0.084 0.214-0.071 0.43-0.135 0.644-0.207 0.087-0.030 0.181-0.045 0.26-0.096 0.002-0.035 0.001-0.071-0.003-0.105-0.077-0.034-0.158-0.054-0.238-0.080-0.196-0.064-0.393-0.123-0.588-0.189-0.112-0.039-0.229-0.063-0.338-0.112-0.002-0.023-0.004-0.046-0.007-0.068 0.318-0.012 0.637 0.004 0.956-0.008 0.21-0.008 0.421 0.005 0.631-0.004 0.008-0.024 0.016-0.048 0.023-0.072 0.068-0.309 0.146-0.614 0.212-0.922zM15.692 7.71c0.023 0.003 0.045 0.008 0.068 0.013 0.061 0.241 0.108 0.485 0.169 0.726 0.023 0.089 0.035 0.18 0.064 0.267 0.158 0.011 0.317-0.001 0.476 0.003 0.323 0.008 0.646 0.008 0.968 0.004 0.047-0.001 0.095 0.002 0.142 0.005-0.003 0.023-0.004 0.045-0.006 0.068-0.114 0.052-0.236 0.078-0.354 0.118-0.233 0.077-0.468 0.149-0.701 0.223-0.036 0.011-0.070 0.026-0.104 0.040-0.009 0.034-0.011 0.070-0.008 0.106 0.054 0.030 0.114 0.051 0.173 0.068 0.305 0.095 0.608 0.196 0.914 0.287 0.024 0.008 0.049 0.017 0.071 0.031 0.025 0.017 0.014 0.049 0.009 0.074-0.104 0.008-0.207 0.002-0.311 0.002-0.323 0.001-0.646-0.001-0.969 0.001-0.101 0.002-0.201-0.001-0.301 0.013-0.033 0.104-0.045 0.214-0.073 0.319-0.059 0.223-0.095 0.453-0.159 0.674-0.023 0.001-0.044 0.001-0.066 0.004-0.018-0.108-0.009-0.217-0.009-0.326v-2.383c0.001-0.111-0.005-0.224 0.007-0.336zM4.066 10.521c0.070-0.134 0.13-0.275 0.211-0.404-0.114 0.473-0.182 0.954-0.226 1.438-0.050 0.482-0.053 0.968-0.034 1.452 0.066 1.246 0.346 2.489 0.889 3.618 0.187 0.374 0.397 0.739 0.656 1.069 0.383 0.467 0.783 0.922 1.24 1.318 0.3 0.256 0.624 0.486 0.971 0.675 0.204 0.103 0.407 0.212 0.621 0.293 0.313 0.127 0.637 0.226 0.964 0.309 0.239 0.060 0.486 0.088 0.72 0.169 0.313 0.098 0.592 0.288 0.814 0.527 0.308 0.327 0.506 0.742 0.637 1.167 0.062 0.181 0.099 0.369 0.136 0.558 0.009 0.047 0.014 0.095 0.010 0.143-0.406 0.174-0.829 0.316-1.266 0.386-0.257 0.049-0.518 0.062-0.779 0.067-0.641 0.015-1.279-0.11-1.883-0.32-0.234-0.089-0.468-0.178-0.689-0.295-0.504-0.24-0.978-0.544-1.404-0.904-0.183-0.159-0.364-0.321-0.525-0.502-0.572-0.614-1.019-1.338-1.362-2.103-0.149-0.347-0.288-0.699-0.398-1.060-0.073-0.246-0.147-0.493-0.204-0.744-0.047-0.184-0.076-0.372-0.117-0.558-0.029-0.134-0.043-0.27-0.064-0.405-0.053-0.339-0.080-0.683-0.083-1.027 0.007-0.386 0.016-0.773 0.067-1.156 0.025-0.179 0.042-0.359 0.072-0.537 0.061-0.356 0.134-0.711 0.232-1.058 0.193-0.728 0.467-1.434 0.793-2.115zM26.799 10.118c0.069 0.104 0.119 0.217 0.174 0.329 0.131 0.278 0.265 0.556 0.376 0.843 0.476 1.172 0.769 2.424 0.815 3.691 0.001 0.11 0.004 0.22 0.007 0.331 0.008 0.598-0.079 1.193-0.199 1.778-0.046 0.224-0.096 0.448-0.161 0.668-0.253 0.92-0.625 1.813-1.151 2.611-0.513 0.786-1.188 1.472-1.99 1.963-0.358 0.224-0.737 0.415-1.128 0.574-0.361 0.137-0.732 0.252-1.113 0.319-0.4 0.066-0.807 0.095-1.212 0.077-0.495-0.030-0.986-0.129-1.451-0.303-0.121-0.050-0.246-0.091-0.365-0.146-0.013-0.094 0.016-0.187 0.033-0.279 0.073-0.359 0.189-0.71 0.356-1.036 0.148-0.282 0.345-0.541 0.591-0.744 0.152-0.128 0.328-0.226 0.51-0.302 0.224-0.094 0.467-0.123 0.703-0.177 0.452-0.107 0.898-0.246 1.322-0.438 0.647-0.291 1.232-0.711 1.728-1.216 0.099-0.101 0.202-0.199 0.296-0.304 0.211-0.235 0.419-0.473 0.616-0.721 0.468-0.629 0.801-1.349 1.044-2.092 0.099-0.331 0.201-0.662 0.263-1.003 0.039-0.179 0.065-0.361 0.095-0.543 0.054-0.381 0.099-0.764 0.105-1.149 0.008-0.416 0.009-0.832-0.033-1.246-0.046-0.499-0.117-0.998-0.232-1.486z"></path>
</svg>
