<!-- Generated by IcoMoon.io -->
<svg version="1.1" xmlns="http://www.w3.org/2000/svg" width="40" height="32" viewBox="0 0 40 32">
<title>opencart</title>
<path d="M26.456 27.544c0 1.581-1.269 2.85-2.85 2.85s-2.863-1.269-2.863-2.85 1.288-2.863 2.863-2.863c1.587 0 2.85 1.281 2.85 2.863zM10.588 24.681c-1.581 0-2.85 1.288-2.85 2.863s1.269 2.85 2.85 2.85 2.862-1.269 2.862-2.85-1.281-2.863-2.863-2.863zM28.819 7.806c-18.887 0-23.7-0.8-28.819-6.2 2.15 3.231 3.331 9.306 23.319 9.012 20.831-0.313 8.125 5.381 4.425 11.806 11.669-10.419 19.962-14.619 1.075-14.619z"></path>
</svg>
