<!-- Generated by IcoMoon.io -->
<svg version="1.1" xmlns="http://www.w3.org/2000/svg" width="24" height="32" viewBox="0 0 24 32">
<title>pagelines</title>
<path d="M24 19.544c-3.444 8.544-11.694 3.375-11.694 3.375-2.531 5.113-6.713 8.4-11.537 8.419-1.006 0-1.038-1.525 0-1.525 4.025-0.019 7.531-2.669 9.825-6.881-2.569 0.994-7.412 1.744-10.1-5.137 6.813-2.806 9.944 0.7 11.144 2.844 0.619-1.525 1.063-3.181 1.35-4.981 0 0-8.731 1.369-9.344-6.131 7.444-2.994 9.537 4.794 9.537 4.794 0.1-1.044 0.206-3.287 0.206-3.338 0 0-6.644-4.606-2.381-10.325 7.788 2.688 3.838 10.15 3.838 10.15 0.031 0.1 0.031 1.488 0 2.088 0 0 2.825-5.563 8.525-3.594-0.262 8.375-8.869 6.65-8.869 6.65-0.275 1.712-0.7 3.337-1.25 4.844 0 0 5.187-5.738 10.75-1.25z"></path>
</svg>
