<!-- Generated by IcoMoon.io -->
<svg version="1.1" xmlns="http://www.w3.org/2000/svg" width="31" height="32" viewBox="0 0 31 32">
<title>page4</title>
<path d="M15.5 31.5c-8.563 0-15.5-6.938-15.5-15.5s6.938-15.5 15.5-15.5c1.306 0 2.581 0.162 3.794 0.469l-16.65 23.531h12.856v7zM15.5 22.525v-13.35l-9.338 13.35h9.338zM21.5 24.5v5.794c2.856-1.2 5.281-3.231 6.962-5.794h-6.962zM25.087 15.863l-1.325 0.525 1.325 0.519v-1.044zM23.819 19.269c-0.419 0-0.5 0.394-0.5 0.806v0.481h1.012v-0.625c0-0.369-0.144-0.663-0.512-0.663zM31 16c0 2.331-0.512 4.544-1.438 6.525h-8.063v-20.819c5.581 2.344 9.5 7.863 9.5 14.294zM22.525 8.975h4.262v-2.975h-0.869v2.037h-0.869v-1.85h-0.869v1.85h-0.794v-2.037h-0.869v2.975zM26.781 20.556h-1.656v-0.688c0-0.962-0.35-1.575-1.306-1.575-0.962 0-1.294 0.663-1.294 1.619v1.581h4.262v-0.938zM26.781 14.119l-4.262 1.856v0.775l4.262 1.844v-1.038l-0.9-0.356v-1.656l0.9-0.369v-1.056zM26.481 9.838h-2.225v1.662h0.869v-0.762h0.688c0.538 0.988 0.081 2.206-1.163 2.206-1.406 0-1.769-1.581-0.969-2.356l-0.725-0.662c-1.012 1.094-0.762 3.994 1.694 3.994 2.125 0 2.794-2.244 1.831-4.081z"></path>
</svg>
