<!-- Generated by IcoMoon.io -->
<svg version="1.1" xmlns="http://www.w3.org/2000/svg" width="28" height="32" viewBox="0 0 28 32">
<title>pied-piper-pp</title>
<path d="M12.831 10.912c0 1.319-0.887 2.381-1.981 2.381-0.444 0-0.8-0.075-1.075-0.231v-4.25c0.275-0.169 0.631-0.262 1.075-0.262 1.094 0 1.981 1.056 1.981 2.363zM16.119 15.1c-0.444 0-0.8 0.094-1.075 0.262v4.25c0.275 0.156 0.631 0.231 1.075 0.231 1.087 0 1.981-1.056 1.981-2.363 0-1.319-0.894-2.381-1.981-2.381zM28 5v22c0 1.656-1.344 3-3 3h-22c-1.656 0-3-1.344-3-3v-22c0-1.656 1.344-3 3-3h22c1.656 0 3 1.344 3 3zM11.563 15.944c2.563 0 4.637-2.225 4.637-4.975s-2.075-4.975-4.637-4.975c-0.75 0-1.506 0.2-2.162 0.55h-2.856v12.894l3.237-0.631v-3.162c0.537 0.194 1.131 0.3 1.781 0.3zM21.462 17.525c0-2.75-2.075-4.975-4.619-4.975-0.2 0-0.4 0.012-0.6 0.044-0.231 0.781-0.631 1.488-1.2 2.088-0.863 0.938-2.012 1.488-3.238 1.55v9.769l3.238-0.631v-3.163c0.537 0.2 1.137 0.294 1.794 0.294 2.55 0 4.625-2.225 4.625-4.975z"></path>
</svg>
