<!-- Generated by IcoMoon.io -->
<svg version="1.1" xmlns="http://www.w3.org/2000/svg" width="24" height="32" viewBox="0 0 24 32">
<title>pinterest</title>
<path d="M12.75 0.406c-6.412 0-12.75 4.275-12.75 11.194 0 4.4 2.475 6.9 3.975 6.9 0.619 0 0.975-1.725 0.975-2.212 0-0.581-1.481-1.819-1.481-4.238 0-5.025 3.825-8.588 8.775-8.588 4.256 0 7.406 2.419 7.406 6.862 0 3.319-1.331 9.544-5.644 9.544-1.556 0-2.887-1.125-2.887-2.738 0-2.363 1.65-4.65 1.65-7.088 0-4.138-5.869-3.388-5.869 1.613 0 1.050 0.131 2.213 0.6 3.169-0.862 3.712-2.625 9.244-2.625 13.069 0 1.181 0.169 2.344 0.281 3.525 0.213 0.238 0.106 0.212 0.431 0.094 3.15-4.313 3.037-5.156 4.463-10.8 0.769 1.462 2.756 2.25 4.331 2.25 6.637 0 9.619-6.469 9.619-12.3 0-6.206-5.363-10.256-11.25-10.256z"></path>
</svg>
