<!-- Generated by IcoMoon.io -->
<svg version="1.1" xmlns="http://www.w3.org/2000/svg" width="36" height="32" viewBox="0 0 36 32">
<title>playstation</title>
<path d="M35.681 23.269c-0.706 0.887-2.425 1.519-2.425 1.519l-12.819 4.6v-3.394l9.431-3.363c1.069-0.381 1.238-0.925 0.363-1.212-0.869-0.288-2.444-0.206-3.512 0.181l-6.281 2.219v-3.525c1.45-0.488 2.944-0.85 4.731-1.050 2.556-0.281 5.681 0.038 8.137 0.969 2.763 0.875 3.075 2.169 2.375 3.056zM21.656 17.488v-8.688c0-1.019-0.188-1.956-1.144-2.225-0.731-0.237-1.188 0.444-1.188 1.463v21.744l-5.863-1.863v-25.919c2.494 0.462 6.125 1.556 8.075 2.213 4.969 1.706 6.65 3.831 6.65 8.613 0 4.656-2.875 6.425-6.531 4.662zM2.7 25.637c-2.837-0.8-3.313-2.469-2.019-3.425 1.194-0.887 3.231-1.556 3.231-1.556l8.406-2.988v3.406l-6.050 2.163c-1.069 0.381-1.231 0.925-0.362 1.212s2.444 0.206 3.513-0.181l2.9-1.056v3.050c-3.225 0.581-6.338 0.456-9.619-0.625z"></path>
</svg>
