<!-- Generated by IcoMoon.io -->
<svg version="1.1" xmlns="http://www.w3.org/2000/svg" width="27" height="32" viewBox="0 0 27 32">
<title>pushed</title>
<path d="M25.438 6.994l-6.156-0.563 0.875-2.088c0.65-1.469-0.675-2.525-1.794-2.313l-16.956 2.775c-0.944 0.169-1.625 1.144-1.337 2.287l6.569 21.769c0.406 1.331 2.294 1.512 2.981 0.438l2.206-5.050 14.7-14.456c1.025-1.050 0.269-2.681-1.087-2.8zM18.6 3.35c0.319-0.044 0.469 0.156 0.325 0.462l-1.050 2.494-11.088-1.019 11.813-1.938zM1.419 6.744c-0.194-0.319 0.063-0.625 0.381-0.569l15.544 1.419-6.056 14.419-9.869-15.269zM8.5 28.525c-0.162 0.25-0.494 0.194-0.588-0.075l-5.194-17.219 7.981 12.35c-0.438 0.938-2.2 4.944-2.2 4.944zM25.55 8.869l-12.419 12.213 5.606-13.356 6.65 0.606c0.25 0.069 0.356 0.331 0.163 0.537z"></path>
</svg>
