<!-- Generated by IcoMoon.io -->
<svg version="1.1" xmlns="http://www.w3.org/2000/svg" width="32" height="32" viewBox="0 0 32 32">
<title>pycharm</title>
<path d="M13.815 16.591h2.123l-1.109-1.805-2.060 3.263h-0.951l2.504-3.928c0.065-0.064 0.139-0.121 0.216-0.171l0.005-0.003c0.079-0.049 0.175-0.079 0.277-0.079h0.008c0.095 0.001 0.183 0.031 0.256 0.080l-0.001-0.001c0.084 0.052 0.156 0.109 0.221 0.173l2.504 3.928h-0.951l-0.444-0.728h-2.123zM23.509 17.32v-3.389h-0.792v3.719c0 0.053 0.012 0.104 0.033 0.149l-0.001-0.003c0.025 0.049 0.057 0.091 0.095 0.127 0.023 0.044 0.060 0.077 0.105 0.095h0.001c0.051 0.020 0.108 0.032 0.169 0.032h3.616l0.444-0.728zM10.424 16.685h0.020c0.375 0 0.715-0.151 0.963-0.396 0.253-0.236 0.412-0.572 0.412-0.945 0-0.008 0-0.015 0-0.023v0.001c0-0.011 0-0.024 0-0.037 0-0.377-0.159-0.719-0.412-0.96-0.247-0.245-0.587-0.396-0.963-0.396-0.007 0-0.015 0-0.021 0h-3.485v4.119h0.796v-3.389h2.649c0.179 0 0.339 0.073 0.455 0.191 0.117 0.116 0.191 0.277 0.191 0.455v0.020c-0.001 0.179-0.073 0.341-0.189 0.46-0.113 0.127-0.279 0.207-0.461 0.207-0.005 0-0.011 0-0.015 0h-2.252l2.376 2.060h1.14l-1.585-1.363zM2.059 18.048c-0.003 0-0.007 0-0.011 0-0.56 0-1.067-0.231-1.429-0.601-0.381-0.359-0.617-0.865-0.617-1.428 0-0.011 0-0.021 0-0.032v0.001c0-0.008 0-0.019 0-0.029 0-0.563 0.237-1.069 0.617-1.427l0.001-0.001c0.364-0.372 0.871-0.601 1.431-0.601h2.452c0.559 0 1.063 0.231 1.424 0.601 0.372 0.361 0.601 0.865 0.601 1.424v0.064c0 0.56-0.232 1.065-0.604 1.427-0.361 0.372-0.865 0.601-1.424 0.601-0.012 0-0.024 0-0.035 0h0.001zM4.405 17.32h0.032c0.361 0 0.688-0.152 0.917-0.396 0.235-0.236 0.38-0.561 0.38-0.92 0-0.005 0-0.011 0-0.015v0.001c0-0.011 0-0.024 0-0.036 0-0.357-0.145-0.681-0.38-0.915-0.233-0.235-0.557-0.38-0.915-0.38-0.012 0-0.025 0-0.037 0h-2.281c-0.004 0-0.009 0-0.015 0-0.359 0-0.684 0.145-0.92 0.38-0.244 0.231-0.396 0.557-0.396 0.919v0.041c0 0.364 0.152 0.692 0.395 0.925 0.233 0.244 0.561 0.396 0.925 0.396h0.009zM19.455 18.048c-0.009 0-0.021 0-0.033 0-0.559 0-1.063-0.231-1.424-0.601-0.372-0.361-0.601-0.865-0.601-1.424 0-0.012 0-0.024 0-0.035v0.001c0-0.009 0-0.021 0-0.033 0-0.559 0.231-1.063 0.601-1.424 0.361-0.372 0.865-0.601 1.424-0.601h2.884l-0.476 0.728h-2.347c-0.004 0-0.009 0-0.015 0-0.359 0-0.684 0.145-0.92 0.38-0.244 0.231-0.396 0.557-0.396 0.919v0.041c0 0.364 0.152 0.692 0.395 0.925 0.233 0.244 0.561 0.396 0.925 0.396h2.889l-0.476 0.728zM29.117 17.32c-0.003 0-0.007 0-0.011 0-0.299 0-0.572-0.108-0.784-0.287l0.001 0.001c-0.221-0.177-0.387-0.413-0.473-0.687l-0.003-0.011h3.389l0.444-0.728h-3.833c0.087-0.277 0.251-0.508 0.468-0.675l0.003-0.003c0.212-0.168 0.484-0.269 0.779-0.269h2.36l0.476-0.728h-2.851c-0.009 0-0.021 0-0.033 0-0.559 0-1.063 0.231-1.424 0.601-0.372 0.361-0.601 0.865-0.601 1.424v0.067c0 0.559 0.231 1.063 0.601 1.424 0.361 0.372 0.865 0.601 1.424 0.601h2.469l0.476-0.728z"></path>
</svg>
