<!-- Generated by IcoMoon.io -->
<svg version="1.1" xmlns="http://www.w3.org/2000/svg" width="32" height="32" viewBox="0 0 32 32">
<title>pycharm1</title>
<path d="M24.063 10.168h-0.128c-0.012-0-0.026-0-0.040-0-2.715 0-5 1.846-5.666 4.352l-0.009 0.041h-0.030c-0.455 2.345-2.492 4.091-4.938 4.091-2.775 0-5.025-2.25-5.025-5.025 0-0.004 0-0.008 0-0.012v0.001c0.001-0.195 0.015-0.387 0.043-0.574l-0.003 0.022c0-0.037 0-0.075 0.015-0.113s0.025-0.143 0.040-0.213c1.043-4.787 4.128-8.698 8.276-10.838l0.089-0.042c-1.031-0.314-2.217-0.495-3.444-0.495-6.391 0-11.638 4.9-12.187 11.148l-0.003 0.046c-0.015 0.045-0.038 0.088-0.052 0.133v17.887h7.25v-5.782c1.468 0.672 3.185 1.064 4.993 1.064 6.766 0 12.25-5.485 12.25-12.25 0-1.226-0.18-2.411-0.516-3.528l0.022 0.087h-0.95z"></path>
<path d="M16.98 14.33l0.023-0.037c0.789-3.099 3.555-5.354 6.847-5.355h0c0.073 0 0.142 0 0.215 0h3.247c0.563-0.016 1.091-0.153 1.562-0.387l-0.022 0.010c-0.12-0.015-0.25-0.033-0.36-0.057-1.781-0.365-3.193-1.645-3.74-3.317l-0.010-0.035c0.718 0.934 1.745 1.599 2.925 1.844l0.032 0.006c0.288 0.060 0.618 0.094 0.957 0.094 0.729 0 1.421-0.159 2.044-0.444l-0.031 0.013c0.199-0.445 0.314-0.964 0.314-1.51 0-2.084-1.686-3.775-3.769-3.782h-3.366c-6.974 0.001-12.809 4.881-14.277 11.412l-0.018 0.098c-0.055 0.222-0.090 0.48-0.097 0.745l-0 0.005c0 0.001 0 0.002 0 0.002 0 2.096 1.699 3.795 3.795 3.795 1.844 0 3.381-1.315 3.724-3.058l0.004-0.024zM26.038 3.555c0.11-0.544 0.584-0.947 1.153-0.947 0.649 0 1.175 0.526 1.175 1.175s-0.526 1.175-1.175 1.175c-0.081 0-0.161-0.008-0.238-0.024l0.008 0.001c-0.541-0.113-0.942-0.587-0.942-1.154 0-0.080 0.008-0.158 0.023-0.234l-0.001 0.008zM31 26.85c0 2.092-1.696 3.788-3.788 3.788v0h-3.363c-0.002 0-0.005 0-0.008 0-3.67 0-7.023-1.358-9.584-3.599l0.017 0.014c3.415-0.261 6.436-1.762 8.652-4.049l0.003-0.004c0.274 0.039 0.593 0.063 0.917 0.065l0.003 0c0.073 0 3.313 0 3.363 0 2.090 0.001 3.785 1.695 3.788 3.785v0z"></path>
</svg>
