<!-- Generated by IcoMoon.io -->
<svg version="1.1" xmlns="http://www.w3.org/2000/svg" width="36" height="32" viewBox="0 0 36 32">
<title>reacteurope</title>
<path d="M15.662 13.234l0.362-0.256 0.363 0.256-0.131-0.425 0.356-0.269-0.444-0.006-0.144-0.425-0.144 0.425-0.45 0.006 0.356 0.269zM19.644 13.234l0.363-0.256 0.363 0.256-0.131-0.425 0.356-0.269-0.45-0.006-0.144-0.425-0.144 0.425-0.45 0.006 0.356 0.269zM13.938 16.39h-0.213c-0.3 0-0.238 0.25-0.238 0.756 0 0.294-0.144 0.381-0.363 0.381s-0.363-0.087-0.363-0.381v-2.287c0-0.294 0.144-0.381 0.363-0.381s0.363 0.088 0.363 0.381c0 0.45-0.044 0.656 0.238 0.656h0.213c0.294-0.006 0.238-0.244 0.238-0.769 0-0.619-0.419-0.881-1.050-0.881h-0.012c-0.631 0-1.050 0.262-1.050 0.881v2.504c0 0.65 0.419 0.881 1.050 0.881h0.012c0.631 0 1.050-0.238 1.050-0.881 0-0.616 0.069-0.86-0.238-0.86zM8.894 17.477h-0.919v-1.206h0.712c0.156 0 0.238-0.081 0.238-0.238v-0.131c0-0.156-0.081-0.238-0.238-0.238h-0.713v-1.144h0.9c0.156 0 0.238-0.081 0.238-0.238v-0.131c0-0.156-0.081-0.238-0.238-0.238h-1.356c-0.15-0.006-0.231 0.081-0.231 0.238v3.694c0 0.156 0.081 0.238 0.237 0.238h1.369c0.156 0 0.238-0.081 0.238-0.238v-0.131c0-0.156-0.081-0.238-0.238-0.238zM6.269 16.321c0.287-0.125 0.456-0.375 0.456-0.775v-0.744c0-0.631-0.419-0.881-1.050-0.881h-0.838c-0.156 0-0.237 0.081-0.237 0.238v3.694c0 0.156 0.081 0.238 0.237 0.238h0.213c0.156 0 0.237-0.081 0.237-0.238v-1.431h0.35l0.463 1.469c0.026 0.116 0.128 0.201 0.25 0.201 0.007 0 0.013-0 0.019-0.001l-0.001 0h0.206c0.175 0 0.25-0.113 0.2-0.275zM6.031 15.446c0 0.3-0.156 0.381-0.381 0.381h-0.362v-1.306h0.362c0.225 0 0.381 0.081 0.381 0.381zM11 14.125c-0.013-0.121-0.114-0.214-0.237-0.214-0.009 0-0.018 0-0.026 0.001l0.001-0h-0.431c-0.006-0.001-0.013-0.001-0.021-0.001-0.121 0-0.22 0.094-0.229 0.213l-0 0.001-0.688 3.7c-0.031 0.169 0.056 0.256 0.213 0.256h0.188c0.007 0.001 0.015 0.001 0.023 0.001 0.124 0 0.226-0.097 0.233-0.219l0-0.001 0.113-0.706h0.762l0.113 0.706c0.008 0.123 0.109 0.22 0.233 0.22 0.008 0 0.016-0 0.024-0.001l-0.001 0h0.219c0.162 0 0.244-0.087 0.213-0.256zM10.231 16.581l0.294-1.856 0.294 1.856zM15.813 17.844v-3.325h0.469c0.156 0 0.238-0.081 0.238-0.238v-0.131c0-0.156-0.081-0.238-0.238-0.238h-1.613c-0.156 0-0.238 0.081-0.238 0.238v0.131c0 0.156 0.081 0.238 0.238 0.238h0.456v3.325c0 0.156 0.081 0.238 0.238 0.238h0.213c0.156 0.003 0.238-0.081 0.238-0.235zM31.313 17.794h-1.212v-1.669h1.006c0.002 0 0.005 0 0.007 0 0.065 0 0.118-0.053 0.118-0.118 0-0.003-0-0.005-0-0.007l0 0v-0.050c0-0.002 0-0.005 0-0.007 0-0.065-0.053-0.118-0.118-0.118-0.003 0-0.005 0-0.007 0l0-0h-1.006v-1.613h1.194c0.002 0 0.005 0 0.007 0 0.065 0 0.118-0.053 0.118-0.118 0-0.002-0-0.005-0-0.007l0 0v-0.050c0-0.003 0-0.006 0-0.009 0-0.061-0.050-0.111-0.111-0.111-0.005 0-0.010 0-0.015 0.001l0.001-0h-1.387c-0.007-0.002-0.016-0.003-0.025-0.003-0.056 0-0.101 0.045-0.101 0.101 0 0.005 0 0.010 0.001 0.015l-0-0.001v3.937c-0 0.002-0 0.004-0 0.006 0 0.062 0.051 0.113 0.113 0.113 0.004 0 0.008-0 0.013-0.001l-0 0h1.406c0.004 0 0.008 0.001 0.012 0.001 0.062 0 0.113-0.051 0.113-0.113 0-0.002-0-0.004-0-0.007v0-0.050c0-0.002 0-0.005 0-0.008 0-0.064-0.052-0.115-0.115-0.115-0.004 0-0.007 0-0.011 0l0-0zM25.494 13.863h-0.050c-0.631 0-0.956 0.294-0.956 0.881v2.506c0 0.581 0.325 0.881 0.956 0.881h0.050c0.631 0 0.956-0.3 0.956-0.881v-2.506c0-0.585-0.325-0.879-0.956-0.879zM26.131 17.137c-0.006 0.5-0.188 0.694-0.656 0.694s-0.656-0.194-0.656-0.694v-2.287c0-0.494 0.188-0.694 0.656-0.694s0.656 0.2 0.656 0.694zM23.225 16.231c0.381-0.1 0.575-0.381 0.575-0.831v-0.606c0-0.588-0.325-0.881-0.956-0.881h-0.856c-0.004-0-0.008-0.001-0.012-0.001-0.062 0-0.113 0.051-0.113 0.113 0 0.002 0 0.004 0 0.007v-0 3.938c-0 0.002-0 0.004-0 0.006 0 0.062 0.051 0.113 0.113 0.113 0.004 0 0.008-0 0.013-0.001l-0 0h0.075c0.003 0 0.007 0 0.011 0 0.060 0 0.109-0.049 0.109-0.109 0-0.004-0-0.007-0.001-0.011l0 0v-1.681h0.725l0.65 1.7c0.021 0.055 0.074 0.094 0.136 0.094 0.003 0 0.006-0 0.008-0l-0 0h0.094c0.087 0 0.125-0.063 0.094-0.144zM22.825 15.988h-0.637v-1.781h0.637c0.469 0 0.656 0.194 0.656 0.694v0.4c0 0.49-0.188 0.69-0.656 0.69zM28.194 13.919h-0.856c-0.007-0.002-0.016-0.003-0.025-0.003-0.056 0-0.101 0.045-0.101 0.101 0 0.005 0 0.010 0.001 0.015l-0-0.001v3.938c-0 0.002-0 0.004-0 0.006 0 0.062 0.051 0.113 0.113 0.113 0.004 0 0.008-0 0.013-0.001l-0 0h0.075c0.003 0 0.007 0 0.011 0 0.060 0 0.109-0.049 0.109-0.109 0-0.004-0-0.007-0.001-0.011l0 0v-1.631h0.663c0.631 0 0.956-0.3 0.956-0.881v-0.656c0-0.588-0.325-0.881-0.956-0.881zM28.831 15.344c0 0.494-0.188 0.694-0.656 0.694h-0.637v-1.825h0.637c0.469-0.006 0.656 0.194 0.656 0.688zM16.219 19.25l-0.144-0.425-0.144 0.425-0.444 0.006 0.356 0.269-0.131 0.425 0.363-0.256 0.363 0.256-0.131-0.425 0.356-0.269zM30.444 10.744c-0.568-0.225-1.309-0.466-2.066-0.67l-0.159-0.036c1.225-4.875 0.725-8.419-1.394-9.619-2.156-1.21-5.369 0.269-8.637 3.453q0.319 0.309 0.637 0.637c5.156-5 7.475-3.344 7.556-3.3 1.4 0.794 2.25 3.487 0.969 8.613-1.507-0.364-3.312-0.652-5.155-0.804l-0.132-0.009c-4.494-6.281-8.787-8.884-11.387-8.884-1.925 0-2.737 1.313-2.975 1.734-1.131 2-0.831 5.263 0.006 8.363-4.406 1.269-7.544 3.381-7.519 5.938 0.031 3.725 6.45 5.488 7.631 5.8-1.281 5.119-0.631 8.475 1.394 9.619 1.75 0.987 4.694 0.375 8.637-3.45q-0.319-0.309-0.637-0.637c-5.156 5-7.481 3.344-7.556 3.3-1.394-0.788-2.25-3.475-0.969-8.619 0.775 0.181 2.612 0.594 5.287 0.813 4.494 6.275 8.788 8.875 11.381 8.875 1.925 0 2.738-1.313 2.975-1.731 1.125-1.994 0.831-5.256-0.006-8.363 9.519-2.738 9.763-8.137 2.119-11.019zM8.494 2.303c0.181-0.319 0.744-1.269 2.181-1.269 2.3 0 6.175 2.475 10.206 7.888-0.749-0.045-1.625-0.070-2.508-0.070-1.183 0-2.355 0.046-3.515 0.136l0.154-0.010c0.87-1.221 1.736-2.289 2.661-3.301l-0.024 0.026q-0.319-0.327-0.637-0.64c-1.095 1.203-2.136 2.512-3.087 3.888l-0.082 0.125c-1.984 0.194-3.779 0.516-5.522 0.967l0.247-0.054c-0.012-0.088-1.519-5.138-0.075-7.688zM27.544 29.696c-0.181 0.319-0.738 1.269-2.181 1.269-2.294 0-6.169-2.462-10.206-7.887 0.753 0.047 1.633 0.073 2.519 0.073 1.179 0 2.347-0.047 3.502-0.139l-0.152 0.010c-0.87 1.221-1.736 2.289-2.661 3.301l0.024-0.026q0.319 0.328 0.637 0.637c1.098-1.203 2.139-2.512 3.088-3.889l0.080-0.123c2.956-0.294 5.019-0.844 5.275-0.913 1.419 5.275 0.281 7.313 0.075 7.688zM28.113 21.034c-0.225-0.744-0.481-1.506-0.775-2.275-0.002 0-0.005 0-0.007 0-0.275 0-0.518-0.14-0.66-0.353l-0.002-0.003-0.006 0.006c-0.096 0.090-0.208 0.166-0.33 0.222l-0.008 0.003c0.356 0.894 0.663 1.775 0.919 2.637-1.256 0.334-2.785 0.62-4.346 0.798l-0.154 0.014c0.219-0.331 1.075-1.637 2.012-3.387-0.143-0.053-0.267-0.121-0.379-0.203l0.004 0.003c-0.069 0.075-0.225 0.262-0.681 0.262-0.387 0.7-1.087 1.931-2.119 3.45-1.171 0.109-2.532 0.172-3.907 0.172-1.097 0-2.185-0.040-3.262-0.118l0.144 0.008c-0.494-0.7-1.344-1.944-2.3-3.613-0.073-0.030-0.135-0.061-0.193-0.097l0.006 0.003c-0.119 0.1-0.244 0.2-0.787 0.2 0.394 0.7 1.094 1.919 2.112 3.413-1.709-0.163-3.246-0.422-4.746-0.778l0.233 0.047q0.366-1.313 0.881-2.681c-0.2 0-0.338 0.012-0.525-0.063-0.11 0.041-0.237 0.064-0.37 0.064-0.021 0-0.043-0.001-0.064-0.002l0.003 0c-0.306 0.837-0.569 1.656-0.794 2.462-9.994-2.665-8.769-7.727-0.094-10.25 0.225 0.744 0.481 1.506 0.775 2.275 0.65 0 0.806 0.213 0.9 0.331 0.042-0.052 0.089-0.097 0.142-0.136l0.002-0.001c-0.363-0.919-0.681-1.825-0.95-2.706 0.438-0.113 2.025-0.525 4.5-0.813-0.994 1.519-1.669 2.744-2.050 3.456 0.189 0.112 0.331 0.286 0.398 0.494l0.002 0.006c0.158-0.231 0.374-0.411 0.628-0.521l0.009-0.004c0.406-0.731 1.119-1.994 2.175-3.556 1.171-0.11 2.532-0.172 3.907-0.172 1.097 0 2.185 0.040 3.262 0.118l-0.144-0.008c1.969 2.787 1.806 3.006 2.656 4.031 0.163-0.213 0.385-0.374 0.641-0.46l0.009-0.003c-0.4-0.713-1.1-1.938-2.144-3.469 2.525 0.256 4.063 0.625 4.512 0.731-0.25 0.9-0.556 1.825-0.913 2.763 0.165 0.065 0.306 0.156 0.426 0.269l-0.001-0.001 0.006 0.006c0.125-0.187 0.323-0.317 0.552-0.35l0.004-0c0.306-0.838 0.575-1.662 0.8-2.469 0.891 0.235 1.609 0.47 2.31 0.739l-0.154-0.052c6.631 2.494 4.625 5.494 4.538 5.65-1.237 2.194-5.006 3.45-6.606 3.906zM20.962 13.909h-0.075c-0.003-0-0.007-0.001-0.011-0.001-0.060 0-0.109 0.049-0.109 0.109 0 0.004 0 0.007 0.001 0.011l-0-0v3.113c0 0.494-0.163 0.694-0.631 0.694s-0.631-0.194-0.631-0.694v-3.113c0.001-0.004 0.001-0.009 0.001-0.014 0-0.058-0.047-0.106-0.106-0.106-0.005 0-0.010 0-0.015 0.001l0.001-0h-0.075c-0.004-0-0.008-0.001-0.012-0.001-0.062 0-0.113 0.051-0.113 0.113 0 0.002 0 0.004 0 0.007v-0 3.219c0 0.6 0.313 0.881 0.944 0.881h0.025c0.631 0 0.944-0.288 0.944-0.881v-3.219c-0.003-0.067-0.058-0.119-0.125-0.119-0.004 0-0.009 0-0.013 0.001l0.001-0zM20.106 19.25l-0.144-0.425-0.144 0.425-0.444 0.006 0.356 0.269-0.131 0.425 0.363-0.256 0.363 0.256-0.131-0.425 0.356-0.269zM18.163 19.712l-0.144-0.425-0.144 0.425-0.444 0.006 0.356 0.269-0.131 0.425 0.363-0.256 0.363 0.256-0.131-0.425 0.356-0.269zM18.481 17.788h-1.212v-1.669h1.006c0.002 0 0.005 0 0.007 0 0.065 0 0.118-0.053 0.118-0.118 0-0.002-0-0.005-0-0.007l0 0v-0.050c0-0.002 0-0.005 0-0.007 0-0.065-0.053-0.118-0.118-0.118-0.003 0-0.005 0-0.007 0l0-0h-1.006v-1.613h1.194c0.002 0 0.005 0 0.007 0 0.065 0 0.118-0.053 0.118-0.118 0-0.002-0-0.005-0-0.007l0 0v-0.050c0-0.003 0-0.006 0-0.009 0-0.061-0.050-0.111-0.111-0.111-0.005 0-0.010 0-0.015 0.001l0.001-0h-1.387c-0.004-0-0.008-0.001-0.012-0.001-0.062 0-0.113 0.051-0.113 0.113 0 0.002 0 0.004 0 0.007v-0 3.937c-0 0.002-0 0.004-0 0.006 0 0.062 0.051 0.113 0.113 0.113 0.004 0 0.008-0 0.013-0.001l-0 0h1.406c0.004 0.001 0.010 0.001 0.015 0.001 0.061 0 0.111-0.050 0.111-0.111 0-0.003-0-0.006-0-0.010l0 0v-0.050c0.001-0.005 0.001-0.010 0.001-0.015 0-0.063-0.051-0.114-0.114-0.114-0.004 0-0.008 0-0.012 0.001l0-0zM18.019 11.575l-0.144 0.425-0.444 0.006 0.356 0.269-0.131 0.425 0.363-0.256 0.363 0.256-0.131-0.425 0.356-0.269-0.444-0.006z"></path>
</svg>
