<!-- Generated by IcoMoon.io -->
<svg version="1.1" xmlns="http://www.w3.org/2000/svg" width="28" height="32" viewBox="0 0 28 32">
<title>red-river</title>
<path d="M22.075 2h-16.15c-3.275 0-5.925 2.65-5.925 5.925v16.15c0 3.275 2.65 5.925 5.925 5.925h16.15c3.275 0 5.925-2.65 5.925-5.925v-16.15c0-3.275-2.65-5.925-5.925-5.925zM9.056 12.556v3.519c0 1.688-1.369 3.056-3.056 3.056v-9.637c0-0.825 0.669-1.494 1.494-1.494h9.638c0 1.688-1.369 3.056-3.056 3.056h-3.519c-0.769-0.037-1.537 0.725-1.5 1.5zM20.075 17.056h-3.519c-0.769-0.038-1.537 0.725-1.5 1.5v3.519c0 1.688-1.369 3.056-3.056 3.056v-9.637c0-0.825 0.669-1.494 1.494-1.494h9.637c0 1.688-1.369 3.056-3.056 3.056z"></path>
</svg>
