<!-- Generated by IcoMoon.io -->
<svg version="1.1" xmlns="http://www.w3.org/2000/svg" width="28" height="32" viewBox="0 0 28 32">
<title>reddit-sp</title>
<path d="M17.7 21.594c0.169 0.169 0.169 0.425 0 0.575-1.531 1.531-5.863 1.538-7.4 0-0.169-0.15-0.169-0.406 0-0.575 0.15-0.15 0.406-0.15 0.556 0 1.169 1.2 5.063 1.225 6.281 0 0.15-0.144 0.413-0.144 0.563 0zM11.994 18.231c0-0.931-0.744-1.675-1.656-1.675-0.931 0-1.675 0.744-1.675 1.675 0 0.913 0.744 1.656 1.675 1.656 0.912 0 1.656-0.744 1.656-1.656zM17.663 16.556c-0.913 0-1.656 0.744-1.656 1.675 0 0.913 0.744 1.656 1.656 1.656 0.931 0 1.675-0.744 1.675-1.656 0-0.931-0.744-1.675-1.675-1.675zM28 5v22c0 1.656-1.344 3-3 3h-22c-1.656 0-3-1.344-3-3v-22c0-1.656 1.344-3 3-3h22c1.656 0 3 1.344 3 3zM21.769 13.787c-0.631 0-1.188 0.262-1.6 0.669-1.506-1.044-3.531-1.713-5.781-1.787l1.169-5.263 3.719 0.837c0 0.912 0.744 1.656 1.656 1.656 0.931 0 1.675-0.762 1.675-1.675s-0.744-1.675-1.675-1.675c-0.65 0-1.206 0.388-1.488 0.931l-4.106-0.912c-0.206-0.056-0.406 0.094-0.463 0.3l-1.281 5.8c-2.231 0.094-4.237 0.762-5.744 1.806-0.406-0.425-0.987-0.688-1.619-0.688-2.344 0-3.112 3.15-0.969 4.219-0.075 0.337-0.112 0.688-0.112 1.044 0 3.531 3.981 6.394 8.869 6.394 4.906 0 8.887-2.863 8.887-6.394 0-0.356-0.038-0.725-0.131-1.063 2.1-1.075 1.325-4.2-1.006-4.2z"></path>
</svg>
