<!-- Generated by IcoMoon.io -->
<svg version="1.1" xmlns="http://www.w3.org/2000/svg" width="32" height="32" viewBox="0 0 32 32">
<title>requirejs</title>
<path d="M16 0c-7.342 0-13.292 5.951-13.292 13.292s5.95 13.293 13.292 13.293c7.341 0 13.292-5.952 13.292-13.293s-5.952-13.292-13.292-13.292zM16 23.385c-5.563 0-10.092-4.525-10.092-10.092s4.529-10.092 10.092-10.092c5.566 0 10.092 4.525 10.092 10.092s-4.526 10.092-10.092 10.092z"></path>
<path d="M16 8.862c-2.447 0-4.431 1.983-4.431 4.431 0 2.446 1.984 4.431 4.431 4.431s4.431-1.985 4.431-4.431c0-2.448-1.984-4.431-4.431-4.431z"></path>
<path d="M16 4.431c-4.893 0-8.862 3.967-8.862 8.862s3.968 8.862 8.862 8.862c4.893 0 8.862-3.967 8.862-8.862s-3.968-8.862-8.862-8.862zM16 18.954c-3.119 0-5.662-2.539-5.662-5.662s2.542-5.662 5.662-5.662c3.121 0 5.662 2.539 5.662 5.662s-2.54 5.662-5.662 5.662z"></path>
<path d="M24.123 30.031l-3.446-1.477v0.985h-6.79l-1.405-1.405c-0.096-0.096-0.252-0.096-0.348 0s-0.096 0.252 0 0.348l1.057 1.057h-0.535l-1.405-1.405c-0.096-0.096-0.252-0.096-0.348 0s-0.096 0.252 0 0.348l1.057 1.057h-0.535l-1.405-1.405c-0.096-0.096-0.252-0.096-0.348 0s-0.096 0.252 0 0.348l1.057 1.057h-0.535l-1.405-1.405c-0.096-0.096-0.252-0.096-0.348 0s-0.096 0.252 0 0.348l1.057 1.057h-1.129c-0.277 0-0.492 0.288-0.492 0.492s0.223 0.492 0.492 0.492h1.129l-1.057 1.057c-0.096 0.096-0.096 0.252 0 0.348s0.252 0.096 0.348 0l1.405-1.405h0.535l-1.057 1.057c-0.096 0.096-0.096 0.252 0 0.348s0.252 0.096 0.348 0l1.405-1.405h0.535l-1.057 1.057c-0.096 0.096-0.096 0.252 0 0.348s0.252 0.096 0.348 0l1.405-1.405h0.535l-1.057 1.057c-0.096 0.096-0.096 0.252 0 0.348s0.252 0.096 0.348 0l1.405-1.405h6.79v0.985l3.446-1.477z"></path>
</svg>
