<!-- Generated by IcoMoon.io -->
<svg version="1.1" xmlns="http://www.w3.org/2000/svg" width="28" height="32" viewBox="0 0 28 32">
<title>researchgate</title>
<path d="M0 2v28h28v-28h-28zM16.387 22.9c-0.412 0.188-2.075 0.375-3.125-0.887-0.575-0.663-1.581-2.081-2.637-3.975-0.556 0-0.919 0-1.338-0.038v2.9c0 1.469 0.375 1.325 1.613 1.494v0.506c-0.431-0.019-1.444-0.050-2.225-0.050-0.819 0-1.631 0.038-2.1 0.050v-0.506c0.969-0.181 1.375-0.081 1.375-1.494v-6.838c0-1.412-0.4-1.313-1.375-1.494v-0.506c1.613 0.063 3.319-0.037 4.431-0.037 1.981 0 3.494 0.9 3.494 2.85 0 1.319-1.044 2.638-2.45 2.969 0.85 1.512 1.875 2.85 2.637 3.681 0.45 0.488 1.075 0.919 1.7 0.919v0.456zM17.819 14.463c-1.456 0-2.012-0.981-2.012-2.013v-2.012c0-0.762 0.55-1.9 2.125-1.9s1.9 1.119 1.9 1.119l-0.669 0.45s-0.344-0.781-1.231-0.781c-0.494 0-1.231 0.456-1.231 1.231v1.675c0 0.838 0.413 1.456 1.119 1.456 0.881 0 1.344-0.681 1.344-1.675h-1.119v-0.669h1.9c0 1.281 0.294 3.119-2.125 3.119zM10.537 17.256c-0.588 0-0.85-0.019-1.25-0.050v-4.356c0.4-0.037 0.938-0.037 1.406-0.037 1.456 0 2.325 0.762 2.325 2.156 0 1.369-0.938 2.287-2.481 2.287z"></path>
</svg>
