<!-- Generated by IcoMoon.io -->
<svg version="1.1" xmlns="http://www.w3.org/2000/svg" width="31" height="32" viewBox="0 0 31 32">
<title>rockrms</title>
<path d="M15.5 0.5c-8.563 0-15.5 6.938-15.5 15.5s6.938 15.5 15.5 15.5 15.5-6.938 15.5-15.5-6.938-15.5-15.5-15.5zM25.337 26.719h-5.625l-7-8.206c-1.119-1.275-0.244-3.506 1.662-3.506h4.706l-5.287-6.206-5.269 6.181h-5.625l9.194-10.781c0.9-1.15 2.581-1.081 3.406 0l9.856 11.569c1.188 1.425 0.125 3.575-1.725 3.506-0.038 0-4.637 0.012-4.637 0.012l6.344 7.431z"></path>
</svg>
