<!-- Generated by IcoMoon.io -->
<svg version="1.1" xmlns="http://www.w3.org/2000/svg" width="24" height="32" viewBox="0 0 24 32">
<title>scribd</title>
<path d="M2.644 15.794c-1.006-1.188-1.544-2.869-1.55-4.994 0-6.275 4.7-9.569 10.45-9.569 6.162-0.1 9.8 3.063 11.519 4.412l-3.156 4.506-2.331-1.537 1.681-2.412c-2.281-1.5-4.963-2.281-7.688-2.237-3.169-0.050-6.981 1.7-6.981 4.763 0 1.169 0.7 1.294 1.788 0.975 1.456-0.331 2.619 0.037 3.487 0.875 1.65 1.519 1.45 4.225-0.044 5.744-1.825 1.844-5.325 1.706-7.175-0.525zM22.5 16.163c-0.969-1.175-2.431-1.838-3.95-1.787-2.381-0.125-4.444 1.75-4.406 4.2-0.044 1.050 0.375 2.063 1.15 2.769 0.881 0.869 2.063 1.231 3.519 0.9 1.087-0.319 1.788-0.194 1.788 0.975 0 0.269-0.031 0.531-0.087 0.794-1.044 2.556-3.719 4.025-7.588 4.025-3.244 0.012-6.4-1.025-9.006-2.956l2.106-2.462-2.225-1.712-3.8 4.488 0.963 0.863c3.281 2.925 7.525 4.531 11.919 4.512 3.213 0 5.9-0.656 8.35-2.756 3.569-3.212 3.387-9.325 1.269-11.85z"></path>
</svg>
