<!-- Generated by IcoMoon.io -->
<svg version="1.1" xmlns="http://www.w3.org/2000/svg" width="29" height="32" viewBox="0 0 29 32">
<title>searchengin</title>
<path d="M13.787 8.144l-4.2 1.762v-7.206l-3.419 11.894 3.419-1.512v8.144l4.2-13.081zM8.588 2.1l-0.081 0.294-0.95 3.306c-2.519 0.969-4.306 3.413-4.306 6.269 0 3.269 2.144 5.994 5.212 6.594v3.35c-4.869-0.656-8.463-4.887-8.463-9.938 0-5.031 3.737-9.2 8.588-9.875zM28.050 30.050c-0.7 0.7-1.444 0.769-1.788 0.656-0.337-0.113-1.694-1.244-3.775-2.775-2.081-1.538-2.1-2.231-2.688-3.544-0.587-1.306-1.9-2.663-3.594-3.275l-0.606-0.919c-1.544 1.056-3.313 1.681-5.081 1.794l0.131-0.413 0.994-3.094c2.906-0.744 5.056-3.375 5.056-6.512 0-3.406-2.4-6.381-6-6.694v-3.256c5.2 0.319 9.3 4.656 9.3 9.956 0 2.1-0.7 4.044-1.813 5.65l0.913 0.6c0.613 1.694 1.969 3 3.275 3.587s2.012 0.606 3.55 2.688c1.538 2.075 2.669 3.431 2.781 3.769s0.044 1.081-0.656 1.781zM27.431 28.931c0-0.275-0.225-0.5-0.5-0.5s-0.5 0.225-0.5 0.5 0.225 0.5 0.5 0.5 0.5-0.225 0.5-0.5z"></path>
</svg>
