<!-- Generated by IcoMoon.io -->
<svg version="1.1" xmlns="http://www.w3.org/2000/svg" width="40" height="32" viewBox="0 0 40 32">
<title>sellsy</title>
<path d="M33.732 14.832c0.191-0.766 0.268-1.551 0.268-2.337 0-5.784-4.711-10.495-10.495-10.495-4.826 0-9.040 3.313-10.189 7.986-0.958-0.823-2.183-1.283-3.447-1.283-2.892 0-5.248 2.356-5.248 5.248 0 0.46 0.058 0.938 0.192 1.398-2.681 1.264-4.424 3.984-4.424 6.952-0 4.252 3.466 7.699 7.699 7.699h23.825c4.232 0 7.699-3.447 7.699-7.699 0-3.524-2.432-6.627-5.88-7.469zM12.492 25.097c0 0.517-0.441 0.958-0.958 0.958h-1.934c-0.517 0-0.958-0.441-0.958-0.958v-6.933c0-0.517 0.441-0.958 0.958-0.958h1.934c0.517 0 0.958 0.441 0.958 0.958v6.933zM18.085 25.097c0 0.517-0.441 0.958-0.958 0.958h-1.934c-0.517 0-0.958-0.441-0.958-0.958v-8.216c0-0.517 0.441-0.958 0.958-0.958h1.934c0.517 0 0.958 0.44 0.958 0.958v8.216zM23.677 25.097c0 0.517-0.44 0.958-0.958 0.958h-1.934c-0.517 0-0.958-0.441-0.958-0.958v-10.17c0-0.517 0.441-0.958 0.958-0.958h1.934c0.517 0 0.958 0.441 0.958 0.958v10.17zM29.116 25.097c0 0.517-0.441 0.958-0.958 0.958h-1.781c-0.517 0-0.958-0.441-0.958-0.958v-14.038c0-0.536 0.44-0.977 0.958-0.977h1.781c0.517 0 0.958 0.441 0.958 0.977v14.038z"></path>
</svg>
