<!-- Generated by IcoMoon.io -->
<svg version="1.1" xmlns="http://www.w3.org/2000/svg" width="28" height="32" viewBox="0 0 28 32">
<title>shopify</title>
<path d="M24.27 6.506c-0.020-0.138-0.134-0.243-0.274-0.25l-0.001-0c-0.125 0-2.327-0.050-2.327-0.050s-1.351-1.301-1.851-1.802v27.046l7.856-1.95s-3.378-22.844-3.402-22.994zM18.041 4.404c-0.137-0.429-0.29-0.793-0.47-1.141l0.019 0.041c-0.652-1.251-1.626-1.929-2.777-1.929-0.010-0-0.021-0.001-0.033-0.001-0.077 0-0.152 0.009-0.224 0.027l0.006-0.001c-0.025-0.050-0.075-0.075-0.1-0.125-0.5-0.548-1.15-0.798-1.926-0.775-1.5 0.050-3 1.125-4.203 3.052-0.851 1.351-1.5 3.053-1.676 4.379-1.726 0.525-2.927 0.901-2.952 0.926-0.875 0.275-0.901 0.3-1 1.125-0.075 0.625-2.375 18.239-2.375 18.239l18.911 3.28v-27.396c-0.101 0.004-0.196 0.013-0.289 0.027l0.014-0.002s-0.35 0.1-0.926 0.275zM14.588 5.481c-1 0.3-2.102 0.65-3.178 0.976 0.3-1.176 0.901-2.352 1.601-3.125 0.275-0.275 0.651-0.601 1.076-0.801 0.426 0.898 0.526 2.124 0.501 2.95zM12.536 1.528c0.016-0.001 0.035-0.001 0.054-0.001 0.311 0 0.604 0.083 0.855 0.228l-0.008-0.004c-0.4 0.2-0.801 0.526-1.176 0.901-0.951 1.026-1.676 2.625-1.976 4.153-0.901 0.276-1.802 0.551-2.625 0.801 0.547-2.399 2.574-6.027 4.876-6.077zM9.634 15.288c0.1 1.601 4.328 1.951 4.578 5.729 0.175 2.977-1.576 5.004-4.103 5.154-3.052 0.2-4.728-1.601-4.728-1.601l0.65-2.75s1.676 1.276 3.027 1.176c0.875-0.050 1.201-0.776 1.176-1.276-0.125-2.101-3.578-1.976-3.803-5.429-0.2-2.902 1.701-5.829 5.904-6.105 1.625-0.1 2.452 0.301 2.452 0.301l-0.951 3.6s-1.076-0.5-2.352-0.4c-1.851 0.126-1.876 1.301-1.851 1.601zM15.589 5.18c0-0.75-0.1-1.826-0.451-2.727 1.151 0.225 1.701 1.5 1.952 2.277q-0.676 0.188-1.501 0.45z"></path>
</svg>
