<!-- Generated by IcoMoon.io -->
<svg version="1.1" xmlns="http://www.w3.org/2000/svg" width="28" height="32" viewBox="0 0 28 32">
<title>sith</title>
<path d="M0 2l4.357 7.422-3.679-0.72 4.365 5.689c-0.090 0.483-0.142 1.040-0.142 1.608s0.052 1.124 0.151 1.664l-0.009-0.056-4.365 5.689 3.679-0.72-4.357 7.424 7.422-4.357-0.72 3.679 5.689-4.365c1.064 0.19 2.154 0.19 3.217 0l5.689 4.365-0.72-3.679 7.422 4.357-4.357-7.424 3.679 0.72-4.365-5.689c0.189-1.063 0.19-2.152 0-3.216l4.365-5.689-3.679 0.72 4.357-7.422-7.422 4.357 0.72-3.681-5.691 4.367c-0.531-0.095-1.069-0.143-1.607-0.143s-1.076 0.049-1.607 0.143l-5.691-4.367 0.72 3.681-7.422-4.357zM14 8.236c1.988 0 3.975 0.758 5.491 2.273 3.031 3.031 3.031 7.951 0 10.981s-7.95 3.029-10.981-0.002c-3.031-3.031-3.031-7.951 0-10.981 1.515-1.516 3.503-2.271 5.491-2.271zM14 10.527c-1.401 0-2.802 0.533-3.87 1.601-2.136 2.136-2.137 5.605 0 7.742s5.603 2.136 7.74 0c2.136-2.136 2.137-5.605 0-7.742-1.068-1.068-2.469-1.601-3.87-1.601z"></path>
</svg>
