<!-- Generated by IcoMoon.io -->
<svg version="1.1" xmlns="http://www.w3.org/2000/svg" width="32" height="32" viewBox="0 0 32 32">
<title>sizzlejs</title>
<path d="M16.646 13.496l0.327-1.244c0.524-1.986 0.611-1.986 2.662-0.153 1.004 0.895 2.924 2.597 4.277 3.775 1.593 1.419 2.379 2.248 2.226 2.401-0.196 0.196-12.089 7.092-12.133 7.026-0.022 0 0.066-0.611 0.196-1.353 0.371-2.204 1.423-1.963-6.084-1.963l-7.075-0.088v0.633c0 0.96 1.178 1.833 4.561 3.448l2.968 1.396-0.524 0.436c-0.305 0.24-0.829 0.502-1.157 0.567-2.597 0.523 2.117 0.982 9.1 0.895l5.674-0.065 2.379-1.178c2.051-0.982 2.64-1.418 4.168-2.946 1.964-1.964 3.164-3.993 3.601-6.154 0.153-0.698 0.218-2.379 0.175-3.884-0.065-2.51-0.109-2.728-0.807-4.168-1.789-3.622-5.237-5.586-11.129-6.307-2.597-0.327-3.95-0.698-5.194-1.44l-0.72-0.415v0.589c0.022 0.327 0.153 0.829 0.327 1.135 0.458 0.786 0.415 0.873-0.371 0.873-0.393 0-1.157 0.218-1.702 0.458-1.506 0.677-2.946 0.895-4.43 0.633-0.698-0.131-1.418-0.306-1.593-0.371s-0.306 0-0.306 0.131c0 0.436 0.895 2.16 1.397 2.706l0.502 0.545-0.742 0.109c-0.393 0.065-1.593 0.611-2.64 1.222-2.139 1.2-2.881 1.44-3.906 1.135-0.851-0.24-0.851-0.218-0.24 0.873l0.48 0.851z"></path>
</svg>
