<!-- Generated by IcoMoon.io -->
<svg version="1.1" xmlns="http://www.w3.org/2000/svg" width="40" height="32" viewBox="0 0 40 32">
<title>skyatlas</title>
<path d="M40 20.581c0 4.119-3.281 7.15-7.344 7.15-10.369 0-12.288-15.606-22.481-15.606-9.181 0-9.194 13.262 0.35 13.262 2.656 0 5.681-1.113 7.831-2.656 0.35-0.256 1.056-1.019 1.425-1.019s0.681 0.313 0.681 0.681c0 0.488-0.819 1.194-1.169 1.506-2.556 2.225-6.269 3.825-9.669 3.825-5.213 0.006-9.625-3.688-9.625-9.056s4.219-9.319 9.55-9.319c11.581 0 13.906 15.369 22.619 15.369 6.244 0 5.925-8.731 0.212-8.731-1.094 0-2.188 0.725-2.931 0.725-0.525 0-0.994-0.45-0.994-0.975 0-0.725 0.331-1.481 0.331-2.269 0-4.162-3.181-7.169-7.306-7.169-3.319 0-5 2.306-5.55 2.306-0.387 0-0.7-0.313-0.7-0.7 0-0.35 0.256-0.644 0.488-0.9 1.581-1.8 4.044-2.731 6.425-2.731 4.962 0 8.694 3.65 8.694 8.613 0 0.431-0.019 0.856-0.075 1.287 0.744-0.194 1.506-0.294 2.244-0.294 3.794 0 6.994 2.831 6.994 6.7z"></path>
</svg>
