<!-- Generated by IcoMoon.io -->
<svg version="1.1" xmlns="http://www.w3.org/2000/svg" width="28" height="32" viewBox="0 0 28 32">
<title>slack-hash</title>
<path d="M27.887 16.9c-0.387-1.188-1.681-1.819-2.875-1.431l-2.837 0.944-1.894-5.625 2.837-0.944c1.194-0.387 1.819-1.675 1.438-2.869-0.387-1.188-1.681-1.819-2.875-1.431l-2.837 0.944-0.981-2.938c-0.387-1.188-1.681-1.819-2.875-1.431s-1.819 1.675-1.438 2.869l0.981 2.938-5.838 1.95-0.981-2.938c-0.388-1.188-1.681-1.819-2.875-1.431s-1.819 1.675-1.438 2.869l0.981 2.938-2.831 0.938c-1.194 0.387-1.819 1.675-1.438 2.869 0.313 0.906 1.194 1.5 2.1 1.537 0.425 0.063 0.75-0.1 3.606-1.050l1.894 5.625-2.837 0.944c-1.188 0.387-1.819 1.681-1.438 2.869 0.313 0.906 1.194 1.5 2.1 1.538 0.425 0.063 0.75-0.1 3.606-1.050l0.981 2.938c0.369 1.056 1.544 1.813 2.875 1.431 1.194-0.387 1.819-1.675 1.438-2.869l-0.981-2.938 5.85-1.956 0.981 2.938c0.369 1.056 1.544 1.813 2.875 1.431 1.194-0.387 1.819-1.675 1.438-2.869l-0.981-2.938 2.837-0.944c1.188-0.375 1.819-1.669 1.431-2.856zM12.006 19.85l-1.894-5.637 5.844-1.956 1.894 5.637-5.844 1.956z"></path>
</svg>
