<!-- Generated by IcoMoon.io -->
<svg version="1.1" xmlns="http://www.w3.org/2000/svg" width="28" height="32" viewBox="0 0 28 32">
<title>slack</title>
<path d="M5.883 19.694c0 1.619-1.322 2.941-2.941 2.941s-2.941-1.323-2.941-2.941c0-1.619 1.323-2.941 2.941-2.941h2.941v2.941zM7.365 19.694c0-1.619 1.322-2.941 2.941-2.941s2.941 1.323 2.941 2.941v7.365c0 1.619-1.322 2.941-2.941 2.941s-2.941-1.323-2.941-2.941v-7.365zM10.306 7.883c-1.619 0-2.941-1.322-2.941-2.941s1.322-2.941 2.941-2.941 2.941 1.322 2.941 2.941v2.941h-2.941zM10.306 9.365c1.619 0 2.941 1.322 2.941 2.941s-1.322 2.941-2.941 2.941h-7.365c-1.619 0-2.941-1.322-2.941-2.941s1.323-2.941 2.941-2.941h7.365zM22.117 12.306c0-1.619 1.323-2.941 2.941-2.941s2.941 1.322 2.941 2.941-1.323 2.941-2.941 2.941h-2.941v-2.941zM20.635 12.306c0 1.619-1.323 2.941-2.941 2.941s-2.941-1.322-2.941-2.941v-7.365c0-1.619 1.323-2.941 2.941-2.941s2.941 1.322 2.941 2.941v7.365zM17.694 24.117c1.619 0 2.941 1.323 2.941 2.941s-1.323 2.941-2.941 2.941c-1.619 0-2.941-1.323-2.941-2.941v-2.941h2.941zM17.694 22.635c-1.619 0-2.941-1.323-2.941-2.941s1.323-2.941 2.941-2.941h7.365c1.619 0 2.941 1.323 2.941 2.941s-1.323 2.941-2.941 2.941h-7.365z"></path>
</svg>
