<!-- Generated by IcoMoon.io -->
<svg version="1.1" xmlns="http://www.w3.org/2000/svg" width="28" height="32" viewBox="0 0 28 32">
<title>speakap</title>
<path d="M4 24.486c-4.963-5.512-4.5-14.023 1.040-19.009s14.050-4.563 19.013 0.952 4.5 14.023-1.040 19.009c-1.171 1.054 4 2.693 2.625 3.266-5.129 2.138-15.869 2.188-21.639-4.219zM17.332 11.261l2.406-2.554c-0.601-0.556-2-1.677-4.761-1.725-3.271-0.057-5.991 1.769-6.048 5-0.012 0.708 0.018 2.295 1.839 3.427 2.154 1.339 5.407 1.344 5.375 3.266-0.023 1.33-1.651 1.613-2.412 1.6-0.188-0.003-1.889-0.029-2.976-1.539l-2.5 2.663c1.76 1.688 3.688 2.039 5.218 2.066 0.639 0.011 6.026 0.021 6.115-5.063 0.017-0.988-0.129-2.482-1.804-3.537-2.148-1.353-5.313-1.216-5.277-3.109 0.026-1.453 1.938-1.586 2.346-1.579 0.027 0 1.664 0.016 2.476 1.086z"></path>
</svg>
