<!-- Generated by IcoMoon.io -->
<svg version="1.1" xmlns="http://www.w3.org/2000/svg" width="32" height="32" viewBox="0 0 32 32">
<title>squarespace</title>
<path d="M11.633 21.459c-0.603 0.603-0.603 1.581 0 2.184s1.581 0.603 2.184 0l9.824-9.824c1.206-1.206 3.161-1.206 4.366 0s1.206 3.161 0 4.366l-9.634 9.634c1.204 1.206 3.158 1.207 4.364 0.003l7.456-7.455c2.412-2.412 2.412-6.321 0-8.732s-6.322-2.412-8.733 0l-9.826 9.825zM26.916 14.909c-0.603-0.603-1.581-0.603-2.183 0l-9.825 9.824c-1.204 1.206-3.158 1.207-4.364 0.003l-0.003-0.003c-0.602-0.602-1.579-0.603-2.183-0.001l-0.001 0.001c-0.603 0.602-0.604 1.58-0.001 2.183l0.001 0.001c2.411 2.411 6.321 2.411 8.732 0l9.825-9.825c0.603-0.603 0.603-1.581 0.001-2.183zM10.541 20.367l9.824-9.824c0.602-0.603 0.602-1.581 0-2.184s-1.579-0.603-2.182 0l-9.826 9.824c-1.205 1.206-3.16 1.206-4.366 0.001l-0.001-0.001c-1.206-1.205-1.207-3.159-0.002-4.365l9.637-9.637c-1.205-1.206-3.159-1.206-4.366-0.001l-7.453 7.454c-2.411 2.412-2.411 6.321 0 8.732 2.412 2.412 6.321 2.412 8.733 0.001zM5.083 17.092c0.603 0.602 1.579 0.602 2.182 0l9.826-9.824c1.205-1.206 3.159-1.206 4.365-0.001l0.001 0.001c0.603 0.603 1.581 0.603 2.183 0s0.603-1.581 0-2.183c-2.412-2.412-6.321-2.412-8.732 0l-9.824 9.824c-0.603 0.602-0.603 1.58-0.001 2.183h0.001z"></path>
</svg>
