<!-- Generated by IcoMoon.io -->
<svg version="1.1" xmlns="http://www.w3.org/2000/svg" width="28" height="32" viewBox="0 0 28 32">
<title>superpowers</title>
<path d="M28 2c-5.206 0.688-10.425 1.375-15.625 2.063-5.75 0.781-10.206 5.419-10.563 11.25-0.206 3.469 1.125 6.844 3.612 9.262l-5.425 5.425c5.206-0.688 10.406-1.375 15.613-2.063 5.738-0.781 10.206-5.425 10.544-11.238 0.219-3.469-1.125-6.844-3.606-9.262l5.45-5.438zM23.019 16.519c-0.262 4.969-4.625 8.7-9.55 8.406-4.969-0.294-8.794-4.438-8.519-9.438 0.281-4.95 4.644-8.706 9.563-8.406 4.956 0.294 8.781 4.438 8.506 9.438z"></path>
</svg>
