<!-- Generated by IcoMoon.io -->
<svg version="1.1" xmlns="http://www.w3.org/2000/svg" width="28" height="32" viewBox="0 0 28 32">
<title>swift-sp</title>
<path d="M28 9.756c0-0.282-0.005-0.563-0.012-0.845-0.008-0.656-0.067-1.291-0.171-1.911l0.010 0.072c-0.115-0.656-0.315-1.244-0.593-1.785l0.016 0.035c-0.575-1.113-1.46-1.997-2.54-2.556l-0.033-0.015c-0.506-0.262-1.094-0.462-1.713-0.571l-0.037-0.005c-0.548-0.095-1.184-0.154-1.832-0.162l-0.008-0c-0.282-0.007-0.563-0.011-0.845-0.012h-12.484c-0.282 0-0.563 0.005-0.845 0.012-0.153 0.004-0.307 0.009-0.461 0.017-0.504 0.021-0.979 0.073-1.443 0.154l0.064-0.009c-0.501 0.089-0.946 0.221-1.368 0.397l0.043-0.016q-0.216 0.091-0.426 0.195c-0.437 0.226-0.814 0.482-1.157 0.777l0.008-0.007c-0.118 0.101-0.231 0.205-0.339 0.313-0.427 0.426-0.789 0.917-1.069 1.458l-0.015 0.033c-0.261 0.506-0.462 1.094-0.571 1.713l-0.005 0.037c-0.094 0.548-0.151 1.183-0.159 1.83l-0 0.007c-0.008 0.282-0.011 0.563-0.013 0.845v12.489c0 0.282 0.005 0.563 0.013 0.844 0.008 0.656 0.067 1.291 0.171 1.911l-0.010-0.072c0.114 0.656 0.315 1.244 0.593 1.785l-0.016-0.035c0.575 1.112 1.459 1.996 2.538 2.556l0.033 0.015c0.506 0.261 1.094 0.461 1.713 0.57l0.037 0.005c0.548 0.095 1.184 0.154 1.832 0.162l0.008 0c0.281 0.008 0.563 0.011 0.845 0.012h12.487c0.282 0 0.563-0.005 0.845-0.012 0.656-0.008 1.292-0.067 1.912-0.172l-0.072 0.010c0.656-0.114 1.244-0.315 1.785-0.592l-0.035 0.016c1.112-0.576 1.996-1.46 2.555-2.54l0.015-0.033c0.261-0.506 0.462-1.094 0.571-1.713l0.005-0.037c0.095-0.548 0.154-1.183 0.162-1.831l0-0.008c0.008-0.281 0.011-0.563 0.012-0.844v-11.486c-0.001-0.334-0.001-0.669-0.001-1.003zM23.633 24.818c-1.25-2.433-3.577-1.829-4.769-1.217-0.108 0.063-0.218 0.125-0.328 0.188l-0.026 0.016c-2.469 1.313-5.783 1.409-9.116-0.024-2.753-1.214-4.997-3.158-6.545-5.589l-0.035-0.059c0.709 0.53 1.512 1.017 2.361 1.423l0.087 0.037c3.522 1.65 7.063 1.531 9.563 0-3.563-2.741-6.537-6.313-8.818-9.201-0.412-0.478-0.799-1.007-1.143-1.565l-0.031-0.053c2.731 2.5 7.044 5.639 8.592 6.508-3.286-3.468-6.181-7.746-6.045-7.609 5.174 5.214 9.949 8.162 9.949 8.162 0.18 0.099 0.313 0.178 0.421 0.25 0.082-0.199 0.171-0.458 0.246-0.723l0.014-0.056c0.826-3.021-0.104-6.474-2.207-9.325 4.799 2.88 7.636 8.354 6.474 12.984-0.027 0.108-0.059 0.212-0.090 0.318 2.407 2.962 1.753 6.136 1.446 5.537z"></path>
</svg>
