<!-- Generated by IcoMoon.io -->
<svg version="1.1" xmlns="http://www.w3.org/2000/svg" width="32" height="32" viewBox="0 0 32 32">
<title>symfony1</title>
<path d="M26.341 1.097c-2.403 0.084-4.501 1.409-6.061 3.24-1.73 2.008-2.88 4.392-3.708 6.824-1.482-1.215-2.625-2.787-5.004-3.473-1.839-0.528-3.769-0.311-5.544 1.012-0.841 0.629-1.42 1.578-1.696 2.47-0.714 2.321 0.749 4.386 1.415 5.128l1.453 1.555c0.3 0.306 1.021 1.103 0.669 2.245-0.381 1.243-1.878 2.046-3.414 1.573-0.686-0.212-1.672-0.723-1.45-1.44 0.091-0.295 0.301-0.517 0.415-0.769 0.103-0.219 0.152-0.383 0.184-0.479 0.28-0.917-0.103-2.108-1.083-2.411-0.916-0.28-1.851-0.058-2.215 1.12-0.413 1.341 0.229 3.768 3.66 4.828 4.021 1.236 7.422-0.955 7.905-3.809 0.304-1.788-0.505-3.118-1.983-4.827l-1.205-1.332c-0.731-0.731-0.981-1.973-0.226-2.928 0.638-0.806 1.546-1.15 3.034-0.746 2.171 0.588 3.139 2.096 4.754 3.311-0.666 2.186-1.103 4.382-1.497 6.352l-0.241 1.466c-1.155 6.055-2.036 9.379-4.326 11.288-0.461 0.329-1.121 0.819-2.115 0.854-0.521 0.016-0.689-0.342-0.697-0.499-0.011-0.365 0.297-0.533 0.502-0.698 0.306-0.168 0.769-0.445 0.737-1.33-0.034-1.050-0.902-1.958-2.156-1.916-0.941 0.031-2.373 0.915-2.319 2.536 0.056 1.672 1.614 2.926 3.965 2.845 1.257-0.041 4.063-0.553 6.828-3.839 3.218-3.769 4.118-8.089 4.796-11.25l0.755-4.173c0.42 0.049 0.869 0.084 1.358 0.095 4.007 0.086 6.012-1.991 6.043-3.501 0.020-0.914-0.599-1.814-1.467-1.793-0.62 0.018-1.4 0.43-1.587 1.289-0.183 0.843 1.275 1.603 0.135 2.342-0.81 0.525-2.261 0.894-4.305 0.594l0.372-2.055c0.758-3.896 1.694-8.688 5.244-8.804 0.259-0.013 1.206 0.011 1.227 0.637 0.007 0.209-0.044 0.263-0.29 0.741-0.25 0.373-0.343 0.69-0.332 1.056 0.035 0.994 0.792 1.648 1.886 1.61 1.465-0.048 1.886-1.473 1.862-2.206-0.061-1.723-1.876-2.81-4.277-2.733z"></path>
</svg>
