<!-- Generated by IcoMoon.io -->
<svg version="1.1" xmlns="http://www.w3.org/2000/svg" width="32" height="32" viewBox="0 0 32 32">
<title>the-red-yeti</title>
<path d="M30.514 15.106l1.294 0.444c-0.6-1.494-1.494-2.313-1.981-2.8l0.444-1.137c0.012 0 0.769-1.738-0.156-1.919-0.038-0.706-0.413-1.688-1.15-1.688-0.475-0.662-1.106-0.769-1.919-0.369-0.603 0.297-1.122 0.641-1.592 1.040l0.011-0.009c-0.331-0.4-0.188 0.025-0.188-1.862-2.319-1.519-2.837-0.731-4.675 0.188l0.031 0.031c-1.263-0.459-2.722-0.758-4.241-0.83l-0.034-0.001c-0.344-0.544-1.162-1.194-1.569-1.569l1.55 0.444c-0.344-0.344-1.675-0.806-2.137-0.95 1.137-0.256 1.863-1.3 2.656-2.063-2.181-0.631-4.244-0.369-6.119 0.737l0.75-2.763-0.114-0.031c-1.975 1.512-2.063 2.619-2.106 2.844-0.056-0.15-0.394-1.225-0.95-1.688-0.103 0.246-0.163 0.531-0.163 0.831 0 0.269 0.048 0.527 0.137 0.765l-0.005-0.015c0.188 0.525 0.369 0.925 0.525 1.181-1-0.206-1.769-0.306-3.075 0h-0.231l2.063 0.894c-1.234 1.157-2.223 2.56-2.889 4.133l-0.030 0.080-0.106 0.525 0.106 0.106 0.475-0.294c-0.206 0.725-0.331 1.213-0.412 1.613-0.655 0.734-1.232 1.56-1.705 2.451l-0.033 0.068c-0.938 0.063-1.988 0.675-2.519 0.894l0.188 0.213 1.8 0.063c-0.031 0.063-0.044 0.137-0.075 0.2-0.456 0.4-2.487 2.356-2.063 5.044l1.262-1.4c0.031 0.106 0.044 0.212 0.075 0.325 0 1.594 0.025 5.6 4.056 9.406 2.725 2.5 6 3.763 9.844 3.763 7.606 0 13.937-5.456 13.937-13.219 0.425-0.606-0.075 0.188 1.044-1.569l0.813 0.894 0.156-0.031c-0.13-0.809-0.324-1.528-0.582-2.216l0.026 0.078c-0.102-0.318-0.246-0.594-0.43-0.838l0.005 0.007zM24.875 6.95l-0.031 1.369c0.344 1.131 1.056 1.075 1.4 1.075l-0.212-0.294 1.4-0.338c-0.252 0.015-0.547 0.024-0.844 0.024s-0.592-0.009-0.884-0.025l0.040 0.002c0.8-0.131 2.081-1.813 2.688-0.706 0.212 0.475 0.4 1.075 0.581 1.738l0.106-0.369c-0.068-0.259-0.107-0.556-0.107-0.863 0-0.031 0-0.061 0.001-0.091l-0 0.005c0.337 0.031 0.55 0.213 0.581 0.631 0.031 0.4 0.106 0.925 0.212 1.581l0.294-0.706c0.288 0 0.281-0.225-0.156 1.294-1.306-0.544-2.194-0.525-2.906-0.525l1.137-1c-1.581 0.512-2.063 0.675-3.425 1.306-0.069-0.338-0.313-0.844-1-1.244-0.2 0.238-0.175 0.056-0.044 0.925h-0.156c-0.084-0.543-0.268-1.030-0.535-1.46l0.010 0.017 0.262-0.213c0.525-0.444 0.738-0.894 0.663-1.369-0.031-0.4-0.337-0.844-0.844-1.294 0.35-0.213 0.95-0.025 1.769 0.531zM22.4 6.319c0.169 0.119 0.712 0.338 1.181 1.075 0.262 0.525 0.25 0.612 0.212 0.694-0.031 0.15-0.031 0.269-0.188 0.444-0.106 0.156-0.337 0.294-0.738 0.475-0.475-0.813-1.031-1.475-1.738-1.95zM5.688 8.944l0.075-0.106c0.075-0.181 0.263-0.475 0.581-0.95l0.156-0.213-0.813 0.769 0.338-0.294-0.631 0.581-0.263 0.075c0.769-1.506 1.444-2.581 2.031-3.138 0.581-0.581 1-1 1.263-1.212l-0.4 0.075c-0.706-0.263-1.213-0.444-1.55-0.525 0.156-0.031 0.231-0.031 0.2-0.031 0.644 0 1.094 0.031 1.306 0.075 0.298 0.099 0.642 0.156 0.999 0.156 0 0 0.001 0 0.001 0h-0l0.031-0.106-0.525-2.237 0.844 1.813c0.168-0.256 0.295-0.555 0.366-0.876l0.003-0.018c0.106-0.4 0.338-0.813 0.631-1.212s0.475-0.662 0.581-0.706c-0.138 0.415-0.276 0.946-0.384 1.488l-0.016 0.094-0.106 0.444-0.031 0.294 0.156 0.156c1.369-0.844 2.844-1.212 4.456-1.181l1.319 0.031c-0.738 0.844-1.738 1.369-3.031 1.55-0.413 0.081-0.915 0.145-1.424 0.179l-0.038 0.002-0.012-0.031-0.156-0.075c-0.080-0.017-0.171-0.027-0.265-0.027-0.223 0-0.433 0.056-0.617 0.156l0.007-0.003c-0.156-0.013-0.306-0.031-0.444-0.044l-0.156 0.106 0.031 0.075c0.125 0.013 0.244 0.031 0.387 0.044l-0.125 0.213 0.213-0.031-0.662 0.706c-0.262 0.188-0.338 0.4-0.262 0.581l0.338-0.213h0.075c0.378-0.498 0.932-0.844 1.567-0.948l0.014-0.002v-0.188c0.4 0.031 0.813 0.063 1.213 0.075 0.4 0 0.525 0.031 0.338 0.075 0.498 0.282 0.921 0.561 1.324 0.865l-0.030-0.022c0.844 0.631 1.475 1.369 1.875 2.213 0.55 1.137 0.844 2.319 0.844 3.537-0.003 0.628-0.071 1.238-0.198 1.827l0.010-0.058c-0.246 1.091-0.59 2.051-1.034 2.952l0.034-0.077 0.156 0.031c1.137-1.231 2.619-1 3.075-1l-0.4 0.369 1.4 1.106-0.106 1.919c-0.337-0.769-1.031-1.319-2.063-1.738 1.031 0.925 1.475 1.319 1.369 1.262-0.3-0.175-0.219-0.119-0.675-0.231 0.256 0.256 1.094 1.175 1.137 1.294l0.012 0.012-0.012 0.012c0 0.113 0.1-0.075-0.875 1.431-4.7-0.956-6.642-2.669-8.825-3.95l0.738 0.075c-0.738-1.156-0.975-1.106-2.4-1.631l0.662-0.525c-0.55-0.188-1.137-0.188-1.769 0.031l0.475-0.662-0.075-0.106c-0.931 0.269-1.237 0.575-1.413 0.706-0.069-0.344-0.175-0.775-0.769-1.8l-0.075 1.688-0.825-0.313c0.094-1.575 0.338-3.156 0.825-4.662zM22.969 29.569c-3.119 1.563-3.506 1.4-3.688 1.494-1.863-0.738-3.181-1.981-3.969-3.675l1.875 1.031c-0.613-0.581-1.144-1.031-2.4-2.769l0.738 1.444-1.106-0.475c0.887 1.319 1.469 3.231 4.162 4.594-7.55 1.513-12.438-4.506-12.556-4.644 0.651 0.544 1.374 1.056 2.137 1.508l0.076 0.042c0.213 0.106 0.444 0.156 0.631 0.075l-1-1.294c0.575 0.262 0.594 0.281 4.319 1.813-2.656-1.294-4.612-2.55-5.825-3.762-0.031 0.4-0.075 0.631-0.075 0.631 0.537 0.452 0.972 1.006 1.281 1.633l0.013 0.029c-2.438-1.181-3.6-2.975-4.456-5.162 3.119 3.444 7.431 2.344 7.531 2.319 2.175 1.025 4.369 1.475 7.119 0.663 0.206 0 1.269 1.063 1.581 2.444l0.262-0.188-0.156-1.475c0.563 0.563 1.556 1.413 2.15 0.813-0.975-0.331-1.469-0.594-1.844-1.981 0.288 0.262 0.475 0.563 1.738 0.938l0.075-0.075-0.656-0.887c0.731-0.3-0.219 0.063 2-0.675 0.269 2.144 0.563 3.075 0.044 5.594zM30.175 16.169l-0.156 0.031 0.188 0.581c-0.219 0.369-1.481 2.769-4.475 4.981-2.469 1.863-4.788 2.444-5.056 2.519l-0.475-0.444-0.075 0.188 0.894 1-0.444-0.294 0.212 0.262h-0.075l-1.369-0.844 0.581 1.663-1.188-1.744-0.075 0.156 0.475 1.813c-0.381-0.512-1.313-2.038-3.55-2.475l2.031 1.325c-0.606 0.097-1.304 0.152-2.015 0.152-1.358 0-2.67-0.202-3.905-0.577l0.095 0.025c-0.262-0.075-0.556-0.156-0.844-0.262l0.075-0.188-2.8-1.4 1.631 1.4c-3.606 0.569-7.063-1.587-7.9-5.212l-0.156-1.025-1.392 1.394c1.219-3.594 1.6-3.619 3.212-4.381-0.569-0.331-0.1-0.206-2.4-0.581 0.988-0.363 2.063-0.963 4.563 0.325 0.066-0.041 0.143-0.076 0.223-0.104l0.008-0.002c0.037-0.2 0.025-0.050 0.063-0.738 0.244 0.625 0.225 0.544 0.188 0.581l0.106 0.031c0.794-0.406 0.556-0.281 1.063-0.556l-0.338 0.844 1.394-0.363-0.525 0.525 0.156 0.156c0.281-0.113 1.894 0.213 2.55 1l-1.475-0.156c2.463 1.438 3.219 3.375 3.487 4.35l0.106-0.075c-0.175-1.394-0.775-2.119-1-2.506 0.262 0.313 2.45 2.163 6.9 2.875-0.706-0.031-1.444 0.337-2.181 1.181l2.919-1.262-0.581 1.369c0.475-0.631 0.925-1.475 1.325-2.475v-0.031l0.075-0.188-0.075 1c0.844-2.613 1.581-4.906 2.212-6.856l0.844-1.738v-0.125l-0.337-0.262h0.631l0.369 0.262 0.156-0.075-0.212-1 0.769 1.181 2.613-1.262-0.925 0.813 0.031 0.181 1.106-0.031c0.746 0.028 1.454 0.122 2.14 0.277l-0.077-0.015-1.475 0.156-0.075 0.188 1.663 1.444c0.602 0.604 1.156 1.257 1.655 1.953l0.032 0.047c-0.7-0.206-0.644-0.213-1.325-0.213l0.769 2.031zM29.794 11.713l-0.244 0.813-0.894-0.738zM13.869 12.156c0.106 0.662 0.294 1.106 0.55 1.369-0.581 0.412-1.719 0.869-2.906 1l0.031 0.075c0.141 0.023 0.304 0.035 0.47 0.035 0.388 0 0.759-0.070 1.102-0.199l-0.022 0.007-0.444 0.813c0.262-0.106 0.631-0.444 1.106-0.925 0.744-0.344 0.794-0.319 1.262-1-0.794-0.4-0.981-0.856-1.15-1.175zM14.1 5.763c-0.4-0.213-0.662 0.188-0.769 1.181s0.156 1.844 0.738 2.475 1.137 0.662 1.631 0.188 0.213-1.475-0.706-2.981c-0.222-0.36-0.523-0.651-0.88-0.856l-0.012-0.006zM13.806 8.656c0.338 0.137 0.656 0.119 0.769-0.662v-0.294l-0.075 0.031c-0.269-0.194-0.156-0.281-0.106-0.388l0.031-0.031c-0.056-0.075-0.313-0.506-0.781 0.294-0.031-0.844 0.031-1.369 0.188-1.55 0.075-0.156 0.294-0.075 0.706 0.263 0.4 0.338 0.706 1 0.95 2.031 0.406 1.75-1.238 1.637-1.681 0.306zM10.994 8.313c0.1 0.019 0.581-0.069 0.581-0.925h-0.031c-0.338-0.069-0.137-0.344-0.044-0.369-0.106-0.188-0.213-0.263-0.338-0.294-0.506 0-0.725 0.794-0.506 1.325 0.064 0.135 0.188 0.234 0.336 0.262l0.003 0zM13.5 5.181l-0.156 0.031 0.031 0.188c0.050-0.003 0.108-0.005 0.167-0.005 0.537 0 1.041 0.138 1.48 0.381l-0.016-0.008c-0.156-0.344-0.625-0.894-1.769-0.894l0.031 0.156zM9.012 8.269c1.356 1.050 1.031 1.338 2.906 1.475l-0.181-0.294c0.511-0.437 0.853-1.057 0.924-1.757l0.001-0.011c0.106-1-0.075-1.844-0.55-2.581l0.813-0.475c0.001-0.005 0.001-0.011 0.001-0.016 0-0.034-0.012-0.066-0.032-0.090l0 0c-0.096-0.039-0.208-0.061-0.324-0.061-0.195 0-0.375 0.063-0.522 0.169l0.003-0.002c-0.794 0.419-1.75 1.306-1.813 1.4-0.106 0.106-0.213 0.369-0.338 0.844-0.114 0.442-0.18 0.951-0.181 1.474v0.001c-0.294-0.5-0.656-0.4-1.244-0.369l0.444 0.475c-1.031 0-1.456 0.963-1.475 1 0.425 0 0.287-0.475 1.875-0.769-0.269-0.394-0.206-0.313-0.306-0.412zM10.181 7.1c0.075-0.475 0.213-0.813 0.4-1.075 0.338-0.4 0.662-0.631 1-0.737 0.262-0.106 0.444 0.075 0.631 0.581 0.124 0.393 0.195 0.845 0.195 1.313 0 0.094-0.003 0.188-0.009 0.281l0.001-0.013c-0.031 0.581-0.213 1.075-0.525 1.444-0.181 0.213-0.338 0.369-0.4 0.475-0.074 0.008-0.159 0.012-0.246 0.012-0.163 0-0.322-0.016-0.476-0.046l0.016 0.003-0.444-0.213-0.338-0.4c0.050-0.625 0.081-1.175 0.194-1.625zM12.806 10.606c-2.175 0.9-2.169 0.875-2.256 0.894-1.3 0.294-1.188-1.525-1.181-1.55l0.369-0.075-0.031-0.156c-1.262-0.162-1.938 0.262-2.031 0.306 0.031 0.031 0.188 0.213 0.369 0.581 0.262-0.4 0.55-0.631 0.95-0.662-0.039 0.239-0.061 0.515-0.061 0.796 0 0.466 0.061 0.917 0.176 1.347l-0.008-0.036c0.006 0.031 0.162 1.088 1.719 1.506 0.706 0.188 1.688 0.075 3.056-0.338l-0.575 0.031c-0.262-0.925-0.4-1.55-0.369-1.844 0.706-0.55 1.369-0.706 1.919-0.475h0.156l-0.738-0.475-0.444 0.031c-0.369 0.075-0.769 0.262-1.213 0.525z"></path>
</svg>
