<!-- Generated by IcoMoon.io -->
<svg version="1.1" xmlns="http://www.w3.org/2000/svg" width="28" height="32" viewBox="0 0 28 32">
<title>themeco</title>
<path d="M12.681 0.527c0.619-0.358 1.625-0.364 2.247-0.013l11.947 6.727c0.625 0.35 1.125 1.215 1.125 1.929v13.581c0 0.715-0.504 1.581-1.125 1.938l-11.949 6.796c-0.621 0.354-1.625 0.348-2.241-0.013l-11.569-6.776c-0.616-0.361-1.116-1.234-1.116-1.945v-13.581c0-0.715 0.5-1.585 1.119-1.942zM7.844 13.016c-0.996 0-1.993 0.009-2.989 0.009v6.341h1.196v-1.866h1.794c3.107 0 3.098-4.484 0-4.484zM16.602 19.284l-1.921-2.165c2.312-0.469 2.175-4.077-0.679-4.094-1.006 0-2.011-0.009-3.016-0.009v6.349h1.196v-2.119h1.151l1.848 2.119h1.422zM14.003 14.139c1.459 0 1.454 2.029 0 2.029h-1.821v-2.029zM8.031 14.039c1.324 0 1.319 2.428 0 2.428h-2.019v-2.428zM20.071 12.899c-4.279 0-4.438 6.613 0 6.613 4.343-0.001 4.338-6.613 0-6.613zM20.071 13.986c2.758 0 2.8 4.429 0 4.429s-2.777-4.429 0-4.429z"></path>
</svg>
