<!-- Generated by IcoMoon.io -->
<svg version="1.1" xmlns="http://www.w3.org/2000/svg" width="32" height="32" viewBox="0 0 32 32">
<title>umbraco</title>
<path d="M15.959 0.5c-8.562-0.011-15.513 6.92-15.522 15.48-0.004 8.563 6.938 15.512 15.5 15.517 8.553 0 15.489-6.919 15.5-15.479s-6.916-15.507-15.478-15.518zM25.022 17.125q-0.071 2.543-0.875 4.063t-2.719 2.188q-1.913 0.669-5.341 0.654h-0.287q-3.424 0.014-5.34-0.654t-2.72-2.188q-0.803-1.523-0.875-4.063c-0.021-0.287-0.033-0.622-0.033-0.96s0.012-0.673 0.035-1.004l-0.003 0.045c0.030-1 0.111-1.948 0.241-2.88l-0.016 0.137c0.117-0.837 0.223-1.411 0.338-2 0.063-0.305 0.080-0.401 0.114-0.528 0.035-0.14 0.158-0.242 0.306-0.243h0.043l2 0.313c0.149 0.028 0.26 0.157 0.26 0.312 0 0 0 0.001 0 0.001v-0c0.001 0.007 0.001 0.016 0.001 0.024s-0 0.017-0.001 0.025l0-0.001-0.106 0.549q-0.151 0.828-0.303 2.105c-0.098 0.784-0.158 1.698-0.165 2.625l-0 0.009q-0.018 2.527 0.508 3.739c0.362 0.802 1.076 1.389 1.939 1.571l0.018 0.003c0.943 0.208 2.027 0.328 3.138 0.328 0.157 0 0.313-0.002 0.468-0.007l-0.023 0.001h0.641c0.131 0.004 0.284 0.006 0.438 0.006 1.112 0 2.197-0.12 3.241-0.347l-0.1 0.018c0.878-0.188 1.587-0.776 1.94-1.56l0.007-0.017q0.533-1.214 0.508-3.736c-0.007-0.936-0.066-1.851-0.174-2.75l0.011 0.116q-0.155-1.274-0.306-2.105l-0.106-0.549c-0.001-0.007-0.001-0.016-0.001-0.024s0-0.017 0.001-0.025l-0 0.001c-0-0.001-0-0.003-0-0.004 0-0.155 0.113-0.284 0.261-0.308l0.002-0 2-0.313h0.051c0 0 0.001 0 0.002 0 0.148 0 0.272 0.103 0.304 0.241l0 0.002c0.034 0.128 0.051 0.223 0.114 0.528 0.114 0.601 0.22 1.174 0.337 2 0.115 0.795 0.196 1.743 0.225 2.704l0.001 0.039c0.020 0.282 0.031 0.61 0.031 0.942 0 0.344-0.012 0.686-0.036 1.024l0.003-0.045z"></path>
</svg>
