<!-- Generated by IcoMoon.io -->
<svg version="1.1" xmlns="http://www.w3.org/2000/svg" width="28" height="32" viewBox="0 0 28 32">
<title>viadeo-sp</title>
<path d="M25 2h-22c-1.656 0-3 1.344-3 3v22c0 1.656 1.344 3 3 3h22c1.656 0 3-1.344 3-3v-22c0-1.656-1.344-3-3-3zM17.544 23.825c-2.65 2.887-7.5 2.913-10.15 0-4.25-4.6-1.237-12.256 5.075-12.256 0.831 0 1.662 0.131 2.444 0.419-0.269 0.525-0.456 1.1-0.525 1.694-0.606-0.256-1.262-0.375-1.919-0.375-3.050 0-5.287 2.606-5.287 5.556 0 2.688 1.781 4.919 4.344 5.369 3.844-1.5 4.556-7.35 4.556-10.938 0-0.456 0-0.925-0.038-1.381-0.7-2.056-1.662-4.037-2.762-5.906 1.694 1.144 2.619 3.906 2.762 5.881v0.025c0.481 1.406 0.738 2.888 0.738 4.375 0 3.381-1.369 6.188-4.269 8.012l-0.15 0.012c3.125 0.063 5.388-2.413 5.388-5.45 0-0.762-0.131-1.519-0.431-2.231 0.594-0.119 1.156-0.35 1.65-0.656 0.956 2.288 0.788 5.456-1.425 7.85zM19.313 14.606c-0.831 0-1.569-0.444-2.15-1.006 1.369-0.75 3.1-1.919 3.894-3.313 0.094-0.188 0.256-0.537 0.281-0.75-0.781 1.744-2.762 3.112-4.619 3.544-0.294-0.456-0.469-0.969-0.469-1.519 0-0.644 0.325-1.506 0.806-1.975 1.35-1.281 3.313-0.531 4.525-3.125 2.031 2.888 0.819 8.144-2.269 8.144z"></path>
</svg>
