<!-- Generated by IcoMoon.io -->
<svg version="1.1" xmlns="http://www.w3.org/2000/svg" width="32" height="32" viewBox="0 0 32 32">
<title>visualstudio</title>
<path d="M17.867 6.276c-3.459 3.459-6.368 6.276-6.505 6.276-0.115 0-2.016-1.397-4.192-3.092l-3.94-3.092-3.207 1.604v16.034l3.207 1.604 3.642-2.841c2.016-1.58 3.871-3 4.123-3.161 0.458-0.275 0.916 0.138 6.849 6.048l6.345 6.345 3.894-1.581 3.894-1.557v-25.747l-2.978-1.191c-1.626-0.664-3.39-1.351-3.917-1.558l-0.939-0.366-6.276 6.276zM24.075 15.989c0 3.527-0.046 6.414-0.138 6.414-0.32 0-8.109-6.276-8.040-6.482 0.069-0.252 7.742-6.322 8.017-6.322 0.092-0.023 0.161 2.863 0.161 6.391zM5.864 13.698l2.291 2.291-2.291 2.29c-1.26 1.26-2.359 2.291-2.451 2.291-0.115 0-0.183-2.061-0.183-4.581s0.069-4.582 0.183-4.582c0.092 0 1.191 1.031 2.451 2.291z"></path>
</svg>
