<!-- Generated by IcoMoon.io -->
<svg version="1.1" xmlns="http://www.w3.org/2000/svg" width="32" height="32" viewBox="0 0 32 32">
<title>w3c</title>
<path d="M30.9 8.697l-0.621 1.236-0.083-0.145c-0.136-0.237-0.433-0.677-0.596-0.88-0.442-0.549-1.044-0.952-1.652-1.104-0.245-0.060-0.721-0.062-0.943-0.002-0.435 0.119-0.847 0.373-1.232 0.762-0.459 0.461-0.837 1.078-1.151 1.878-0.346 0.879-0.521 1.742-0.58 2.869-0.064 1.225 0.105 2.414 0.491 3.447 0.096 0.252 0.226 0.557 0.235 0.548 0.004-0.004-0.006-0.068-0.021-0.145-0.092-0.48-0.13-1.451-0.085-2.145 0.047-0.721 0.186-1.402 0.457-2.239 0.278-0.866 0.608-1.434 1.144-1.985 0.54-0.555 1.023-0.798 1.659-0.833 0.455-0.024 0.807 0.090 1.311 0.427 0.478 0.32 0.922 0.826 1.283 1.464 0.055 0.096 0.105 0.168 0.113 0.16 0.028-0.032 1.227-2.344 1.234-2.382 0.006-0.032-0.316-2.071-0.339-2.147-0.004-0.009-0.286 0.538-0.626 1.217z"></path>
<path d="M0.009 7.604c0.006 0.025 1.134 3.836 2.508 8.472l2.497 8.429h0.222l1.563-5.234c0.86-2.88 1.567-5.236 1.573-5.236s0.713 2.356 1.573 5.236l1.563 5.234h0.22l2.15-7.256c2.122-7.162 2.152-7.258 2.248-7.426l0.1-0.171h3.544l-0.064 0.107c-0.036 0.060-0.694 1.2-1.466 2.536l-1.404 2.425v1.008h0.553c0.585 0 0.83 0.017 1.125 0.075 1.091 0.222 1.796 0.939 2.054 2.090 0.143 0.638 0.16 1.422 0.047 2.086-0.177 1.046-0.698 1.932-1.334 2.273-0.254 0.137-0.378 0.164-0.734 0.162-0.271-0.002-0.333-0.008-0.491-0.049-0.425-0.115-0.704-0.28-1.042-0.622-0.329-0.333-0.559-0.679-0.783-1.174-0.056-0.126-0.1-0.201-0.115-0.198-0.023 0.006-1.385 0.568-1.599 0.66l-0.090 0.038 0.075 0.211c0.463 1.296 1.309 2.327 2.331 2.837 0.483 0.243 0.943 0.363 1.505 0.395 0.995 0.056 1.891-0.199 2.619-0.753 0.205-0.154 0.568-0.508 0.741-0.722 0.677-0.837 1.072-1.789 1.234-2.973 0.055-0.403 0.070-1.257 0.028-1.684-0.168-1.748-0.918-3.129-2.128-3.919-0.233-0.152-0.61-0.341-0.894-0.446-0.118-0.045-0.224-0.088-0.231-0.094-0.008-0.008 0.679-1.21 1.528-2.673l1.545-2.66v-1.025h-8.233l-1.514 5.145c-0.832 2.83-1.516 5.146-1.522 5.146s-0.649-2.175-1.428-4.831c-0.781-2.657-1.462-4.971-1.513-5.146l-0.094-0.314h-1.099c-1.038 0-1.099 0.002-1.089 0.032 0.006 0.019 0.231 0.777 0.5 1.684l0.491 1.648-1.022 3.464c-0.562 1.906-1.025 3.464-1.031 3.464s-0.69-2.316-1.522-5.146l-1.513-5.145h-2.196l0.010 0.041z"></path>
<path d="M23.273 19.461c0 0.032 0.307 0.928 0.388 1.135 0.109 0.282 0.397 0.867 0.572 1.172 0.314 0.542 0.711 1.067 1.11 1.468 0.66 0.666 1.319 1.027 2.126 1.17 0.188 0.032 0.865 0.032 1.054 0 0.561-0.1 1.054-0.305 1.486-0.623 0.751-0.547 1.398-1.3 1.878-2.179l0.115-0.211-0.158-0.82c-0.087-0.454-0.16-0.826-0.166-0.83-0.004-0.004-0.085 0.126-0.183 0.29-0.228 0.384-0.491 0.781-0.653 0.982-0.070 0.087-0.267 0.299-0.439 0.47-0.482 0.484-0.856 0.766-1.302 0.976-0.664 0.316-1.157 0.421-1.774 0.378-0.442-0.030-0.69-0.085-1.067-0.237-0.546-0.218-0.959-0.504-1.509-1.040-0.487-0.48-0.698-0.771-1.257-1.74-0.213-0.369-0.222-0.386-0.222-0.361z"></path>
</svg>
