<!-- Generated by IcoMoon.io -->
<svg version="1.1" xmlns="http://www.w3.org/2000/svg" width="32" height="32" viewBox="0 0 32 32">
<title>weebly</title>
<path d="M26.568 4.114c-2.492 0-4.58 1.608-5.229 4.021-1.135-3.629-4.094-4.021-5.309-4.021-1.236 0-4.175 0.393-5.33 4.021-0.649-2.412-2.716-4.021-5.229-4.021-3.059 0-5.471 2.118-5.471 4.825 0 1.81 0.261 2.079 4.823 14.592 1.398 3.786 4.236 4.334 5.796 4.334 2.452 0 4.378-1.216 5.371-3.374 0.993 2.177 2.918 3.393 5.371 3.393 1.561 0 4.398-0.569 5.796-4.354 4.784-13.041 4.844-12.849 4.844-14.2 0.039-3.020-2.251-5.217-5.433-5.217zM28.214 11.29l-4.098 11.027c-0.495 1.343-1.326 2.326-2.89 2.326-1.465 0-2.336-0.776-2.752-2.119l-2.455-7.339h-0.059l-2.455 7.339c-0.435 1.344-1.306 2.1-2.751 2.1-1.564 0-2.396-0.984-2.89-2.326l-4.059-10.952c-0.336-0.927-0.495-1.494-0.495-2.156 0-1.021 0.99-1.835 2.396-1.835 1.168 0 1.999 0.737 2.257 1.816l2.752 8.739h0.059l2.791-8.549c0.376-1.229 1.029-2.005 2.435-2.005s2.059 0.757 2.435 2.005l2.791 8.549h0.059l2.752-8.739c0.258-1.078 1.089-1.816 2.257-1.816 1.386 0 2.396 0.833 2.396 2.232-0.020 0.492-0.258 1.002-0.476 1.703z"></path>
</svg>
