<!-- Generated by IcoMoon.io -->
<svg version="1.1" xmlns="http://www.w3.org/2000/svg" width="28" height="32" viewBox="0 0 28 32">
<title>whmcs</title>
<path d="M28 10.063v-1.331l-1.781-0.55-0.137-0.65 1.256-1.294-0.65-1.212-1.813 0.469-0.45-0.469 0.469-1.763-1.194-0.725-1.331 1.313-0.669-0.2-0.438-1.65h-1.413l-0.387 1.65-0.756 0.2-1.231-1.313-1.212 0.688 0.506 1.731-0.506 0.525-1.781-0.469-0.688 1.194 1.294 1.313-0.181 0.65-1.781 0.488-0.019 1.356 1.8 0.469 0.15 0.756-1.256 1.244 0.65 1.156 1.85-0.469 0.45 0.537-0.506 1.681 1.244 0.725 1.212-1.275 0.725 0.181 0.419 1.781 1.413 0.019 0.419-1.8 0.725-0.219 1.294 1.35 1.275-0.756-0.55-1.75 0.488-0.506 1.8 0.55 0.644-1.256-1.306-1.175 0.137-0.756 1.819-0.438zM20.55 12.887c-1.956 0-3.55-1.588-3.55-3.55s1.587-3.55 3.55-3.55 3.55 1.587 3.55 3.55c0 1.969-1.587 3.55-3.55 3.55zM25.069 13.912l2.931 0.906v2.494l-3.444 0.837-0.256 1.419 2.431 2.206-1.2 2.369-3.375-1.044-0.913 0.95 1.044 3.281-2.394 1.419-2.431-2.531-1.356 0.413-0.787 3.375-2.65-0.031-0.787-3.35-1.356-0.35-2.275 2.4-2.338-1.356 0.95-3.156-0.856-1.006-3.469 0.881-1.231-2.175 2.369-2.337-0.3-1.425-3.375-0.881 0.031-2.556 3.344-0.919 0.356-1.231-2.431-2.463 1.294-2.237 3.35 0.881 0.95-0.981-0.95-3.25 2.275-1.294 2.3 2.463 1.419-0.381 0.725-3.25h2.65l0.725 2.869-1.412-0.369-0.394-0.106-0.206 0.356-0.688 1.194-0.206 0.35 0.287 0.287 1.075 1.088-0.019 0.063-1.875 0.512-0.006 0.4-0.012 0.806c-2.969 0.65-5.206 3.3-5.206 6.469 0 3.644 2.956 6.606 6.606 6.606 3.156 0 5.794-2.212 6.45-5.175l1.256 0.019 0.1-0.419 0.35-1.5 0.119-0.037 1.363 1.419 0.363-0.212 1.275-0.756 0.363-0.219-0.125-0.406-0.425-1.325z"></path>
</svg>
