<!-- Generated by IcoMoon.io -->
<svg version="1.1" xmlns="http://www.w3.org/2000/svg" width="40" height="32" viewBox="0 0 40 32">
<title>wikipedia-w</title>
<path d="M40 3.2l-0.019 0.763c-1.756 0.050-2.813 0.987-3.487 2.519-1.563 3.612-6.456 15-9.706 22.413h-0.85l-5.119-12.069c-2.031 3.975-4.269 8.125-6.2 12.069-0.019 0.019-0.938 0-0.938-0.019-2.931-6.856-6.006-13.662-8.944-20.538-0.713-1.669-3.087-4.375-4.725-4.356 0-0.194-0.019-0.625-0.019-0.888h10.119v0.869c-1.2 0.069-3.3 0.831-2.706 2.137 1.369 3.106 6.475 15.019 7.85 18.038 0.938-1.856 3.613-6.825 4.706-8.925-0.869-1.769-3.663-8.369-4.55-10-0.606-1.112-2.256-1.213-3.488-1.231v-0.869l8.906 0.019v0.819c-1.212 0.038-2.381 0.487-1.837 1.631 1.181 2.5 1.913 4.256 3.006 6.544 0.35-0.675 2.169-4.338 3.006-6.3 0.556-1.288-0.244-1.788-2.413-1.837 0.019-0.225 0-0.644 0.019-0.85 2.775-0.019 6.944-0.019 7.694-0.038v0.85c-1.406 0.050-2.863 0.8-3.631 1.981l-3.7 7.675c0.4 1.006 3.956 8.925 4.325 9.794l7.65-17.663c-0.538-1.444-2.275-1.756-2.95-1.769v-0.869l7.987 0.069 0.013 0.031z"></path>
</svg>
