<!-- Generated by IcoMoon.io -->
<svg version="1.1" xmlns="http://www.w3.org/2000/svg" width="32" height="32" viewBox="0 0 32 32">
<title>yahoo</title>
<path d="M25.776 11.162c0.177-0.035 0.441-0.094 0.739-0.159h2.308l0.359-0.531c0.007-0.004 0.021-0.005 0.029-0.005l0.893-1.29c-0.013 0-0.034-0.003-0.044-0.003l0.093-0.14h-12.507l0.481 1.967h3.414l-5.744 5.184c-1.173-1.619-3.92-4.992-5.836-7.784h4.3v-1.497l0.049-0.331c-0.013-0.002-0.037-0.006-0.049-0.006v-0.135h-14.261v1.969h4.229c1.642 1.284 7.92 9.123 8.181 9.905 0.105 0.732 0.2 5.053-0.107 5.38-0.617 0.653-3.432 0.48-4.111 0.528l-0.235 1.339c1.24 0.037 5.276-0.101 6.53-0.101 2.472 0 6.803-0.011 7.414 0.035l0.076-1.404c-0.625-0.106-4.033-0.013-4.504-0.12-0.105-0.681-0.219-5.23-0.115-5.7 0.471-1.358 7.634-6.891 8.418-7.103z"></path>
<path d="M27.852 21.916l1.916 0.152 2.232-8.622c-0.373-0.013-3.76-0.333-4.2-0.418l0.052 8.888z"></path>
<path d="M27.52 23.298l0.012 2.104 0.969 0.084 1.048 0.078 0.307-2.061-1.105-0.054z"></path>
</svg>
