<!-- Generated by IcoMoon.io -->
<svg version="1.1" xmlns="http://www.w3.org/2000/svg" width="31" height="32" viewBox="0 0 31 32">
<title>yarn</title>
<path d="M24.619 21.575c-2.438 0.581-3.025 2.006-6.5 2.962 0 0-0.169 0.25-0.65 0.363-0.837 0.206-3.994 0.375-4.281 0.381-0.775 0.006-1.244-0.2-1.375-0.512-0.4-0.956 0.575-1.375 0.575-1.375-0.506-0.313-0.563-0.619-0.613-0.506-0.15 0.363-0.225 1.256-0.631 1.656-0.55 0.556-1.594 0.369-2.206 0.050-0.675-0.356 0.050-1.2 0.050-1.2s-0.363 0.212-0.656-0.225c-0.375-0.581-1.069-2.331 0.719-3.875-0.081-0.631-0.287-3.356 2.537-5.35 0 0-1.287-1.425-0.806-2.706 0.313-0.838 0.438-0.831 0.537-0.869 0.356-0.137 0.706-0.287 0.963-0.569 1.287-1.387 2.925-1.125 2.925-1.125s0.775-2.362 1.494-1.9c0.219 0.144 1.019 1.912 1.019 1.912s0.85-0.494 0.944-0.313c0.512 1 0.575 2.906 0.35 4.069-0.381 1.912-1.337 2.944-1.725 3.594-0.087 0.15 1.031 0.625 1.738 2.581 0.65 1.788 0.069 3.294 0.175 3.456 0.050 0.087 0.856 0.050 2.275-0.825 0.8-0.494 1.756-1.056 2.837-1.063 1.044-0.031 1.1 1.2 0.306 1.387zM31 16c0 8.556-6.944 15.5-15.5 15.5s-15.5-6.944-15.5-15.5 6.944-15.5 15.5-15.5 15.5 6.944 15.5 15.5zM26.044 20.7c-0.106-0.85-0.825-1.438-1.75-1.425-1.375 0.019-2.531 0.731-3.3 1.2-0.3 0.188-0.556 0.325-0.775 0.425 0.194-2.781-1.406-4.569-1.794-4.963 0.488-0.706 1.15-1.738 1.462-3.325 0.269-1.356 0.188-3.469-0.431-4.656-0.1-0.194-0.462-0.7-1.313-0.463-0.606-1.25-0.813-1.381-0.975-1.487-0.069-0.044-1.475-1.025-2.588 1.75-0.762 0.056-1.956 0.331-2.969 1.425-0.125 0.137-0.369 0.238-0.631 0.338h0.006c-0.525 0.188-0.769 0.619-1.056 1.394-0.406 1.088 0.012 2.162 0.425 2.856-1.113 0.994-2.313 2.488-2.231 5.156-2.125 2.25-0.737 4.563-0.35 4.975-0.1 0.694 0.231 1.212 0.75 1.488 0.787 0.419 1.894 0.6 2.744 0.175 0.306 0.325 0.863 0.631 1.875 0.631 0.425 0 3.625-0.181 4.537-0.406 0.425-0.1 0.719-0.281 0.913-0.444 0.613-0.194 2.3-0.769 3.887-1.794 1.125-0.731 1.512-0.887 2.35-1.087 0.806-0.2 1.313-0.944 1.212-1.762z"></path>
</svg>
