<!-- Generated by IcoMoon.io -->
<svg version="1.1" xmlns="http://www.w3.org/2000/svg" width="32" height="32" viewBox="0 0 32 32">
<title>yii</title>
<path d="M26.994 0c-3.633 0.136-8.049 4.699-6.538 8.954 1.6 4.222 2.625 7.225 2.839 11.936 3.839-3.863 7.367-8.057 7.651-12.923 0.094-3.949-1.776-6.859-3.952-7.968zM17.414 17.532c-0.545 0.974-1.261 2.034-2.194 3.193-1.96 2.471-3.937 6.523-3.329 11.274 8.098-0.894 10.627-6.972 10.849-10.312-1.526-2.303-4.295-3.721-5.326-4.156zM1.083 2.954c-0.288 3.717 1.302 9.244 7.748 11.003 2.714 0.804 4.616 1.299 6.674 2.046 3.010 1.094 5.373 2.49 7.244 4.899-0.347-4.146-2.055-8.896-4.781-12.602-3.89-5.287-10.626-7.824-16.885-5.347z"></path>
</svg>
