<!-- Generated by IcoMoon.io -->
<svg version="1.1" xmlns="http://www.w3.org/2000/svg" width="28" height="32" viewBox="0 0 28 32">
<title>yoast</title>
<path d="M5.706 4.75h11.625l-0.438 1.181h-11.188c-2.481 0-4.494 1.975-4.494 4.394v12.838c0 2.212 1.556 4.394 5.25 4.394v1.194h-0.756c-3.131 0-5.706-2.512-5.706-5.594v-12.831c0-3.081 2.544-5.575 5.706-5.575zM20.025 1.25h4.156c-8.988 23.631-9.106 24.931-11.544 27.456-1.3 1.35-3.081 1.981-4.894 2.044v-3.194c3.075-0.481 4.038-3.119 4.038-4.706 0-1.256 0.037-0.788-5.131-13.95h3.838l3.15 9.788 6.388-17.438zM28 10.094v18.656h-13.375c0.412-0.6 0.669-1.019 0.756-1.212h11.406v-17.444c0-2.031-1.069-3.244-3.012-3.931l0.419-1.1c2.606 0.85 3.806 2.694 3.806 5.031z"></path>
</svg>
